<?xml version="1.0" standalone="no"?>
<!DOCTYPE svg PUBLIC "-//W3C//DTD SVG 1.1//EN" "http://www.w3.org/Graphics/SVG/1.1/DTD/svg11.dtd" >
<svg xmlns="http://www.w3.org/2000/svg">
<metadata>
Created by FontPrep 20130207 at Sun Nov 27 18:57:18 2016
 By Brendan Gatens
(c)2012 Kai Bernau and Susana Carvalho with Christian Schwartz under exclusive license to Schwartzco Inc./Commercial Type. All rights reserved.
</metadata>
<defs>
<font id="6693a1f6b6ec28a42dbc42a1bdaa777c" horiz-adv-x='1024' >
  <font-face 
    font-family="AtlasGrotesk-RegularItalic"
    font-weight="400"
    font-style="italic"
    font-stretch="normal"
    units-per-em="2048"
    panose-1="0 0 0 0 0 0 0 0 0 0"
    ascent="1663"
    descent="-385"
    x-height="1079"
    cap-height="1567"
    bbox="-485 -434 2476 2404"
    underline-thickness="102"
    underline-position="-102"
    slope="-11"
    unicode-range="U+0020-FB02"
  />
<missing-glyph horiz-adv-x="1024" 
 />
    <glyph glyph-name="f_f" unicode="ff" horiz-adv-x="1392" 
d="M743 1608q76 0 121 -13l-28 -151q-41 10 -108 10t-110 -36t-61 -122l-41 -217h496l51 262q53 279 358 279q74 0 121 -12l-29 -152q-41 10 -107 10t-110 -36q-43 -36 -61 -121l-45 -230h248l-27 -141h-248l-180 -938h-180l182 938h-498l-180 -938h-180l182 938h-184
l29 141h182l49 250q53 279 358 279z" />
    <glyph glyph-name="fi" unicode="fi" horiz-adv-x="1292" 
d="M745 1620q74 0 121 -12l-28 -152q-41 10 -108 10q-68 0 -110 -36t-61 -121l-45 -230h248l-27 -141h-248l-180 -938h-180l182 938h-184l29 141h182l51 262q53 279 358 279zM817 0l209 1079h182l-209 -1079h-182zM1069 1325l39 199h190l-38 -199h-191z" />
    <glyph glyph-name="fl" unicode="fl" horiz-adv-x="1290" 
d="M745 1620q74 0 121 -12l-28 -152q-41 10 -108 10q-68 0 -110 -36t-61 -121l-45 -230h248l-27 -141h-248l-180 -938h-180l182 938h-184l29 141h182l51 262q53 279 358 279zM817 0l313 1614h183l-314 -1614h-182z" />
    <glyph glyph-name=".notdef" horiz-adv-x="1024" 
 />
    <glyph glyph-name=".null" horiz-adv-x="0" 
 />
    <glyph glyph-name="nonmarkingreturn" horiz-adv-x="681" 
 />
    <glyph glyph-name="space" unicode=" " horiz-adv-x="546" 
 />
    <glyph glyph-name="exclam" unicode="!" horiz-adv-x="522" 
d="M289 0h-238l45 242h238zM180 485l201 1129h205l-252 -1129h-154z" />
    <glyph glyph-name="quotedbl" unicode="&#x22;" horiz-adv-x="708" 
d="M221 1114l49 453h201l-127 -453h-123zM547 1114l51 453h201l-127 -453h-125z" />
    <glyph glyph-name="numbersign" unicode="#" horiz-adv-x="1339" 
d="M225 203l135 405h-221l31 156h244l98 291h-225l28 155h248l121 357h154l-121 -357h254l121 357h155l-123 -357h230l-29 -155h-252l-96 -291h229l-30 -156h-254l-134 -405h-155l135 405h-256l-133 -405h-154zM567 764h254l101 291h-256z" />
    <glyph glyph-name="dollar" unicode="$" horiz-adv-x="1257" 
d="M266 1106q0 188 136 305t352 125l30 160h134l-33 -168q172 -28 267 -136t83 -300h-180q8 112 -43 188t-156 100l-100 -518l41 -14q182 -66 259 -157t77 -242q0 -203 -155 -330t-392 -135l-43 -222h-133l45 228q-186 25 -292 138q-105 114 -93 327h186q-6 -279 227 -316
l115 590l-41 14q-143 47 -217 141t-74 222zM946 434q0 94 -53 152t-172 100l-107 -551h11q133 14 227 92t94 207zM631 905l94 484q-121 -10 -199 -78t-77 -181q0 -155 182 -225z" />
    <glyph glyph-name="percent" unicode="%" horiz-adv-x="1662" 
d="M1204 117q66 0 113 35q110 82 110 300q0 58 -34 103q-35 45 -114 45t-132 -57q-90 -97 -90 -261q0 -165 147 -165zM1202 -14q-152 0 -230 81t-77 207q0 180 98 316t293 135q152 0 228 -81t77 -206q0 -169 -86 -305q-43 -67 -122 -107t-181 -40zM469 907q66 0 113 35
q110 82 110 302q0 58 -35 102q-35 45 -112 45q-113 1 -168 -103t-55 -223q0 -158 147 -158zM162 1065q0 180 97 315t292 136q153 0 229 -81t76 -206q0 -171 -86 -305q-43 -68 -122 -108t-181 -40q-153 0 -229 81t-76 208zM82 -82l1423 1681h191l-1426 -1681h-188z" />
    <glyph glyph-name="ampersand" unicode="&#x26;" horiz-adv-x="1411" 
d="M1272 -4q-211 0 -338 125q-184 -154 -424 -154q-188 1 -310 107t-122 295q0 299 409 499q-98 178 -98 346t117 281t278 113q160 0 256 -88t97 -238q0 -180 -184 -316q-105 -78 -242 -151l186 -330q49 -86 66 -110q119 170 165 407h166q-80 -326 -239 -532q88 -88 272 -96
l-31 -158h-24zM551 743l-14 -6q-276 -141 -277 -358q0 -117 71 -191t187 -73q180 0 324 123q-41 57 -101 163zM963 1291q-1 73 -47 127t-134 54t-153 -68q-66 -70 -66 -187t84 -277q131 69 224 144q92 75 92 207z" />
    <glyph glyph-name="quotesingle" unicode="'" horiz-adv-x="380" 
d="M221 1114l49 453h201l-127 -453h-123z" />
    <glyph glyph-name="parenleft" unicode="(" horiz-adv-x="667" 
d="M471 -266h-137q-43 110 -69 184t-49 206q-24 132 -23 273q0 612 483 1217h149q-221 -307 -337 -605q-237 -609 -17 -1275z" />
    <glyph glyph-name="parenright" unicode=")" horiz-adv-x="667" 
d="M539 950q0 -612 -484 -1216h-149q221 307 337 605q237 609 17 1275h137q43 -110 69 -184t50 -206t23 -274z" />
    <glyph glyph-name="asterisk" unicode="*" horiz-adv-x="884" 
d="M561 1147h-4l-213 -295l-127 113l266 233l2 4l-290 66l88 162l252 -146l4 4l16 326h176l-110 -320l4 -4l303 148l28 -170l-315 -66l-2 -4l174 -233l-154 -105z" />
    <glyph glyph-name="plus" unicode="+" horiz-adv-x="1245" 
d="M731 653l-78 -393h-176l78 393h-373l29 158h375l76 391h176l-76 -391h373l-29 -158h-375z" />
    <glyph glyph-name="comma" unicode="," horiz-adv-x="458" 
d="M-63 -240l161 492h236l-268 -492h-129z" />
    <glyph glyph-name="hyphen" unicode="-" horiz-adv-x="796" 
d="M137 588l33 166h561l-33 -166h-561z" />
    <glyph glyph-name="period" unicode="." horiz-adv-x="477" 
d="M18 0l48 250h243l-47 -250h-244z" />
    <glyph glyph-name="slash" unicode="/" horiz-adv-x="1153" 
d="M-164 -266l1276 1880h178l-1265 -1880h-189z" />
    <glyph glyph-name="zero" unicode="0" horiz-adv-x="1345" 
d="M618 119q113 0 205 89q160 155 230 508q29 146 28 277q0 393 -266 393q-98 0 -179 -68t-131 -169q-50 -102 -98 -274t-51 -390q0 -366 262 -366zM821 1540q237 0 347 -152q157 -215 82 -656q-22 -130 -72 -270t-121 -248q-72 -108 -187 -178t-254 -69q-226 1 -338 141
t-113 398t87 513q49 144 122 259q74 114 190 188t257 74z" />
    <glyph glyph-name="one" unicode="1" horiz-adv-x="849" 
d="M303 1249q274 0 340 275h148l-295 -1524h-183l217 1118h-303l25 131h51z" />
    <glyph glyph-name="two" unicode="2" horiz-adv-x="1232" 
d="M760 1540q192 0 314 -98t121 -279t-131 -337q-67 -79 -128 -135t-164 -138l-481 -387v-2h735l-31 -164h-987l27 141l612 512q178 150 238 219q117 139 116 285q0 105 -60 167t-171 62q-293 1 -340 -333h-186q39 243 181 365q143 122 335 122z" />
    <glyph glyph-name="three" unicode="3" horiz-adv-x="1257" 
d="M684 688h-92l33 168h71q147 4 232 79q84 75 84 201t-70 187t-192 61t-210 -74q-87 -74 -108 -227h-184q18 205 162 331t347 126t321 -102t118 -263t-84 -263t-219 -144v-4q97 -29 159 -113t62 -215q0 -207 -154 -337t-382 -130q-230 0 -358 122t-114 335h183
q4 -299 307 -299q154 0 245 88t91 212q0 125 -64 193t-184 68z" />
    <glyph glyph-name="four" unicode="4" horiz-adv-x="1255" 
d="M1124 373h-196l-72 -373h-174l72 373h-697l27 143l870 1002h197l-193 -990h197zM281 526h503l150 768h-4q-43 -70 -121 -159z" />
    <glyph glyph-name="five" unicode="5" horiz-adv-x="1249" 
d="M924 567q0 274 -248 275q-197 0 -297 -133h-160l215 809h762l-33 -160h-610l-125 -479h4q47 49 124 85t165 35q184 0 290 -113q105 -114 105 -292q0 -266 -159 -446t-414 -179q-211 0 -334 117t-109 309h185q-3 -135 67 -203t197 -67q175 0 275 132t100 310z" />
    <glyph glyph-name="six" unicode="6" horiz-adv-x="1286" 
d="M610 125q164 0 260 123q96 124 96 272t-73 222q-74 74 -199 75q-160 0 -259 -119t-99 -266t74 -227t200 -80zM870 1397q-182 0 -311 -176t-186 -439h8q129 193 369 193q182 0 296 -113t113 -297q0 -256 -158 -426t-391 -170q-233 1 -346 141q-112 140 -112 334t45 375
q106 431 360 616q145 105 327 105t282 -91q98 -91 100 -259h-174q-16 207 -222 207z" />
    <glyph glyph-name="seven" unicode="7" horiz-adv-x="1093" 
d="M125 0l842 1352h-729l32 166h949l-25 -121l-870 -1397h-199z" />
    <glyph glyph-name="eight" unicode="8" horiz-adv-x="1257" 
d="M283 378q0 -134 84 -198q85 -64 233 -65q148 0 242 90t94 225t-89 200q-89 64 -233 64t-238 -91q-93 -91 -93 -225zM1024 1138q0 124 -74 190t-201 65q-126 0 -209 -90q-83 -89 -83 -215q1 -126 73 -188t197 -62t211 88t86 212zM764 1540q196 0 321 -106t125 -281
q0 -141 -88 -252t-217 -145v-4q90 -29 155 -110t64 -202q0 -217 -160 -345t-382 -128q-224 -1 -356 105t-132 278t100 282q100 112 255 150v4q-78 33 -128 114t-51 185q0 197 148 326q150 129 346 129z" />
    <glyph glyph-name="nine" unicode="9" horiz-adv-x="1286" 
d="M522 -31q-172 -1 -286 97t-105 276h174q0 -119 66 -174t172 -55q358 0 485 639h-8q-60 -92 -158 -142t-211 -51q-186 0 -301 113t-114 297q0 247 158 409t390 162q233 0 343 -140t110 -339q0 -310 -93 -571q-52 -148 -128 -262t-198 -186q-124 -72 -296 -73zM778 1384
q-164 0 -258 -114t-94 -262t67 -221t193 -72q168 -1 267 111t99 258t-73 222q-74 78 -201 78z" />
    <glyph glyph-name="colon" unicode=":" horiz-adv-x="522" 
d="M297 0h-248l47 252h248zM209 827l49 252h248l-49 -252h-248z" />
    <glyph glyph-name="semicolon" unicode=";" horiz-adv-x="522" 
d="M68 -240h-127l159 492h236zM205 827l49 252h248l-49 -252h-248z" />
    <glyph glyph-name="less" unicode="&#x3c;" horiz-adv-x="1167" 
d="M940 158l-850 469l25 118l1028 455l-31 -184l-790 -342l651 -352z" />
    <glyph glyph-name="equal" unicode="=" horiz-adv-x="1325" 
d="M1112 469h-930l31 156h930zM254 840l31 155h929l-30 -155h-930z" />
    <glyph glyph-name="greater" unicode="&#x3e;" horiz-adv-x="1167" 
d="M293 1206l850 -469l-25 -119l-1028 -454l31 186l790 342l-651 352z" />
    <glyph glyph-name="question" unicode="?" horiz-adv-x="1124" 
d="M375 0l45 242h235l-45 -242h-235zM997 1235q1 111 -67 177t-185 67q-155 1 -237 -93t-100 -282h-179q15 254 155 391t356 137t328 -108q114 -108 114 -278q0 -169 -82 -268t-199 -183l-90 -64q-60 -39 -66 -45t-20 -18t-17 -18t-12 -23q-9 -16 -18 -62l-21 -100h-170
l25 131q18 100 55 145t156 125l102 72q172 117 172 297z" />
    <glyph glyph-name="at" unicode="@" horiz-adv-x="2050" 
d="M926 248q96 0 175 78t103 196l19 88q10 70 3 136q-6 66 -56 115q-50 48 -132 48q-143 0 -223 -138t-80 -312q0 -92 47 -152q48 -59 144 -59zM1473 121q-242 0 -269 180h-6q-115 -186 -317 -186q-147 0 -232 94q-84 94 -88 250q-6 221 124 404t345 184q100 1 166 -47
t88 -126h4l27 140h153l-108 -547q-50 -221 148 -221q102 0 191 116t89 365q0 287 -192 473t-518 186q-328 0 -576 -258t-248 -612t196 -560t518 -206t537 172l74 -102q-246 -199 -632 -199q-385 0 -623 242q-238 243 -238 655t296 705t692 293t636 -214q238 -214 238 -559
q0 -169 -45 -295q-77 -215 -272 -294q-78 -33 -158 -33z" />
    <glyph glyph-name="A" unicode="A" horiz-adv-x="1478" 
d="M1110 0l-76 469h-608l-242 -469h-192l821 1567h217l270 -1567h-190zM889 1382q0 -2 -6 -14q-5 -12 -15 -32t-22 -47q-12 -25 -30 -61t-38 -73l-276 -537h508l-86 537l-31 227h-4z" />
    <glyph glyph-name="B" unicode="B" horiz-adv-x="1429" 
d="M700 150q184 0 299 82t115 270q0 250 -323 250h-353l-116 -602h378zM817 907q168 0 262 67t95 230q0 104 -68 158t-188 53h-351l-98 -508h348zM698 0h-592l304 1567h520q200 0 316 -93t116 -257q0 -309 -309 -386v-4q121 -27 187 -117t67 -218q-1 -244 -173 -368
t-436 -124z" />
    <glyph glyph-name="C" unicode="C" horiz-adv-x="1546" 
d="M984 1436q-144 0 -253 -56t-177 -142q-191 -246 -194 -648q0 -203 98 -336t300 -133q200 0 315 102t156 266h188q-57 -244 -231 -383t-442 -139t-422 174q-152 174 -152 470t126 538q67 127 161 224t233 157t303 59q223 1 365 -125t155 -364h-186q-12 164 -106 250
q-93 86 -237 86z" />
    <glyph glyph-name="D" unicode="D" horiz-adv-x="1546" 
d="M653 162q162 0 284 66t185 156q62 91 112 242t50 328q0 451 -448 451h-273l-241 -1243h331zM850 1567q289 0 458 -151t169 -460q0 -394 -201 -665q-100 -135 -270 -213t-392 -78h-508l302 1567h442z" />
    <glyph glyph-name="E" unicode="E" horiz-adv-x="1349" 
d="M106 0l304 1567h966l-33 -168h-780l-102 -527h723l-33 -163h-721l-104 -541h798l-32 -168h-986z" />
    <glyph glyph-name="F" unicode="F" 
d="M422 666l-129 -666h-187l304 1567h913l-33 -168h-727l-110 -570h667l-30 -163h-668z" />
    <glyph glyph-name="G" unicode="G" horiz-adv-x="1650" 
d="M1006 1438q-152 0 -271 -62t-187 -155q-68 -92 -114 -213q-74 -198 -75 -410q-1 -211 97 -344t313 -133q214 0 350 134t177 347l4 25h-444l35 164h627l-154 -791h-162l49 254h-6q-63 -133 -194 -209t-291 -76q-312 0 -458 187q-138 172 -138 440t118 516q65 137 159 242
q95 104 245 170t334 65q228 -1 362 -113t140 -325h-187q-4 133 -91 210q-86 77 -238 77z" />
    <glyph glyph-name="H" unicode="H" horiz-adv-x="1574" 
d="M424 709l-137 -709h-185l301 1567h187l-133 -693h788l133 693h187l-303 -1567h-187l137 709h-788z" />
    <glyph glyph-name="I" unicode="I" horiz-adv-x="606" 
d="M111 0l303 1567h186l-303 -1567h-186z" />
    <glyph glyph-name="J" unicode="J" horiz-adv-x="851" 
d="M88 -6h-141l30 162h119q174 0 249 66t104 214l221 1131h186l-223 -1151q-27 -138 -79 -226t-168 -142t-298 -54z" />
    <glyph glyph-name="K" unicode="K" horiz-adv-x="1433" 
d="M389 502l-96 -502h-187l304 1567h186l-160 -822l862 822h236l-709 -668l453 -899h-207l-387 772z" />
    <glyph glyph-name="L" unicode="L" horiz-adv-x="1206" 
d="M106 0l304 1567h186l-270 -1399h761l-32 -168h-949z" />
    <glyph glyph-name="M" unicode="M" horiz-adv-x="1878" 
d="M106 0l302 1567h276l154 -1075l30 -263h4q76 152 136 263l573 1075h287l-303 -1567h-191l262 1348h-8q-70 -135 -121 -232l-596 -1116h-174l-155 1116l-29 232h-6l-262 -1348h-179z" />
    <glyph glyph-name="N" unicode="N" horiz-adv-x="1595" 
d="M106 0l304 1567h229l457 -1188l47 -154h6l260 1342h176l-303 -1567h-227l-457 1186l-51 151h-4l-258 -1337h-179z" />
    <glyph glyph-name="O" unicode="O" horiz-adv-x="1642" 
d="M1378 952q0 208 -89 339q-98 147 -320 147q-131 0 -239 -58t-176 -146q-193 -254 -196 -652q0 -195 102 -328t314 -133q158 0 281 87t189 221q66 133 100 273t34 250zM166 588q0 430 231 716t582 285q281 0 437 -174t155 -454q0 -181 -52 -355q-115 -385 -404 -550
q-157 -89 -347 -89q-282 -1 -442 175t-160 446z" />
    <glyph glyph-name="P" unicode="P" horiz-adv-x="1280" 
d="M709 752q183 0 291 98t108 289q0 274 -315 274h-226l-129 -661h271zM698 598h-290l-115 -598h-187l304 1567h405q221 -1 352 -107t131 -315q0 -262 -165 -405q-167 -142 -435 -142z" />
    <glyph glyph-name="Q" unicode="Q" horiz-adv-x="1642" 
d="M778 121q132 0 238 58q106 57 172 149t110 208q80 206 80 415t-89 340q-98 147 -320 147q-131 0 -239 -58t-176 -146q-193 -254 -196 -652q0 -197 102 -329t318 -132zM762 -29q-280 0 -438 174t-158 443q0 430 231 716t582 285q281 0 437 -174t155 -449q0 -276 -108 -502
t-277 -347v-11q120 -8 196 -54t142 -144l-156 -109q-78 111 -146 151q-69 40 -180 40q-44 0 -124 -10t-156 -9z" />
    <glyph glyph-name="R" unicode="R" horiz-adv-x="1388" 
d="M901 1567q201 0 322 -98t121 -287t-96 -317q-95 -128 -281 -173v-6l250 -686h-197l-236 666h-362l-131 -666h-185l302 1567h493zM819 821q158 0 245 90t87 256q0 244 -270 244h-318l-114 -590h370z" />
    <glyph glyph-name="S" unicode="S" horiz-adv-x="1363" 
d="M651 127q155 0 265 81t110 230q0 90 -52 146t-173 102l-185 68q-324 115 -323 376q0 211 152 336q153 125 384 123t359 -118t112 -345h-186q10 141 -65 227q-75 85 -223 85t-245 -73t-98 -208q0 -158 213 -235l176 -64q186 -66 266 -158t79 -245q0 -219 -161 -353
t-410 -133q-250 0 -402 120t-140 372h193q-6 -334 354 -334z" />
    <glyph glyph-name="T" unicode="T" horiz-adv-x="1277" 
d="M903 1403l-272 -1403h-189l273 1403h-518l32 164h1219l-33 -164h-512z" />
    <glyph glyph-name="U" unicode="U" horiz-adv-x="1523" 
d="M702 125q264 0 387 184q40 64 60 177q20 112 25 137l182 944h186l-207 -1071q-51 -270 -209 -398t-428 -129q-622 0 -499 629l186 969h186l-170 -881q-61 -324 2 -430q77 -131 299 -131z" />
    <glyph glyph-name="V" unicode="V" horiz-adv-x="1466" 
d="M643 197v-27h4q31 86 115 240l631 1157h194l-864 -1567h-219l-223 1567h196l146 -1131q20 -164 20 -239z" />
    <glyph glyph-name="W" unicode="W" horiz-adv-x="2125" 
d="M1208 1364h-4q-31 -100 -104 -256l-520 -1108h-203l-115 1567h182l66 -1084q6 -123 6 -254l-2 -28h4q31 100 103 254l520 1112h213l71 -1084q12 -170 7 -254l-2 -28h4q31 98 102 254l514 1112h188l-743 -1567h-205l-76 1079q-12 164 -6 254v31z" />
    <glyph glyph-name="X" unicode="X" horiz-adv-x="1472" 
d="M0 0l676 823l-334 744h207l264 -606h4l506 606h203l-627 -756l371 -811h-213l-293 672h-4l-557 -672h-203z" />
    <glyph glyph-name="Y" unicode="Y" horiz-adv-x="1310" 
d="M453 0l133 684l-363 883h209l275 -721h4l573 721h205l-721 -897l-129 -670h-186z" />
    <glyph glyph-name="Z" unicode="Z" horiz-adv-x="1304" 
d="M295 1401l33 166h1067l-29 -144l-1100 -1257h873l-31 -166h-1116l26 143l1100 1258h-823z" />
    <glyph glyph-name="bracketleft" unicode="[" horiz-adv-x="708" 
d="M43 -266l367 1880h436l-27 -137h-270l-313 -1606h270l-27 -137h-436z" />
    <glyph glyph-name="backslash" unicode="\" horiz-adv-x="1073" 
d="M784 -266l-553 1880h154l563 -1880h-164z" />
    <glyph glyph-name="bracketright" unicode="]" horiz-adv-x="757" 
d="M729 1614l-367 -1880h-436l27 137h270l314 1606h-271l27 137h436z" />
    <glyph glyph-name="asciicircum" unicode="^" horiz-adv-x="741" 
d="M651 1614l195 -578h-156l-145 391h-2l-305 -391h-162l428 578h147z" />
    <glyph glyph-name="underscore" unicode="_" horiz-adv-x="827" 
d="M-156 -389l27 141h801l-27 -141h-801z" />
    <glyph glyph-name="grave" unicode="`" horiz-adv-x="456" 
d="M215 1614l143 -332h-133l-209 332h199z" />
    <glyph glyph-name="a" unicode="a" horiz-adv-x="1105" 
d="M624 1104q194 0 286 -118q91 -118 51 -314l-78 -402q-27 -137 78 -129l-27 -149h-19q-102 0 -151 48t-47 132h-6q-125 -188 -338 -188q-141 0 -236 79q-94 80 -94 228q0 270 363 336q100 18 372 18l8 49q23 127 -26 198t-166 71q-205 -1 -225 -179h-185q16 150 131 235
t309 85zM420 131q96 0 194 93t131 257l7 31q-222 0 -318 -18t-150 -68t-54 -127q0 -78 46 -123q48 -45 144 -45z" />
    <glyph glyph-name="b" unicode="b" horiz-adv-x="1224" 
d="M606 117q100 -1 174 65q119 106 161 353q15 88 15 186t-52 169t-175 71q-123 1 -220 -99t-126 -239l-25 -121q-32 -158 24 -272t224 -113zM795 1106q174 0 258 -112t84 -300q0 -244 -119 -470q-60 -112 -164 -182t-228 -69q-124 -1 -210 55q-88 56 -119 165h-4l-35 -193
h-174l313 1614h183l-140 -713h2q123 205 353 205z" />
    <glyph glyph-name="c" unicode="c" horiz-adv-x="1075" 
d="M270 415q0 -128 60 -213t186 -87q127 -3 196 71t81 166h176q-35 -178 -161 -278t-316 -100t-295 120q-106 121 -107 322q0 250 139 462q68 101 181 164q114 64 268 64t247 -91t95 -261h-170q4 94 -49 153t-166 59t-202 -90q-89 -91 -126 -212t-37 -249z" />
    <glyph glyph-name="d" unicode="d" horiz-adv-x="1224" 
d="M468 -27q-192 0 -286 110q-92 110 -92 291q0 403 240 617q127 115 301 115q238 0 297 -199h2l135 707h182l-313 -1614h-172l33 174h-4q-131 -201 -323 -201zM640 961q-91 1 -167 -57q-130 -98 -181 -335q-22 -97 -22 -201t50 -177t178 -73q126 0 223 99q96 98 125 242
l22 114q37 141 -7 263q-19 55 -75 90t-146 35z" />
    <glyph glyph-name="e" unicode="e" horiz-adv-x="1103" 
d="M481 -27q-184 0 -290 121q-105 121 -105 303q0 401 249 602q130 106 306 107q119 0 203 -47t122 -123q87 -173 40 -369l-17 -78h-721q-4 -61 -4 -88q0 -123 58 -205t192 -81q195 0 250 168h176q-41 -147 -158 -229t-301 -81zM629 969q-131 -1 -214 -95t-122 -241h545
q25 151 -26 243q-52 93 -183 93z" />
    <glyph glyph-name="f" unicode="f" horiz-adv-x="716" 
d="M745 1620q74 0 121 -12l-28 -152q-41 10 -108 10q-68 0 -110 -36t-61 -121l-45 -230h248l-27 -141h-248l-180 -938h-180l182 938h-184l29 141h182l51 262q53 279 358 279z" />
    <glyph glyph-name="g" unicode="g" horiz-adv-x="1220" 
d="M29 -102h174q4 -78 61 -122t162 -44q272 0 338 342l22 110h-4q-133 -190 -342 -190q-172 0 -263 102t-91 281q0 261 134 487q66 110 174 176t243 66q229 0 295 -199h2l35 172h170l-203 -1038q-88 -449 -526 -449q-158 0 -270 77q-111 77 -111 229zM266 377
q0 -242 219 -242q137 0 235 99q97 100 126 241l22 115q33 160 -15 265t-212 106q-96 -1 -171 -57q-132 -99 -182 -334q-22 -97 -22 -193z" />
    <glyph glyph-name="h" unicode="h" horiz-adv-x="1218" 
d="M708 952q-120 0 -208 -97t-121 -271l-113 -584h-182l313 1614h183l-140 -709h4q56 89 144 145t200 56q172 0 246 -114t31 -328l-127 -664h-180l123 637q37 179 -7 247q-46 68 -166 68z" />
    <glyph glyph-name="i" unicode="i" horiz-adv-x="559" 
d="M84 0l209 1079h182l-209 -1079h-182zM336 1325l39 199h190l-39 -199h-190z" />
    <glyph glyph-name="j" unicode="j" horiz-adv-x="559" 
d="M-94 -408q-68 0 -131 23l30 149q43 -14 103 -14q127 0 153 139l232 1190h182l-235 -1210q-53 -277 -334 -277zM336 1325l39 199h190l-39 -199h-190z" />
    <glyph glyph-name="k" unicode="k" horiz-adv-x="1126" 
d="M330 328l-64 -328h-182l313 1614h183l-205 -1053l532 518h219l-452 -424l291 -655h-201l-227 526z" />
    <glyph glyph-name="l" unicode="l" horiz-adv-x="557" 
d="M84 0l313 1614h183l-314 -1614h-182z" />
    <glyph glyph-name="m" unicode="m" horiz-adv-x="1859" 
d="M1538 778q0 174 -170 174q-127 0 -214 -98t-120 -270l-112 -584h-181l123 637q16 78 17 139q0 176 -170 176q-127 0 -213 -98t-119 -270l-113 -584h-182l209 1079h174l-37 -182h4q56 93 146 151t198 58t178 -62q72 -62 91 -174h4q145 236 381 236q168 0 242 -116t32 -326
l-127 -664h-180l123 637q16 82 16 141z" />
    <glyph glyph-name="n" unicode="n" horiz-adv-x="1218" 
d="M895 776q0 176 -172 176q-135 0 -223 -97t-121 -271l-113 -584h-182l209 1079h174l-37 -182h4q54 93 148 151t206 58q172 0 246 -114t31 -328l-127 -664h-182l123 637q16 78 16 139z" />
    <glyph glyph-name="o" unicode="o" horiz-adv-x="1136" 
d="M870 692q0 276 -239 277q-96 1 -170 -57t-115 -148q-78 -171 -80 -375q0 -276 242 -276q84 0 150 42q115 74 168 251q44 139 44 286zM502 -27q-209 0 -313 119q-103 118 -103 320t86 374q157 320 463 320q211 0 313 -118t102 -318t-89 -388q-90 -189 -258 -266
q-92 -43 -201 -43z" />
    <glyph glyph-name="p" unicode="p" horiz-adv-x="1224" 
d="M788 1106q178 0 264 -111t85 -301q0 -247 -119 -471q-60 -111 -164 -181t-226 -69q-122 -1 -208 53t-117 154h-2l-111 -565h-182l285 1464h178l-37 -180h2q125 207 352 207zM612 117q90 0 161 58q71 57 109 149q74 178 74 372q0 264 -213 265q-137 1 -234 -99t-126 -239
l-25 -115q-36 -141 19 -265q25 -56 85 -91t150 -35z" />
    <glyph glyph-name="q" unicode="q" horiz-adv-x="1224" 
d="M270 370q0 -104 51 -178t176 -73q125 0 223 99q97 99 126 241l22 114q37 141 -7 263q-19 55 -75 90t-146 35q-91 0 -167 -58q-129 -97 -181 -333q-22 -96 -22 -200zM90 376q0 401 240 615q127 115 301 115q238 0 297 -195h4l33 168h178l-285 -1464h-182l106 549h-4
q-125 -190 -334 -191q-172 0 -263 112t-91 291z" />
    <glyph glyph-name="r" unicode="r" horiz-adv-x="786" 
d="M793 1100h10l-35 -193h-18q-305 0 -371 -319l-113 -588h-182l209 1079h174l-41 -202h6q49 91 142 157t219 66z" />
    <glyph glyph-name="s" unicode="s" horiz-adv-x="1009" 
d="M554 969q-89 0 -156 -44t-66 -128q0 -113 129 -148l125 -33q164 -42 228 -112t65 -182q0 -164 -117 -256t-300 -92t-303 86q-120 87 -110 266h174q-8 -100 57 -158t173 -57q108 0 179 47t70 139q0 57 -37 96q-38 39 -133 64l-124 32q-254 68 -254 285q0 158 116 245
q117 87 284 87q168 0 274 -78t96 -233h-174q4 84 -52 129t-144 45z" />
    <glyph glyph-name="t" unicode="t" horiz-adv-x="729" 
d="M442 -16q-317 0 -258 309l125 645h-184l27 135h22q109 0 151 44t72 198l17 78h164l-62 -314h256l-29 -141h-256l-120 -619q-19 -106 7 -145t115 -39l103 10l-31 -149q-68 -12 -119 -12z" />
    <glyph glyph-name="u" unicode="u" horiz-adv-x="1212" 
d="M487 125q137 0 226 103q88 103 125 294l108 557h182l-210 -1079h-173l37 184h-4q-123 -211 -340 -211q-176 0 -252 115t-32 330l127 661h182l-123 -637q-18 -92 -18 -145q-4 -172 165 -172z" />
    <glyph glyph-name="v" unicode="v" horiz-adv-x="1028" 
d="M324 0l-168 1079h180l98 -680l23 -188h4q45 100 90 186l354 682h180l-571 -1079h-190z" />
    <glyph glyph-name="w" unicode="w" horiz-adv-x="1605" 
d="M252 0l-100 1079h182l43 -706l6 -158h4q45 96 76 160l350 704h184l76 -706l12 -162h5q41 100 69 164l324 704h178l-516 -1079h-191l-75 723l-13 151h-2q-37 -84 -69 -153l-353 -721h-190z" />
    <glyph glyph-name="x" unicode="x" horiz-adv-x="1017" 
d="M-66 0l469 573l-229 506h197l166 -387h4l305 387h205l-433 -524l259 -555h-205l-185 438h-4l-344 -438h-205z" />
    <glyph glyph-name="y" unicode="y" horiz-adv-x="1044" 
d="M340 8l-168 1071h180l99 -676l20 -167h6q37 76 82 165l340 678h184l-614 -1169q-96 -184 -179 -250t-235 -68q-68 0 -129 19l31 149q143 -39 237 30q56 42 111 153z" />
    <glyph glyph-name="z" unicode="z" horiz-adv-x="1046" 
d="M215 928l31 151h790l-30 -166l-756 -759h618l-28 -154h-832l31 166l752 762h-576z" />
    <glyph glyph-name="braceleft" unicode="{" horiz-adv-x="753" 
d="M166 616h-49l30 152h50q88 0 127 32t55 118l82 432q31 160 139 224t313 48l-24 -127q-141 8 -199 -39t-80 -168l-75 -391q-24 -140 -103 -176q-35 -16 -88 -25l-2 -8q86 -25 107 -97q20 -73 -5 -153l-73 -366q-25 -125 17 -163t183 -56l-26 -127q-203 6 -287 86t-47 260
l76 379q19 89 -11 127t-110 38z" />
    <glyph glyph-name="bar" unicode="|" horiz-adv-x="565" 
d="M53 -266l367 1880h145l-366 -1880h-146z" />
    <glyph glyph-name="braceright" unicode="}" horiz-adv-x="790" 
d="M657 733h50l-31 -151h-49q-88 0 -127 -32t-56 -118l-82 -432q-30 -160 -138 -224t-314 -48l24 127q141 -8 199 39q57 47 80 167l66 342q12 66 29 113q18 47 62 90t109 47l2 9q-86 26 -106 98t4 151l74 367q25 125 -17 163t-184 56l27 127q205 -6 287 -89t44 -271
l-73 -365q-18 -90 11 -128t109 -38z" />
    <glyph glyph-name="asciitilde" unicode="~" horiz-adv-x="808" 
d="M305 874q57 0 107 -30t87 -62q38 -31 64 -30q76 0 111 127h141q-27 -131 -99 -204t-158 -73q-87 0 -166 60t-111 61q-74 0 -109 -125h-139q55 276 272 276z" />
    <glyph glyph-name="uni00A0" unicode="&#xa0;" horiz-adv-x="419" 
 />
    <glyph glyph-name="exclamdown" unicode="&#xa1;" horiz-adv-x="528" 
d="M324 1370h237l-45 -242h-237zM432 885l-201 -1129h-204l252 1129h153z" />
    <glyph glyph-name="cent" unicode="&#xa2;" horiz-adv-x="1075" 
d="M410 137l159 821q-98 -26 -169 -118q-130 -168 -130 -424q1 -218 140 -279zM90 416q0 246 134 452t374 234l39 198h145l-39 -200q131 -20 203 -108t74 -238h-170q6 166 -135 204l-162 -841q109 9 169 79t71 156h176q-35 -174 -156 -274t-289 -105l-41 -211h-145l43 226
q-143 38 -217 150t-74 278z" />
    <glyph glyph-name="sterling" unicode="&#xa3;" horiz-adv-x="1251" 
d="M872 1540q227 0 338 -128t70 -329h-184q26 145 -32 225t-202 81q-178 0 -258 -127t-51 -316l20 -153h443l-29 -146h-395q14 -154 -29 -257t-166 -191l-43 -31v-4h754l-31 -164h-989l27 141l84 60q149 108 183 181q35 73 33 138q-1 66 -12 127h-210l28 146h158l-17 104
q-46 275 94 459t416 184z" />
    <glyph glyph-name="currency" unicode="&#xa4;" horiz-adv-x="1292" 
d="M276 708q0 110 54 199l-162 162l117 117l159 -162q90 55 201 55t203 -59l168 172l112 -113l-172 -170q56 -89 56 -199t-56 -198l166 -164l-116 -117l-164 166q-88 -53 -199 -53t-199 53l-165 -168l-113 113l168 166q-58 90 -58 200zM416 711q0 -106 63 -176t165 -70
t165 70t63 176t-63 177q-63 70 -165 70t-165 -70q-63 -71 -63 -177z" />
    <glyph glyph-name="yen" unicode="&#xa5;" horiz-adv-x="1200" 
d="M393 0l72 369h-395l28 141h394l36 190h-397l27 142h346l-279 676h199l225 -605h4l465 605h213l-538 -676h342l-27 -142h-403l-37 -190h407l-28 -141h-406l-72 -369h-176z" />
    <glyph glyph-name="brokenbar" unicode="&#xa6;" horiz-adv-x="565" 
d="M199 -266h-146l174 897h146zM565 1614l-159 -821h-146l160 821h145z" />
    <glyph glyph-name="section" unicode="&#xa7;" horiz-adv-x="1173" 
d="M137 711q0 242 273 305v2q-55 76 -56 178q0 156 113 250t282 94t270 -88t91 -246h-174q4 90 -44 144t-146 53q-98 0 -157 -49q-61 -50 -61 -148t103 -164l215 -135q119 -73 174 -145t55 -172q0 -246 -270 -307v-2q51 -70 51 -166q0 -156 -120 -252t-303 -96t-286 89
q-102 89 -92 273h174q-16 -225 217 -225q96 0 164 50t68 146t-94 156l-215 135q-123 78 -178 146q-54 68 -54 174zM899 572q0 91 -113 163l-219 137q-32 19 -57 39q-84 -8 -141 -52q-57 -45 -57 -111t25 -104q26 -38 89 -79l221 -139l58 -39q194 18 194 185z" />
    <glyph glyph-name="dieresis" unicode="&#xa8;" horiz-adv-x="741" 
d="M236 1323l38 203h185l-39 -203h-184zM629 1323l39 203h184l-39 -203h-184z" />
    <glyph glyph-name="copyright" unicode="&#xa9;" horiz-adv-x="1871" 
d="M901 469q94 0 155 53q60 53 70 121h140q-29 -139 -128 -216t-253 -77t-239 92t-85 234t48 261q48 118 156 202t252 84t218 -70t72 -203h-136q4 152 -153 152q-158 0 -235 -126t-76 -284q0 -223 194 -223zM961 84q289 0 483 200t192 494q0 294 -193 496q-195 201 -483 201
t-481 -200t-193 -496q0 -295 194 -495q192 -200 481 -200zM154 778q0 346 230 580t576 233q346 0 578 -233q231 -232 231 -578t-231 -579t-577 -233q-347 0 -577 232t-230 578z" />
    <glyph glyph-name="ordfeminine" unicode="&#xaa;" horiz-adv-x="944" 
d="M656 1538q154 0 228 -83q75 -83 42 -245l-66 -338q-10 -50 2 -72t56 -22l-25 -131h-23q-100 0 -140 35t-36 115h-2q-45 -72 -121 -115t-177 -43t-166 59t-64 154q0 170 153 250q127 68 443 69l8 43q20 106 -15 155q-36 48 -121 48q-84 0 -130 -40t-56 -101h-155
q23 122 117 192t248 70zM465 766q86 0 165 68t103 206l4 23q-274 -2 -348 -64q-53 -45 -53 -120q0 -113 129 -113z" />
    <glyph glyph-name="guillemotleft" unicode="&#xab;" horiz-adv-x="1091" 
d="M442 950h179l-310 -422l131 -411h-168l-143 428zM856 950h178l-309 -422l131 -411h-168l-143 428z" />
    <glyph glyph-name="logicalnot" unicode="&#xac;" horiz-adv-x="1255" 
d="M182 651l33 162h930l-109 -553h-176l76 391h-754z" />
    <glyph glyph-name="registered" unicode="&#xae;" horiz-adv-x="989" 
d="M657 1386q68 0 107 -34t37 -86q0 -111 -119 -142l63 -198h-96l-55 184h-64l-36 -184h-95l90 460h168zM627 1184q35 0 59 20t23 58q0 55 -70 55h-70l-24 -133h82zM582 772q152 0 258 106t116 263q8 158 -88 264t-248 106t-256 -106t-114 -264q-10 -157 85 -263t247 -106z
M624 1589q190 0 312 -129q121 -129 111 -319q-11 -191 -145 -319t-324 -128t-310 128q-118 129 -108 319t142 319t322 129z" />
    <glyph glyph-name="macron" unicode="&#xaf;" horiz-adv-x="591" 
d="M135 1323l29 150h586l-29 -150h-586z" />
    <glyph glyph-name="degree" unicode="&#xb0;" horiz-adv-x="942" 
d="M596 993q92 1 150 63t58 160t-58 162t-150 64t-150 -64t-57 -161q-1 -98 57 -161t150 -63zM262 1217q0 143 95 239t239 96t240 -96t96 -239t-95 -239t-239 -95q-144 0 -241 95q-95 96 -95 239z" />
    <glyph glyph-name="plusminus" unicode="&#xb1;" horiz-adv-x="1304" 
d="M102 0l29 158h924l-29 -158h-924zM788 715l-75 -393h-176l75 393h-372l30 157h373l76 392h176l-76 -392h375l-31 -157h-375z" />
    <glyph glyph-name="twosuperior" unicode="&#xb2;" horiz-adv-x="800" 
d="M860 1464q0 -104 -63 -182t-193 -176l-252 -191v-2h422l-24 -125h-650l19 99l377 299q10 8 71 54t101 96q33 50 35 107q2 56 -33 88t-97 32q-168 -1 -188 -179h-141q8 138 103 218t229 80t210 -58q74 -56 74 -160z" />
    <glyph glyph-name="threesuperior" unicode="&#xb3;" horiz-adv-x="821" 
d="M537 1180h-99l25 112h98q74 0 122 42t48 104t-39 95q-39 32 -102 32q-160 0 -180 -152h-144q8 117 98 193t226 76q137 0 214 -58t77 -154q-1 -96 -55 -155t-138 -82v-4q141 -39 141 -174t-101 -210q-100 -75 -250 -75t-231 72t-73 198h145q0 -152 168 -151q88 0 140 45
q51 45 51 115q0 131 -141 131z" />
    <glyph glyph-name="acute" unicode="&#xb4;" horiz-adv-x="741" 
d="M387 1282l166 332h207l-240 -332h-133z" />
    <glyph glyph-name="paragraph" unicode="&#xb6;" horiz-adv-x="1064" 
d="M158 1155q0 184 130 298t326 114h177l-304 -1567h-159l157 821q-145 4 -236 95t-91 239zM952 1567h160l-303 -1567h-160z" />
    <glyph glyph-name="periodcentered" unicode="&#xb7;" horiz-adv-x="729" 
d="M217 518l47 250h244l-47 -250h-244z" />
    <glyph glyph-name="cedilla" unicode="&#xb8;" horiz-adv-x="968" 
d="M461 -117q51 0 85 -39q34 -38 34 -108t-56 -120t-136 -50q-81 0 -128 34t-47 101h115q8 -45 57 -45q76 0 76 78q0 68 -55 67q-37 0 -60 -22h-119l164 266h101l-109 -174h4q23 12 74 12z" />
    <glyph glyph-name="onesuperior" unicode="&#xb9;" horiz-adv-x="559" 
d="M266 1520q90 0 142 36q47 39 67 115h131l-184 -883h-150l129 617h-184l23 115h26z" />
    <glyph glyph-name="ordmasculine" unicode="&#xba;" horiz-adv-x="843" 
d="M756 1219q0 77 -43 137t-143 61q-100 0 -169 -77q-120 -136 -118 -369q0 -211 188 -211q82 0 141 47t88 122q56 145 56 290zM461 635q-174 0 -260 95q-86 94 -86 238q0 315 201 483q108 89 270 89t246 -94q86 -94 86 -246q0 -206 -109 -379q-53 -84 -144 -135t-204 -51z
" />
    <glyph glyph-name="guillemotright" unicode="&#xbb;" horiz-adv-x="1091" 
d="M659 117h-178l310 422l-132 411h168l144 -428zM246 117h-178l309 422l-131 411h168l143 -428z" />
    <glyph glyph-name="onequarter" unicode="&#xbc;" horiz-adv-x="1662" 
d="M1524 205h-119l-43 -205h-141l43 205h-443l21 110l530 566h174l-116 -555h118zM1001 319h289l92 435h-4q-27 -68 -116 -162zM18 -82l1422 1681h168l-1422 -1681h-168zM246 1415q90 0 141 37q47 39 68 115h131l-185 -883h-149l129 616h-184l22 115h27z" />
    <glyph glyph-name="onehalf" unicode="&#xbd;" horiz-adv-x="1773" 
d="M1398 893q134 0 209 -57q75 -56 75 -160t-64 -182q-63 -78 -193 -177l-251 -190v-2h421l-24 -125h-649l18 98l377 299q10 7 36 27t53 42q26 22 36 32l25 25q59 59 59 123t-35 96t-96 32q-169 0 -189 -178h-141q8 139 103 218q96 79 230 79zM18 -82l1422 1681h168
l-1422 -1681h-168zM246 1415q90 0 141 37q47 39 68 115h131l-185 -883h-149l129 616h-184l22 115h27z" />
    <glyph glyph-name="threequarters" unicode="&#xbe;" horiz-adv-x="1837" 
d="M1698 205h-119l-43 -205h-141l43 205h-443l21 110l530 566h174l-116 -555h118zM1176 319h288l92 435h-4q-27 -68 -116 -162zM231 -82l1422 1681h168l-1422 -1681h-168zM516 1075h-98l24 113h99q74 0 122 42t48 104t-39 94t-103 32q-160 0 -180 -151h-143q8 117 97 193
t227 75q138 0 214 -57q76 -58 76 -154t-54 -156t-138 -82v-4q141 -39 141 -174t-101 -210q-100 -74 -250 -74t-232 71q-81 72 -72 199h145q0 -152 168 -152q88 0 139 45t51 115q0 131 -141 131z" />
    <glyph glyph-name="questiondown" unicode="&#xbf;" horiz-adv-x="1124" 
d="M797 1370l-45 -242h-236l45 242h236zM174 135q0 -111 68 -177t184 -67q156 -1 238 93t100 282h178q-14 -254 -154 -391t-356 -137q-215 0 -329 108q-113 108 -113 280q0 171 93 282q70 84 187 167l90 64q92 62 100 75q7 13 15 27t19 64l20 100h170l-25 -131
q-18 -100 -55 -145t-155 -125l-103 -72q-172 -117 -172 -297z" />
    <glyph glyph-name="Agrave" unicode="&#xc0;" horiz-adv-x="1478" 
d="M940 1966l92 -272h-135l-143 272h186zM1110 0l-76 469h-608l-242 -469h-192l821 1567h217l270 -1567h-190zM889 1382q0 -2 -6 -14q-5 -12 -15 -32t-22 -47q-12 -25 -30 -61t-38 -73l-276 -537h508l-86 537l-31 227h-4z" />
    <glyph glyph-name="Aacute" unicode="&#xc1;" horiz-adv-x="1478" 
d="M872 1694l170 272h207l-239 -272h-138zM1110 0l-76 469h-608l-242 -469h-192l821 1567h217l270 -1567h-190zM889 1382q0 -2 -6 -14q-5 -12 -15 -32t-22 -47q-12 -25 -30 -61t-38 -73l-276 -537h508l-86 537l-31 227h-4z" />
    <glyph glyph-name="Acircumflex" unicode="&#xc2;" horiz-adv-x="1478" 
d="M1057 1966l157 -272h-153l-103 155h-2l-157 -155h-162l231 272h189zM1110 0l-76 469h-608l-242 -469h-192l821 1567h217l270 -1567h-190zM889 1382q0 -2 -6 -14q-5 -12 -15 -32t-22 -47q-12 -25 -30 -61t-38 -73l-276 -537h508l-86 537l-31 227h-4z" />
    <glyph glyph-name="Atilde" unicode="&#xc3;" horiz-adv-x="1478" 
d="M1106 1698q-74 0 -151 61t-109 62q-76 0 -115 -127h-137q24 120 90 198t166 78t164 -62t105 -62q42 -1 68 30t46 98h139q-22 -120 -88 -198t-178 -78zM1110 0l-76 469h-608l-242 -469h-192l821 1567h217l270 -1567h-190zM889 1382q0 -2 -6 -14q-5 -12 -15 -32t-22 -47
q-12 -25 -30 -61t-38 -73l-276 -537h508l-86 537l-31 227h-4z" />
    <glyph glyph-name="Adieresis" unicode="&#xc4;" horiz-adv-x="1478" 
d="M641 1683l39 203h184l-39 -203h-184zM1075 1683l39 203h184l-38 -203h-185zM1110 0l-76 469h-608l-242 -469h-192l821 1567h217l270 -1567h-190zM889 1382q0 -2 -6 -14q-5 -12 -15 -32t-22 -47q-12 -25 -30 -61t-38 -73l-276 -537h508l-86 537l-31 227h-4z" />
    <glyph glyph-name="Aring" unicode="&#xc5;" horiz-adv-x="1478" 
d="M848 1869q0 -120 101 -120q50 0 81 37t31 93q-1 56 -27 87t-75 32t-80 -36t-31 -93zM729 1866q0 96 65 162t167 66t159 -57q58 -56 58 -157t-66 -163t-168 -61q-104 1 -160 57q-55 57 -55 153zM1110 0l-76 469h-608l-242 -469h-192l821 1567h217l270 -1567h-190z
M889 1382q0 -2 -6 -14q-5 -12 -15 -32t-22 -47q-12 -25 -30 -61t-38 -73l-276 -537h508l-86 537l-31 227h-4z" />
    <glyph glyph-name="AE" unicode="&#xc6;" horiz-adv-x="2052" 
d="M809 0l90 469h-518l-277 -469h-192l913 1567h1254l-33 -168h-780l-103 -527h723l-33 -163h-720l-105 -541h799l-33 -168h-985zM928 618l151 781h-166q-76 -156 -127 -244l-317 -537h459z" />
    <glyph glyph-name="Ccedilla" unicode="&#xc7;" horiz-adv-x="1546" 
d="M683 -434q-81 0 -128 34t-47 101h115q8 -45 57 -45q76 0 76 78q0 68 -56 67q-37 0 -59 -22h-119l121 196q-231 35 -352 204t-121 448t126 522q67 127 161 224t233 157t303 59q223 0 365 -126t155 -363h-186q-12 164 -106 250q-93 86 -237 86t-253 -56t-177 -142
q-191 -246 -194 -648q0 -203 98 -336t300 -133q200 0 315 102t156 266h188q-57 -244 -231 -383t-424 -139h-25l-59 -96h4q23 12 74 12t85 -39q33 -38 33 -108t-55 -120t-136 -50z" />
    <glyph glyph-name="Egrave" unicode="&#xc8;" horiz-adv-x="1349" 
d="M915 1966l93 -272h-136l-143 272h186zM106 0l304 1567h966l-33 -168h-780l-102 -527h723l-33 -163h-721l-104 -541h798l-32 -168h-986z" />
    <glyph glyph-name="Eacute" unicode="&#xc9;" horiz-adv-x="1349" 
d="M846 1694l170 272h207l-240 -272h-137zM106 0l304 1567h966l-33 -168h-780l-102 -527h723l-33 -163h-721l-104 -541h798l-32 -168h-986z" />
    <glyph glyph-name="Ecircumflex" unicode="&#xca;" horiz-adv-x="1349" 
d="M1057 1966l157 -272h-153l-103 155h-2l-157 -155h-162l231 272h189zM106 0l304 1567h966l-33 -168h-780l-102 -527h723l-33 -163h-721l-104 -541h798l-32 -168h-986z" />
    <glyph glyph-name="Edieresis" unicode="&#xcb;" horiz-adv-x="1349" 
d="M616 1683l39 203h185l-39 -203h-185zM1051 1683l39 203h184l-39 -203h-184zM106 0l304 1567h966l-33 -168h-780l-102 -527h723l-33 -163h-721l-104 -541h798l-32 -168h-986z" />
    <glyph glyph-name="Igrave" unicode="&#xcc;" horiz-adv-x="606" 
d="M520 1966l92 -272h-135l-143 272h186zM111 0l303 1567h186l-303 -1567h-186z" />
    <glyph glyph-name="Iacute" unicode="&#xcd;" horiz-adv-x="606" 
d="M451 1694l170 272h206l-239 -272h-137zM111 0l303 1567h186l-303 -1567h-186z" />
    <glyph glyph-name="Icircumflex" unicode="&#xce;" horiz-adv-x="606" 
d="M662 1966l157 -272h-153l-103 155h-2l-158 -155h-161l231 272h189zM111 0l303 1567h186l-303 -1567h-186z" />
    <glyph glyph-name="Idieresis" unicode="&#xcf;" horiz-adv-x="606" 
d="M221 1683l39 203h184l-38 -203h-185zM655 1683l39 203h185l-39 -203h-185zM111 0l303 1567h186l-303 -1567h-186z" />
    <glyph glyph-name="Eth" unicode="&#xd0;" horiz-adv-x="1583" 
d="M690 162q162 0 284 66t185 156q63 91 113 242t49 328q0 451 -449 451h-272l-104 -533h436l-31 -159h-436l-107 -551h332zM651 0h-508l138 713h-172l30 159h172l133 695h443q289 0 458 -151t168 -460q0 -395 -200 -665q-101 -135 -271 -213t-391 -78z" />
    <glyph glyph-name="Ntilde" unicode="&#xd1;" horiz-adv-x="1595" 
d="M1083 1908q63 -62 105 -62q42 -1 68 30t47 98h139q-22 -120 -88 -198t-178 -78q-74 0 -151 61t-110 62q-76 0 -114 -127h-137q24 120 90 198t166 78t163 -62zM106 0l304 1567h229l457 -1188l47 -154h6l260 1342h176l-303 -1567h-227l-457 1186l-51 151h-4l-258 -1337
h-179z" />
    <glyph glyph-name="Ograve" unicode="&#xd2;" horiz-adv-x="1642" 
d="M1034 1966l92 -272h-135l-143 272h186zM1378 952q0 208 -89 339q-98 147 -320 147q-131 0 -239 -58t-176 -146q-193 -254 -196 -652q0 -195 102 -328t314 -133q158 0 281 87t189 221q66 133 100 273t34 250zM166 588q0 430 231 716t582 285q281 0 437 -174t155 -454
q0 -181 -52 -355q-115 -385 -404 -550q-157 -89 -347 -89q-282 -1 -442 175t-160 446z" />
    <glyph glyph-name="Oacute" unicode="&#xd3;" horiz-adv-x="1642" 
d="M967 1694l170 272h206l-239 -272h-137zM1378 952q0 208 -89 339q-98 147 -320 147q-131 0 -239 -58t-176 -146q-193 -254 -196 -652q0 -195 102 -328t314 -133q158 0 281 87t189 221q66 133 100 273t34 250zM166 588q0 430 231 716t582 285q281 0 437 -174t155 -454
q0 -181 -52 -355q-115 -385 -404 -550q-157 -89 -347 -89q-282 -1 -442 175t-160 446z" />
    <glyph glyph-name="Ocircumflex" unicode="&#xd4;" horiz-adv-x="1642" 
d="M1178 1966l157 -272h-153l-103 155h-2l-157 -155h-162l231 272h189zM1378 952q0 208 -89 339q-98 147 -320 147q-131 0 -239 -58t-176 -146q-193 -254 -196 -652q0 -195 102 -328t314 -133q158 0 281 87t189 221q66 133 100 273t34 250zM166 588q0 430 231 716t582 285
q281 0 437 -174t155 -454q0 -181 -52 -355q-115 -385 -404 -550q-157 -89 -347 -89q-282 -1 -442 175t-160 446z" />
    <glyph glyph-name="Otilde" unicode="&#xd5;" horiz-adv-x="1642" 
d="M1188 1698q-74 0 -151 61t-109 62q-76 0 -115 -127h-137q24 120 90 198t166 78t164 -62t105 -62q42 -1 68 30t46 98h139q-22 -120 -88 -198t-178 -78zM1378 952q0 208 -89 339q-98 147 -320 147q-131 0 -239 -58t-176 -146q-193 -254 -196 -652q0 -195 102 -328t314 -133
q158 0 281 87t189 221q66 133 100 273t34 250zM166 588q0 430 231 716t582 285q281 0 437 -174t155 -454q0 -181 -52 -355q-115 -385 -404 -550q-157 -89 -347 -89q-282 -1 -442 175t-160 446z" />
    <glyph glyph-name="Odieresis" unicode="&#xd6;" horiz-adv-x="1642" 
d="M735 1683l39 203h184l-38 -203h-185zM1169 1683l39 203h185l-39 -203h-185zM1378 952q0 208 -89 339q-98 147 -320 147q-131 0 -239 -58t-176 -146q-193 -254 -196 -652q0 -195 102 -328t314 -133q158 0 281 87t189 221q66 133 100 273t34 250zM166 588q0 430 231 716
t582 285q281 0 437 -174t155 -454q0 -181 -52 -355q-115 -385 -404 -550q-157 -89 -347 -89q-282 -1 -442 175t-160 446z" />
    <glyph glyph-name="multiply" unicode="&#xd7;" horiz-adv-x="1310" 
d="M283 254l-95 125l398 338l-269 336l127 108l263 -340l399 353l102 -123l-407 -344l274 -349l-127 -108l-264 350z" />
    <glyph glyph-name="Oslash" unicode="&#xd8;" horiz-adv-x="1642" 
d="M1571 982q0 -399 -202 -693q-97 -143 -254 -233t-347 -89q-272 0 -436 170l-182 -190h-189l287 303q-82 147 -82 338q0 430 231 716t582 285q250 0 405 -145l162 170h191l-264 -277q98 -153 98 -355zM774 121q158 0 281 87t189 221q136 272 134 540q0 141 -32 233
l-902 -946q103 -135 330 -135zM969 1438q-131 0 -239 -58t-176 -146q-193 -254 -196 -652q0 -115 23 -193l893 938q-104 111 -305 111z" />
    <glyph glyph-name="Ugrave" unicode="&#xd9;" horiz-adv-x="1523" 
d="M954 1966l93 -272h-136l-143 272h186zM702 125q264 0 387 184q40 64 60 177q20 112 25 137l182 944h186l-207 -1071q-51 -270 -209 -398t-428 -129q-622 0 -499 629l186 969h186l-170 -881q-61 -324 2 -430q77 -131 299 -131z" />
    <glyph glyph-name="Uacute" unicode="&#xda;" horiz-adv-x="1523" 
d="M887 1694l170 272h207l-240 -272h-137zM702 125q264 0 387 184q40 64 60 177q20 112 25 137l182 944h186l-207 -1071q-51 -270 -209 -398t-428 -129q-622 0 -499 629l186 969h186l-170 -881q-61 -324 2 -430q77 -131 299 -131z" />
    <glyph glyph-name="Ucircumflex" unicode="&#xdb;" horiz-adv-x="1523" 
d="M1098 1966l157 -272h-153l-103 155h-2l-157 -155h-162l231 272h189zM702 125q264 0 387 184q40 64 60 177q20 112 25 137l182 944h186l-207 -1071q-51 -270 -209 -398t-428 -129q-622 0 -499 629l186 969h186l-170 -881q-61 -324 2 -430q77 -131 299 -131z" />
    <glyph glyph-name="Udieresis" unicode="&#xdc;" horiz-adv-x="1523" 
d="M655 1683l39 203h185l-39 -203h-185zM1090 1683l38 203h185l-39 -203h-184zM702 125q264 0 387 184q40 64 60 177q20 112 25 137l182 944h186l-207 -1071q-51 -270 -209 -398t-428 -129q-622 0 -499 629l186 969h186l-170 -881q-61 -324 2 -430q77 -131 299 -131z" />
    <glyph glyph-name="Yacute" unicode="&#xdd;" horiz-adv-x="1310" 
d="M797 1694l170 272h207l-240 -272h-137zM453 0l133 684l-363 883h209l275 -721h4l573 721h205l-721 -897l-129 -670h-186z" />
    <glyph glyph-name="Thorn" unicode="&#xde;" horiz-adv-x="1255" 
d="M664 340h-306l-65 -340h-187l304 1567h188l-57 -299h235q213 0 340 -102t127 -298q-1 -248 -161 -388t-418 -140zM754 1116h-244l-121 -624h297q170 4 269 97t100 271q0 256 -301 256z" />
    <glyph glyph-name="germandbls" unicode="&#xdf;" horiz-adv-x="1218" 
d="M766 1608q176 0 275 -100t99 -254t-74 -254q-75 -100 -208 -146v-4q106 -29 174 -120t68 -224q0 -218 -148 -362t-420 -144h-108l31 160h88q168 0 270 88t102 246q1 124 -71 202t-203 78h-33l27 152h31q141 0 218 86t77 206q-1 120 -59 180t-157 60q-219 0 -276 -297
l-223 -1161h-180l227 1169q43 221 170 330t303 109z" />
    <glyph glyph-name="agrave" unicode="&#xe0;" horiz-adv-x="1105" 
d="M594 1614l143 -332h-133l-209 332h199zM624 1104q194 0 286 -118q91 -118 51 -314l-78 -402q-27 -137 78 -129l-27 -149h-19q-102 0 -151 48t-47 132h-6q-125 -188 -338 -188q-141 0 -236 79q-94 80 -94 228q0 270 363 336q100 18 372 18l8 49q23 127 -26 198t-166 71
q-205 -1 -225 -179h-185q16 150 131 235t309 85zM420 131q96 0 194 93t131 257l7 31q-222 0 -318 -18t-150 -68t-54 -127q0 -78 46 -123q48 -45 144 -45z" />
    <glyph glyph-name="aacute" unicode="&#xe1;" horiz-adv-x="1105" 
d="M590 1282l166 332h207l-240 -332h-133zM624 1104q194 0 286 -118q91 -118 51 -314l-78 -402q-27 -137 78 -129l-27 -149h-19q-102 0 -151 48t-47 132h-6q-125 -188 -338 -188q-141 0 -236 79q-94 80 -94 228q0 270 363 336q100 18 372 18l8 49q23 127 -26 198t-166 71
q-205 -1 -225 -179h-185q16 150 131 235t309 85zM420 131q96 0 194 93t131 257l7 31q-222 0 -318 -18t-150 -68t-54 -127q0 -78 46 -123q48 -45 144 -45z" />
    <glyph glyph-name="acircumflex" unicode="&#xe2;" horiz-adv-x="1105" 
d="M817 1614l135 -332h-159l-88 209l-162 -209h-168l252 332h190zM624 1104q194 0 286 -118q91 -118 51 -314l-78 -402q-27 -137 78 -129l-27 -149h-19q-102 0 -151 48t-47 132h-6q-125 -188 -338 -188q-141 0 -236 79q-94 80 -94 228q0 270 363 336q100 18 372 18l8 49
q23 127 -26 198t-166 71q-205 -1 -225 -179h-185q16 150 131 235t309 85zM420 131q96 0 194 93t131 257l7 31q-222 0 -318 -18t-150 -68t-54 -127q0 -78 46 -123q48 -45 144 -45z" />
    <glyph glyph-name="atilde" unicode="&#xe3;" horiz-adv-x="1105" 
d="M565 1554q63 0 151 -62t120 -62q78 0 92 129h131q-33 -276 -246 -277q-63 0 -151 62t-119 63q-78 0 -92 -129h-132q33 276 246 276zM624 1104q194 0 286 -118q91 -118 51 -314l-78 -402q-27 -137 78 -129l-27 -149h-19q-102 0 -151 48t-47 132h-6q-125 -188 -338 -188
q-141 0 -236 79q-94 80 -94 228q0 270 363 336q100 18 372 18l8 49q23 127 -26 198t-166 71q-205 -1 -225 -179h-185q16 150 131 235t309 85zM420 131q96 0 194 93t131 257l7 31q-222 0 -318 -18t-150 -68t-54 -127q0 -78 46 -123q48 -45 144 -45z" />
    <glyph glyph-name="adieresis" unicode="&#xe4;" horiz-adv-x="1105" 
d="M381 1323l39 203h184l-39 -203h-184zM774 1323l39 203h184l-39 -203h-184zM624 1104q194 0 286 -118q91 -118 51 -314l-78 -402q-27 -137 78 -129l-27 -149h-19q-102 0 -151 48t-47 132h-6q-125 -188 -338 -188q-141 0 -236 79q-94 80 -94 228q0 270 363 336
q100 18 372 18l8 49q23 127 -26 198t-166 71q-205 -1 -225 -179h-185q16 150 131 235t309 85zM420 131q96 0 194 93t131 257l7 31q-222 0 -318 -18t-150 -68t-54 -127q0 -78 46 -123q48 -45 144 -45z" />
    <glyph glyph-name="aring" unicode="&#xe5;" horiz-adv-x="1105" 
d="M598 1492q0 -56 26 -88t76 -32t80 37q31 37 31 93q-1 56 -27 87t-75 32t-80 -36t-31 -93zM870 1660q58 -56 58 -157t-66 -163t-168 -61q-104 1 -159 57t-55 152t64 163q65 65 167 65t159 -56zM624 1104q194 0 286 -118q91 -118 51 -314l-78 -402q-27 -137 78 -129
l-27 -149h-19q-102 0 -151 48t-47 132h-6q-125 -188 -338 -188q-141 0 -236 79q-94 80 -94 228q0 270 363 336q100 18 372 18l8 49q23 127 -26 198t-166 71q-205 -1 -225 -179h-185q16 150 131 235t309 85zM420 131q96 0 194 93t131 257l7 31q-222 0 -318 -18t-150 -68
t-54 -127q0 -78 46 -123q48 -45 144 -45z" />
    <glyph glyph-name="ae" unicode="&#xe6;" horiz-adv-x="1771" 
d="M934 905q152 201 404 201q134 0 229 -81q94 -81 110 -200t-4 -258l-16 -78h-721q-4 -61 -4 -88q0 -125 59 -207t191 -83q195 0 250 172h176q-41 -147 -158 -229t-289 -81q-283 0 -375 238h-6q-88 -111 -182 -168t-234 -57t-231 78q-90 78 -90 224q0 148 94 228t269 111
q100 18 372 18l8 49q23 127 -26 198t-168 71q-205 0 -225 -179h-185q16 150 131 235t295 85q242 0 324 -199h2zM229 299q1 -80 47 -125t146 -45t192 88q94 88 131 264l7 31q-223 0 -322 -18q-201 -39 -201 -195zM1306 969q-130 1 -216 -95q-84 -96 -125 -241h540
q26 154 -22 245q-47 91 -177 91z" />
    <glyph glyph-name="ccedilla" unicode="&#xe7;" horiz-adv-x="1075" 
d="M421 -434q-81 0 -128 34t-47 101h114q8 -45 58 -45q76 0 76 78q0 68 -56 67q-37 0 -59 -22h-119l127 207q-147 34 -222 148t-75 258q0 274 139 486q68 101 181 164q114 64 268 64t247 -91t95 -261h-170q4 94 -49 153t-166 59t-202 -90q-163 -167 -163 -460
q0 -129 60 -214t186 -87q127 -3 196 71t81 166h176q-35 -178 -161 -278t-298 -101h-31l-63 -102h4q24 12 74 12t84 -39q34 -38 34 -108t-55 -120t-136 -50z" />
    <glyph glyph-name="egrave" unicode="&#xe8;" horiz-adv-x="1103" 
d="M629 1614l143 -332h-133l-209 332h199zM481 -27q-184 0 -290 121q-105 121 -105 303q0 401 249 602q130 106 306 107q119 0 203 -47t122 -123q87 -173 40 -369l-17 -78h-721q-4 -61 -4 -88q0 -123 58 -205t192 -81q195 0 250 168h176q-41 -147 -158 -229t-301 -81z
M629 969q-131 -1 -214 -95t-122 -241h545q25 151 -26 243q-52 93 -183 93z" />
    <glyph glyph-name="eacute" unicode="&#xe9;" horiz-adv-x="1103" 
d="M623 1282l165 332h207l-239 -332h-133zM481 -27q-184 0 -290 121q-105 121 -105 303q0 401 249 602q130 106 306 107q119 0 203 -47t122 -123q87 -173 40 -369l-17 -78h-721q-4 -61 -4 -88q0 -123 58 -205t192 -81q195 0 250 168h176q-41 -147 -158 -229t-301 -81z
M629 969q-131 -1 -214 -95t-122 -241h545q25 151 -26 243q-52 93 -183 93z" />
    <glyph glyph-name="ecircumflex" unicode="&#xea;" horiz-adv-x="1103" 
d="M850 1614l135 -332h-160l-88 209l-162 -209h-167l251 332h191zM481 -27q-184 0 -290 121q-105 121 -105 303q0 401 249 602q130 106 306 107q119 0 203 -47t122 -123q87 -173 40 -369l-17 -78h-721q-4 -61 -4 -88q0 -123 58 -205t192 -81q195 0 250 168h176
q-41 -147 -158 -229t-301 -81zM629 969q-131 -1 -214 -95t-122 -241h545q25 151 -26 243q-52 93 -183 93z" />
    <glyph glyph-name="edieresis" unicode="&#xeb;" horiz-adv-x="1103" 
d="M416 1323l39 203h184l-39 -203h-184zM809 1323l39 203h184l-39 -203h-184zM481 -27q-184 0 -290 121q-105 121 -105 303q0 401 249 602q130 106 306 107q119 0 203 -47t122 -123q87 -173 40 -369l-17 -78h-721q-4 -61 -4 -88q0 -123 58 -205t192 -81q195 0 250 168h176
q-41 -147 -158 -229t-301 -81zM629 969q-131 -1 -214 -95t-122 -241h545q25 151 -26 243q-52 93 -183 93z" />
    <glyph glyph-name="igrave" unicode="&#xec;" horiz-adv-x="559" 
d="M354 1614l144 -332h-133l-209 332h198zM84 0l209 1079h182l-209 -1079h-182z" />
    <glyph glyph-name="iacute" unicode="&#xed;" horiz-adv-x="559" 
d="M348 1282l166 332h207l-240 -332h-133zM84 0l209 1079h182l-209 -1079h-182z" />
    <glyph glyph-name="icircumflex" unicode="&#xee;" horiz-adv-x="559" 
d="M84 0l209 1079h182l-209 -1079h-182zM575 1614l111 -332h-149l-74 209l-141 -209h-168l231 332h190z" />
    <glyph glyph-name="idieresis" unicode="&#xef;" horiz-adv-x="559" 
d="M84 0l209 1079h182l-209 -1079h-182zM172 1323l41 203h166l-41 -203h-166zM522 1323l41 203h166l-41 -203h-166z" />
    <glyph glyph-name="eth" unicode="&#xf0;" horiz-adv-x="1144" 
d="M870 692q0 276 -235 277q-98 1 -173 -57t-116 -148q-78 -171 -80 -375q0 -133 62 -205t172 -72t185 60q75 58 113 154q72 180 72 366zM502 -27q-211 0 -314 118q-102 118 -102 310q0 258 132 470q66 103 174 168t254 65t214 -92h4q-47 174 -155 305l-312 -107l-32 103
l260 90q-84 76 -215 162l155 61q125 -72 223 -168l240 82l37 -102l-199 -68q190 -242 190 -602t-150 -578q-152 -217 -404 -217z" />
    <glyph glyph-name="ntilde" unicode="&#xf1;" horiz-adv-x="1218" 
d="M657 1554q63 0 151 -62t120 -62q78 0 92 129h131q-33 -276 -246 -277q-63 0 -151 62t-119 63q-78 0 -92 -129h-131q33 276 245 276zM895 776q0 176 -172 176q-135 0 -223 -97t-121 -271l-113 -584h-182l209 1079h174l-37 -182h4q54 93 148 151t206 58q172 0 246 -114
t31 -328l-127 -664h-182l123 637q16 78 16 139z" />
    <glyph glyph-name="ograve" unicode="&#xf2;" horiz-adv-x="1136" 
d="M643 1614l143 -332h-133l-209 332h199zM870 692q0 276 -239 277q-96 1 -170 -57t-115 -148q-78 -171 -80 -375q0 -276 242 -276q84 0 150 42q115 74 168 251q44 139 44 286zM502 -27q-209 0 -313 119q-103 118 -103 320t86 374q157 320 463 320q211 0 313 -118t102 -318
t-89 -388q-90 -189 -258 -266q-92 -43 -201 -43z" />
    <glyph glyph-name="oacute" unicode="&#xf3;" horiz-adv-x="1136" 
d="M637 1282l166 332h207l-240 -332h-133zM870 692q0 276 -239 277q-96 1 -170 -57t-115 -148q-78 -171 -80 -375q0 -276 242 -276q84 0 150 42q115 74 168 251q44 139 44 286zM502 -27q-209 0 -313 119q-103 118 -103 320t86 374q157 320 463 320q211 0 313 -118t102 -318
t-89 -388q-90 -189 -258 -266q-92 -43 -201 -43z" />
    <glyph glyph-name="ocircumflex" unicode="&#xf4;" horiz-adv-x="1136" 
d="M864 1614l135 -332h-159l-88 209l-162 -209h-168l252 332h190zM870 692q0 276 -239 277q-96 1 -170 -57t-115 -148q-78 -171 -80 -375q0 -276 242 -276q84 0 150 42q115 74 168 251q44 139 44 286zM502 -27q-209 0 -313 119q-103 118 -103 320t86 374q157 320 463 320
q211 0 313 -118t102 -318t-89 -388q-90 -189 -258 -266q-92 -43 -201 -43z" />
    <glyph glyph-name="otilde" unicode="&#xf5;" horiz-adv-x="1136" 
d="M612 1554q64 0 152 -62t119 -62q78 0 92 129h131q-33 -276 -246 -277q-63 0 -151 62t-119 63q-78 0 -92 -129h-131q33 276 245 276zM870 692q0 276 -239 277q-96 1 -170 -57t-115 -148q-78 -171 -80 -375q0 -276 242 -276q84 0 150 42q115 74 168 251q44 139 44 286z
M502 -27q-209 0 -313 119q-103 118 -103 320t86 374q157 320 463 320q211 0 313 -118t102 -318t-89 -388q-90 -189 -258 -266q-92 -43 -201 -43z" />
    <glyph glyph-name="odieresis" unicode="&#xf6;" horiz-adv-x="1136" 
d="M430 1323l39 203h184l-39 -203h-184zM823 1323l39 203h185l-39 -203h-185zM870 692q0 276 -239 277q-96 1 -170 -57t-115 -148q-78 -171 -80 -375q0 -276 242 -276q84 0 150 42q115 74 168 251q44 139 44 286zM502 -27q-209 0 -313 119q-103 118 -103 320t86 374
q157 320 463 320q211 0 313 -118t102 -318t-89 -388q-90 -189 -258 -266q-92 -43 -201 -43z" />
    <glyph glyph-name="divide" unicode="&#xf7;" horiz-adv-x="1255" 
d="M662 246h-191l39 198h190zM182 651l33 162h930l-33 -162h-930zM621 1020l38 199h191l-39 -199h-190z" />
    <glyph glyph-name="oslash" unicode="&#xf8;" horiz-adv-x="1136" 
d="M1051 698q0 -351 -192 -568q-61 -71 -155 -114t-202 -43q-188 0 -295 101l-123 -129h-152l207 217q-53 100 -53 218q0 350 194 569q62 71 154 114t201 43q193 0 303 -107l121 127h153l-208 -219q47 -93 47 -209zM508 113q84 0 150 42q115 74 168 251q44 139 44 286
q0 27 -4 72l-553 -580q60 -71 195 -71zM631 969q-96 1 -170 -57t-115 -148q-78 -171 -80 -375q0 -49 6 -88l555 582q-57 86 -196 86z" />
    <glyph glyph-name="ugrave" unicode="&#xf9;" horiz-adv-x="1212" 
d="M674 1614l143 -332h-133l-209 332h199zM487 125q137 0 226 103q88 103 125 294l108 557h182l-210 -1079h-173l37 184h-4q-123 -211 -340 -211q-176 0 -252 115t-32 330l127 661h182l-123 -637q-18 -92 -18 -145q-4 -172 165 -172z" />
    <glyph glyph-name="uacute" unicode="&#xfa;" horiz-adv-x="1212" 
d="M668 1282l166 332h206l-239 -332h-133zM487 125q137 0 226 103q88 103 125 294l108 557h182l-210 -1079h-173l37 184h-4q-123 -211 -340 -211q-176 0 -252 115t-32 330l127 661h182l-123 -637q-18 -92 -18 -145q-4 -172 165 -172z" />
    <glyph glyph-name="ucircumflex" unicode="&#xfb;" horiz-adv-x="1212" 
d="M895 1614l135 -332h-160l-88 209l-161 -209h-168l252 332h190zM487 125q137 0 226 103q88 103 125 294l108 557h182l-210 -1079h-173l37 184h-4q-123 -211 -340 -211q-176 0 -252 115t-32 330l127 661h182l-123 -637q-18 -92 -18 -145q-4 -172 165 -172z" />
    <glyph glyph-name="udieresis" unicode="&#xfc;" horiz-adv-x="1212" 
d="M461 1323l39 203h184l-39 -203h-184zM854 1323l39 203h184l-39 -203h-184zM487 125q137 0 226 103q88 103 125 294l108 557h182l-210 -1079h-173l37 184h-4q-123 -211 -340 -211q-176 0 -252 115t-32 330l127 661h182l-123 -637q-18 -92 -18 -145q-4 -172 165 -172z" />
    <glyph glyph-name="yacute" unicode="&#xfd;" horiz-adv-x="1044" 
d="M606 1282l166 332h207l-240 -332h-133zM340 8l-168 1071h180l99 -676l20 -167h6q37 76 82 165l340 678h184l-614 -1169q-96 -184 -179 -250t-235 -68q-68 0 -129 19l31 149q143 -39 237 30q56 42 111 153z" />
    <glyph glyph-name="thorn" unicode="&#xfe;" horiz-adv-x="1224" 
d="M791 1106q176 0 261 -112t85 -300q0 -247 -119 -471q-60 -111 -164 -181t-226 -69q-122 -1 -208 53t-117 154h-2l-111 -565h-182l389 1999h183l-140 -713h2q123 205 349 205zM612 117q90 0 161 58q71 57 109 149q74 178 74 372q0 264 -213 265q-137 1 -234 -99t-126 -239
l-25 -115q-36 -141 19 -265q25 -56 85 -91t150 -35z" />
    <glyph glyph-name="ydieresis" unicode="&#xff;" horiz-adv-x="1044" 
d="M399 1323l39 203h185l-39 -203h-185zM793 1323l38 203h185l-39 -203h-184zM340 8l-168 1071h180l99 -676l20 -167h6q37 76 82 165l340 678h184l-614 -1169q-96 -184 -179 -250t-235 -68q-68 0 -129 19l31 149q143 -39 237 30q56 42 111 153z" />
    <glyph glyph-name="Amacron" unicode="&#x100;" horiz-adv-x="1478" 
d="M670 1745l30 149h586l-31 -149h-585zM1110 0l-76 469h-608l-242 -469h-192l821 1567h217l270 -1567h-190zM889 1382q0 -2 -6 -14q-5 -12 -15 -32t-22 -47q-12 -25 -30 -61t-38 -73l-276 -537h508l-86 537l-31 227h-4z" />
    <glyph glyph-name="amacron" unicode="&#x101;" horiz-adv-x="1105" 
d="M379 1323l29 150h585l-28 -150h-586zM624 1104q194 0 286 -118q91 -118 51 -314l-78 -402q-27 -137 78 -129l-27 -149h-19q-102 0 -151 48t-47 132h-6q-125 -188 -338 -188q-141 0 -236 79q-94 80 -94 228q0 270 363 336q100 18 372 18l8 49q23 127 -26 198t-166 71
q-205 -1 -225 -179h-185q16 150 131 235t309 85zM420 131q96 0 194 93t131 257l7 31q-222 0 -318 -18t-150 -68t-54 -127q0 -78 46 -123q48 -45 144 -45z" />
    <glyph glyph-name="Abreve" unicode="&#x102;" horiz-adv-x="1478" 
d="M961 1808q147 0 198 152h139q-39 -145 -131 -216t-218 -71q-127 0 -199 72t-54 215h133q-4 -74 30 -113t102 -39zM1110 0l-76 469h-608l-242 -469h-192l821 1567h217l270 -1567h-190zM889 1382q0 -2 -6 -14q-5 -12 -15 -32t-22 -47q-12 -25 -30 -61t-38 -73l-276 -537
h508l-86 537l-31 227h-4z" />
    <glyph glyph-name="abreve" unicode="&#x103;" horiz-adv-x="1105" 
d="M683 1288q-134 0 -208 81t-41 245h133q-18 -92 18 -141t111 -50q164 0 205 191h137q-33 -164 -127 -245t-228 -81zM624 1104q194 0 286 -118q91 -118 51 -314l-78 -402q-27 -137 78 -129l-27 -149h-19q-102 0 -151 48t-47 132h-6q-125 -188 -338 -188q-141 0 -236 79
q-94 80 -94 228q0 270 363 336q100 18 372 18l8 49q23 127 -26 198t-166 71q-205 -1 -225 -179h-185q16 150 131 235t309 85zM420 131q96 0 194 93t131 257l7 31q-222 0 -318 -18t-150 -68t-54 -127q0 -78 46 -123q48 -45 144 -45z" />
    <glyph glyph-name="Aogonek" unicode="&#x104;" horiz-adv-x="1478" 
d="M889 1382q0 -2 -6 -14q-5 -12 -15 -32t-22 -47q-12 -25 -30 -61t-38 -73l-276 -537h508l-86 537l-31 227h-4zM1186 -385q-109 0 -171 39t-63 115q0 152 199 231h-41l-76 469h-608l-242 -469h-192l821 1567h217l270 -1567q-170 -100 -170 -188q0 -70 117 -70l-24 -127h-37
z" />
    <glyph glyph-name="aogonek" unicode="&#x105;" horiz-adv-x="1105" 
d="M420 131q96 0 194 93t131 257l7 31q-222 0 -318 -18t-150 -68t-54 -128q0 -79 46 -123q48 -44 144 -44zM717 172h-6q-125 -188 -338 -188q-141 0 -236 79q-94 81 -94 227t94 226t269 111q100 18 372 18l8 49q23 127 -26 198t-166 71q-205 0 -225 -179h-185
q16 150 131 235t309 85t285 -118q90 -118 52 -314l-78 -402q-14 -74 4 -104t74 -25l-25 -141q-92 -53 -131 -94t-39 -94q0 -70 117 -70l-25 -127h-37q-233 0 -233 162q0 145 227 223v8q-98 41 -98 164z" />
    <glyph glyph-name="Cacute" unicode="&#x106;" horiz-adv-x="1546" 
d="M940 1694l170 272h207l-240 -272h-137zM984 1436q-144 0 -253 -56t-177 -142q-191 -246 -194 -648q0 -203 98 -336t300 -133q200 0 315 102t156 266h188q-57 -244 -231 -383t-442 -139t-422 174q-152 174 -152 470t126 538q67 127 161 224t233 157t303 59q223 1 365 -125
t155 -364h-186q-12 164 -106 250q-93 86 -237 86z" />
    <glyph glyph-name="cacute" unicode="&#x107;" horiz-adv-x="1075" 
d="M633 1282l166 332h207l-240 -332h-133zM270 415q0 -128 60 -213t186 -87q127 -3 196 71t81 166h176q-35 -178 -161 -278t-316 -100t-295 120q-106 121 -107 322q0 250 139 462q68 101 181 164q114 64 268 64t247 -91t95 -261h-170q4 94 -49 153t-166 59t-202 -90
q-89 -91 -126 -212t-37 -249z" />
    <glyph glyph-name="Ccircumflex" unicode="&#x108;" horiz-adv-x="1546" 
d="M1145 1966l158 -272h-154l-102 155h-3l-157 -155h-162l231 272h189zM984 1436q-144 0 -253 -56t-177 -142q-191 -246 -194 -648q0 -203 98 -336t300 -133q200 0 315 102t156 266h188q-57 -244 -231 -383t-442 -139t-422 174q-152 174 -152 470t126 538q67 127 161 224
t233 157t303 59q223 1 365 -125t155 -364h-186q-12 164 -106 250q-93 86 -237 86z" />
    <glyph glyph-name="ccircumflex" unicode="&#x109;" horiz-adv-x="1075" 
d="M860 1614l135 -332h-159l-88 209l-162 -209h-168l252 332h190zM270 415q0 -128 60 -213t186 -87q127 -3 196 71t81 166h176q-35 -178 -161 -278t-316 -100t-295 120q-106 121 -107 322q0 250 139 462q68 101 181 164q114 64 268 64t247 -91t95 -261h-170q4 94 -49 153
t-166 59t-202 -90q-89 -91 -126 -212t-37 -249z" />
    <glyph glyph-name="Cdotaccent" unicode="&#x10a;" horiz-adv-x="1546" 
d="M948 1714l39 203h191l-39 -203h-191zM984 1436q-144 0 -253 -56t-177 -142q-191 -246 -194 -648q0 -203 98 -336t300 -133q200 0 315 102t156 266h188q-57 -244 -231 -383t-442 -139t-422 174q-152 174 -152 470t126 538q67 127 161 224t233 157t303 59q223 1 365 -125
t155 -364h-186q-12 164 -106 250q-93 86 -237 86z" />
    <glyph glyph-name="cdotaccent" unicode="&#x10b;" horiz-adv-x="1075" 
d="M621 1323l38 203h191l-39 -203h-190zM270 415q0 -128 60 -213t186 -87q127 -3 196 71t81 166h176q-35 -178 -161 -278t-316 -100t-295 120q-106 121 -107 322q0 250 139 462q68 101 181 164q114 64 268 64t247 -91t95 -261h-170q4 94 -49 153t-166 59t-202 -90
q-89 -91 -126 -212t-37 -249z" />
    <glyph glyph-name="Ccaron" unicode="&#x10c;" horiz-adv-x="1546" 
d="M920 1694l-166 272h164l106 -156h2l162 156h176l-256 -272h-188zM984 1436q-144 0 -253 -56t-177 -142q-191 -246 -194 -648q0 -203 98 -336t300 -133q200 0 315 102t156 266h188q-57 -244 -231 -383t-442 -139t-422 174q-152 174 -152 470t126 538q67 127 161 224
t233 157t303 59q223 1 365 -125t155 -364h-186q-12 164 -106 250q-93 86 -237 86z" />
    <glyph glyph-name="ccaron" unicode="&#x10d;" horiz-adv-x="1075" 
d="M616 1282l-135 332h160l88 -209l162 209h168l-252 -332h-191zM270 415q0 -128 60 -213t186 -87q127 -3 196 71t81 166h176q-35 -178 -161 -278t-316 -100t-295 120q-106 121 -107 322q0 250 139 462q68 101 181 164q114 64 268 64t247 -91t95 -261h-170q4 94 -49 153
t-166 59t-202 -90q-89 -91 -126 -212t-37 -249z" />
    <glyph glyph-name="Dcaron" unicode="&#x10e;" horiz-adv-x="1546" 
d="M809 1694l-166 272h164l106 -156h2l162 156h176l-256 -272h-188zM653 162q162 0 284 66t185 156q62 91 112 242t50 328q0 451 -448 451h-273l-241 -1243h331zM850 1567q289 0 458 -151t169 -460q0 -394 -201 -665q-100 -135 -270 -213t-392 -78h-508l302 1567h442z" />
    <glyph glyph-name="dcaron" unicode="&#x10f;" horiz-adv-x="1224" 
d="M1300 1282l99 332h172l-158 -332h-113zM468 -27q-192 0 -286 110q-92 110 -92 291q0 403 240 617q127 115 301 115q238 0 297 -199h2l135 707h182l-313 -1614h-172l33 174h-4q-131 -201 -323 -201zM640 961q-91 1 -167 -57q-130 -98 -181 -335q-22 -97 -22 -201t50 -177
t178 -73q126 0 223 99q96 98 125 242l22 114q37 141 -7 263q-19 55 -75 90t-146 35z" />
    <glyph glyph-name="Dcroat" unicode="&#x110;" horiz-adv-x="1583" 
d="M690 162q162 0 284 66t185 156q63 91 113 242t49 328q0 451 -449 451h-272l-104 -533h436l-31 -159h-436l-107 -551h332zM651 0h-508l138 713h-172l30 159h172l133 695h443q289 0 458 -151t168 -460q0 -395 -200 -665q-101 -135 -271 -213t-391 -78z" />
    <glyph glyph-name="dcroat" unicode="&#x111;" horiz-adv-x="1224" 
d="M468 -27q-192 0 -286 110q-92 110 -92 291q0 403 240 617q127 115 301 115q238 0 297 -199h2l71 371h-317l25 129h317l39 207h182l-41 -207h154l-25 -129h-153l-248 -1278h-172l33 174h-4q-131 -201 -323 -201zM640 961q-91 1 -167 -57q-130 -98 -181 -335
q-22 -97 -22 -201t50 -177t178 -73q126 0 223 99q96 98 125 242l22 114q37 141 -7 263q-19 55 -75 90t-146 35z" />
    <glyph glyph-name="Emacron" unicode="&#x112;" horiz-adv-x="1349" 
d="M643 1745l31 149h586l-31 -149h-586zM106 0l304 1567h966l-33 -168h-780l-102 -527h723l-33 -163h-721l-104 -541h798l-32 -168h-986z" />
    <glyph glyph-name="emacron" unicode="&#x113;" horiz-adv-x="1103" 
d="M412 1323l28 150h586l-29 -150h-585zM481 -27q-184 0 -290 121q-105 121 -105 303q0 401 249 602q130 106 306 107q119 0 203 -47t122 -123q87 -173 40 -369l-17 -78h-721q-4 -61 -4 -88q0 -123 58 -205t192 -81q195 0 250 168h176q-41 -147 -158 -229t-301 -81zM629 969
q-131 -1 -214 -95t-122 -241h545q25 151 -26 243q-52 93 -183 93z" />
    <glyph glyph-name="Ebreve" unicode="&#x114;" horiz-adv-x="1349" 
d="M799 1987q-8 -152 131 -152q147 0 198 152h140q-39 -145 -131 -217t-218 -70q-126 0 -199 72q-72 72 -54 215h133zM106 0l304 1567h966l-33 -168h-780l-102 -527h723l-33 -163h-721l-104 -541h798l-32 -168h-986z" />
    <glyph glyph-name="ebreve" unicode="&#x115;" horiz-adv-x="1103" 
d="M718 1288q-134 0 -208 81t-41 245h133q-18 -92 18 -141t111 -50q166 0 205 191h137q-33 -164 -127 -245t-228 -81zM481 -27q-184 0 -290 121q-105 121 -105 303q0 401 249 602q130 106 306 107q119 0 203 -47t122 -123q87 -173 40 -369l-17 -78h-721q-4 -61 -4 -88
q0 -123 58 -205t192 -81q195 0 250 168h176q-41 -147 -158 -229t-301 -81zM629 969q-131 -1 -214 -95t-122 -241h545q25 151 -26 243q-52 93 -183 93z" />
    <glyph glyph-name="Edotaccent" unicode="&#x116;" horiz-adv-x="1349" 
d="M836 1714l38 203h191l-39 -203h-190zM106 0l304 1567h966l-33 -168h-780l-102 -527h723l-33 -163h-721l-104 -541h798l-32 -168h-986z" />
    <glyph glyph-name="edotaccent" unicode="&#x117;" horiz-adv-x="1103" 
d="M610 1323l39 203h191l-39 -203h-191zM481 -27q-184 0 -290 121q-105 121 -105 303q0 401 249 602q130 106 306 107q119 0 203 -47t122 -123q87 -173 40 -369l-17 -78h-721q-4 -61 -4 -88q0 -123 58 -205t192 -81q195 0 250 168h176q-41 -147 -158 -229t-301 -81zM629 969
q-131 -1 -214 -95t-122 -241h545q25 151 -26 243q-52 93 -183 93z" />
    <glyph glyph-name="Eogonek" unicode="&#x118;" horiz-adv-x="1349" 
d="M977 -385q-109 0 -171 39t-62 116t58 139t144 91h-840l304 1567h966l-33 -168h-780l-102 -527h723l-33 -163h-721l-104 -541h798l-32 -168q-170 -100 -170 -188q-1 -70 116 -70l-24 -127h-37z" />
    <glyph glyph-name="eogonek" unicode="&#x119;" horiz-adv-x="1103" 
d="M631 -385q-109 0 -171 39t-62 111q-1 134 169 217v4q-227 -45 -369 102q-112 115 -112 303q0 407 249 608q130 106 306 107q123 0 208 -47t121 -123q82 -174 36 -369l-17 -78h-721q-4 -61 -4 -88q0 -123 58 -205t192 -81q195 0 250 168h176q-51 -178 -223 -273
q-66 -37 -106 -88t-40 -102q0 -78 121 -78l-24 -127h-37zM623 969q-125 -1 -208 -95t-122 -241h545q56 336 -215 336z" />
    <glyph glyph-name="Ecaron" unicode="&#x11a;" horiz-adv-x="1349" 
d="M840 1694l-166 272h164l106 -156h2l162 156h176l-256 -272h-188zM106 0l304 1567h966l-33 -168h-780l-102 -527h723l-33 -163h-721l-104 -541h798l-32 -168h-986z" />
    <glyph glyph-name="ecaron" unicode="&#x11b;" horiz-adv-x="1103" 
d="M606 1282l-135 332h160l88 -209l162 209h168l-252 -332h-191zM481 -27q-184 0 -290 121q-105 121 -105 303q0 401 249 602q130 106 306 107q119 0 203 -47t122 -123q87 -173 40 -369l-17 -78h-721q-4 -61 -4 -88q0 -123 58 -205t192 -81q195 0 250 168h176
q-41 -147 -158 -229t-301 -81zM629 969q-131 -1 -214 -95t-122 -241h545q25 151 -26 243q-52 93 -183 93z" />
    <glyph glyph-name="Gcircumflex" unicode="&#x11c;" horiz-adv-x="1650" 
d="M1184 1966l157 -272h-153l-103 155h-2l-157 -155h-162l231 272h189zM1006 1438q-152 0 -271 -62t-187 -155q-68 -92 -114 -213q-74 -198 -75 -410q-1 -211 97 -344t313 -133q214 0 350 134t177 347l4 25h-444l35 164h627l-154 -791h-162l49 254h-6q-63 -133 -194 -209
t-291 -76q-312 0 -458 187q-138 172 -138 440t118 516q65 137 159 242q95 104 245 170t334 65q228 -1 362 -113t140 -325h-187q-4 133 -91 210q-86 77 -238 77z" />
    <glyph glyph-name="gcircumflex" unicode="&#x11d;" horiz-adv-x="1220" 
d="M870 1614l136 -332h-160l-88 209l-162 -209h-168l252 332h190zM29 -102h174q4 -78 61 -122t162 -44q272 0 338 342l22 110h-4q-133 -190 -342 -190q-172 0 -263 102t-91 281q0 261 134 487q66 110 174 176t243 66q229 0 295 -199h2l35 172h170l-203 -1038
q-88 -449 -526 -449q-158 0 -270 77q-111 77 -111 229zM266 377q0 -242 219 -242q137 0 235 99q97 100 126 241l22 115q33 160 -15 265t-212 106q-96 -1 -171 -57q-132 -99 -182 -334q-22 -97 -22 -193z" />
    <glyph glyph-name="Gbreve" unicode="&#x11e;" horiz-adv-x="1650" 
d="M926 1987q-8 -152 131 -152q147 0 198 152h140q-39 -145 -131 -217t-218 -70q-126 0 -199 72q-72 72 -54 215h133zM1006 1438q-152 0 -271 -62t-187 -155q-68 -92 -114 -213q-74 -198 -75 -410q-1 -211 97 -344t313 -133q214 0 350 134t177 347l4 25h-444l35 164h627
l-154 -791h-162l49 254h-6q-63 -133 -194 -209t-291 -76q-312 0 -458 187q-138 172 -138 440t118 516q65 137 159 242q95 104 245 170t334 65q228 -1 362 -113t140 -325h-187q-4 133 -91 210q-86 77 -238 77z" />
    <glyph glyph-name="gbreve" unicode="&#x11f;" horiz-adv-x="1220" 
d="M738 1288q-134 0 -208 81t-41 245h134q-19 -92 17 -141t112 -50q164 0 204 191h138q-34 -164 -128 -245t-228 -81zM29 -102h174q4 -78 61 -122t162 -44q272 0 338 342l22 110h-4q-133 -190 -342 -190q-172 0 -263 102t-91 281q0 261 134 487q66 110 174 176t243 66
q229 0 295 -199h2l35 172h170l-203 -1038q-88 -449 -526 -449q-158 0 -270 77q-111 77 -111 229zM266 377q0 -242 219 -242q137 0 235 99q97 100 126 241l22 115q33 160 -15 265t-212 106q-96 -1 -171 -57q-132 -99 -182 -334q-22 -97 -22 -193z" />
    <glyph glyph-name="Gdotaccent" unicode="&#x120;" horiz-adv-x="1650" 
d="M961 1714l38 203h191l-39 -203h-190zM1006 1438q-152 0 -271 -62t-187 -155q-68 -92 -114 -213q-74 -198 -75 -410q-1 -211 97 -344t313 -133q214 0 350 134t177 347l4 25h-444l35 164h627l-154 -791h-162l49 254h-6q-63 -133 -194 -209t-291 -76q-312 0 -458 187
q-138 172 -138 440t118 516q65 137 159 242q95 104 245 170t334 65q228 -1 362 -113t140 -325h-187q-4 133 -91 210q-86 77 -238 77z" />
    <glyph glyph-name="gdotaccent" unicode="&#x121;" horiz-adv-x="1220" 
d="M631 1323l39 203h190l-39 -203h-190zM29 -102h174q4 -78 61 -122t162 -44q272 0 338 342l22 110h-4q-133 -190 -342 -190q-172 0 -263 102t-91 281q0 261 134 487q66 110 174 176t243 66q229 0 295 -199h2l35 172h170l-203 -1038q-88 -449 -526 -449q-158 0 -270 77
q-111 77 -111 229zM266 377q0 -242 219 -242q137 0 235 99q97 100 126 241l22 115q33 160 -15 265t-212 106q-96 -1 -171 -57q-132 -99 -182 -334q-22 -97 -22 -193z" />
    <glyph glyph-name="Gcommaaccent" unicode="&#x122;" horiz-adv-x="1650" 
d="M504 -422l100 281h195l-181 -281h-114zM1006 1438q-152 0 -271 -62t-187 -155q-68 -92 -114 -213q-74 -198 -75 -410q-1 -211 97 -344t313 -133q214 0 350 134t177 347l4 25h-444l35 164h627l-154 -791h-162l49 254h-6q-63 -133 -194 -209t-291 -76q-312 0 -458 187
q-138 172 -138 440t118 516q65 137 159 242q95 104 245 170t334 65q228 -1 362 -113t140 -325h-187q-4 133 -91 210q-86 77 -238 77z" />
    <glyph glyph-name="gcommaaccent" unicode="&#x123;" horiz-adv-x="1220" 
d="M903 1579l-100 -281h-195l180 281h115zM29 -102h174q4 -78 61 -122t162 -44q272 0 338 342l22 110h-4q-133 -190 -342 -190q-172 0 -263 102t-91 281q0 261 134 487q66 110 174 176t243 66q229 0 295 -199h2l35 172h170l-203 -1038q-88 -449 -526 -449q-158 0 -270 77
q-111 77 -111 229zM266 377q0 -242 219 -242q137 0 235 99q97 100 126 241l22 115q33 160 -15 265t-212 106q-96 -1 -171 -57q-132 -99 -182 -334q-22 -97 -22 -193z" />
    <glyph glyph-name="Hcircumflex" unicode="&#x124;" horiz-adv-x="1574" 
d="M1124 1966l158 -272h-154l-102 155h-2l-158 -155h-161l231 272h188zM432 709l-137 -709h-184l301 1567h186l-133 -693h788l133 693h187l-303 -1567h-187l138 709h-789z" />
    <glyph glyph-name="hcircumflex" unicode="&#x125;" horiz-adv-x="1218" 
d="M977 1966l158 -272h-154l-102 155h-2l-158 -155h-162l231 272h189zM708 952q-120 0 -208 -97t-121 -271l-113 -584h-182l313 1614h183l-140 -709h4q56 89 144 145t200 56q172 0 246 -114t31 -328l-127 -664h-180l123 637q37 179 -7 247q-46 68 -166 68z" />
    <glyph glyph-name="Hbar" unicode="&#x126;" horiz-adv-x="1574" 
d="M432 709l-137 -709h-184l225 1167h-193l27 138h190l52 262h186l-51 -262h788l51 262h187l-51 -262h178l-27 -138h-178l-225 -1167h-187l138 709h-789zM465 874h788l58 293h-789z" />
    <glyph glyph-name="hbar" unicode="&#x127;" horiz-adv-x="1218" 
d="M788 1106q172 0 246 -114t31 -328l-127 -664h-180l123 637q37 179 -7 247t-166 68q-120 0 -208 -97t-121 -271l-113 -584h-182l248 1278h-148l25 129h147l41 207h183l-41 -207h321l-24 -129h-322l-74 -373h4q56 89 144 145t200 56z" />
    <glyph glyph-name="Itilde" unicode="&#x128;" horiz-adv-x="606" 
d="M684 1698q-74 0 -150 61t-110 62q-76 0 -115 -127h-137q24 120 90 198t166 78t164 -62t105 -62q42 -1 68 30t46 98h139q-22 -120 -88 -198t-178 -78zM111 0l303 1567h186l-303 -1567h-186z" />
    <glyph glyph-name="itilde" unicode="&#x129;" horiz-adv-x="559" 
d="M84 0l209 1079h182l-209 -1079h-182zM356 1554q55 0 126 -62t98 -62q70 0 90 129h112q-26 -133 -74 -205t-149 -72q-55 0 -131 62t-102 63q-66 0 -90 -129h-113q51 276 233 276z" />
    <glyph glyph-name="Imacron" unicode="&#x12a;" horiz-adv-x="606" 
d="M248 1745l31 149h585l-30 -149h-586zM111 0l303 1567h186l-303 -1567h-186z" />
    <glyph glyph-name="imacron" unicode="&#x12b;" horiz-adv-x="559" 
d="M84 0l209 1079h182l-209 -1079h-182zM178 1323l33 150h498l-31 -150h-500z" />
    <glyph glyph-name="Ibreve" unicode="&#x12c;" horiz-adv-x="606" 
d="M561 1835q147 0 199 152h139q-39 -145 -131 -217t-218 -70q-126 0 -199 72q-72 72 -54 215h133q-4 -74 30 -113t101 -39zM111 0l303 1567h186l-303 -1567h-186z" />
    <glyph glyph-name="ibreve" unicode="&#x12d;" horiz-adv-x="559" 
d="M84 0l209 1079h182l-209 -1079h-182zM438 1288q-125 0 -185 81t-17 245h118q-25 -90 5 -140t98 -51q145 0 198 191h123q-84 -326 -340 -326z" />
    <glyph glyph-name="Iogonek" unicode="&#x12e;" horiz-adv-x="606" 
d="M127 -188q0 -70 117 -70l-25 -127h-37q-109 0 -171 39t-62 115q0 150 196 231h-34l303 1567h186l-303 -1567q-170 -100 -170 -188z" />
    <glyph glyph-name="iogonek" unicode="&#x12f;" horiz-adv-x="559" 
d="M96 -188q0 -70 117 -70l-25 -127h-36q-109 0 -171 39q-63 39 -63 114t53 135t146 97h-33l209 1079h182l-209 -1079q-170 -100 -170 -188zM336 1325l39 199h190l-39 -199h-190z" />
    <glyph glyph-name="Idotaccent" unicode="&#x130;" horiz-adv-x="606" 
d="M440 1714l39 203h191l-39 -203h-191zM111 0l303 1567h186l-303 -1567h-186z" />
    <glyph glyph-name="dotlessi" unicode="&#x131;" horiz-adv-x="559" 
d="M84 0l209 1079h182l-209 -1079h-182z" />
    <glyph glyph-name="IJ" unicode="&#x132;" horiz-adv-x="1345" 
d="M582 -6h-70l31 162h47q174 0 249 66t103 214l221 1131h187l-224 -1151q-27 -139 -78 -227q-52 -87 -168 -141t-298 -54zM111 0l303 1567h186l-303 -1567h-186z" />
    <glyph glyph-name="ij" unicode="&#x133;" horiz-adv-x="1118" 
d="M465 -408q-68 0 -131 23l31 149q43 -14 103 -14q126 0 153 139l231 1190h182l-235 -1210q-53 -277 -334 -277zM895 1325l39 199h190l-39 -199h-190zM84 0l209 1079h182l-209 -1079h-182zM336 1325l39 199h190l-39 -199h-190z" />
    <glyph glyph-name="Jcircumflex" unicode="&#x134;" horiz-adv-x="851" 
d="M909 1966l158 -272h-154l-102 155h-2l-158 -155h-162l232 272h188zM78 -6h-141l30 162h119q174 0 249 66t103 214l221 1131h187l-223 -1151q-27 -138 -79 -226t-168 -142t-298 -54z" />
    <glyph glyph-name="jcircumflex" unicode="&#x135;" horiz-adv-x="559" 
d="M-92 -250q127 0 153 139l232 1190h182l-235 -1210q-53 -276 -334 -277q-68 0 -131 23l30 149q43 -14 103 -14zM575 1614l111 -332h-149l-74 209l-141 -209h-168l231 332h190z" />
    <glyph glyph-name="Kcommaaccent" unicode="&#x136;" horiz-adv-x="1433" 
d="M422 -422l100 281h195l-180 -281h-115zM389 502l-96 -502h-187l304 1567h186l-160 -822l862 822h236l-709 -668l453 -899h-207l-387 772z" />
    <glyph glyph-name="kcommaaccent" unicode="&#x137;" horiz-adv-x="1126" 
d="M279 -422l100 281h194l-180 -281h-114zM330 328l-64 -328h-182l313 1614h183l-205 -1053l532 518h219l-452 -424l291 -655h-201l-227 526z" />
    <glyph glyph-name="kgreenlandic" unicode="&#x138;" horiz-adv-x="1126" 
d="M330 326l-64 -326h-182l207 1079h182l-100 -520l534 520h219l-452 -424l291 -655h-201l-227 526z" />
    <glyph glyph-name="Lacute" unicode="&#x139;" horiz-adv-x="1206" 
d="M451 1694l170 272h206l-239 -272h-137zM106 0l304 1567h186l-270 -1399h761l-32 -168h-949z" />
    <glyph glyph-name="lacute" unicode="&#x13a;" horiz-adv-x="557" 
d="M424 1694l170 272h207l-240 -272h-137zM84 0l313 1614h183l-314 -1614h-182z" />
    <glyph glyph-name="Lcommaaccent" unicode="&#x13b;" horiz-adv-x="1206" 
d="M362 -422l101 281h194l-180 -281h-115zM106 0l304 1567h186l-270 -1399h761l-32 -168h-949z" />
    <glyph glyph-name="lcommaaccent" unicode="&#x13c;" horiz-adv-x="557" 
d="M-43 -422l100 281h195l-180 -281h-115zM84 0l313 1614h183l-314 -1614h-182z" />
    <glyph glyph-name="Lcaron" unicode="&#x13d;" horiz-adv-x="1206" 
d="M106 0l304 1567h186l-270 -1399h761l-32 -168h-949zM750 1214l133 400h192l-192 -400h-133z" />
    <glyph glyph-name="lcaron" unicode="&#x13e;" horiz-adv-x="557" 
d="M633 1282l98 332h172l-158 -332h-112zM84 0l313 1614h183l-314 -1614h-182z" />
    <glyph glyph-name="Ldot" unicode="&#x13f;" horiz-adv-x="1206" 
d="M823 692l45 236h230l-45 -236h-230zM106 0l304 1567h186l-270 -1399h761l-32 -168h-949z" />
    <glyph glyph-name="ldot" unicode="&#x140;" horiz-adv-x="671" 
d="M547 709l39 209h205l-39 -209h-205zM84 0l313 1614h183l-314 -1614h-182z" />
    <glyph glyph-name="Lslash" unicode="&#x141;" horiz-adv-x="1210" 
d="M111 0l114 592l-174 -64l35 179l174 63l154 797h186l-139 -723l532 194l-35 -178l-532 -194l-96 -498h762l-33 -168h-948z" />
    <glyph glyph-name="lslash" unicode="&#x142;" horiz-adv-x="571" 
d="M266 0h-180l129 664l-190 -117l34 178l191 117l149 772h181l-125 -647l194 118l-37 -178l-192 -119z" />
    <glyph glyph-name="Nacute" unicode="&#x143;" horiz-adv-x="1595" 
d="M942 1694l170 272h207l-240 -272h-137zM106 0l304 1567h229l457 -1188l47 -154h6l260 1342h176l-303 -1567h-227l-457 1186l-51 151h-4l-258 -1337h-179z" />
    <glyph glyph-name="nacute" unicode="&#x144;" horiz-adv-x="1218" 
d="M682 1282l166 332h207l-240 -332h-133zM895 776q0 176 -172 176q-135 0 -223 -97t-121 -271l-113 -584h-182l209 1079h174l-37 -182h4q54 93 148 151t206 58q172 0 246 -114t31 -328l-127 -664h-182l123 637q16 78 16 139z" />
    <glyph glyph-name="Ncommaaccent" unicode="&#x145;" horiz-adv-x="1595" 
d="M475 -422l100 281h195l-180 -281h-115zM106 0l304 1567h229l457 -1188l47 -154h6l260 1342h176l-303 -1567h-227l-457 1186l-51 151h-4l-258 -1337h-179z" />
    <glyph glyph-name="ncommaaccent" unicode="&#x146;" horiz-adv-x="1218" 
d="M289 -422l100 281h195l-181 -281h-114zM895 776q0 176 -172 176q-135 0 -223 -97t-121 -271l-113 -584h-182l209 1079h174l-37 -182h4q54 93 148 151t206 58q172 0 246 -114t31 -328l-127 -664h-182l123 637q16 78 16 139z" />
    <glyph glyph-name="Ncaron" unicode="&#x147;" horiz-adv-x="1595" 
d="M936 1694l-166 272h164l106 -156h2l162 156h176l-256 -272h-188zM106 0l304 1567h229l457 -1188l47 -154h6l260 1342h176l-303 -1567h-227l-457 1186l-51 151h-4l-258 -1337h-179z" />
    <glyph glyph-name="ncaron" unicode="&#x148;" horiz-adv-x="1218" 
d="M643 1282l-135 332h160l88 -209l162 209h167l-251 -332h-191zM895 776q0 176 -172 176q-135 0 -223 -97t-121 -271l-113 -584h-182l209 1079h174l-37 -182h4q54 93 148 151t206 58q172 0 246 -114t31 -328l-127 -664h-182l123 637q16 78 16 139z" />
    <glyph glyph-name="napostrophe" unicode="&#x149;" horiz-adv-x="1218" 
d="M223 1333l101 281h194l-180 -281h-115zM895 776q0 176 -172 176q-135 0 -223 -97t-121 -271l-113 -584h-182l209 1079h174l-37 -182h4q54 93 148 151t206 58q172 0 246 -114t31 -328l-127 -664h-182l123 637q16 78 16 139z" />
    <glyph glyph-name="Eng" unicode="&#x14a;" horiz-adv-x="1595" 
d="M743 -385h-131l31 162h109q147 0 220 42t105 128l-479 1239l-51 151h-4l-258 -1337h-179l304 1567h229l457 -1188l47 -154h6l260 1342h176l-297 -1530q-27 -139 -79 -226t-168 -141t-298 -55z" />
    <glyph glyph-name="eng" unicode="&#x14b;" horiz-adv-x="1218" 
d="M580 -408q-68 0 -131 23l30 149q43 -14 103 -14q126 0 151 139l146 748q16 78 16 139q0 176 -172 176q-135 0 -223 -97t-121 -271l-113 -584h-182l209 1079h174l-37 -182h4q54 93 148 151t206 58q172 0 246 -114t31 -328l-152 -795q-52 -277 -333 -277z" />
    <glyph glyph-name="Omacron" unicode="&#x14c;" horiz-adv-x="1642" 
d="M764 1745l31 149h585l-30 -149h-586zM1378 952q0 208 -89 339q-98 147 -320 147q-131 0 -239 -58t-176 -146q-193 -254 -196 -652q0 -195 102 -328t314 -133q158 0 281 87t189 221q66 133 100 273t34 250zM166 588q0 430 231 716t582 285q281 0 437 -174t155 -454
q0 -181 -52 -355q-115 -385 -404 -550q-157 -89 -347 -89q-282 -1 -442 175t-160 446z" />
    <glyph glyph-name="omacron" unicode="&#x14d;" horiz-adv-x="1136" 
d="M426 1323l29 150h585l-28 -150h-586zM870 692q0 276 -239 277q-96 1 -170 -57t-115 -148q-78 -171 -80 -375q0 -276 242 -276q84 0 150 42q115 74 168 251q44 139 44 286zM502 -27q-209 0 -313 119q-103 118 -103 320t86 374q157 320 463 320q211 0 313 -118t102 -318
t-89 -388q-90 -189 -258 -266q-92 -43 -201 -43z" />
    <glyph glyph-name="Obreve" unicode="&#x14e;" horiz-adv-x="1642" 
d="M1077 1835q147 0 199 152h139q-39 -145 -131 -217t-218 -70q-126 0 -199 72q-72 72 -54 215h133q-4 -74 30 -113t101 -39zM1378 952q0 208 -89 339q-98 147 -320 147q-131 0 -239 -58t-176 -146q-193 -254 -196 -652q0 -195 102 -328t314 -133q158 0 281 87t189 221
q66 133 100 273t34 250zM166 588q0 430 231 716t582 285q281 0 437 -174t155 -454q0 -181 -52 -355q-115 -385 -404 -550q-157 -89 -347 -89q-282 -1 -442 175t-160 446z" />
    <glyph glyph-name="obreve" unicode="&#x14f;" horiz-adv-x="1136" 
d="M732 1288q-134 0 -208 81t-41 245h133q-18 -92 18 -141t111 -50q164 0 205 191h137q-33 -164 -127 -245t-228 -81zM870 692q0 276 -239 277q-96 1 -170 -57t-115 -148q-78 -171 -80 -375q0 -276 242 -276q84 0 150 42q115 74 168 251q44 139 44 286zM502 -27
q-209 0 -313 119q-103 118 -103 320t86 374q157 320 463 320q211 0 313 -118t102 -318t-89 -388q-90 -189 -258 -266q-92 -43 -201 -43z" />
    <glyph glyph-name="Ohungarumlaut" unicode="&#x150;" horiz-adv-x="1642" 
d="M838 1714l116 273h183l-187 -273h-112zM1118 1714l117 273h182l-184 -273h-115zM1378 952q0 208 -89 339q-98 147 -320 147q-131 0 -239 -58t-176 -146q-193 -254 -196 -652q0 -195 102 -328t314 -133q158 0 281 87t189 221q66 133 100 273t34 250zM166 588
q0 430 231 716t582 285q281 0 437 -174t155 -454q0 -181 -52 -355q-115 -385 -404 -550q-157 -89 -347 -89q-282 -1 -442 175t-160 446z" />
    <glyph glyph-name="ohungarumlaut" unicode="&#x151;" horiz-adv-x="1136" 
d="M471 1282l172 332h182l-239 -332h-115zM752 1282l172 332h182l-240 -332h-114zM870 692q0 276 -239 277q-96 1 -170 -57t-115 -148q-78 -171 -80 -375q0 -276 242 -276q84 0 150 42q115 74 168 251q44 139 44 286zM502 -27q-209 0 -313 119q-103 118 -103 320t86 374
q157 320 463 320q211 0 313 -118t102 -318t-89 -388q-90 -189 -258 -266q-92 -43 -201 -43z" />
    <glyph glyph-name="OE" unicode="&#x152;" horiz-adv-x="2449" 
d="M766 -33q-284 0 -442 176t-158 441q0 436 231 721t582 284q180 0 301 -77t172 -203h6l51 258h967l-33 -168h-780l-102 -527h723l-33 -163h-721l-105 -541h799l-33 -168h-985l41 209h-6q-76 -109 -203 -175t-272 -67zM771 121q212 -1 362 151t200 402l39 188
q31 194 -4 289t-79 155t-128 96q-83 36 -203 36t-228 -58t-176 -146q-132 -175 -176 -432q-19 -112 -20 -218q0 -197 100 -330t313 -133z" />
    <glyph glyph-name="oe" unicode="&#x153;" horiz-adv-x="1871" 
d="M1262 -27q-272 0 -357 236q-135 -236 -403 -236q-209 0 -313 119q-103 118 -103 320t86 374q157 320 458 320q302 0 363 -256q156 256 424 256q156 0 250 -81q95 -81 111 -200t-4 -258l-17 -78h-721q-4 -61 -4 -88q0 -125 60 -207t190 -83q195 0 250 172h176
q-41 -147 -158 -229t-288 -81zM870 692q0 276 -239 277q-96 1 -170 -57t-115 -148q-78 -171 -80 -375q0 -276 242 -276q84 0 150 42q115 74 168 251q44 139 44 286zM1406 969q-130 1 -215 -95t-126 -241h541q26 154 -22 245t-178 91z" />
    <glyph glyph-name="Racute" unicode="&#x154;" horiz-adv-x="1388" 
d="M805 1694l170 272h207l-240 -272h-137zM901 1567q201 0 322 -98t121 -287t-96 -317q-95 -128 -281 -173v-6l250 -686h-197l-236 666h-362l-131 -666h-185l302 1567h493zM819 821q158 0 245 90t87 256q0 244 -270 244h-318l-114 -590h370z" />
    <glyph glyph-name="racute" unicode="&#x155;" horiz-adv-x="786" 
d="M510 1282l166 332h207l-240 -332h-133zM793 1100h10l-35 -193h-18q-305 0 -371 -319l-113 -588h-182l209 1079h174l-41 -202h6q49 91 142 157t219 66z" />
    <glyph glyph-name="Rcommaaccent" unicode="&#x156;" horiz-adv-x="1388" 
d="M444 -422l101 281h194l-180 -281h-115zM901 1567q201 0 322 -98t121 -287t-96 -317q-95 -128 -281 -173v-6l250 -686h-197l-236 666h-362l-131 -666h-185l302 1567h493zM819 821q158 0 245 90t87 256q0 244 -270 244h-318l-114 -590h370z" />
    <glyph glyph-name="rcommaaccent" unicode="&#x157;" horiz-adv-x="786" 
d="M-47 -422l100 281h195l-180 -281h-115zM793 1100h10l-35 -193h-18q-305 0 -371 -319l-113 -588h-182l209 1079h174l-41 -202h6q49 91 142 157t219 66z" />
    <glyph glyph-name="Rcaron" unicode="&#x158;" horiz-adv-x="1388" 
d="M766 1694l-166 272h164l106 -156h2l162 156h176l-256 -272h-188zM901 1567q201 0 322 -98t121 -287t-96 -317q-95 -128 -281 -173v-6l250 -686h-197l-236 666h-362l-131 -666h-185l302 1567h493zM819 821q158 0 245 90t87 256q0 244 -270 244h-318l-114 -590h370z" />
    <glyph glyph-name="rcaron" unicode="&#x159;" horiz-adv-x="786" 
d="M494 1282l-136 332h160l88 -209l162 209h168l-252 -332h-190zM793 1100h10l-35 -193h-18q-305 0 -371 -319l-113 -588h-182l209 1079h174l-41 -202h6q49 91 142 157t219 66z" />
    <glyph glyph-name="Sacute" unicode="&#x15a;" horiz-adv-x="1363" 
d="M801 1694l170 272h207l-240 -272h-137zM651 127q155 0 265 81t110 230q0 90 -52 146t-173 102l-185 68q-324 115 -323 376q0 211 152 336q153 125 384 123t359 -118t112 -345h-186q10 141 -65 227q-75 85 -223 85t-245 -73t-98 -208q0 -158 213 -235l176 -64
q186 -66 266 -158t79 -245q0 -219 -161 -353t-410 -133q-250 0 -402 120t-140 372h193q-6 -334 354 -334z" />
    <glyph glyph-name="sacute" unicode="&#x15b;" horiz-adv-x="1009" 
d="M549 1282l166 332h207l-240 -332h-133zM554 969q-89 0 -156 -44t-66 -128q0 -113 129 -148l125 -33q164 -42 228 -112t65 -182q0 -164 -117 -256t-300 -92t-303 86q-120 87 -110 266h174q-8 -100 57 -158t173 -57q108 0 179 47t70 139q0 57 -37 96q-38 39 -133 64
l-124 32q-254 68 -254 285q0 158 116 245q117 87 284 87q168 0 274 -78t96 -233h-174q4 84 -52 129t-144 45z" />
    <glyph glyph-name="Scircumflex" unicode="&#x15c;" horiz-adv-x="1363" 
d="M991 1966l158 -272h-154l-102 155h-2l-158 -155h-162l232 272h188zM651 127q155 0 265 81t110 230q0 90 -52 146t-173 102l-185 68q-324 115 -323 376q0 211 152 336q153 125 384 123t359 -118t112 -345h-186q10 141 -65 227q-75 85 -223 85t-245 -73t-98 -208
q0 -158 213 -235l176 -64q186 -66 266 -158t79 -245q0 -219 -161 -353t-410 -133q-250 0 -402 120t-140 372h193q-6 -334 354 -334z" />
    <glyph glyph-name="scircumflex" unicode="&#x15d;" horiz-adv-x="1009" 
d="M776 1614l135 -332h-159l-88 209l-162 -209h-168l252 332h190zM554 969q-89 0 -156 -44t-66 -128q0 -113 129 -148l125 -33q164 -42 228 -112t65 -182q0 -164 -117 -256t-300 -92t-303 86q-120 87 -110 266h174q-8 -100 57 -158t173 -57q108 0 179 47t70 139q0 57 -37 96
q-38 39 -133 64l-124 32q-254 68 -254 285q0 158 116 245q117 87 284 87q168 0 274 -78t96 -233h-174q4 84 -52 129t-144 45z" />
    <glyph glyph-name="Scedilla" unicode="&#x15e;" horiz-adv-x="1363" 
d="M731 -264q1 -70 -55 -120t-137 -50t-127 34t-47 101h114q8 -45 58 -45q76 0 75 78q0 68 -55 67q-37 0 -59 -22h-119l125 201q-192 32 -302 150t-98 331h193q-6 -334 354 -334q155 0 265 81t110 230q0 90 -52 146t-173 102l-185 68q-324 115 -323 376q0 211 152 336
q153 125 384 123t359 -118t112 -345h-186q10 141 -65 227q-75 85 -223 85t-245 -73t-98 -208q0 -158 213 -235l176 -64q186 -66 266 -158t79 -245q0 -219 -161 -353t-411 -133q-33 0 -49 2l-61 -100h4q23 12 73 12t85 -39q34 -38 34 -108z" />
    <glyph glyph-name="scedilla" unicode="&#x15f;" horiz-adv-x="1009" 
d="M378 -434q-81 0 -128 34t-47 101h114q8 -45 58 -45q76 0 76 78q0 68 -56 67q-37 0 -59 -22h-119l125 205q-135 26 -218 110t-75 232h174q-8 -100 57 -158t173 -57q108 0 179 47t70 139q0 57 -37 96q-38 39 -133 64l-124 32q-254 68 -254 285q0 158 116 245q117 87 284 87
t273 -78t97 -233h-174q4 84 -52 129t-144 45q-89 0 -156 -44t-66 -128q0 -113 129 -148l125 -33q164 -42 228 -112t65 -182q0 -164 -117 -256t-309 -93h-17l-63 -102h4q23 12 73 12t86 -39q34 -38 34 -108t-56 -120q-55 -50 -136 -50z" />
    <glyph glyph-name="Scaron" unicode="&#x160;" horiz-adv-x="1363" 
d="M774 1694l-166 272h164l107 -156h2l161 156h177l-256 -272h-189zM651 127q155 0 265 81t110 230q0 90 -52 146t-173 102l-185 68q-324 115 -323 376q0 211 152 336q153 125 384 123t359 -118t112 -345h-186q10 141 -65 227q-75 85 -223 85t-245 -73t-98 -208
q0 -158 213 -235l176 -64q186 -66 266 -158t79 -245q0 -219 -161 -353t-410 -133q-250 0 -402 120t-140 372h193q-6 -334 354 -334z" />
    <glyph glyph-name="scaron" unicode="&#x161;" horiz-adv-x="1009" 
d="M510 1282l-135 332h160l88 -209l161 209h168l-252 -332h-190zM554 969q-89 0 -156 -44t-66 -128q0 -113 129 -148l125 -33q164 -42 228 -112t65 -182q0 -164 -117 -256t-300 -92t-303 86q-120 87 -110 266h174q-8 -100 57 -158t173 -57q108 0 179 47t70 139q0 57 -37 96
q-38 39 -133 64l-124 32q-254 68 -254 285q0 158 116 245q117 87 284 87q168 0 274 -78t96 -233h-174q4 84 -52 129t-144 45z" />
    <glyph glyph-name="Tcommaaccent" unicode="&#x162;" horiz-adv-x="1277" 
d="M319 -422l101 281h194l-180 -281h-115zM903 1403l-272 -1403h-189l273 1403h-518l32 164h1219l-33 -164h-512z" />
    <glyph glyph-name="tcommaaccent" unicode="&#x163;" horiz-adv-x="729" 
d="M117 -422l100 281h195l-181 -281h-114zM442 -16q-317 0 -258 309l125 645h-184l27 135h22q109 0 151 44t72 198l17 78h164l-62 -314h256l-29 -141h-256l-120 -619q-19 -106 7 -145t115 -39l103 10l-31 -149q-68 -12 -119 -12z" />
    <glyph glyph-name="Tcaron" unicode="&#x164;" horiz-adv-x="1277" 
d="M780 1694l-166 272h164l107 -156h2l162 156h176l-256 -272h-189zM903 1403l-272 -1403h-189l273 1403h-518l32 164h1219l-33 -164h-512z" />
    <glyph glyph-name="tcaron" unicode="&#x165;" horiz-adv-x="729" 
d="M717 1282l98 332h172l-158 -332h-112zM442 -16q-317 0 -258 309l125 645h-184l27 135h22q109 0 151 44t72 198l17 78h164l-62 -314h256l-29 -141h-256l-120 -619q-19 -106 7 -145t115 -39l103 10l-31 -149q-68 -12 -119 -12z" />
    <glyph glyph-name="Tbar" unicode="&#x166;" horiz-adv-x="1277" 
d="M801 872l-170 -872h-189l170 872h-393l27 138h393l76 393h-518l32 164h1219l-33 -164h-512l-76 -393h400l-27 -138h-399z" />
    <glyph glyph-name="tbar" unicode="&#x167;" horiz-adv-x="729" 
d="M442 -16q-317 0 -258 309l43 221h-192l26 141h193l55 283h-184l27 135h22q109 0 151 44t72 198l17 78h164l-62 -314h256l-29 -141h-256l-55 -283h260l-26 -141h-260l-39 -195q-19 -106 7 -145t115 -39l103 10l-31 -149q-68 -12 -119 -12z" />
    <glyph glyph-name="Utilde" unicode="&#x168;" horiz-adv-x="1523" 
d="M1028 1908q63 -62 105 -62q43 -1 69 30t45 98h139q-22 -120 -88 -198t-178 -78q-74 0 -150 61t-110 62q-76 0 -115 -127h-137q24 120 90 198t167 78q100 0 163 -62zM702 125q264 0 387 184q40 64 60 177q20 112 25 137l182 944h186l-207 -1071q-51 -270 -209 -398
t-428 -129q-622 0 -499 629l186 969h186l-170 -881q-61 -324 2 -430q77 -131 299 -131z" />
    <glyph glyph-name="utilde" unicode="&#x169;" horiz-adv-x="1212" 
d="M643 1554q63 0 151 -62t119 -62q78 0 93 129h131q-33 -276 -246 -277q-63 0 -151 62t-119 63q-78 0 -93 -129h-131q33 276 246 276zM487 125q137 0 226 103q88 103 125 294l108 557h182l-210 -1079h-173l37 184h-4q-123 -211 -340 -211q-176 0 -252 115t-32 330l127 661
h182l-123 -637q-18 -92 -18 -145q-4 -172 165 -172z" />
    <glyph glyph-name="Umacron" unicode="&#x16a;" horiz-adv-x="1523" 
d="M684 1745l31 149h585l-30 -149h-586zM702 125q264 0 387 184q40 64 60 177q20 112 25 137l182 944h186l-207 -1071q-51 -270 -209 -398t-428 -129q-622 0 -499 629l186 969h186l-170 -881q-61 -324 2 -430q77 -131 299 -131z" />
    <glyph glyph-name="umacron" unicode="&#x16b;" horiz-adv-x="1212" 
d="M457 1323l28 150h586l-29 -150h-585zM487 125q137 0 226 103q88 103 125 294l108 557h182l-210 -1079h-173l37 184h-4q-123 -211 -340 -211q-176 0 -252 115t-32 330l127 661h182l-123 -637q-18 -92 -18 -145q-4 -172 165 -172z" />
    <glyph glyph-name="Ubreve" unicode="&#x16c;" horiz-adv-x="1523" 
d="M997 1835q147 0 199 152h139q-39 -145 -131 -217t-218 -70q-126 0 -199 72q-72 72 -54 215h133q-4 -74 30 -113t101 -39zM702 125q264 0 387 184q40 64 60 177q20 112 25 137l182 944h186l-207 -1071q-51 -270 -209 -398t-428 -129q-622 0 -499 629l186 969h186
l-170 -881q-61 -324 2 -430q77 -131 299 -131z" />
    <glyph glyph-name="ubreve" unicode="&#x16d;" horiz-adv-x="1212" 
d="M763 1288q-134 0 -208 81t-41 245h133q-18 -92 18 -141t111 -50q166 0 205 191h137q-33 -164 -127 -245t-228 -81zM487 125q137 0 226 103q88 103 125 294l108 557h182l-210 -1079h-173l37 184h-4q-123 -211 -340 -211q-176 0 -252 115t-32 330l127 661h182l-123 -637
q-18 -92 -18 -145q-4 -172 165 -172z" />
    <glyph glyph-name="Uring" unicode="&#x16e;" horiz-adv-x="1523" 
d="M897 1869q0 -56 26 -88q25 -32 75 -32t81 37t31 93t-26 87t-76 32q-49 1 -80 -36t-31 -93zM1169 2037q57 -56 57 -157t-64 -163q-66 -62 -170 -61t-158 57q-56 57 -56 153t65 162t167 66t159 -57zM702 125q264 0 387 184q40 64 60 177q20 112 25 137l182 944h186
l-207 -1071q-51 -270 -209 -398t-428 -129q-622 0 -499 629l186 969h186l-170 -881q-61 -324 2 -430q77 -131 299 -131z" />
    <glyph glyph-name="uring" unicode="&#x16f;" horiz-adv-x="1212" 
d="M678 1492q0 -120 101 -120q50 0 81 37t31 93q-1 56 -27 87t-75 32t-80 -36t-31 -93zM559 1488q0 96 65 163q65 65 167 65t159 -56q58 -56 58 -157t-66 -163t-168 -61q-104 1 -160 57q-55 56 -55 152zM487 125q137 0 226 103q88 103 125 294l108 557h182l-210 -1079h-173
l37 184h-4q-123 -211 -340 -211q-176 0 -252 115t-32 330l127 661h182l-123 -637q-18 -92 -18 -145q-4 -172 165 -172z" />
    <glyph glyph-name="Uhungarumlaut" unicode="&#x170;" horiz-adv-x="1523" 
d="M758 1714l116 273h183l-187 -273h-112zM1038 1714l117 273h182l-184 -273h-115zM702 125q264 0 387 184q40 64 60 177q20 112 25 137l182 944h186l-207 -1071q-51 -270 -209 -398t-428 -129q-622 0 -499 629l186 969h186l-170 -881q-61 -324 2 -430q77 -131 299 -131z
" />
    <glyph glyph-name="uhungarumlaut" unicode="&#x171;" horiz-adv-x="1212" 
d="M502 1282l172 332h182l-240 -332h-114zM782 1282l172 332h183l-240 -332h-115zM487 125q137 0 226 103q88 103 125 294l108 557h182l-210 -1079h-173l37 184h-4q-123 -211 -340 -211q-176 0 -252 115t-32 330l127 661h182l-123 -637q-18 -92 -18 -145q-4 -172 165 -172z
" />
    <glyph glyph-name="Uogonek" unicode="&#x172;" horiz-adv-x="1523" 
d="M180 391q0 90 19 207l186 969h186l-170 -881q-61 -324 2 -430q77 -131 299 -131q264 0 387 184q40 64 60 177q20 112 25 137l182 944h186l-207 -1071q-54 -279 -197 -387q-126 -95 -310 -131q-93 -18 -137 -62q-44 -43 -44 -96q0 -78 117 -78l-25 -127h-37
q-109 0 -171 39t-62 115q0 119 137 200v4q-135 12 -214 56q-78 43 -117 89q-95 115 -95 273z" />
    <glyph glyph-name="uogonek" unicode="&#x173;" horiz-adv-x="1212" 
d="M438 -27q-176 0 -252 115t-32 330l127 661h182l-123 -637q-18 -92 -18 -145q-4 -172 165 -172q137 0 226 103q88 103 125 294l108 557h182l-210 -1079q-170 -100 -170 -188q0 -70 116 -70l-24 -127h-37q-109 0 -171 39t-63 115q0 145 195 231h-19l37 184h-4
q-123 -211 -340 -211z" />
    <glyph glyph-name="Wcircumflex" unicode="&#x174;" horiz-adv-x="2125" 
d="M1401 1966l158 -272h-154l-102 155h-3l-157 -155h-162l231 272h189zM1208 1364h-4q-31 -100 -104 -256l-520 -1108h-203l-115 1567h182l66 -1084q6 -123 6 -254l-2 -28h4q31 100 103 254l520 1112h213l71 -1084q12 -170 7 -254l-2 -28h4q31 98 102 254l514 1112h188
l-743 -1567h-205l-76 1079q-12 164 -6 254v31z" />
    <glyph glyph-name="wcircumflex" unicode="&#x175;" horiz-adv-x="1605" 
d="M1081 1614l136 -332h-160l-88 209l-162 -209h-168l252 332h190zM252 0l-100 1079h182l43 -706l6 -158h4q45 96 76 160l350 704h184l76 -706l12 -162h5q41 100 69 164l324 704h178l-516 -1079h-191l-75 723l-13 151h-2q-37 -84 -69 -153l-353 -721h-190z" />
    <glyph glyph-name="Ycircumflex" unicode="&#x176;" horiz-adv-x="1310" 
d="M993 1966l158 -272h-154l-102 155h-2l-158 -155h-162l232 272h188zM453 0l133 684l-363 883h209l275 -721h4l573 721h205l-721 -897l-129 -670h-186z" />
    <glyph glyph-name="ycircumflex" unicode="&#x177;" horiz-adv-x="1044" 
d="M834 1614l135 -332h-160l-88 209l-162 -209h-168l252 332h191zM340 8l-168 1071h180l99 -676l20 -167h6q37 76 82 165l340 678h184l-614 -1169q-96 -184 -179 -250t-235 -68q-68 0 -129 19l31 149q143 -39 237 30q56 42 111 153z" />
    <glyph glyph-name="Ydieresis" unicode="&#x178;" horiz-adv-x="1310" 
d="M565 1683l39 203h184l-38 -203h-185zM999 1683l39 203h185l-39 -203h-185zM453 0l133 684l-363 883h209l275 -721h4l573 721h205l-721 -897l-129 -670h-186z" />
    <glyph glyph-name="Zacute" unicode="&#x179;" horiz-adv-x="1304" 
d="M788 1694l170 272h207l-239 -272h-138zM295 1401l33 166h1067l-29 -144l-1100 -1257h873l-31 -166h-1116l26 143l1100 1258h-823z" />
    <glyph glyph-name="zacute" unicode="&#x17a;" horiz-adv-x="1046" 
d="M592 1282l166 332h207l-240 -332h-133zM215 928l31 151h790l-30 -166l-756 -759h618l-28 -154h-832l31 166l752 762h-576z" />
    <glyph glyph-name="Zdotaccent" unicode="&#x17b;" horiz-adv-x="1304" 
d="M778 1714l39 203h191l-39 -203h-191zM295 1401l33 166h1067l-29 -144l-1100 -1257h873l-31 -166h-1116l26 143l1100 1258h-823z" />
    <glyph glyph-name="zdotaccent" unicode="&#x17c;" horiz-adv-x="1046" 
d="M580 1323l38 203h191l-39 -203h-190zM215 928l31 151h790l-30 -166l-756 -759h618l-28 -154h-832l31 166l752 762h-576z" />
    <glyph glyph-name="Zcaron" unicode="&#x17d;" horiz-adv-x="1304" 
d="M782 1694l-166 272h164l107 -156h2l162 156h176l-256 -272h-189zM295 1401l33 166h1067l-29 -144l-1100 -1257h873l-31 -166h-1116l26 143l1100 1258h-823z" />
    <glyph glyph-name="zcaron" unicode="&#x17e;" horiz-adv-x="1046" 
d="M575 1282l-135 332h160l88 -209l162 209h168l-252 -332h-191zM215 928l31 151h790l-30 -166l-756 -759h618l-28 -154h-832l31 166l752 762h-576z" />
    <glyph glyph-name="florin" unicode="&#x192;" horiz-adv-x="768" 
d="M803 1608q74 0 121 -13l-37 -151q-41 10 -107 10t-110 -36t-68 -122l-104 -403h264l-27 -141h-274l-297 -1139h-176l295 1139h-213l26 141h223l113 436q68 279 371 279z" />
    <glyph glyph-name="Aringacute" unicode="&#x1fa;" horiz-adv-x="1478" 
d="M946 2132l170 272h207l-240 -272h-137zM866 1852q0 -56 26 -88t76 -32t81 38q31 36 31 92q-1 116 -103 119q-49 1 -80 -35q-31 -38 -31 -94zM979 2077q101 -1 159 -57t58 -156t-66 -164q-66 -62 -168 -61q-104 1 -159 57t-55 153q0 96 64 162q65 66 167 66zM1110 0
l-76 469h-608l-242 -469h-192l821 1567h217l270 -1567h-190zM889 1382q0 -2 -6 -14q-5 -12 -15 -32t-22 -47q-12 -25 -30 -61t-38 -73l-276 -537h508l-86 537l-31 227h-4z" />
    <glyph glyph-name="aringacute" unicode="&#x1fb;" horiz-adv-x="1105" 
d="M680 1722l170 273h207l-240 -273h-137zM807 1432q-1 56 -27 88q-26 30 -75 31t-80 -35t-31 -94q0 -56 26 -88t76 -32t80 38q31 36 31 92zM707 1647q102 -1 159 -57q58 -56 58 -156t-66 -164q-66 -62 -168 -61q-104 1 -160 57t-55 153q0 96 65 162t167 66zM624 1104
q194 0 286 -118q91 -118 51 -314l-78 -402q-27 -137 78 -129l-27 -149h-19q-102 0 -151 48t-47 132h-6q-125 -188 -338 -188q-141 0 -236 79q-94 80 -94 228q0 270 363 336q100 18 372 18l8 49q23 127 -26 198t-166 71q-205 -1 -225 -179h-185q16 150 131 235t309 85z
M420 131q96 0 194 93t131 257l7 31q-222 0 -318 -18t-150 -68t-54 -127q0 -78 46 -123q48 -45 144 -45z" />
    <glyph glyph-name="AEacute" unicode="&#x1fc;" horiz-adv-x="2052" 
d="M1190 1694l170 272h207l-240 -272h-137zM809 0l90 469h-518l-277 -469h-192l913 1567h1254l-33 -168h-780l-103 -527h723l-33 -163h-720l-105 -541h799l-33 -168h-985zM928 618l151 781h-166q-76 -156 -127 -244l-317 -537h459z" />
    <glyph glyph-name="aeacute" unicode="&#x1fd;" horiz-adv-x="1771" 
d="M936 1282l166 332h207l-240 -332h-133zM936 905q152 201 404 201q134 0 229 -81q94 -81 110 -200t-4 -258l-16 -78h-721q-4 -61 -4 -88q0 -125 59 -207t191 -83q195 0 250 172h176q-41 -147 -158 -229t-289 -81q-283 0 -375 238h-6q-88 -111 -182 -168t-234 -57t-231 78
q-90 78 -90 224q0 148 94 228t269 111q100 18 372 18l8 49q23 127 -26 198t-168 71q-205 0 -225 -179h-185q16 150 131 235t295 85q242 0 324 -199h2zM231 299q1 -80 47 -125t146 -45t192 88q94 88 132 264l6 31q-223 0 -322 -18q-201 -39 -201 -195zM1308 969
q-130 1 -215 -95t-126 -241h540q26 154 -22 245q-47 91 -177 91z" />
    <glyph glyph-name="Oslashacute" unicode="&#x1fe;" horiz-adv-x="1642" 
d="M946 1694l170 272h207l-240 -272h-137zM1571 982q0 -399 -202 -693q-97 -143 -254 -233t-347 -89q-272 0 -436 170l-182 -190h-189l287 303q-82 147 -82 338q0 430 231 716t582 285q250 0 405 -145l162 170h191l-264 -277q98 -153 98 -355zM774 121q158 0 281 87t189 221
q136 272 134 540q0 141 -32 233l-902 -946q103 -135 330 -135zM969 1438q-131 0 -239 -58t-176 -146q-193 -254 -196 -652q0 -115 23 -193l893 938q-104 111 -305 111z" />
    <glyph glyph-name="oslashacute" unicode="&#x1ff;" horiz-adv-x="1136" 
d="M635 1282l166 332h207l-240 -332h-133zM1051 698q0 -351 -192 -568q-61 -71 -155 -114t-202 -43q-188 0 -295 101l-123 -129h-152l207 217q-53 100 -53 218q0 350 194 569q62 71 154 114t201 43q193 0 303 -107l121 127h153l-208 -219q47 -93 47 -209zM508 113
q84 0 150 42q115 74 168 251q44 139 44 286q0 27 -4 72l-553 -580q60 -71 195 -71zM631 969q-96 1 -170 -57t-115 -148q-78 -171 -80 -375q0 -49 6 -88l555 582q-57 86 -196 86z" />
    <glyph glyph-name="Scommaaccent" unicode="&#x218;" horiz-adv-x="1363" 
d="M418 -422l100 281h195l-181 -281h-114zM651 127q155 0 265 81t110 230q0 90 -52 146t-173 102l-185 68q-324 115 -323 376q0 211 152 336q153 125 384 123t359 -118t112 -345h-186q10 141 -65 227q-75 85 -223 85t-245 -73t-98 -208q0 -158 213 -235l176 -64
q186 -66 266 -158t79 -245q0 -219 -161 -353t-410 -133q-250 0 -402 120t-140 372h193q-6 -334 354 -334z" />
    <glyph glyph-name="scommaaccent" unicode="&#x219;" horiz-adv-x="1009" 
d="M205 -422l100 281h195l-181 -281h-114zM554 969q-89 0 -156 -44t-66 -128q0 -113 129 -148l125 -33q164 -42 228 -112t65 -182q0 -164 -117 -256t-300 -92t-303 86q-120 87 -110 266h174q-8 -100 57 -158t173 -57q108 0 179 47t70 139q0 57 -37 96q-38 39 -133 64
l-124 32q-254 68 -254 285q0 158 116 245q117 87 284 87q168 0 274 -78t96 -233h-174q4 84 -52 129t-144 45z" />
    <glyph glyph-name="uni021A" unicode="&#x21a;" horiz-adv-x="1277" 
d="M319 -422l101 281h194l-180 -281h-115zM903 1403l-272 -1403h-189l273 1403h-518l32 164h1219l-33 -164h-512z" />
    <glyph glyph-name="uni021B" unicode="&#x21b;" horiz-adv-x="729" 
d="M117 -422l100 281h195l-181 -281h-114zM442 -16q-317 0 -258 309l125 645h-184l27 135h22q109 0 151 44t72 198l17 78h164l-62 -314h256l-29 -141h-256l-120 -619q-19 -106 7 -145t115 -39l103 10l-31 -149q-68 -12 -119 -12z" />
    <glyph glyph-name="uni0237" unicode="&#x237;" horiz-adv-x="559" 
d="M-92 -250q127 0 153 139l232 1190h182l-235 -1210q-53 -276 -334 -277q-68 0 -131 23l30 149q43 -14 103 -14z" />
    <glyph glyph-name="circumflex" unicode="&#x2c6;" horiz-adv-x="741" 
d="M676 1614l135 -332h-160l-88 209l-162 -209h-168l252 332h191z" />
    <glyph glyph-name="caron" unicode="&#x2c7;" horiz-adv-x="669" 
d="M373 1282l-135 332h159l88 -209l162 209h168l-252 -332h-190z" />
    <glyph glyph-name="breve" unicode="&#x2d8;" horiz-adv-x="747" 
d="M517 1288q-134 0 -208 81t-41 245h133q-18 -92 18 -141t111 -50q166 0 205 191h137q-33 -164 -127 -245t-228 -81z" />
    <glyph glyph-name="dotaccent" unicode="&#x2d9;" horiz-adv-x="374" 
d="M252 1323l39 203h190l-39 -203h-190z" />
    <glyph glyph-name="ring" unicode="&#x2da;" horiz-adv-x="761" 
d="M550 1372q50 0 81 37t31 93t-27 87t-76 32t-80 -36t-31 -93t26 -88t76 -32zM330 1488q0 96 64 163q65 65 167 65q101 0 159 -56t58 -157t-65 -163t-169 -61t-159 57t-55 152z" />
    <glyph glyph-name="ogonek" unicode="&#x2db;" horiz-adv-x="772" 
d="M264 -188q0 -70 117 -70l-25 -127h-37q-109 0 -171 39t-62 116t59 139q60 62 150 93l139 -2q-170 -100 -170 -188z" />
    <glyph glyph-name="tilde" unicode="&#x2dc;" horiz-adv-x="747" 
d="M401 1554q63 0 151 -62t120 -62q78 0 92 129h131q-33 -276 -246 -277q-63 0 -151 62t-119 63q-78 0 -92 -129h-131q33 276 245 276z" />
    <glyph glyph-name="hungarumlaut" unicode="&#x2dd;" horiz-adv-x="698" 
d="M193 1282l172 332h182l-240 -332h-114zM473 1282l172 332h182l-239 -332h-115z" />
    <glyph glyph-name="Wgrave" unicode="&#x1e80;" horiz-adv-x="2125" 
d="M1257 1966l93 -272h-136l-143 272h186zM1208 1364h-4q-31 -100 -104 -256l-520 -1108h-203l-115 1567h182l66 -1084q6 -123 6 -254l-2 -28h4q31 100 103 254l520 1112h213l71 -1084q12 -170 7 -254l-2 -28h4q31 98 102 254l514 1112h188l-743 -1567h-205l-76 1079
q-12 164 -6 254v31z" />
    <glyph glyph-name="wgrave" unicode="&#x1e81;" horiz-adv-x="1605" 
d="M858 1614l143 -332h-133l-209 332h199zM252 0l-100 1079h182l43 -706l6 -158h4q45 96 76 160l350 704h184l76 -706l12 -162h5q41 100 69 164l324 704h178l-516 -1079h-191l-75 723l-13 151h-2q-37 -84 -69 -153l-353 -721h-190z" />
    <glyph glyph-name="Wacute" unicode="&#x1e82;" horiz-adv-x="2125" 
d="M1190 1694l170 272h207l-240 -272h-137zM1208 1364h-4q-31 -100 -104 -256l-520 -1108h-203l-115 1567h182l66 -1084q6 -123 6 -254l-2 -28h4q31 100 103 254l520 1112h213l71 -1084q12 -170 7 -254l-2 -28h4q31 98 102 254l514 1112h188l-743 -1567h-205l-76 1079
q-12 164 -6 254v31z" />
    <glyph glyph-name="wacute" unicode="&#x1e83;" horiz-adv-x="1605" 
d="M872 1282l166 332h207l-239 -332h-134zM252 0l-100 1079h182l43 -706l6 -158h4q45 96 76 160l350 704h184l76 -706l12 -162h5q41 100 69 164l324 704h178l-516 -1079h-191l-75 723l-13 151h-2q-37 -84 -69 -153l-353 -721h-190z" />
    <glyph glyph-name="Wdieresis" unicode="&#x1e84;" horiz-adv-x="2125" 
d="M961 1683l38 203h185l-39 -203h-184zM1395 1683l39 203h184l-39 -203h-184zM1208 1364h-4q-31 -100 -104 -256l-520 -1108h-203l-115 1567h182l66 -1084q6 -123 6 -254l-2 -28h4q31 100 103 254l520 1112h213l71 -1084q12 -170 7 -254l-2 -28h4q31 98 102 254l514 1112
h188l-743 -1567h-205l-76 1079q-12 164 -6 254v31z" />
    <glyph glyph-name="wdieresis" unicode="&#x1e85;" horiz-adv-x="1605" 
d="M666 1323l39 203h184l-39 -203h-184zM1059 1323l39 203h184l-39 -203h-184zM252 0l-100 1079h182l43 -706l6 -158h4q45 96 76 160l350 704h184l76 -706l12 -162h5q41 100 69 164l324 704h178l-516 -1079h-191l-75 723l-13 151h-2q-37 -84 -69 -153l-353 -721h-190z" />
    <glyph glyph-name="Ygrave" unicode="&#x1ef2;" horiz-adv-x="1310" 
d="M864 1966l92 -272h-135l-143 272h186zM453 0l133 684l-363 883h209l275 -721h4l573 721h205l-721 -897l-129 -670h-186z" />
    <glyph glyph-name="ygrave" unicode="&#x1ef3;" horiz-adv-x="1044" 
d="M612 1614l144 -332h-133l-209 332h198zM340 8l-168 1071h180l99 -676l20 -167h6q37 76 82 165l340 678h184l-614 -1169q-96 -184 -179 -250t-235 -68q-68 0 -129 19l31 149q143 -39 237 30q56 42 111 153z" />
    <glyph glyph-name="uni2009" unicode="&#x2009;" horiz-adv-x="102" 
 />
    <glyph glyph-name="endash" unicode="&#x2013;" horiz-adv-x="1081" 
d="M137 598l29 145h850l-29 -145h-850z" />
    <glyph glyph-name="emdash" unicode="&#x2014;" horiz-adv-x="1798" 
d="M137 598l29 145h1567l-29 -145h-1567z" />
    <glyph glyph-name="quoteleft" unicode="&#x2018;" horiz-adv-x="458" 
d="M553 1567l-152 -451h-221l246 451h127z" />
    <glyph glyph-name="quoteright" unicode="&#x2019;" horiz-adv-x="458" 
d="M217 1114l152 453h223l-246 -453h-129z" />
    <glyph glyph-name="quotesinglbase" unicode="&#x201a;" horiz-adv-x="458" 
d="M-43 -231l149 452h224l-244 -452h-129z" />
    <glyph glyph-name="quotedblleft" unicode="&#x201c;" horiz-adv-x="792" 
d="M553 1567l-152 -451h-221l246 451h127zM887 1567l-152 -451h-223l246 451h129z" />
    <glyph glyph-name="quotedblright" unicode="&#x201d;" horiz-adv-x="811" 
d="M217 1114l152 453h223l-246 -453h-129zM549 1114l153 453h222l-246 -453h-129z" />
    <glyph glyph-name="quotedblbase" unicode="&#x201e;" horiz-adv-x="792" 
d="M-43 -231l149 452h224l-244 -452h-129zM289 -231l151 452h222l-244 -452h-129z" />
    <glyph glyph-name="dagger" unicode="&#x2020;" horiz-adv-x="595" 
d="M502 1223l-121 -629h-143l120 629h-186l25 135h188l41 209h143l-41 -209h187l-25 -135h-188z" />
    <glyph glyph-name="daggerdbl" unicode="&#x2021;" horiz-adv-x="598" 
d="M422 803l-41 -209h-143l41 209h-189l27 135h188l53 285h-186l25 135h188l41 209h143l-41 -209h189l-25 -135h-190l-53 -285h188l-27 -135h-188z" />
    <glyph glyph-name="bullet" unicode="&#x2022;" horiz-adv-x="905" 
d="M449 854q95 0 155 -62t62 -162q0 -100 -64 -160q-64 -62 -159 -62t-155 61t-60 159t62 162q64 64 159 64z" />
    <glyph glyph-name="ellipsis" unicode="&#x2026;" horiz-adv-x="1431" 
d="M18 0l48 250h243l-47 -250h-244zM496 0l47 250h243l-47 -250h-243zM973 0l47 250h244l-47 -250h-244z" />
    <glyph glyph-name="perthousand" unicode="&#x2030;" horiz-adv-x="2480" 
d="M1204 117q66 0 113 35q110 82 110 300q0 58 -34 103q-35 45 -114 45t-132 -57q-90 -97 -90 -261q0 -165 147 -165zM2015 117q66 0 113 35q110 82 110 290q0 68 -34 113q-35 45 -114 45t-132 -57q-90 -97 -90 -261q0 -165 147 -165zM1202 -14q-152 0 -228 81t-77 207
q0 180 97 316t292 135q152 0 228 -81t77 -206q0 -169 -86 -305q-43 -67 -122 -107t-181 -40zM2013 -14q-153 0 -229 81t-76 207q0 180 97 316t292 135q152 0 229 -81t76 -206q0 -169 -86 -305q-43 -67 -122 -107t-181 -40zM469 907q66 0 113 35q110 82 110 302q0 58 -35 102
q-35 45 -113 45q-78 1 -132 -57q-90 -98 -90 -263q0 -164 147 -164zM162 1065q0 180 97 315t292 136q153 0 229 -81t76 -206q0 -171 -86 -305q-43 -68 -122 -108t-181 -40q-153 0 -229 81t-76 208zM76 -82l1423 1681h191l-1426 -1681h-188z" />
    <glyph glyph-name="uni2032" unicode="&#x2032;" horiz-adv-x="428" 
d="M195 1114l104 453h221l-198 -453h-127z" />
    <glyph glyph-name="uni2033" unicode="&#x2033;" horiz-adv-x="759" 
d="M195 1114l104 453h221l-198 -453h-127zM524 1114l107 453h221l-197 -453h-131z" />
    <glyph glyph-name="guilsinglleft" unicode="&#x2039;" horiz-adv-x="679" 
d="M442 950h179l-310 -422l131 -411h-168l-143 428z" />
    <glyph glyph-name="guilsinglright" unicode="&#x203a;" horiz-adv-x="679" 
d="M246 117h-178l309 422l-131 411h168l143 -428z" />
    <glyph glyph-name="fraction" unicode="&#x2044;" horiz-adv-x="542" 
d="M-485 -82l1421 1681h168l-1421 -1681h-168z" />
    <glyph glyph-name="Euro" unicode="&#x20ac;" horiz-adv-x="1214" 
d="M572 -33q-204 0 -324 136t-113 411h-174l29 145h155q17 108 37 187h-159l28 145h172q182 549 635 549q188 0 301 -130t84 -329h-178q14 150 -47 229t-191 79q-287 0 -417 -398h467l-29 -145h-479q-15 -50 -37 -187h483l-29 -145h-469q-14 -393 285 -393q121 0 218 89
t130 214h178q-55 -205 -203 -331q-149 -126 -353 -126z" />
    <glyph glyph-name="trademark" unicode="&#x2122;" horiz-adv-x="1312" 
d="M879 1423l-95 -483h-106l121 627h172l49 -365l4 -94h6q10 39 39 94l197 365h182l-121 -627h-117l95 483h-9q-23 -57 -59 -127l-190 -356h-99l-53 354l-8 129h-8zM381 940h-117l103 526h-189l19 101h305zM502 1567h190l-18 -101h-191z" />
    <glyph glyph-name="onethird" unicode="&#x2153;" horiz-adv-x="1755" 
d="M1319 391h-98l24 113h98q74 0 122 42t48 104t-38 94q-39 32 -103 32q-160 0 -180 -151h-143q8 117 97 193t226 75q137 0 214 -57q77 -58 77 -154t-54 -156t-139 -82v-4q142 -39 142 -174t-102 -210q-102 -74 -250 -74q-150 0 -231 72t-73 198h146q0 -152 168 -152
q88 0 139 45t51 115q0 131 -141 131zM-27 -82l1422 1681h168l-1422 -1681h-168zM246 1415q90 0 141 37q47 39 68 115h131l-185 -883h-149l129 616h-184l22 115h27z" />
    <glyph glyph-name="twothirds" unicode="&#x2154;" horiz-adv-x="1945" 
d="M1509 391h-98l25 113h98q74 0 122 42t48 104t-39 94t-102 32q-160 0 -181 -151h-143q8 117 97 193q88 76 226 75q138 0 215 -57q77 -58 77 -154t-55 -156q-54 -60 -138 -82v-4q141 -39 141 -174t-101 -210q-101 -74 -251 -74t-230 72q-81 72 -73 198h145q0 -152 168 -152
q88 0 139 45t52 115q-1 131 -142 131zM213 -82l1421 1681h168l-1421 -1681h-168zM556 1577q134 0 209 -57q75 -56 75 -160t-64 -182t-192 -177l-252 -190v-2h422l-25 -125h-649l18 98l377 299q10 7 36 27t53 42q26 22 36 32t26 25q15 15 21 25q5 10 21 34t16 76t-35 84
t-96 32q-168 0 -188 -178h-142q7 139 103 218t230 79z" />
    <glyph glyph-name="oneeighth" unicode="&#x215b;" horiz-adv-x="1771" 
d="M1124 228q0 -136 172 -136q82 0 131 47t49 115t-48 103q-48 34 -128 34t-128 -46q-48 -47 -48 -117zM1526 651q0 129 -142 129q-66 0 -110 -45q-43 -45 -43 -107t36 -96q37 -34 105 -32q68 0 111 43t43 108zM1391 893q133 0 211 -58q78 -59 78 -155t-51 -154
q-50 -58 -130 -82v-4q133 -45 133 -176t-98 -207q-98 -75 -254 -75t-234 61t-77 163q0 102 58 164q58 64 157 87v4q-106 45 -106 165t90 194t223 73zM-6 -82l1421 1681h168l-1421 -1681h-168zM246 1415q90 0 141 37q47 39 68 115h131l-185 -883h-149l129 616h-184l22 115h27
z" />
    <glyph glyph-name="threeeighths" unicode="&#x215c;" horiz-adv-x="1941" 
d="M1294 238q0 -136 172 -136q82 0 131 48t49 115q0 69 -48 103t-128 34t-128 -47t-48 -117zM1696 662q0 130 -142 129q-66 1 -110 -45q-43 -46 -43 -108q1 -128 141 -128q68 0 111 43t43 109zM1561 903q133 0 211 -58q78 -59 78 -155t-51 -154q-50 -58 -130 -81v-4
q133 -45 133 -177t-98 -206q-98 -76 -254 -76t-234 61t-77 163q0 102 58 164q58 64 157 87v4q-106 45 -106 165t90 194t223 73zM211 -82l1421 1681h168l-1421 -1681h-168zM516 1075h-98l24 113h99q74 0 122 42t48 104t-39 94t-103 32q-160 0 -180 -151h-143q8 117 97 193
t227 75q138 0 214 -57q76 -58 76 -154t-54 -156t-138 -82v-4q141 -39 141 -174t-101 -210q-100 -74 -250 -74t-232 71q-81 72 -72 199h145q0 -152 168 -152q88 0 139 45t51 115q0 131 -141 131z" />
    <glyph glyph-name="fiveeighths" unicode="&#x215d;" horiz-adv-x="1933" 
d="M1286 228q0 -136 172 -136q82 0 131 47t49 115t-48 103q-48 34 -128 34t-128 -46q-48 -47 -48 -117zM1393 628q0 -130 140 -128q69 0 112 43t43 108q0 129 -144 129q-66 0 -108 -45t-43 -107zM1553 893q133 0 211 -58q78 -59 77 -155q0 -96 -50 -154t-130 -82v-4
q133 -45 133 -176t-98 -207q-98 -75 -254 -75t-234 61t-78 163t58 164q58 64 158 87v4q-106 45 -106 165t90 194t223 73zM201 -82l1421 1681h168l-1421 -1681h-168zM664 1008q0 139 -144 141q-100 0 -164 -74h-133l139 490h510l-26 -127h-387l-72 -246h4q74 74 190 74
t178 -67t62 -175q0 -158 -105 -258q-106 -100 -264 -100q-307 0 -296 258h149q-2 -64 40 -100t106 -36q97 0 155 65t58 155z" />
    <glyph glyph-name="seveneighths" unicode="&#x215e;" horiz-adv-x="1787" 
d="M1141 228q0 -136 172 -136q82 0 131 47t49 115t-48 103q-48 34 -128 34t-128 -46q-48 -47 -48 -117zM1542 651q0 129 -142 129q-66 0 -110 -45q-43 -45 -43 -107t36 -96q37 -34 105 -32q68 0 111 43t43 108zM1094 626q0 120 90 194t223 73q133 0 211 -58q78 -59 78 -155
t-50 -154t-130 -82v-4q133 -45 133 -176q-1 -131 -99 -207q-98 -75 -254 -75t-234 61t-77 163q0 102 58 164q58 64 157 87v4q-106 45 -106 165zM8 -82l1422 1681h167l-1421 -1681h-168zM158 684l510 752h-439l27 129h618l-20 -92l-532 -789h-164z" />
    <glyph glyph-name="minus" unicode="&#x2212;" horiz-adv-x="1255" 
d="M182 651l33 162h930l-33 -162h-930z" />
    <glyph glyph-name="approxequal" unicode="&#x2248;" horiz-adv-x="929" 
d="M657 582q43 0 71 26t54 99h129q-23 -115 -97 -191t-166 -76q-93 0 -198 60q-106 60 -150 61t-73 -27t-49 -98h-129q23 117 94 192q72 75 189 74q74 0 178 -60t147 -60zM397 1034q74 0 177 -60q102 -60 146 -60t72 26q28 27 54 98h129q-23 -114 -95 -190t-166 -76t-200 60
t-150 61q-44 0 -73 -28t-49 -97h-129q23 118 95 192t189 74z" />
    <glyph glyph-name="notequal" unicode="&#x2260;" horiz-adv-x="1325" 
d="M588 469l-166 -246h-162l166 246h-244l31 156h319l146 215h-424l31 155h499l166 246h162l-166 -246h268l-30 -155h-344l-146 -215h449l-31 -156h-524z" />
    <glyph glyph-name="lessequal" unicode="&#x2264;" horiz-adv-x="1239" 
d="M967 0h-930l33 158h929zM1020 268l-850 469l25 119l1028 455l-31 -185l-791 -342l652 -352z" />
    <glyph glyph-name="greaterequal" unicode="&#x2265;" horiz-adv-x="1239" 
d="M997 0h-929l32 158h930zM317 1294l850 -469l-24 -118l-1028 -455l30 186l791 342l-651 353z" />
    <glyph glyph-name="uni24C5" unicode="&#x24c5;" horiz-adv-x="1857" 
d="M1006 776q178 0 192 162q6 76 -40 118t-128 42h-112l-64 -322h152zM1049 1204q129 0 209 -66t74 -199q-7 -132 -95 -203t-231 -70h-170l-58 -299h-139l158 837h252zM961 84q289 0 483 200t192 494q0 294 -193 496q-195 201 -483 201t-481 -200t-193 -496q0 -295 194 -495
q192 -200 481 -200zM154 778q0 346 230 580t576 233q346 0 578 -233q231 -232 231 -578t-231 -579t-577 -233q-347 0 -577 232t-230 578z" />
    <glyph glyph-name="quotedblright.sc" horiz-adv-x="811" 
d="M168 866l151 453h224l-246 -453h-129zM500 866l153 453h221l-245 -453h-129z" />
    <glyph glyph-name="Ibreve.sc" horiz-adv-x="555" 
d="M478 1473q-134 1 -208 81t-41 244h133q-18 -92 18 -141t112 -49q164 0 204 190h138q-33 -164 -127 -245q-95 -80 -229 -80zM82 0l256 1319h182l-258 -1319h-180z" />
    <glyph glyph-name="exclamdown.uc" horiz-adv-x="479" 
d="M309 1567h238l-45 -242h-238zM418 1081l-201 -1128h-205l252 1128h154z" />
    <glyph glyph-name="hyphen.uc" horiz-adv-x="796" 
d="M156 680l32 166h562l-33 -166h-561z" />
    <glyph glyph-name="endash.uc" horiz-adv-x="1081" 
d="M156 690l28 146h850l-28 -146h-850z" />
    <glyph glyph-name="emdash.uc" horiz-adv-x="1798" 
d="M156 690l28 146h1567l-29 -146h-1566z" />
    <glyph glyph-name="guilsinglleft.uc" horiz-adv-x="700" 
d="M465 1073h178l-309 -422l131 -411h-168l-143 428z" />
    <glyph glyph-name="guilsinglright.uc" horiz-adv-x="679" 
d="M246 240h-178l309 422l-131 411h168l143 -428z" />
    <glyph glyph-name="guillemotleft.uc" horiz-adv-x="1114" 
d="M465 1073h178l-309 -422l131 -411h-168l-143 428zM879 1073h178l-309 -422l131 -411h-168l-144 428z" />
    <glyph glyph-name="guillemotright.uc" horiz-adv-x="1093" 
d="M659 240h-178l310 422l-132 411h168l144 -428zM246 240h-178l309 422l-131 411h168l143 -428z" />
    <glyph glyph-name="parenleft.uc" horiz-adv-x="667" 
d="M471 -205h-137q-43 109 -69 183t-49 207q-24 132 -23 274q0 612 483 1216h149q-221 -307 -337 -605q-237 -609 -17 -1275z" />
    <glyph glyph-name="parenright.uc" horiz-adv-x="667" 
d="M539 1012q0 -612 -484 -1217h-149q221 307 337 605q237 609 17 1275h137q43 -109 69 -183t50 -207q24 -132 23 -273z" />
    <glyph glyph-name="space_uni0326" horiz-adv-x="755" 
d="M266 -422l101 281h194l-180 -281h-115z" />
    <glyph glyph-name="grave.uc" horiz-adv-x="751" 
d="M389 1966l92 -272h-135l-143 272h186z" />
    <glyph glyph-name="bracketleft.uc" horiz-adv-x="731" 
d="M66 -205l366 1880h436l-26 -137h-271l-313 -1606h270l-26 -137h-436z" />
    <glyph glyph-name="bracketright.uc" horiz-adv-x="794" 
d="M729 1675l-367 -1880h-436l27 137h270l314 1606h-271l27 137h436z" />
    <glyph glyph-name="braceleft.uc" horiz-adv-x="712" 
d="M133 678h-49l31 151h49q88 0 127 32t55 118l82 432q30 161 138 225t315 47l-25 -127q-141 8 -199 -38q-57 -47 -79 -168l-76 -392q-16 -92 -53 -139t-138 -61l-2 -8q87 -25 107 -98t-4 -152l-74 -367q-25 -125 17 -163t184 -56l-27 -127q-203 6 -287 86t-47 260l76 379
q18 90 -11 128q-30 38 -110 38z" />
    <glyph glyph-name="braceright.uc" horiz-adv-x="790" 
d="M657 793h50l-31 -152h-49q-88 0 -127 -32t-56 -117l-82 -433q-30 -161 -138 -225t-314 -47l24 127q141 -8 199 39q57 47 80 168l66 342q12 67 29 113q18 46 62 90t109 47l2 8q-86 25 -106 97t4 153l74 366q25 125 -17 163t-184 56l27 127q205 -6 287 -89t44 -271
l-73 -365q-18 -90 11 -128t109 -37z" />
    <glyph glyph-name="slash.uc" horiz-adv-x="1153" 
d="M-127 -152l1210 1786h179l-1201 -1786h-188z" />
    <glyph glyph-name="backslash.uc" horiz-adv-x="1073" 
d="M766 -152l-524 1786h153l535 -1786h-164z" />
    <glyph glyph-name="bar.uc" horiz-adv-x="565" 
d="M63 -152l347 1786h145l-346 -1786h-146z" />
    <glyph glyph-name="acute.uc" horiz-adv-x="751" 
d="M172 1694l170 272h207l-240 -272h-137z" />
    <glyph glyph-name="at.uc" horiz-adv-x="2136" 
d="M821 606q-1 -92 47 -152t144 -59q96 0 175 78t103 197l19 88q10 70 3 136q-6 66 -56 115q-50 48 -132 48q-143 0 -223 -138t-80 -313zM1559 268q-242 0 -269 181h-6q-115 -186 -317 -187q-147 0 -232 94q-84 94 -88 250q-6 220 124 404t345 184q100 0 166 -47t88 -125h4
l27 139h153l-108 -547q-50 -220 148 -220q102 0 191 115q89 116 89 365q0 288 -192 474t-518 186q-328 0 -576 -258t-248 -612t196 -561q196 -205 518 -205t537 172l74 -103q-246 -199 -632 -199q-385 0 -623 242t-238 654t296 706q296 293 692 293t636 -214
q238 -214 238 -558q0 -168 -45 -295q-76 -216 -272 -295q-78 -33 -158 -33z" />
    <glyph glyph-name="f.short" horiz-adv-x="716" 
d="M745 1620q74 0 121 -12l-28 -152q-41 10 -108 10q-68 0 -110 -36t-61 -121l-45 -230h248l-27 -141h-248l-180 -938h-180l182 938h-184l29 141h182l51 262q53 279 358 279z" />
    <glyph glyph-name="f_f.short" horiz-adv-x="1392" 
d="M743 1608q76 0 121 -13l-28 -151q-41 10 -108 10t-110 -36t-61 -122l-41 -217h496l51 262q53 279 358 279q74 0 121 -12l-29 -152q-41 10 -107 10t-110 -36q-43 -36 -61 -121l-45 -230h248l-27 -141h-248l-180 -938h-180l182 938h-498l-180 -938h-180l182 938h-184
l29 141h182l49 250q53 279 358 279z" />
    <glyph glyph-name="macron.uc" horiz-adv-x="755" 
d="M68 1745l30 149h586l-31 -149h-585z" />
    <glyph glyph-name="circumflex.uc" horiz-adv-x="755" 
d="M483 1966l158 -272h-154l-102 155h-2l-158 -155h-162l232 272h188z" />
    <glyph glyph-name="caron.uc" horiz-adv-x="755" 
d="M262 1694l-166 272h164l107 -156h2l161 156h177l-256 -272h-189z" />
    <glyph glyph-name="breve.uc" horiz-adv-x="755" 
d="M379 1835q147 0 199 152h139q-39 -145 -131 -217t-218 -70q-126 0 -199 72q-72 72 -54 215h133q-4 -74 30 -113t101 -39z" />
    <glyph glyph-name="caron.alt" horiz-adv-x="755" 
d="M262 1282l98 332h172l-157 -332h-113z" />
    <glyph glyph-name="dotaccent.uc" horiz-adv-x="755" 
d="M262 1714l39 203h191l-39 -203h-191z" />
    <glyph glyph-name="ring.uc" horiz-adv-x="755" 
d="M380 1749q50 0 81 37t31 93t-27 87t-76 32t-80 -36t-31 -93t26 -88t76 -32zM160 1866q0 96 64 162q65 66 167 66q101 0 159 -57q58 -56 58 -157t-65 -163t-169 -61t-159 57q-55 57 -55 153z" />
    <glyph glyph-name="sterling.tab" 
d="M817 1540q221 0 329 -128t66 -329h-180q51 305 -225 306q-178 0 -254 -127t-47 -316l20 -153h443l-29 -146h-395q14 -154 -29 -257t-166 -191l-43 -31v-4h754l-31 -164h-989l27 141l84 60q149 108 182 179q34 71 34 138q0 68 -12 129h-211l29 146h158l-17 104
q-45 279 91 461t411 182z" />
    <glyph glyph-name="tilde.uc" horiz-adv-x="755" 
d="M500 1698q-74 0 -151 61t-109 62q-76 0 -115 -127h-137q24 120 90 198t166 78t164 -62t105 -62q42 -1 68 30t46 98h139q-22 -120 -88 -198t-178 -78z" />
    <glyph glyph-name="cent.tab" 
d="M492 137l159 821q-98 -26 -169 -118q-130 -168 -130 -424q1 -218 140 -279zM172 416q0 246 134 452t374 234l39 198h145l-39 -200q131 -20 203 -108t74 -238h-170q6 166 -135 204l-162 -841q109 9 168 79t71 156h177q-35 -174 -156 -274t-289 -105l-41 -211h-145l43 226
q-143 38 -217 150t-74 278z" />
    <glyph glyph-name="plus.tab" 
d="M750 653l-78 -393h-176l77 393h-372l28 158h375l76 391h176l-76 -391h373l-29 -158h-374z" />
    <glyph glyph-name="minus.tab" 
d="M199 651l32 162h930l-33 -162h-929z" />
    <glyph glyph-name="multiply.tab" 
d="M250 254l-94 125l397 338l-268 336l127 108l262 -340l399 353l103 -123l-408 -344l274 -349l-127 -108l-264 350z" />
    <glyph glyph-name="divide.tab" 
d="M672 246h-191l39 198h191zM193 651l32 162h930l-33 -162h-929zM631 1020l39 199h190l-39 -199h-190z" />
    <glyph glyph-name="equal.tab" 
d="M1087 469h-929l30 156h930zM229 840l31 155h930l-31 -155h-930z" />
    <glyph glyph-name="less.tab" 
d="M1001 158l-849 469l24 118l1028 455l-30 -184l-791 -342l651 -352z" />
    <glyph glyph-name="greater.tab" 
d="M283 1206l850 -469l-25 -119l-1028 -454l31 186l790 342l-651 352z" />
    <glyph glyph-name="florin.tab" 
d="M1038 1608q76 0 121 -13l-37 -151q-40 10 -106 10q-137 0 -178 -158l-105 -403h264l-26 -141h-275l-297 -1139h-176l295 1139h-213l27 141h223l113 436q68 279 370 279z" />
    <glyph glyph-name="plusminus.tab" 
d="M63 0l29 158h924l-29 -158h-924zM750 715l-76 -393h-176l75 393h-372l30 157h373l76 392h176l-76 -392h375l-31 -157h-374z" />
    <glyph glyph-name="notequal.tab" 
d="M565 469l-166 -246h-161l165 246h-243l30 156h320l145 215h-424l31 155h500l166 246h162l-166 -246h268l-31 -155h-344l-145 -215h448l-30 -156h-525z" />
    <glyph glyph-name="approxequal.tab" 
d="M794 582q44 0 72 26t54 99h129q-23 -115 -97 -191t-167 -76t-198 60t-149 61t-74 -27q-28 -28 -49 -98h-129q23 117 95 192t188 74q74 0 178 -60q103 -60 147 -60zM535 1034q74 0 177 -60t146 -60t71 26q28 27 54 98h129q-24 -114 -96 -190t-165 -76t-199 60t-151 61
q-44 0 -73 -28t-49 -97h-129q24 118 96 192t189 74z" />
    <glyph glyph-name="lessequal.tab" 
d="M991 0h-930l33 158h930zM1044 268l-849 469l24 119l1028 455l-30 -185l-791 -342l651 -352z" />
    <glyph glyph-name="greaterequal.tab" 
d="M993 0h-930l33 158h930zM313 1294l850 -469l-24 -118l-1028 -455l30 186l791 342l-651 353z" />
    <glyph glyph-name="period.tab" horiz-adv-x="614" 
d="M137 0l47 250h244l-47 -250h-244z" />
    <glyph glyph-name="comma.tab" horiz-adv-x="614" 
d="M45 -240l162 492h235l-268 -492h-129z" />
    <glyph glyph-name="colon.tab" horiz-adv-x="614" 
d="M340 0h-248l47 252h248zM252 827l49 252h248l-49 -252h-248z" />
    <glyph glyph-name="semicolon.tab" horiz-adv-x="614" 
d="M129 -240h-127l160 492h235zM266 827l49 252h248l-49 -252h-248z" />
    <glyph glyph-name="hungarumlaut.uc" horiz-adv-x="755" 
d="M96 1714l117 273h182l-186 -273h-113zM377 1714l117 273h182l-184 -273h-115z" />
    <glyph glyph-name="currency.tab" 
d="M244 708q0 110 53 199l-162 162l117 117l160 -162q90 55 200 55t203 -59l168 172l113 -113l-172 -170q55 -89 55 -199t-55 -198l166 -164l-117 -117l-164 166q-88 -53 -199 -53t-198 53l-166 -168l-113 113l168 166q-57 90 -57 200zM383 711q0 -106 63 -176
q62 -70 164 -70t166 70q63 70 64 176q0 106 -64 177q-64 70 -164 70q-102 0 -166 -70q-63 -71 -63 -177z" />
    <glyph glyph-name="percent.tab" horiz-adv-x="1843" 
d="M1288 117q66 0 113 35q77 57 104 193q10 50 11 97q0 158 -144 158q-80 0 -134 -56q-93 -96 -93 -262q0 -165 143 -165zM1282 -14q-150 0 -226 78t-75 200q0 176 105 318t296 143q152 0 227 -78t74 -198q0 -179 -104 -321t-297 -142zM553 907q66 0 113 35q77 58 104 194
q10 50 10 97q0 158 -143 158q-80 -1 -134 -57q-93 -97 -93 -262t143 -165zM246 1055q0 176 105 318t296 143q153 0 227 -78t74 -199q0 -180 -104 -321t-297 -142q-149 0 -225 78t-76 201zM170 -82l1423 1681h191l-1426 -1681h-188z" />
    <glyph glyph-name="perthousand.tab" horiz-adv-x="2457" 
d="M1067 268q0 -72 33 -112t91 -41q156 0 198 232q8 50 8 105q0 54 -33 100q-34 46 -102 46t-116 -59t-64 -129t-15 -142zM1967 115q156 0 198 232q8 50 8 105q0 54 -33 100q-34 46 -102 46t-116 -59t-63 -129t-15 -142t32 -112q33 -40 91 -41zM905 260q0 121 34 216
t124 169t220 76t201 -75t75 -212q2 -76 -19 -152q-76 -296 -376 -296q-114 0 -187 76q-72 76 -72 198zM1681 260q0 121 34 216t124 169t220 76t201 -75t75 -212q2 -76 -19 -152q-76 -296 -376 -296q-114 0 -187 76q-72 76 -72 198zM371 1060q0 -72 33 -112q33 -41 91 -41
t103 35q102 79 102 303q0 55 -32 101q-33 45 -102 45t-116 -60q-79 -98 -79 -271zM466 778q-114 0 -186 77t-71 198q0 121 34 216t124 169t220 76q131 2 201 -76q70 -76 74 -226t-82 -282q-97 -152 -314 -152zM84 -82l1423 1681h191l-1426 -1681h-188z" />
    <glyph glyph-name="idotaccent" horiz-adv-x="559" 
d="M84 0l209 1079h182l-209 -1079h-182zM336 1325l39 199h190l-39 -199h-190z" />
    <glyph glyph-name="A.sc" horiz-adv-x="1298" 
d="M948 0l-59 367h-522l-191 -367h-188l698 1319h213l240 -1319h-191zM758 1141q0 -4 -14 -31q-14 -26 -30 -64q-17 -38 -48 -100l-224 -432h422l-78 430q-16 84 -24 174v23h-4z" />
    <glyph glyph-name="AE.sc" horiz-adv-x="1826" 
d="M737 0l72 367h-424l-235 -367h-185l844 1319h1014l-31 -162h-647l-82 -414h600l-31 -159h-600l-84 -422h664l-31 -162h-844zM838 514l127 643h-78q-8 -12 -41 -66t-49 -79l-318 -498h359z" />
    <glyph glyph-name="B.sc" horiz-adv-x="1253" 
d="M602 147q150 0 243 66t93 209q0 203 -262 203h-289l-96 -478h311zM694 762q293 0 293 242q0 168 -213 167h-280l-82 -409h282zM602 0h-520l258 1319h451q174 0 275 -78t101 -221q0 -254 -264 -322v-4q101 -20 159 -96t58 -182q0 -207 -145 -312q-146 -104 -373 -104z" />
    <glyph glyph-name="C.sc" horiz-adv-x="1320" 
d="M806 1188q-130 0 -236 -69q-177 -115 -244 -405q-27 -116 -27 -250t81 -237q81 -102 244 -103t256 81t126 217h184q-43 -211 -194 -330t-378 -119q-227 -1 -365 137t-138 368t81 423q80 193 244 315t378 121q214 0 330 -105q115 -106 107 -321h-180q4 133 -67 205
q-72 72 -202 72z" />
    <glyph glyph-name="D.sc" horiz-adv-x="1347" 
d="M557 154q131 0 231 53t154 129q53 76 96 200t43 292q0 169 -99 253t-273 84h-217l-203 -1011h268zM725 1319q241 0 393 -124t152 -372q0 -363 -194 -593t-564 -230h-430l256 1319h387z" />
    <glyph glyph-name="Dcroat.sc" horiz-adv-x="1347" 
d="M557 154q131 0 231 53t154 129q53 76 96 200t43 292q0 169 -99 253t-273 84h-217l-84 -424h350l-29 -151h-352l-88 -436h268zM512 0h-430l115 590h-146l31 151h143l113 578h387q241 0 393 -124t152 -372q0 -363 -194 -593t-564 -230z" />
    <glyph glyph-name="E.sc" horiz-adv-x="1171" 
d="M82 0l258 1319h827l-28 -158h-647l-82 -420h598l-29 -155h-600l-84 -428h661l-30 -158h-844z" />
    <glyph glyph-name="Eng.sc" horiz-adv-x="1386" 
d="M629 -322h-113l31 158h86q121 0 181 32t89 101l-385 959l-47 147h-4l-213 -1075h-172l258 1319h211l367 -924q32 -88 43 -149h4l215 1073h172l-236 -1200l-16 -88q-35 -180 -138 -267q-104 -86 -333 -86z" />
    <glyph glyph-name="Eth.sc" horiz-adv-x="1347" 
d="M557 154q131 0 231 53t154 129q53 76 96 200t43 292q0 169 -99 253t-273 84h-217l-84 -424h350l-29 -151h-352l-88 -436h268zM512 0h-430l115 590h-146l31 151h143l113 578h387q241 0 393 -124t152 -372q0 -363 -194 -593t-564 -230z" />
    <glyph glyph-name="F.sc" horiz-adv-x="1075" 
d="M371 549l-107 -549h-182l258 1319h784l-30 -162h-602l-91 -455h555l-28 -153h-557z" />
    <glyph glyph-name="G.sc" horiz-adv-x="1370" 
d="M1266 954h-176q-2 112 -69 176t-189 64t-219 -51t-153 -127t-94 -175q-65 -169 -65 -340q0 -170 79 -274t252 -104q173 -1 291 111t146 264l6 32h-373l31 146h539l-131 -676h-154l41 207h-6q-133 -233 -416 -234q-244 1 -368 145t-125 381q0 237 105 447q194 391 652 391
q178 0 286 -95q110 -95 110 -288z" />
    <glyph glyph-name="H.sc" horiz-adv-x="1378" 
d="M377 588l-115 -588h-180l256 1319h182l-112 -578h641l112 578h182l-258 -1319h-182l115 588h-641z" />
    <glyph glyph-name="I.sc" horiz-adv-x="555" 
d="M82 0l256 1319h182l-258 -1319h-180z" />
    <glyph glyph-name="IJ.sc" horiz-adv-x="1193" 
d="M508 -6h-64l29 162h39q145 0 207 54q61 54 84 175l186 934h180l-188 -954q-37 -193 -139 -282t-334 -89zM82 0l256 1319h182l-258 -1319h-180z" />
    <glyph glyph-name="J.sc" horiz-adv-x="798" 
d="M115 -6h-119l31 162h92q145 0 208 54q62 54 85 175l180 934h182l-186 -954q-36 -193 -140 -282t-333 -89z" />
    <glyph glyph-name="K.sc" horiz-adv-x="1247" 
d="M338 377l-74 -377h-182l258 1319h182l-137 -698l696 698h224l-580 -576l391 -743h-196l-334 623z" />
    <glyph glyph-name="L.sc" horiz-adv-x="1054" 
d="M82 0l258 1319h182l-225 -1155h629l-31 -164h-813z" />
    <glyph glyph-name="M.sc" horiz-adv-x="1640" 
d="M82 0l256 1319h266l123 -846l25 -219h4q59 123 110 217l465 848h275l-258 -1319h-177l220 1108h-7q-59 -121 -108 -217l-485 -891h-168l-125 891l-25 215h-4l-221 -1106h-166z" />
    <glyph glyph-name="N.sc" horiz-adv-x="1386" 
d="M82 0l258 1319h211l367 -924q28 -68 43 -149h4l215 1073h172l-258 -1319h-207l-369 928l-47 147h-4l-213 -1075h-172z" />
    <glyph glyph-name="O.sc" horiz-adv-x="1406" 
d="M1135 846q0 152 -84 247t-250 95q-109 0 -195 -47t-138 -122q-147 -213 -151 -556q0 -150 83 -245t255 -95q105 0 191 48t138 123q103 149 136 366q15 94 15 186zM129 463q0 278 111 506t322 319q114 49 251 49q236 0 373 -134t137 -353q0 -351 -165 -604
q-81 -125 -215 -199t-302 -74q-233 0 -373 133q-139 134 -139 357z" />
    <glyph glyph-name="OE.sc" horiz-adv-x="2076" 
d="M129 463q0 347 165 602q81 125 214 199t301 73q293 0 391 -219h6l39 201h828l-29 -158h-647l-82 -420h598l-29 -155h-600l-84 -428h662l-31 -158h-844l33 164h-6q-142 -190 -378 -190t-372 129q-135 130 -135 360zM652 121q171 0 288 119t158 317l32 172q43 203 -53 332
t-272 129q-109 0 -195 -47t-140 -122q-149 -207 -153 -556q0 -152 82 -248t253 -96z" />
    <glyph glyph-name="Oslash.sc" horiz-adv-x="1406" 
d="M1323 844q0 -345 -165 -598q-81 -125 -215 -199t-302 -74q-236 0 -375 136l-149 -154h-166l242 250q-107 188 -38 518q56 268 215 433q78 83 192 132t251 49q221 0 356 -118l138 141h168l-226 -234q74 -118 74 -282zM651 121q131 0 231 70q165 118 231 419q26 120 26 220
t-23 159l-733 -760q82 -108 268 -108zM824 1192q-148 0 -248 -69q-170 -117 -235 -418q-26 -123 -26 -216t13 -143l727 752q-83 94 -231 94z" />
    <glyph glyph-name="P.sc" horiz-adv-x="1116" 
d="M612 641q147 0 235 78q87 78 87 231q0 219 -256 219h-184l-105 -528h223zM602 485h-244l-94 -485h-182l258 1319h360q190 0 304 -92t112 -271q0 -227 -142 -349t-372 -122z" />
    <glyph glyph-name="Q.sc" horiz-adv-x="1406" 
d="M655 123q105 0 191 47t138 122q147 213 151 554q0 154 -84 248q-83 94 -233 94t-250 -70q-167 -118 -227 -413q-24 -119 -24 -255t83 -232q83 -95 255 -95zM129 463q0 352 166 603q82 124 216 198t302 73q240 0 375 -136t135 -351q0 -262 -86 -457t-231 -295v-8
q98 -8 161 -49t115 -123l-152 -102q-66 98 -124 136q-59 38 -154 38l-213 -13q-233 -1 -371 131t-139 355z" />
    <glyph glyph-name="R.sc" horiz-adv-x="1226" 
d="M762 1319q172 0 268 -70q123 -82 123 -272q0 -151 -85 -263t-249 -149v-6l223 -559h-186l-213 545h-276l-105 -545h-180l256 1319h424zM692 694q131 0 203 72t72 207q0 197 -226 196h-254l-90 -475h295z" />
    <glyph glyph-name="S.sc" horiz-adv-x="1196" 
d="M868 362q0 82 -41 125t-141 74l-158 49q-279 88 -278 334q0 184 130 290t333 103q203 -2 311 -97t96 -290h-172q6 108 -58 176t-189 68q-123 0 -199 -58t-76 -148t40 -135q40 -44 136 -73l158 -49q160 -49 226 -125t65 -205q1 -193 -139 -311t-359 -117t-347 103
t-116 311h178q-2 -133 74 -200t210 -67t225 62q91 61 91 180z" />
    <glyph glyph-name="T.sc" horiz-adv-x="1155" 
d="M791 1161l-228 -1161h-182l227 1161h-426l29 158h1036l-28 -158h-428z" />
    <glyph glyph-name="Tbar.sc" horiz-adv-x="1155" 
d="M702 709l-139 -709h-182l139 709h-334l25 131h334l63 321h-426l29 158h1036l-28 -158h-428l-64 -321h334l-25 -131h-334z" />
    <glyph glyph-name="Thorn.sc" horiz-adv-x="1112" 
d="M569 283h-250l-55 -283h-182l258 1319h182l-49 -250h186q188 0 300 -87t112 -259q-2 -211 -141 -326q-140 -114 -361 -114zM635 926h-191l-96 -498h238q141 4 221 77t82 210q0 211 -254 211z" />
    <glyph glyph-name="U.sc" horiz-adv-x="1327" 
d="M608 129q174 0 273 98q55 55 80 160q8 31 11 42t9 43t8 42l156 805h182l-176 -895q-45 -231 -178 -341t-376 -110t-363 129q-119 130 -66 404l158 813h184l-148 -756q-47 -248 7 -332q65 -102 239 -102z" />
    <glyph glyph-name="V.sc" horiz-adv-x="1249" 
d="M549 201v-23h2q29 74 94 199l508 942h188l-712 -1319h-213l-201 1319h186l129 -920q19 -157 19 -198z" />
    <glyph glyph-name="W.sc" horiz-adv-x="1812" 
d="M512 0h-197l-110 1319h178l63 -862l5 -238h4q23 86 84 215l413 885h195l70 -862l6 -238h4q23 84 82 215l405 885h180l-610 -1319h-197l-71 858q-8 91 -8 211l2 25h-6q-31 -98 -91 -230z" />
    <glyph glyph-name="X.sc" horiz-adv-x="1239" 
d="M-23 0l574 688l-281 631h195l213 -492h4l401 492h199l-530 -635l317 -684h-199l-239 549h-2l-453 -549h-199z" />
    <glyph glyph-name="Y.sc" horiz-adv-x="1181" 
d="M385 0l115 584l-299 735h186l227 -590h4l455 590h195l-590 -746l-111 -573h-182z" />
    <glyph glyph-name="Z.sc" horiz-adv-x="1167" 
d="M260 1161l31 158h915l-22 -129l-916 -1032h727l-28 -158h-957l25 133l911 1028h-686z" />
    <glyph glyph-name="ampersand.sc" horiz-adv-x="1232" 
d="M1094 0q-184 0 -285 96q-153 -123 -351 -123t-302 90q-104 91 -104 243t91 248q92 96 269 171q-94 156 -95 270q0 154 109 248t256 94q147 -1 229 -77t82 -203q0 -233 -362 -383l166 -281q20 -33 30 -47q70 111 148 309h164q-102 -287 -215 -438q43 -45 95 -60t142 -16
l-28 -141h-39zM479 111q129 0 242 102q-4 6 -29 45l-215 356l-12 -6q-127 -53 -184 -119q-57 -67 -57 -161t62 -156q64 -62 193 -61zM481 1024q0 -82 39 -161q10 -19 45 -77q127 54 197 116t70 142t-40 126t-121 46t-135 -54q-54 -56 -55 -138z" />
    <glyph glyph-name="uni0237.sc" horiz-adv-x="798" 
d="M115 -6h-119l31 162h92q145 0 208 54q62 54 85 175l180 934h182l-186 -954q-36 -193 -140 -282t-333 -89z" />
    <glyph glyph-name="exclam.sc" horiz-adv-x="530" 
d="M309 0h-241l36 242h242zM188 412l158 907h201l-215 -907h-144z" />
    <glyph glyph-name="exclamdown.sc" horiz-adv-x="530" 
d="M311 1319h242l-37 -242h-242zM432 907l-158 -907h-200l215 907h143z" />
    <glyph glyph-name="germandbls.sc" horiz-adv-x="2392" 
d="M2064 362q0 82 -41 125t-141 74l-158 49q-279 88 -278 334q0 184 130 290t333 103q203 -2 311 -97t96 -290h-172q6 108 -58 176t-189 68q-123 0 -199 -58t-76 -148t40 -135q40 -44 136 -73l158 -49q160 -49 226 -125t65 -205q1 -193 -139 -311t-359 -117t-347 103
t-116 311h178q-2 -133 74 -200t210 -67t225 62q91 61 91 180zM868 362q0 82 -41 125t-141 74l-158 49q-279 88 -278 334q0 184 130 290t333 103q203 -2 311 -97t96 -290h-172q6 108 -58 176t-189 68q-123 0 -199 -58t-76 -148t40 -135q40 -44 136 -73l158 -49
q160 -49 226 -125t65 -205q1 -193 -139 -311t-359 -117t-347 103t-116 311h178q-2 -133 74 -200t210 -67t225 62q91 61 91 180z" />
    <glyph glyph-name="question.sc" horiz-adv-x="1337" 
d="M463 0l37 242h241l-36 -242h-242zM770 1192q-254 0 -272 -303h-164q0 161 93 297q48 70 138 112t211 41q190 0 292 -102t101 -229q-1 -94 -31 -165t-72 -112t-118 -94l-100 -70q-37 -22 -48 -33q-12 -10 -24 -19q-32 -23 -39 -83l-6 -35h-158l15 86q10 61 40 97t85 75
l157 109q63 45 97 96q33 51 33 133q0 83 -63 141q-62 58 -167 58z" />
    <glyph glyph-name="questiondown.sc" horiz-adv-x="1255" 
d="M877 1319l-37 -242h-242l37 242h242zM340 326q0 -82 62 -140t167 -59q254 0 273 303h164q0 -160 -94 -297q-48 -69 -138 -111t-211 -42q-190 0 -292 102q-101 102 -101 229q0 94 31 165t72 112q42 41 118 94l101 70q26 15 42 29q17 14 29 23q32 24 39 83l6 35h158
l-14 -86q-10 -62 -40 -98t-85 -74l-158 -109q-63 -45 -96 -96t-33 -133z" />
    <glyph glyph-name="quotedblleft.sc" horiz-adv-x="792" 
d="M504 1319l-152 -451h-221l246 451h127zM838 1319l-152 -451h-223l246 451h129z" />
    <glyph glyph-name="space.tab" horiz-adv-x="614" 
 />
    <glyph glyph-name="quoteleft.sc" horiz-adv-x="458" 
d="M504 1319l-152 -451h-221l246 451h127z" />
    <glyph glyph-name="quoteright.sc" horiz-adv-x="458" 
d="M168 866l151 453h224l-246 -453h-129z" />
    <glyph glyph-name="Lslash.sc" horiz-adv-x="1054" 
d="M84 0l94 487l-145 -51l30 166l148 51l129 666h182l-116 -596l444 156l-33 -166l-444 -156l-76 -393h631l-31 -164h-813z" />
    <glyph glyph-name="AEacute.sc" horiz-adv-x="1826" 
d="M1061 1466l166 332h207l-240 -332h-133zM737 0l72 367h-424l-235 -367h-185l844 1319h1014l-31 -162h-647l-82 -414h600l-31 -159h-600l-84 -422h664l-31 -162h-844zM838 514l127 643h-78q-8 -12 -41 -66t-49 -79l-318 -498h359z" />
    <glyph glyph-name="Aacute.sc" horiz-adv-x="1298" 
d="M748 1466l165 332h207l-239 -332h-133zM948 0l-59 367h-522l-191 -367h-188l698 1319h213l240 -1319h-191zM758 1141q0 -4 -14 -31q-14 -26 -30 -64q-17 -38 -48 -100l-224 -432h422l-78 430q-16 84 -24 174v23h-4z" />
    <glyph glyph-name="Abreve.sc" horiz-adv-x="1298" 
d="M843 1473q-134 1 -208 81t-41 244h133q-19 -92 17 -141t112 -49q166 0 205 190h137q-33 -164 -127 -244t-228 -81zM948 0l-59 367h-522l-191 -367h-188l698 1319h213l240 -1319h-191zM758 1141q0 -4 -14 -31q-14 -26 -30 -64q-17 -38 -48 -100l-224 -432h422l-78 430
q-16 84 -24 174v23h-4z" />
    <glyph glyph-name="Acircumflex.sc" horiz-adv-x="1298" 
d="M975 1798l135 -332h-160l-88 209l-162 -209h-168l252 332h191zM948 0l-59 367h-522l-191 -367h-188l698 1319h213l240 -1319h-191zM758 1141q0 -4 -14 -31q-14 -26 -30 -64q-17 -38 -48 -100l-224 -432h422l-78 430q-16 84 -24 174v23h-4z" />
    <glyph glyph-name="Adieresis.sc" horiz-adv-x="1298" 
d="M541 1507l39 203h184l-39 -203h-184zM934 1507l39 203h184l-39 -203h-184zM948 0l-59 367h-522l-191 -367h-188l698 1319h213l240 -1319h-191zM758 1141q0 -4 -14 -31q-14 -26 -30 -64q-17 -38 -48 -100l-224 -432h422l-78 430q-16 84 -24 174v23h-4z" />
    <glyph glyph-name="Agrave.sc" horiz-adv-x="1298" 
d="M754 1798l143 -332h-133l-209 332h199zM948 0l-59 367h-522l-191 -367h-188l698 1319h213l240 -1319h-191zM758 1141q0 -4 -14 -31q-14 -26 -30 -64q-17 -38 -48 -100l-224 -432h422l-78 430q-16 84 -24 174v23h-4z" />
    <glyph glyph-name="Amacron.sc" horiz-adv-x="1298" 
d="M537 1507l28 150h586l-29 -150h-585zM948 0l-59 367h-522l-191 -367h-188l698 1319h213l240 -1319h-191zM758 1141q0 -4 -14 -31q-14 -26 -30 -64q-17 -38 -48 -100l-224 -432h422l-78 430q-16 84 -24 174v23h-4z" />
    <glyph glyph-name="Aogonek.sc" horiz-adv-x="1298" 
d="M1024 -385q-109 0 -171 39t-62 116t58 139t144 91h-45l-59 367h-522l-191 -367h-188l698 1319h213l240 -1319q-170 -100 -170 -188q-1 -70 116 -70l-24 -127h-37zM758 1141q0 -4 -14 -31q-14 -26 -30 -64q-17 -38 -48 -100l-224 -432h422l-78 430q-16 84 -24 174v23h-4z
" />
    <glyph glyph-name="Aring.sc" horiz-adv-x="1298" 
d="M859 1556q50 0 81 37t31 93t-27 88q-27 30 -76 31t-80 -36q-30 -37 -30 -93t26 -88t75 -32zM870 1901q102 -1 160 -57t57 -156q0 -100 -65 -164q-64 -62 -168 -61t-160 57t-55 153q0 96 64 162q65 66 167 66zM948 0l-59 367h-522l-191 -367h-188l698 1319h213l240 -1319
h-191zM758 1141q0 -4 -14 -31q-14 -26 -30 -64q-17 -38 -48 -100l-224 -432h422l-78 430q-16 84 -24 174v23h-4z" />
    <glyph glyph-name="uni01FA.sc" horiz-adv-x="1298" 
d="M848 2025l170 273h207l-240 -273h-137zM859 1556q50 0 81 37t31 93t-27 88q-27 30 -76 31t-80 -36q-30 -37 -30 -93t26 -88t75 -32zM870 1901q102 -1 160 -57t57 -156q0 -100 -65 -164q-64 -62 -168 -61t-160 57t-55 153q0 96 64 162q65 66 167 66zM948 0l-59 367h-522
l-191 -367h-188l698 1319h213l240 -1319h-191zM758 1141q0 -4 -14 -31q-14 -26 -30 -64q-17 -38 -48 -100l-224 -432h422l-78 430q-16 84 -24 174v23h-4z" />
    <glyph glyph-name="Atilde.sc" horiz-adv-x="1298" 
d="M993 1614q78 0 92 129h132q-33 -276 -246 -277q-63 0 -151 62t-120 63q-78 0 -92 -129h-131q33 276 246 277q63 -1 151 -63t119 -62zM948 0l-59 367h-522l-191 -367h-188l698 1319h213l240 -1319h-191zM758 1141q0 -4 -14 -31q-14 -26 -30 -64q-17 -38 -48 -100
l-224 -432h422l-78 430q-16 84 -24 174v23h-4z" />
    <glyph glyph-name="Cacute.sc" horiz-adv-x="1320" 
d="M770 1466l166 332h207l-240 -332h-133zM806 1188q-130 0 -236 -69q-177 -115 -244 -405q-27 -116 -27 -250t81 -237q81 -102 244 -103t256 81t126 217h184q-43 -211 -194 -330t-378 -119q-227 -1 -365 137t-138 368t81 423q80 193 244 315t378 121q214 0 330 -105
q115 -106 107 -321h-180q4 133 -67 205q-72 72 -202 72z" />
    <glyph glyph-name="Ccaron.sc" horiz-adv-x="1320" 
d="M752 1466l-136 332h160l88 -209l162 209h168l-252 -332h-190zM806 1188q-130 0 -236 -69q-177 -115 -244 -405q-27 -116 -27 -250t81 -237q81 -102 244 -103t256 81t126 217h184q-43 -211 -194 -330t-378 -119q-227 -1 -365 137t-138 368t81 423q80 193 244 315t378 121
q214 0 330 -105q115 -106 107 -321h-180q4 133 -67 205q-72 72 -202 72z" />
    <glyph glyph-name="Ccedilla.sc" horiz-adv-x="1320" 
d="M754 -264q0 -70 -56 -120t-136 -50q-81 0 -128 34t-47 101h115q8 -45 57 -45q76 0 76 78q0 68 -55 67q-37 0 -60 -22h-119l125 203q-192 28 -302 160t-110 349t82 410q80 193 244 315t378 121q214 0 330 -105t107 -321h-180q4 133 -67 205q-72 72 -202 72t-236 -69
q-177 -115 -244 -405q-27 -116 -27 -250t81 -237q81 -102 244 -103t256 81t126 217h184q-43 -211 -194 -330t-369 -119h-6l-64 -102h4q23 12 74 12t85 -39q34 -38 34 -108z" />
    <glyph glyph-name="Ccircumflex.sc" horiz-adv-x="1320" 
d="M997 1798l136 -332h-160l-88 209l-162 -209h-168l252 332h190zM806 1188q-130 0 -236 -69q-177 -115 -244 -405q-27 -116 -27 -250t81 -237q81 -102 244 -103t256 81t126 217h184q-43 -211 -194 -330t-378 -119q-227 -1 -365 137t-138 368t81 423q80 193 244 315t378 121
q214 0 330 -105q115 -106 107 -321h-180q4 133 -67 205q-72 72 -202 72z" />
    <glyph glyph-name="Cdotaccent.sc" horiz-adv-x="1320" 
d="M756 1507l39 203h190l-39 -203h-190zM806 1188q-130 0 -236 -69q-177 -115 -244 -405q-27 -116 -27 -250t81 -237q81 -102 244 -103t256 81t126 217h184q-43 -211 -194 -330t-378 -119q-227 -1 -365 137t-138 368t81 423q80 193 244 315t378 121q214 0 330 -105
q115 -106 107 -321h-180q4 133 -67 205q-72 72 -202 72z" />
    <glyph glyph-name="Dcaron.sc" horiz-adv-x="1347" 
d="M709 1466l-136 332h160l88 -209l162 209h168l-252 -332h-190zM557 154q131 0 231 53t154 129q53 76 96 200t43 292q0 169 -99 253t-273 84h-217l-203 -1011h268zM725 1319q241 0 393 -124t152 -372q0 -363 -194 -593t-564 -230h-430l256 1319h387z" />
    <glyph glyph-name="Eacute.sc" horiz-adv-x="1171" 
d="M707 1466l165 332h207l-239 -332h-133zM82 0l258 1319h827l-28 -158h-647l-82 -420h598l-29 -155h-600l-84 -428h661l-30 -158h-844z" />
    <glyph glyph-name="Ecaron.sc" horiz-adv-x="1171" 
d="M690 1466l-135 332h160l88 -209l162 209h168l-252 -332h-191zM82 0l258 1319h827l-28 -158h-647l-82 -420h598l-29 -155h-600l-84 -428h661l-30 -158h-844z" />
    <glyph glyph-name="Ecircumflex.sc" horiz-adv-x="1171" 
d="M934 1798l135 -332h-160l-88 209l-162 -209h-167l251 332h191zM82 0l258 1319h827l-28 -158h-647l-82 -420h598l-29 -155h-600l-84 -428h661l-30 -158h-844z" />
    <glyph glyph-name="Edieresis.sc" horiz-adv-x="1171" 
d="M500 1507l39 203h184l-39 -203h-184zM893 1507l39 203h184l-39 -203h-184zM82 0l258 1319h827l-28 -158h-647l-82 -420h598l-29 -155h-600l-84 -428h661l-30 -158h-844z" />
    <glyph glyph-name="Edotaccent.sc" horiz-adv-x="1171" 
d="M694 1507l39 203h191l-39 -203h-191zM82 0l258 1319h827l-28 -158h-647l-82 -420h598l-29 -155h-600l-84 -428h661l-30 -158h-844z" />
    <glyph glyph-name="Egrave.sc" horiz-adv-x="1171" 
d="M713 1798l143 -332h-133l-209 332h199zM82 0l258 1319h827l-28 -158h-647l-82 -420h598l-29 -155h-600l-84 -428h661l-30 -158h-844z" />
    <glyph glyph-name="Emacron.sc" horiz-adv-x="1171" 
d="M496 1507l28 150h586l-29 -150h-585zM82 0l258 1319h827l-28 -158h-647l-82 -420h598l-29 -155h-600l-84 -428h661l-30 -158h-844z" />
    <glyph glyph-name="Eogonek.sc" horiz-adv-x="1171" 
d="M813 -385q-109 0 -171 39t-62 116t58 139t144 91h-700l258 1319h827l-28 -158h-647l-82 -420h598l-29 -155h-600l-84 -428h661l-30 -158q-168 -100 -168 -188q0 -70 116 -70l-24 -127h-37z" />
    <glyph glyph-name="Gbreve.sc" horiz-adv-x="1370" 
d="M898 1473q-134 1 -208 81t-41 244h133q-18 -92 18 -141t111 -49q166 0 205 190h137q-33 -164 -127 -244t-228 -81zM1266 954h-176q-2 112 -69 176t-189 64t-219 -51t-153 -127t-94 -175q-65 -169 -65 -340q0 -170 79 -274t252 -104q173 -1 291 111t146 264l6 32h-373
l31 146h539l-131 -676h-154l41 207h-6q-133 -233 -416 -234q-244 1 -368 145t-125 381q0 237 105 447q194 391 652 391q178 0 286 -95q110 -95 110 -288z" />
    <glyph glyph-name="Gcircumflex.sc" horiz-adv-x="1370" 
d="M1032 1798l135 -332h-159l-88 209l-162 -209h-168l252 332h190zM1266 954h-176q-2 112 -69 176t-189 64t-219 -51t-153 -127t-94 -175q-65 -169 -65 -340q0 -170 79 -274t252 -104q173 -1 291 111t146 264l6 32h-373l31 146h539l-131 -676h-154l41 207h-6
q-133 -233 -416 -234q-244 1 -368 145t-125 381q0 237 105 447q194 391 652 391q178 0 286 -95q110 -95 110 -288z" />
    <glyph glyph-name="Gcommaaccent.sc" horiz-adv-x="1370" 
d="M375 -422l100 281h195l-181 -281h-114zM1266 954h-176q-2 112 -69 176t-189 64t-219 -51t-153 -127t-94 -175q-65 -169 -65 -340q0 -170 79 -274t252 -104q173 -1 291 111t146 264l6 32h-373l31 146h539l-131 -676h-154l41 207h-6q-133 -233 -416 -234q-244 1 -368 145
t-125 381q0 237 105 447q194 391 652 391q178 0 286 -95q110 -95 110 -288z" />
    <glyph glyph-name="Gdotaccent.sc" horiz-adv-x="1370" 
d="M791 1507l38 203h191l-39 -203h-190zM1266 954h-176q-2 112 -69 176t-189 64t-219 -51t-153 -127t-94 -175q-65 -169 -65 -340q0 -170 79 -274t252 -104q173 -1 291 111t146 264l6 32h-373l31 146h539l-131 -676h-154l41 207h-6q-133 -233 -416 -234q-244 1 -368 145
t-125 381q0 237 105 447q194 391 652 391q178 0 286 -95q110 -95 110 -288z" />
    <glyph glyph-name="Hcircumflex.sc" horiz-adv-x="1378" 
d="M1022 1798l135 -332h-160l-88 209l-161 -209h-168l251 332h191zM377 588l-115 -588h-180l256 1319h182l-112 -578h641l112 578h182l-258 -1319h-182l115 588h-641z" />
    <glyph glyph-name="Iacute.sc" horiz-adv-x="555" 
d="M383 1466l166 332h207l-240 -332h-133zM82 0l256 1319h182l-258 -1319h-180z" />
    <glyph glyph-name="questiondown.uc" horiz-adv-x="1124" 
d="M872 1567l-45 -242h-235l45 242h235zM250 332q0 -112 68 -178t184 -66q156 0 238 93t100 282h178q-14 -254 -154 -391q-140 -138 -356 -138q-215 0 -329 109q-113 109 -113 279t93 282q68 81 187 168l90 64q60 40 66 46q6 5 20 17q14 13 18 19t12 21q9 15 17 62l21 101
h170l-25 -131q-18 -99 -55 -145t-156 -126l-102 -71q-172 -117 -172 -297z" />
    <glyph glyph-name="Icircumflex.sc" horiz-adv-x="555" 
d="M610 1798l135 -332h-159l-88 209l-162 -209h-168l252 332h190zM82 0l256 1319h182l-258 -1319h-180z" />
    <glyph glyph-name="Idieresis.sc" horiz-adv-x="555" 
d="M176 1507l39 203h184l-39 -203h-184zM569 1507l39 203h185l-39 -203h-185zM82 0l256 1319h182l-258 -1319h-180z" />
    <glyph glyph-name="Igrave.sc" horiz-adv-x="555" 
d="M389 1798l143 -332h-133l-209 332h199zM82 0l256 1319h182l-258 -1319h-180z" />
    <glyph glyph-name="Imacron.sc" horiz-adv-x="555" 
d="M172 1507l29 150h585l-28 -150h-586zM82 0l256 1319h182l-258 -1319h-180z" />
    <glyph glyph-name="Iogonek.sc" horiz-adv-x="555" 
d="M150 -385q-109 0 -172 39q-62 39 -62 116t58 139t145 91h-37l256 1319h182l-258 -1319q-168 -100 -168 -188q0 -70 117 -70l-25 -127h-36z" />
    <glyph glyph-name="Itilde.sc" horiz-adv-x="555" 
d="M629 1614q78 0 92 129h131q-33 -276 -246 -277q-63 0 -151 62t-119 63q-78 0 -92 -129h-131q33 276 245 277q64 -1 152 -63t119 -62zM82 0l256 1319h182l-258 -1319h-180z" />
    <glyph glyph-name="Jcircumflex.sc" horiz-adv-x="798" 
d="M864 1798l135 -332h-159l-88 209l-162 -209h-168l252 332h190zM115 -6h-119l31 162h92q145 0 208 54q62 54 85 175l180 934h182l-186 -954q-36 -193 -140 -282t-333 -89z" />
    <glyph glyph-name="Kcommaaccent.sc" horiz-adv-x="1247" 
d="M346 -422l100 281h195l-180 -281h-115zM338 377l-74 -377h-182l258 1319h182l-137 -698l696 698h224l-580 -576l391 -743h-196l-334 623z" />
    <glyph glyph-name="Lacute.sc" horiz-adv-x="1054" 
d="M412 1518l166 331h206l-239 -331h-133zM82 0l258 1319h182l-225 -1155h629l-31 -164h-813z" />
    <glyph glyph-name="Lcaron.sc" horiz-adv-x="1054" 
d="M639 987l98 332h172l-157 -332h-113zM82 0l258 1319h182l-225 -1155h629l-31 -164h-813z" />
    <glyph glyph-name="Lcommaaccent.sc" horiz-adv-x="1054" 
d="M281 -422l100 281h194l-180 -281h-114zM82 0l258 1319h182l-225 -1155h629l-31 -164h-813z" />
    <glyph glyph-name="Nacute.sc" horiz-adv-x="1386" 
d="M799 1466l166 332h206l-239 -332h-133zM82 0l258 1319h211l367 -924q28 -68 43 -149h4l215 1073h172l-258 -1319h-207l-369 928l-47 147h-4l-213 -1075h-172z" />
    <glyph glyph-name="Ncaron.sc" horiz-adv-x="1386" 
d="M782 1466l-135 332h160l88 -209l162 209h168l-252 -332h-191zM82 0l258 1319h211l367 -924q28 -68 43 -149h4l215 1073h172l-258 -1319h-207l-369 928l-47 147h-4l-213 -1075h-172z" />
    <glyph glyph-name="Ncommaaccent.sc" horiz-adv-x="1386" 
d="M371 -422l100 281h195l-181 -281h-114zM82 0l258 1319h211l367 -924q28 -68 43 -149h4l215 1073h172l-258 -1319h-207l-369 928l-47 147h-4l-213 -1075h-172z" />
    <glyph glyph-name="Ntilde.sc" horiz-adv-x="1386" 
d="M1044 1614q78 0 93 129h131q-33 -276 -246 -277q-64 0 -152 62t-118 63q-78 0 -93 -129h-131q33 276 246 277q64 -1 152 -63t118 -62zM82 0l258 1319h211l367 -924q28 -68 43 -149h4l215 1073h172l-258 -1319h-207l-369 928l-47 147h-4l-213 -1075h-172z" />
    <glyph glyph-name="Oacute.sc" horiz-adv-x="1406" 
d="M805 1466l166 332h207l-240 -332h-133zM1135 846q0 152 -84 247t-250 95q-109 0 -195 -47t-138 -122q-147 -213 -151 -556q0 -150 83 -245t255 -95q105 0 191 48t138 123q103 149 136 366q15 94 15 186zM129 463q0 278 111 506t322 319q114 49 251 49q236 0 373 -134
t137 -353q0 -351 -165 -604q-81 -125 -215 -199t-302 -74q-233 0 -373 133q-139 134 -139 357z" />
    <glyph glyph-name="Obreve.sc" horiz-adv-x="1406" 
d="M898 1473q-134 1 -208 81t-41 244h133q-18 -92 18 -141t111 -49q166 0 205 190h137q-33 -164 -127 -244t-228 -81zM1135 846q0 152 -84 247t-250 95q-109 0 -195 -47t-138 -122q-147 -213 -151 -556q0 -150 83 -245t255 -95q105 0 191 48t138 123q103 149 136 366
q15 94 15 186zM129 463q0 278 111 506t322 319q114 49 251 49q236 0 373 -134t137 -353q0 -351 -165 -604q-81 -125 -215 -199t-302 -74q-233 0 -373 133q-139 134 -139 357z" />
    <glyph glyph-name="Ocircumflex.sc" horiz-adv-x="1406" 
d="M1032 1798l135 -332h-159l-88 209l-162 -209h-168l252 332h190zM1135 846q0 152 -84 247t-250 95q-109 0 -195 -47t-138 -122q-147 -213 -151 -556q0 -150 83 -245t255 -95q105 0 191 48t138 123q103 149 136 366q15 94 15 186zM129 463q0 278 111 506t322 319
q114 49 251 49q236 0 373 -134t137 -353q0 -351 -165 -604q-81 -125 -215 -199t-302 -74q-233 0 -373 133q-139 134 -139 357z" />
    <glyph glyph-name="Odieresis.sc" horiz-adv-x="1406" 
d="M596 1507l39 203h184l-39 -203h-184zM989 1507l39 203h184l-38 -203h-185zM1135 846q0 152 -84 247t-250 95q-109 0 -195 -47t-138 -122q-147 -213 -151 -556q0 -150 83 -245t255 -95q105 0 191 48t138 123q103 149 136 366q15 94 15 186zM129 463q0 278 111 506t322 319
q114 49 251 49q236 0 373 -134t137 -353q0 -351 -165 -604q-81 -125 -215 -199t-302 -74q-233 0 -373 133q-139 134 -139 357z" />
    <glyph glyph-name="Ograve.sc" horiz-adv-x="1406" 
d="M809 1798l143 -332h-133l-209 332h199zM1135 846q0 152 -84 247t-250 95q-109 0 -195 -47t-138 -122q-147 -213 -151 -556q0 -150 83 -245t255 -95q105 0 191 48t138 123q103 149 136 366q15 94 15 186zM129 463q0 278 111 506t322 319q114 49 251 49q236 0 373 -134
t137 -353q0 -351 -165 -604q-81 -125 -215 -199t-302 -74q-233 0 -373 133q-139 134 -139 357z" />
    <glyph glyph-name="Ohungarumlaut.sc" horiz-adv-x="1406" 
d="M637 1466l172 332h182l-239 -332h-115zM918 1466l172 332h182l-240 -332h-114zM1135 846q0 152 -84 247t-250 95q-109 0 -195 -47t-138 -122q-147 -213 -151 -556q0 -150 83 -245t255 -95q105 0 191 48t138 123q103 149 136 366q15 94 15 186zM129 463q0 278 111 506
t322 319q114 49 251 49q236 0 373 -134t137 -353q0 -351 -165 -604q-81 -125 -215 -199t-302 -74q-233 0 -373 133q-139 134 -139 357z" />
    <glyph glyph-name="Omacron.sc" horiz-adv-x="1406" 
d="M594 1507l29 150h585l-28 -150h-586zM1135 846q0 152 -84 247t-250 95q-109 0 -195 -47t-138 -122q-147 -213 -151 -556q0 -150 83 -245t255 -95q105 0 191 48t138 123q103 149 136 366q15 94 15 186zM129 463q0 278 111 506t322 319q114 49 251 49q236 0 373 -134
t137 -353q0 -351 -165 -604q-81 -125 -215 -199t-302 -74q-233 0 -373 133q-139 134 -139 357z" />
    <glyph glyph-name="Oslashacute.sc" horiz-adv-x="1406" 
d="M788 1466l166 332h207l-239 -332h-134zM1323 844q0 -345 -165 -598q-81 -125 -215 -199t-302 -74q-236 0 -375 136l-149 -154h-166l242 250q-107 188 -38 518q56 268 215 433q78 83 192 132t251 49q221 0 356 -118l138 141h168l-226 -234q74 -118 74 -282zM651 121
q131 0 231 70q165 118 231 419q26 120 26 220t-23 159l-733 -760q82 -108 268 -108zM824 1192q-148 0 -248 -69q-170 -117 -235 -418q-26 -123 -26 -216t13 -143l727 752q-83 94 -231 94z" />
    <glyph glyph-name="Otilde.sc" horiz-adv-x="1406" 
d="M1051 1614q78 0 92 129h131q-33 -276 -246 -277q-63 0 -151 62t-119 63q-78 0 -92 -129h-131q33 276 245 277q64 -1 152 -63t119 -62zM1135 846q0 152 -84 247t-250 95q-109 0 -195 -47t-138 -122q-147 -213 -151 -556q0 -150 83 -245t255 -95q105 0 191 48t138 123
q103 149 136 366q15 94 15 186zM129 463q0 278 111 506t322 319q114 49 251 49q236 0 373 -134t137 -353q0 -351 -165 -604q-81 -125 -215 -199t-302 -74q-233 0 -373 133q-139 134 -139 357z" />
    <glyph glyph-name="Racute.sc" horiz-adv-x="1226" 
d="M662 1466l165 332h207l-239 -332h-133zM762 1319q172 0 268 -70q123 -82 123 -272q0 -151 -85 -263t-249 -149v-6l223 -559h-186l-213 545h-276l-105 -545h-180l256 1319h424zM692 694q131 0 203 72t72 207q0 197 -226 196h-254l-90 -475h295z" />
    <glyph glyph-name="Rcaron.sc" horiz-adv-x="1226" 
d="M645 1466l-135 332h160l88 -209l162 209h167l-251 -332h-191zM762 1319q172 0 268 -70q123 -82 123 -272q0 -151 -85 -263t-249 -149v-6l223 -559h-186l-213 545h-276l-105 -545h-180l256 1319h424zM692 694q131 0 203 72t72 207q0 197 -226 196h-254l-90 -475h295z" />
    <glyph glyph-name="Rcommaaccent.sc" horiz-adv-x="1226" 
d="M344 -422l100 281h195l-180 -281h-115zM762 1319q172 0 268 -70q123 -82 123 -272q0 -151 -85 -263t-249 -149v-6l223 -559h-186l-213 545h-276l-105 -545h-180l256 1319h424zM692 694q131 0 203 72t72 207q0 197 -226 196h-254l-90 -475h295z" />
    <glyph glyph-name="Sacute.sc" horiz-adv-x="1196" 
d="M688 1466l166 332h207l-240 -332h-133zM868 362q0 82 -41 125t-141 74l-158 49q-279 88 -278 334q0 184 130 290t333 103q203 -2 311 -97t96 -290h-172q6 108 -58 176t-189 68q-123 0 -199 -58t-76 -148t40 -135q40 -44 136 -73l158 -49q160 -49 226 -125t65 -205
q1 -193 -139 -311t-359 -117t-347 103t-116 311h178q-2 -133 74 -200t210 -67t225 62q91 61 91 180z" />
    <glyph glyph-name="Scaron.sc" horiz-adv-x="1196" 
d="M670 1466l-135 332h159l88 -209l162 209h168l-252 -332h-190zM868 362q0 82 -41 125t-141 74l-158 49q-279 88 -278 334q0 184 130 290t333 103q203 -2 311 -97t96 -290h-172q6 108 -58 176t-189 68q-123 0 -199 -58t-76 -148t40 -135q40 -44 136 -73l158 -49
q160 -49 226 -125t65 -205q1 -193 -139 -311t-359 -117t-347 103t-116 311h178q-2 -133 74 -200t210 -67t225 62q91 61 91 180z" />
    <glyph glyph-name="Scedilla.sc" horiz-adv-x="1196" 
d="M672 -264q0 -70 -56 -120t-136 -50q-81 0 -128 34t-47 101h115q8 -45 57 -45q76 0 76 78q0 68 -55 67q-37 0 -60 -22h-119l123 201q-166 20 -264 121t-88 286h178q-2 -133 74 -200t210 -67t225 62q91 61 91 180q0 82 -41 125t-141 74l-158 49q-279 88 -278 334
q0 184 130 290t333 103q203 -2 311 -97t96 -290h-172q6 108 -58 176t-189 68q-123 0 -199 -58t-76 -148t40 -135q40 -44 136 -73l158 -49q160 -49 226 -125t65 -205q1 -193 -139 -311t-373 -117l-64 -102h4q23 12 74 12t85 -39q34 -38 34 -108z" />
    <glyph glyph-name="Scircumflex.sc" horiz-adv-x="1196" 
d="M915 1798l136 -332h-160l-88 209l-162 -209h-168l252 332h190zM868 362q0 82 -41 125t-141 74l-158 49q-279 88 -278 334q0 184 130 290t333 103q203 -2 311 -97t96 -290h-172q6 108 -58 176t-189 68q-123 0 -199 -58t-76 -148t40 -135q40 -44 136 -73l158 -49
q160 -49 226 -125t65 -205q1 -193 -139 -311t-359 -117t-347 103t-116 311h178q-2 -133 74 -200t210 -67t225 62q91 61 91 180z" />
    <glyph glyph-name="Scommaaccent.sc" horiz-adv-x="1196" 
d="M287 -422l100 281h195l-181 -281h-114zM868 362q0 82 -41 125t-141 74l-158 49q-279 88 -278 334q0 184 130 290t333 103q203 -2 311 -97t96 -290h-172q6 108 -58 176t-189 68q-123 0 -199 -58t-76 -148t40 -135q40 -44 136 -73l158 -49q160 -49 226 -125t65 -205
q1 -193 -139 -311t-359 -117t-347 103t-116 311h178q-2 -133 74 -200t210 -67t225 62q91 61 91 180z" />
    <glyph glyph-name="Tcaron.sc" horiz-adv-x="1155" 
d="M666 1466l-136 332h160l88 -209l162 209h168l-252 -332h-190zM791 1161l-228 -1161h-182l227 1161h-426l29 158h1036l-28 -158h-428z" />
    <glyph glyph-name="Tcommaaccent.sc" horiz-adv-x="1155" 
d="M254 -422l100 281h195l-180 -281h-115zM791 1161l-228 -1161h-182l227 1161h-426l29 158h1036l-28 -158h-428z" />
    <glyph glyph-name="Uacute.sc" horiz-adv-x="1327" 
d="M770 1466l166 332h207l-240 -332h-133zM608 129q174 0 273 98q55 55 80 160q8 31 11 42t9 43t8 42l156 805h182l-176 -895q-45 -231 -178 -341t-376 -110t-363 129q-119 130 -66 404l158 813h184l-148 -756q-47 -248 7 -332q65 -102 239 -102z" />
    <glyph glyph-name="Ubreve.sc" horiz-adv-x="1327" 
d="M863 1473q-134 1 -208 81t-41 244h134q-18 -92 18 -141t111 -49q164 0 204 190h138q-33 -164 -127 -245q-95 -80 -229 -80zM608 129q174 0 273 98q55 55 80 160q8 31 11 42t9 43t8 42l156 805h182l-176 -895q-45 -231 -178 -341t-376 -110t-363 129q-119 130 -66 404
l158 813h184l-148 -756q-47 -248 7 -332q65 -102 239 -102z" />
    <glyph glyph-name="Ucircumflex.sc" horiz-adv-x="1327" 
d="M997 1798l136 -332h-160l-88 209l-162 -209h-168l252 332h190zM608 129q174 0 273 98q55 55 80 160q8 31 11 42t9 43t8 42l156 805h182l-176 -895q-45 -231 -178 -341t-376 -110t-363 129q-119 130 -66 404l158 813h184l-148 -756q-47 -248 7 -332q65 -102 239 -102z" />
    <glyph glyph-name="Udieresis.sc" horiz-adv-x="1327" 
d="M561 1507l39 203h184l-39 -203h-184zM954 1507l39 203h185l-39 -203h-185zM608 129q174 0 273 98q55 55 80 160q8 31 11 42t9 43t8 42l156 805h182l-176 -895q-45 -231 -178 -341t-376 -110t-363 129q-119 130 -66 404l158 813h184l-148 -756q-47 -248 7 -332
q65 -102 239 -102z" />
    <glyph glyph-name="Ugrave.sc" horiz-adv-x="1327" 
d="M774 1798l144 -332h-134l-209 332h199zM608 129q174 0 273 98q55 55 80 160q8 31 11 42t9 43t8 42l156 805h182l-176 -895q-45 -231 -178 -341t-376 -110t-363 129q-119 130 -66 404l158 813h184l-148 -756q-47 -248 7 -332q65 -102 239 -102z" />
    <glyph glyph-name="Uhungarumlaut.sc" horiz-adv-x="1327" 
d="M602 1466l172 332h182l-239 -332h-115zM883 1466l172 332h182l-240 -332h-114zM608 129q174 0 273 98q55 55 80 160q8 31 11 42t9 43t8 42l156 805h182l-176 -895q-45 -231 -178 -341t-376 -110t-363 129q-119 130 -66 404l158 813h184l-148 -756q-47 -248 7 -332
q65 -102 239 -102z" />
    <glyph glyph-name="Umacron.sc" horiz-adv-x="1327" 
d="M559 1507l29 150h586l-29 -150h-586zM608 129q174 0 273 98q55 55 80 160q8 31 11 42t9 43t8 42l156 805h182l-176 -895q-45 -231 -178 -341t-376 -110t-363 129q-119 130 -66 404l158 813h184l-148 -756q-47 -248 7 -332q65 -102 239 -102z" />
    <glyph glyph-name="Uogonek.sc" horiz-adv-x="1327" 
d="M580 -385q-109 0 -171 39t-63 115q0 133 156 204v7q-199 26 -291 154t-43 372l158 813h184l-148 -756q-47 -248 7 -332q65 -102 239 -102t273 98q55 55 80 160q8 31 11 42t9 43t8 42l156 805h182l-176 -895q-41 -207 -144 -309t-268 -131q-215 -37 -215 -158
q0 -84 117 -84l-25 -127h-36z" />
    <glyph glyph-name="Uring.sc" horiz-adv-x="1327" 
d="M778 1676q0 -56 26 -88t76 -32t81 37t31 93t-27 88q-27 30 -76 31t-80 -36t-31 -93zM891 1901q101 -1 159 -57t58 -156t-66 -164q-66 -62 -168 -61q-104 1 -159 57t-55 153q0 96 64 162q65 66 167 66zM608 129q174 0 273 98q55 55 80 160q8 31 11 42t9 43t8 42l156 805
h182l-176 -895q-45 -231 -178 -341t-376 -110t-363 129q-119 130 -66 404l158 813h184l-148 -756q-47 -248 7 -332q65 -102 239 -102z" />
    <glyph glyph-name="Utilde.sc" horiz-adv-x="1327" 
d="M1016 1614q78 0 92 129h131q-33 -276 -246 -277q-63 0 -151 62t-119 63q-78 0 -92 -129h-131q33 276 245 277q63 -1 151 -63t120 -62zM608 129q174 0 273 98q55 55 80 160q8 31 11 42t9 43t8 42l156 805h182l-176 -895q-45 -231 -178 -341t-376 -110t-363 129
q-119 130 -66 404l158 813h184l-148 -756q-47 -248 7 -332q65 -102 239 -102z" />
    <glyph glyph-name="Wacute.sc" horiz-adv-x="1812" 
d="M1001 1466l166 332h207l-239 -332h-134zM512 0h-197l-110 1319h178l63 -862l5 -238h4q23 86 84 215l413 885h195l70 -862l6 -238h4q23 84 82 215l405 885h180l-610 -1319h-197l-71 858q-8 91 -8 211l2 25h-6q-31 -98 -91 -230z" />
    <glyph glyph-name="Wcircumflex.sc" horiz-adv-x="1812" 
d="M1229 1798l135 -332h-160l-88 209l-162 -209h-168l252 332h191zM512 0h-197l-110 1319h178l63 -862l5 -238h4q23 86 84 215l413 885h195l70 -862l6 -238h4q23 84 82 215l405 885h180l-610 -1319h-197l-71 858q-8 91 -8 211l2 25h-6q-31 -98 -91 -230z" />
    <glyph glyph-name="Wdieresis.sc" horiz-adv-x="1812" 
d="M795 1507l39 203h184l-39 -203h-184zM1188 1507l39 203h184l-39 -203h-184zM512 0h-197l-110 1319h178l63 -862l5 -238h4q23 86 84 215l413 885h195l70 -862l6 -238h4q23 84 82 215l405 885h180l-610 -1319h-197l-71 858q-8 91 -8 211l2 25h-6q-31 -98 -91 -230z" />
    <glyph glyph-name="Wgrave.sc" horiz-adv-x="1812" 
d="M1008 1798l143 -332h-133l-209 332h199zM512 0h-197l-110 1319h178l63 -862l5 -238h4q23 86 84 215l413 885h195l70 -862l6 -238h4q23 84 82 215l405 885h180l-610 -1319h-197l-71 858q-8 91 -8 211l2 25h-6q-31 -98 -91 -230z" />
    <glyph glyph-name="Yacute.sc" horiz-adv-x="1181" 
d="M690 1466l166 332h207l-240 -332h-133zM385 0l115 584l-299 735h186l227 -590h4l455 590h195l-590 -746l-111 -573h-182z" />
    <glyph glyph-name="Ycircumflex.sc" horiz-adv-x="1181" 
d="M918 1798l135 -332h-160l-88 209l-162 -209h-168l252 332h191zM385 0l115 584l-299 735h186l227 -590h4l455 590h195l-590 -746l-111 -573h-182z" />
    <glyph glyph-name="Ydieresis.sc" horiz-adv-x="1181" 
d="M483 1507l39 203h185l-39 -203h-185zM877 1507l38 203h185l-39 -203h-184zM385 0l115 584l-299 735h186l227 -590h4l455 590h195l-590 -746l-111 -573h-182z" />
    <glyph glyph-name="Ygrave.sc" horiz-adv-x="1181" 
d="M696 1798l144 -332h-133l-209 332h198zM385 0l115 584l-299 735h186l227 -590h4l455 590h195l-590 -746l-111 -573h-182z" />
    <glyph glyph-name="Zacute.sc" horiz-adv-x="1167" 
d="M690 1466l166 332h207l-240 -332h-133zM260 1161l31 158h915l-22 -129l-916 -1032h727l-28 -158h-957l25 133l911 1028h-686z" />
    <glyph glyph-name="Zcaron.sc" horiz-adv-x="1167" 
d="M674 1466l-135 332h159l88 -209l162 209h168l-252 -332h-190zM260 1161l31 158h915l-22 -129l-916 -1032h727l-28 -158h-957l25 133l911 1028h-686z" />
    <glyph glyph-name="Zdotaccent.sc" horiz-adv-x="1167" 
d="M678 1507l39 203h190l-39 -203h-190zM260 1161l31 158h915l-22 -129l-916 -1032h727l-28 -158h-957l25 133l911 1028h-686z" />
    <glyph glyph-name="Ldot.sc" horiz-adv-x="1054" 
d="M82 0l258 1319h182l-225 -1155h629l-31 -164h-813zM711 588l41 217h213l-41 -217h-213z" />
    <glyph glyph-name="napostrophe.sc" horiz-adv-x="1386" 
d="M82 0l258 1319h211l367 -924q28 -68 43 -149h4l215 1073h172l-258 -1319h-207l-369 928l-47 147h-4l-213 -1075h-172z" />
    <glyph glyph-name="Hbar.sc" horiz-adv-x="1378" 
d="M377 588l-115 -588h-180l190 979h-153l24 129h154l41 211h182l-41 -211h641l41 211h182l-40 -211h149l-25 -129h-149l-193 -979h-182l115 588h-641zM1049 741l47 238h-641l-47 -238h641z" />
    <glyph glyph-name="Idotaccent.sc" horiz-adv-x="555" 
d="M367 1507l39 203h190l-39 -203h-190zM82 0l256 1319h182l-258 -1319h-180z" />
    <glyph glyph-name="Ebreve.sc" horiz-adv-x="1171" 
d="M779 1473q-134 1 -208 81t-41 244h134q-18 -92 18 -141t111 -49q166 0 204 190h138q-33 -164 -127 -245q-95 -80 -229 -80zM82 0l258 1319h827l-28 -158h-647l-82 -420h598l-29 -155h-600l-84 -428h661l-30 -158h-844z" />
    <glyph glyph-name="yen.tab" 
d="M420 0l72 369h-396l29 141h393l37 190h-397l26 142h346l-278 676h199l225 -605h4l465 605h213l-539 -676h342l-26 -142h-404l-37 -190h408l-29 -141h-405l-72 -369h-176z" />
    <glyph glyph-name="eight.den" horiz-adv-x="841" 
d="M195 228q0 -136 171 -136q82 0 132 47q49 47 49 115t-48 103q-48 34 -128 34t-128 -46q-48 -47 -48 -117zM596 651q0 129 -142 129q-66 0 -110 -45q-43 -45 -43 -107t36 -96q37 -34 105 -32q68 0 111 43t43 108zM461 893q133 0 211 -58q78 -59 78 -155t-50 -154t-131 -82
v-4q133 -45 133 -176t-98 -207q-98 -75 -254 -75t-234 61t-77 163q0 102 58 164q58 64 157 87v4q-106 45 -106 165t90 194t223 73z" />
    <glyph glyph-name="five.den" horiz-adv-x="815" 
d="M532 324q0 139 -143 141q-100 0 -164 -74h-133l139 490h510l-26 -127h-387l-72 -246h4q74 74 190 74t178 -67t62 -175q0 -158 -105 -258t-263 -100q-307 0 -297 258h149q-2 -64 40 -100t105 -36q98 0 156 65q57 65 57 155z" />
    <glyph glyph-name="four.den" horiz-adv-x="835" 
d="M696 205h-118l-43 -205h-142l43 205h-442l20 110l531 566h174l-117 -555h119zM174 319h289l92 435h-4q-27 -68 -117 -162z" />
    <glyph glyph-name="nine.den" horiz-adv-x="831" 
d="M307 98q190 0 256 326h-4q-84 -117 -229 -117q-108 0 -178 68t-70 178q-2 143 97 241t251 99q152 0 224 -88t73 -258q0 -170 -88 -354q-45 -93 -133 -153t-205 -58q-256 4 -270 225h143q14 -109 133 -109zM571 620q0 156 -156 156q-79 0 -132 -62t-54 -143
q4 -150 146 -149q90 0 143 62t53 136z" />
    <glyph glyph-name="one.den" horiz-adv-x="559" 
d="M115 731q90 0 141 37q47 39 68 115h131l-185 -883h-149l129 616h-184l22 115h27z" />
    <glyph glyph-name="seven.den" horiz-adv-x="743" 
d="M27 0l510 752h-439l27 129h618l-20 -93l-533 -788h-163z" />
    <glyph glyph-name="six.den" horiz-adv-x="849" 
d="M217 266q0 -170 159 -170q81 0 135 60t54 137q1 164 -159 164q-80 -1 -134 -55t-55 -136zM772 668h-149q-4 51 -40 82t-98 30q-95 0 -161 -83t-95 -234h7q31 47 93 78t128 30q121 1 193 -67t71 -180q2 -142 -100 -242t-255 -100t-230 86t-77 233q-1 147 43 262t91 179
t127 108q80 43 197 43q119 1 187 -63t68 -162z" />
    <glyph glyph-name="three.den" horiz-adv-x="821" 
d="M385 391h-98l24 113h99q74 0 122 42t48 104t-39 94t-103 32q-160 0 -180 -151h-143q8 117 97 193q88 76 226 75q138 0 214 -57q76 -58 77 -154q0 -96 -54 -156t-138 -82v-4q141 -39 141 -174t-101 -210q-101 -74 -251 -74t-231 71q-81 72 -72 199h145q0 -152 168 -152
q88 0 139 45t51 115q0 131 -141 131z" />
    <glyph glyph-name="two.den" horiz-adv-x="800" 
d="M425 893q134 0 209 -57q75 -56 75 -160q1 -104 -63 -182t-193 -177l-252 -190v-2h422l-25 -125h-649l18 98l377 299q10 7 36 27t53 42t36 32l36 36t37 62t11 75t-35 71t-96 32q-169 0 -189 -178h-141q8 139 104 218t229 79z" />
    <glyph glyph-name="zero.den" horiz-adv-x="899" 
d="M369 100q84 0 146 84q116 157 116 396q0 193 -148 192q-86 0 -148 -88q-112 -159 -112 -397q1 -187 146 -187zM509 893q130 0 209 -87t75 -241q-4 -206 -100 -386q-107 -197 -347 -197q-128 0 -206 82t-79 258q0 175 96 361q48 93 135 151t217 59z" />
    <glyph glyph-name="zero.num" horiz-adv-x="899" 
d="M500 784q84 0 146 84q116 157 116 396q0 193 -148 192q-86 0 -148 -88q-112 -159 -112 -397q1 -187 146 -187zM193 983q0 200 95 384q48 93 135 151t217 59q130 0 209 -87t75 -241q-4 -206 -100 -386q-106 -197 -346 -197q-128 0 -207 82q-78 82 -78 235z" />
    <glyph glyph-name="one.num" horiz-adv-x="559" 
d="M246 1415q90 0 141 37q47 39 68 115h131l-185 -883h-149l129 616h-184l22 115h27z" />
    <glyph glyph-name="two.num" horiz-adv-x="800" 
d="M556 1577q134 0 209 -57q75 -56 75 -160t-64 -182t-192 -177l-252 -190v-2h422l-25 -125h-649l18 98l377 299q10 7 36 27t53 42q26 22 36 32t26 25q15 15 21 25q5 10 21 34t16 76t-35 84t-96 32q-168 0 -188 -178h-142q7 139 103 218t230 79z" />
    <glyph glyph-name="three.num" horiz-adv-x="821" 
d="M516 1075h-98l24 113h99q74 0 122 42t48 104t-39 94t-103 32q-160 0 -180 -151h-143q8 117 97 193t227 75q138 0 214 -57q76 -58 76 -154t-54 -156t-138 -82v-4q141 -39 141 -174t-101 -210q-100 -74 -250 -74t-232 71q-81 72 -72 199h145q0 -152 168 -152q88 0 139 45
t51 115q0 131 -141 131z" />
    <glyph glyph-name="four.num" horiz-adv-x="835" 
d="M827 889h-118l-43 -205h-142l43 205h-442l20 110l531 566h174l-117 -555h119zM305 1004h289l92 434h-4q-27 -68 -117 -162z" />
    <glyph glyph-name="five.num" horiz-adv-x="815" 
d="M664 1008q0 139 -144 141q-100 0 -164 -74h-133l139 490h510l-26 -127h-387l-72 -246h4q74 74 190 74t178 -67t62 -175q0 -158 -105 -258q-106 -100 -264 -100q-307 0 -296 258h149q-2 -64 40 -100t106 -36q97 0 155 65t58 155z" />
    <glyph glyph-name="six.num" horiz-adv-x="849" 
d="M348 950q0 -170 159 -170q81 0 135 60t54 137q0 164 -160 164q-80 -1 -134 -55t-54 -136zM903 1352h-149q-4 51 -40 82t-98 30q-94 0 -160 -83t-96 -234h7q31 47 93 78t128 30q120 1 192 -67t72 -180q2 -142 -100 -242t-255 -100t-230 86t-77 233t44 262t90 179
q47 64 127 108q79 43 197 43q118 1 186 -63t69 -162z" />
    <glyph glyph-name="seven.num" horiz-adv-x="743" 
d="M158 684l510 752h-439l27 129h618l-20 -92l-532 -789h-164z" />
    <glyph glyph-name="eight.num" horiz-adv-x="841" 
d="M326 912q0 -136 171 -136q82 0 132 47q49 47 49 115t-48 103q-48 34 -128 34t-128 -46q-48 -47 -48 -117zM432 1312q0 -128 140 -128q68 0 112 43q43 43 43 108q-1 129 -143 129q-66 0 -109 -45t-43 -107zM279 1310q0 120 90 194t223 73q133 0 211 -58q78 -59 78 -155
q-1 -96 -51 -154t-130 -82v-4q134 -45 134 -176t-98 -207q-98 -75 -255 -75q-155 0 -233 61t-78 163t58 164q58 64 157 87v4q-106 45 -106 165z" />
    <glyph glyph-name="nine.num" horiz-adv-x="831" 
d="M438 782q190 0 256 326h-4q-84 -117 -229 -117q-109 0 -179 68t-69 178q-2 143 97 241t251 99q153 0 225 -88t72 -258t-88 -354q-45 -93 -133 -153t-205 -58q-256 4 -270 225h143q14 -109 133 -109zM702 1304q0 156 -156 156q-79 0 -132 -62t-54 -143q4 -150 146 -149
q90 0 143 62t53 136z" />
    <glyph glyph-name="minus.den" horiz-adv-x="815" 
d="M74 365l22 120h592l-24 -120h-590z" />
    <glyph glyph-name="plus.den" horiz-adv-x="811" 
d="M432 367l-49 -232h-135l49 232h-234l23 116h236l47 230h135l-47 -230h233l-22 -116h-236z" />
    <glyph glyph-name="parenleft.tab" horiz-adv-x="614" 
d="M483 -266h-137q-42 110 -68 184t-50 206t-23 273q0 612 483 1217h150q-221 -307 -337 -605q-238 -610 -18 -1275z" />
    <glyph glyph-name="parenright.tab" horiz-adv-x="614" 
d="M199 1614h137q42 -110 68 -184t50 -206t23 -274q0 -612 -483 -1216h-150q221 307 337 605q238 610 18 1275z" />
    <glyph glyph-name="bracketleft.tab" horiz-adv-x="614" 
d="M53 -266l367 1880h436l-27 -137h-270l-313 -1606h270l-27 -137h-436z" />
    <glyph glyph-name="bracketright.tab" horiz-adv-x="614" 
d="M612 1614l-366 -1880h-436l26 137h270l314 1606h-270l26 137h436z" />
    <glyph glyph-name="braceleft.tab" horiz-adv-x="614" 
d="M131 616h-49l31 152h49q88 0 127 32t55 118l82 432q30 160 138 224t315 48l-25 -127q-140 8 -198 -39t-81 -168l-75 -391q-24 -141 -103 -176q-35 -16 -88 -25l-2 -8q86 -25 107 -97q20 -73 -4 -153l-74 -366q-25 -125 17 -163t184 -56l-27 -127q-203 6 -287 86t-47 260
l76 379q18 90 -11 128q-30 37 -110 37z" />
    <glyph glyph-name="braceright.tab" horiz-adv-x="614" 
d="M543 733h49l-31 -151h-49q-88 0 -127 -32t-55 -118l-82 -432q-30 -160 -138 -224t-315 -48l25 127q141 -8 198 39t80 167l66 342q12 66 30 113q17 47 61 90t110 47l2 9q-86 25 -107 97q-20 73 4 152l74 367q25 125 -17 163t-184 56l27 127q205 -6 287 -89t45 -271
l-74 -365q-18 -90 12 -128t109 -38z" />
    <glyph glyph-name="eight.sub" horiz-adv-x="841" 
d="M172 106q0 -136 172 -137q82 0 131 47q49 48 49 116t-48 102t-128 34t-128 -46t-48 -116zM279 505q0 -128 140 -128q69 0 111 43q42 42 43 108q-1 128 -143 129q-66 0 -108 -45t-43 -107zM125 503q0 119 90 193t223 74t211 -58t78 -154t-50 -156q-50 -58 -130 -80v-5
q133 -45 133 -176t-98 -207t-254 -76t-234 62q-78 60 -78 162t58 166t157 86v4q-106 45 -106 165z" />
    <glyph glyph-name="eight.sup" horiz-adv-x="841" 
d="M346 1018q0 -136 172 -137q82 0 131 47q49 48 49 116t-48 102t-128 34t-128 -46t-48 -116zM453 1416q0 -128 140 -128q69 0 112 43t43 109q0 130 -144 129q-66 0 -108 -45q-42 -46 -43 -108zM612 1681q133 0 211 -58q78 -59 78 -155t-50 -154t-130 -81v-4
q133 -45 133 -176t-98 -207t-254 -76t-234 61t-78 163t58 165t158 86v4q-106 45 -106 165t89 194q90 74 223 73z" />
    <glyph glyph-name="five.sub" horiz-adv-x="815" 
d="M510 201q0 139 -143 141q-100 0 -164 -74h-133l139 490h510l-27 -127h-387l-72 -246h5q74 74 190 74t177 -67q62 -67 63 -175q0 -158 -106 -258t-263 -100q-305 0 -297 258h150q-2 -63 39 -100q42 -36 106 -35q98 0 156 64q57 65 57 155z" />
    <glyph glyph-name="five.sup" horiz-adv-x="815" 
d="M684 1112q0 139 -143 141q-100 0 -164 -73h-133l139 489h510l-27 -127h-387l-71 -246h4q74 74 190 74t177 -66q62 -66 63 -176q0 -158 -106 -258t-263 -100q-305 0 -297 258h150q-2 -63 40 -99t105 -36q98 0 156 64q57 65 57 155z" />
    <glyph glyph-name="four.sub" horiz-adv-x="835" 
d="M674 82h-119l-43 -205h-141l43 205h-443l21 111l530 565h174l-116 -555h118zM152 197h288l92 434h-4q-27 -68 -116 -162z" />
    <glyph glyph-name="four.sup" horiz-adv-x="835" 
d="M848 993h-119l-43 -205h-141l43 205h-443l21 111l530 565h174l-116 -555h118zM326 1108h288l93 434h-5q-27 -68 -116 -162z" />
    <glyph glyph-name="minus.sub" horiz-adv-x="815" 
d="M51 242l23 120h592l-25 -120h-590z" />
    <glyph glyph-name="minus.sup" horiz-adv-x="815" 
d="M225 1153l23 121h592l-25 -121h-590z" />
    <glyph glyph-name="nine.sub" horiz-adv-x="831" 
d="M285 -25q190 0 256 326h-4q-84 -117 -230 -117q-109 0 -179 68t-69 178q-3 144 97 242t252 98t224 -88q73 -88 73 -257t-89 -355q-44 -94 -132 -154t-205 -57q-256 4 -271 225h144q14 -109 133 -109zM549 498q0 156 -157 155q-79 0 -132 -62t-53 -142q4 -150 145 -150
q90 0 144 62q53 63 53 137z" />
    <glyph glyph-name="nine.sup" horiz-adv-x="831" 
d="M582 1681q152 0 224 -88t73 -256q0 -168 -88 -356q-45 -93 -133 -153t-205 -58q-256 4 -271 225h144q14 -109 133 -108q190 0 256 325h-4q-84 -117 -230 -116q-109 0 -179 68t-69 177q-3 143 97 241t252 99zM566 1565q-79 -1 -132 -63t-53 -142q4 -150 145 -150
q90 0 144 62t53 137q0 74 -39 115t-118 41z" />
    <glyph glyph-name="one.sub" horiz-adv-x="559" 
d="M92 608q88 0 141 37q47 39 68 115h131l-184 -883h-150l129 617h-184l23 114h26z" />
    <glyph glyph-name="one.sup" horiz-adv-x="559" 
d="M266 1520q90 0 142 36q47 39 67 115h131l-184 -883h-150l129 617h-184l23 115h26z" />
    <glyph glyph-name="plus.sub" horiz-adv-x="811" 
d="M410 244l-50 -232h-135l49 232h-233l22 116h236l47 230h135l-47 -230h234l-23 -116h-235z" />
    <glyph glyph-name="plus.sup" horiz-adv-x="811" 
d="M584 1155l-49 -231h-136l50 231h-234l23 117h235l47 229h135l-47 -229h234l-23 -117h-235z" />
    <glyph glyph-name="seven.sub" horiz-adv-x="743" 
d="M4 -123l510 752h-438l26 129h619l-21 -92l-532 -789h-164z" />
    <glyph glyph-name="seven.sup" horiz-adv-x="743" 
d="M178 788l510 752h-438l26 129h619l-21 -92l-532 -789h-164z" />
    <glyph glyph-name="six.sub" horiz-adv-x="849" 
d="M195 144q0 -170 158 -171q81 -1 135 59t54 138t-39 121q-40 43 -120 43t-134 -54t-54 -136zM750 545h-150q-4 51 -40 82t-97 30q-94 0 -161 -83t-95 -234h6q31 47 93 78t128 31q121 0 193 -68t71 -180q2 -143 -100 -243t-255 -99q-153 0 -229 86t-77 234q0 148 43 262
t90 179q47 66 127 108q79 42 197 42t187 -64t69 -161z" />
    <glyph glyph-name="six.sup" horiz-adv-x="849" 
d="M717 1081q0 164 -160 164q-80 0 -134 -54q-54 -55 -54 -137q0 -170 158 -169q81 0 136 59q54 59 54 137zM924 1456h-150q-4 51 -40 82t-97 31q-94 0 -161 -83t-95 -235h6q31 47 93 78t128 31q121 0 193 -68t71 -180q2 -142 -100 -242t-255 -100t-229 86t-77 235
q0 149 43 262t90 178t127 107q79 42 197 43t187 -63t69 -162z" />
    <glyph glyph-name="three.sub" horiz-adv-x="821" 
d="M362 268h-98l25 113h98q74 0 122 42q48 43 48 105t-39 94t-102 31q-160 0 -180 -151h-144q8 116 97 192t227 76t214 -57q77 -57 77 -153q-1 -96 -55 -156t-138 -82v-5q141 -39 141 -174t-101 -210q-100 -75 -250 -75t-231 72t-73 199h145q0 -152 168 -152q87 -1 139 45
t52 115q-1 131 -142 131z" />
    <glyph glyph-name="three.sup" horiz-adv-x="821" 
d="M537 1180h-99l25 112h98q74 0 122 42t48 104t-39 95q-39 32 -102 32q-160 0 -180 -152h-144q8 117 98 193t226 76q137 0 214 -58t77 -154q-1 -96 -55 -155t-138 -82v-4q141 -39 141 -174t-101 -210q-100 -75 -250 -75t-231 72t-73 198h145q0 -152 168 -151q88 0 140 45
q51 45 51 115q0 131 -141 131z" />
    <glyph glyph-name="two.sub" horiz-adv-x="800" 
d="M402 770q134 0 210 -57q74 -57 74 -161t-63 -181q-63 -78 -193 -176l-252 -191v-2h422l-25 -125h-649l19 98q377 299 408 323q30 22 39 30q10 8 30 25t28 25l22 22q40 40 49 76t9 74t-34 70q-35 32 -97 31q-168 0 -188 -178h-141q8 139 103 218t229 79z" />
    <glyph glyph-name="two.sup" horiz-adv-x="800" 
d="M860 1464q0 -104 -63 -182t-193 -176l-252 -191v-2h422l-24 -125h-650l19 99l377 299q10 8 71 54t101 96q33 50 35 107q2 56 -33 88t-97 32q-168 -1 -188 -179h-141q8 138 103 218t229 80t210 -58q74 -56 74 -160z" />
    <glyph glyph-name="zero.sub" horiz-adv-x="899" 
d="M346 -23q84 0 147 84q117 159 115 396q0 193 -147 192q-87 0 -149 -88q-114 -160 -111 -397q0 -187 145 -187zM39 176q0 200 95 384q48 94 135 152t217 58t209 -87t75 -266t-99 -361q-106 -197 -347 -197q-129 1 -207 83t-78 234z" />
    <glyph glyph-name="zero.sup" horiz-adv-x="899" 
d="M520 889q84 0 147 84q117 159 115 395q0 193 -147 193q-87 0 -149 -88q-114 -160 -111 -398q0 -186 145 -186zM660 1681q130 0 209 -87q123 -135 49 -439q-60 -237 -206 -331q-85 -54 -214 -54t-207 82t-78 257q0 174 95 362q48 93 135 151t217 59z" />
    <glyph glyph-name="Q.old" horiz-adv-x="1642" 
d="M358 596q0 -100 22 -180q81 -295 408 -295q94 0 175 31l-144 219l146 92l143 -223q133 118 202 318q68 200 68 404t-98 340t-311 136q-131 0 -239 -58t-174 -146q-134 -178 -178 -428q-20 -110 -20 -210zM166 596q0 424 231 709t582 284q281 0 437 -175
q156 -174 155 -440q0 -266 -98 -499t-279 -369l139 -215l-143 -90l-143 222q-125 -55 -279 -56q-282 0 -442 176t-160 453z" />
    <glyph glyph-name="Q.scold" horiz-adv-x="1409" 
d="M317 463q0 -152 86 -249t265 -97q70 0 127 18l-121 176l131 92l127 -186q106 98 154 269q48 172 48 342t-83 265q-84 95 -250 95q-109 0 -195 -47t-138 -122q-108 -156 -137 -366q-14 -94 -14 -190zM641 -27q-233 0 -373 133q-139 133 -139 357q0 278 111 506t322 319
q114 49 251 49q236 0 373 -134t137 -360t-80 -427t-231 -316l116 -174l-129 -90l-127 184q-111 -47 -231 -47z" />
    <glyph glyph-name="Euro.tab" 
d="M307 991q173 549 587 549q204 0 306 -129q104 -129 76 -330h-178q29 307 -217 308q-147 1 -239 -97t-150 -301h440l-29 -145h-450q-16 -70 -35 -187h452l-28 -145h-443q-16 -207 43 -300q58 -93 190 -93t221 86t128 217h180q-57 -211 -193 -334t-344 -123t-315 134
q-106 134 -92 413h-170l29 145h155q17 108 37 187h-159l28 145h170z" />
    <glyph glyph-name="dollar.tab" 
d="M270 1102q0 190 136 308t348 126l30 160h134l-33 -168q170 -28 265 -136t83 -300h-178q8 112 -43 188t-156 100l-100 -520l39 -14q182 -66 258 -156t75 -241q0 -205 -152 -331t-390 -134l-43 -222h-133l45 228q-184 25 -288 138q-103 114 -91 327h180q-6 -279 227 -316
l115 590l-41 14q-287 94 -287 359zM946 434q0 94 -53 152t-172 100l-107 -551h11q133 14 227 92t94 207zM631 903l94 486q-121 -10 -199 -78t-77 -181q0 -164 182 -227z" />
    <glyph glyph-name="dieresis.uc" horiz-adv-x="755" 
d="M47 1683l39 203h184l-39 -203h-184zM481 1683l39 203h185l-39 -203h-185z" />
    <glyph glyph-name="zero.tab" 
d="M567 119q121 0 216 102q155 167 224 555q26 147 25 266q0 346 -256 347q-123 -1 -219 -103t-147 -255q-103 -309 -103 -566q0 -346 260 -346zM793 1540q211 0 319 -135t107 -388q0 -253 -89 -515q-50 -147 -122 -264t-192 -194t-269 -77q-211 0 -320 135
q-108 135 -108 389t88 515q49 147 123 264q74 118 194 194t269 76z" />
    <glyph glyph-name="one.tab" 
d="M481 1249q276 0 340 275h148l-264 -1370h301l-31 -154h-787l31 154h303l187 964h-328l25 131h75z" />
    <glyph glyph-name="nine.tab" 
d="M297 342q0 -102 58 -166t171 -63q354 0 482 639h-9q-121 -182 -368 -183q-176 0 -289 116t-113 300q0 225 155 390t384 165q117 0 207 -42q158 -74 218 -264q26 -84 26 -200q0 -283 -97 -553q-53 -147 -131 -259q-77 -112 -201 -182t-294 -71t-274 107t-99 266h174z
M674 723q168 -1 264 107t96 254t-76 223q-76 78 -198 77q-160 0 -251 -120t-91 -256q0 -134 66 -210t190 -75z" />
    <glyph glyph-name="eight.tab" 
d="M289 378q0 -134 84 -198q85 -64 233 -65q148 0 242 90t94 225t-89 200q-89 64 -233 64t-238 -91q-93 -91 -93 -225zM1030 1138q0 124 -74 190t-201 65q-126 0 -209 -90q-83 -89 -83 -215t73 -188q74 -62 198 -62t210 88t86 212zM772 1540q196 0 320 -106t122 -281
q0 -141 -87 -252t-216 -145v-4q89 -29 153 -110t64 -202q0 -217 -160 -345t-382 -128q-224 -1 -354 105t-130 278t98 284t255 148v4q-76 33 -126 114t-50 185q0 201 148 328q149 127 345 127z" />
    <glyph glyph-name="seven.tab" 
d="M178 0l850 1352h-778l33 166h989l-25 -121l-878 -1397h-191z" />
    <glyph glyph-name="six.tab" 
d="M578 125q164 0 260 123q96 124 96 272t-74 220t-198 73q-160 0 -260 -118t-99 -264q0 -146 74 -226t201 -80zM1022 1190q0 94 -59 148t-156 55q-334 0 -467 -611h8q125 188 369 189q184 0 296 -111t111 -295q0 -256 -156 -426t-390 -170q-234 1 -347 141t-112 353
q0 299 102 568q55 144 133 257q78 112 199 182t281 70t264 -98q102 -98 98 -252h-174z" />
    <glyph glyph-name="five.tab" 
d="M555 125q174 0 274 132t101 310q0 274 -248 275q-197 0 -297 -133h-164l203 809h766l-33 -164h-610l-113 -475h4q47 49 124 85t165 35q188 0 292 -112q103 -113 103 -293q0 -266 -158 -446q-159 -179 -415 -179q-211 1 -334 117t-109 309h185q-3 -135 67 -203t197 -67z
" />
    <glyph glyph-name="space_uni0326.alt" horiz-adv-x="755" 
d="M520 1579l-100 -281h-195l181 281h114z" />
    <glyph glyph-name="four.tab" 
d="M1120 373h-192l-72 -373h-172l72 373h-693l27 143l854 1002h207l-193 -990h193zM291 526h495l150 768h-6q-43 -70 -121 -159z" />
    <glyph glyph-name="three.tab" 
d="M670 688h-92l32 168h72q145 0 230 77t85 203t-69 187q-70 61 -193 61t-210 -74t-107 -227h-185q17 205 161 331t348 126t322 -102t118 -263t-84 -263t-219 -144v-4q96 -29 158 -113t63 -215q0 -207 -154 -337t-384 -130t-356 122q-128 122 -114 335h182q4 -299 308 -299
q154 0 244 88t92 212q0 125 -64 193t-184 68z" />
    <glyph glyph-name="uni021A.sc" horiz-adv-x="1155" 
d="M254 -422l100 281h195l-180 -281h-115zM791 1161l-228 -1161h-182l227 1161h-426l29 158h1036l-28 -158h-428z" />
    <glyph glyph-name="two.tab" 
d="M754 1540q202 0 314 -96t110 -274t-100 -311q-98 -134 -259 -267l-514 -426v-2h731l-30 -164h-988l27 141l569 480q265 226 324 324q59 97 58 207t-61 172t-181 62q-287 0 -326 -333h-174q16 247 158 367q140 120 342 120z" />
    </font>
</defs>
</svg>
