<?xml version="1.0" standalone="no"?>
<!DOCTYPE svg PUBLIC "-//W3C//DTD SVG 1.1//EN" "http://www.w3.org/Graphics/SVG/1.1/DTD/svg11.dtd" >
<svg xmlns="http://www.w3.org/2000/svg">
<metadata>
Created by FontPrep 20130207 at Tue Nov 22 11:52:11 2016
 By Brendan Gatens
(c) 2010 Klim Type Foundry. All rights reserved.
</metadata>
<defs>
<font id="7635d15b6c6c0b4ad287cd93fd5353a9" horiz-adv-x='1024' >
  <font-face 
    font-family="FoundersGrotesk-RegularItalic"
    font-weight="400"
    font-style="italic"
    font-stretch="normal"
    units-per-em="2048"
    panose-1="2 11 5 3 3 2 2 13 2 3"
    ascent="1290"
    descent="-758"
    x-height="895"
    cap-height="1290"
    bbox="-315 -395 2249 1907"
    underline-thickness="81"
    underline-position="-62"
    slope="-14"
    unicode-range="U+0020-FB04"
  />
<missing-glyph horiz-adv-x="1245" 
 />
    <glyph glyph-name="ff" unicode="ff" horiz-adv-x="1122" 
d="M1169 1315q219 0 258 -209l-120 -37q-23 121 -136 121q-127 0 -165 -160l-33 -135h246l-31 -123h-244l-192 -772h-170l192 772h-371l-192 -772h-168l193 772h-138l31 123h135l25 96q35 145 123 224t210 79t205 -71l-67 -107q-51 51 -123 51q-139 0 -178 -174l-25 -98h371
l33 131q72 289 331 289z" />
    <glyph glyph-name="fi" unicode="fi" horiz-adv-x="976" 
d="M676 1315q118 -1 196 -59t99 -164l-131 -43q-23 135 -162 135q-172 0 -223 -209l-21 -80h541l-223 -895h-170l192 772h-371l-192 -772h-168l193 772h-138l31 123h135l17 66q88 354 395 354z" />
    <glyph glyph-name="fl" unicode="fl" horiz-adv-x="976" 
d="M622 1315q120 0 193 -62l-61 -106q-45 39 -113 39q-135 0 -178 -174l-29 -117h238l-31 -123h-238l-192 -772h-168l193 772h-138l31 123h135l29 115q35 145 122 225t207 80zM903 1290h170l-321 -1290h-170z" />
    <glyph glyph-name="ffi" unicode="ffi" horiz-adv-x="1515" 
d="M1214 1315q117 -1 196 -59t99 -164l-131 -43q-23 135 -161 135q-168 0 -224 -209l-20 -80h540l-223 -895h-170l193 772h-369l-192 -772h-170l192 772h-371l-192 -772h-168l193 772h-138l31 123h135l25 96q35 145 123 224t210 79t205 -71l-67 -107q-51 51 -123 51
q-139 0 -178 -174l-25 -98h371l14 66q88 354 395 354z" />
    <glyph glyph-name="ffl" unicode="ffl" horiz-adv-x="1515" 
d="M622 1294q122 0 205 -71l-67 -107q-51 51 -123 51q-139 0 -178 -174l-25 -98h371l26 115q35 145 122 225t207 80t194 -62l-60 -106q-49 39 -114 39q-133 0 -179 -174l-28 -117h239l-32 -123h-236l-192 -772h-170l192 772h-371l-192 -772h-168l193 772h-138l31 123h135
l25 96q35 145 123 224t210 79zM1442 1290h170l-322 -1290h-170z" />
    <glyph glyph-name="f_b" unicode="fb" horiz-adv-x="1665" 
d="M1612 565q0 -227 -142 -408t-376 -182q-114 -1 -194 57t-105 150l-78 -182h-135l321 1290h170l-141 -561q51 86 143 138t201 53q160 0 248 -98t88 -257zM1206 784q-111 0 -207 -76t-127 -202l-18 -76q-36 -141 26 -232q62 -92 208 -92t245 134q100 134 101 313
q0 113 -58 172t-170 59zM622 1315q120 0 193 -62l-61 -106q-45 39 -113 39q-135 0 -178 -174l-29 -117h238l-31 -123h-238l-192 -772h-168l193 772h-138l31 123h135l29 115q35 145 122 225t207 80z" />
    <glyph glyph-name="f_f_b" unicode="ffb" horiz-adv-x="2203" 
d="M2152 565q0 -227 -142 -408t-376 -182q-114 -1 -194 57t-105 150l-78 -182h-135l322 1290h170l-141 -561q51 86 143 138t201 53q159 0 247 -98t88 -257zM1974 553q0 113 -58 172t-169 59t-207 -76t-127 -202l-18 -76q-37 -141 25 -232q62 -92 208 -92t246 134t100 313z
M622 1294q122 0 205 -71l-67 -107q-51 51 -123 51q-139 0 -178 -174l-25 -98h371l26 115q35 145 122 225t207 80t194 -62l-60 -106q-49 39 -114 39q-133 0 -179 -174l-28 -117h239l-32 -123h-236l-192 -772h-170l192 772h-371l-192 -772h-168l193 772h-138l31 123h135l25 96
q35 145 123 224t210 79z" />
    <glyph glyph-name="f_h" unicode="fh" horiz-adv-x="1591" 
d="M874 498l-122 -498h-170l321 1290h170l-141 -559q125 188 328 189q162 0 228 -102t25 -267l-137 -551h-170l133 541q29 115 -10 179t-143 64t-193 -77q-88 -78 -119 -209zM622 1315q120 0 193 -62l-61 -106q-45 39 -113 39q-135 0 -178 -174l-29 -117h238l-31 -123h-238
l-192 -772h-168l193 772h-138l31 123h135l29 115q35 145 122 225t207 80z" />
    <glyph glyph-name="f_f_h" unicode="ffh" horiz-adv-x="2129" 
d="M1415 498l-123 -498h-170l322 1290h170l-141 -559q125 188 327 189q162 0 228 -102t26 -267l-137 -551h-170l133 541q29 115 -10 179q-40 64 -144 64t-192 -78t-119 -208zM622 1294q122 0 205 -71l-67 -107q-51 51 -123 51q-139 0 -178 -174l-25 -98h371l26 115
q35 145 122 225t207 80t194 -62l-60 -106q-49 39 -114 39q-133 0 -179 -174l-28 -117h239l-32 -123h-236l-192 -772h-170l192 772h-371l-192 -772h-168l193 772h-138l31 123h135l25 96q35 145 123 224t210 79z" />
    <glyph glyph-name="f_idieresis" unicode="f&#xef;" horiz-adv-x="976" 
d="M993 1081l47 193h168l-47 -193h-168zM645 1315q219 0 260 -211l-129 -41q-20 127 -135 127q-133 0 -178 -174l-29 -121h541l-221 -895h-170l192 772h-373l-192 -772h-168l193 772h-138l31 123h135l29 113q80 307 352 307z" />
    <glyph glyph-name="f_f_idieresis" unicode="ff&#xef;" horiz-adv-x="1517" 
d="M1532 1081l49 193h166l-47 -193h-168zM622 1294q122 0 205 -71l-67 -107q-51 51 -123 51q-139 0 -178 -174l-25 -98h371l26 113q80 307 353 307q219 0 260 -211l-127 -41q-25 127 -135 127q-135 0 -178 -174l-31 -121h543l-224 -895h-170l193 772h-371l-192 -772h-170
l192 772h-371l-192 -772h-168l193 772h-138l31 123h135l25 96q35 145 123 224t210 79z" />
    <glyph glyph-name="f_j" unicode="fj" horiz-adv-x="976" 
d="M676 1315q118 -1 196 -59t99 -164l-131 -43q-23 135 -162 135q-172 0 -223 -209l-21 -80h541l-260 -1051q-53 -213 -248 -213q-129 0 -207 78l68 98q60 -47 112 -47t74 24t35 81l225 907h-371l-192 -772h-168l193 772h-138l31 123h135l17 66q88 354 395 354z" />
    <glyph glyph-name="f_f_j" unicode="ffj" horiz-adv-x="1515" 
d="M622 1294q122 0 205 -71l-67 -107q-51 51 -123 51q-139 0 -178 -174l-25 -98h371l14 66q88 354 395 354q117 -1 196 -59t99 -164l-131 -43q-23 135 -161 135q-168 0 -224 -209l-20 -80h540l-262 -1051q-51 -213 -247 -213q-127 0 -205 78l65 98q60 -47 112 -47t74 24
q21 24 35 81l228 907h-369l-192 -772h-170l192 772h-371l-192 -772h-168l193 772h-138l31 123h135l25 96q35 145 123 224t210 79z" />
    <glyph glyph-name="f_k" unicode="fk" horiz-adv-x="1554" 
d="M829 324l-77 -324h-170l321 1290h170l-201 -794l537 399h225l-514 -377l312 -518h-187l-260 434zM622 1315q120 0 193 -62l-61 -106q-45 39 -113 39q-135 0 -178 -174l-29 -117h238l-31 -123h-238l-192 -772h-168l193 772h-138l31 123h135l29 115q35 145 122 225t207 80z
" />
    <glyph glyph-name="f_f_k" unicode="ffk" horiz-adv-x="2093" 
d="M1370 324l-78 -324h-170l322 1290h170l-201 -794l537 399h225l-514 -377l311 -518h-186l-260 434zM622 1294q122 0 205 -71l-67 -107q-51 51 -123 51q-139 0 -178 -174l-25 -98h371l26 115q35 145 122 225t207 80t194 -62l-60 -106q-49 39 -114 39q-133 0 -179 -174
l-28 -117h239l-32 -123h-236l-192 -772h-170l192 772h-371l-192 -772h-168l193 772h-138l31 123h135l25 96q35 145 123 224t210 79z" />
    <glyph glyph-name=".notdef" horiz-adv-x="1245" 
 />
    <glyph glyph-name=".null" horiz-adv-x="0" 
 />
    <glyph glyph-name="nonmarkingreturn" horiz-adv-x="681" 
 />
    <glyph glyph-name="space" unicode=" " horiz-adv-x="368" 
 />
    <glyph glyph-name="exclam" unicode="!" horiz-adv-x="391" 
d="M330 1290h182l-90 -360l-199 -592h-82l99 592zM-2 0l49 205h205l-49 -205h-205z" />
    <glyph glyph-name="quotedbl" unicode="&#x22;" horiz-adv-x="591" 
d="M438 834l121 456h146l-121 -456h-146zM180 834l121 456h145l-120 -456h-146z" />
    <glyph glyph-name="numbersign" unicode="#" horiz-adv-x="1251" 
d="M590 829l-148 -368h293l150 368h-295zM1128 461l-43 -119h-249l-138 -342h-149l137 342h-293l-137 -342h-150l138 342h-209l39 119h219l147 368h-241l41 121h249l138 340h149l-137 -340h295l137 340h148l-138 -340h213l-41 -121h-221l-147 -368h243z" />
    <glyph glyph-name="dollar" unicode="$" horiz-adv-x="1148" 
d="M588 111q147 -1 229 65t82 178q0 76 -50 121t-159 76l-10 2l-111 -442h19zM391 944q0 -78 48 -124t149 -75l22 -8l111 441l-39 2q-139 0 -215 -62t-76 -174zM217 924q0 172 127 282t342 109q23 0 68 -4l45 182h114l-51 -203q160 -45 243 -171t62 -308l-155 2
q16 117 -34 208t-151 132l-110 -446l43 -11q158 -45 236 -122t77 -199q0 -187 -138 -293t-349 -107q-35 0 -51 2l-46 -186h-114l49 201q-190 39 -289 173q-98 134 -69 347l159 -2q-23 -154 41 -254t193 -131l114 459l-88 26q-268 74 -268 314z" />
    <glyph glyph-name="percent" unicode="%" horiz-adv-x="1515" 
d="M1458 387q0 -176 -108 -294t-239 -118q-132 0 -202 72t-69 193q0 176 106 295t238 119t204 -73q70 -73 70 -194zM1108 88q90 0 150 87t59 226q0 139 -129 140q-90 0 -148 -87q-58 -86 -59 -226q0 -140 127 -140zM1393 1309l-1012 -1327h-152l1014 1327h150zM166 903
q0 176 107 294q108 118 239 118t202 -72t70 -192q0 -176 -106 -295t-240 -119q-134 -1 -202 71q-70 72 -70 195zM514 1202q-90 0 -148 -87t-59 -226q0 -139 127 -139q90 0 150 87q59 87 59 226t-129 139z" />
    <glyph glyph-name="ampersand" unicode="&#x26;" horiz-adv-x="1275" 
d="M717 1188q-83 0 -145 -62t-62 -164t55 -194q168 52 242 114t76 165q2 63 -41 102t-125 39zM436 113q156 0 301 98q-4 4 -8 12l-260 389q-141 -55 -203 -118q-62 -64 -61 -162q0 -98 65 -159q66 -60 166 -60zM1110 115q43 0 107 14l-31 -111q-70 -35 -139 -34
q-123 0 -234 125q-197 -133 -381 -133t-290 92t-107 239q0 147 93 243t280 165q-59 119 -60 225q0 164 111 269t265 105t231 -70t77 -198q0 -243 -401 -380l229 -353q146 150 209 349l154 -17q-98 -256 -289 -436q84 -94 176 -94z" />
    <glyph glyph-name="quotesingle" unicode="'" horiz-adv-x="337" 
d="M180 834l121 456h150l-121 -456h-150z" />
    <glyph glyph-name="parenleft" unicode="(" horiz-adv-x="591" 
d="M86 334q0 557 506 1018h176q-250 -229 -379 -507t-129 -513q0 -297 129 -504h-156q-147 215 -147 506z" />
    <glyph glyph-name="parenright" unicode=")" horiz-adv-x="591" 
d="M571 846q0 -557 -505 -1018h-177q250 229 379 507t129 513q0 297 -129 504h154q149 -215 149 -506z" />
    <glyph glyph-name="asterisk" unicode="*" horiz-adv-x="733" 
d="M158 1098l65 100l217 -131l56 252l116 -27l-57 -248l256 23l8 -119l-252 -22l101 -234l-111 -45l-100 230l-191 -166l-76 90l189 164z" />
    <glyph glyph-name="plus" unicode="+" horiz-adv-x="1265" 
d="M733 1163h141l-112 -452h452l-34 -144h-453l-113 -452h-143l113 452h-451l35 144h450z" />
    <glyph glyph-name="comma" unicode="," horiz-adv-x="360" 
d="M-27 0l50 205h204l-49 -201q-29 -115 -86 -171t-176 -58l25 100q59 4 85 30t44 95h-97z" />
    <glyph glyph-name="hyphen" unicode="-" horiz-adv-x="704" 
d="M111 446l39 152h471l-39 -152h-471z" />
    <glyph glyph-name="period" unicode="." horiz-adv-x="360" 
d="M-27 0l50 205h204l-49 -205h-205z" />
    <glyph glyph-name="slash" unicode="/" horiz-adv-x="667" 
d="M-174 -170l913 1520h166l-911 -1520h-168z" />
    <glyph glyph-name="zero" unicode="0" horiz-adv-x="1204" 
d="M564 -25q-226 -1 -347 133t-121 361q0 119 29 236q67 299 227 455t385 155q225 0 347 -133t122 -361q0 -104 -28 -235q-68 -299 -228 -455t-386 -156zM578 119q152 1 253 113q100 112 162 362q33 131 33 237q0 164 -76 252t-228 88q-152 1 -252 -113q-101 -114 -163 -362
q-33 -131 -33 -237q0 -164 76 -252t228 -88z" />
    <glyph glyph-name="one" unicode="1" horiz-adv-x="591" 
d="M141 987l29 115q131 0 210 46t142 150h115l-322 -1298h-178l246 987h-242z" />
    <glyph glyph-name="two" unicode="2" horiz-adv-x="1034" 
d="M653 1169q-153 -1 -237 -109t-84 -294l-172 10q4 238 138 388t348 151q214 -1 318 -101q103 -100 103 -246t-66 -239q-37 -53 -67 -90q-60 -72 -322 -248l-350 -237h662l-37 -154h-948l24 102l506 363q21 14 81 55t132 96t100 88q27 34 56 74q53 74 53 173q-1 99 -63 159
t-175 59z" />
    <glyph glyph-name="three" unicode="3" horiz-adv-x="1056" 
d="M809 395q0 186 -227 187q-78 0 -125 -7l35 146q43 -6 144 -6t198 64q96 65 96 196q0 88 -60 142t-186 54q-125 1 -216 -79t-126 -236l-170 8q47 211 187 331t340 120t300 -89q101 -90 101 -236t-95 -235t-225 -110q96 -27 151 -93q54 -67 54 -159q0 -195 -140 -307
q-141 -112 -369 -111q-228 -1 -349 137t-78 345l164 -11q-31 -150 50 -238t227 -89t233 69q86 70 86 207z" />
    <glyph glyph-name="four" unicode="4" horiz-adv-x="1120" 
d="M885 1122l-676 -633h518zM1100 1290l-201 -801h221l-37 -145h-219l-86 -344h-174l86 344h-678l43 172l824 774h221z" />
    <glyph glyph-name="five" unicode="5" horiz-adv-x="1075" 
d="M634 858q179 0 282 -104t104 -277q0 -221 -142 -361t-366 -140t-350 136q-125 138 -76 345l164 -15q-29 -139 48 -232q76 -93 224 -93t237 96q89 97 89 233t-66 204t-182 67q-195 0 -299 -160l-172 12q170 387 262 721h742l-39 -160h-609q-14 -51 -67 -199t-76 -200
q113 127 292 127z" />
    <glyph glyph-name="six" unicode="6" horiz-adv-x="1120" 
d="M911 461q1 117 -73 187t-214 71q-140 0 -241 -92q-100 -93 -100 -229q-1 -136 73 -208t214 -72t241 94q100 93 100 249zM743 1174q-186 0 -308 -148t-169 -414q53 115 164 182t244 66q197 0 301 -110t104 -281q1 -215 -151 -354t-369 -139t-340 128q-123 129 -123 355
q0 329 163 581q79 123 207 199t284 76q213 0 319 -108t98 -285l-161 -9q4 121 -66 191t-197 70z" />
    <glyph glyph-name="seven" unicode="7" horiz-adv-x="987" 
d="M893 1130h-717l41 160h934l-29 -108q-543 -451 -723 -1182h-192q90 344 266 636t420 494z" />
    <glyph glyph-name="eight" unicode="8" horiz-adv-x="1079" 
d="M389 934q1 -104 71 -160t189 -55q119 0 199 74t80 178t-71 157q-71 54 -189 54t-199 -72q-80 -72 -80 -176zM523 -25q-210 1 -344 95t-134 246t96 245q96 92 252 115q-180 78 -180 253t137 280q138 105 328 105t306 -86q116 -88 116 -232q0 -280 -301 -353
q96 -27 159 -99t64 -175q0 -180 -144 -287t-355 -107zM225 338q0 -108 83 -168t222 -59q139 0 226 72q86 73 86 183t-83 166q-83 58 -224 58t-225 -72t-85 -180z" />
    <glyph glyph-name="nine" unicode="9" horiz-adv-x="1120" 
d="M303 829q0 -117 74 -187q75 -70 215 -71q140 1 240 93t100 228t-74 208t-214 72t-241 -94q-100 -93 -100 -249zM471 117q186 0 308 148t169 413q-53 -116 -164 -182t-243 -66q-197 0 -301 110t-105 281q0 215 152 355q153 140 369 139q216 0 339 -129t123 -355
q0 -329 -163 -581q-79 -123 -207 -199t-283 -76q-213 0 -320 108q-106 108 -98 286l162 8q-4 -121 65 -191q70 -69 197 -69z" />
    <glyph glyph-name="colon" unicode=":" horiz-adv-x="360" 
d="M135 649l49 205h205l-49 -205h-205zM-27 0l50 205h204l-49 -205h-205z" />
    <glyph glyph-name="semicolon" unicode=";" horiz-adv-x="360" 
d="M135 649l49 205h205l-49 -205h-205zM-27 0l50 205h204l-49 -201q-29 -115 -86 -171t-176 -58l25 100q59 4 85 30t44 95h-97z" />
    <glyph glyph-name="less" unicode="&#x3c;" horiz-adv-x="948" 
d="M106 543l46 184l903 426l-45 -182l-758 -346l584 -357l-39 -153z" />
    <glyph glyph-name="equal" unicode="=" horiz-adv-x="1294" 
d="M193 731l32 139h1049l-33 -139h-1048zM111 401l34 140h1047l-33 -140h-1048z" />
    <glyph glyph-name="greater" unicode="&#x3e;" horiz-adv-x="948" 
d="M936 727l-47 -184l-903 -428l45 182l757 350l-583 352l41 154z" />
    <glyph glyph-name="question" unicode="?" horiz-adv-x="997" 
d="M270 0l49 205h205l-49 -205h-205zM877 956q1 98 -59 156q-60 57 -167 57q-151 1 -235 -109t-88 -278l-176 9q12 244 151 384t347 140t306 -95q100 -96 100 -244t-85 -240q-86 -92 -244 -177q-162 -92 -197 -215h-161q23 100 82 173t187 151t165 114q74 76 74 174z" />
    <glyph glyph-name="at" unicode="@" horiz-adv-x="1556" 
d="M559 336q0 -146 133 -146q82 0 148 58t96 166l18 49q31 94 -9 161q-41 66 -139 66t-172 -104t-75 -250zM893 1049q-297 0 -500 -201t-203 -524q0 -224 151 -362t391 -138t435 92l39 -88q-210 -117 -492 -117t-467 167t-186 444q0 364 239 602t593 237q283 -1 451 -155
t167 -401t-123 -390t-284 -143q-82 0 -132 41t-65 106q-90 -150 -262 -149q-111 0 -179 76t-67 198q2 180 114 320t280 139q86 0 144 -40t77 -104l41 127h149l-143 -485q-32 -119 55 -119q115 0 191 113q75 113 75 313t-133 320q-133 121 -356 121z" />
    <glyph glyph-name="A" unicode="A" horiz-adv-x="1306" 
d="M809 1096l-373 -576h473l-92 576h-8zM762 1290h194l218 -1290h-179l-61 379h-590l-244 -379h-184z" />
    <glyph glyph-name="B" unicode="B" horiz-adv-x="1210" 
d="M729 733q156 0 242 66t86 180q0 166 -226 166h-358l-104 -412h360zM711 596h-375l-113 -451h371q170 0 264 73t94 196q1 182 -241 182zM578 0h-562l322 1290h532q178 0 272 -72q93 -73 93 -214q0 -140 -94 -230t-236 -110q97 -18 159 -83t62 -165q0 -200 -153 -308
t-395 -108z" />
    <glyph glyph-name="C" unicode="C" horiz-adv-x="1366" 
d="M106 545q0 311 206 540t519 230q267 0 405 -153t122 -406l-166 -8q10 186 -86 301t-283 114q-242 0 -387 -181t-145 -433q0 -195 106 -309t291 -113q186 0 314 116t163 300l168 -8q-53 -258 -226 -409t-432 -151t-414 157t-155 413z" />
    <glyph glyph-name="D" unicode="D" horiz-adv-x="1318" 
d="M739 1290q266 0 419 -134t153 -374q0 -344 -221 -563t-590 -219h-484l322 1290h401zM518 145q285 -1 448 175t162 460q0 180 -108 273q-109 92 -320 92h-223l-248 -1000h289z" />
    <glyph glyph-name="E" unicode="E" horiz-adv-x="1122" 
d="M973 147l-37 -147h-920l322 1290h901l-37 -147h-729l-100 -406h579l-37 -145h-579l-111 -445h748z" />
    <glyph glyph-name="F" unicode="F" horiz-adv-x="1056" 
d="M193 0h-177l322 1290h881l-37 -147h-707l-106 -428h555l-37 -148h-553z" />
    <glyph glyph-name="G" unicode="G" horiz-adv-x="1411" 
d="M291 547q0 -197 106 -309q105 -112 279 -113q174 0 295 100t180 273h-391l35 139h553l-158 -637h-158l53 219q-57 -115 -171 -179t-269 -65q-239 0 -389 157t-150 411q0 313 206 542t519 230q263 -1 397 -149t130 -390l-170 -10q4 176 -89 287t-276 110q-242 0 -387 -181
t-145 -435z" />
    <glyph glyph-name="H" unicode="H" horiz-adv-x="1347" 
d="M195 0h-179l322 1290h178l-139 -553h743l137 553h179l-322 -1290h-178l147 592h-743z" />
    <glyph glyph-name="I" unicode="I" horiz-adv-x="428" 
d="M338 1290h178l-321 -1290h-179z" />
    <glyph glyph-name="J" unicode="J" horiz-adv-x="1036" 
d="M411 -25q-209 1 -313 133t-67 357l168 12q-27 -174 33 -263t200 -89t217 85q78 85 121 259l205 821h176l-219 -874q-51 -209 -181 -325t-340 -116z" />
    <glyph glyph-name="K" unicode="K" horiz-adv-x="1196" 
d="M1092 0h-199l-389 618l-197 -157l-112 -461h-179l322 1290h178l-158 -626l772 626h222l-707 -575z" />
    <glyph glyph-name="L" unicode="L" horiz-adv-x="1073" 
d="M338 1290h178l-287 -1143h719l-35 -147h-897z" />
    <glyph glyph-name="M" unicode="M" horiz-adv-x="1527" 
d="M733 0h-155l-109 1114h-8l-279 -1114h-166l322 1290h272l101 -1057h6l608 1057h291l-322 -1290h-178l277 1114h-9z" />
    <glyph glyph-name="N" unicode="N" horiz-adv-x="1306" 
d="M522 1290l455 -1009l252 1009h166l-322 -1290h-139l-488 1065l-264 -1065h-166l322 1290h184z" />
    <glyph glyph-name="O" unicode="O" horiz-adv-x="1411" 
d="M692 127q231 0 379 183q147 183 148 444q-1 184 -107 297t-295 112q-231 0 -379 -183t-147 -443q1 -184 107 -297t294 -113zM819 1315q264 0 424 -151t160 -410q0 -314 -202 -546t-511 -233q-264 0 -424 151t-160 411q0 313 202 545t511 233z" />
    <glyph glyph-name="P" unicode="P" horiz-adv-x="1130" 
d="M782 1290q203 0 311 -89t107 -255q0 -231 -162 -348t-444 -117h-283l-118 -481h-177l322 1290h444zM623 627q406 0 405 309q0 209 -276 209h-277l-127 -518h275z" />
    <glyph glyph-name="Q" unicode="Q" horiz-adv-x="1411" 
d="M291 537q1 -184 107 -297t277 -113t290 84l-105 151l115 78l92 -137q152 180 152 449q-1 186 -107 299t-295 112q-231 0 -379 -183t-147 -443zM819 1315q264 0 424 -151t160 -410q1 -168 -63 -323t-179 -265l96 -139l-112 -76l-90 131q-164 -106 -365 -107
q-264 0 -424 151t-160 411q0 313 202 545t511 233z" />
    <glyph glyph-name="R" unicode="R" horiz-adv-x="1210" 
d="M700 662q168 0 272 73q103 74 103 219q0 190 -266 191h-334l-121 -483h346zM844 1290q411 0 411 -318q0 -160 -106 -264q-106 -105 -277 -126q184 -35 185 -207q1 -37 -17 -145t-18 -154t18 -76h-184q-10 20 -10 66t16 149q16 104 17 143q0 162 -199 162h-361l-129 -520
h-174l322 1290h506z" />
    <glyph glyph-name="S" unicode="S" horiz-adv-x="1157" 
d="M588 115q143 0 224 63t81 176q0 76 -48 121t-157 76l-205 57q-266 74 -266 314q0 172 127 282q128 110 354 111q226 0 361 -136t108 -368l-161 2q20 156 -69 259q-89 104 -241 104t-226 -60q-75 -60 -75 -172q0 -78 45 -122t146 -70l174 -50q313 -90 313 -325
q0 -186 -139 -294t-350 -108q-258 1 -406 141t-115 396l164 -2q-27 -190 73 -292t288 -103z" />
    <glyph glyph-name="T" unicode="T" horiz-adv-x="1208" 
d="M580 0h-177l283 1143h-469l39 147h1120l-37 -147h-477z" />
    <glyph glyph-name="U" unicode="U" horiz-adv-x="1261" 
d="M564 -25q-248 1 -372 149t-61 406l191 760h176l-195 -776q-45 -182 29 -286t248 -103q174 0 271 90t144 279l199 796h174l-203 -811q-68 -264 -211 -384t-390 -120z" />
    <glyph glyph-name="V" unicode="V" horiz-adv-x="1280" 
d="M616 0h-190l-190 1290h174l155 -1083h8l705 1083h188z" />
    <glyph glyph-name="W" unicode="W" horiz-adv-x="1673" 
d="M1126 1290l9 -1077h8l543 1077h174l-662 -1290h-209l-4 1028h-8l-535 -1028h-209l3 1290h170l-9 -1071h9l557 1071h163z" />
    <glyph glyph-name="X" unicode="X" horiz-adv-x="1249" 
d="M1180 1290h204l-610 -624l334 -666h-184l-271 539l-532 -539h-205l670 672l-310 618h185l246 -491z" />
    <glyph glyph-name="Y" unicode="Y" horiz-adv-x="1224" 
d="M662 664l550 626h201l-700 -784l-125 -506h-170l125 506l-307 784h178z" />
    <glyph glyph-name="Z" unicode="Z" horiz-adv-x="1146" 
d="M223 147h791l-37 -147h-1024l31 125l1022 1018h-760l39 147h993l-35 -131z" />
    <glyph glyph-name="bracketleft" unicode="[" horiz-adv-x="569" 
d="M492 1223l-316 -1266h184l-32 -129h-344l378 1524h345l-31 -129h-184z" />
    <glyph glyph-name="backslash" unicode="\" horiz-adv-x="669" 
d="M338 1350l268 -1520h-147l-271 1520h150z" />
    <glyph glyph-name="bracketright" unicode="]" horiz-adv-x="569" 
d="M154 -43l315 1266h-184l32 129h345l-379 -1524h-344l30 129h185z" />
    <glyph glyph-name="asciicircum" unicode="^" horiz-adv-x="772" 
d="M508 1290h160l180 -413h-158l-125 286l-268 -286h-178z" />
    <glyph glyph-name="underscore" unicode="_" horiz-adv-x="780" 
d="M-113 -246l33 133h698l-34 -133h-697z" />
    <glyph glyph-name="grave" unicode="`" 
d="M821 1032h-110l-129 258h194z" />
    <glyph glyph-name="a" unicode="a" horiz-adv-x="987" 
d="M819 106q35 0 84 17l-22 -96q-61 -45 -135 -45t-108 47q-36 47 -28 131q-45 -86 -133 -135q-87 -49 -201 -49t-184 62t-69 163q0 262 376 309l299 39l9 29q23 98 -17 153t-139 55q-182 0 -256 -165l-150 24q51 127 166 201t278 74t239 -100t34 -269l-90 -361
q-23 -84 47 -84zM332 100q119 0 206 79q86 79 121 214l9 41l-240 -33q-119 -14 -178 -53q-60 -40 -60 -112q0 -136 142 -136z" />
    <glyph glyph-name="b" unicode="b" horiz-adv-x="1091" 
d="M1038 565q0 -227 -142 -408t-376 -182q-114 -1 -194 57t-105 150l-78 -182h-135l322 1290h170l-142 -561q52 86 144 138t200 53q160 0 248 -98t88 -257zM860 553q0 113 -58 172t-169 59t-207 -76t-127 -202l-18 -76q-37 -141 25 -232q62 -92 208 -92t246 134t100 313z
" />
    <glyph glyph-name="c" unicode="c" horiz-adv-x="993" 
d="M53 354q0 234 152 400t385 166q190 0 282 -111t74 -281l-145 -10q10 121 -45 194t-178 72q-152 0 -253 -124t-102 -306q-1 -112 63 -178t180 -66t199 74t113 197l148 -14q-43 -172 -170 -282q-126 -110 -310 -110q-184 -1 -288 103t-105 276z" />
    <glyph glyph-name="d" unicode="d" horiz-adv-x="1085" 
d="M53 330q1 227 143 408t373 182q115 0 195 -58t104 -147l144 575h170l-322 -1290h-170l43 166q-51 -86 -143 -138t-203 -53q-160 1 -247 97t-87 258zM590 786q-160 0 -259 -133t-100 -311q1 -113 59 -172t169 -59q111 -1 206 75t126 201l20 78q37 141 -27 231t-194 90z
" />
    <glyph glyph-name="e" unicode="e" horiz-adv-x="995" 
d="M246 516h538q12 119 -43 196q-55 76 -174 76t-203 -76t-118 -196zM444 -25q-174 1 -283 103q-108 102 -108 280q0 226 154 394t363 168q208 0 294 -113t86 -281q0 -59 -14 -120h-715q-14 -141 54 -220q69 -78 198 -77q223 -1 303 206l142 -18q-56 -152 -178 -237
t-296 -85z" />
    <glyph glyph-name="f" unicode="f" horiz-adv-x="583" 
d="M631 1315q219 0 256 -209l-121 -37q-23 121 -133 121q-125 0 -166 -160l-33 -135h246l-31 -123h-246l-192 -772h-168l193 772h-138l31 123h135l35 131q72 289 332 289z" />
    <glyph glyph-name="g" unicode="g" horiz-adv-x="1062" 
d="M393 29q-154 0 -247 95t-93 255q0 215 137 378t369 163q115 0 193 -54t104 -141l43 170h170l-203 -821q-109 -434 -512 -434q-154 0 -266 87t-115 242l156 13q8 -104 74 -158t159 -53q262 0 338 313l29 121q-49 -80 -139 -128t-197 -48zM578 793q-162 0 -256 -120
t-95 -288q-1 -115 61 -173t170 -58t200 70t120 190l21 75q33 133 -29 219t-192 85z" />
    <glyph glyph-name="h" unicode="h" horiz-adv-x="1015" 
d="M301 498l-123 -498h-170l322 1290h170l-142 -559q125 188 328 189q162 0 228 -102t26 -267l-137 -551h-170l133 541q29 115 -10 179q-40 64 -144 64t-192 -78t-119 -208z" />
    <glyph glyph-name="i" unicode="i" horiz-adv-x="401" 
d="M276 1098l50 192h176l-47 -192h-179zM229 895h170l-221 -895h-170z" />
    <glyph glyph-name="j" unicode="j" horiz-adv-x="401" 
d="M276 1098l50 192h176l-47 -192h-179zM-111 -369q-127 0 -204 78l65 98q64 -47 114 -47t72 24t37 81l256 1030h170l-260 -1051q-53 -213 -250 -213z" />
    <glyph glyph-name="k" unicode="k" horiz-adv-x="978" 
d="M256 324l-78 -324h-170l322 1290h170l-201 -794l537 399h225l-514 -377l311 -518h-186l-260 434z" />
    <glyph glyph-name="l" unicode="l" horiz-adv-x="401" 
d="M330 1290h170l-322 -1290h-170z" />
    <glyph glyph-name="m" unicode="m" horiz-adv-x="1587" 
d="M924 717q57 92 146 147t198 56q150 0 216 -96t25 -261l-137 -563h-170l135 541q59 244 -141 243q-92 0 -179 -80t-120 -212l-123 -492h-170l135 541q59 244 -139 243q-94 0 -181 -80t-120 -212l-121 -492h-170l221 895h170l-41 -164q54 84 142 136q88 53 187 53t163 -54
t74 -149z" />
    <glyph glyph-name="n" unicode="n" horiz-adv-x="1015" 
d="M301 498l-123 -498h-170l221 895h170l-41 -164q125 188 328 189q162 0 228 -102t26 -267l-137 -551h-170l133 541q29 115 -10 179q-40 64 -144 64t-192 -78t-119 -208z" />
    <glyph glyph-name="o" unicode="o" horiz-adv-x="1032" 
d="M461 -25q-182 -1 -295 105t-113 289q1 227 147 389t371 162q182 0 295 -106t113 -288q-1 -229 -147 -390t-371 -161zM463 106q156 0 249 125t93 295q1 123 -63 192t-175 68q-154 0 -248 -124t-94 -272q1 -146 65 -215t173 -69z" />
    <glyph glyph-name="p" unicode="p" horiz-adv-x="1091" 
d="M1038 565q0 -227 -142 -408t-376 -182q-114 -1 -194 57t-105 148l-131 -524h-170l309 1239h170l-41 -166q52 86 144 138t200 53q160 0 248 -98t88 -257zM860 553q0 113 -58 172t-169 59t-207 -76t-127 -202l-18 -76q-37 -141 25 -232q62 -92 208 -92t246 134t100 313z
" />
    <glyph glyph-name="q" unicode="q" horiz-adv-x="1077" 
d="M53 330q1 227 143 408t373 182q115 0 195 -58t104 -147l45 180h170l-307 -1239h-170l127 510q-51 -86 -143 -138t-203 -53q-160 1 -247 97t-87 258zM590 786q-160 0 -259 -133t-100 -311q1 -113 59 -172t169 -59q111 -1 206 75t126 201l20 78q37 141 -27 231t-194 90z
" />
    <glyph glyph-name="r" unicode="r" horiz-adv-x="677" 
d="M580 762q-84 0 -168 -81t-117 -208l-117 -473h-170l221 895h170l-45 -182q51 94 130 150q79 57 164 57t130 -41l-55 -154q-59 37 -143 37z" />
    <glyph glyph-name="s" unicode="s" horiz-adv-x="897" 
d="M616 234q0 58 -32 84q-32 28 -105 49l-114 32q-219 59 -220 238q1 127 97 205t262 78t260 -90q96 -90 92 -252l-139 -9q1 109 -59 167t-158 58t-148 -35q-49 -36 -49 -102q0 -88 129 -120l127 -35q219 -61 219 -240q0 -135 -104 -211t-272 -76q-168 1 -280 93t-104 260
l140 10q-4 -117 72 -178q76 -62 176 -62q102 0 156 39t54 97z" />
    <glyph glyph-name="t" unicode="t" horiz-adv-x="626" 
d="M278 -25q-116 1 -165 69q-48 68 -19 185l135 543h-135l25 92l59 10q63 12 92 42t66 102l59 125h94l-61 -248h254l-31 -123h-254l-133 -530q-16 -70 4 -101t88 -31t168 54l-28 -115q-102 -74 -218 -74z" />
    <glyph glyph-name="u" unicode="u" horiz-adv-x="1005" 
d="M700 393l125 502h170l-223 -895h-170l41 164q-123 -188 -328 -189q-158 1 -219 103t-22 264l137 553h170l-133 -543q-59 -244 141 -243q104 0 193 76q87 77 118 208z" />
    <glyph glyph-name="v" unicode="v" horiz-adv-x="931" 
d="M426 0h-162l-133 895h164l94 -690h8l457 690h178z" />
    <glyph glyph-name="w" unicode="w" horiz-adv-x="1314" 
d="M844 895l22 -674h8l375 674h166l-512 -895h-164l-18 670h-8l-363 -670h-164l-55 895h164l33 -674h8l366 674h142z" />
    <glyph glyph-name="x" unicode="x" horiz-adv-x="956" 
d="M1024 895l-444 -432l251 -463h-178l-188 354l-361 -354h-192l485 475l-227 420h178l166 -313l317 313h193z" />
    <glyph glyph-name="y" unicode="y" horiz-adv-x="940" 
d="M217 -344h-176l240 356l-152 883h166l113 -696h8l446 696h178z" />
    <glyph glyph-name="z" unicode="z" horiz-adv-x="876" 
d="M664 764h-506l35 131h727l-31 -117l-690 -647h544l-32 -131h-758l29 117z" />
    <glyph glyph-name="braceleft" unicode="{" horiz-adv-x="600" 
d="M166 655q61 0 86 31t47 119l84 340q51 207 238 207h120l-30 -129h-82q-63 0 -84 -76l-86 -348q-23 -91 -68 -143t-129 -66q106 -20 107 -123q1 -35 -53 -241t-54 -226q0 -43 51 -43h82l-33 -129h-120q-147 0 -148 123q0 47 57 262q56 215 56 256q0 55 -74 55h-51l33 131
h51z" />
    <glyph glyph-name="bar" unicode="|" horiz-adv-x="405" 
d="M-27 -170l379 1520h154l-379 -1520h-154z" />
    <glyph glyph-name="braceright" unicode="}" horiz-adv-x="600" 
d="M510 524q-61 0 -86 -30t-47 -119l-84 -340q-51 -207 -238 -207h-123l33 129h82q63 0 84 76l84 348q45 182 199 209q-106 20 -107 123q0 35 52 241t53 226q0 43 -50 43h-81l30 129h123q147 0 148 -123q0 -47 -58 -262t-57 -256q0 -55 76 -56h51l-33 -131h-51z" />
    <glyph glyph-name="asciitilde" unicode="~" horiz-adv-x="802" 
d="M292 676q72 0 134 -60t100 -61q39 0 61 27t42 88h112q-31 -117 -91 -185q-60 -67 -132 -67t-134 60q-60 60 -99 60t-63 -27q-24 -28 -42 -87h-112q31 116 91 184q61 68 133 68z" />
    <glyph glyph-name="exclamdown" unicode="&#xa1;" horiz-adv-x="391" 
d="M125 -229h-182l90 360l198 592h82l-98 -592zM457 1061l-49 -205h-205l49 205h205z" />
    <glyph glyph-name="cent" unicode="&#xa2;" horiz-adv-x="1013" 
d="M242 354q0 -90 41 -153t116 -84l168 669q-141 -14 -233 -135t-92 -297zM70 354q0 232 147 396t383 170l47 190h117l-51 -201q141 -29 208 -132t54 -249l-146 -10q20 211 -149 260l-168 -669q114 9 190 83t107 189l143 -14q-43 -168 -166 -277t-307 -115l-43 -176h-114
l45 187q-139 25 -219 123q-78 98 -78 245z" />
    <glyph glyph-name="sterling" unicode="&#xa3;" horiz-adv-x="1157" 
d="M191 262q-52 0 -85 -24q-32 -24 -32 -66q1 -80 89 -80q89 0 156 113q-76 57 -128 57zM816 1174q-134 0 -212 -98t-78 -236q0 -57 4 -135h326l-29 -117h-288q4 -61 4 -88q0 -135 -56 -258q53 -42 82 -60q90 -58 180 -57q90 0 139 58q48 58 75 177l145 -6
q-70 -379 -371 -379q-152 0 -321 146q-119 -145 -277 -146q-88 -1 -137 49t-49 140t69 149q70 59 162 59t187 -50q20 76 20 132t-12 134h-197l29 117h149q-8 51 -8 135q0 195 133 335t345 140t300 -114t46 -314l-158 -8q32 141 -18 218t-184 77z" />
    <glyph glyph-name="yen" unicode="&#xa5;" horiz-adv-x="1173" 
d="M147 547l29 121h273l-252 622h178l237 -592l518 592h207l-561 -622h271l-31 -121h-348l-37 -146h348l-31 -120h-348l-70 -281h-170l70 281h-350l29 120h352l37 146h-351z" />
    <glyph glyph-name="section" unicode="&#xa7;" horiz-adv-x="913" 
d="M242 623q0 -76 116 -150l222 -143q145 37 145 166q0 44 -28 78t-89 73l-225 141q-141 -39 -141 -165zM731 106q0 -129 -102 -215t-264 -86q-162 -1 -271 93t-96 256l129 4q-4 -106 64 -168q69 -62 169 -62t155 41q54 41 54 116t-77 122l-232 141q-176 106 -176 246
q0 92 54 169t143 114q-45 57 -45 135q0 131 101 217t263 86t263 -92t87 -256l-129 -2q4 109 -57 168q-60 59 -160 59q-202 0 -209 -164q0 -66 78 -115l234 -141q88 -54 131 -112t44 -143q2 -85 -54 -161t-144 -114q47 -61 47 -136z" />
    <glyph glyph-name="dieresis" unicode="&#xa8;" 
d="M735 1081l47 193h168l-47 -193h-168zM453 1081l47 193h168l-47 -193h-168z" />
    <glyph glyph-name="copyright" unicode="&#xa9;" horiz-adv-x="1482" 
d="M215 645q0 -248 167 -412q168 -163 408 -163t406 164t166 411q0 248 -166 412t-407 164t-407 -164t-167 -412zM401 643q0 178 112 293t278 115q166 1 262 -93t106 -249l-129 -7q-8 100 -68 162t-169 64q-109 0 -176 -77t-67 -207t68 -206q66 -76 174 -76t170 62
q60 62 68 162l129 -8q-10 -156 -106 -249t-262 -93t-278 114t-112 293zM119 645q0 289 194 479q195 190 475 190t476 -190q194 -190 194 -479t-194 -479t-476 -190q-281 0 -475 190t-194 479z" />
    <glyph glyph-name="ordfeminine" unicode="&#xaa;" horiz-adv-x="788" 
d="M706 588q-60 0 -91 38q-30 38 -23 101q-33 -67 -102 -105q-70 -38 -156 -38t-139 48t-54 128q0 195 289 233l229 29l7 25q33 150 -111 149q-129 0 -182 -119l-137 17q39 104 129 162t221 58q132 0 194 -77q62 -78 29 -209l-68 -268q-18 -63 35 -64q33 0 64 15l-21 -88
q-53 -35 -113 -35zM293 780q0 -42 28 -66t72 -24q85 0 149 58t87 155l6 29l-174 -23q-168 -23 -168 -129z" />
    <glyph glyph-name="guillemotleft" unicode="&#xab;" horiz-adv-x="831" 
d="M399 379l33 135l375 264l-45 -186l-230 -160l150 -164l-41 -153zM63 379l35 135l373 264l-45 -186l-229 -160l149 -164l-41 -153z" />
    <glyph glyph-name="registered" unicode="&#xae;" horiz-adv-x="825" 
d="M819 949q0 132 -85 218t-211 86t-211 -86t-85 -218t85 -218t211 -86t211 86t85 218zM887 949q1 -157 -105 -261t-258 -104t-258 104t-106 261t106 261t258 104t258 -104t105 -261zM455 963h77q76 0 76 57t-76 57h-77v-114zM532 897h-77v-135h-84v381h178q145 0 145 -117
q0 -41 -24 -67t-60 -29q66 -12 72 -78q2 -74 18 -90h-88q-10 12 -16 76q0 59 -64 59z" />
    <glyph glyph-name="macron" unicode="&#xaf;" 
d="M410 1055l32 131h525l-33 -131h-524z" />
    <glyph glyph-name="degree" unicode="&#xb0;" horiz-adv-x="694" 
d="M439 756q-123 0 -197 74t-74 193q0 120 86 206t210 86t199 -74q75 -73 75 -193t-88 -206q-87 -86 -211 -86zM289 1026q-1 -72 39 -114t113 -42t123 52t50 123t-40 113t-112 42t-122 -51q-51 -51 -51 -123z" />
    <glyph glyph-name="plusminus" unicode="&#xb1;" horiz-adv-x="1265" 
d="M12 80l39 143h1047l-37 -143h-1049zM756 1241h143l-96 -383h452l-34 -141h-453l-94 -383h-144l95 383h-453l35 141h452z" />
    <glyph glyph-name="twosuperior" unicode="&#xb2;" horiz-adv-x="686" 
d="M488 1182q-70 0 -113 -60t-45 -159l-142 6q4 149 90 241t221 92q137 0 203 -62t66 -169t-81 -187q-44 -44 -80 -71t-109 -76l-183 -123h371l-31 -122h-594l23 94l295 209q10 8 40 27q30 20 41 28t36 26q24 18 34 29q10 9 28 27q58 55 63 135q1 115 -133 115z" />
    <glyph glyph-name="threesuperior" unicode="&#xb3;" horiz-adv-x="696" 
d="M561 739q0 98 -121 99q-31 0 -71 -4l26 110q37 -4 87 -4t101 35q50 35 50 93q0 118 -123 118q-147 0 -188 -170l-140 4q29 131 118 207t216 76q127 1 193 -57q65 -58 65 -147t-56 -143t-136 -67q125 -33 125 -155q-1 -122 -91 -190t-234 -67q-144 0 -220 83
q-74 83 -49 212l137 -6q-18 -80 24 -126t119 -46q76 0 122 36t46 109z" />
    <glyph glyph-name="acute" unicode="&#xb4;" 
d="M629 1032h-125l178 258h207z" />
    <glyph glyph-name="paragraph" unicode="&#xb6;" horiz-adv-x="1028" 
d="M160 874q0 197 144 307t382 109h428l-321 -1290h-136l289 1159h-137l-289 -1159h-133l139 561q-162 0 -264 89t-102 224z" />
    <glyph glyph-name="periodcentered" unicode="&#xb7;" horiz-adv-x="448" 
d="M111 420l49 205h205l-50 -205h-204z" />
    <glyph glyph-name="cedilla" unicode="&#xb8;" horiz-adv-x="1173" 
d="M682 -202q0 -80 -72 -118t-190 -38t-203 77l45 66q78 -66 182 -66t105 66q0 53 -55 59t-111 -20l-37 22l141 177h80l-100 -115q91 25 153 -3t62 -107z" />
    <glyph glyph-name="onesuperior" unicode="&#xb9;" horiz-adv-x="425" 
d="M180 1075l23 94q82 0 132 29t89 94h102l-198 -800h-146l146 583h-148z" />
    <glyph glyph-name="ordmasculine" unicode="&#xba;" horiz-adv-x="815" 
d="M504 584q-162 0 -250 83t-88 243t114 282q114 123 291 123q143 0 233 -84q90 -83 89 -243q0 -160 -114 -282q-113 -122 -275 -122zM492 702q112 0 178 90t66 198q0 106 -46 156q-45 50 -123 50q-113 0 -179 -92t-66 -196t46 -156q46 -50 124 -50z" />
    <glyph glyph-name="guillemotright" unicode="&#xbb;" horiz-adv-x="831" 
d="M772 514l-33 -135l-374 -264l45 186l229 160l-150 164l41 153zM436 514l-33 -135l-374 -264l47 186l227 160l-149 164l41 153z" />
    <glyph glyph-name="onequarter" unicode="&#xbc;" horiz-adv-x="1474" 
d="M1219 664l-371 -351h282zM1393 795l-119 -482h123l-29 -116h-125l-49 -197h-141l51 197h-410l33 137l483 461h183zM195 1077l24 97q82 0 132 28t87 92h105l-199 -798h-145l145 581h-149zM1309 1290l-1082 -1290h-145l1079 1290h148z" />
    <glyph glyph-name="onehalf" unicode="&#xbd;" horiz-adv-x="1527" 
d="M1335 592q0 36 -31 67q-32 31 -102 31t-114 -60t-44 -159l-141 6q4 150 89 242q84 92 220 92t202 -63q66 -64 67 -150q0 -86 -41 -152t-86 -100t-142 -100l-182 -123h371l-31 -123h-596l23 94l297 209q10 8 43 29t65 46q33 26 43 36t30 28q60 55 60 150zM195 1077l24 97
q82 0 132 28t87 92h105l-199 -798h-145l145 581h-149zM1309 1290l-1082 -1290h-145l1079 1290h148z" />
    <glyph glyph-name="threequarters" unicode="&#xbe;" horiz-adv-x="1724" 
d="M584 739q0 98 -123 99q-27 0 -72 -4l29 110q37 -4 87 -4t100 35t50 93q0 118 -123 118q-147 0 -188 -170l-139 4q29 131 118 207t216 76q127 1 193 -57t65 -147t-57 -143t-136 -67q125 -33 125 -155t-90 -190q-91 -68 -235 -67q-144 0 -219 83t-50 212l137 -6
q-18 -80 25 -126t119 -46t122 36t46 109zM1468 664l-370 -351h282zM1645 795l-121 -482h123l-27 -116h-127l-47 -197h-143l51 197h-410l33 137l483 461h185zM1559 1290l-1082 -1290h-145l1081 1290h146z" />
    <glyph glyph-name="questiondown" unicode="&#xbf;" horiz-adv-x="997" 
d="M778 1061l-49 -205h-205l49 205h205zM172 104q0 -98 59 -155t166 -58q150 0 235 110t89 278l176 -9q-11 -244 -151 -384t-347 -140t-307 95t-100 243t86 240t244 178q161 92 196 215h162q-23 -100 -82 -173t-187 -151t-165 -114q-74 -77 -74 -175z" />
    <glyph glyph-name="Agrave" unicode="&#xc0;" horiz-adv-x="1306" 
d="M942 1384h-111l-126 258h190zM809 1096l-373 -576h473l-92 576h-8zM762 1290h194l218 -1290h-179l-61 379h-590l-244 -379h-184z" />
    <glyph glyph-name="Aacute" unicode="&#xc1;" horiz-adv-x="1306" 
d="M932 1384h-125l174 258h207zM809 1096l-373 -576h473l-92 576h-8zM762 1290h194l218 -1290h-179l-61 379h-590l-244 -379h-184z" />
    <glyph glyph-name="Acircumflex" unicode="&#xc2;" horiz-adv-x="1306" 
d="M844 1642h194l103 -258h-115l-102 152l-176 -152h-134zM809 1096l-373 -576h473l-92 576h-8zM762 1290h194l218 -1290h-179l-61 379h-590l-244 -379h-184z" />
    <glyph glyph-name="Atilde" unicode="&#xc3;" horiz-adv-x="1306" 
d="M1010 1376q-54 0 -114 60t-98 61q-38 0 -61 -28t-41 -87h-112q29 115 88 181t143 65q53 0 113 -60t98 -60q40 0 62 27q22 28 42 87h113q-31 -114 -90 -180t-143 -66zM809 1096l-373 -576h473l-92 576h-8zM762 1290h194l218 -1290h-179l-61 379h-590l-244 -379h-184z" />
    <glyph glyph-name="Adieresis" unicode="&#xc4;" horiz-adv-x="1306" 
d="M944 1395l47 192h168l-47 -192h-168zM662 1395l47 192h168l-48 -192h-167zM809 1096l-373 -576h473l-92 576h-8zM762 1290h194l218 -1290h-179l-61 379h-590l-244 -379h-184z" />
    <glyph glyph-name="Aring" unicode="&#xc5;" horiz-adv-x="1306" 
d="M831 1515q0 -39 22 -61q21 -22 59 -20q38 0 66 30t28 67t-22 59t-60 22t-66 -29q-27 -29 -27 -68zM1094 1531q0 -75 -54 -128t-131 -53q-76 0 -122 45t-46 119q1 74 55 128t131 54t122 -45t45 -120zM809 1096l-373 -576h473l-92 576h-8zM762 1290h194l218 -1290h-179
l-61 379h-590l-244 -379h-184z" />
    <glyph glyph-name="AE" unicode="&#xc6;" horiz-adv-x="2019" 
d="M1192 1151l-578 -616h433l153 616h-8zM1116 1290h1020l-37 -147h-729l-100 -406h579l-37 -145h-579l-111 -445h748l-37 -147h-920l99 393h-531l-366 -393h-199z" />
    <glyph glyph-name="Ccedilla" unicode="&#xc7;" horiz-adv-x="1366" 
d="M768 -202q0 -80 -72 -118t-190 -38t-203 77l45 66q78 -66 182 -66t105 66q0 53 -55 59t-111 -20l-37 22l113 142q-201 34 -320 184t-119 373q0 311 206 540t519 230q267 0 405 -153t122 -406l-166 -8q10 186 -86 301t-283 114q-242 0 -387 -181t-145 -433
q0 -195 106 -309t291 -113q186 0 314 116t163 300l168 -8q-53 -258 -226 -409t-439 -151l-54 2l-61 -69q91 25 153 -3t62 -107z" />
    <glyph glyph-name="Egrave" unicode="&#xc8;" horiz-adv-x="1122" 
d="M973 147l-37 -147h-920l322 1290h901l-37 -147h-729l-100 -406h579l-37 -145h-579l-111 -445h748zM872 1384h-110l-127 258h190z" />
    <glyph glyph-name="Eacute" unicode="&#xc9;" horiz-adv-x="1122" 
d="M973 147l-37 -147h-920l322 1290h901l-37 -147h-729l-100 -406h579l-37 -145h-579l-111 -445h748zM860 1384h-125l174 258h207z" />
    <glyph glyph-name="Ecircumflex" unicode="&#xca;" horiz-adv-x="1122" 
d="M772 1642h195l102 -258h-115l-102 152l-176 -152h-133zM973 147l-37 -147h-920l322 1290h901l-37 -147h-729l-100 -406h579l-37 -145h-579l-111 -445h748z" />
    <glyph glyph-name="Edieresis" unicode="&#xcb;" horiz-adv-x="1122" 
d="M973 147l-37 -147h-920l322 1290h901l-37 -147h-729l-100 -406h579l-37 -145h-579l-111 -445h748zM874 1395l48 192h168l-48 -192h-168zM592 1395l47 192h168l-47 -192h-168z" />
    <glyph glyph-name="Igrave" unicode="&#xcc;" horiz-adv-x="428" 
d="M510 1384h-111l-127 258h191zM338 1290h178l-321 -1290h-179z" />
    <glyph glyph-name="Iacute" unicode="&#xcd;" horiz-adv-x="428" 
d="M498 1384h-125l174 258h207zM338 1290h178l-321 -1290h-179z" />
    <glyph glyph-name="Icircumflex" unicode="&#xce;" horiz-adv-x="428" 
d="M410 1642h194l103 -258h-115l-103 152l-176 -152h-133zM338 1290h178l-321 -1290h-179z" />
    <glyph glyph-name="Idieresis" unicode="&#xcf;" horiz-adv-x="428" 
d="M512 1395l47 192h168l-47 -192h-168zM229 1395l47 192h168l-47 -192h-168zM338 1290h178l-321 -1290h-179z" />
    <glyph glyph-name="Eth" unicode="&#xd0;" horiz-adv-x="1345" 
d="M545 145q285 -1 447 175t163 460q0 180 -108 273q-109 92 -320 92h-223l-103 -408h361l-35 -145h-360l-111 -447h289zM766 1290q266 0 419 -134t152 -374q0 -344 -221 -563t-590 -219h-483l147 592h-139l37 145h137l140 553h401z" />
    <glyph glyph-name="Ntilde" unicode="&#xd1;" horiz-adv-x="1306" 
d="M522 1290l455 -1009l252 1009h166l-322 -1290h-139l-488 1065l-264 -1065h-166l322 1290h184zM1018 1376q-54 0 -114 60t-98 61q-38 0 -60 -28t-41 -87h-113q29 115 88 181t143 65q53 0 113 -60t98 -60q39 0 62 27q23 28 43 87h112q-31 -114 -90 -180t-143 -66z" />
    <glyph glyph-name="Ograve" unicode="&#xd2;" horiz-adv-x="1411" 
d="M692 127q231 0 379 183q147 183 148 444q-1 184 -107 297t-295 112q-231 0 -379 -183t-147 -443q1 -184 107 -297t294 -113zM819 1315q264 0 424 -151t160 -410q0 -314 -202 -546t-511 -233q-264 0 -424 151t-160 411q0 313 202 545t511 233zM967 1384h-111l-127 258h191
z" />
    <glyph glyph-name="Oacute" unicode="&#xd3;" horiz-adv-x="1411" 
d="M692 127q231 0 379 183q147 183 148 444q-1 184 -107 297t-295 112q-231 0 -379 -183t-147 -443q1 -184 107 -297t294 -113zM819 1315q264 0 424 -151t160 -410q0 -314 -202 -546t-511 -233q-264 0 -424 151t-160 411q0 313 202 545t511 233zM956 1384h-125l175 258h206z
" />
    <glyph glyph-name="Ocircumflex" unicode="&#xd4;" horiz-adv-x="1411" 
d="M866 1642h195l102 -258h-114l-103 152l-176 -152h-133zM692 127q231 0 379 183q147 183 148 444q-1 184 -107 297t-295 112q-231 0 -379 -183t-147 -443q1 -184 107 -297t294 -113zM819 1315q264 0 424 -151t160 -410q0 -314 -202 -546t-511 -233q-264 0 -424 151
t-160 411q0 313 202 545t511 233z" />
    <glyph glyph-name="Otilde" unicode="&#xd5;" horiz-adv-x="1411" 
d="M692 127q231 0 379 183q147 183 148 444q-1 184 -107 297t-295 112q-231 0 -379 -183t-147 -443q1 -184 107 -297t294 -113zM819 1315q264 0 424 -151t160 -410q0 -314 -202 -546t-511 -233q-264 0 -424 151t-160 411q0 313 202 545t511 233zM1034 1376q-55 0 -114 60
q-60 60 -98 61q-38 0 -60 -28t-41 -87h-113q29 115 88 181t144 65q53 0 112 -60q58 -60 98 -60t62 27q22 28 43 87h113q-31 -114 -90 -180t-144 -66z" />
    <glyph glyph-name="Odieresis" unicode="&#xd6;" horiz-adv-x="1411" 
d="M692 127q231 0 379 183q147 183 148 444q-1 184 -107 297t-295 112q-231 0 -379 -183t-147 -443q1 -184 107 -297t294 -113zM819 1315q264 0 424 -151t160 -410q0 -314 -202 -546t-511 -233q-264 0 -424 151t-160 411q0 313 202 545t511 233zM969 1395l47 192h168
l-47 -192h-168zM686 1395l47 192h168l-47 -192h-168z" />
    <glyph glyph-name="multiply" unicode="&#xd7;" horiz-adv-x="1083" 
d="M150 199l-78 98l422 338l-250 330l110 88l246 -332l424 340l78 -98l-430 -345l250 -331l-111 -88l-244 331z" />
    <glyph glyph-name="Oslash" unicode="&#xd8;" horiz-adv-x="1411" 
d="M692 127q231 0 379 183q147 183 148 444q0 135 -60 235l-715 -792q101 -70 248 -70zM291 537q0 -152 71 -258l721 798q-104 86 -266 86q-231 0 -379 -183t-147 -443zM819 1315q225 0 377 -111l119 131l88 -75l-123 -136q123 -150 123 -370q0 -314 -202 -546t-511 -233
q-213 0 -358 97l-135 -150l-88 74l135 151q-137 147 -138 390q0 313 202 545t511 233z" />
    <glyph glyph-name="Ugrave" unicode="&#xd9;" horiz-adv-x="1261" 
d="M564 -25q-248 1 -372 149t-61 406l191 760h176l-195 -776q-45 -182 29 -286t248 -103q174 0 271 90t144 279l199 796h174l-203 -811q-68 -264 -211 -384t-390 -120zM922 1384h-111l-127 258h190z" />
    <glyph glyph-name="Uacute" unicode="&#xda;" horiz-adv-x="1261" 
d="M564 -25q-248 1 -372 149t-61 406l191 760h176l-195 -776q-45 -182 29 -286t248 -103q174 0 271 90t144 279l199 796h174l-203 -811q-68 -264 -211 -384t-390 -120zM920 1384h-125l174 258h207z" />
    <glyph glyph-name="Ucircumflex" unicode="&#xdb;" horiz-adv-x="1261" 
d="M831 1642h195l102 -258h-114l-103 152l-176 -152h-133zM564 -25q-248 1 -372 149t-61 406l191 760h176l-195 -776q-45 -182 29 -286t248 -103q174 0 271 90t144 279l199 796h174l-203 -811q-68 -264 -211 -384t-390 -120z" />
    <glyph glyph-name="Udieresis" unicode="&#xdc;" horiz-adv-x="1261" 
d="M564 -25q-248 1 -372 149t-61 406l191 760h176l-195 -776q-45 -182 29 -286t248 -103q174 0 271 90t144 279l199 796h174l-203 -811q-68 -264 -211 -384t-390 -120zM932 1395l47 192h168l-47 -192h-168zM649 1395l47 192h168l-47 -192h-168z" />
    <glyph glyph-name="Yacute" unicode="&#xdd;" horiz-adv-x="1224" 
d="M893 1384h-125l174 258h207zM662 664l550 626h201l-700 -784l-125 -506h-170l125 506l-307 784h178z" />
    <glyph glyph-name="Thorn" unicode="&#xde;" horiz-adv-x="1130" 
d="M727 1071q205 0 313 -89t107 -255q0 -229 -163 -346t-443 -117h-283l-65 -264h-177l322 1290h176l-55 -219h268zM569 410q403 0 404 307q0 209 -277 209h-274l-129 -516h276z" />
    <glyph glyph-name="germandbls" unicode="&#xdf;" horiz-adv-x="1005" 
d="M1014 1038q0 -129 -82 -218t-203 -105q92 -23 151 -91q58 -69 58 -188q0 -200 -130 -322t-314 -122q-106 0 -181 24l33 131q68 -23 137 -22q133 0 211 88q78 87 78 205t-58 174t-159 55q-47 0 -80 -2l33 137q25 -4 76 -4q114 0 188 65t74 185q0 74 -40 117t-120 43
q-213 0 -280 -273l-228 -915h-170l230 926q45 182 162 285q118 103 282 103t248 -73q84 -74 84 -203z" />
    <glyph glyph-name="agrave" unicode="&#xe0;" horiz-adv-x="987" 
d="M705 1032h-111l-129 258h194zM819 106q35 0 84 17l-22 -96q-61 -45 -135 -45t-108 47q-36 47 -28 131q-45 -86 -133 -135q-87 -49 -201 -49t-184 62t-69 163q0 262 376 309l299 39l9 29q23 98 -17 153t-139 55q-182 0 -256 -165l-150 24q51 127 166 201t278 74t239 -100
t34 -269l-90 -361q-23 -84 47 -84zM332 100q119 0 206 79q86 79 121 214l9 41l-240 -33q-119 -14 -178 -53q-60 -40 -60 -112q0 -136 142 -136z" />
    <glyph glyph-name="aacute" unicode="&#xe1;" horiz-adv-x="987" 
d="M688 1032h-125l178 258h207zM819 106q35 0 84 17l-22 -96q-61 -45 -135 -45t-108 47q-36 47 -28 131q-45 -86 -133 -135q-87 -49 -201 -49t-184 62t-69 163q0 262 376 309l299 39l9 29q23 98 -17 153t-139 55q-182 0 -256 -165l-150 24q51 127 166 201t278 74t239 -100
t34 -269l-90 -361q-23 -84 47 -84zM332 100q119 0 206 79q86 79 121 214l9 41l-240 -33q-119 -14 -178 -53q-60 -40 -60 -112q0 -136 142 -136z" />
    <glyph glyph-name="acircumflex" unicode="&#xe2;" horiz-adv-x="987" 
d="M594 1290h197l98 -258h-115l-100 152l-178 -152h-131zM819 106q35 0 84 17l-22 -96q-61 -45 -135 -45t-108 47q-36 47 -28 131q-45 -86 -133 -135q-87 -49 -201 -49t-184 62t-69 163q0 262 376 309l299 39l9 29q23 98 -17 153t-139 55q-182 0 -256 -165l-150 24
q51 127 166 201t278 74t239 -100t34 -269l-90 -361q-23 -84 47 -84zM332 100q119 0 206 79q86 79 121 214l9 41l-240 -33q-119 -14 -178 -53q-60 -40 -60 -112q0 -136 142 -136z" />
    <glyph glyph-name="atilde" unicode="&#xe3;" horiz-adv-x="987" 
d="M756 1036q-52 0 -112 60t-99 61q-39 0 -61 -27t-42 -88h-112q29 115 88 181t143 65q55 0 115 -60t97 -60q38 0 62 28q24 29 42 86h112q-31 -114 -90 -180t-143 -66zM819 106q35 0 84 17l-22 -96q-61 -45 -135 -45t-108 47q-36 47 -28 131q-45 -86 -133 -135
q-87 -49 -201 -49t-184 62t-69 163q0 262 376 309l299 39l9 29q23 98 -17 153t-139 55q-182 0 -256 -165l-150 24q51 127 166 201t278 74t239 -100t34 -269l-90 -361q-23 -84 47 -84zM332 100q119 0 206 79q86 79 121 214l9 41l-240 -33q-119 -14 -178 -53q-60 -40 -60 -112
q0 -136 142 -136z" />
    <glyph glyph-name="adieresis" unicode="&#xe4;" horiz-adv-x="987" 
d="M696 1081l47 193h168l-47 -193h-168zM414 1081l47 193h168l-47 -193h-168zM819 106q35 0 84 17l-22 -96q-61 -45 -135 -45t-108 47q-36 47 -28 131q-45 -86 -133 -135q-87 -49 -201 -49t-184 62t-69 163q0 262 376 309l299 39l9 29q23 98 -17 153t-139 55
q-182 0 -256 -165l-150 24q51 127 166 201t278 74t239 -100t34 -269l-90 -361q-23 -84 47 -84zM332 100q119 0 206 79q86 79 121 214l9 41l-240 -33q-119 -14 -178 -53q-60 -40 -60 -112q0 -136 142 -136z" />
    <glyph glyph-name="aring" unicode="&#xe5;" horiz-adv-x="987" 
d="M666 1081q38 0 66 30t28 68q0 37 -23 59t-61 22t-65 -30t-27 -68t22 -60t60 -21zM680 1343q76 -1 122 -45t46 -119t-54 -128t-132 -53t-122 44q-44 45 -44 120t54 128t130 53zM819 106q35 0 84 17l-22 -96q-61 -45 -135 -45t-108 47q-36 47 -28 131q-45 -86 -133 -135
q-87 -49 -201 -49t-184 62t-69 163q0 262 376 309l299 39l9 29q23 98 -17 153t-139 55q-182 0 -256 -165l-150 24q51 127 166 201t278 74t239 -100t34 -269l-90 -361q-23 -84 47 -84zM332 100q119 0 206 79q86 79 121 214l9 41l-240 -33q-119 -14 -178 -53q-60 -40 -60 -112
q0 -136 142 -136z" />
    <glyph glyph-name="ae" unicode="&#xe6;" horiz-adv-x="1593" 
d="M844 516h538q12 119 -43 196q-55 76 -173 76t-204 -76t-118 -196zM455 516h237l15 62q43 209 -156 208q-184 0 -256 -163l-150 24q51 127 165 200t259 73q201 0 262 -156q150 156 348 156q197 0 283 -113t86 -281q0 -59 -14 -120h-715q-14 -143 55 -221q70 -77 197 -76
q219 0 305 206l140 -18q-54 -154 -176 -238t-287 -84q-271 1 -355 226q-51 -97 -156 -161q-104 -64 -236 -64t-208 62t-75 167q0 143 115 227q116 84 317 84zM473 406q-283 0 -283 -183q0 -59 38 -91t104 -32q119 0 207 77q87 77 120 212l5 17h-191z" />
    <glyph glyph-name="ccedilla" unicode="&#xe7;" horiz-adv-x="993" 
d="M584 -202q0 -80 -72 -118t-190 -38t-203 77l45 66q78 -66 182 -66t105 66q1 53 -55 59t-111 -20l-37 22l108 138q-143 24 -223 122t-80 248q0 234 152 400t385 166q190 0 282 -111t74 -281l-145 -10q10 121 -45 194t-178 72q-152 0 -253 -124t-102 -306q-1 -112 63 -178
t180 -66t199 74t113 197l148 -14q-43 -172 -170 -282t-314 -110h-14l-59 -67q91 25 153 -3t62 -107z" />
    <glyph glyph-name="egrave" unicode="&#xe8;" horiz-adv-x="995" 
d="M717 1032h-111l-129 258h195zM246 516h538q12 119 -43 196q-55 76 -174 76t-203 -76t-118 -196zM444 -25q-174 1 -283 103q-108 102 -108 280q0 226 154 394t363 168q208 0 294 -113t86 -281q0 -59 -14 -120h-715q-14 -141 54 -220q69 -78 198 -77q223 -1 303 206
l142 -18q-56 -152 -178 -237t-296 -85z" />
    <glyph glyph-name="eacute" unicode="&#xe9;" horiz-adv-x="995" 
d="M246 516h538q12 119 -43 196q-55 76 -174 76t-203 -76t-118 -196zM444 -25q-174 1 -283 103q-108 102 -108 280q0 226 154 394t363 168q208 0 294 -113t86 -281q0 -59 -14 -120h-715q-14 -141 54 -220q69 -78 198 -77q223 -1 303 206l142 -18q-56 -152 -178 -237
t-296 -85zM700 1032h-125l179 258h207z" />
    <glyph glyph-name="ecircumflex" unicode="&#xea;" horiz-adv-x="995" 
d="M246 516h538q12 119 -43 196q-55 76 -174 76t-203 -76t-118 -196zM444 -25q-174 1 -283 103q-108 102 -108 280q0 226 154 394t363 168q208 0 294 -113t86 -281q0 -59 -14 -120h-715q-14 -141 54 -220q69 -78 198 -77q223 -1 303 206l142 -18q-56 -152 -178 -237
t-296 -85zM608 1290h197l98 -258h-115l-100 152l-178 -152h-131z" />
    <glyph glyph-name="edieresis" unicode="&#xeb;" horiz-adv-x="995" 
d="M246 516h538q12 119 -43 196q-55 76 -174 76t-203 -76t-118 -196zM444 -25q-174 1 -283 103q-108 102 -108 280q0 226 154 394t363 168q208 0 294 -113t86 -281q0 -59 -14 -120h-715q-14 -141 54 -220q69 -78 198 -77q223 -1 303 206l142 -18q-56 -152 -178 -237
t-296 -85zM713 1081l47 193h168l-47 -193h-168zM430 1081l47 193h168l-47 -193h-168z" />
    <glyph glyph-name="igrave" unicode="&#xec;" horiz-adv-x="401" 
d="M414 1032h-111l-129 258h195zM229 895h170l-221 -895h-170z" />
    <glyph glyph-name="iacute" unicode="&#xed;" horiz-adv-x="401" 
d="M229 895h170l-221 -895h-170zM397 1032h-125l179 258h206z" />
    <glyph glyph-name="icircumflex" unicode="&#xee;" horiz-adv-x="401" 
d="M229 895h170l-221 -895h-170zM313 1290h197l98 -258h-114l-101 152l-178 -152h-131z" />
    <glyph glyph-name="idieresis" unicode="&#xef;" horiz-adv-x="401" 
d="M229 895h170l-221 -895h-170zM418 1081l47 193h168l-47 -193h-168zM135 1081l47 193h168l-47 -193h-168z" />
    <glyph glyph-name="eth" unicode="&#xf0;" horiz-adv-x="1028" 
d="M463 109q156 1 249 119t93 284q0 120 -66 186t-174 66q-154 0 -246 -118t-92 -260q-1 -142 63 -210t173 -67zM977 551q0 -250 -144 -413t-374 -163q-180 1 -293 107t-113 304t137 352q138 154 332 153q194 0 289 -148q-53 160 -190 297l-261 -94l-43 90l220 80
q-92 70 -181 119l107 82q123 -66 217 -148l168 62l43 -90l-129 -47q215 -233 215 -543z" />
    <glyph glyph-name="ntilde" unicode="&#xf1;" horiz-adv-x="1015" 
d="M784 1036q-53 0 -112 60q-58 60 -98 61q-40 0 -62 -27t-41 -88h-113q29 115 88 181t144 65q54 0 114 -60q102 -103 159 -32q24 29 42 86h113q-31 -114 -90 -180t-144 -66zM301 498l-123 -498h-170l221 895h170l-41 -164q125 188 328 189q162 0 228 -102t26 -267
l-137 -551h-170l133 541q29 115 -10 179q-40 64 -144 64t-192 -78t-119 -208z" />
    <glyph glyph-name="ograve" unicode="&#xf2;" horiz-adv-x="1032" 
d="M729 1032h-111l-129 258h195zM461 -25q-182 -1 -295 105t-113 289q1 227 147 389t371 162q182 0 295 -106t113 -288q-1 -229 -147 -390t-371 -161zM463 106q156 0 249 125t93 295q1 123 -63 192t-175 68q-154 0 -248 -124t-94 -272q1 -146 65 -215t173 -69z" />
    <glyph glyph-name="oacute" unicode="&#xf3;" horiz-adv-x="1032" 
d="M461 -25q-182 -1 -295 105t-113 289q1 227 147 389t371 162q182 0 295 -106t113 -288q-1 -229 -147 -390t-371 -161zM463 106q156 0 249 125t93 295q1 123 -63 192t-175 68q-154 0 -248 -124t-94 -272q1 -146 65 -215t173 -69zM711 1032h-125l178 258h207z" />
    <glyph glyph-name="ocircumflex" unicode="&#xf4;" horiz-adv-x="1032" 
d="M461 -25q-182 -1 -295 105t-113 289q1 227 147 389t371 162q182 0 295 -106t113 -288q-1 -229 -147 -390t-371 -161zM463 106q156 0 249 125t93 295q1 123 -63 192t-175 68q-154 0 -248 -124t-94 -272q1 -146 65 -215t173 -69zM616 1290h197l98 -258h-114l-101 152
l-178 -152h-131z" />
    <glyph glyph-name="otilde" unicode="&#xf5;" horiz-adv-x="1032" 
d="M780 1036q-53 0 -112 60q-58 60 -98 61q-40 0 -62 -27t-41 -88h-113q29 115 88 181t144 65q55 0 114 -60q102 -104 159 -32q24 29 42 86h113q-31 -114 -90 -180t-144 -66zM461 -25q-182 -1 -295 105t-113 289q1 227 147 389t371 162q182 0 295 -106t113 -288
q-1 -229 -147 -390t-371 -161zM463 106q156 0 249 125t93 295q1 123 -63 192t-175 68q-154 0 -248 -124t-94 -272q1 -146 65 -215t173 -69z" />
    <glyph glyph-name="odieresis" unicode="&#xf6;" horiz-adv-x="1032" 
d="M461 -25q-182 -1 -295 105t-113 289q1 227 147 389t371 162q182 0 295 -106t113 -288q-1 -229 -147 -390t-371 -161zM463 106q156 0 249 125t93 295q1 123 -63 192t-175 68q-154 0 -248 -124t-94 -272q1 -146 65 -215t173 -69zM727 1081l47 193h168l-47 -193h-168z
M444 1081l48 193h167l-47 -193h-168z" />
    <glyph glyph-name="divide" unicode="&#xf7;" horiz-adv-x="1265" 
d="M436 109l51 206h211l-51 -206h-211zM649 961l53 208h211l-53 -208h-211zM133 567l35 144h1046l-34 -144h-1047z" />
    <glyph glyph-name="oslash" unicode="&#xf8;" horiz-adv-x="1032" 
d="M463 106q158 0 254 124t96 296q0 84 -37 152l-448 -537q57 -35 135 -35zM217 369q0 -90 39 -156l449 539q-55 37 -138 36q-156 0 -253 -124t-97 -295zM571 920q129 0 228 -58l96 117l78 -66l-94 -112q100 -106 100 -275q0 -229 -146 -390t-372 -161q-125 0 -225 56
l-97 -115l-78 66l93 110q-100 106 -101 277q1 227 147 389t371 162z" />
    <glyph glyph-name="ugrave" unicode="&#xf9;" horiz-adv-x="1005" 
d="M711 1032h-111l-129 258h195zM700 393l125 502h170l-223 -895h-170l41 164q-123 -188 -328 -189q-158 1 -219 103t-22 264l137 553h170l-133 -543q-59 -244 141 -243q104 0 193 76q87 77 118 208z" />
    <glyph glyph-name="uacute" unicode="&#xfa;" horiz-adv-x="1005" 
d="M700 393l125 502h170l-223 -895h-170l41 164q-123 -188 -328 -189q-158 1 -219 103t-22 264l137 553h170l-133 -543q-59 -244 141 -243q104 0 193 76q87 77 118 208zM694 1032h-125l179 258h206z" />
    <glyph glyph-name="ucircumflex" unicode="&#xfb;" horiz-adv-x="1005" 
d="M700 393l125 502h170l-223 -895h-170l41 164q-123 -188 -328 -189q-158 1 -219 103t-22 264l137 553h170l-133 -543q-59 -244 141 -243q104 0 193 76q87 77 118 208zM608 1290h197l98 -258h-115l-100 152l-178 -152h-131z" />
    <glyph glyph-name="udieresis" unicode="&#xfc;" horiz-adv-x="1005" 
d="M700 393l125 502h170l-223 -895h-170l41 164q-123 -188 -328 -189q-158 1 -219 103t-22 264l137 553h170l-133 -543q-59 -244 141 -243q104 0 193 76q87 77 118 208zM715 1081l47 193h168l-47 -193h-168zM432 1081l47 193h168l-47 -193h-168z" />
    <glyph glyph-name="yacute" unicode="&#xfd;" horiz-adv-x="940" 
d="M668 1032h-125l178 258h207zM217 -344h-176l240 356l-152 883h166l113 -696h8l446 696h178z" />
    <glyph glyph-name="thorn" unicode="&#xfe;" horiz-adv-x="1091" 
d="M1038 565q0 -227 -142 -408t-376 -182q-114 -1 -194 57t-105 148l-131 -524h-170l410 1634h170l-142 -561q52 86 144 138t200 53q160 0 248 -98t88 -257zM860 553q0 113 -58 172t-169 59t-207 -76t-127 -202l-18 -76q-37 -141 25 -232q62 -92 208 -92t246 134t100 313z
" />
    <glyph glyph-name="ydieresis" unicode="&#xff;" horiz-adv-x="940" 
d="M688 1081l47 193h168l-47 -193h-168zM406 1081l47 193h168l-48 -193h-167zM217 -344h-176l240 356l-152 883h166l113 -696h8l446 696h178z" />
    <glyph glyph-name="Amacron" unicode="&#x100;" horiz-adv-x="1306" 
d="M623 1399l32 129h529l-33 -129h-528zM809 1096l-373 -576h473l-92 576h-8zM762 1290h194l218 -1290h-179l-61 379h-590l-244 -379h-184z" />
    <glyph glyph-name="amacron" unicode="&#x101;" horiz-adv-x="987" 
d="M373 1055l33 131h524l-33 -131h-524zM819 106q35 0 84 17l-22 -96q-61 -45 -135 -45t-108 47q-36 47 -28 131q-45 -86 -133 -135q-87 -49 -201 -49t-184 62t-69 163q0 262 376 309l299 39l9 29q23 98 -17 153t-139 55q-182 0 -256 -165l-150 24q51 127 166 201t278 74
t239 -100t34 -269l-90 -361q-23 -84 47 -84zM332 100q119 0 206 79q86 79 121 214l9 41l-240 -33q-119 -14 -178 -53q-60 -40 -60 -112q0 -136 142 -136z" />
    <glyph glyph-name="Abreve" unicode="&#x102;" horiz-adv-x="1306" 
d="M877 1378q-84 0 -137 43q-52 43 -52 125q0 45 14 96h115q-8 -45 -8 -61q0 -82 90 -82q121 0 156 143h125q-70 -264 -303 -264zM809 1096l-373 -576h473l-92 576h-8zM762 1290h194l218 -1290h-179l-61 379h-590l-244 -379h-184z" />
    <glyph glyph-name="abreve" unicode="&#x103;" horiz-adv-x="987" 
d="M644 1026q-98 0 -149 43q-52 43 -53 125q0 45 15 96h114q-8 -31 -8 -61q0 -82 90 -82q121 0 156 143h123q-34 -128 -112 -196t-176 -68zM819 106q35 0 84 17l-22 -96q-61 -45 -135 -45t-108 47q-36 47 -28 131q-45 -86 -133 -135q-87 -49 -201 -49t-184 62t-69 163
q0 262 376 309l299 39l9 29q23 98 -17 153t-139 55q-182 0 -256 -165l-150 24q51 127 166 201t278 74t239 -100t34 -269l-90 -361q-23 -84 47 -84zM332 100q119 0 206 79q86 79 121 214l9 41l-240 -33q-119 -14 -178 -53q-60 -40 -60 -112q0 -136 142 -136z" />
    <glyph glyph-name="Aogonek" unicode="&#x104;" horiz-adv-x="1306" 
d="M809 1096l-373 -576h475l-94 576h-8zM946 -204q0 -48 64 -48q43 0 112 33l-22 -94q-78 -45 -148 -45t-107 30q-36 30 -36 83t35 101q36 48 72 76t102 68l-23 2l-61 377h-588l-246 -379h-184l846 1290h194l218 -1290q-124 -68 -176 -112t-52 -92z" />
    <glyph glyph-name="aogonek" unicode="&#x105;" horiz-adv-x="987" 
d="M332 100q119 0 207 78q87 78 120 215l11 41l-242 -33q-119 -14 -178 -53t-60 -123q0 -125 142 -125zM640 -358q-142 0 -142 122q0 62 50 115t140 115q-92 33 -78 166q-41 -86 -132 -135q-92 -49 -204 -49t-182 62t-69 163q0 262 376 309l299 39l9 29q23 98 -17 153
t-139 55q-182 0 -256 -165l-150 24q51 127 166 201t278 74t239 -100t34 -269l-90 -361q-23 -84 47 -84q35 0 84 17l-22 -96q-246 -127 -248 -228q0 -51 65 -51q43 0 113 33l-23 -94q-78 -45 -148 -45z" />
    <glyph glyph-name="Cacute" unicode="&#x106;" horiz-adv-x="1366" 
d="M956 1384h-125l175 258h206zM106 545q0 311 206 540t519 230q267 0 405 -153t122 -406l-166 -8q10 186 -86 301t-283 114q-242 0 -387 -181t-145 -433q0 -195 106 -309t291 -113q186 0 314 116t163 300l168 -8q-53 -258 -226 -409t-432 -151t-414 157t-155 413z" />
    <glyph glyph-name="cacute" unicode="&#x107;" horiz-adv-x="993" 
d="M53 354q0 234 152 400t385 166q190 0 282 -111t74 -281l-145 -10q10 121 -45 194t-178 72q-152 0 -253 -124t-102 -306q-1 -112 63 -178t180 -66t199 74t113 197l148 -14q-43 -172 -170 -282q-126 -110 -310 -110q-184 -1 -288 103t-105 276zM700 1032h-125l179 258h207z
" />
    <glyph glyph-name="Ccircumflex" unicode="&#x108;" horiz-adv-x="1366" 
d="M866 1642h195l102 -258h-114l-103 152l-176 -152h-133zM106 545q0 311 206 540t519 230q267 0 405 -153t122 -406l-166 -8q10 186 -86 301t-283 114q-242 0 -387 -181t-145 -433q0 -195 106 -309t291 -113q186 0 314 116t163 300l168 -8q-53 -258 -226 -409t-432 -151
t-414 157t-155 413z" />
    <glyph glyph-name="ccircumflex" unicode="&#x109;" horiz-adv-x="993" 
d="M53 354q0 234 152 400t385 166q190 0 282 -111t74 -281l-145 -10q10 121 -45 194t-178 72q-152 0 -253 -124t-102 -306q-1 -112 63 -178t180 -66t199 74t113 197l148 -14q-43 -172 -170 -282q-126 -110 -310 -110q-184 -1 -288 103t-105 276zM608 1290h197l98 -258h-115
l-100 152l-178 -152h-131z" />
    <glyph glyph-name="Cdotaccent" unicode="&#x10a;" horiz-adv-x="1366" 
d="M106 545q0 311 206 540t519 230q267 0 405 -153t122 -406l-166 -8q10 186 -86 301t-283 114q-242 0 -387 -181t-145 -433q0 -195 106 -309t291 -113q186 0 314 116t163 300l168 -8q-53 -258 -226 -409t-432 -151t-414 157t-155 413zM825 1395l49 192h177l-47 -192h-179z
" />
    <glyph glyph-name="cdotaccent" unicode="&#x10b;" horiz-adv-x="993" 
d="M575 1098l50 192h178l-49 -192h-179zM53 354q0 234 152 400t385 166q190 0 282 -111t74 -281l-145 -10q10 121 -45 194t-178 72q-152 0 -253 -124t-102 -306q-1 -112 63 -178t180 -66t199 74t113 197l148 -14q-43 -172 -170 -282q-126 -110 -310 -110q-184 -1 -288 103
t-105 276z" />
    <glyph glyph-name="Ccaron" unicode="&#x10c;" horiz-adv-x="1366" 
d="M1014 1384h-195l-102 258h114l103 -151l174 151h135zM106 545q0 311 206 540t519 230q267 0 405 -153t122 -406l-166 -8q10 186 -86 301t-283 114q-242 0 -387 -181t-145 -433q0 -195 106 -309t291 -113q186 0 314 116t163 300l168 -8q-53 -258 -226 -409t-432 -151
t-414 157t-155 413z" />
    <glyph glyph-name="ccaron" unicode="&#x10d;" horiz-adv-x="993" 
d="M53 354q0 234 152 400t385 166q190 0 282 -111t74 -281l-145 -10q10 121 -45 194t-178 72q-152 0 -253 -124t-102 -306q-1 -112 63 -178t180 -66t199 74t113 197l148 -14q-43 -172 -170 -282q-126 -110 -310 -110q-184 -1 -288 103t-105 276zM752 1032h-197l-98 258h114
l101 -153l178 153h131z" />
    <glyph glyph-name="Dcaron" unicode="&#x10e;" horiz-adv-x="1318" 
d="M739 1290q266 0 419 -134t153 -374q0 -344 -221 -563t-590 -219h-484l322 1290h401zM518 145q285 -1 448 175t162 460q0 180 -108 273q-109 92 -320 92h-223l-248 -1000h289zM915 1384h-194l-103 258h115l103 -151l174 151h135z" />
    <glyph glyph-name="dcaron" unicode="&#x10f;" horiz-adv-x="1085" 
d="M53 330q1 227 143 408t373 182q115 0 195 -58t104 -147l144 575h170l-322 -1290h-170l43 166q-51 -86 -143 -138t-203 -53q-160 1 -247 97t-87 258zM590 786q-160 0 -259 -133t-100 -311q1 -113 59 -172t169 -59q111 -1 206 75t126 201l20 78q37 141 -27 231t-194 90z
M1305 1020h-99l101 270h188z" />
    <glyph glyph-name="Dcroat" unicode="&#x110;" horiz-adv-x="1345" 
d="M545 145q285 -1 447 175t163 460q0 180 -108 273q-109 92 -320 92h-223l-103 -408h361l-35 -145h-360l-111 -447h289zM766 1290q266 0 419 -134t152 -374q0 -344 -221 -563t-590 -219h-483l147 592h-139l37 145h137l140 553h401z" />
    <glyph glyph-name="dcroat" unicode="&#x111;" horiz-adv-x="1085" 
d="M590 782q-160 0 -259 -133t-100 -311q1 -111 59 -170t169 -59q111 -1 206 75t126 201l20 76q37 139 -27 230t-194 91zM53 328q1 225 143 404t373 179q115 0 194 -57t103 -147l76 303h-285l29 114h285l41 166h170l-41 -166h129l-29 -114h-129l-252 -1010h-170l43 164
q-51 -86 -143 -137t-203 -52q-160 1 -247 97t-87 256z" />
    <glyph glyph-name="Emacron" unicode="&#x112;" horiz-adv-x="1122" 
d="M973 147l-37 -147h-920l322 1290h901l-37 -147h-729l-100 -406h579l-37 -145h-579l-111 -445h748zM551 1399l33 129h528l-33 -129h-528z" />
    <glyph glyph-name="emacron" unicode="&#x113;" horiz-adv-x="995" 
d="M389 1055l33 131h524l-33 -131h-524zM246 516h538q12 119 -43 196q-55 76 -174 76t-203 -76t-118 -196zM444 -25q-174 1 -283 103q-108 102 -108 280q0 226 154 394t363 168q208 0 294 -113t86 -281q0 -59 -14 -120h-715q-14 -141 54 -220q69 -78 198 -77q223 -1 303 206
l142 -18q-56 -152 -178 -237t-296 -85z" />
    <glyph glyph-name="Ebreve" unicode="&#x114;" horiz-adv-x="1122" 
d="M973 147l-37 -147h-920l322 1290h901l-37 -147h-729l-100 -406h579l-37 -145h-579l-111 -445h748zM805 1378q-84 0 -136 43t-53 125q0 45 15 96h114q-8 -45 -8 -61q0 -82 90 -82q119 0 156 143h125q-72 -264 -303 -264z" />
    <glyph glyph-name="ebreve" unicode="&#x115;" horiz-adv-x="995" 
d="M664 1026q-98 0 -149 43q-52 43 -52 125q0 45 14 96h115q-8 -31 -8 -61q0 -82 90 -82q121 0 155 143h123q-34 -128 -112 -196t-176 -68zM246 516h538q12 119 -43 196q-55 76 -174 76t-203 -76t-118 -196zM444 -25q-174 1 -283 103q-108 102 -108 280q0 226 154 394
t363 168q208 0 294 -113t86 -281q0 -59 -14 -120h-715q-14 -141 54 -220q69 -78 198 -77q223 -1 303 206l142 -18q-56 -152 -178 -237t-296 -85z" />
    <glyph glyph-name="Edotaccent" unicode="&#x116;" horiz-adv-x="1122" 
d="M973 147l-37 -147h-920l322 1290h901l-37 -147h-729l-100 -406h579l-37 -145h-579l-111 -445h748zM727 1395l49 192h176l-47 -192h-178z" />
    <glyph glyph-name="edotaccent" unicode="&#x117;" horiz-adv-x="995" 
d="M578 1098l49 192h178l-49 -192h-178zM246 516h538q12 119 -43 196q-55 76 -174 76t-203 -76t-118 -196zM444 -25q-174 1 -283 103q-108 102 -108 280q0 226 154 394t363 168q208 0 294 -113t86 -281q0 -59 -14 -120h-715q-14 -141 54 -220q69 -78 198 -77q223 -1 303 206
l142 -18q-56 -152 -178 -237t-296 -85z" />
    <glyph glyph-name="Eogonek" unicode="&#x118;" horiz-adv-x="1122" 
d="M641 -205q1 -47 55 -47t123 33l-24 -94q-73 -45 -145 -45t-108 30t-36 83t35 101t71 76t101 68h-697l322 1290h901l-37 -147h-729l-100 -406h579l-37 -145h-579l-111 -445h748l-37 -147h-113q-102 -76 -142 -117t-40 -88z" />
    <glyph glyph-name="eogonek" unicode="&#x119;" horiz-adv-x="995" 
d="M246 516h538q12 119 -43 196q-55 76 -174 76t-203 -76t-118 -196zM482 -358q-144 0 -144 120q0 58 44 110t126 108q-18 -4 -53 -5q-186 1 -294 103t-108 280q0 226 154 394t363 168q208 0 294 -113t86 -281q0 -59 -14 -120h-715q-14 -141 54 -220q69 -78 198 -77
q223 -1 303 206l142 -18q-59 -168 -232 -272q-213 -129 -213 -226q1 -51 55 -51t123 33l-24 -94q-73 -45 -145 -45z" />
    <glyph glyph-name="Ecaron" unicode="&#x11a;" horiz-adv-x="1122" 
d="M973 147l-37 -147h-920l322 1290h901l-37 -147h-729l-100 -406h579l-37 -145h-579l-111 -445h748zM918 1384h-195l-102 258h114l103 -151l174 151h135z" />
    <glyph glyph-name="ecaron" unicode="&#x11b;" horiz-adv-x="995" 
d="M246 516h538q12 119 -43 196q-55 76 -174 76t-203 -76t-118 -196zM444 -25q-174 1 -283 103q-108 102 -108 280q0 226 154 394t363 168q208 0 294 -113t86 -281q0 -59 -14 -120h-715q-14 -141 54 -220q69 -78 198 -77q223 -1 303 206l142 -18q-56 -152 -178 -237
t-296 -85zM752 1032h-197l-98 258h114l101 -153l178 153h131z" />
    <glyph glyph-name="Gcircumflex" unicode="&#x11c;" horiz-adv-x="1411" 
d="M856 1642h195l102 -258h-115l-102 152l-176 -152h-133zM291 547q0 -197 106 -309q105 -112 279 -113q174 0 295 100t180 273h-391l35 139h553l-158 -637h-158l53 219q-57 -115 -171 -179t-269 -65q-239 0 -389 157t-150 411q0 313 206 542t519 230q263 -1 397 -149
t130 -390l-170 -10q4 176 -89 287t-276 110q-242 0 -387 -181t-145 -435z" />
    <glyph glyph-name="gcircumflex" unicode="&#x11d;" horiz-adv-x="1062" 
d="M393 29q-154 0 -247 95t-93 255q0 215 137 378t369 163q115 0 193 -54t104 -141l43 170h170l-203 -821q-109 -434 -512 -434q-154 0 -266 87t-115 242l156 13q8 -104 74 -158t159 -53q262 0 338 313l29 121q-49 -80 -139 -128t-197 -48zM578 793q-162 0 -256 -120
t-95 -288q-1 -115 61 -173t170 -58t200 70t120 190l21 75q33 133 -29 219t-192 85zM643 1290h197l98 -258h-115l-100 152l-178 -152h-131z" />
    <glyph glyph-name="Gbreve" unicode="&#x11e;" horiz-adv-x="1411" 
d="M291 547q0 -197 106 -309q105 -112 279 -113q174 0 295 100t180 273h-391l35 139h553l-158 -637h-158l53 219q-57 -115 -171 -179t-269 -65q-239 0 -389 157t-150 411q0 313 206 542t519 230q263 -1 397 -149t130 -390l-170 -10q4 176 -89 287t-276 110q-242 0 -387 -181
t-145 -435zM891 1378q-84 0 -136 43t-53 125q0 45 15 96h114q-8 -45 -8 -61q0 -82 90 -82q119 0 156 143h125q-72 -264 -303 -264z" />
    <glyph glyph-name="gbreve" unicode="&#x11f;" horiz-adv-x="1062" 
d="M696 1026q-98 0 -150 43t-52 125q0 45 14 96h115q-8 -31 -9 -61q0 -82 91 -82q119 0 155 143h123q-33 -128 -111 -196t-176 -68zM393 29q-154 0 -247 95t-93 255q0 215 137 378t369 163q115 0 193 -54t104 -141l43 170h170l-203 -821q-109 -434 -512 -434q-154 0 -266 87
t-115 242l156 13q8 -104 74 -158t159 -53q262 0 338 313l29 121q-49 -80 -139 -128t-197 -48zM578 793q-162 0 -256 -120t-95 -288q-1 -115 61 -173t170 -58t200 70t120 190l21 75q33 133 -29 219t-192 85z" />
    <glyph glyph-name="Gdotaccent" unicode="&#x120;" horiz-adv-x="1411" 
d="M291 547q0 -197 106 -309q105 -112 279 -113q174 0 295 100t180 273h-391l35 139h553l-158 -637h-158l53 219q-57 -115 -171 -179t-269 -65q-239 0 -389 157t-150 411q0 313 206 542t519 230q263 -1 397 -149t130 -390l-170 -10q4 176 -89 287t-276 110q-242 0 -387 -181
t-145 -435zM815 1395l49 192h176l-47 -192h-178z" />
    <glyph glyph-name="gdotaccent" unicode="&#x121;" horiz-adv-x="1062" 
d="M606 1098l49 192h179l-50 -192h-178zM393 29q-154 0 -247 95t-93 255q0 215 137 378t369 163q115 0 193 -54t104 -141l43 170h170l-203 -821q-109 -434 -512 -434q-154 0 -266 87t-115 242l156 13q8 -104 74 -158t159 -53q262 0 338 313l29 121q-49 -80 -139 -128
t-197 -48zM578 793q-162 0 -256 -120t-95 -288q-1 -115 61 -173t170 -58t200 70t120 190l21 75q33 133 -29 219t-192 85z" />
    <glyph glyph-name="Gcommaaccent" unicode="&#x122;" horiz-adv-x="1411" 
d="M291 547q0 -197 106 -309q105 -112 279 -113q174 0 295 100t180 273h-391l35 139h553l-158 -637h-158l53 219q-57 -115 -171 -179t-269 -65q-239 0 -389 157t-150 411q0 313 206 542t519 230q263 -1 397 -149t130 -390l-170 -10q4 176 -89 287t-276 110q-242 0 -387 -181
t-145 -435zM475 -246l35 142h184l-28 -111q-43 -180 -230 -180l19 71q43 0 65 18t35 60h-80z" />
    <glyph glyph-name="gcommaaccent" unicode="&#x123;" horiz-adv-x="1062" 
d="M393 29q-154 0 -247 95t-93 255q0 215 137 378t369 163q115 0 193 -54t104 -141l43 170h170l-203 -821q-109 -434 -512 -434q-154 0 -266 87t-115 242l156 13q8 -104 74 -158t159 -53q262 0 338 313l29 121q-49 -80 -139 -128t-197 -48zM578 793q-162 0 -256 -120
t-95 -288q-1 -115 61 -173t170 -58t200 70t120 190l21 75q33 133 -29 219t-192 85zM817 1206l-35 -141h-184l29 111q43 180 229 180l-18 -72q-43 0 -66 -17t-35 -61h80z" />
    <glyph glyph-name="Hcircumflex" unicode="&#x124;" horiz-adv-x="1347" 
d="M868 1642h195l102 -258h-114l-103 152l-176 -152h-133zM195 0h-179l322 1290h178l-139 -553h743l137 553h179l-322 -1290h-178l147 592h-743z" />
    <glyph glyph-name="hcircumflex" unicode="&#x125;" horiz-adv-x="1015" 
d="M690 1642h195l102 -258h-115l-102 152l-176 -152h-133zM301 498l-123 -498h-170l322 1290h170l-142 -559q125 188 328 189q162 0 228 -102t26 -267l-137 -551h-170l133 541q29 115 -10 179q-40 64 -144 64t-192 -78t-119 -208z" />
    <glyph glyph-name="Hbar" unicode="&#x126;" horiz-adv-x="1402" 
d="M391 684h744l51 211h-744zM115 895l35 145h153l64 250h176l-64 -250h744l63 250h176l-63 -250h149l-35 -145h-149l-223 -895h-176l133 537h-744l-133 -537h-176l223 895h-153z" />
    <glyph glyph-name="hbar" unicode="&#x127;" horiz-adv-x="1015" 
d="M684 911q162 0 228 -102t26 -264l-135 -545h-170l131 532q29 115 -10 180q-40 64 -144 64t-191 -77t-120 -207l-121 -492h-170l252 1010h-131l29 114h131l41 166h170l-43 -166h284l-28 -114h-285l-72 -287q125 188 328 188z" />
    <glyph glyph-name="Itilde" unicode="&#x128;" horiz-adv-x="428" 
d="M338 1290h178l-321 -1290h-179zM563 1374q-51 0 -106 60t-90 61q-35 0 -55 -27t-38 -88h-108q27 115 82 182t133 66q51 0 106 -61t91 -61t55 27q20 28 39 89h110q-61 -248 -219 -248z" />
    <glyph glyph-name="itilde" unicode="&#x129;" horiz-adv-x="401" 
d="M223 895h170l-223 -895h-170zM453 1036q-51 0 -99 60t-80 61q-32 0 -51 -27t-35 -88h-108q25 115 80 181t133 65q31 0 57 -18t41 -42q34 -59 72 -60q37 -1 57 27t37 87h109q-27 -114 -82 -180t-131 -66z" />
    <glyph glyph-name="Imacron" unicode="&#x12a;" horiz-adv-x="428" 
d="M338 1290h178l-321 -1290h-179zM203 1399l33 129h497l-33 -129h-497z" />
    <glyph glyph-name="imacron" unicode="&#x12b;" horiz-adv-x="401" 
d="M229 895h170l-221 -895h-170zM131 1055l33 131h452l-32 -131h-453z" />
    <glyph glyph-name="Ibreve" unicode="&#x12c;" horiz-adv-x="428" 
d="M442 1378q-84 0 -136 43t-52 125q0 45 14 96h115q-8 -45 -8 -61q0 -82 90 -82q121 0 156 143h124q-70 -264 -303 -264zM338 1290h178l-321 -1290h-179z" />
    <glyph glyph-name="ibreve" unicode="&#x12d;" horiz-adv-x="401" 
d="M362 1026q-98 0 -150 43t-52 125q0 45 14 96h115q-8 -31 -8 -61q0 -82 90 -82q121 0 155 143h123q-33 -128 -111 -196t-176 -68zM229 895h170l-221 -895h-170z" />
    <glyph glyph-name="Iogonek" unicode="&#x12e;" horiz-adv-x="428" 
d="M-24 -358q-144 0 -144 124q0 64 54 118t155 116l-25 2l322 1288h178l-321 -1290q-125 -68 -177 -112t-51 -92t55 -48t123 33l-24 -94q-73 -45 -145 -45z" />
    <glyph glyph-name="iogonek" unicode="&#x12f;" horiz-adv-x="401" 
d="M276 1098l50 192h176l-47 -192h-179zM-45 -204q0 -48 65 -48q43 0 113 33l-22 -94q-79 -45 -149 -45t-106 30t-36 83t35 101t71 76t103 68l-21 2l221 893h170l-221 -895q-123 -68 -173 -112t-50 -92z" />
    <glyph glyph-name="Idotaccent" unicode="&#x130;" horiz-adv-x="428" 
d="M365 1395l49 192h176l-47 -192h-178zM338 1290h178l-321 -1290h-179z" />
    <glyph glyph-name="dotlessi" unicode="&#x131;" horiz-adv-x="401" 
d="M229 895h170l-221 -895h-170z" />
    <glyph glyph-name="IJ" unicode="&#x132;" horiz-adv-x="1460" 
d="M835 -25q-209 1 -313 133t-67 357l168 12q-27 -174 33 -263t200 -89t217 85q78 85 121 259l205 821h176l-219 -874q-51 -209 -181 -325t-340 -116zM338 1290h178l-321 -1290h-179z" />
    <glyph glyph-name="ij" unicode="&#x133;" horiz-adv-x="802" 
d="M678 1098l49 192h176l-47 -192h-178zM291 -369q-127 0 -205 78l66 98q63 -47 113 -47t72 24t38 81l256 1030h170l-260 -1051q-53 -213 -250 -213zM276 1098l50 192h176l-47 -192h-179zM229 895h170l-221 -895h-170z" />
    <glyph glyph-name="Jcircumflex" unicode="&#x134;" horiz-adv-x="1036" 
d="M1032 1642h195l102 -258h-115l-102 152l-176 -152h-133zM411 -25q-209 1 -313 133t-67 357l168 12q-27 -174 33 -263t200 -89t217 85q78 85 121 259l205 821h176l-219 -874q-51 -209 -181 -325t-340 -116z" />
    <glyph glyph-name="jcircumflex" unicode="&#x135;" horiz-adv-x="401" 
d="M301 1290h197l98 -258h-115l-100 152l-178 -152h-131zM-111 -369q-127 0 -204 78l65 98q64 -47 114 -47t72 24t37 81l256 1030h170l-260 -1051q-53 -213 -250 -213z" />
    <glyph glyph-name="Kcommaaccent" unicode="&#x136;" horiz-adv-x="1196" 
d="M1092 0h-199l-389 618l-197 -157l-112 -461h-179l322 1290h178l-158 -626l772 626h222l-707 -575zM358 -246l35 142h185l-29 -111q-43 -180 -230 -180l19 71q44 0 66 18t34 60h-80z" />
    <glyph glyph-name="kcommaaccent" unicode="&#x137;" horiz-adv-x="978" 
d="M256 324l-78 -324h-170l322 1290h170l-201 -794l537 399h225l-514 -377l311 -518h-186l-260 434zM227 -246l35 142h184l-28 -111q-43 -180 -230 -180l19 71q43 0 65 18t35 60h-80z" />
    <glyph glyph-name="kgreenlandic" unicode="&#x138;" horiz-adv-x="978" 
d="M256 324l-78 -324h-170l221 895h170l-100 -399l537 399h225l-514 -377l311 -518h-186l-260 434z" />
    <glyph glyph-name="Lacute" unicode="&#x139;" horiz-adv-x="1073" 
d="M338 1290h178l-287 -1143h719l-35 -147h-897zM510 1384h-125l174 258h207z" />
    <glyph glyph-name="lacute" unicode="&#x13a;" horiz-adv-x="401" 
d="M330 1290h170l-322 -1290h-170zM500 1384h-125l174 258h207z" />
    <glyph glyph-name="Lcommaaccent" unicode="&#x13b;" horiz-adv-x="1073" 
d="M338 1290h178l-287 -1143h719l-35 -147h-897zM328 -246l34 142h185l-29 -111q-43 -180 -229 -180l18 71q43 0 66 18t35 60h-80z" />
    <glyph glyph-name="lcommaaccent" unicode="&#x13c;" horiz-adv-x="401" 
d="M330 1290h170l-322 -1290h-170zM-61 -246l34 142h185l-29 -111q-43 -180 -229 -180l18 71q43 0 66 18t34 60h-79z" />
    <glyph glyph-name="Lcaron" unicode="&#x13d;" horiz-adv-x="1073" 
d="M338 1290h178l-287 -1143h719l-35 -147h-897zM764 1020h-98l100 270h188z" />
    <glyph glyph-name="lcaron" unicode="&#x13e;" horiz-adv-x="401" 
d="M330 1290h170l-322 -1290h-170zM623 1020h-99l101 270h188z" />
    <glyph glyph-name="Ldot" unicode="&#x13f;" horiz-adv-x="1073" 
d="M721 596l49 192h178l-49 -192h-178zM338 1290h178l-287 -1143h719l-35 -147h-897z" />
    <glyph glyph-name="ldot" unicode="&#x140;" horiz-adv-x="657" 
d="M465 551l49 192h178l-49 -192h-178zM330 1290h170l-322 -1290h-170z" />
    <glyph glyph-name="Lslash" unicode="&#x141;" horiz-adv-x="1110" 
d="M375 1290h178l-147 -588l339 150l-36 -156l-342 -147l-101 -402h719l-35 -147h-897l119 477l-152 -65l37 155l154 68z" />
    <glyph glyph-name="lslash" unicode="&#x142;" horiz-adv-x="499" 
d="M362 1290h170l-122 -491l184 96l-37 -145l-184 -95l-162 -655h-170l143 578l-172 -86l37 145l172 88z" />
    <glyph glyph-name="Nacute" unicode="&#x143;" horiz-adv-x="1306" 
d="M522 1290l455 -1009l252 1009h166l-322 -1290h-139l-488 1065l-264 -1065h-166l322 1290h184zM940 1384h-125l174 258h207z" />
    <glyph glyph-name="nacute" unicode="&#x144;" horiz-adv-x="1015" 
d="M301 498l-123 -498h-170l221 895h170l-41 -164q125 188 328 189q162 0 228 -102t26 -267l-137 -551h-170l133 541q29 115 -10 179q-40 64 -144 64t-192 -78t-119 -208zM715 1032h-125l178 258h207z" />
    <glyph glyph-name="Ncommaaccent" unicode="&#x145;" horiz-adv-x="1306" 
d="M522 1290l455 -1009l252 1009h166l-322 -1290h-139l-488 1065l-264 -1065h-166l322 1290h184zM393 -246l35 142h184l-28 -111q-43 -180 -230 -180l19 71q43 0 65 18t35 60h-80z" />
    <glyph glyph-name="ncommaaccent" unicode="&#x146;" horiz-adv-x="1015" 
d="M301 498l-123 -498h-170l221 895h170l-41 -164q125 188 328 189q162 0 228 -102t26 -267l-137 -551h-170l133 541q29 115 -10 179q-40 64 -144 64t-192 -78t-119 -208zM254 -246l35 142h184l-29 -111q-43 -180 -229 -180l18 71q43 0 66 18t35 60h-80z" />
    <glyph glyph-name="Ncaron" unicode="&#x147;" horiz-adv-x="1306" 
d="M522 1290l455 -1009l252 1009h166l-322 -1290h-139l-488 1065l-264 -1065h-166l322 1290h184zM997 1384h-194l-103 258h115l103 -151l174 151h135z" />
    <glyph glyph-name="ncaron" unicode="&#x148;" horiz-adv-x="1015" 
d="M301 498l-123 -498h-170l221 895h170l-41 -164q125 188 328 189q162 0 228 -102t26 -267l-137 -551h-170l133 541q29 115 -10 179q-40 64 -144 64t-192 -78t-119 -208zM760 1032h-197l-98 258h115l100 -153l178 153h131z" />
    <glyph glyph-name="Eng" unicode="&#x14a;" horiz-adv-x="1306" 
d="M711 -369q-111 0 -188 46t-107 120l108 92q61 -115 183 -114q88 1 136 61t77 195l-474 1034l-264 -1065h-166l322 1290h184l455 -1009l252 1009h166l-332 -1329q-84 -330 -352 -330z" />
    <glyph glyph-name="eng" unicode="&#x14b;" horiz-adv-x="1015" 
d="M514 -369q-127 0 -205 78l66 98q63 -47 113 -47t74 25q22 25 36 80l168 676q29 115 -10 179q-40 64 -144 64t-192 -78t-119 -208l-123 -498h-170l221 895h170l-41 -164q125 188 328 189q162 0 228 -102t26 -267l-176 -707q-53 -213 -250 -213z" />
    <glyph glyph-name="Omacron" unicode="&#x14c;" horiz-adv-x="1411" 
d="M692 127q231 0 379 183q147 183 148 444q-1 184 -107 297t-295 112q-231 0 -379 -183t-147 -443q1 -184 107 -297t294 -113zM819 1315q264 0 424 -151t160 -410q0 -314 -202 -546t-511 -233q-264 0 -424 151t-160 411q0 313 202 545t511 233zM645 1399l33 129h528
l-32 -129h-529z" />
    <glyph glyph-name="omacron" unicode="&#x14d;" horiz-adv-x="1032" 
d="M461 -25q-182 -1 -295 105t-113 289q1 227 147 389t371 162q182 0 295 -106t113 -288q-1 -229 -147 -390t-371 -161zM463 106q156 0 249 125t93 295q1 123 -63 192t-175 68q-154 0 -248 -124t-94 -272q1 -146 65 -215t173 -69zM408 1055l32 131h525l-33 -131h-524z" />
    <glyph glyph-name="Obreve" unicode="&#x14e;" horiz-adv-x="1411" 
d="M692 127q231 0 379 183q147 183 148 444q-1 184 -107 297t-295 112q-231 0 -379 -183t-147 -443q1 -184 107 -297t294 -113zM819 1315q264 0 424 -151t160 -410q0 -314 -202 -546t-511 -233q-264 0 -424 151t-160 411q0 313 202 545t511 233zM905 1378q-84 0 -136 43
t-52 125q0 45 14 96h115q-8 -45 -8 -61q0 -82 90 -82q121 0 155 143h125q-72 -264 -303 -264z" />
    <glyph glyph-name="obreve" unicode="&#x14f;" horiz-adv-x="1032" 
d="M678 1026q-98 0 -151 43q-52 43 -52 125q0 45 14 96h115q-8 -31 -8 -61q0 -82 90 -82q121 0 156 143h123q-33 -128 -111 -196t-176 -68zM461 -25q-182 -1 -295 105t-113 289q1 227 147 389t371 162q182 0 295 -106t113 -288q-1 -229 -147 -390t-371 -161zM463 106
q156 0 249 125t93 295q1 123 -63 192t-175 68q-154 0 -248 -124t-94 -272q1 -146 65 -215t173 -69z" />
    <glyph glyph-name="Ohungarumlaut" unicode="&#x150;" horiz-adv-x="1411" 
d="M1038 1384h-106l168 258h194zM770 1384h-106l167 258h195zM692 127q231 0 379 183q147 183 148 444q-1 184 -107 297t-295 112q-231 0 -379 -183t-147 -443q1 -184 107 -297t294 -113zM819 1315q264 0 424 -151t160 -410q0 -314 -202 -546t-511 -233q-264 0 -424 151
t-160 411q0 313 202 545t511 233z" />
    <glyph glyph-name="ohungarumlaut" unicode="&#x151;" horiz-adv-x="1032" 
d="M461 -25q-182 -1 -295 105t-113 289q1 227 147 389t371 162q182 0 295 -106t113 -288q-1 -229 -147 -390t-371 -161zM463 106q156 0 249 125t93 295q1 123 -63 192t-175 68q-154 0 -248 -124t-94 -272q1 -146 65 -215t173 -69zM803 1032h-107l170 258h195zM532 1032h-106
l170 258h195z" />
    <glyph glyph-name="OE" unicode="&#x152;" horiz-adv-x="1961" 
d="M289 510q0 -363 428 -365h172l250 1000h-240q-285 0 -447 -175t-163 -460zM678 0q-266 0 -419 134t-153 374q0 346 216 564t581 218h1178l-39 -147h-729l-99 -406h580l-39 -145h-579l-111 -445h747l-34 -147h-1100z" />
    <glyph glyph-name="oe" unicode="&#x153;" horiz-adv-x="1722" 
d="M971 516h538q12 119 -42 196q-54 76 -173 76q-118 0 -204 -76t-119 -196zM463 106q156 0 249 125t93 295q0 123 -65 193t-173 69q-154 0 -248 -124t-94 -295q1 -125 65 -194t173 -69zM53 369q1 229 147 390t380 161t340 -195q154 195 391 195q193 0 279 -113t85 -281
q0 -59 -14 -120h-715q-12 -141 55 -220q68 -78 197 -77q221 0 305 206l139 -18q-53 -152 -175 -237t-287 -85q-248 0 -346 185q-143 -184 -373 -185q-182 -1 -295 105t-113 289z" />
    <glyph glyph-name="Racute" unicode="&#x154;" horiz-adv-x="1210" 
d="M862 1384h-125l174 258h207zM700 662q168 0 272 73q103 74 103 219q0 190 -266 191h-334l-121 -483h346zM844 1290q411 0 411 -318q0 -160 -106 -264q-106 -105 -277 -126q184 -35 185 -207q1 -37 -17 -145t-18 -154t18 -76h-184q-10 20 -10 66t16 149q16 104 17 143
q0 162 -199 162h-361l-129 -520h-174l322 1290h506z" />
    <glyph glyph-name="racute" unicode="&#x155;" horiz-adv-x="677" 
d="M580 762q-84 0 -168 -81t-117 -208l-117 -473h-170l221 895h170l-45 -182q51 94 130 150q79 57 164 57t130 -41l-55 -154q-59 37 -143 37zM567 1032h-125l179 258h206z" />
    <glyph glyph-name="Rcommaaccent" unicode="&#x156;" horiz-adv-x="1210" 
d="M700 662q168 0 272 73q103 74 103 219q0 190 -266 191h-334l-121 -483h346zM844 1290q411 0 411 -318q0 -160 -106 -264q-106 -105 -277 -126q184 -35 185 -207q1 -37 -17 -145t-18 -154t18 -76h-184q-10 20 -10 66t16 149q16 104 17 143q0 162 -199 162h-361l-129 -520
h-174l322 1290h506zM336 -246l35 142h184l-29 -111q-43 -180 -229 -180l18 71q43 0 66 18t35 60h-80z" />
    <glyph glyph-name="rcommaaccent" unicode="&#x157;" horiz-adv-x="677" 
d="M580 762q-84 0 -168 -81t-117 -208l-117 -473h-170l221 895h170l-45 -182q51 94 130 150q79 57 164 57t130 -41l-55 -154q-59 37 -143 37zM-59 -246l34 142h185l-29 -111q-43 -180 -229 -180l18 71q43 0 66 18t34 60h-79z" />
    <glyph glyph-name="Rcaron" unicode="&#x158;" horiz-adv-x="1210" 
d="M700 662q168 0 272 73q103 74 103 219q0 190 -266 191h-334l-121 -483h346zM844 1290q411 0 411 -318q0 -160 -106 -264q-106 -105 -277 -126q184 -35 185 -207q1 -37 -17 -145t-18 -154t18 -76h-184q-10 20 -10 66t16 149q16 104 17 143q0 162 -199 162h-361l-129 -520
h-174l322 1290h506zM922 1384h-195l-102 258h114l103 -151l174 151h135z" />
    <glyph glyph-name="rcaron" unicode="&#x159;" horiz-adv-x="677" 
d="M580 762q-84 0 -168 -81t-117 -208l-117 -473h-170l221 895h170l-45 -182q51 94 130 150q79 57 164 57t130 -41l-55 -154q-59 37 -143 37zM618 1032h-196l-98 258h114l101 -153l178 153h131z" />
    <glyph glyph-name="Sacute" unicode="&#x15a;" horiz-adv-x="1157" 
d="M831 1384h-124l174 258h206zM588 115q143 0 224 63t81 176q0 76 -48 121t-157 76l-205 57q-266 74 -266 314q0 172 127 282q128 110 354 111q226 0 361 -136t108 -368l-161 2q20 156 -69 259q-89 104 -241 104t-226 -60q-75 -60 -75 -172q0 -78 45 -122t146 -70l174 -50
q313 -90 313 -325q0 -186 -139 -294t-350 -108q-258 1 -406 141t-115 396l164 -2q-27 -190 73 -292t288 -103z" />
    <glyph glyph-name="sacute" unicode="&#x15b;" horiz-adv-x="897" 
d="M616 234q0 58 -32 84q-32 28 -105 49l-114 32q-219 59 -220 238q1 127 97 205t262 78t260 -90q96 -90 92 -252l-139 -9q1 109 -59 167t-158 58t-148 -35q-49 -36 -49 -102q0 -88 129 -120l127 -35q219 -61 219 -240q0 -135 -104 -211t-272 -76q-168 1 -280 93t-104 260
l140 10q-4 -117 72 -178q76 -62 176 -62q102 0 156 39t54 97zM633 1032h-125l178 258h207z" />
    <glyph glyph-name="Scircumflex" unicode="&#x15c;" horiz-adv-x="1157" 
d="M745 1642h195l102 -258h-114l-103 152l-176 -152h-133zM588 115q143 0 224 63t81 176q0 76 -48 121t-157 76l-205 57q-266 74 -266 314q0 172 127 282q128 110 354 111q226 0 361 -136t108 -368l-161 2q20 156 -69 259q-89 104 -241 104t-226 -60q-75 -60 -75 -172
q0 -78 45 -122t146 -70l174 -50q313 -90 313 -325q0 -186 -139 -294t-350 -108q-258 1 -406 141t-115 396l164 -2q-27 -190 73 -292t288 -103z" />
    <glyph glyph-name="scircumflex" unicode="&#x15d;" horiz-adv-x="897" 
d="M616 234q0 58 -32 84q-32 28 -105 49l-114 32q-219 59 -220 238q1 127 97 205t262 78t260 -90q96 -90 92 -252l-139 -9q1 109 -59 167t-158 58t-148 -35q-49 -36 -49 -102q0 -88 129 -120l127 -35q219 -61 219 -240q0 -135 -104 -211t-272 -76q-168 1 -280 93t-104 260
l140 10q-4 -117 72 -178q76 -62 176 -62q102 0 156 39t54 97zM547 1290h196l99 -258h-115l-100 152l-178 -152h-132z" />
    <glyph glyph-name="Scedilla" unicode="&#x15e;" horiz-adv-x="1157" 
d="M655 -202q1 -80 -71 -118t-190 -38t-204 77l46 66q78 -66 182 -66t104 66q0 53 -55 59t-111 -20l-37 22l115 144q-195 37 -297 172t-74 350l164 -2q-27 -190 73 -292t288 -103q143 0 224 63t81 176q0 76 -48 121t-157 76l-205 57q-266 74 -266 314q0 172 127 282
q128 110 354 111q226 0 361 -136t108 -368l-161 2q20 156 -69 259q-89 104 -241 104t-226 -60q-75 -60 -75 -172q0 -78 45 -122t146 -70l174 -50q313 -90 313 -325q0 -186 -139 -294t-350 -108q-29 0 -82 5l-62 -72q92 25 154 -3t61 -107z" />
    <glyph glyph-name="scedilla" unicode="&#x15f;" horiz-adv-x="897" 
d="M516 -202q0 -80 -72 -118t-190 -38t-203 77l45 66q78 -66 182 -66t105 66q0 53 -55 59t-111 -20l-37 22l113 142q-131 28 -207 114t-68 226l140 10q-4 -117 72 -178q76 -62 176 -62q102 0 156 39t54 97t-32 84q-32 28 -105 49l-114 32q-219 59 -220 238q1 127 97 205
t262 78t260 -90q96 -90 92 -252l-139 -9q1 109 -59 167t-158 58t-148 -35q-49 -36 -49 -102q0 -88 129 -120l127 -35q219 -61 219 -240q0 -135 -104 -211t-264 -76l-50 2l-59 -69q91 25 153 -3t62 -107z" />
    <glyph glyph-name="Scaron" unicode="&#x160;" horiz-adv-x="1157" 
d="M889 1384h-195l-102 258h115l102 -151l174 151h135zM588 115q143 0 224 63t81 176q0 76 -48 121t-157 76l-205 57q-266 74 -266 314q0 172 127 282q128 110 354 111q226 0 361 -136t108 -368l-161 2q20 156 -69 259q-89 104 -241 104t-226 -60q-75 -60 -75 -172
q0 -78 45 -122t146 -70l174 -50q313 -90 313 -325q0 -186 -139 -294t-350 -108q-258 1 -406 141t-115 396l164 -2q-27 -190 73 -292t288 -103z" />
    <glyph glyph-name="scaron" unicode="&#x161;" horiz-adv-x="897" 
d="M616 234q0 58 -32 84q-32 28 -105 49l-114 32q-219 59 -220 238q1 127 97 205t262 78t260 -90q96 -90 92 -252l-139 -9q1 109 -59 167t-158 58t-148 -35q-49 -36 -49 -102q0 -88 129 -120l127 -35q219 -61 219 -240q0 -135 -104 -211t-272 -76q-168 1 -280 93t-104 260
l140 10q-4 -117 72 -178q76 -62 176 -62q102 0 156 39t54 97zM684 1032h-197l-98 258h115l100 -153l178 153h131z" />
    <glyph glyph-name="Tcedilla" unicode="&#x162;" horiz-adv-x="1208" 
d="M580 0h-177l283 1143h-469l39 147h1120l-37 -147h-477zM348 -246l35 142h184l-28 -111q-43 -180 -230 -180l19 71q44 0 66 18t34 60h-80z" />
    <glyph glyph-name="tcedilla" unicode="&#x163;" horiz-adv-x="626" 
d="M278 -25q-116 1 -165 69q-48 68 -19 185l135 543h-135l25 92l59 10q63 12 92 42t66 102l59 125h94l-61 -248h254l-31 -123h-254l-133 -530q-16 -70 4 -101t88 -31t168 54l-28 -115q-102 -74 -218 -74zM111 -246l34 142h185l-29 -111q-43 -180 -229 -180l18 71q43 0 66 18
t34 60h-79z" />
    <glyph glyph-name="Tcaron" unicode="&#x164;" horiz-adv-x="1208" 
d="M580 0h-177l283 1143h-469l39 147h1120l-37 -147h-477zM928 1384h-195l-102 258h114l103 -151l174 151h135z" />
    <glyph glyph-name="tcaron" unicode="&#x165;" horiz-adv-x="626" 
d="M278 -25q-116 1 -165 69q-48 68 -19 185l135 543h-135l25 92l59 10q63 12 92 42t66 102l59 125h94l-61 -248h254l-31 -123h-254l-133 -530q-16 -70 4 -101t88 -31t168 54l-28 -115q-102 -74 -218 -74zM653 1020h-98l100 270h189z" />
    <glyph glyph-name="Tbar" unicode="&#x166;" horiz-adv-x="1208" 
d="M274 586l35 143h275l102 414h-469l39 147h1120l-37 -147h-477l-102 -414h284l-34 -143h-287l-143 -586h-177l144 586h-273z" />
    <glyph glyph-name="tbar" unicode="&#x167;" horiz-adv-x="649" 
d="M286 -25q-116 0 -164 69t-20 185l52 205h-119l28 115h119l56 223h-136l25 92l59 10q63 12 93 42q29 30 65 102l59 125h95l-62 -248h254l-31 -123h-253l-58 -223h264l-28 -115h-265l-47 -192q-16 -70 4 -101t88 -31t168 54l-28 -115q-102 -74 -218 -74z" />
    <glyph glyph-name="Utilde" unicode="&#x168;" horiz-adv-x="1261" 
d="M564 -25q-248 1 -372 149t-61 406l191 760h176l-195 -776q-45 -182 29 -286t248 -103q174 0 271 90t144 279l199 796h174l-203 -811q-68 -264 -211 -384t-390 -120zM997 1376q-55 0 -114 60t-97 61q-38 0 -62 -28q-22 -28 -40 -87h-113q29 115 88 181t144 65
q53 0 112 -60t99 -60t62 27q22 28 42 87h113q-31 -114 -90 -180t-144 -66z" />
    <glyph glyph-name="utilde" unicode="&#x169;" horiz-adv-x="1005" 
d="M768 1036q-52 0 -112 60t-99 61q-39 0 -61 -27t-41 -88h-113q29 115 88 181t143 65q55 0 115 -60t97 -60q38 0 62 28q24 29 42 86h112q-31 -114 -90 -180t-143 -66zM700 393l125 502h170l-223 -895h-170l41 164q-123 -188 -328 -189q-158 1 -219 103t-22 264l137 553h170
l-133 -543q-59 -244 141 -243q104 0 193 76q87 77 118 208z" />
    <glyph glyph-name="Umacron" unicode="&#x16a;" horiz-adv-x="1261" 
d="M564 -25q-248 1 -372 149t-61 406l191 760h176l-195 -776q-45 -182 29 -286t248 -103q174 0 271 90t144 279l199 796h174l-203 -811q-68 -264 -211 -384t-390 -120zM610 1399l33 129h528l-32 -129h-529z" />
    <glyph glyph-name="umacron" unicode="&#x16b;" horiz-adv-x="1005" 
d="M389 1055l33 131h524l-33 -131h-524zM700 393l125 502h170l-223 -895h-170l41 164q-123 -188 -328 -189q-158 1 -219 103t-22 264l137 553h170l-133 -543q-59 -244 141 -243q104 0 193 76q87 77 118 208z" />
    <glyph glyph-name="Ubreve" unicode="&#x16c;" horiz-adv-x="1261" 
d="M564 -25q-248 1 -372 149t-61 406l191 760h176l-195 -776q-45 -182 29 -286t248 -103q174 0 271 90t144 279l199 796h174l-203 -811q-68 -264 -211 -384t-390 -120zM862 1378q-84 0 -136 43t-52 125q0 45 14 96h115q-8 -45 -8 -61q0 -82 90 -82q119 0 155 143h125
q-72 -264 -303 -264z" />
    <glyph glyph-name="ubreve" unicode="&#x16d;" horiz-adv-x="1005" 
d="M648 1026q-98 0 -149 43q-52 43 -53 125q0 45 15 96h114q-8 -31 -8 -61q0 -82 90 -82q121 0 156 143h123q-34 -128 -112 -196t-176 -68zM700 393l125 502h170l-223 -895h-170l41 164q-123 -188 -328 -189q-158 1 -219 103t-22 264l137 553h170l-133 -543
q-59 -244 141 -243q104 0 193 76q87 77 118 208z" />
    <glyph glyph-name="Uring" unicode="&#x16e;" horiz-adv-x="1261" 
d="M989 1531q1 37 -21 59t-61 22t-65 -29t-27 -68q0 -39 22 -61q21 -22 59 -20q38 0 66 29q27 30 27 68zM1077 1531q0 -75 -54 -128t-130 -53t-122 45t-46 119t54 128t131 54t122 -45t45 -120zM564 -25q-248 1 -372 149t-61 406l191 760h176l-195 -776q-45 -182 29 -286
t248 -103q174 0 271 90t144 279l199 796h174l-203 -811q-68 -264 -211 -384t-390 -120z" />
    <glyph glyph-name="uring" unicode="&#x16f;" horiz-adv-x="1005" 
d="M700 393l125 502h170l-223 -895h-170l41 164q-123 -188 -328 -189q-158 1 -219 103t-22 264l137 553h170l-133 -543q-59 -244 141 -243q104 0 193 76q87 77 118 208zM664 1081q38 0 66 30t28 68q0 37 -23 59t-61 22t-65 -30t-27 -68t22 -60t60 -21zM678 1343
q76 -1 122 -45t46 -119t-54 -128t-132 -53t-122 44q-44 45 -44 120t54 128t130 53z" />
    <glyph glyph-name="Uhungarumlaut" unicode="&#x170;" horiz-adv-x="1261" 
d="M989 1384h-106l168 258h194zM721 1384h-107l168 258h195zM564 -25q-248 1 -372 149t-61 406l191 760h176l-195 -776q-45 -182 29 -286t248 -103q174 0 271 90t144 279l199 796h174l-203 -811q-68 -264 -211 -384t-390 -120z" />
    <glyph glyph-name="uhungarumlaut" unicode="&#x171;" horiz-adv-x="1005" 
d="M786 1032h-106l170 258h194zM516 1032h-106l170 258h194zM700 393l125 502h170l-223 -895h-170l41 164q-123 -188 -328 -189q-158 1 -219 103t-22 264l137 553h170l-133 -543q-59 -244 141 -243q104 0 193 76q87 77 118 208z" />
    <glyph glyph-name="Uogonek" unicode="&#x172;" horiz-adv-x="1261" 
d="M620 -358q-144 0 -143 120q0 58 46 110t128 108q-49 -5 -80 -5q-255 1 -379 149t-61 406l191 760h176l-195 -776q-45 -182 29 -286t248 -103q174 0 271 90t144 279l199 796h174l-203 -811q-92 -371 -350 -465q-147 -112 -175 -148t-28 -71q0 -47 54 -47t125 33l-25 -94
q-74 -45 -146 -45z" />
    <glyph glyph-name="uogonek" unicode="&#x173;" horiz-adv-x="1005" 
d="M551 -204q0 -48 63 -48q43 0 113 33l-22 -94q-79 -45 -149 -45t-106 30t-36 83t35 101t71 76t103 68l-21 4l41 160q-123 -188 -328 -189q-158 1 -219 103t-22 264l137 553h170l-133 -543q-59 -244 141 -243q104 0 193 76q87 77 118 208l125 502h170l-223 -895
q-123 -68 -172 -112t-49 -92z" />
    <glyph glyph-name="Wcircumflex" unicode="&#x174;" horiz-adv-x="1673" 
d="M1030 1642h195l102 -258h-115l-102 152l-176 -152h-133zM1126 1290l9 -1077h8l543 1077h174l-662 -1290h-209l-4 1028h-8l-535 -1028h-209l3 1290h170l-9 -1071h9l557 1071h163z" />
    <glyph glyph-name="wcircumflex" unicode="&#x175;" horiz-adv-x="1314" 
d="M844 895l22 -674h8l375 674h166l-512 -895h-164l-18 670h-8l-363 -670h-164l-55 895h164l33 -674h8l366 674h142zM772 1290h197l98 -258h-115l-100 152l-178 -152h-131z" />
    <glyph glyph-name="Ycircumflex" unicode="&#x176;" horiz-adv-x="1224" 
d="M803 1642h194l103 -258h-115l-102 152l-176 -152h-134zM662 664l550 626h201l-700 -784l-125 -506h-170l125 506l-307 784h178z" />
    <glyph glyph-name="ycircumflex" unicode="&#x177;" horiz-adv-x="940" 
d="M582 1290h196l99 -258h-115l-100 152l-179 -152h-131zM217 -344h-176l240 356l-152 883h166l113 -696h8l446 696h178z" />
    <glyph glyph-name="Ydieresis" unicode="&#x178;" horiz-adv-x="1224" 
d="M905 1395l47 192h168l-47 -192h-168zM623 1395l47 192h168l-47 -192h-168zM662 664l550 626h201l-700 -784l-125 -506h-170l125 506l-307 784h178z" />
    <glyph glyph-name="Zacute" unicode="&#x179;" horiz-adv-x="1146" 
d="M829 1384h-124l174 258h206zM223 147h791l-37 -147h-1024l31 125l1022 1018h-760l39 147h993l-35 -131z" />
    <glyph glyph-name="zacute" unicode="&#x17a;" horiz-adv-x="876" 
d="M664 764h-506l35 131h727l-31 -117l-690 -647h544l-32 -131h-758l29 117zM633 1032h-125l178 258h207z" />
    <glyph glyph-name="Zdotaccent" unicode="&#x17b;" horiz-adv-x="1146" 
d="M223 147h791l-37 -147h-1024l31 125l1022 1018h-760l39 147h993l-35 -131zM696 1395l49 192h177l-48 -192h-178z" />
    <glyph glyph-name="zdotaccent" unicode="&#x17c;" horiz-adv-x="876" 
d="M510 1098l49 192h178l-49 -192h-178zM664 764h-506l35 131h727l-31 -117l-690 -647h544l-32 -131h-758l29 117z" />
    <glyph glyph-name="Zcaron" unicode="&#x17d;" horiz-adv-x="1146" 
d="M223 147h791l-37 -147h-1024l31 125l1022 1018h-760l39 147h993l-35 -131zM889 1384h-195l-102 258h115l102 -151l174 151h135z" />
    <glyph glyph-name="zcaron" unicode="&#x17e;" horiz-adv-x="876" 
d="M664 764h-506l35 131h727l-31 -117l-690 -647h544l-32 -131h-758l29 117zM684 1032h-197l-98 258h115l100 -153l178 153h131z" />
    <glyph glyph-name="florin" unicode="&#x192;" horiz-adv-x="833" 
d="M-25 -209q-47 0 -86 8l37 127q25 -6 47 -6q129 0 193 186l190 539h-174l31 125h186l93 258q45 131 134 207t212 76q43 0 110 -15l-33 -125q-49 8 -65 9q-138 -1 -201 -185l-80 -225h203l-29 -125h-219l-200 -571q-100 -283 -349 -283z" />
    <glyph glyph-name="Aringacute" unicode="&#x1fa;" horiz-adv-x="1306" 
d="M991 1511q0 74 -80 74q-39 -1 -67 -27t-27 -63q0 -37 22 -57q21 -20 59 -20t66 26q28 28 27 67zM1012 1708h-123l127 199h209zM1079 1510q0 -70 -54 -120t-130 -50t-121 41q-45 42 -45 113t54 121t130 50t121 -42t45 -113zM809 1096l-373 -576h473l-92 576h-8zM762 1290
h194l218 -1290h-179l-61 379h-590l-244 -379h-184z" />
    <glyph glyph-name="aringacute" unicode="&#x1fb;" horiz-adv-x="987" 
d="M819 106q35 0 84 17l-22 -96q-61 -45 -135 -45t-108 47q-36 47 -28 131q-45 -86 -133 -135q-87 -49 -201 -49t-184 62t-69 163q0 262 376 309l299 39l9 29q23 98 -17 153t-139 55q-182 0 -256 -165l-150 24q51 127 166 201t278 74t239 -100t34 -269l-90 -361
q-23 -84 47 -84zM332 100q119 0 206 79q86 79 121 214l9 41l-240 -33q-119 -14 -178 -53q-60 -40 -60 -112q0 -136 142 -136zM770 1346h-125l129 200h209zM676 1212q-38 0 -64 -26t-26 -64q0 -37 22 -57q22 -21 58 -21t64 28t28 64t-22 56t-60 20zM680 1292q76 0 122 -42
t46 -112q0 -71 -54 -121t-130 -50t-122 42q-46 41 -46 111t54 121t130 51z" />
    <glyph glyph-name="AEacute" unicode="&#x1fc;" horiz-adv-x="2019" 
d="M1595 1384h-125l175 258h206zM1192 1151l-578 -616h433l153 616h-8zM1116 1290h1020l-37 -147h-729l-100 -406h579l-37 -145h-579l-111 -445h748l-37 -147h-920l99 393h-531l-366 -393h-199z" />
    <glyph glyph-name="aeacute" unicode="&#x1fd;" horiz-adv-x="1593" 
d="M844 516h538q12 119 -43 196q-55 76 -173 76t-204 -76t-118 -196zM455 516h237l15 62q43 209 -156 208q-184 0 -256 -163l-150 24q51 127 165 200t259 73q201 0 262 -156q150 156 348 156q197 0 283 -113t86 -281q0 -59 -14 -120h-715q-14 -143 55 -221q70 -77 197 -76
q219 0 305 206l140 -18q-54 -154 -176 -238t-287 -84q-271 1 -355 226q-51 -97 -156 -161q-104 -64 -236 -64t-208 62t-75 167q0 143 115 227q116 84 317 84zM473 406q-283 0 -283 -183q0 -59 38 -91t104 -32q119 0 207 77q87 77 120 212l5 17h-191zM981 1032h-125l178 258
h207z" />
    <glyph glyph-name="Oslashacute" unicode="&#x1fe;" horiz-adv-x="1411" 
d="M965 1384h-125l174 258h207zM692 127q231 0 379 183q147 183 148 444q0 135 -60 235l-715 -792q101 -70 248 -70zM291 537q0 -152 71 -258l721 798q-104 86 -266 86q-231 0 -379 -183t-147 -443zM819 1315q225 0 377 -111l119 131l88 -75l-123 -136q123 -150 123 -370
q0 -314 -202 -546t-511 -233q-213 0 -358 97l-135 -150l-88 74l135 151q-137 147 -138 390q0 313 202 545t511 233z" />
    <glyph glyph-name="oslashacute" unicode="&#x1ff;" horiz-adv-x="1032" 
d="M709 1032h-125l178 258h207zM463 106q158 0 254 124t96 296q0 84 -37 152l-448 -537q57 -35 135 -35zM217 369q0 -90 39 -156l449 539q-55 37 -138 36q-156 0 -253 -124t-97 -295zM571 920q129 0 228 -58l96 117l78 -66l-94 -112q100 -106 100 -275q0 -229 -146 -390
t-372 -161q-125 0 -225 56l-97 -115l-78 66l93 110q-100 106 -101 277q1 227 147 389t371 162z" />
    <glyph glyph-name="Scommaaccent" unicode="&#x218;" horiz-adv-x="1157" 
d="M588 115q143 0 224 63t81 176q0 76 -48 121t-157 76l-205 57q-266 74 -266 314q0 172 127 282q128 110 354 111q226 0 361 -136t108 -368l-161 2q20 156 -69 259q-89 104 -241 104t-226 -60q-75 -60 -75 -172q0 -78 45 -122t146 -70l174 -50q313 -90 313 -325
q0 -186 -139 -294t-350 -108q-258 1 -406 141t-115 396l164 -2q-27 -190 73 -292t288 -103zM305 -246l35 142h184l-28 -111q-43 -180 -230 -180l19 71q43 0 65 18t35 60h-80z" />
    <glyph glyph-name="scommaaccent" unicode="&#x219;" horiz-adv-x="897" 
d="M616 234q0 58 -32 84q-32 28 -105 49l-114 32q-219 59 -220 238q1 127 97 205t262 78t260 -90q96 -90 92 -252l-139 -9q1 109 -59 167t-158 58t-148 -35q-49 -36 -49 -102q0 -88 129 -120l127 -35q219 -61 219 -240q0 -135 -104 -211t-272 -76q-168 1 -280 93t-104 260
l140 10q-4 -117 72 -178q76 -62 176 -62q102 0 156 39t54 97zM182 -246l35 142h184l-28 -111q-43 -180 -230 -180l19 71q44 0 66 18t34 60h-80z" />
    <glyph glyph-name="uni0237" unicode="&#x237;" horiz-adv-x="401" 
d="M-111 -369q-127 0 -204 78l65 98q64 -47 114 -47t72 24t37 81l256 1030h170l-260 -1051q-53 -213 -250 -213z" />
    <glyph glyph-name="circumflex" unicode="&#x2c6;" 
d="M633 1290h196l99 -258h-115l-100 152l-178 -152h-132z" />
    <glyph glyph-name="caron" unicode="&#x2c7;" 
d="M764 1032h-197l-98 258h115l100 -153l178 153h131z" />
    <glyph glyph-name="breve" unicode="&#x2d8;" 
d="M682 1026q-98 0 -151 43q-52 43 -52 125q0 45 15 96h114q-8 -31 -8 -61q0 -82 90 -82q121 0 156 143h123q-33 -128 -111 -196t-176 -68z" />
    <glyph glyph-name="dotaccent" unicode="&#x2d9;" 
d="M592 1098l49 192h178l-49 -192h-178z" />
    <glyph glyph-name="ring" unicode="&#x2da;" 
d="M786 1179q0 37 -22 59t-60 22t-66 -30t-28 -68t22 -60t60 -21q38 0 67 30q27 30 27 68zM522 1162q0 75 54 128t131 53q75 -1 121 -45t46 -119t-54 -128t-131 -53t-122 44q-45 45 -45 120z" />
    <glyph glyph-name="ogonek" unicode="&#x2db;" 
d="M380 -252q54 0 124 33l-25 -94q-74 -45 -145 -45q-144 0 -144 116q0 110 172 219q66 42 74 48h107q-154 -115 -186 -153t-31 -77q0 -47 54 -47z" />
    <glyph glyph-name="tilde" unicode="&#x2dc;" 
d="M793 1036q-53 0 -113 60t-98 61q-39 0 -61 -27t-42 -88h-112q29 115 88 181t143 65q54 0 114 -60q102 -103 159 -32q24 29 42 86h113q-31 -114 -90 -180t-143 -66z" />
    <glyph glyph-name="hungarumlaut" unicode="&#x2dd;" 
d="M758 1032h-107l170 258h195zM487 1032h-106l170 258h194z" />
    <glyph glyph-name="Wgrave" unicode="&#x1e80;" horiz-adv-x="1673" 
d="M1126 1290l9 -1077h8l543 1077h174l-662 -1290h-209l-4 1028h-8l-535 -1028h-209l3 1290h170l-9 -1071h9l557 1071h163zM1130 1384h-110l-127 258h190z" />
    <glyph glyph-name="wgrave" unicode="&#x1e81;" horiz-adv-x="1314" 
d="M877 1032h-111l-129 258h194zM844 895l22 -674h8l375 674h166l-512 -895h-164l-18 670h-8l-363 -670h-164l-55 895h164l33 -674h8l366 674h142z" />
    <glyph glyph-name="Wacute" unicode="&#x1e82;" horiz-adv-x="1673" 
d="M1126 1290l9 -1077h8l543 1077h174l-662 -1290h-209l-4 1028h-8l-535 -1028h-209l3 1290h170l-9 -1071h9l557 1071h163zM1118 1384h-125l174 258h207z" />
    <glyph glyph-name="wacute" unicode="&#x1e83;" horiz-adv-x="1314" 
d="M844 895l22 -674h8l375 674h166l-512 -895h-164l-18 670h-8l-363 -670h-164l-55 895h164l33 -674h8l366 674h142zM858 1032h-125l178 258h207z" />
    <glyph glyph-name="Wdieresis" unicode="&#x1e84;" horiz-adv-x="1673" 
d="M1126 1290l9 -1077h8l543 1077h174l-662 -1290h-209l-4 1028h-8l-535 -1028h-209l3 1290h170l-9 -1071h9l557 1071h163zM1133 1395l47 192h168l-48 -192h-167zM850 1395l47 192h168l-47 -192h-168z" />
    <glyph glyph-name="wdieresis" unicode="&#x1e85;" horiz-adv-x="1314" 
d="M844 895l22 -674h8l375 674h166l-512 -895h-164l-18 670h-8l-363 -670h-164l-55 895h164l33 -674h8l366 674h142zM881 1081l47 193h168l-47 -193h-168zM598 1081l47 193h168l-47 -193h-168z" />
    <glyph glyph-name="Ygrave" unicode="&#x1ef2;" horiz-adv-x="1224" 
d="M895 1384h-111l-127 258h191zM662 664l550 626h201l-700 -784l-125 -506h-170l125 506l-307 784h178z" />
    <glyph glyph-name="ygrave" unicode="&#x1ef3;" horiz-adv-x="940" 
d="M684 1032h-111l-129 258h195zM217 -344h-176l240 356l-152 883h166l113 -696h8l446 696h178z" />
    <glyph glyph-name="endash" unicode="&#x2013;" 
d="M115 459l30 125h789l-31 -125h-788z" />
    <glyph glyph-name="emdash" unicode="&#x2014;" horiz-adv-x="2048" 
d="M115 459l30 125h1815l-31 -125h-1814z" />
    <glyph glyph-name="quoteleft" unicode="&#x2018;" horiz-adv-x="358" 
d="M446 1087l-49 -194h-202l47 190q31 117 87 171t175 55l-27 -99q-57 -4 -84 -30t-43 -93h96z" />
    <glyph glyph-name="quoteright" unicode="&#x2019;" horiz-adv-x="358" 
d="M238 1096l49 194h205l-50 -192q-29 -115 -85 -169t-175 -57l27 101q57 3 83 29t42 94h-96z" />
    <glyph glyph-name="quotesinglbase" unicode="&#x201a;" horiz-adv-x="358" 
d="M-27 0l50 195h202l-47 -193q-31 -115 -88 -169t-174 -56l27 100q57 4 84 30t43 93h-97z" />
    <glyph glyph-name="quotedblleft" unicode="&#x201c;" horiz-adv-x="661" 
d="M750 1087l-48 -194h-204l47 190q31 117 87 171t175 55l-27 -99q-57 -4 -84 -30t-43 -93h97zM446 1087l-49 -194h-202l47 190q31 117 87 171t175 55l-27 -99q-57 -4 -84 -30t-43 -93h96z" />
    <glyph glyph-name="quotedblright" unicode="&#x201d;" horiz-adv-x="661" 
d="M238 1096l49 194h205l-50 -192q-29 -115 -85 -169t-175 -57l27 101q57 3 83 29t42 94h-96zM541 1096l49 194h205l-50 -192q-29 -115 -85 -169t-175 -57l27 101q57 3 83 29t42 94h-96z" />
    <glyph glyph-name="quotedblbase" unicode="&#x201e;" horiz-adv-x="661" 
d="M-27 0l50 195h202l-47 -193q-31 -115 -88 -169t-174 -56l27 100q57 4 84 30t43 93h-97zM276 0l50 195h202l-47 -193q-29 -115 -86 -169t-176 -56l27 100q57 4 84 30t43 93h-97z" />
    <glyph glyph-name="dagger" unicode="&#x2020;" horiz-adv-x="641" 
d="M178 989l29 119h215l51 201h123l-51 -201h215l-31 -119h-213l-117 -467h-123l117 467h-215z" />
    <glyph glyph-name="daggerdbl" unicode="&#x2021;" horiz-adv-x="661" 
d="M123 715l27 114h215l43 175h-215l28 112h215l49 193h121l-49 -193h215l-29 -112h-215l-43 -175h215l-26 -114h-217l-47 -193h-121l47 193h-213z" />
    <glyph glyph-name="bullet" unicode="&#x2022;" horiz-adv-x="684" 
d="M600 522q0 -108 -72 -176q-72 -70 -177 -70t-176 70t-71 177t72 178t176 71t176 -71t72 -179z" />
    <glyph glyph-name="ellipsis" unicode="&#x2026;" horiz-adv-x="1079" 
d="M694 0l49 205h205l-49 -205h-205zM334 0l49 205h205l-49 -205h-205zM-27 0l50 205h204l-49 -205h-205z" />
    <glyph glyph-name="perthousand" unicode="&#x2030;" horiz-adv-x="2207" 
d="M2150 387q0 -176 -108 -294t-239 -118t-201 72t-70 193q0 176 106 295t240 119t203 -72t69 -195zM2009 401q0 139 -129 140q-90 0 -148 -87q-58 -86 -58 -226t128 -140q90 0 149 87q58 87 58 226zM1458 387q0 -176 -108 -294t-239 -118q-132 0 -202 72t-69 193
q0 176 106 295t238 119t204 -73q70 -73 70 -194zM1108 88q90 0 150 87t59 226q0 139 -129 140q-90 0 -148 -87q-58 -86 -59 -226q0 -140 127 -140zM1393 1309l-1012 -1327h-152l1014 1327h150zM166 903q0 176 107 294q108 118 239 118t202 -72t70 -192q0 -176 -106 -295
t-240 -119q-134 -1 -202 71q-70 72 -70 195zM514 1202q-90 0 -148 -87t-59 -226q0 -139 127 -139q90 0 150 87q59 87 59 226t-129 139z" />
    <glyph glyph-name="guilsinglleft" unicode="&#x2039;" horiz-adv-x="495" 
d="M63 379l35 135l373 264l-45 -186l-229 -160l149 -164l-41 -153z" />
    <glyph glyph-name="guilsinglright" unicode="&#x203a;" horiz-adv-x="495" 
d="M436 514l-33 -135l-374 -264l47 186l227 160l-149 164l41 153z" />
    <glyph glyph-name="fraction" unicode="&#x2044;" horiz-adv-x="1003" 
d="M1133 1296l-1016 -1302h-144l1014 1302h146z" />
    <glyph glyph-name="Euro" unicode="&#x20ac;" horiz-adv-x="1261" 
d="M846 1315q217 0 329 -150t87 -389l-162 -8q16 176 -52 287q-70 111 -216 111t-247 -94q-101 -93 -159 -245h418l-47 -110h-404q-18 -74 -24 -146h370l-49 -110h-325q3 -158 77 -247t207 -89q319 0 408 397l166 -8q-53 -244 -206 -391t-369 -147t-334 134t-121 351h-148
l27 110h125q12 98 24 146h-110l24 110h119q76 213 225 351q150 137 367 137z" />
    <glyph glyph-name="uni2117" unicode="&#x2117;" horiz-adv-x="1482" 
d="M670 530v-270h-135v766h307q143 0 220 -68t77 -180t-77 -180t-220 -68h-172zM670 643h153q180 0 181 135q0 135 -181 135h-153v-270zM215 645q0 -248 167 -412q168 -163 408 -163t406 164t166 411q0 248 -166 412t-407 164t-407 -164t-167 -412zM119 645q0 289 194 479
q195 190 475 190t476 -190q194 -190 194 -479t-194 -479t-476 -190q-281 0 -475 190t-194 479z" />
    <glyph glyph-name="trademark" unicode="&#x2122;" horiz-adv-x="1296" 
d="M993 758h-90l-24 420h-5l-104 -420h-106l133 532h168l18 -389h4l217 389h168l-133 -532h-115l105 420h-4zM414 758h-115l107 434h-187l25 98h491l-26 -98h-189z" />
    <glyph glyph-name="uni2153" unicode="&#x2153;" horiz-adv-x="1556" 
d="M1286 248q0 98 -121 98q-31 0 -71 -4l26 111q38 -4 88 -4q50 1 100 35t50 92q0 120 -123 118q-150 0 -186 -172l-142 6q29 131 119 207t217 76t192 -57q65 -56 65 -146t-56 -143q-55 -53 -135 -68q125 -33 125 -153t-90 -190q-90 -68 -236 -68t-220 83t-48 212l135 -7
q-17 -80 25 -126t120 -46q166 1 166 146zM195 1077l24 97q82 0 132 28t87 92h105l-199 -798h-145l145 581h-149zM1309 1290l-1082 -1290h-145l1079 1290h148z" />
    <glyph glyph-name="uni2154" unicode="&#x2154;" horiz-adv-x="1853" 
d="M530 1182q-70 0 -114 -60q-43 -60 -45 -159l-142 6q4 149 90 241q85 92 221 92t202 -62t67 -150q0 -88 -41 -152q-41 -66 -86 -100t-141 -101l-183 -123h369l-31 -122h-594l23 94l295 209q8 6 73 50t78 57q13 12 31 30t36 47q23 37 26 88q0 115 -134 115zM1583 248
q0 98 -123 98q-27 0 -71 -4l28 111q37 -4 87 -4q50 1 101 35q50 34 50 92t-33 89q-33 30 -90 29q-147 0 -189 -172l-139 6q29 131 118 207t216 76t193 -57q65 -56 65 -146t-56 -143t-136 -68q125 -33 125 -153q-1 -120 -91 -190q-90 -68 -234 -68t-220 83q-74 83 -49 212
l137 -7q-18 -80 24 -126t120 -46q77 0 122 36t45 110zM1604 1290l-1080 -1290h-147l1081 1290h146z" />
    <glyph glyph-name="uni215B" unicode="&#x215b;" horiz-adv-x="1548" 
d="M1067 572q0 -56 37 -84q36 -28 100 -29q64 0 106 38t42 94t-37 85t-101 29t-105 -39q-42 -38 -42 -94zM1442 229q0 -113 -92 -178t-227 -65q-136 0 -218 60t-82 152q1 92 57 149q56 56 148 71q-102 50 -102 156t87 172t210 65q123 0 197 -54t73 -151q0 -162 -178 -209
q55 -18 91 -62t36 -106zM969 217q1 -59 43 -91t117 -32t121 39t46 99t-42 92q-42 30 -116 30t-122 -39q-47 -39 -47 -98zM195 1077l24 97q82 0 132 28t87 92h105l-199 -798h-145l145 581h-149zM1309 1290l-1082 -1290h-145l1079 1290h148z" />
    <glyph glyph-name="uni215C" unicode="&#x215c;" horiz-adv-x="1800" 
d="M1465 705q-63 0 -105 -39q-42 -38 -43 -94q0 -56 37 -84q36 -28 100 -29q64 0 106 38t42 94t-37 85t-100 29zM1692 229q0 -113 -92 -178t-227 -65q-136 0 -218 60t-82 152t56 149q56 56 149 71q-102 50 -102 156t87 172t209 65q122 0 197 -54q74 -54 74 -151
q0 -162 -178 -209q55 -18 91 -62t36 -106zM1219 217q1 -59 43 -91t117 -32t122 39t47 99t-43 92q-43 30 -117 30t-122 -39q-47 -39 -47 -98zM1559 1290l-1082 -1290h-145l1081 1290h146zM584 739q0 98 -123 99q-27 0 -72 -4l29 110q37 -4 87 -4t100 35t50 93q0 118 -123 118
q-147 0 -188 -170l-139 4q29 131 118 207t216 76q127 1 193 -57t65 -147t-57 -143t-136 -67q125 -33 125 -155t-90 -190q-91 -68 -235 -67q-144 0 -219 83t-50 212l137 -6q-18 -80 25 -126t119 -46t122 36t46 109z" />
    <glyph glyph-name="uni215D" unicode="&#x215d;" horiz-adv-x="1789" 
d="M502 1028q104 0 166 -66q63 -66 63 -167q0 -139 -89 -227t-233 -89q-144 0 -222 85q-77 85 -48 212l133 -10q-14 -74 28 -122t119 -48t125 51t48 123t-35 110t-98 38q-100 0 -156 -82l-139 8q102 238 162 446h473l-33 -123h-363q-41 -139 -73 -202q68 63 172 63z
M1456 705q-64 0 -106 -39q-42 -38 -43 -94q0 -56 38 -84q39 -28 101 -29q62 0 104 38t43 94q0 56 -37 85q-36 29 -100 29zM1365 -14q-136 0 -218 60t-82 152t55 149q55 56 148 71q-102 50 -102 156t86 172q87 66 211 65q124 0 197 -54t73 -151q0 -162 -179 -209
q58 -18 94 -62t35 -106q0 -113 -91 -178t-227 -65zM1370 94q76 0 122 39t46 99t-43 92q-43 30 -118 30t-121 -39t-46 -98t42 -91t118 -32zM1550 1290l-1081 -1290h-147l1081 1290h147z" />
    <glyph glyph-name="uni215E" unicode="&#x215e;" horiz-adv-x="1576" 
d="M582 1161h-416l35 129h585l-26 -100q-176 -145 -272 -311t-148 -383h-158q109 421 400 665zM1232 459q64 0 106 38t42 94t-38 85t-100 29t-106 -39q-42 -38 -42 -94q0 -112 138 -113zM1151 -14q-137 0 -219 60t-82 152t56 149q56 56 149 71q-103 50 -103 156t87 172
t210 65q123 0 197 -54t74 -151q0 -162 -179 -209q57 -18 93 -62t36 -106q0 -113 -91 -178t-228 -65zM1156 94q75 0 122 39t47 99t-43 92q-43 30 -118 30t-122 -39t-47 -98t43 -91t118 -32zM1337 1290l-1081 -1290h-147l1081 1290h147z" />
    <glyph glyph-name="minus" unicode="&#x2212;" horiz-adv-x="1265" 
d="M133 567l35 144h1046l-34 -144h-1047z" />
    <glyph glyph-name="approxequal" unicode="&#x2248;" horiz-adv-x="1294" 
d="M442 604q90 0 228 -46t227 -46q143 0 313 94l-39 -143q-168 -94 -309 -94q-90 0 -227 46t-227 46q-136 0 -306 -94l35 143q166 94 305 94zM518 911q90 0 228 -46t229 -46q137 0 309 94l-35 -143q-166 -94 -311 -94q-90 0 -227 45t-228 45q-135 0 -303 -92l35 143
q170 94 303 94z" />
    <glyph glyph-name="notequal" unicode="&#x2260;" horiz-adv-x="1294" 
d="M195 731l30 137h615l254 256h157l-254 -256h277l-33 -137h-379l-188 -190h518l-33 -138h-622l-246 -249h-160l248 249h-266l32 138h369l188 190h-507z" />
    <glyph glyph-name="lessequal" unicode="&#x2264;" horiz-adv-x="960" 
d="M139 690l43 168l889 367l-43 -170l-719 -293l576 -293l-37 -145zM-12 80l37 143h798l-39 -143h-796z" />
    <glyph glyph-name="greaterequal" unicode="&#x2265;" horiz-adv-x="960" 
d="M979 856l-41 -166l-891 -366l45 168l717 292l-573 293l36 148zM823 223l-39 -143h-796l37 143h798z" />
    <glyph glyph-name="i.dot" horiz-adv-x="401" 
d="M274 1098l50 192h178l-49 -192h-179zM229 895h170l-221 -895h-170z" />
    <glyph glyph-name="space_uni0326" 
d="M256 -246l35 142h184l-29 -111q-43 -180 -229 -180l19 71q44 0 66 18t34 60h-80z" />
    <glyph glyph-name="space_uni0326.alt" 
d="M801 1206l-35 -141h-184l28 111q43 180 230 180l-19 -72q-43 0 -65 -17t-35 -61h80z" />
    <glyph glyph-name="space_dotbelowcomb" 
d="M231 -352l48 194h178l-49 -194h-177z" />
    <glyph glyph-name="a.alt" horiz-adv-x="1097" 
d="M53 326q1 227 145 410t369 184q109 0 181 -56t96 -149l45 180h170l-187 -707q-23 -82 50 -82q33 0 82 17l-23 -96q-57 -45 -133 -45t-113 48q-36 48 -26 132q-109 -186 -328 -187q-156 1 -242 97t-86 254zM582 786q-158 0 -255 -137t-98 -313q1 -109 57 -167t164 -58
q108 -1 192 71q85 72 120 199l22 84q39 139 -20 230t-182 91z" />
    <glyph glyph-name="aacute.alt" horiz-adv-x="1097" 
d="M53 326q1 227 145 410t369 184q109 0 181 -56t96 -149l45 180h170l-187 -707q-23 -82 50 -82q33 0 82 17l-23 -96q-57 -45 -133 -45t-113 48q-36 48 -26 132q-109 -186 -328 -187q-156 1 -242 97t-86 254zM582 786q-158 0 -255 -137t-98 -313q1 -109 57 -167t164 -58
q108 -1 192 71q85 72 120 199l22 84q39 139 -20 230t-182 91zM731 1032h-125l178 258h207z" />
    <glyph glyph-name="abreve.alt" horiz-adv-x="1097" 
d="M698 1026q-98 0 -150 43t-52 125q0 45 14 96h115q-8 -31 -9 -61q0 -82 91 -82q121 0 155 143h123q-33 -128 -111 -196t-176 -68zM53 326q1 227 145 410t369 184q109 0 181 -56t96 -149l45 180h170l-187 -707q-23 -82 50 -82q33 0 82 17l-23 -96q-57 -45 -133 -45t-113 48
q-36 48 -26 132q-109 -186 -328 -187q-156 1 -242 97t-86 254zM582 786q-158 0 -255 -137t-98 -313q1 -109 57 -167t164 -58q108 -1 192 71q85 72 120 199l22 84q39 139 -20 230t-182 91z" />
    <glyph glyph-name="acircumflex.alt" horiz-adv-x="1097" 
d="M53 326q1 227 145 410t369 184q109 0 181 -56t96 -149l45 180h170l-187 -707q-23 -82 50 -82q33 0 82 17l-23 -96q-57 -45 -133 -45t-113 48q-36 48 -26 132q-109 -186 -328 -187q-156 1 -242 97t-86 254zM582 786q-158 0 -255 -137t-98 -313q1 -109 57 -167t164 -58
q108 -1 192 71q85 72 120 199l22 84q39 139 -20 230t-182 91zM645 1290h197l98 -258h-115l-100 152l-178 -152h-131z" />
    <glyph glyph-name="adieresis.alt" horiz-adv-x="1097" 
d="M53 326q1 227 145 410t369 184q109 0 181 -56t96 -149l45 180h170l-187 -707q-23 -82 50 -82q33 0 82 17l-23 -96q-57 -45 -133 -45t-113 48q-36 48 -26 132q-109 -186 -328 -187q-156 1 -242 97t-86 254zM582 786q-158 0 -255 -137t-98 -313q1 -109 57 -167t164 -58
q108 -1 192 71q85 72 120 199l22 84q39 139 -20 230t-182 91zM754 1081l47 193h168l-47 -193h-168zM471 1081l47 193h168l-47 -193h-168z" />
    <glyph glyph-name="agrave.alt" horiz-adv-x="1097" 
d="M750 1032h-111l-129 258h195zM53 326q1 227 145 410t369 184q109 0 181 -56t96 -149l45 180h170l-187 -707q-23 -82 50 -82q33 0 82 17l-23 -96q-57 -45 -133 -45t-113 48q-36 48 -26 132q-109 -186 -328 -187q-156 1 -242 97t-86 254zM582 786q-158 0 -255 -137
t-98 -313q1 -109 57 -167t164 -58q108 -1 192 71q85 72 120 199l22 84q39 139 -20 230t-182 91z" />
    <glyph glyph-name="amacron.alt" horiz-adv-x="1097" 
d="M428 1055l33 131h524l-33 -131h-524zM53 326q1 227 145 410t369 184q109 0 181 -56t96 -149l45 180h170l-187 -707q-23 -82 50 -82q33 0 82 17l-23 -96q-57 -45 -133 -45t-113 48q-36 48 -26 132q-109 -186 -328 -187q-156 1 -242 97t-86 254zM582 786q-158 0 -255 -137
t-98 -313q1 -109 57 -167t164 -58q108 -1 192 71q85 72 120 199l22 84q39 139 -20 230t-182 91z" />
    <glyph glyph-name="aogonek.alt" horiz-adv-x="1097" 
d="M582 786q-158 0 -255 -137t-98 -313q1 -109 57 -167t164 -58q108 -1 192 71q85 72 120 199l22 84q39 139 -20 230t-182 91zM764 -358q-146 0 -144 122q0 60 49 112q48 52 136 110q-112 22 -96 176q-109 -186 -328 -187q-156 1 -242 97t-86 254q1 227 145 410t369 184
q109 0 181 -56t96 -149l45 180h170l-187 -707q-23 -82 50 -82q33 0 82 17l-23 -96q-83 -56 -127 -89q-100 -77 -98 -143q0 -47 54 -47t124 33l-25 -94q-74 -45 -145 -45z" />
    <glyph glyph-name="aring.alt" horiz-adv-x="1097" 
d="M53 326q1 227 145 410t369 184q109 0 181 -56t96 -149l45 180h170l-187 -707q-23 -82 50 -82q33 0 82 17l-23 -96q-57 -45 -133 -45t-113 48q-36 48 -26 132q-109 -186 -328 -187q-156 1 -242 97t-86 254zM582 786q-158 0 -255 -137t-98 -313q1 -109 57 -167t164 -58
q108 -1 192 71q85 72 120 199l22 84q39 139 -20 230t-182 91zM713 1081q39 0 67 30t27 68q0 37 -23 59q-22 22 -60 22t-66 -30t-28 -68t22 -60t61 -21zM727 1343q76 -1 122 -45t46 -119t-54 -128t-131 -53t-122 44q-45 45 -45 120t54 128t130 53z" />
    <glyph glyph-name="aringacute.alt" horiz-adv-x="1097" 
d="M53 326q1 227 145 410t369 184q109 0 181 -56t96 -149l45 180h170l-187 -707q-23 -82 50 -82q33 0 82 17l-23 -96q-57 -45 -133 -45t-113 48q-36 48 -26 132q-109 -186 -328 -187q-156 1 -242 97t-86 254zM582 786q-158 0 -255 -137t-98 -313q1 -109 57 -167t164 -58
q108 -1 192 71q85 72 120 199l22 84q39 139 -20 230t-182 91zM823 1346h-125l129 200h207zM811 1139q0 73 -80 73q-39 0 -67 -26t-27 -64q0 -76 80 -78q39 0 67 28t27 67zM733 1292q76 0 121 -42t45 -112q0 -71 -54 -121t-130 -50t-121 42q-45 43 -45 113t54 120t130 50z
" />
    <glyph glyph-name="atilde.alt" horiz-adv-x="1097" 
d="M811 1036q-53 0 -113 60t-98 61q-38 0 -60 -27t-42 -88h-113q29 115 88 181t143 65q54 0 114 -60t98 -60t62 28q24 29 42 86h112q-31 -114 -90 -180t-143 -66zM53 326q1 227 145 410t369 184q109 0 181 -56t96 -149l45 180h170l-187 -707q-23 -82 50 -82q33 0 82 17
l-23 -96q-57 -45 -133 -45t-113 48q-36 48 -26 132q-109 -186 -328 -187q-156 1 -242 97t-86 254zM582 786q-158 0 -255 -137t-98 -313q1 -109 57 -167t164 -58q108 -1 192 71q85 72 120 199l22 84q39 139 -20 230t-182 91z" />
    <glyph glyph-name="caron.Slovak" 
d="M649 1020h-98l100 270h189z" />
    <glyph glyph-name="cedilla.alt" horiz-adv-x="1173" 
d="M682 -202q0 -80 -72 -118t-190 -38t-203 77l45 66q78 -66 182 -66t105 66q0 53 -55 59t-111 -20l-37 22l141 177h80l-100 -115q91 25 153 -3t62 -107z" />
    <glyph glyph-name="grave.cap" 
d="M911 1384h-110l-127 258h190z" />
    <glyph glyph-name="acute.cap" 
d="M719 1384h-125l174 258h207z" />
    <glyph glyph-name="circumflex.cap" 
d="M721 1642h194l103 -258h-115l-102 152l-176 -152h-133z" />
    <glyph glyph-name="caron.cap" 
d="M852 1384h-195l-102 258h115l102 -151l174 151h135z" />
    <glyph glyph-name="tilde.cap" 
d="M879 1376q-55 0 -115 60t-97 61q-38 0 -61 -28t-41 -87h-112q29 115 88 181t143 65q52 0 112 -60t99 -60t61 27q22 28 43 87h113q-31 -114 -90 -180t-143 -66z" />
    <glyph glyph-name="macron.cap" 
d="M492 1399l32 129h529l-33 -129h-528z" />
    <glyph glyph-name="breve.cap" 
d="M754 1378q-84 0 -137 43q-52 43 -52 125q0 45 15 96h114q-8 -45 -8 -61q0 -82 90 -82q121 0 156 143h125q-70 -264 -303 -264z" />
    <glyph glyph-name="dotaccent.cap" 
d="M666 1395l49 192h176l-47 -192h-178z" />
    <glyph glyph-name="dieresis.cap" 
d="M813 1395l47 192h168l-47 -192h-168zM530 1395l48 192h167l-47 -192h-168z" />
    <glyph glyph-name="ring.cap" 
d="M879 1531q0 37 -22 59q-23 22 -61 22t-65 -29t-27 -68t22 -61t60 -20q38 0 65 30q28 30 28 67zM967 1531q-1 -75 -55 -128t-130 -53t-122 45t-46 119t54 128t132 54q77 0 122 -45t45 -120z" />
    <glyph glyph-name="hungarumlaut.cap" 
d="M846 1384h-107l168 258h195zM578 1384h-107l168 258h195z" />
    <glyph glyph-name="exclamdown.cap" horiz-adv-x="391" 
d="M182 0h-182l90 360l199 592h82l-99 -592zM514 1290l-49 -205h-205l49 205h205z" />
    <glyph glyph-name="questiondown.cap" horiz-adv-x="997" 
d="M827 1290l-49 -205h-205l50 205h204zM221 335q-1 -99 59 -157t166 -57q150 -1 235 109t89 278l176 -8q-12 -244 -151 -384t-347 -140t-307 94q-100 96 -100 244t86 240t244 177q161 92 196 215h162q-23 -100 -82 -173t-187 -151t-165 -114q-74 -74 -74 -173z" />
    <glyph glyph-name="guilsinglleft.cap" horiz-adv-x="495" 
d="M98 559l33 135l375 264l-45 -186l-230 -160l150 -163l-41 -154z" />
    <glyph glyph-name="guilsinglright.cap" horiz-adv-x="495" 
d="M465 694l-33 -135l-375 -264l45 186l230 160l-150 164l41 153z" />
    <glyph glyph-name="guillemotleft.cap" horiz-adv-x="831" 
d="M434 559l33 135l375 264l-47 -186l-228 -160l150 -163l-41 -154zM98 559l33 135l375 264l-45 -186l-230 -160l150 -163l-41 -154z" />
    <glyph glyph-name="guillemotright.cap" horiz-adv-x="831" 
d="M801 694l-35 -135l-373 -264l45 186l230 160l-150 164l41 153zM465 694l-33 -135l-375 -264l45 186l230 160l-150 164l41 153z" />
    <glyph glyph-name="slash.cap" horiz-adv-x="714" 
d="M-117 0l899 1290h174l-899 -1290h-174z" />
    <glyph glyph-name="backslash.cap" horiz-adv-x="688" 
d="M336 1290l268 -1290h-151l-269 1290h152z" />
    <glyph glyph-name="bar.cap" horiz-adv-x="405" 
d="M16 0l322 1290h154l-322 -1290h-154z" />
    <glyph glyph-name="periodcentered.cap" horiz-adv-x="448" 
d="M150 543l49 205h204l-49 -205h-204z" />
    <glyph glyph-name="bullet.cap" horiz-adv-x="684" 
d="M639 646q0 -108 -72 -178t-177 -69q-105 0 -176 70t-71 177t71 178t175 71t177 -71q73 -70 73 -178z" />
    <glyph glyph-name="hyphen.cap" horiz-adv-x="704" 
d="M150 569l36 152h473l-38 -152h-471z" />
    <glyph glyph-name="endash.cap" 
d="M154 582l30 125h789l-31 -125h-788z" />
    <glyph glyph-name="emdash.cap" horiz-adv-x="2048" 
d="M154 582l30 125h1815l-31 -125h-1814z" />
    <glyph glyph-name="parenleft.cap" horiz-adv-x="591" 
d="M98 367q0 559 504 1017h176q-250 -228 -379 -506t-129 -513q0 -297 129 -504h-153q-148 215 -148 506z" />
    <glyph glyph-name="parenright.cap" horiz-adv-x="591" 
d="M582 888q0 -282 -130 -542t-376 -485h-176q250 229 379 507t129 513q0 297 -129 503h155q148 -214 148 -496z" />
    <glyph glyph-name="bracketleft.cap" horiz-adv-x="569" 
d="M502 1255l-318 -1265h185l-31 -129h-344l379 1523h344l-31 -129h-184z" />
    <glyph glyph-name="bracketright.cap" horiz-adv-x="569" 
d="M164 -10l315 1265h-184l31 129h344l-377 -1523h-346l33 129h184z" />
    <glyph glyph-name="braceleft.cap" horiz-adv-x="600" 
d="M176 688q61 0 86 31t47 119l84 340q53 207 240 206h121l-31 -129h-82q-63 0 -84 -75l-86 -349q-45 -182 -197 -208q104 -20 105 -123q0 -35 -52 -241t-53 -226q0 -43 50 -43h82l-31 -129h-121q-150 0 -150 125q0 45 58 260q57 215 57 256q0 57 -76 57h-51l33 129h51z" />
    <glyph glyph-name="braceright.cap" horiz-adv-x="600" 
d="M522 559q-61 0 -86 -31t-47 -118l-84 -342q-51 -207 -237 -207h-123l30 129h82q63 0 84 76l86 348q45 182 197 209q-104 20 -105 122q0 35 53 241q52 206 52 226q0 43 -49 43h-82l31 129h122q147 0 148 -122q0 -46 -57 -262t-58 -257q0 -55 76 -55h51l-33 -129h-51z" />
    <glyph glyph-name="at.cap" horiz-adv-x="1556" 
d="M610 545q0 -146 133 -146q81 -1 147 57t97 167l19 49q30 94 -10 161t-138 67t-174 -105q-74 -104 -74 -250zM1434 816q0 200 -134 321t-356 120q-297 -1 -500 -201t-202 -524q0 -223 150 -361t392 -138q240 0 435 92l38 -88q-211 -117 -493 -117t-466 167
q-185 167 -185 443q0 365 238 603q239 238 593 237q283 0 451 -155t168 -401t-123 -390q-123 -143 -285 -143q-82 0 -132 41t-65 106q-90 -150 -262 -149q-110 -1 -178 75t-67 199q2 180 113 319q112 139 280 140q86 0 144 -40t77 -104l41 127h149l-143 -485
q-32 -119 55 -119q115 0 191 113q76 112 76 312z" />
    <glyph glyph-name="Euro.lt" horiz-adv-x="1228" 
d="M850 1315q214 0 322 -150q110 -150 85 -389l-159 -8q16 176 -51 287q-68 111 -210 111q-143 0 -243 -95q-100 -94 -156 -244h414l-45 -110h-404q-20 -98 -24 -146h371l-50 -110h-325q4 -158 77 -247t201 -89q313 0 402 395l164 -6q-53 -244 -204 -391t-363 -147t-328 132
q-116 134 -119 353h-142l27 110h119q6 72 24 146h-104l25 110h110q76 213 224 351t362 137z" />
    <glyph glyph-name="dollar.lt" horiz-adv-x="1228" 
d="M637 111q145 -1 227 65t82 178q0 76 -50 121t-159 76l-10 2l-111 -442h21zM438 944q0 -78 48 -124t149 -75l22 -6l111 439l-39 2q-139 0 -215 -62t-76 -174zM266 924q0 172 126 282t341 109q23 0 68 -4l45 182h115l-52 -203q160 -45 243 -171t62 -308l-155 2
q14 117 -34 208t-148 132l-111 -444l43 -13q159 -45 235 -122t76 -199q0 -187 -138 -293t-349 -107q-35 0 -51 2l-45 -186h-115l49 201q-188 41 -288 174q-99 133 -70 346l159 -2q-24 -154 40 -253t194 -132l112 459l-86 26q-266 74 -266 314z" />
    <glyph glyph-name="cent.lt" horiz-adv-x="1228" 
d="M319 348q0 -182 158 -231l168 669q-141 -14 -233 -135t-93 -303zM147 354q-1 232 147 396t384 170l47 190h117l-51 -201q141 -29 207 -132t55 -249l-144 -10q16 211 -151 260l-166 -669q112 9 188 83t107 189l143 -14q-43 -168 -165 -277t-306 -115l-43 -176h-117l45 187
q-139 25 -218 123t-79 245z" />
    <glyph glyph-name="sterling.lt" horiz-adv-x="1228" 
d="M143 166q0 -74 88 -74t156 113q-76 57 -128 57t-84 -24t-32 -72zM879 1174q-133 0 -211 -98t-78 -236q0 -57 4 -135h324l-29 -117h-287q4 -61 4 -88q0 -131 -53 -258q53 -42 81 -60q87 -57 177 -57t138 58t75 177l141 -6q-66 -379 -366 -379q-92 0 -165 38t-153 108
q-115 -145 -274 -146q-88 -1 -136 49t-48 140t68 149q69 59 161 59t184 -50q20 76 20 132t-12 134h-194l29 117h149q-8 51 -8 135q0 195 131 335t341 140t297 -114t44 -314l-154 -8q31 141 -18 218t-182 77z" />
    <glyph glyph-name="yen.lt" horiz-adv-x="1228" 
d="M203 547l30 121h259l-240 622h178l225 -592l506 592h205l-551 -622h260l-31 -121h-335l-37 -146h336l-31 -120h-336l-70 -281h-168l70 281h-338l29 120h338l37 146h-336z" />
    <glyph glyph-name="florin.lt" horiz-adv-x="1228" 
d="M211 -209q-47 0 -88 8l37 127q25 -6 47 -6q131 0 194 186l189 539h-174l30 125h189l90 258q102 283 348 283q41 0 109 -15l-33 -125q-45 8 -64 9q-134 -1 -202 -185l-80 -225h205l-31 -125h-217l-201 -571q-102 -283 -348 -283z" />
    <glyph glyph-name="zero.lt" horiz-adv-x="1228" 
d="M579 -25q-227 -1 -347 133t-119 361q0 104 28 236q68 299 227 455t384 155q225 0 345 -133t120 -361q0 -119 -29 -235q-68 -299 -226 -455t-383 -156zM1038 831q0 340 -300 340q-150 0 -251 -112q-100 -113 -161 -363q-33 -131 -33 -237q0 -164 75 -252q76 -88 226 -88
q150 1 250 113t162 362q33 131 32 237z" />
    <glyph glyph-name="one.lt" horiz-adv-x="1228" 
d="M496 1106q160 0 230 39t124 153h123l-287 -1151h311l-34 -147h-818l37 147h328l207 838h-303l30 121h52z" />
    <glyph glyph-name="two.lt" horiz-adv-x="1228" 
d="M770 1169q-150 -1 -234 -109t-85 -294l-175 10q4 238 140 388t349 151q214 -1 317 -101q104 -100 104 -244t-66 -241q-38 -53 -68 -90q-60 -72 -321 -248l-352 -237h661l-34 -154h-949l25 102l506 363q18 14 80 56q188 129 235 188q79 100 92 147q12 47 13 94
q0 100 -62 160t-176 59z" />
    <glyph glyph-name="three.lt" horiz-adv-x="1228" 
d="M905 395q0 186 -227 187q-76 0 -125 -7l37 146q44 -6 144 -6q100 1 196 65t96 195q0 88 -60 142t-184 54t-217 -80q-92 -81 -127 -235l-170 8q48 211 188 331t340 120t301 -89q101 -90 101 -236t-95 -235t-224 -110q96 -27 149 -93t53 -159q0 -195 -140 -307
q-141 -112 -369 -111q-228 -1 -349 137t-78 345l166 -11q-31 -150 49 -238t226 -89t233 69q86 70 86 207z" />
    <glyph glyph-name="four.lt" horiz-adv-x="1228" 
d="M942 1122l-686 -633h528zM1157 1290l-199 -801h220l-35 -145h-221l-86 -344h-172l84 344h-691l43 172l838 774h219z" />
    <glyph glyph-name="five.lt" horiz-adv-x="1228" 
d="M733 858q179 0 281 -104t102 -277q0 -223 -141 -362t-365 -139t-350 136q-125 138 -78 345l166 -15q-29 -141 48 -233q76 -92 224 -92t236 96q88 97 88 233t-66 204t-182 67q-193 0 -297 -160l-172 12q172 403 260 721h744l-41 -160h-606q-16 -55 -70 -202t-76 -197
q117 127 295 127z" />
    <glyph glyph-name="six.lt" horiz-adv-x="1228" 
d="M965 461q0 117 -74 187q-75 70 -215 71q-140 0 -239 -92q-99 -93 -99 -229t74 -208t214 -72t240 94q100 93 99 249zM799 1174q-189 0 -311 -148t-169 -414q53 115 164 182t244 66q197 0 301 -110t105 -281q0 -215 -152 -354t-369 -139t-340 128q-123 129 -122 355
q0 331 162 581q79 123 207 199t284 76q213 0 319 -108t99 -285l-162 -9q3 121 -65 191t-195 70z" />
    <glyph glyph-name="seven.lt" horiz-adv-x="1228" 
d="M1012 1130h-760l41 160h977l-29 -108q-567 -469 -743 -1182h-193q89 338 273 630t434 500z" />
    <glyph glyph-name="eight.lt" horiz-adv-x="1228" 
d="M481 934q1 -104 71 -160t190 -55q120 0 200 74t80 178t-71 157q-71 54 -189 54t-200 -72q-81 -72 -81 -176zM1114 369q0 -180 -144 -287t-355 -107q-210 1 -344 95t-134 246t97 245q97 92 251 115q-178 80 -178 254t136 279q137 105 327 105t306 -86q116 -88 116 -232
q0 -280 -301 -353q96 -27 160 -99q63 -73 63 -175zM317 338q0 -108 83 -168t222 -59q139 0 226 72q86 73 86 183t-83 166q-83 58 -224 58t-225 -72t-85 -180z" />
    <glyph glyph-name="nine.lt" horiz-adv-x="1228" 
d="M365 829q-1 -117 73 -187t214 -71q140 1 240 93q99 92 99 228t-73 208q-74 72 -214 72t-240 -94q-99 -93 -99 -249zM530 117q188 0 311 148q122 148 169 413q-53 -116 -164 -182t-244 -66q-197 0 -301 110t-104 281q0 215 151 355q152 139 369 139t340 -129t123 -355
q0 -329 -163 -581q-79 -123 -207 -199t-284 -76q-213 0 -319 108t-98 286l161 8q-4 -121 64 -191t196 -69z" />
    <glyph glyph-name="period.tab" horiz-adv-x="614" 
d="M100 0l50 205h204l-49 -205h-205z" />
    <glyph glyph-name="comma.tab" horiz-adv-x="614" 
d="M100 0l50 205h204l-49 -201q-29 -115 -86 -171t-176 -58l25 100q59 4 85 30t44 95h-97z" />
    <glyph glyph-name="colon.tab" horiz-adv-x="614" 
d="M262 649l49 205h205l-49 -205h-205zM100 0l50 205h204l-49 -205h-205z" />
    <glyph glyph-name="semicolon.tab" horiz-adv-x="614" 
d="M262 649l49 205h205l-49 -205h-205zM100 0l50 205h204l-49 -201q-29 -115 -86 -171t-176 -58l25 100q59 4 85 30t44 95h-97z" />
    <glyph glyph-name="space.tab" horiz-adv-x="614" 
 />
    <glyph glyph-name="percent.lt" horiz-adv-x="1638" 
d="M1497 387q1 -176 -107 -294t-240 -118t-202 72t-69 193q0 176 106 295q107 119 239 119t202 -74q70 -72 71 -193zM1147 88q89 0 149 87t60 226t-129 140q-91 0 -149 -87q-58 -86 -58 -226t127 -140zM1432 1309l-1012 -1327h-152l1014 1327h150zM203 903q0 174 107 293
q108 119 240 119t203 -72t70 -192q0 -176 -106 -295q-105 -119 -239 -119q-134 -1 -204 71t-71 195zM553 1202q-91 0 -149 -87t-58 -226t127 -139q90 0 149 87q58 87 58 226t-127 139z" />
    <glyph glyph-name="perthousand.lt" horiz-adv-x="2457" 
d="M2249 387q0 -176 -108 -294t-240 -118q-131 0 -201 72t-70 193q0 176 106 295t240 119q132 0 202 -74q70 -72 71 -193zM2107 401q0 139 -129 140q-90 0 -148 -87q-58 -86 -58 -226t126 -140q90 0 150 87q59 87 59 226zM1556 387q0 -176 -108 -294t-239 -118t-201 72
t-70 193q0 176 106 295t238 119t204 -73q70 -73 70 -194zM1415 401q0 139 -129 140q-90 0 -148 -87q-58 -86 -58 -226t126 -140q90 0 150 87q59 87 59 226zM1491 1309l-1012 -1327h-151l1013 1327h150zM264 903q0 176 108 294t239 118t201 -72t71 -192q-1 -176 -107 -295
t-240 -119q-134 -1 -202 71q-70 72 -70 195zM406 889q0 -139 126 -139q90 0 149 87q58 87 58 226t-127 139q-90 0 -148 -87t-58 -226z" />
    <glyph glyph-name="plus.lt" horiz-adv-x="1228" 
d="M713 1163h143l-115 -452h453l-33 -144h-454l-113 -452h-143l112 452h-450l37 144h448z" />
    <glyph glyph-name="minus.lt" horiz-adv-x="1228" 
d="M115 567l35 144h1046l-35 -144h-1046z" />
    <glyph glyph-name="multiply.lt" horiz-adv-x="1228" 
d="M223 199l-78 98l422 338l-250 330l111 88l246 -332l424 340l78 -98l-431 -345l250 -331l-110 -88l-244 331z" />
    <glyph glyph-name="divide.lt" horiz-adv-x="1228" 
d="M426 109l51 206h211l-51 -206h-211zM639 961l53 208h211l-53 -208h-211zM123 567l35 144h1046l-35 -144h-1046z" />
    <glyph glyph-name="equal.lt" horiz-adv-x="1228" 
d="M160 731l33 139h1046l-33 -139h-1046zM78 401l33 140h1046l-33 -140h-1046z" />
    <glyph glyph-name="less.lt" horiz-adv-x="1228" 
d="M174 543l45 184l905 426l-47 -182l-755 -346l583 -357l-41 -153z" />
    <glyph glyph-name="greater.lt" horiz-adv-x="1228" 
d="M1133 727l-48 -184l-903 -428l45 182l758 350l-584 352l41 154z" />
    <glyph glyph-name="plusminus.lt" horiz-adv-x="1228" 
d="M2 80l39 143h1046l-36 -143h-1049zM745 1241h144l-96 -383h452l-35 -141h-452l-94 -383h-144l94 383h-452l35 141h452z" />
    <glyph glyph-name="lessequal.lt" horiz-adv-x="1228" 
d="M274 690l43 168l889 367l-43 -170l-717 -293l574 -293l-37 -145zM123 80l37 143h798l-38 -143h-797z" />
    <glyph glyph-name="greaterequal.lt" horiz-adv-x="1228" 
d="M1161 856l-43 -166l-889 -366l45 168l717 292l-575 293l37 148zM1004 223l-37 -143h-799l39 143h797z" />
    <glyph glyph-name="notequal.lt" horiz-adv-x="1228" 
d="M166 731l33 137h614l254 256h158l-254 -256h274l-33 -137h-378l-189 -190h518l-33 -138h-620l-248 -249h-158l248 249h-268l33 138h370l189 190h-510z" />
    <glyph glyph-name="approxequal.lt" horiz-adv-x="1228" 
d="M414 604q90 0 228 -46t226 -46q143 0 314 94l-37 -143q-172 -94 -311 -94q-88 0 -226 46t-229 46q-133 0 -303 -94l35 143q162 94 303 94zM492 911q90 0 227 -46t227 -46q137 0 309 94l-34 -143q-164 -94 -310 -94q-90 0 -228 45t-228 45q-135 0 -303 -92l34 143
q174 94 306 94z" />
    </font>
</defs>
</svg>
