<?xml version="1.0" standalone="no"?>
<!DOCTYPE svg PUBLIC "-//W3C//DTD SVG 1.1//EN" "http://www.w3.org/Graphics/SVG/1.1/DTD/svg11.dtd" >
<svg xmlns="http://www.w3.org/2000/svg">
<metadata>
Created by FontPrep 20130207 at Tue Nov 22 11:52:09 2016
 By Brendan Gatens
(c) 2010 Klim Type Foundry. All rights reserved.
</metadata>
<defs>
<font id="e44084a74808cfe0739de305e79b046a" horiz-adv-x='1024' >
  <font-face 
    font-family="FoundersGrotesk-Regular"
    font-weight="400"
    font-stretch="normal"
    units-per-em="2048"
    panose-1="2 11 5 3 3 2 2 6 2 3"
    ascent="1290"
    descent="-758"
    x-height="895"
    cap-height="1290"
    bbox="-152 -395 2263 1907"
    underline-thickness="81"
    underline-position="-62"
    unicode-range="U+0020-FB04"
  />
<missing-glyph horiz-adv-x="1245" 
 />
    <glyph glyph-name="ff" unicode="ff" horiz-adv-x="1124" 
d="M692 772h-373v-772h-167v772h-138v123h138v96q0 139 78 221q79 82 203 82t222 -65l-45 -113q-72 51 -149 51q-141 0 -142 -174v-98h373v100q0 145 79 233t218 87q219 0 281 -205l-117 -41q-39 123 -156 123q-137 0 -137 -174v-123h252v-123h-252v-772h-168v772z" />
    <glyph glyph-name="fi" unicode="fi" horiz-adv-x="976" 
d="M152 772h-138v123h138v63q0 164 91 260t239 97q148 0 225 -54q78 -54 116 -165l-137 -47q-43 135 -182 135q-86 0 -135 -54t-50 -155v-80h543v-895h-170v772h-373v-772h-167v772z" />
    <glyph glyph-name="fl" unicode="fl" horiz-adv-x="976" 
d="M692 1290h170v-1290h-170v1290zM459 1186q-139 0 -140 -174v-117h240v-123h-240v-772h-167v772h-138v123h138v113q0 143 74 225q76 82 194 82t196 -51l-38 -117q-55 39 -119 39z" />
    <glyph glyph-name="ffi" unicode="ffi" horiz-adv-x="1517" 
d="M692 772h-373v-772h-167v772h-138v123h138v96q0 139 78 221q79 82 203 82t222 -65l-45 -113q-72 51 -149 51q-141 0 -142 -174v-98h373v63q0 164 91 260t239 97q148 0 225 -54q78 -54 117 -165l-135 -47q-47 135 -185 135q-86 0 -135 -54t-49 -155v-80h543v-895h-170v772
h-373v-772h-168v772z" />
    <glyph glyph-name="ffl" unicode="ffl" horiz-adv-x="1517" 
d="M1233 1290h170v-1290h-170v1290zM692 772h-373v-772h-167v772h-138v123h138v96q0 139 78 221q79 82 203 82t222 -65l-45 -113q-72 51 -149 51q-141 0 -142 -174v-98h373v113q0 143 76 225t194 82t195 -51l-39 -117q-55 39 -119 39q-139 0 -139 -174v-117h240v-123h-240
v-772h-168v772z" />
    <glyph glyph-name="f_b" unicode="fb" horiz-adv-x="1652" 
d="M459 1186q-139 0 -140 -174v-117h240v-123h-240v-772h-167v772h-138v123h138v113q0 143 74 225q76 82 194 82t196 -51l-38 -117q-55 39 -119 39zM692 0v1290h170v-583q31 90 117 151t205 62q194 0 302 -134t108 -340t-110 -338q-108 -132 -302 -133q-119 1 -205 61
t-119 150l-37 -186h-129zM858 473v-51q0 -143 81 -227t209 -84t200 90q72 89 72 245t-72 246t-200 90t-209 -83t-81 -226z" />
    <glyph glyph-name="f_f_b" unicode="ffb" horiz-adv-x="2193" 
d="M692 772h-373v-772h-167v772h-138v123h138v96q0 139 78 221q79 82 203 82t222 -65l-45 -113q-72 51 -149 51q-141 0 -142 -174v-98h373v113q0 143 76 225t194 82t195 -51l-39 -117q-55 39 -119 39q-139 0 -139 -174v-117h240v-123h-240v-772h-168v772zM1233 0v1290h170
v-583q33 90 118 151t203 62q194 0 302 -134t108 -340t-109 -338t-303 -133q-118 1 -204 61t-119 150l-37 -186h-129zM1399 473v-51q0 -143 81 -227t209 -84q127 0 199 90q72 89 72 245t-72 246t-200 90t-208 -83q-81 -83 -81 -226z" />
    <glyph glyph-name="f_h" unicode="fh" horiz-adv-x="1591" 
d="M459 1186q-139 0 -140 -174v-117h240v-123h-240v-772h-167v772h-138v123h138v113q0 143 74 225q76 82 194 82t196 -51l-38 -117q-55 39 -119 39zM862 514v-514h-170v1290h170v-555q33 82 115 133t182 52q168 0 248 -98t80 -267v-555h-170v541q0 115 -54 179
q-53 64 -157 64t-174 -74t-70 -196z" />
    <glyph glyph-name="f_f_h" unicode="ffh" horiz-adv-x="2131" 
d="M692 772h-373v-772h-167v772h-138v123h138v96q0 139 78 221q79 82 203 82t222 -65l-45 -113q-72 51 -149 51q-141 0 -142 -174v-98h373v113q0 143 76 225t194 82t195 -51l-39 -117q-55 39 -119 39q-139 0 -139 -174v-117h240v-123h-240v-772h-168v772zM1403 514v-514
h-170v1290h170v-555q35 82 117 133t180 52q168 0 248 -98t80 -267v-555h-170v541q0 115 -54 179t-158 64q-103 0 -173 -74t-70 -196z" />
    <glyph glyph-name="f_idieresis" unicode="f&#xef;" horiz-adv-x="976" 
d="M834 1081v193h167v-193h-167zM152 772h-138v123h138v102q0 143 80 231q81 87 223 87q221 0 282 -205l-133 -47q-39 125 -145 125q-139 0 -140 -170v-123h543v-895h-170v772h-373v-772h-167v772z" />
    <glyph glyph-name="f_f_idieresis" unicode="ff&#xef;" horiz-adv-x="1517" 
d="M1374 1081v193h168v-193h-168zM692 772h-373v-772h-167v772h-138v123h138v96q0 139 78 221q79 82 203 82t222 -65l-45 -113q-72 51 -149 51q-141 0 -142 -174v-98h373v102q0 143 81 231t222 87q221 0 283 -205l-133 -47q-35 125 -146 125q-139 0 -139 -170v-123h543v-895
h-170v772h-373v-772h-168v772z" />
    <glyph glyph-name="f_j" unicode="fj" horiz-adv-x="976" 
d="M692 -135v907h-373v-772h-167v772h-138v123h138v63q0 164 91 260t239 97q148 0 225 -54q78 -54 116 -165l-137 -47q-43 135 -182 135q-86 0 -135 -54t-50 -155v-80h543v-1018q0 -246 -237 -246q-117 0 -201 66l41 108q70 -45 141 -45q86 1 86 105z" />
    <glyph glyph-name="f_f_j" unicode="ffj" horiz-adv-x="1517" 
d="M1233 -135v907h-373v-772h-168v772h-373v-772h-167v772h-138v123h138v96q0 139 78 221q79 82 203 82t222 -65l-45 -113q-72 51 -149 51q-141 0 -142 -174v-98h373v63q0 164 91 260t239 97q148 0 225 -54q78 -54 117 -165l-135 -47q-47 135 -185 135q-86 0 -135 -54
t-49 -155v-80h543v-1018q0 -246 -238 -246q-117 0 -200 66l43 108q70 -45 139 -45q86 1 86 105z" />
    <glyph glyph-name="f_k" unicode="fk" horiz-adv-x="1556" 
d="M459 1186q-139 0 -140 -174v-117h240v-123h-240v-772h-167v772h-138v123h138v113q0 143 74 225q76 82 194 82t196 -51l-38 -117q-55 39 -119 39zM862 0h-170v1290h170v-801l451 406h213l-412 -367l430 -528h-198l-359 434l-125 -110v-324z" />
    <glyph glyph-name="f_f_k" unicode="ffk" horiz-adv-x="2097" 
d="M692 772h-373v-772h-167v772h-138v123h138v96q0 139 78 221q79 82 203 82t222 -65l-45 -113q-72 51 -149 51q-141 0 -142 -174v-98h373v113q0 143 76 225t194 82t195 -51l-39 -117q-55 39 -119 39q-139 0 -139 -174v-117h240v-123h-240v-772h-168v772zM1403 0h-170v1290
h170v-801l450 406h213l-411 -367l430 -528h-199l-356 434l-127 -110v-324z" />
    <glyph glyph-name=".notdef" horiz-adv-x="1245" 
 />
    <glyph glyph-name=".null" horiz-adv-x="0" 
 />
    <glyph glyph-name="nonmarkingreturn" horiz-adv-x="681" 
 />
    <glyph glyph-name="space" unicode=" " horiz-adv-x="368" 
 />
    <glyph glyph-name="exclam" unicode="!" horiz-adv-x="391" 
d="M104 1290h183v-360l-49 -592h-82l-52 592v360zM94 0v205h205v-205h-205z" />
    <glyph glyph-name="quotedbl" unicode="&#x22;" horiz-adv-x="591" 
d="M352 834v456h146v-456h-146zM94 834v456h146v-456h-146z" />
    <glyph glyph-name="numbersign" unicode="#" horiz-adv-x="1245" 
d="M514 829l-86 -368h303l86 368h-303zM1118 461l-22 -119h-248l-82 -342h-145l81 342h-303l-82 -342h-143l82 342h-215l22 119h222l86 368h-244l23 121h249l82 340h144l-82 -340h303l82 340h145l-82 -340h213l-22 -121h-219l-86 -368h241z" />
    <glyph glyph-name="dollar" unicode="$" horiz-adv-x="1134" 
d="M248 959q0 -99 58 -145t177 -69l27 -6v441q-126 -4 -194 -63t-68 -158zM897 332q0 94 -57 143q-58 49 -185 74l-30 6v-444q125 8 199 68q74 59 73 153zM82 952q0 156 115 256t313 107v178h115v-184q195 -23 303 -143t110 -314l-157 -8q-4 135 -72 219t-184 106v-452
l88 -17q180 -34 266 -116t86 -241t-122 -258t-318 -108v-186h-115v189q-211 20 -338 146t-127 335l158 10q6 -152 89 -243t218 -111v458l-109 23q-147 27 -233 113q-86 85 -86 241z" />
    <glyph glyph-name="percent" unicode="%" horiz-adv-x="1499" 
d="M1444 315q0 -155 -87 -247t-216 -92t-216 92t-87 248t87 247q87 92 216 92t216 -92t87 -248zM1149 1290l-660 -1290h-139l662 1290h137zM1296 315q0 227 -155 228q-156 1 -156 -227q-1 -228 155 -228t156 227zM57 975q0 156 86 248t216 92t216 -92q87 -92 87 -248
t-86 -248t-217 -92q-130 0 -216 92t-86 248zM203 975q1 -227 157 -227t156 227t-156 227t-157 -227z" />
    <glyph glyph-name="ampersand" unicode="&#x26;" horiz-adv-x="1273" 
d="M544 1188q-80 0 -132 -50t-52 -124t31 -124t92 -118q129 58 179 112t49 131q0 77 -43 125t-124 48zM479 113q158 0 293 102l-352 389q-98 -51 -146 -112q-48 -62 -47 -160q-1 -98 71 -158t181 -61zM55 330q0 123 70 210t209 160q-135 160 -135 299t96 227t248 89
q151 0 235 -79t84 -202q0 -122 -70 -200t-225 -156l316 -350q106 139 147 325l148 -8q-61 -246 -205 -420q98 -109 196 -108q53 0 101 12v-111q-58 -34 -134 -34t-135 30t-137 105q-172 -143 -372 -143t-318 94q-119 96 -119 260z" />
    <glyph glyph-name="quotesingle" unicode="'" horiz-adv-x="337" 
d="M94 834v456h150v-456h-150z" />
    <glyph glyph-name="parenleft" unicode="(" horiz-adv-x="591" 
d="M84 590q0 210 75 412t210 350h170q-277 -316 -277 -762t277 -762h-170q-135 147 -210 349t-75 413z" />
    <glyph glyph-name="parenright" unicode=")" horiz-adv-x="591" 
d="M508 590q0 -211 -75 -413t-210 -349h-170q277 316 277 762t-277 762h170q135 -147 210 -349t75 -413z" />
    <glyph glyph-name="asterisk" unicode="*" horiz-adv-x="733" 
d="M307 1309h119v-258l244 84l37 -113l-246 -78l153 -207l-96 -69l-149 204l-150 -208l-94 73l149 203l-245 80l39 113l239 -84v260z" />
    <glyph glyph-name="plus" unicode="+" horiz-adv-x="1265" 
d="M561 1163h144v-452h452v-144h-452v-452h-144v452h-450v144h450v452z" />
    <glyph glyph-name="comma" unicode="," horiz-adv-x="360" 
d="M78 0v205h205v-201q0 -115 -44 -171t-161 -58v100q57 4 77 31q19 27 19 94h-96z" />
    <glyph glyph-name="hyphen" unicode="-" horiz-adv-x="704" 
d="M117 446v152h471v-152h-471z" />
    <glyph glyph-name="period" unicode="." horiz-adv-x="360" 
d="M78 0v205h205v-205h-205z" />
    <glyph glyph-name="slash" unicode="/" horiz-adv-x="649" 
d="M-41 -170l524 1520h160l-522 -1520h-162z" />
    <glyph glyph-name="zero" unicode="0" horiz-adv-x="1204" 
d="M952 645q0 526 -350 526t-350 -526t350 -526t350 526zM1139 645q1 -319 -141 -494t-396 -175t-394 174q-140 176 -140 495t140 495t394 175q254 1 396 -175t141 -495z" />
    <glyph glyph-name="one" unicode="1" horiz-adv-x="591" 
d="M20 987v115q131 0 199 46t105 150h116v-1298h-178v987h-242z" />
    <glyph glyph-name="two" unicode="2" horiz-adv-x="1034" 
d="M1001 154v-154h-948v102l365 314q98 86 144 129t104 111q107 124 107 248q-1 124 -66 195q-66 71 -194 71t-200 -80t-71 -222q0 -61 14 -116l-176 8q-14 72 -14 121q0 199 122 317t334 117q211 0 323 -111q111 -112 111 -276t-101 -294t-284 -280l-243 -200h673z" />
    <glyph glyph-name="three" unicode="3" horiz-adv-x="1056" 
d="M827 350q0 110 -79 171q-80 61 -180 61t-148 -7v146q44 -6 140 -6t170 52t73 165q0 113 -69 176q-68 63 -202 63t-214 -85t-78 -238l-172 6q0 203 127 332t339 129q212 1 328 -99t117 -266q0 -118 -75 -200t-175 -99q121 -16 199 -101t78 -208q0 -164 -127 -265
t-348 -101t-354 122q-132 123 -132 338l174 -8q2 -152 88 -230q85 -78 225 -79q140 0 218 61q77 60 77 170z" />
    <glyph glyph-name="four" unicode="4" horiz-adv-x="1120" 
d="M711 489v641l-525 -641h525zM885 1290v-801h221v-145h-221v-344h-174v344h-678v168l637 778h215z" />
    <glyph glyph-name="five" unicode="5" horiz-adv-x="1075" 
d="M934 1290v-160h-619q-2 -53 -19 -201t-28 -198q110 131 314 131t321 -124t117 -318t-129 -319q-129 -126 -350 -126q-221 1 -348 133t-117 349l172 -15q0 -150 79 -238t221 -87q142 0 221 84t79 219t-79 218t-214 83q-195 0 -283 -164l-176 12q72 393 82 721h756z" />
    <glyph glyph-name="six" unicode="6" horiz-adv-x="1122" 
d="M584 719q-144 0 -226 -81t-82 -218t85 -219t227 -82t224 81q81 81 81 219t-82 219t-227 81zM598 1174q-188 0 -282 -156t-91 -422q35 120 135 192t250 72q207 0 330 -122t123 -318t-128 -321q-128 -124 -343 -124q-254 0 -389 172q-135 173 -135 481t135 497t397 190
q194 -1 314 -105t137 -284l-170 -6q-37 254 -283 254z" />
    <glyph glyph-name="seven" unicode="7" horiz-adv-x="987" 
d="M39 1130v160h909v-108q-424 -442 -430 -1182h-192q4 338 114 630t308 500h-709z" />
    <glyph glyph-name="eight" unicode="8" horiz-adv-x="1079" 
d="M541 -25q-227 1 -359 99t-131 268q0 121 78 205t188 104q-219 80 -219 305q0 164 124 262t318 97q194 0 318 -97t123 -262q0 -225 -219 -305q112 -20 188 -104t76 -205q0 -170 -129 -268t-356 -99zM541 582q-147 0 -227 -60t-78 -173q0 -114 78 -177t226 -63
q146 0 225 63t79 177q0 113 -78 173t-225 60zM541 1184q-123 0 -196 -62t-73 -174q0 -113 73 -173t195 -60t196 60t73 173q-1 112 -73 174t-195 62z" />
    <glyph glyph-name="nine" unicode="9" horiz-adv-x="1122" 
d="M846 870q0 138 -85 220t-227 82t-224 -82q-81 -80 -81 -218t82 -220q81 -81 227 -81t227 81t81 218zM524 117q188 0 282 155q93 156 91 422q-35 -120 -135 -192t-250 -72q-207 0 -330 122t-123 318t128 321q128 124 343 124q254 0 390 -172t135 -480q0 -307 -135 -497
t-398 -191q-194 1 -314 105t-136 285l170 6q36 -254 282 -254z" />
    <glyph glyph-name="colon" unicode=":" horiz-adv-x="360" 
d="M78 649v205h205v-205h-205zM78 0v205h205v-205h-205z" />
    <glyph glyph-name="semicolon" unicode=";" horiz-adv-x="360" 
d="M78 649v205h205v-205h-205zM78 0v205h205v-201q0 -115 -44 -171t-161 -58v100q57 4 77 31q19 27 19 94h-96z" />
    <glyph glyph-name="less" unicode="&#x3c;" horiz-adv-x="948" 
d="M82 543v184l799 426v-166l-668 -352l668 -352v-168z" />
    <glyph glyph-name="equal" unicode="=" horiz-adv-x="1294" 
d="M123 731v139h1048v-139h-1048zM123 401v140h1048v-140h-1048z" />
    <glyph glyph-name="greater" unicode="&#x3e;" horiz-adv-x="948" 
d="M864 727v-184l-796 -428v168l665 352l-665 352v166z" />
    <glyph glyph-name="question" unicode="?" horiz-adv-x="999" 
d="M377 0v205h205v-205h-205zM406 344q0 88 36 158t142 148q24 18 30 24t44 40q100 87 100 231q0 89 -65 157t-191 68t-199 -80q-72 -78 -72 -222q0 -61 15 -116l-176 8q-12 61 -13 121q0 199 123 317t333 117q210 0 320 -109t109 -274q0 -121 -68 -208t-202 -196
q-57 -47 -81 -86t-26 -98h-159z" />
    <glyph glyph-name="at" unicode="@" horiz-adv-x="1556" 
d="M792 690q-97 0 -164 -101t-67 -231q0 -166 137 -165q78 0 144 57q65 58 94 164l12 49q23 99 -18 163t-138 64zM1137 182q104 0 169 96q64 96 64 298t-139 337t-383 136q-293 1 -472 -185t-179 -481q0 -256 167 -408q167 -151 409 -151t433 92l45 -88q-195 -117 -487 -117
t-495 180q-201 180 -201 506t215 545t565 219q301 0 476 -167t175 -419q1 -253 -111 -379t-274 -126q-82 0 -133 40t-68 105q-82 -145 -251 -145q-119 0 -191 76t-72 210q-1 176 105 312t276 135q82 0 142 -36t82 -93l30 112h152l-123 -485q-30 -119 74 -119z" />
    <glyph glyph-name="A" unicode="A" horiz-adv-x="1306" 
d="M637 1094l-231 -574h475l-236 574h-8zM551 1290h194l537 -1290h-188l-156 379h-588l-151 -379h-174z" />
    <glyph glyph-name="B" unicode="B" horiz-adv-x="1210" 
d="M297 1145v-412h360q266 0 267 205q0 96 -66 152t-201 55h-360zM670 596h-373v-451h373q143 1 218 59t75 164t-75 168q-75 60 -218 60zM1139 354q0 -168 -120 -261t-345 -93h-549v1290h526q231 0 341 -91t110 -253q0 -110 -69 -184t-175 -92q125 -20 203 -102t78 -214z
" />
    <glyph glyph-name="C" unicode="C" horiz-adv-x="1363" 
d="M66 645q0 295 181 482t451 187t427 -151q157 -152 175 -407l-172 -8q-10 184 -122 300q-113 116 -310 116q-196 0 -322 -142q-126 -141 -126 -377t126 -377t322 -141t310 116q113 116 122 300l172 -8q-18 -256 -175 -408t-427 -152q-270 -1 -451 187t-181 483z" />
    <glyph glyph-name="D" unicode="D" horiz-adv-x="1316" 
d="M125 0v1290h467q305 0 483 -172t178 -473t-178 -473t-483 -172h-467zM303 145h279q236 0 362 131t125 369q0 238 -126 369t-361 131h-279v-1000z" />
    <glyph glyph-name="E" unicode="E" horiz-adv-x="1122" 
d="M1044 147v-147h-919v1290h901v-147h-729v-406h580v-145h-580v-445h747z" />
    <glyph glyph-name="F" unicode="F" horiz-adv-x="1056" 
d="M301 0h-176v1290h881v-147h-705v-428h553v-148h-553v-567z" />
    <glyph glyph-name="G" unicode="G" horiz-adv-x="1409" 
d="M694 -25q-276 -1 -452 185t-176 483t180 484t450 187t426 -140q156 -141 172 -392l-170 -10q-10 180 -122 286t-308 105q-196 0 -322 -141q-124 -141 -124 -379t128 -378t322 -140t308 102q113 102 129 271h-394v139h555v-637h-161v229q-41 -119 -163 -187t-278 -67z" />
    <glyph glyph-name="H" unicode="H" horiz-adv-x="1347" 
d="M303 0h-178v1290h178v-553h741v553h179v-1290h-179v592h-741v-592z" />
    <glyph glyph-name="I" unicode="I" horiz-adv-x="428" 
d="M125 1290h178v-1290h-178v1290z" />
    <glyph glyph-name="J" unicode="J" horiz-adv-x="1044" 
d="M762 1290h176v-850q0 -227 -120 -346t-329 -119t-333 121t-131 348l168 11q10 -160 86 -247t213 -87q270 0 270 323v846z" />
    <glyph glyph-name="K" unicode="K" horiz-adv-x="1196" 
d="M303 0h-178v1290h178v-637l625 637h211l-555 -567l616 -723h-215l-532 612l-150 -151v-461z" />
    <glyph glyph-name="L" unicode="L" horiz-adv-x="1073" 
d="M125 1290h178v-1143h719v-147h-897v1290z" />
    <glyph glyph-name="M" unicode="M" horiz-adv-x="1527" 
d="M291 1110v-1110h-166v1290h285l362 -1050h6l344 1050h281v-1290h-178v1110h-8l-377 -1110h-150l-391 1110h-8z" />
    <glyph glyph-name="N" unicode="N" horiz-adv-x="1306" 
d="M1016 1290h166v-1290h-142l-749 1036v-1036h-166v1290h184l707 -987v987z" />
    <glyph glyph-name="O" unicode="O" horiz-adv-x="1411" 
d="M1163 645q0 238 -124 378q-125 140 -333 140t-333 -141t-125 -377t125 -377t334 -141t333 140t123 378zM1348 645q0 -297 -180 -483t-462 -186t-461 186t-179 483t179 483t462 186t462 -186t179 -483z" />
    <glyph glyph-name="P" unicode="P" horiz-adv-x="1138" 
d="M301 481v-481h-176v1290h469q238 0 370 -106t132 -296t-131 -299q-131 -108 -371 -108h-293zM301 627h289q334 0 334 259t-334 259h-289v-518z" />
    <glyph glyph-name="Q" unicode="Q" horiz-adv-x="1411" 
d="M1163 658q0 226 -124 365q-125 140 -333 140t-333 -141t-125 -378t125 -378t334 -141q162 0 270 78l-148 164l105 90l139 -156q90 131 90 357zM1348 653q0 -289 -164 -475l125 -137l-103 -88l-125 135q-162 -113 -374 -113q-283 1 -462 187t-179 483t179 483t462 186
t462 -186t179 -475z" />
    <glyph glyph-name="R" unicode="R" horiz-adv-x="1226" 
d="M299 662h340q317 0 317 241q0 115 -78 178q-79 63 -239 64h-340v-483zM299 520v-520h-174v1290h524q240 0 363 -101t123 -280q0 -141 -83 -224t-210 -97q227 -45 245 -279q15 -160 25 -218t41 -91h-184q-39 53 -54 281q-14 240 -251 239h-365z" />
    <glyph glyph-name="S" unicode="S" horiz-adv-x="1148" 
d="M582 115q157 0 241 59q84 60 84 156t-58 144t-187 73l-256 49q-322 61 -322 340q0 170 125 274t351 104t361 -121q134 -122 136 -341l-162 -8q-4 160 -96 247q-91 87 -241 87t-226 -62t-76 -160q0 -100 55 -142t178 -64l234 -45q180 -35 267 -119t87 -247t-135 -263
q-136 -100 -364 -100t-380 128q-152 130 -153 357l160 10q8 -172 114 -264t263 -92z" />
    <glyph glyph-name="T" unicode="T" horiz-adv-x="1208" 
d="M688 0h-176v1143h-469v147h1122v-147h-477v-1143z" />
    <glyph glyph-name="U" unicode="U" horiz-adv-x="1261" 
d="M631 -25q-236 0 -379 125t-143 394v796h176v-798q0 -367 346 -367q170 0 260 92t90 272v801h174v-796q0 -266 -144 -392t-380 -127z" />
    <glyph glyph-name="V" unicode="V" horiz-adv-x="1280" 
d="M735 0h-192l-518 1290h182l436 -1085h8l424 1085h180z" />
    <glyph glyph-name="W" unicode="W" horiz-adv-x="1671" 
d="M922 1290l286 -1073h9l264 1073h166l-330 -1290h-207l-268 1030h-8l-275 -1030h-205l-329 1290h172l270 -1069h8l281 1069h166z" />
    <glyph glyph-name="X" unicode="X" horiz-adv-x="1245" 
d="M1176 1290l-455 -614l500 -676h-209l-398 535l-391 -535h-198l497 664l-454 626h208l351 -489l350 489h199z" />
    <glyph glyph-name="Y" unicode="Y" horiz-adv-x="1224" 
d="M698 0h-170v506l-503 784h194l404 -618l389 618h188l-502 -784v-506z" />
    <glyph glyph-name="Z" unicode="Z" horiz-adv-x="1146" 
d="M1085 147v-147h-1024v125l779 1018h-768v147h993v-131l-778 -1012h798z" />
    <glyph glyph-name="bracketleft" unicode="[" horiz-adv-x="569" 
d="M295 1223v-1266h184v-129h-344v1524h344v-129h-184z" />
    <glyph glyph-name="backslash" unicode="\" horiz-adv-x="649" 
d="M168 1350l522 -1520h-160l-524 1520h162z" />
    <glyph glyph-name="bracketright" unicode="]" horiz-adv-x="569" 
d="M272 -43v1266h-184v129h346v-1524h-346v129h184z" />
    <glyph glyph-name="asciicircum" unicode="^" horiz-adv-x="772" 
d="M305 1290h160l287 -413h-170l-197 286l-197 -286h-168z" />
    <glyph glyph-name="underscore" unicode="_" horiz-adv-x="780" 
d="M41 -246v133h698v-133h-698z" />
    <glyph glyph-name="grave" unicode="`" 
d="M670 1032h-119l-199 258h207z" />
    <glyph glyph-name="a" unicode="a" horiz-adv-x="1001" 
d="M838 578v-402q0 -70 69 -70q43 0 78 21v-92q-53 -53 -130 -53t-122 48t-53 128q-37 -80 -126 -131t-208 -51q-118 0 -196 66q-78 68 -78 184t91 181t269 99l242 49v35q0 92 -52 145t-145 53q-180 0 -225 -180l-152 21q27 131 126 211t262 80q162 0 256 -87t94 -255z
M674 399v43l-201 -43q-123 -27 -177 -59t-54 -100q0 -66 40 -103t113 -37q121 0 200 83t79 216z" />
    <glyph glyph-name="b" unicode="b" horiz-adv-x="1077" 
d="M117 0v1290h170v-583q31 90 116 151q86 61 205 62q194 0 302 -134t108 -340t-109 -338t-303 -133q-118 1 -204 61t-119 150l-37 -186h-129zM283 473v-51q0 -143 81 -227q80 -84 208 -84t199 90q71 89 71 245t-71 246t-199 90t-208 -83t-81 -226z" />
    <glyph glyph-name="c" unicode="c" horiz-adv-x="997" 
d="M59 446q0 214 128 344q127 130 323 130t306 -111t124 -281l-149 -10q-10 121 -82 193q-72 71 -196 71t-202 -91t-78 -245t78 -244t202 -91t196 73t82 197l149 -14q-14 -172 -124 -282t-306 -110t-324 129q-127 129 -127 342z" />
    <glyph glyph-name="d" unicode="d" horiz-adv-x="1075" 
d="M791 0v186q-33 -90 -118 -150t-204 -61q-193 1 -301 133t-109 338q0 206 109 340q109 133 301 134q119 0 204 -62t118 -151v583h170v-1290h-170zM793 422v51q0 143 -80 226t-208 83t-200 -90t-72 -246t72 -246t200 -89q128 0 208 84t80 227z" />
    <glyph glyph-name="e" unicode="e" horiz-adv-x="1001" 
d="M514 791q-118 0 -192 -79q-73 -79 -89 -196h535q-4 117 -70 196t-184 79zM502 -25q-184 0 -314 126q-129 126 -129 335t129 346q129 138 329 138q201 0 313 -127t112 -320v-67h-713q6 -129 89 -213t204 -84q220 -1 275 208l141 -16q-36 -154 -144 -240t-292 -86z" />
    <glyph glyph-name="f" unicode="f" horiz-adv-x="583" 
d="M152 772h-138v123h138v104q0 145 78 231q79 85 219 85q219 0 280 -205l-117 -41q-39 123 -155 123q-137 0 -138 -174v-123h252v-123h-252v-772h-167v772z" />
    <glyph glyph-name="g" unicode="g" horiz-adv-x="983" 
d="M682 613q0 93 -54 145t-150 51q-96 0 -149 -51q-55 -50 -55 -144t54 -144t150 -50q95 0 150 50q54 50 54 143zM178 -94q0 -162 281 -162q352 0 352 178q0 111 -172 111h-289q-172 0 -172 -127zM854 614q0 -137 -105 -220t-274 -83q-115 0 -196 37q-59 -35 -60 -88
q0 -78 109 -78h350q141 0 219 -66t78 -174t-76 -180q-138 -132 -440 -131q-193 -1 -318 61t-125 181q0 76 50 124t135 64q-119 39 -119 151t135 171q-117 84 -117 227q0 142 104 226t274 84q169 0 278 -93q80 123 227 123v-147q-98 0 -172 -37q43 -70 43 -152z" />
    <glyph glyph-name="h" unicode="h" horiz-adv-x="1015" 
d="M287 514v-514h-170v1290h170v-555q33 82 114 133q82 51 183 52q168 0 248 -100t79 -265v-555h-170v541q0 115 -54 179q-53 64 -157 64t-174 -74q-69 -75 -69 -196z" />
    <glyph glyph-name="i" unicode="i" horiz-adv-x="401" 
d="M113 1098v192h176v-192h-176zM117 895h170v-895h-170v895z" />
    <glyph glyph-name="j" unicode="j" horiz-adv-x="401" 
d="M113 1098v192h176v-192h-176zM287 895v-1018q0 -246 -240 -246q-115 0 -199 66l41 108q70 -45 140 -45q88 0 88 105v1030h170z" />
    <glyph glyph-name="k" unicode="k" horiz-adv-x="980" 
d="M287 0h-170v1290h170v-801l450 406h213l-411 -367l430 -528h-201l-356 434l-125 -110v-324z" />
    <glyph glyph-name="l" unicode="l" horiz-adv-x="401" 
d="M117 1290h170v-1290h-170v1290z" />
    <glyph glyph-name="m" unicode="m" horiz-adv-x="1587" 
d="M1481 555v-555h-170v541q0 244 -199 243q-98 0 -164 -74t-65 -196v-514h-170v541q0 244 -199 243q-96 0 -162 -74t-65 -196v-514h-170v895h170v-160q33 84 108 134q76 50 176 51q227 0 293 -195q37 86 117 140t184 55q166 0 241 -100t75 -265z" />
    <glyph glyph-name="n" unicode="n" horiz-adv-x="1015" 
d="M287 514v-514h-170v895h170v-160q33 82 114 133q82 51 183 52q168 0 248 -100t79 -265v-555h-170v541q0 115 -54 179q-53 64 -157 64t-174 -74q-69 -75 -69 -196z" />
    <glyph glyph-name="o" unicode="o" horiz-adv-x="1032" 
d="M973 446q0 -206 -130 -338t-329 -132t-327 132t-128 340t129 339q129 133 327 133t328 -134t130 -340zM233 446q0 -154 74 -246t207 -94q133 0 209 94t76 248q0 152 -75 245t-209 93t-208 -93t-74 -247z" />
    <glyph glyph-name="p" unicode="p" horiz-adv-x="1077" 
d="M287 -344h-170v1239h170v-188q31 90 116 151q86 61 205 62q194 0 302 -134t108 -340t-109 -338t-301 -133q-118 1 -204 61t-117 150v-530zM283 473v-51q0 -143 81 -227q80 -84 208 -84t199 90q71 89 71 245t-71 246t-199 90t-208 -83t-81 -226z" />
    <glyph glyph-name="q" unicode="q" horiz-adv-x="1075" 
d="M791 -344v530q-33 -90 -118 -150t-204 -61q-193 1 -301 133t-109 338q0 206 109 340q109 133 301 134q119 0 204 -62t118 -151v188h170v-1239h-170zM793 422v51q0 143 -80 226t-208 83t-200 -90t-72 -246t72 -246t200 -89q128 0 208 84t80 227z" />
    <glyph glyph-name="r" unicode="r" horiz-adv-x="677" 
d="M498 762q-84 0 -148 -81t-63 -208v-473h-170v895h170v-182q27 84 95 145q69 62 154 62t132 -41l-17 -154q-69 37 -153 37z" />
    <glyph glyph-name="s" unicode="s" horiz-adv-x="886" 
d="M78 645q0 123 94 199t261 76t268 -81t114 -237l-137 -8q-31 201 -256 201q-84 0 -135 -36t-51 -97q0 -100 137 -125l168 -27q143 -25 215 -84t72 -182t-103 -196q-102 -73 -270 -73t-280 83t-124 243l144 10q13 -102 81 -156q68 -55 172 -55t162 34t58 96t-40 92t-130 45
l-152 26q-268 43 -268 252z" />
    <glyph glyph-name="t" unicode="t" horiz-adv-x="626" 
d="M147 209v563h-135v92l58 10q59 12 83 44t40 100l26 125h96v-248h252v-123h-252v-543q0 -117 111 -116q74 0 168 53v-115q-100 -76 -229 -76q-218 1 -218 234z" />
    <glyph glyph-name="u" unicode="u" horiz-adv-x="1005" 
d="M719 381v514h170v-895h-170v158q-33 -82 -113 -132t-180 -51q-319 0 -320 363v557h170v-541q0 -114 52 -180t155 -66q102 0 169 76q67 74 67 197z" />
    <glyph glyph-name="v" unicode="v" horiz-adv-x="931" 
d="M549 0h-166l-369 895h179l278 -688h8l273 688h166z" />
    <glyph glyph-name="w" unicode="w" horiz-adv-x="1314" 
d="M735 895l193 -678h8l207 678h157l-284 -895h-164l-190 668h-9l-188 -668h-164l-287 895h170l211 -678h8l189 678h143z" />
    <glyph glyph-name="x" unicode="x" horiz-adv-x="956" 
d="M897 895l-330 -426l373 -469h-197l-274 348l-270 -348h-185l367 461l-338 434h197l239 -309l236 309h182z" />
    <glyph glyph-name="y" unicode="y" horiz-adv-x="942" 
d="M412 -344h-166l145 346l-377 893h179l284 -688h8l275 688h168z" />
    <glyph glyph-name="z" unicode="z" horiz-adv-x="876" 
d="M78 764v131h727v-117l-537 -647h549v-131h-756v117l527 647h-510z" />
    <glyph glyph-name="braceleft" unicode="{" horiz-adv-x="600" 
d="M55 524v131h51q61 0 79 31q17 31 18 119v340q0 207 186 207h121v-129h-82q-63 0 -63 -76v-348q0 -91 -32 -143t-112 -66q80 -14 112 -66t32 -145v-346q0 -76 63 -76h82v-129h-121q-186 0 -186 207v340q1 88 -17 119t-80 30h-51z" />
    <glyph glyph-name="bar" unicode="|" horiz-adv-x="403" 
d="M125 -170v1520h154v-1520h-154z" />
    <glyph glyph-name="braceright" unicode="}" horiz-adv-x="600" 
d="M545 655v-131h-51q-61 0 -79 -30q-17 -31 -18 -119v-340q0 -207 -186 -207h-123v129h82q63 0 63 76v346q0 92 33 144t113 67q-145 27 -146 209v348q0 76 -63 76h-82v129h123q186 0 186 -207v-340q-1 -88 17 -119t80 -31h51z" />
    <glyph glyph-name="asciitilde" unicode="~" horiz-adv-x="802" 
d="M96 424q0 116 44 184t116 68t152 -60t118 -61q38 0 56 28q16 28 20 87h107q0 -117 -44 -185t-130 -67q-59 0 -139 60q-134 100 -175 33q-16 -28 -20 -87h-105z" />
    <glyph glyph-name="exclamdown" unicode="&#xa1;" horiz-adv-x="391" 
d="M287 -229h-183v360l52 592h82l49 -592v-360zM94 856v205h205v-205h-205z" />
    <glyph glyph-name="cent" unicode="&#xa2;" 
d="M227 446q0 -139 67 -227t179 -106v667q-113 -18 -179 -106t-67 -228zM473 -201v181q-182 16 -298 144t-116 322t116 323q116 128 298 146v195h115v-195q168 -15 266 -123t111 -264l-146 -10q-10 106 -70 177t-161 87v-669q207 31 235 266l142 -12q-13 -159 -111 -265
t-266 -122v-181h-115z" />
    <glyph glyph-name="sterling" unicode="&#xa3;" horiz-adv-x="1157" 
d="M246 86q104 0 131 133q-72 53 -123 53t-79 -24t-28 -69t28 -69t71 -24zM638 1174q-122 0 -180 -70t-57 -174q0 -106 43 -225h320v-117h-275q69 -187 39 -332q60 -46 92 -66q107 -67 199 -65q164 0 164 235l139 -6q4 -178 -72 -278t-228 -100t-333 151q-80 -152 -245 -152
q-94 1 -156 55t-63 146q0 92 62 150q61 58 145 57q84 0 157 -35q-2 111 -61 240h-209v117h155q-47 113 -47 217q0 178 108 286q109 108 301 107q192 0 304 -114t111 -314l-156 -8q-2 145 -69 220q-66 75 -188 75z" />
    <glyph glyph-name="yen" unicode="&#xa5;" horiz-adv-x="1177" 
d="M154 547v121h270l-408 622h195l387 -598l375 598h188l-409 -622h272v-121h-350v-146h350v-120h-350v-281h-170v281h-350v120h350v146h-350z" />
    <glyph glyph-name="section" unicode="&#xa7;" horiz-adv-x="913" 
d="M190 637q0 -61 37 -99t117 -75l252 -119q4 -4 8 -4q117 39 117 143q0 59 -37 97t-117 75l-252 121q-4 0 -8 4q-117 -45 -117 -143zM872 489q0 -70 -41 -130t-106 -97q78 -74 78 -188t-96 -193q-96 -78 -254 -78t-263 83q-104 83 -116 235l135 8q14 -99 85 -151t160 -52
t141 37t52 97q1 60 -21 88q-22 30 -83 59l-262 117q-121 53 -182 122q-60 70 -60 162q0 168 147 248q-78 74 -78 190t97 192q96 77 254 77t262 -83t117 -235l-136 -8q-14 99 -85 151t-159 52t-142 -36q-52 -36 -52 -95t23 -90t82 -58l262 -118q121 -53 181 -123t60 -183z
" />
    <glyph glyph-name="dieresis" unicode="&#xa8;" 
d="M569 1081v193h166v-193h-166zM287 1081v193h168v-193h-168z" />
    <glyph glyph-name="copyright" unicode="&#xa9;" horiz-adv-x="1482" 
d="M168 645q0 -248 167 -412q167 -163 407 -163t406 164q167 164 167 411q0 248 -167 412t-407 164q-241 0 -407 -164t-166 -412zM742 236q-168 0 -278 114t-110 294q0 179 111 293t277 114q166 1 264 -93q96 -94 106 -249l-131 -7q-7 100 -67 162t-168 64q-108 0 -176 -77
q-66 -77 -66 -207t66 -206t174 -76t169 62t68 162l131 -8q-10 -156 -106 -249t-264 -93zM72 645q0 289 194 479q196 190 476 190t475 -190t195 -479t-196 -479q-194 -190 -475 -190t-475 190t-194 479z" />
    <glyph glyph-name="ordfeminine" unicode="&#xaa;" horiz-adv-x="796" 
d="M668 1051v-297q0 -53 51 -54q27 0 61 15v-82q-51 -43 -112 -43t-100 38q-38 38 -46 101q-30 -63 -96 -103t-158 -40t-151 51t-59 142t69 141q70 50 203 73l188 37v29q0 67 -36 103t-103 36q-129 0 -160 -129l-139 16q18 103 98 167t210 64t205 -66t75 -199zM518 909v33
l-145 -31q-86 -18 -125 -43q-39 -26 -39 -72t29 -74t81 -28q87 0 143 60t56 155z" />
    <glyph glyph-name="guillemotleft" unicode="&#xab;" horiz-adv-x="831" 
d="M430 379v135l307 264v-166l-190 -166l190 -163v-168zM94 379v135l307 264v-166l-190 -166l190 -163v-168z" />
    <glyph glyph-name="registered" unicode="&#xae;" horiz-adv-x="825" 
d="M709 949q0 132 -86 218t-211 86t-211 -86t-86 -218t86 -218t211 -86t211 86t86 218zM776 949q0 -157 -106 -261t-258 -104t-257 104t-105 261t104 261q106 104 258 104t258 -104t106 -261zM344 963h78q76 0 76 57t-76 57h-78v-114zM422 897h-78v-135h-84v381h178
q145 0 146 -117q0 -41 -25 -67t-61 -29q66 -12 72 -83t20 -85h-88q-10 12 -17 76q-2 59 -63 59z" />
    <glyph glyph-name="macron" unicode="&#xaf;" 
d="M248 1055v131h526v-131h-526z" />
    <glyph glyph-name="degree" unicode="&#xb0;" horiz-adv-x="694" 
d="M346 756q-121 0 -203 80t-82 199q0 118 83 199t203 81t203 -81t83 -199q0 -119 -83 -199t-204 -80zM186 1036q0 -70 44 -118t116 -48t117 48t45 118t-45 117t-117 47t-116 -47t-44 -117z" />
    <glyph glyph-name="plusminus" unicode="&#xb1;" horiz-adv-x="1265" 
d="M109 80v143h1048v-143h-1048zM561 1241h141v-383h455v-141h-455v-383h-141v383h-452v141h452v383z" />
    <glyph glyph-name="twosuperior" unicode="&#xb2;" horiz-adv-x="679" 
d="M643 614v-122h-594v94l221 186q111 92 156 148t45 122t-34 103q-33 37 -101 37t-105 -43t-36 -119q0 -25 8 -70l-144 6q-8 49 -8 74q0 123 80 198t212 75t205 -70t73 -172q1 -102 -57 -177t-167 -163l-131 -107h377z" />
    <glyph glyph-name="threesuperior" unicode="&#xb3;" horiz-adv-x="694" 
d="M508 715q0 57 -42 90t-92 33t-87 -4v110q16 -2 69 -2q137 0 138 119q0 57 -36 91t-107 34t-111 -47t-41 -129l-140 4q0 127 80 208t215 81q135 -1 209 -63t74 -167q0 -70 -45 -120t-105 -60q76 -9 122 -61t46 -142t-81 -150q-81 -62 -221 -62t-224 75q-84 76 -84 209
l143 -4q6 -164 172 -164q66 0 107 32t41 89z" />
    <glyph glyph-name="acute" unicode="&#xb4;" 
d="M471 1032h-119l111 258h207z" />
    <glyph glyph-name="paragraph" unicode="&#xb6;" horiz-adv-x="1028" 
d="M498 0v561q-217 0 -337 97q-120 98 -120 268t120 267t337 97h403v-1290h-133v1159h-137v-1159h-133z" />
    <glyph glyph-name="periodcentered" unicode="&#xb7;" horiz-adv-x="374" 
d="M84 420v205h205v-205h-205z" />
    <glyph glyph-name="cedilla" unicode="&#xb8;" horiz-adv-x="1173" 
d="M813 -208q1 -79 -65 -115t-164 -35q-135 0 -226 77l35 66q87 -66 187 -66t100 62q0 37 -30 52q-57 29 -144 -9l-41 22l121 177h80l-86 -115q92 25 162 -6t71 -110z" />
    <glyph glyph-name="onesuperior" unicode="&#xb9;" horiz-adv-x="409" 
d="M16 1075v94q82 0 124 29t67 94h104v-800h-145v583h-150z" />
    <glyph glyph-name="ordmasculine" unicode="&#xba;" horiz-adv-x="815" 
d="M768 951q0 -161 -102 -263t-258 -102t-257 102t-101 263t100 263q102 102 258 102t258 -102t102 -263zM207 950q0 -114 52 -180q53 -66 149 -66t149 68t53 180t-53 178q-53 68 -149 68t-148 -68t-53 -180z" />
    <glyph glyph-name="guillemotright" unicode="&#xbb;" horiz-adv-x="831" 
d="M737 514v-135l-307 -264v168l191 163l-191 166v166zM401 514v-135l-307 -264v168l191 163l-191 166v166z" />
    <glyph glyph-name="onequarter" unicode="&#xbc;" horiz-adv-x="1452" 
d="M1143 1290l-832 -1290h-139l832 1290h139zM1128 313v355l-282 -355h282zM1272 795v-482h123v-116h-123v-197h-144v197h-407v131l375 467h176zM55 1079v95q82 0 124 28t65 92h104v-798h-143v583h-150z" />
    <glyph glyph-name="onehalf" unicode="&#xbd;" horiz-adv-x="1517" 
d="M1456 123v-123h-596v94l223 187q109 90 154 147t45 127q0 135 -133 135q-70 0 -107 -43t-36 -119q0 -31 10 -71l-144 8q-10 61 -10 74q0 125 80 199t213 73q133 0 206 -70t73 -172t-58 -177t-166 -163l-133 -106h379zM1143 1290l-832 -1290h-139l832 1290h139zM55 1079
v95q82 0 124 28t65 92h104v-798h-143v583h-150z" />
    <glyph glyph-name="threequarters" unicode="&#xbe;" horiz-adv-x="1671" 
d="M1362 1290l-832 -1290h-141l834 1290h139zM516 717q0 57 -42 89t-101 32t-78 -2v110q13 -2 71 -2t97 29t39 88t-36 93t-107 34t-111 -47t-41 -129l-141 4q0 127 80 208q82 81 216 81q134 -1 208 -63t75 -167q0 -72 -44 -121t-105 -59q76 -10 122 -61t46 -141
q0 -89 -81 -151t-221 -62t-225 75q-84 76 -84 209l144 -4q4 -164 172 -164q67 0 107 32t40 89zM1348 313v355l-283 -355h283zM1491 795v-482h123v-116h-123v-197h-143v197h-408v131l375 467h176z" />
    <glyph glyph-name="questiondown" unicode="&#xbf;" horiz-adv-x="999" 
d="M623 1061v-205h-205v205h205zM594 717q0 -88 -35 -156t-143 -150q-23 -17 -30 -23q-6 -6 -26 -24t-28 -26t-24 -26t-23 -29t-17 -31q-26 -49 -26 -137t64 -156t192 -68q126 0 198 79t72 223q0 61 -14 116l176 -8q12 -61 12 -121q0 -198 -123 -316t-333 -118t-319 109
q-110 109 -110 274q0 121 68 208t203 195q56 46 80 86t26 99h160z" />
    <glyph glyph-name="Agrave" unicode="&#xc0;" horiz-adv-x="1306" 
d="M715 1384h-119l-199 258h207zM637 1094l-231 -574h475l-236 574h-8zM551 1290h194l537 -1290h-188l-156 379h-588l-151 -379h-174z" />
    <glyph glyph-name="Aacute" unicode="&#xc1;" horiz-adv-x="1306" 
d="M696 1384h-118l110 258h207zM637 1094l-231 -574h475l-236 574h-8zM551 1290h194l537 -1290h-188l-156 379h-588l-151 -379h-174z" />
    <glyph glyph-name="Acircumflex" unicode="&#xc2;" horiz-adv-x="1306" 
d="M539 1642h196l164 -258h-123l-139 152l-139 -152h-123zM637 1094l-231 -574h475l-236 574h-8zM551 1290h194l537 -1290h-188l-156 379h-588l-151 -379h-174z" />
    <glyph glyph-name="Atilde" unicode="&#xc3;" horiz-adv-x="1306" 
d="M352 1382q0 115 44 181q44 65 114 65t149 -59q78 -59 117 -59t54 27q15 28 20 85h102q0 -114 -43 -180t-115 -66t-149 60q-78 60 -115 59q-69 0 -75 -113h-103zM637 1094l-231 -574h475l-236 574h-8zM551 1290h194l537 -1290h-188l-156 379h-588l-151 -379h-174z" />
    <glyph glyph-name="Adieresis" unicode="&#xc4;" horiz-adv-x="1306" 
d="M696 1395v192h166v-192h-166zM414 1395v192h168v-192h-168zM637 1094l-231 -574h475l-236 574h-8zM551 1290h194l537 -1290h-188l-156 379h-588l-151 -379h-174z" />
    <glyph glyph-name="Aring" unicode="&#xc5;" horiz-adv-x="1306" 
d="M549 1523q1 -40 23 -65q22 -24 65 -24t65 24t23 65q0 41 -24 65q-25 24 -65 24t-64 -24t-23 -65zM457 1523q0 75 50 124t130 49t130 -49t50 -124t-50 -124t-130 -49t-130 49t-50 124zM637 1094l-231 -574h475l-236 574h-8zM551 1290h194l537 -1290h-188l-156 379h-588
l-151 -379h-174z" />
    <glyph glyph-name="AE" unicode="&#xc6;" horiz-adv-x="2004" 
d="M1008 530v625h-9l-426 -625h435zM1909 1290v-147h-729v-406h579v-145h-579v-445h747v-147h-919v389h-531l-264 -389h-188l880 1290h1004z" />
    <glyph glyph-name="Ccedilla" unicode="&#xc7;" horiz-adv-x="1363" 
d="M944 -208q0 -79 -66 -115t-163 -35q-135 0 -226 77l35 66q86 -66 186 -66t101 62q0 37 -30 52q-57 29 -144 -9l-41 22l88 129q-266 7 -442 193t-176 479t181 480t451 187t427 -151q157 -152 175 -407l-172 -8q-10 184 -122 300q-113 116 -310 116q-196 0 -322 -142
q-126 -141 -126 -377t126 -377t322 -141t310 116q113 116 122 300l172 -8q-18 -241 -157 -389t-379 -166l-53 -72q93 25 163 -6t70 -110z" />
    <glyph glyph-name="Egrave" unicode="&#xc8;" horiz-adv-x="1122" 
d="M1044 147v-147h-919v1290h901v-147h-729v-406h580v-145h-580v-445h747zM666 1384h-119l-199 258h207z" />
    <glyph glyph-name="Eacute" unicode="&#xc9;" horiz-adv-x="1122" 
d="M1044 147v-147h-919v1290h901v-147h-729v-406h580v-145h-580v-445h747zM647 1384h-119l111 258h207z" />
    <glyph glyph-name="Ecircumflex" unicode="&#xca;" horiz-adv-x="1122" 
d="M489 1642h197l164 -258h-123l-139 152l-139 -152h-123zM1044 147v-147h-919v1290h901v-147h-729v-406h580v-145h-580v-445h747z" />
    <glyph glyph-name="Edieresis" unicode="&#xcb;" horiz-adv-x="1122" 
d="M1044 147v-147h-919v1290h901v-147h-729v-406h580v-145h-580v-445h747zM647 1395v192h166v-192h-166zM365 1395v192h167v-192h-167z" />
    <glyph glyph-name="Igrave" unicode="&#xcc;" horiz-adv-x="428" 
d="M291 1384h-119l-199 258h207zM125 1290h178v-1290h-178v1290z" />
    <glyph glyph-name="Iacute" unicode="&#xcd;" horiz-adv-x="428" 
d="M272 1384h-118l110 258h207zM125 1290h178v-1290h-178v1290z" />
    <glyph glyph-name="Icircumflex" unicode="&#xce;" horiz-adv-x="428" 
d="M115 1642h196l164 -258h-123l-139 152l-139 -152h-123zM125 1290h178v-1290h-178v1290z" />
    <glyph glyph-name="Idieresis" unicode="&#xcf;" horiz-adv-x="428" 
d="M272 1395v192h166v-192h-166zM-10 1395v192h168v-192h-168zM125 1290h178v-1290h-178v1290z" />
    <glyph glyph-name="Eth" unicode="&#xd0;" horiz-adv-x="1355" 
d="M340 145h278q236 0 362 131t126 369t-126 369t-362 131h-278v-408h350v-145h-350v-447zM16 592v145h146v553h467q305 0 483 -172t178 -473t-178 -473t-483 -172h-467v592h-146z" />
    <glyph glyph-name="Ntilde" unicode="&#xd1;" horiz-adv-x="1306" 
d="M1016 1290h166v-1290h-142l-749 1036v-1036h-166v1290h184l707 -987v987zM371 1382q0 115 44 181q45 65 115 65t148 -59t117 -59t54 27q15 28 19 85h103q0 -114 -43 -180q-42 -66 -114 -66t-150 60t-115 59q-70 0 -76 -113h-102z" />
    <glyph glyph-name="Ograve" unicode="&#xd2;" horiz-adv-x="1411" 
d="M1163 645q0 238 -124 378q-125 140 -333 140t-333 -141t-125 -377t125 -377t334 -141t333 140t123 378zM1348 645q0 -297 -180 -483t-462 -186t-461 186t-179 483t179 483t462 186t462 -186t179 -483zM782 1384h-118l-199 258h207z" />
    <glyph glyph-name="Oacute" unicode="&#xd3;" horiz-adv-x="1411" 
d="M1163 645q0 238 -124 378q-125 140 -333 140t-333 -141t-125 -377t125 -377t334 -141t333 140t123 378zM1348 645q0 -297 -180 -483t-462 -186t-461 186t-179 483t179 483t462 186t462 -186t179 -483zM764 1384h-119l111 258h207z" />
    <glyph glyph-name="Ocircumflex" unicode="&#xd4;" horiz-adv-x="1411" 
d="M608 1642h197l164 -258h-123l-139 152l-140 -152h-123zM1163 645q0 238 -124 378q-125 140 -333 140t-333 -141t-125 -377t125 -377t334 -141t333 140t123 378zM1348 645q0 -297 -180 -483t-462 -186t-461 186t-179 483t179 483t462 186t462 -186t179 -483z" />
    <glyph glyph-name="Otilde" unicode="&#xd5;" horiz-adv-x="1411" 
d="M1163 645q0 238 -124 378q-125 140 -333 140t-333 -141t-125 -377t125 -377t334 -141t333 140t123 378zM1348 645q0 -297 -180 -483t-462 -186t-461 186t-179 483t179 483t462 186t462 -186t179 -483zM406 1382q0 115 44 181q44 65 114 65t148 -59q133 -100 172 -32
q15 28 19 85h103q0 -114 -43 -180t-115 -66t-150 60t-114 59q-70 0 -76 -113h-102z" />
    <glyph glyph-name="Odieresis" unicode="&#xd6;" horiz-adv-x="1411" 
d="M1163 645q0 238 -124 378q-125 140 -333 140t-333 -141t-125 -377t125 -377t334 -141t333 140t123 378zM1348 645q0 -297 -180 -483t-462 -186t-461 186t-179 483t179 483t462 186t462 -186t179 -483zM764 1395v192h166v-192h-166zM481 1395v192h168v-192h-168z" />
    <glyph glyph-name="multiply" unicode="&#xd7;" horiz-adv-x="1083" 
d="M442 631l-329 332l100 100l326 -336l327 336l101 -100l-330 -332l330 -330l-101 -100l-327 334l-326 -334l-100 100z" />
    <glyph glyph-name="Oslash" unicode="&#xd8;" horiz-adv-x="1411" 
d="M707 127q209 0 333 140q124 141 123 363q0 222 -100 361l-629 -780q113 -84 273 -84zM248 656q0 -224 102 -361l629 782q-111 86 -272 86q-209 0 -334 -141q-125 -142 -125 -366zM1348 643q0 -295 -180 -481t-461 -187q-213 0 -373 109l-121 -152l-94 72l125 158
q-178 184 -178 482t179 484t462 187q211 0 372 -113l111 137l94 -71l-115 -142q179 -188 179 -483z" />
    <glyph glyph-name="Ugrave" unicode="&#xd9;" horiz-adv-x="1261" 
d="M631 -25q-236 0 -379 125t-143 394v796h176v-798q0 -367 346 -367q170 0 260 92t90 272v801h174v-796q0 -266 -144 -392t-380 -127zM709 1384h-119l-199 258h207z" />
    <glyph glyph-name="Uacute" unicode="&#xda;" horiz-adv-x="1261" 
d="M631 -25q-236 0 -379 125t-143 394v796h176v-798q0 -367 346 -367q170 0 260 92t90 272v801h174v-796q0 -266 -144 -392t-380 -127zM690 1384h-119l111 258h207z" />
    <glyph glyph-name="Ucircumflex" unicode="&#xdb;" horiz-adv-x="1261" 
d="M532 1642h197l164 -258h-123l-139 152l-139 -152h-123zM631 -25q-236 0 -379 125t-143 394v796h176v-798q0 -367 346 -367q170 0 260 92t90 272v801h174v-796q0 -266 -144 -392t-380 -127z" />
    <glyph glyph-name="Udieresis" unicode="&#xdc;" horiz-adv-x="1261" 
d="M631 -25q-236 0 -379 125t-143 394v796h176v-798q0 -367 346 -367q170 0 260 92t90 272v801h174v-796q0 -266 -144 -392t-380 -127zM690 1395v192h166v-192h-166zM408 1395v192h167v-192h-167z" />
    <glyph glyph-name="Yacute" unicode="&#xdd;" horiz-adv-x="1224" 
d="M672 1384h-119l111 258h206zM698 0h-170v506l-503 784h194l404 -618l389 618h188l-502 -784v-506z" />
    <glyph glyph-name="Thorn" unicode="&#xde;" horiz-adv-x="1122" 
d="M301 264v-264h-176v1290h176v-219h277q238 0 370 -106q132 -107 131 -297q0 -190 -131 -296t-370 -108h-277zM301 410h272q334 0 334 258t-334 258h-272v-516z" />
    <glyph glyph-name="germandbls" unicode="&#xdf;" horiz-adv-x="995" 
d="M864 995q0 -111 -57 -181t-145 -91q128 -23 202 -114t74 -228q0 -185 -110 -287t-271 -102q-59 0 -137 24v131q72 -23 115 -22q106 0 173 68q66 67 66 191t-74 195t-196 68q-49 0 -82 -2v137q25 -4 78 -4q98 0 150 54t52 150q0 94 -52 150t-153 56t-155 -74t-55 -211
v-903h-170v911q0 180 101 292q100 112 276 112q176 -1 273 -87t97 -233z" />
    <glyph glyph-name="agrave" unicode="&#xe0;" horiz-adv-x="1001" 
d="M565 1032h-119l-198 258h207zM838 578v-402q0 -70 69 -70q43 0 78 21v-92q-53 -53 -130 -53t-122 48t-53 128q-37 -80 -126 -131t-208 -51q-118 0 -196 66q-78 68 -78 184t91 181t269 99l242 49v35q0 92 -52 145t-145 53q-180 0 -225 -180l-152 21q27 131 126 211t262 80
q162 0 256 -87t94 -255zM674 399v43l-201 -43q-123 -27 -177 -59t-54 -100q0 -66 40 -103t113 -37q121 0 200 83t79 216z" />
    <glyph glyph-name="aacute" unicode="&#xe1;" horiz-adv-x="1001" 
d="M553 1032h-119l111 258h207zM838 578v-402q0 -70 69 -70q43 0 78 21v-92q-53 -53 -130 -53t-122 48t-53 128q-37 -80 -126 -131t-208 -51q-118 0 -196 66q-78 68 -78 184t91 181t269 99l242 49v35q0 92 -52 145t-145 53q-180 0 -225 -180l-152 21q27 131 126 211t262 80
q162 0 256 -87t94 -255zM674 399v43l-201 -43q-123 -27 -177 -59t-54 -100q0 -66 40 -103t113 -37q121 0 200 83t79 216z" />
    <glyph glyph-name="acircumflex" unicode="&#xe2;" horiz-adv-x="1001" 
d="M391 1290h197l164 -258h-123l-140 152l-139 -152h-123zM838 578v-402q0 -70 69 -70q43 0 78 21v-92q-53 -53 -130 -53t-122 48t-53 128q-37 -80 -126 -131t-208 -51q-118 0 -196 66q-78 68 -78 184t91 181t269 99l242 49v35q0 92 -52 145t-145 53q-180 0 -225 -180
l-152 21q27 131 126 211t262 80q162 0 256 -87t94 -255zM674 399v43l-201 -43q-123 -27 -177 -59t-54 -100q0 -66 40 -103t113 -37q121 0 200 83t79 216z" />
    <glyph glyph-name="atilde" unicode="&#xe3;" horiz-adv-x="1001" 
d="M197 1036q0 114 44 180q45 66 115 66t148 -59q132 -100 171 -32q15 28 19 85h103q0 -114 -43 -180q-42 -66 -114 -66t-150 60t-115 59q-70 0 -76 -113h-102zM838 578v-402q0 -70 69 -70q43 0 78 21v-92q-53 -53 -130 -53t-122 48t-53 128q-37 -80 -126 -131t-208 -51
q-118 0 -196 66q-78 68 -78 184t91 181t269 99l242 49v35q0 92 -52 145t-145 53q-180 0 -225 -180l-152 21q27 131 126 211t262 80q162 0 256 -87t94 -255zM674 399v43l-201 -43q-123 -27 -177 -59t-54 -100q0 -66 40 -103t113 -37q121 0 200 83t79 216z" />
    <glyph glyph-name="adieresis" unicode="&#xe4;" horiz-adv-x="1001" 
d="M549 1081v193h166v-193h-166zM266 1081v193h168v-193h-168zM838 578v-402q0 -70 69 -70q43 0 78 21v-92q-53 -53 -130 -53t-122 48t-53 128q-37 -80 -126 -131t-208 -51q-118 0 -196 66q-78 68 -78 184t91 181t269 99l242 49v35q0 92 -52 145t-145 53q-180 0 -225 -180
l-152 21q27 131 126 211t262 80q162 0 256 -87t94 -255zM674 399v43l-201 -43q-123 -27 -177 -59t-54 -100q0 -66 40 -103t113 -37q121 0 200 83t79 216z" />
    <glyph glyph-name="aring" unicode="&#xe5;" horiz-adv-x="1001" 
d="M489 1343q81 0 131 -49t50 -124q0 -76 -50 -124t-130 -48t-131 48q-50 49 -50 124t50 124t130 49zM489 1260q-41 0 -65 -25t-23 -65q0 -40 23 -64q24 -24 66 -25q42 0 65 25q23 24 23 64t-24 65t-65 25zM838 578v-402q0 -70 69 -70q43 0 78 21v-92q-53 -53 -130 -53
t-122 48t-53 128q-37 -80 -126 -131t-208 -51q-118 0 -196 66q-78 68 -78 184t91 181t269 99l242 49v35q0 92 -52 145t-145 53q-180 0 -225 -180l-152 21q27 131 126 211t262 80q162 0 256 -87t94 -255zM674 399v43l-201 -43q-123 -27 -177 -59t-54 -100q0 -66 40 -103
t113 -37q121 0 200 83t79 216z" />
    <glyph glyph-name="ae" unicode="&#xe6;" horiz-adv-x="1589" 
d="M1105 791q-114 0 -191 -76t-95 -199h537q-6 117 -72 196t-179 79zM399 98q117 0 199 74t82 205v29h-141q-166 0 -232 -41q-65 -41 -65 -115t40 -112q40 -40 117 -40zM473 920q223 0 299 -160q123 160 328 160q204 0 316 -127t112 -320v-67h-713q8 -138 92 -218t203 -79
q221 0 274 210l142 -16q-33 -154 -143 -241t-275 -87q-254 0 -373 207q-45 -88 -136 -147t-227 -59t-218 67q-82 68 -82 184q0 289 460 289h148v59q0 101 -54 157t-149 56q-182 0 -229 -178l-146 21q25 129 125 209q101 80 246 80z" />
    <glyph glyph-name="ccedilla" unicode="&#xe7;" horiz-adv-x="997" 
d="M733 -208q1 -79 -65 -115t-164 -35q-135 0 -225 77l34 66q87 -66 187 -66t100 62q0 37 -30 52q-57 29 -144 -9l-41 22l88 131q-186 13 -300 141t-114 334t128 338q127 130 323 130t306 -111t124 -281l-149 -10q-10 121 -82 193q-72 71 -196 71t-202 -91t-78 -245t78 -244
t202 -91t196 73t82 197l149 -14q-14 -164 -114 -272t-275 -118l-51 -69q92 25 162 -6t71 -110z" />
    <glyph glyph-name="egrave" unicode="&#xe8;" horiz-adv-x="1001" 
d="M592 1032h-119l-199 258h207zM514 791q-118 0 -192 -79q-73 -79 -89 -196h535q-4 117 -70 196t-184 79zM502 -25q-184 0 -314 126q-129 126 -129 335t129 346q129 138 329 138q201 0 313 -127t112 -320v-67h-713q6 -129 89 -213t204 -84q220 -1 275 208l141 -16
q-36 -154 -144 -240t-292 -86z" />
    <glyph glyph-name="eacute" unicode="&#xe9;" horiz-adv-x="1001" 
d="M514 791q-118 0 -192 -79q-73 -79 -89 -196h535q-4 117 -70 196t-184 79zM502 -25q-184 0 -314 126q-129 126 -129 335t129 346q129 138 329 138q201 0 313 -127t112 -320v-67h-713q6 -129 89 -213t204 -84q220 -1 275 208l141 -16q-36 -154 -144 -240t-292 -86z
M565 1032h-119l111 258h207z" />
    <glyph glyph-name="ecircumflex" unicode="&#xea;" horiz-adv-x="1001" 
d="M514 791q-118 0 -192 -79q-73 -79 -89 -196h535q-4 117 -70 196t-184 79zM502 -25q-184 0 -314 126q-129 126 -129 335t129 346q129 138 329 138q201 0 313 -127t112 -320v-67h-713q6 -129 89 -213t204 -84q220 -1 275 208l141 -16q-36 -154 -144 -240t-292 -86z
M416 1290h196l164 -258h-123l-139 152l-139 -152h-123z" />
    <glyph glyph-name="edieresis" unicode="&#xeb;" horiz-adv-x="1001" 
d="M514 791q-118 0 -192 -79q-73 -79 -89 -196h535q-4 117 -70 196t-184 79zM502 -25q-184 0 -314 126q-129 126 -129 335t129 346q129 138 329 138q201 0 313 -127t112 -320v-67h-713q6 -129 89 -213t204 -84q220 -1 275 208l141 -16q-36 -154 -144 -240t-292 -86z
M573 1081v193h166v-193h-166zM291 1081v193h168v-193h-168z" />
    <glyph glyph-name="igrave" unicode="&#xec;" horiz-adv-x="401" 
d="M274 1032h-118l-199 258h207zM117 895h170v-895h-170v895z" />
    <glyph glyph-name="iacute" unicode="&#xed;" horiz-adv-x="401" 
d="M117 895h170v-895h-170v895zM262 1032h-119l111 258h207z" />
    <glyph glyph-name="icircumflex" unicode="&#xee;" horiz-adv-x="401" 
d="M117 895h170v-895h-170v895zM102 1290h197l164 -258h-123l-139 152l-140 -152h-122z" />
    <glyph glyph-name="idieresis" unicode="&#xef;" horiz-adv-x="401" 
d="M117 895h170v-895h-170v895zM258 1081v193h166v-193h-166zM-25 1081v193h168v-193h-168z" />
    <glyph glyph-name="eth" unicode="&#xf0;" 
d="M515 109q132 0 208 89t76 236q0 148 -76 238t-208 90t-208 -90t-76 -238t76 -236q76 -89 208 -89zM516 -25q-201 0 -330 127t-129 332t127 330q128 125 312 125t290 -156q-61 160 -233 314l-260 -97l-41 90l213 78q-78 57 -176 117l112 82q119 -63 215 -141l164 61
l45 -90l-125 -47q266 -260 267 -629q0 -236 -125 -366t-326 -130z" />
    <glyph glyph-name="ntilde" unicode="&#xf1;" horiz-adv-x="1015" 
d="M225 1036q0 114 44 180q45 66 115 66t148 -59t117 -59t54 27q15 28 20 85h102q0 -114 -43 -180q-42 -66 -114 -66t-150 60t-115 59q-69 0 -75 -113h-103zM287 514v-514h-170v895h170v-160q33 82 114 133q82 51 183 52q168 0 248 -100t79 -265v-555h-170v541
q0 115 -54 179q-53 64 -157 64t-174 -74q-69 -75 -69 -196z" />
    <glyph glyph-name="ograve" unicode="&#xf2;" horiz-adv-x="1032" 
d="M590 1032h-119l-199 258h207zM973 446q0 -206 -130 -338t-329 -132t-327 132t-128 340t129 339q129 133 327 133t328 -134t130 -340zM233 446q0 -154 74 -246t207 -94q133 0 209 94t76 248q0 152 -75 245t-209 93t-208 -93t-74 -247z" />
    <glyph glyph-name="oacute" unicode="&#xf3;" horiz-adv-x="1032" 
d="M973 446q0 -206 -130 -338t-329 -132t-327 132t-128 340t129 339q129 133 327 133t328 -134t130 -340zM233 446q0 -154 74 -246t207 -94q133 0 209 94t76 248q0 152 -75 245t-209 93t-208 -93t-74 -247zM578 1032h-119l110 258h207z" />
    <glyph glyph-name="ocircumflex" unicode="&#xf4;" horiz-adv-x="1032" 
d="M973 446q0 -206 -130 -338t-329 -132t-327 132t-128 340t129 339q129 133 327 133t328 -134t130 -340zM233 446q0 -154 74 -246t207 -94q133 0 209 94t76 248q0 152 -75 245t-209 93t-208 -93t-74 -247zM416 1290h196l164 -258h-123l-139 152l-139 -152h-123z" />
    <glyph glyph-name="otilde" unicode="&#xf5;" horiz-adv-x="1032" 
d="M225 1036q0 114 44 180q45 66 115 66t148 -59t117 -59t54 27q15 28 20 85h102q0 -114 -43 -180q-42 -66 -114 -66t-150 60t-115 59q-69 0 -75 -113h-103zM973 446q0 -206 -130 -338t-329 -132t-327 132t-128 340t129 339q129 133 327 133t328 -134t130 -340zM233 446
q0 -154 74 -246t207 -94q133 0 209 94t76 248q0 152 -75 245t-209 93t-208 -93t-74 -247z" />
    <glyph glyph-name="odieresis" unicode="&#xf6;" horiz-adv-x="1032" 
d="M973 446q0 -206 -130 -338t-329 -132t-327 132t-128 340t129 339q129 133 327 133t328 -134t130 -340zM233 446q0 -154 74 -246t207 -94q133 0 209 94t76 248q0 152 -75 245t-209 93t-208 -93t-74 -247zM573 1081v193h166v-193h-166zM291 1081v193h168v-193h-168z" />
    <glyph glyph-name="divide" unicode="&#xf7;" horiz-adv-x="1265" 
d="M528 109v206h213v-206h-213zM528 961v208h213v-208h-213zM111 567v144h1046v-144h-1046z" />
    <glyph glyph-name="oslash" unicode="&#xf8;" horiz-adv-x="1032" 
d="M803 430q0 136 -47 219l-412 -487q72 -55 170 -56q135 0 212 94t77 230zM229 462q0 -138 47 -220l412 487q-70 57 -190 57t-194 -93q-75 -93 -75 -231zM973 439q0 -199 -130 -331t-329 -133q-154 0 -262 78l-102 -121l-80 66l104 123q-115 127 -115 331t129 335
q129 132 326 133q147 0 266 -82l105 123l80 -64l-107 -127q115 -131 115 -331z" />
    <glyph glyph-name="ugrave" unicode="&#xf9;" horiz-adv-x="1005" 
d="M578 1032h-119l-199 258h207zM719 381v514h170v-895h-170v158q-33 -82 -113 -132t-180 -51q-319 0 -320 363v557h170v-541q0 -114 52 -180t155 -66q102 0 169 76q67 74 67 197z" />
    <glyph glyph-name="uacute" unicode="&#xfa;" horiz-adv-x="1005" 
d="M719 381v514h170v-895h-170v158q-33 -82 -113 -132t-180 -51q-319 0 -320 363v557h170v-541q0 -114 52 -180t155 -66q102 0 169 76q67 74 67 197zM565 1032h-119l111 258h207z" />
    <glyph glyph-name="ucircumflex" unicode="&#xfb;" horiz-adv-x="1005" 
d="M719 381v514h170v-895h-170v158q-33 -82 -113 -132t-180 -51q-319 0 -320 363v557h170v-541q0 -114 52 -180t155 -66q102 0 169 76q67 74 67 197zM406 1290h196l164 -258h-123l-139 152l-139 -152h-123z" />
    <glyph glyph-name="udieresis" unicode="&#xfc;" horiz-adv-x="1005" 
d="M719 381v514h170v-895h-170v158q-33 -82 -113 -132t-180 -51q-319 0 -320 363v557h170v-541q0 -114 52 -180t155 -66q102 0 169 76q67 74 67 197zM561 1081v193h166v-193h-166zM279 1081v193h167v-193h-167z" />
    <glyph glyph-name="yacute" unicode="&#xfd;" horiz-adv-x="942" 
d="M532 1032h-118l110 258h207zM412 -344h-166l145 346l-377 893h179l284 -688h8l275 688h168z" />
    <glyph glyph-name="thorn" unicode="&#xfe;" horiz-adv-x="1077" 
d="M287 -344h-170v1634h170v-583q31 90 116 151q86 61 205 62q194 0 302 -134t108 -340t-109 -338t-301 -133q-118 1 -204 61t-117 150v-530zM283 473v-51q0 -143 81 -227q80 -84 208 -84t199 90q71 89 71 245t-71 246t-199 90t-208 -83t-81 -226z" />
    <glyph glyph-name="ydieresis" unicode="&#xff;" horiz-adv-x="942" 
d="M528 1081v193h166v-193h-166zM246 1081v193h168v-193h-168zM412 -344h-166l145 346l-377 893h179l284 -688h8l275 688h168z" />
    <glyph glyph-name="Amacron" unicode="&#x100;" horiz-adv-x="1306" 
d="M373 1399v129h530v-129h-530zM637 1094l-231 -574h475l-236 574h-8zM551 1290h194l537 -1290h-188l-156 379h-588l-151 -379h-174z" />
    <glyph glyph-name="amacron" unicode="&#x101;" horiz-adv-x="1001" 
d="M227 1055v131h527v-131h-527zM838 578v-402q0 -70 69 -70q43 0 78 21v-92q-53 -53 -130 -53t-122 48t-53 128q-37 -80 -126 -131t-208 -51q-118 0 -196 66q-78 68 -78 184t91 181t269 99l242 49v35q0 92 -52 145t-145 53q-180 0 -225 -180l-152 21q27 131 126 211t262 80
q162 0 256 -87t94 -255zM674 399v43l-201 -43q-123 -27 -177 -59t-54 -100q0 -66 40 -103t113 -37q121 0 200 83t79 216z" />
    <glyph glyph-name="Abreve" unicode="&#x102;" horiz-adv-x="1306" 
d="M637 1378q-115 0 -176 67t-62 197h119q0 -143 119 -143t119 143h118q0 -132 -61 -198t-176 -66zM637 1094l-231 -574h475l-236 574h-8zM551 1290h194l537 -1290h-188l-156 379h-588l-151 -379h-174z" />
    <glyph glyph-name="abreve" unicode="&#x103;" horiz-adv-x="1001" 
d="M489 1026q-115 0 -176 67t-61 197h119q1 -143 119 -143t118 143h119q1 -132 -61 -198t-177 -66zM838 578v-402q0 -70 69 -70q43 0 78 21v-92q-53 -53 -130 -53t-122 48t-53 128q-37 -80 -126 -131t-208 -51q-118 0 -196 66q-78 68 -78 184t91 181t269 99l242 49v35
q0 92 -52 145t-145 53q-180 0 -225 -180l-152 21q27 131 126 211t262 80q162 0 256 -87t94 -255zM674 399v43l-201 -43q-123 -27 -177 -59t-54 -100q0 -66 40 -103t113 -37q121 0 200 83t79 216z" />
    <glyph glyph-name="Aogonek" unicode="&#x104;" horiz-adv-x="1306" 
d="M637 1094l-229 -574h473l-236 574h-8zM1096 -190q0 -61 73 -62q43 0 109 33v-94q-70 -45 -147 -45t-119 36t-43 101q0 104 153 221l-28 4l-156 375h-588l-151 -379h-174l526 1290h194l537 -1290q-186 -113 -186 -190z" />
    <glyph glyph-name="aogonek" unicode="&#x105;" horiz-adv-x="1001" 
d="M674 399v43l-201 -43q-123 -27 -177 -61t-54 -98q0 -66 40 -103t113 -37q121 0 200 83t79 216zM838 578v-402q0 -70 69 -70q43 0 78 21v-96q-4 -2 -47 -36t-53 -45t-46 -48t-36 -92q0 -61 74 -62q43 0 108 33v-94q-70 -45 -147 -45q-78 0 -120 36t-42 101q0 111 135 207
q-55 10 -90 56t-41 116q-37 -80 -126 -131t-209 -51t-197 66q-76 68 -76 184t91 181t269 99l242 49v35q0 92 -52 145t-145 53q-180 0 -225 -180l-152 21q27 131 126 211t262 80q162 0 256 -87t94 -255z" />
    <glyph glyph-name="Cacute" unicode="&#x106;" horiz-adv-x="1363" 
d="M774 1384h-119l111 258h207zM66 645q0 295 181 482t451 187t427 -151q157 -152 175 -407l-172 -8q-10 184 -122 300q-113 116 -310 116q-196 0 -322 -142q-126 -141 -126 -377t126 -377t322 -141t310 116q113 116 122 300l172 -8q-18 -256 -175 -408t-427 -152
q-270 -1 -451 187t-181 483z" />
    <glyph glyph-name="cacute" unicode="&#x107;" horiz-adv-x="997" 
d="M59 446q0 214 128 344q127 130 323 130t306 -111t124 -281l-149 -10q-10 121 -82 193q-72 71 -196 71t-202 -91t-78 -245t78 -244t202 -91t196 73t82 197l149 -14q-14 -172 -124 -282t-306 -110t-324 129q-127 129 -127 342zM580 1032h-119l110 258h207z" />
    <glyph glyph-name="Ccircumflex" unicode="&#x108;" horiz-adv-x="1363" 
d="M614 1642h197l164 -258h-123l-139 152l-140 -152h-122zM66 645q0 295 181 482t451 187t427 -151q157 -152 175 -407l-172 -8q-10 184 -122 300q-113 116 -310 116q-196 0 -322 -142q-126 -141 -126 -377t126 -377t322 -141t310 116q113 116 122 300l172 -8
q-18 -256 -175 -408t-427 -152q-270 -1 -451 187t-181 483z" />
    <glyph glyph-name="ccircumflex" unicode="&#x109;" horiz-adv-x="997" 
d="M59 446q0 214 128 344q127 130 323 130t306 -111t124 -281l-149 -10q-10 121 -82 193q-72 71 -196 71t-202 -91t-78 -245t78 -244t202 -91t196 73t82 197l149 -14q-14 -172 -124 -282t-306 -110t-324 129q-127 129 -127 342zM420 1290h196l164 -258h-123l-139 152
l-139 -152h-123z" />
    <glyph glyph-name="Cdotaccent" unicode="&#x10a;" horiz-adv-x="1363" 
d="M66 645q0 295 181 482t451 187t427 -151q157 -152 175 -407l-172 -8q-10 184 -122 300q-113 116 -310 116q-196 0 -322 -142q-126 -141 -126 -377t126 -377t322 -141t310 116q113 116 122 300l172 -8q-18 -256 -175 -408t-427 -152q-270 -1 -451 187t-181 483zM625 1395
v192h178v-192h-178z" />
    <glyph glyph-name="cdotaccent" unicode="&#x10b;" horiz-adv-x="997" 
d="M428 1098v192h178v-192h-178zM59 446q0 214 128 344q127 130 323 130t306 -111t124 -281l-149 -10q-10 121 -82 193q-72 71 -196 71t-202 -91t-78 -245t78 -244t202 -91t196 73t82 197l149 -14q-14 -172 -124 -282t-306 -110t-324 129q-127 129 -127 342z" />
    <glyph glyph-name="Ccaron" unicode="&#x10c;" horiz-adv-x="1363" 
d="M811 1384h-197l-163 258h122l140 -151l139 151h123zM66 645q0 295 181 482t451 187t427 -151q157 -152 175 -407l-172 -8q-10 184 -122 300q-113 116 -310 116q-196 0 -322 -142q-126 -141 -126 -377t126 -377t322 -141t310 116q113 116 122 300l172 -8
q-18 -256 -175 -408t-427 -152q-270 -1 -451 187t-181 483z" />
    <glyph glyph-name="ccaron" unicode="&#x10d;" horiz-adv-x="997" 
d="M59 446q0 214 128 344q127 130 323 130t306 -111t124 -281l-149 -10q-10 121 -82 193q-72 71 -196 71t-202 -91t-78 -245t78 -244t202 -91t196 73t82 197l149 -14q-14 -172 -124 -282t-306 -110t-324 129q-127 129 -127 342zM616 1032h-196l-164 258h123l139 -153
l139 153h123z" />
    <glyph glyph-name="Dcaron" unicode="&#x10e;" horiz-adv-x="1316" 
d="M125 0v1290h467q305 0 483 -172t178 -473t-178 -473t-483 -172h-467zM303 145h279q236 0 362 131t125 369q0 238 -126 369t-361 131h-279v-1000zM709 1384h-197l-164 258h123l139 -151l140 151h122z" />
    <glyph glyph-name="dcaron" unicode="&#x10f;" horiz-adv-x="1075" 
d="M791 0v186q-33 -90 -118 -150t-204 -61q-193 1 -301 133t-109 338q0 206 109 340q109 133 301 134q119 0 204 -62t118 -151v583h170v-1290h-170zM793 422v51q0 143 -80 226t-208 83t-200 -90t-72 -246t72 -246t200 -89q128 0 208 84t80 227zM1141 1020h-97l31 270h189z
" />
    <glyph glyph-name="Dcroat" unicode="&#x110;" horiz-adv-x="1355" 
d="M340 145h278q236 0 362 131t126 369t-126 369t-362 131h-278v-408h350v-145h-350v-447zM16 592v145h146v553h467q305 0 483 -172t178 -473t-178 -473t-483 -172h-467v592h-146z" />
    <glyph glyph-name="dcroat" unicode="&#x111;" horiz-adv-x="1075" 
d="M793 420v51q0 141 -80 224t-208 83t-200 -89t-72 -244t72 -243t200 -89q128 0 208 82t80 225zM791 0v184q-33 -90 -118 -149t-204 -60q-193 1 -301 133t-109 336q0 204 109 335q109 132 301 132q119 0 204 -61t118 -152v312h-295v114h295v166h170v-166h120v-114h-120
v-1010h-170z" />
    <glyph glyph-name="Emacron" unicode="&#x112;" horiz-adv-x="1122" 
d="M1044 147v-147h-919v1290h901v-147h-729v-406h580v-145h-580v-445h747zM324 1399v129h530v-129h-530z" />
    <glyph glyph-name="emacron" unicode="&#x113;" horiz-adv-x="1001" 
d="M252 1055v131h526v-131h-526zM514 791q-118 0 -192 -79q-73 -79 -89 -196h535q-4 117 -70 196t-184 79zM502 -25q-184 0 -314 126q-129 126 -129 335t129 346q129 138 329 138q201 0 313 -127t112 -320v-67h-713q6 -129 89 -213t204 -84q220 -1 275 208l141 -16
q-36 -154 -144 -240t-292 -86z" />
    <glyph glyph-name="Ebreve" unicode="&#x114;" horiz-adv-x="1122" 
d="M1044 147v-147h-919v1290h901v-147h-729v-406h580v-145h-580v-445h747zM588 1378q-115 0 -176 67t-62 197h119q0 -143 119 -143t119 143h118q0 -132 -61 -198t-176 -66z" />
    <glyph glyph-name="ebreve" unicode="&#x115;" horiz-adv-x="1001" 
d="M512 1026q-115 0 -176 67t-62 197h119q0 -143 119 -143t119 143h119q0 -132 -62 -198t-176 -66zM514 791q-118 0 -192 -79q-73 -79 -89 -196h535q-4 117 -70 196t-184 79zM502 -25q-184 0 -314 126q-129 126 -129 335t129 346q129 138 329 138q201 0 313 -127t112 -320
v-67h-713q6 -129 89 -213t204 -84q220 -1 275 208l141 -16q-36 -154 -144 -240t-292 -86z" />
    <glyph glyph-name="Edotaccent" unicode="&#x116;" horiz-adv-x="1122" 
d="M1044 147v-147h-919v1290h901v-147h-729v-406h580v-145h-580v-445h747zM500 1395v192h178v-192h-178z" />
    <glyph glyph-name="edotaccent" unicode="&#x117;" horiz-adv-x="1001" 
d="M426 1098v192h178v-192h-178zM514 791q-118 0 -192 -79q-73 -79 -89 -196h535q-4 117 -70 196t-184 79zM502 -25q-184 0 -314 126q-129 126 -129 335t129 346q129 138 329 138q201 0 313 -127t112 -320v-67h-713q6 -129 89 -213t204 -84q220 -1 275 208l141 -16
q-36 -154 -144 -240t-292 -86z" />
    <glyph glyph-name="Eogonek" unicode="&#x118;" horiz-adv-x="1122" 
d="M1044 147v-147h-114q-76 -68 -107 -109t-30 -81q0 -61 73 -62q43 0 109 33v-94q-70 -45 -147 -45q-78 0 -120 36t-42 101q0 104 153 221h-694v1290h901v-147h-729v-406h580v-145h-580v-445h747z" />
    <glyph glyph-name="eogonek" unicode="&#x119;" horiz-adv-x="1001" 
d="M514 791q-118 0 -192 -79q-73 -79 -89 -196h535q-4 117 -70 196t-184 79zM573 -190q0 -61 76 -62q43 0 109 33v-94q-70 -45 -148 -45t-121 36t-43 101q0 98 132 201q-37 -4 -58 -5q-203 0 -332 126t-129 335t129 346q129 138 329 138q201 0 313 -127t112 -320v-67h-713
q6 -129 89 -213t204 -84q220 -1 275 208l141 -16q-37 -165 -201 -277t-164 -214z" />
    <glyph glyph-name="Ecaron" unicode="&#x11a;" horiz-adv-x="1122" 
d="M1044 147v-147h-919v1290h901v-147h-729v-406h580v-145h-580v-445h747zM686 1384h-197l-163 258h123l139 -151l139 151h123z" />
    <glyph glyph-name="ecaron" unicode="&#x11b;" horiz-adv-x="1001" 
d="M514 791q-118 0 -192 -79q-73 -79 -89 -196h535q-4 117 -70 196t-184 79zM502 -25q-184 0 -314 126q-129 126 -129 335t129 346q129 138 329 138q201 0 313 -127t112 -320v-67h-713q6 -129 89 -213t204 -84q220 -1 275 208l141 -16q-36 -154 -144 -240t-292 -86z
M612 1032h-196l-164 258h123l139 -153l139 153h123z" />
    <glyph glyph-name="Gcircumflex" unicode="&#x11c;" horiz-adv-x="1409" 
d="M618 1642h197l164 -258h-123l-139 152l-139 -152h-123zM694 -25q-276 -1 -452 185t-176 483t180 484t450 187t426 -140q156 -141 172 -392l-170 -10q-10 180 -122 286t-308 105q-196 0 -322 -141q-124 -141 -124 -379t128 -378t322 -140t308 102q113 102 129 271h-394
v139h555v-637h-161v229q-41 -119 -163 -187t-278 -67z" />
    <glyph glyph-name="gcircumflex" unicode="&#x11d;" horiz-adv-x="983" 
d="M401 1290h197l164 -258h-123l-139 152l-140 -152h-122zM682 613q0 93 -54 145t-150 51q-96 0 -149 -51q-55 -50 -55 -144t54 -144t150 -50q95 0 150 50q54 50 54 143zM178 -94q0 -162 281 -162q352 0 352 178q0 111 -172 111h-289q-172 0 -172 -127zM854 614
q0 -137 -105 -220t-274 -83q-115 0 -196 37q-59 -35 -60 -88q0 -78 109 -78h350q141 0 219 -66t78 -174t-76 -180q-138 -132 -440 -131q-193 -1 -318 61t-125 181q0 76 50 124t135 64q-119 39 -119 151t135 171q-117 84 -117 227q0 142 104 226t274 84q169 0 278 -93
q80 123 227 123v-147q-98 0 -172 -37q43 -70 43 -152z" />
    <glyph glyph-name="Gbreve" unicode="&#x11e;" horiz-adv-x="1409" 
d="M694 -25q-276 -1 -452 185t-176 483t180 484t450 187t426 -140q156 -141 172 -392l-170 -10q-10 180 -122 286t-308 105q-196 0 -322 -141q-124 -141 -124 -379t128 -378t322 -140t308 102q113 102 129 271h-394v139h555v-637h-161v229q-41 -119 -163 -187t-278 -67z
M717 1378q-115 0 -176 67t-62 197h119q0 -143 119 -143t119 143h118q0 -132 -61 -198t-176 -66z" />
    <glyph glyph-name="gbreve" unicode="&#x11f;" horiz-adv-x="983" 
d="M500 1026q-115 0 -176 67t-62 197h119q0 -143 119 -143t118 143h119q0 -132 -61 -198t-176 -66zM682 613q0 93 -54 145t-150 51q-96 0 -149 -51q-55 -50 -55 -144t54 -144t150 -50q95 0 150 50q54 50 54 143zM178 -94q0 -162 281 -162q352 0 352 178q0 111 -172 111h-289
q-172 0 -172 -127zM854 614q0 -137 -105 -220t-274 -83q-115 0 -196 37q-59 -35 -60 -88q0 -78 109 -78h350q141 0 219 -66t78 -174t-76 -180q-138 -132 -440 -131q-193 -1 -318 61t-125 181q0 76 50 124t135 64q-119 39 -119 151t135 171q-117 84 -117 227q0 142 104 226
t274 84q169 0 278 -93q80 123 227 123v-147q-98 0 -172 -37q43 -70 43 -152z" />
    <glyph glyph-name="Gdotaccent" unicode="&#x120;" horiz-adv-x="1409" 
d="M694 -25q-276 -1 -452 185t-176 483t180 484t450 187t426 -140q156 -141 172 -392l-170 -10q-10 180 -122 286t-308 105q-196 0 -322 -141q-124 -141 -124 -379t128 -378t322 -140t308 102q113 102 129 271h-394v139h555v-637h-161v229q-41 -119 -163 -187t-278 -67z
M629 1395v192h178v-192h-178z" />
    <glyph glyph-name="gdotaccent" unicode="&#x121;" horiz-adv-x="983" 
d="M412 1098v192h178v-192h-178zM682 613q0 93 -54 145t-150 51q-96 0 -149 -51q-55 -50 -55 -144t54 -144t150 -50q95 0 150 50q54 50 54 143zM178 -94q0 -162 281 -162q352 0 352 178q0 111 -172 111h-289q-172 0 -172 -127zM854 614q0 -137 -105 -220t-274 -83
q-115 0 -196 37q-59 -35 -60 -88q0 -78 109 -78h350q141 0 219 -66t78 -174t-76 -180q-138 -132 -440 -131q-193 -1 -318 61t-125 181q0 76 50 124t135 64q-119 39 -119 151t135 171q-117 84 -117 227q0 142 104 226t274 84q169 0 278 -93q80 123 227 123v-147
q-98 0 -172 -37q43 -70 43 -152z" />
    <glyph glyph-name="Gcommaaccent" unicode="&#x122;" horiz-adv-x="1409" 
d="M694 -25q-276 -1 -452 185t-176 483t180 484t450 187t426 -140q156 -141 172 -392l-170 -10q-10 180 -122 286t-308 105q-196 0 -322 -141q-124 -141 -124 -379t128 -378t322 -140t308 102q113 102 129 271h-394v139h555v-637h-161v229q-41 -119 -163 -187t-278 -67z
M627 -246v142h184v-111q0 -180 -184 -180v71q43 0 60 18t20 60h-80z" />
    <glyph glyph-name="gcommaaccent" unicode="&#x123;" horiz-adv-x="983" 
d="M592 1206v-141h-184v111q0 180 184 180v-72q-42 0 -60 -17t-20 -61h80zM682 613q0 93 -54 145t-150 51q-96 0 -149 -51q-55 -50 -55 -144t54 -144t150 -50q95 0 150 50q54 50 54 143zM178 -94q0 -162 281 -162q352 0 352 178q0 111 -172 111h-289q-172 0 -172 -127z
M854 614q0 -137 -105 -220t-274 -83q-115 0 -196 37q-59 -35 -60 -88q0 -78 109 -78h350q141 0 219 -66t78 -174t-76 -180q-138 -132 -440 -131q-193 -1 -318 61t-125 181q0 76 50 124t135 64q-119 39 -119 151t135 171q-117 84 -117 227q0 142 104 226t274 84
q169 0 278 -93q80 123 227 123v-147q-98 0 -172 -37q43 -70 43 -152z" />
    <glyph glyph-name="Hcircumflex" unicode="&#x124;" horiz-adv-x="1347" 
d="M575 1642h197l164 -258h-123l-139 152l-139 -152h-123zM303 0h-178v1290h178v-553h741v553h179v-1290h-179v592h-741v-592z" />
    <glyph glyph-name="hcircumflex" unicode="&#x125;" horiz-adv-x="1015" 
d="M414 1642h196l164 -258h-123l-139 152l-139 -152h-123zM287 514v-514h-170v1290h170v-555q33 82 114 133q82 51 183 52q168 0 248 -100t79 -265v-555h-170v541q0 115 -54 179q-53 64 -157 64t-174 -74q-69 -75 -69 -196z" />
    <glyph glyph-name="Hbar" unicode="&#x126;" horiz-adv-x="1423" 
d="M340 684h743v211h-743v-211zM16 895v145h148v250h176v-250h743v250h177v-250h147v-145h-147v-895h-177v537h-743v-537h-176v895h-148z" />
    <glyph glyph-name="hbar" unicode="&#x127;" horiz-adv-x="1015" 
d="M-4 1010v114h121v166h170v-166h293v-114h-293v-281q33 80 114 131q82 51 183 51q168 0 248 -98t79 -264v-549h-170v532q0 115 -54 180q-55 64 -159 64t-173 -74t-68 -196v-506h-170v1010h-121z" />
    <glyph glyph-name="Itilde" unicode="&#x128;" horiz-adv-x="428" 
d="M125 1290h178v-1290h-178v1290zM-59 1380q0 115 40 182t117 66q53 0 125 -60t106 -60t45 26q11 27 15 88h103q0 -116 -40 -182t-106 -66t-137 60q-72 60 -107 59q-35 0 -46 -26t-13 -87h-102z" />
    <glyph glyph-name="itilde" unicode="&#x129;" horiz-adv-x="401" 
d="M117 895h170v-895h-170v895zM-63 1049q0 248 151 247q53 0 120 -59q68 -59 100 -59t43 26t16 86h98q0 -116 -39 -182q-38 -66 -102 -66t-130 60t-99 61q-34 1 -45 -25t-15 -89h-98z" />
    <glyph glyph-name="Imacron" unicode="&#x12a;" horiz-adv-x="428" 
d="M-33 1399v129h494v-129h-494zM125 1290h178v-1290h-178v1290z" />
    <glyph glyph-name="imacron" unicode="&#x12b;" horiz-adv-x="401" 
d="M-20 1055v131h442v-131h-442zM117 895h170v-895h-170v895z" />
    <glyph glyph-name="Ibreve" unicode="&#x12c;" horiz-adv-x="428" 
d="M213 1378q-115 0 -176 67t-62 197h119q0 -143 119 -143t119 143h119q1 -132 -61 -198t-177 -66zM125 1290h178v-1290h-178v1290z" />
    <glyph glyph-name="ibreve" unicode="&#x12d;" horiz-adv-x="401" 
d="M201 1026q-115 0 -176 67t-62 197h119q0 -143 119 -143t118 143h119q0 -132 -61 -198t-176 -66zM117 895h170v-895h-170v895z" />
    <glyph glyph-name="Iogonek" unicode="&#x12e;" horiz-adv-x="428" 
d="M125 1290h178v-1290q-104 -63 -143 -105t-39 -85q0 -61 76 -62q45 0 106 33v-94q-71 -45 -147 -45t-119 36t-43 101q0 104 156 221l-25 4v1286z" />
    <glyph glyph-name="iogonek" unicode="&#x12f;" horiz-adv-x="401" 
d="M113 1098v192h176v-192h-176zM117 895h170v-895q-99 -63 -139 -105t-39 -85q0 -61 73 -62q43 0 109 33v-94q-70 -45 -147 -45q-78 0 -120 36t-42 101q0 104 153 221l-18 4v891z" />
    <glyph glyph-name="Idotaccent" unicode="&#x130;" horiz-adv-x="428" 
d="M125 1395v192h178v-192h-178zM125 1290h178v-1290h-178v1290z" />
    <glyph glyph-name="dotlessi" unicode="&#x131;" horiz-adv-x="401" 
d="M117 895h170v-895h-170v895z" />
    <glyph glyph-name="IJ" unicode="&#x132;" horiz-adv-x="1468" 
d="M1186 1290h176v-850q0 -227 -120 -346t-329 -119t-333 121t-131 348l167 11q10 -160 86 -247t213 -87q270 0 271 323v846zM125 1290h178v-1290h-178v1290z" />
    <glyph glyph-name="ij" unicode="&#x133;" horiz-adv-x="802" 
d="M514 1098v192h176v-192h-176zM688 895v-1018q0 -246 -239 -246q-115 0 -199 66l41 108q70 -45 139 -45q88 0 88 105v1030h170zM113 1098v192h176v-192h-176zM117 895h170v-895h-170v895z" />
    <glyph glyph-name="Jcircumflex" unicode="&#x134;" horiz-adv-x="1044" 
d="M754 1642h196l164 -258h-123l-139 152l-139 -152h-123zM762 1290h176v-850q0 -227 -120 -346t-329 -119t-333 121t-131 348l168 11q10 -160 86 -247t213 -87q270 0 270 323v846z" />
    <glyph glyph-name="jcircumflex" unicode="&#x135;" horiz-adv-x="401" 
d="M100 1290h197l164 -258h-123l-139 152l-140 -152h-122zM287 895v-1018q0 -246 -240 -246q-115 0 -199 66l41 108q70 -45 140 -45q88 0 88 105v1030h170z" />
    <glyph glyph-name="Kcommaaccent" unicode="&#x136;" horiz-adv-x="1196" 
d="M303 0h-178v1290h178v-637l625 637h211l-555 -567l616 -723h-215l-532 612l-150 -151v-461zM516 -246v142h184v-111q0 -180 -184 -180v71q42 0 60 18t20 60h-80z" />
    <glyph glyph-name="kcommaaccent" unicode="&#x137;" horiz-adv-x="980" 
d="M287 0h-170v1290h170v-801l450 406h213l-411 -367l430 -528h-201l-356 434l-125 -110v-324zM414 -246v142h184v-111q0 -180 -184 -180v71q43 0 60 18t20 60h-80z" />
    <glyph glyph-name="kgreenlandic" unicode="&#x138;" horiz-adv-x="980" 
d="M287 0h-170v895h170v-406l450 406h213l-411 -367l430 -528h-201l-356 434l-125 -110v-324z" />
    <glyph glyph-name="Lacute" unicode="&#x139;" horiz-adv-x="1073" 
d="M125 1290h178v-1143h719v-147h-897v1290zM276 1384h-118l110 258h207z" />
    <glyph glyph-name="lacute" unicode="&#x13a;" horiz-adv-x="401" 
d="M117 1290h170v-1290h-170v1290zM258 1384h-119l111 258h207z" />
    <glyph glyph-name="Lcommaaccent" unicode="&#x13b;" horiz-adv-x="1073" 
d="M125 1290h178v-1143h719v-147h-897v1290zM481 -246v142h185v-111q0 -180 -185 -180v71q43 0 61 18t19 60h-80z" />
    <glyph glyph-name="lcommaaccent" unicode="&#x13c;" horiz-adv-x="401" 
d="M117 1290h170v-1290h-170v1290zM109 -246v142h184v-111q0 -180 -184 -180v71q43 0 60 18t19 60h-79z" />
    <glyph glyph-name="Lcaron" unicode="&#x13d;" horiz-adv-x="1073" 
d="M125 1290h178v-1143h719v-147h-897v1290zM664 1020h-97l31 270h188z" />
    <glyph glyph-name="lcaron" unicode="&#x13e;" horiz-adv-x="401" 
d="M117 1290h170v-1290h-170v1290zM461 1020h-96l30 270h189z" />
    <glyph glyph-name="Ldot" unicode="&#x13f;" horiz-adv-x="1073" 
d="M725 586v192h178v-192h-178zM125 1290h178v-1143h719v-147h-897v1290z" />
    <glyph glyph-name="ldot" unicode="&#x140;" horiz-adv-x="630" 
d="M420 551v192h178v-192h-178zM117 1290h170v-1290h-170v1290z" />
    <glyph glyph-name="Lslash" unicode="&#x141;" horiz-adv-x="1081" 
d="M154 1290h178v-602l373 168v-147l-373 -168v-394h719v-147h-897v469l-148 -66v150l148 65v672z" />
    <glyph glyph-name="lslash" unicode="&#x142;" horiz-adv-x="483" 
d="M158 1290h170v-473l137 82v-139l-137 -84v-676h-170v592l-140 -84v139l140 84v559z" />
    <glyph glyph-name="Nacute" unicode="&#x143;" horiz-adv-x="1306" 
d="M1016 1290h166v-1290h-142l-749 1036v-1036h-166v1290h184l707 -987v987zM729 1384h-119l111 258h207z" />
    <glyph glyph-name="nacute" unicode="&#x144;" horiz-adv-x="1015" 
d="M287 514v-514h-170v895h170v-160q33 82 114 133q82 51 183 52q168 0 248 -100t79 -265v-555h-170v541q0 115 -54 179q-53 64 -157 64t-174 -74q-69 -75 -69 -196zM578 1032h-119l110 258h207z" />
    <glyph glyph-name="Ncommaaccent" unicode="&#x145;" horiz-adv-x="1306" 
d="M1016 1290h166v-1290h-142l-749 1036v-1036h-166v1290h184l707 -987v987zM578 -246v142h184v-111q0 -180 -184 -180v71q43 0 60 18t19 60h-79z" />
    <glyph glyph-name="ncommaaccent" unicode="&#x146;" horiz-adv-x="1015" 
d="M287 514v-514h-170v895h170v-160q33 82 114 133q82 51 183 52q168 0 248 -100t79 -265v-555h-170v541q0 115 -54 179q-53 64 -157 64t-174 -74q-69 -75 -69 -196zM440 -246v142h185v-111q0 -180 -185 -180v71q42 0 60 18t20 60h-80z" />
    <glyph glyph-name="Ncaron" unicode="&#x147;" horiz-adv-x="1306" 
d="M1016 1290h166v-1290h-142l-749 1036v-1036h-166v1290h184l707 -987v987zM768 1384h-197l-163 258h122l140 -151l139 151h123z" />
    <glyph glyph-name="ncaron" unicode="&#x148;" horiz-adv-x="1015" 
d="M287 514v-514h-170v895h170v-160q33 82 114 133q82 51 183 52q168 0 248 -100t79 -265v-555h-170v541q0 115 -54 179q-53 64 -157 64t-174 -74q-69 -75 -69 -196zM618 1032h-196l-164 258h123l139 -153l139 153h123z" />
    <glyph glyph-name="Eng" unicode="&#x14a;" horiz-adv-x="1306" 
d="M291 0h-166v1290h184l707 -1003v1003h166v-1310q0 -348 -314 -349q-106 0 -187 44t-124 118l98 96q82 -115 203 -114q90 0 124 54t34 189l-725 1018v-1036z" />
    <glyph glyph-name="eng" unicode="&#x14b;" horiz-adv-x="1015" 
d="M741 -135v676q0 115 -54 179q-53 64 -157 64t-174 -74t-69 -196v-514h-170v895h170v-160q33 82 114 133q82 51 183 52q168 0 248 -100t79 -265v-678q0 -246 -239 -246q-115 0 -199 66l41 108q70 -45 139 -45q88 1 88 105z" />
    <glyph glyph-name="Omacron" unicode="&#x14c;" horiz-adv-x="1411" 
d="M1163 645q0 238 -124 378q-125 140 -333 140t-333 -141t-125 -377t125 -377t334 -141t333 140t123 378zM1348 645q0 -297 -180 -483t-462 -186t-461 186t-179 483t179 483t462 186t462 -186t179 -483zM442 1399v129h531v-129h-531z" />
    <glyph glyph-name="omacron" unicode="&#x14d;" horiz-adv-x="1032" 
d="M973 446q0 -206 -130 -338t-329 -132t-327 132t-128 340t129 339q129 133 327 133t328 -134t130 -340zM233 446q0 -154 74 -246t207 -94q133 0 209 94t76 248q0 152 -75 245t-209 93t-208 -93t-74 -247zM252 1055v131h526v-131h-526z" />
    <glyph glyph-name="Obreve" unicode="&#x14e;" horiz-adv-x="1411" 
d="M1163 645q0 238 -124 378q-125 140 -333 140t-333 -141t-125 -377t125 -377t334 -141t333 140t123 378zM1348 645q0 -297 -180 -483t-462 -186t-461 186t-179 483t179 483t462 186t462 -186t179 -483zM707 1378q-115 0 -177 67q-61 67 -61 197h119q0 -143 119 -143
t118 143h119q0 -132 -61 -198t-176 -66z" />
    <glyph glyph-name="obreve" unicode="&#x14f;" horiz-adv-x="1032" 
d="M514 1026q-115 0 -176 67t-62 197h119q0 -143 119 -143t119 143h119q0 -132 -62 -198t-176 -66zM973 446q0 -206 -130 -338t-329 -132t-327 132t-128 340t129 339q129 133 327 133t328 -134t130 -340zM233 446q0 -154 74 -246t207 -94q133 0 209 94t76 248q0 152 -75 245
t-209 93t-208 -93t-74 -247z" />
    <glyph glyph-name="Ohungarumlaut" unicode="&#x150;" horiz-adv-x="1411" 
d="M901 1384h-106l104 258h195zM631 1384h-107l105 258h194zM1163 645q0 238 -124 378q-125 140 -333 140t-333 -141t-125 -377t125 -377t334 -141t333 140t123 378zM1348 645q0 -297 -180 -483t-462 -186t-461 186t-179 483t179 483t462 186t462 -186t179 -483z" />
    <glyph glyph-name="ohungarumlaut" unicode="&#x151;" horiz-adv-x="1032" 
d="M973 446q0 -206 -130 -338t-329 -132t-327 132t-128 340t129 339q129 133 327 133t328 -134t130 -340zM233 446q0 -154 74 -246t207 -94q133 0 209 94t76 248q0 152 -75 245t-209 93t-208 -93t-74 -247zM700 1032h-106l104 258h195zM430 1032h-106l104 258h195z" />
    <glyph glyph-name="OE" unicode="&#x152;" horiz-adv-x="1947" 
d="M950 1145h-215q-235 0 -361 -131t-126 -369t126 -369t361 -131h215v1000zM1870 147v-147h-1145q-305 0 -482 172t-177 473t177 473t482 172h1126v-147h-729v-406h580v-145h-580v-445h748z" />
    <glyph glyph-name="oe" unicode="&#x153;" horiz-adv-x="1728" 
d="M1240 791q-118 0 -190 -79t-89 -196h534q-4 117 -70 196q-67 79 -185 79zM233 446q0 -154 74 -246t207 -94q133 0 209 94t76 248q0 152 -75 245t-209 93t-208 -93t-74 -247zM1247 -25q-246 0 -370 185q-133 -184 -347 -184t-343 132q-128 132 -128 340t129 339
q129 132 326 133q236 0 369 -191q127 191 344 191t329 -127t113 -320v-67h-713q6 -129 90 -213t203 -84q219 0 275 208l141 -16q-35 -154 -143 -240t-275 -86z" />
    <glyph glyph-name="Racute" unicode="&#x154;" horiz-adv-x="1226" 
d="M672 1384h-119l111 258h206zM299 662h340q317 0 317 241q0 115 -78 178q-79 63 -239 64h-340v-483zM299 520v-520h-174v1290h524q240 0 363 -101t123 -280q0 -141 -83 -224t-210 -97q227 -45 245 -279q15 -160 25 -218t41 -91h-184q-39 53 -54 281q-14 240 -251 239h-365
z" />
    <glyph glyph-name="racute" unicode="&#x155;" horiz-adv-x="677" 
d="M498 762q-84 0 -148 -81t-63 -208v-473h-170v895h170v-182q27 84 95 145q69 62 154 62t132 -41l-17 -154q-69 37 -153 37zM446 1032h-118l110 258h207z" />
    <glyph glyph-name="Rcommaaccent" unicode="&#x156;" horiz-adv-x="1226" 
d="M299 662h340q317 0 317 241q0 115 -78 178q-79 63 -239 64h-340v-483zM299 520v-520h-174v1290h524q240 0 363 -101t123 -280q0 -141 -83 -224t-210 -97q227 -45 245 -279q15 -160 25 -218t41 -91h-184q-39 53 -54 281q-14 240 -251 239h-365zM522 -246v142h185v-111
q0 -180 -185 -180v71q42 0 60 18t20 60h-80z" />
    <glyph glyph-name="rcommaaccent" unicode="&#x157;" horiz-adv-x="677" 
d="M498 762q-84 0 -148 -81t-63 -208v-473h-170v895h170v-182q27 84 95 145q69 62 154 62t132 -41l-17 -154q-69 37 -153 37zM109 -246v142h184v-111q0 -180 -184 -180v71q43 0 60 18t19 60h-79z" />
    <glyph glyph-name="Rcaron" unicode="&#x158;" horiz-adv-x="1226" 
d="M299 662h340q317 0 317 241q0 115 -78 178q-79 63 -239 64h-340v-483zM299 520v-520h-174v1290h524q240 0 363 -101t123 -280q0 -141 -83 -224t-210 -97q227 -45 245 -279q15 -160 25 -218t41 -91h-184q-39 53 -54 281q-14 240 -251 239h-365zM713 1384h-197l-164 258
h123l139 -151l140 151h123z" />
    <glyph glyph-name="rcaron" unicode="&#x159;" horiz-adv-x="677" 
d="M498 762q-84 0 -148 -81t-63 -208v-473h-170v895h170v-182q27 84 95 145q69 62 154 62t132 -41l-17 -154q-69 37 -153 37zM483 1032h-196l-164 258h123l139 -153l139 153h123z" />
    <glyph glyph-name="Sacute" unicode="&#x15a;" horiz-adv-x="1148" 
d="M631 1384h-119l111 258h206zM582 115q157 0 241 59q84 60 84 156t-58 144t-187 73l-256 49q-322 61 -322 340q0 170 125 274t351 104t361 -121q134 -122 136 -341l-162 -8q-4 160 -96 247q-91 87 -241 87t-226 -62t-76 -160q0 -100 55 -142t178 -64l234 -45
q180 -35 267 -119t87 -247t-135 -263q-136 -100 -364 -100t-380 128q-152 130 -153 357l160 10q8 -172 114 -264t263 -92z" />
    <glyph glyph-name="sacute" unicode="&#x15b;" horiz-adv-x="886" 
d="M78 645q0 123 94 199t261 76t268 -81t114 -237l-137 -8q-31 201 -256 201q-84 0 -135 -36t-51 -97q0 -100 137 -125l168 -27q143 -25 215 -84t72 -182t-103 -196q-102 -73 -270 -73t-280 83t-124 243l144 10q13 -102 81 -156q68 -55 172 -55t162 34t58 96t-40 92t-130 45
l-152 26q-268 43 -268 252zM498 1032h-119l110 258h207z" />
    <glyph glyph-name="Scircumflex" unicode="&#x15c;" horiz-adv-x="1148" 
d="M475 1642h197l164 -258h-123l-140 152l-139 -152h-123zM582 115q157 0 241 59q84 60 84 156t-58 144t-187 73l-256 49q-322 61 -322 340q0 170 125 274t351 104t361 -121q134 -122 136 -341l-162 -8q-4 160 -96 247q-91 87 -241 87t-226 -62t-76 -160q0 -100 55 -142
t178 -64l234 -45q180 -35 267 -119t87 -247t-135 -263q-136 -100 -364 -100t-380 128q-152 130 -153 357l160 10q8 -172 114 -264t263 -92z" />
    <glyph glyph-name="scircumflex" unicode="&#x15d;" horiz-adv-x="886" 
d="M78 645q0 123 94 199t261 76t268 -81t114 -237l-137 -8q-31 201 -256 201q-84 0 -135 -36t-51 -97q0 -100 137 -125l168 -27q143 -25 215 -84t72 -182t-103 -196q-102 -73 -270 -73t-280 83t-124 243l144 10q13 -102 81 -156q68 -55 172 -55t162 34t58 96t-40 92t-130 45
l-152 26q-268 43 -268 252zM352 1290h197l164 -258h-123l-139 152l-140 -152h-123z" />
    <glyph glyph-name="Scedilla" unicode="&#x15e;" horiz-adv-x="1148" 
d="M801 -208q0 -79 -66 -115t-164 -35q-135 0 -225 77l35 66q86 -66 186 -66t101 62q0 37 -30 52q-58 29 -144 -9l-41 22l88 131q-223 13 -359 141t-137 343l160 10q8 -172 114 -264t263 -92t241 59q84 60 84 156t-58 144t-187 73l-256 49q-322 61 -322 340q0 170 125 274
t351 104t361 -121q134 -122 136 -341l-162 -8q-4 160 -96 247q-91 87 -241 87t-226 -62t-76 -160q0 -100 55 -142t178 -64l234 -45q180 -35 267 -119t87 -245t-127 -260t-332 -106l-51 -67q92 25 163 -6t71 -110z" />
    <glyph glyph-name="scedilla" unicode="&#x15f;" horiz-adv-x="886" 
d="M680 -208q0 -79 -66 -115t-163 -35q-135 0 -226 77l35 66q86 -66 186 -66t101 62q0 37 -30 52q-57 29 -144 -9l-41 22l88 131q-160 9 -259 91t-110 233l144 10q13 -102 81 -156q68 -55 172 -55t162 34t58 96t-40 92t-130 45l-152 26q-268 43 -268 252q0 123 94 199
t261 76t268 -81t114 -237l-137 -8q-31 201 -256 201q-84 0 -135 -36t-51 -97q0 -100 137 -125l168 -27q143 -25 215 -84t72 -179t-92 -191q-91 -71 -238 -79l-52 -69q92 25 163 -6t71 -110z" />
    <glyph glyph-name="Scaron" unicode="&#x160;" horiz-adv-x="1148" 
d="M672 1384h-197l-164 258h123l139 -151l140 151h123zM582 115q157 0 241 59q84 60 84 156t-58 144t-187 73l-256 49q-322 61 -322 340q0 170 125 274t351 104t361 -121q134 -122 136 -341l-162 -8q-4 160 -96 247q-91 87 -241 87t-226 -62t-76 -160q0 -100 55 -142
t178 -64l234 -45q180 -35 267 -119t87 -247t-135 -263q-136 -100 -364 -100t-380 128q-152 130 -153 357l160 10q8 -172 114 -264t263 -92z" />
    <glyph glyph-name="scaron" unicode="&#x161;" horiz-adv-x="886" 
d="M78 645q0 123 94 199t261 76t268 -81t114 -237l-137 -8q-31 201 -256 201q-84 0 -135 -36t-51 -97q0 -100 137 -125l168 -27q143 -25 215 -84t72 -182t-103 -196q-102 -73 -270 -73t-280 83t-124 243l144 10q13 -102 81 -156q68 -55 172 -55t162 34t58 96t-40 92t-130 45
l-152 26q-268 43 -268 252zM543 1032h-197l-164 258h123l139 -153l140 153h123z" />
    <glyph glyph-name="Tcedilla" unicode="&#x162;" horiz-adv-x="1208" 
d="M688 0h-176v1143h-469v147h1122v-147h-477v-1143zM512 -246v142h184v-111q0 -180 -184 -180v71q43 0 60 18t20 60h-80z" />
    <glyph glyph-name="tcedilla" unicode="&#x163;" horiz-adv-x="626" 
d="M147 209v563h-135v92l58 10q59 12 83 44t40 100l26 125h96v-248h252v-123h-252v-543q0 -117 111 -116q74 0 168 53v-115q-100 -76 -229 -76q-218 1 -218 234zM279 -246v142h184v-111q0 -180 -184 -180v71q43 0 60 18t19 60h-79z" />
    <glyph glyph-name="Tcaron" unicode="&#x164;" horiz-adv-x="1208" 
d="M688 0h-176v1143h-469v147h1122v-147h-477v-1143zM702 1384h-196l-164 258h123l139 -151l139 151h123z" />
    <glyph glyph-name="tcaron" unicode="&#x165;" horiz-adv-x="626" 
d="M147 209v563h-135v92l58 10q59 12 83 44t40 100l26 125h96v-248h252v-123h-252v-543q0 -117 111 -116q74 0 168 53v-115q-100 -76 -229 -76q-218 1 -218 234zM543 1020h-97l31 270h189z" />
    <glyph glyph-name="Tbar" unicode="&#x166;" horiz-adv-x="1208" 
d="M233 586v143h279v414h-469v147h1122v-147h-477v-414h281v-143h-281v-586h-176v586h-279z" />
    <glyph glyph-name="tbar" unicode="&#x167;" horiz-adv-x="653" 
d="M31 434v115h135v223h-135v92l57 10q59 12 83 44t40 100l27 125h96v-248h252v-123h-252v-223h235v-115h-235v-205q0 -117 110 -116q74 0 168 53v-115q-100 -76 -229 -76q-217 0 -217 234v225h-135z" />
    <glyph glyph-name="Utilde" unicode="&#x168;" horiz-adv-x="1261" 
d="M631 -25q-236 0 -379 125t-143 394v796h176v-798q0 -367 346 -367q170 0 260 92t90 272v801h174v-796q0 -266 -144 -392t-380 -127zM332 1382q0 115 44 181q44 65 114 65t149 -59q78 -59 117 -59t54 27q15 28 19 85h103q0 -114 -43 -180t-115 -66t-149 60q-78 60 -115 59
q-70 0 -76 -113h-102z" />
    <glyph glyph-name="utilde" unicode="&#x169;" horiz-adv-x="1005" 
d="M205 1036q0 114 44 180q45 66 115 66t148 -59t117 -59t54 27q15 28 19 85h103q0 -114 -43 -180q-42 -66 -114 -66t-150 60t-115 59q-70 0 -76 -113h-102zM719 381v514h170v-895h-170v158q-33 -82 -113 -132t-180 -51q-319 0 -320 363v557h170v-541q0 -114 52 -180
t155 -66q102 0 169 76q67 74 67 197z" />
    <glyph glyph-name="Umacron" unicode="&#x16a;" horiz-adv-x="1261" 
d="M631 -25q-236 0 -379 125t-143 394v796h176v-798q0 -367 346 -367q170 0 260 92t90 272v801h174v-796q0 -266 -144 -392t-380 -127zM367 1399v129h530v-129h-530z" />
    <glyph glyph-name="umacron" unicode="&#x16b;" horiz-adv-x="1005" 
d="M242 1055v131h526v-131h-526zM719 381v514h170v-895h-170v158q-33 -82 -113 -132t-180 -51q-319 0 -320 363v557h170v-541q0 -114 52 -180t155 -66q102 0 169 76q67 74 67 197z" />
    <glyph glyph-name="Ubreve" unicode="&#x16c;" horiz-adv-x="1261" 
d="M631 -25q-236 0 -379 125t-143 394v796h176v-798q0 -367 346 -367q170 0 260 92t90 272v801h174v-796q0 -266 -144 -392t-380 -127zM631 1378q-115 0 -176 67t-62 197h119q0 -143 119 -143t119 143h118q0 -132 -61 -198t-176 -66z" />
    <glyph glyph-name="ubreve" unicode="&#x16d;" horiz-adv-x="1005" 
d="M504 1026q-115 0 -176 67t-62 197h119q0 -143 119 -143t119 143h118q0 -132 -61 -198t-176 -66zM719 381v514h170v-895h-170v158q-33 -82 -113 -132t-180 -51q-319 0 -320 363v557h170v-541q0 -114 52 -180t155 -66q102 0 169 76q67 74 67 197z" />
    <glyph glyph-name="Uring" unicode="&#x16e;" horiz-adv-x="1261" 
d="M451 1523q0 75 50 124t130 49t130 -49t50 -124t-50 -124t-130 -49t-130 49t-50 124zM543 1523q1 -40 23 -65q22 -24 65 -24t65 24t23 65q0 41 -24 65q-25 24 -65 24t-64 -24t-23 -65zM631 -25q-236 0 -379 125t-143 394v796h176v-798q0 -367 346 -367q170 0 260 92
t90 272v801h174v-796q0 -266 -144 -392t-380 -127z" />
    <glyph glyph-name="uring" unicode="&#x16f;" horiz-adv-x="1005" 
d="M719 381v514h170v-895h-170v158q-33 -82 -113 -132t-180 -51q-319 0 -320 363v557h170v-541q0 -114 52 -180t155 -66q102 0 169 76q67 74 67 197zM684 1170q0 -76 -50 -124t-130 -48t-130 48q-50 49 -50 124t50 124t130 49t130 -49t50 -124zM504 1260q-40 0 -64 -25
t-24 -65t22 -64t66 -25q44 0 66 25q22 24 22 64t-24 65t-64 25z" />
    <glyph glyph-name="Uhungarumlaut" unicode="&#x170;" horiz-adv-x="1261" 
d="M827 1384h-106l104 258h195zM557 1384h-106l104 258h195zM631 -25q-236 0 -379 125t-143 394v796h176v-798q0 -367 346 -367q170 0 260 92t90 272v801h174v-796q0 -266 -144 -392t-380 -127z" />
    <glyph glyph-name="uhungarumlaut" unicode="&#x171;" horiz-adv-x="1005" 
d="M688 1032h-106l104 258h195zM418 1032h-107l105 258h194zM719 381v514h170v-895h-170v158q-33 -82 -113 -132t-180 -51q-319 0 -320 363v557h170v-541q0 -114 52 -180t155 -66q102 0 169 76q67 74 67 197z" />
    <glyph glyph-name="Uogonek" unicode="&#x172;" horiz-adv-x="1261" 
d="M631 -25q-236 0 -379 125t-143 394v796h176v-798q0 -367 346 -367q170 0 260 92t90 272v801h174v-796q0 -360 -270 -474q-90 -78 -126 -122t-36 -88q0 -61 74 -62q43 0 108 33v-94q-71 -45 -147 -45t-119 36t-43 101q0 96 129 203q-45 -7 -94 -7z" />
    <glyph glyph-name="uogonek" unicode="&#x173;" horiz-adv-x="1005" 
d="M719 381v514h170v-895q-100 -63 -138 -105t-38 -85q0 -61 73 -62q43 0 109 33v-94q-70 -45 -147 -45q-78 0 -120 36t-42 101q0 104 153 221l-20 4v154q-33 -82 -113 -132t-180 -51q-319 0 -320 363v557h170v-541q0 -114 52 -180t155 -66q102 0 169 76q67 74 67 197z" />
    <glyph glyph-name="Wcircumflex" unicode="&#x174;" horiz-adv-x="1671" 
d="M737 1642h197l164 -258h-123l-139 152l-140 -152h-123zM922 1290l286 -1073h9l264 1073h166l-330 -1290h-207l-268 1030h-8l-275 -1030h-205l-329 1290h172l270 -1069h8l281 1069h166z" />
    <glyph glyph-name="wcircumflex" unicode="&#x175;" horiz-adv-x="1314" 
d="M735 895l193 -678h8l207 678h157l-284 -895h-164l-190 668h-9l-188 -668h-164l-287 895h170l211 -678h8l189 678h143zM559 1290h197l164 -258h-123l-140 152l-139 -152h-123z" />
    <glyph glyph-name="Ycircumflex" unicode="&#x176;" horiz-adv-x="1224" 
d="M514 1642h197l163 -258h-122l-140 152l-139 -152h-123zM698 0h-170v506l-503 784h194l404 -618l389 618h188l-502 -784v-506z" />
    <glyph glyph-name="ycircumflex" unicode="&#x177;" horiz-adv-x="942" 
d="M373 1290h196l164 -258h-123l-139 152l-139 -152h-123zM412 -344h-166l145 346l-377 893h179l284 -688h8l275 688h168z" />
    <glyph glyph-name="Ydieresis" unicode="&#x178;" horiz-adv-x="1224" 
d="M672 1395v192h166v-192h-166zM389 1395v192h168v-192h-168zM698 0h-170v506l-503 784h194l404 -618l389 618h188l-502 -784v-506z" />
    <glyph glyph-name="Zacute" unicode="&#x179;" horiz-adv-x="1146" 
d="M651 1384h-119l111 258h207zM1085 147v-147h-1024v125l779 1018h-768v147h993v-131l-778 -1012h798z" />
    <glyph glyph-name="zacute" unicode="&#x17a;" horiz-adv-x="876" 
d="M78 764v131h727v-117l-537 -647h549v-131h-756v117l527 647h-510zM510 1032h-119l111 258h207z" />
    <glyph glyph-name="Zdotaccent" unicode="&#x17b;" horiz-adv-x="1146" 
d="M1085 147v-147h-1024v125l779 1018h-768v147h993v-131l-778 -1012h798zM504 1395v192h178v-192h-178z" />
    <glyph glyph-name="zdotaccent" unicode="&#x17c;" horiz-adv-x="876" 
d="M360 1098v192h179v-192h-179zM78 764v131h727v-117l-537 -647h549v-131h-756v117l527 647h-510z" />
    <glyph glyph-name="Zcaron" unicode="&#x17d;" horiz-adv-x="1146" 
d="M1085 147v-147h-1024v125l779 1018h-768v147h993v-131l-778 -1012h798zM690 1384h-196l-164 258h123l139 -151l139 151h123z" />
    <glyph glyph-name="zcaron" unicode="&#x17e;" horiz-adv-x="876" 
d="M78 764v131h727v-117l-537 -647h549v-131h-756v117l527 647h-510zM547 1032h-197l-164 258h123l140 -153l139 153h123z" />
    <glyph glyph-name="florin" unicode="&#x192;" horiz-adv-x="845" 
d="M735 770v-125h-233l-119 -571q-57 -285 -299 -285q-27 0 -84 8v129q31 -6 53 -6q72 0 112 46t58 140l111 539h-160v125h186l54 258q27 127 105 205q79 78 198 78q39 0 100 -15v-125q-49 8 -67 9q-136 -1 -175 -185l-47 -225h207z" />
    <glyph glyph-name="Aringacute" unicode="&#x1fa;" horiz-adv-x="1306" 
d="M561 1501q0 -82 89 -82t89 82t-89 82t-89 -82zM711 1708h-119l84 199h207zM469 1501q0 70 50 117t131 47t131 -47t50 -117t-50 -116t-131 -46t-131 46t-50 116zM637 1094l-231 -574h475l-236 574h-8zM551 1290h194l537 -1290h-188l-156 379h-588l-151 -379h-174z" />
    <glyph glyph-name="aringacute" unicode="&#x1fb;" horiz-adv-x="1001" 
d="M838 578v-402q0 -70 69 -70q43 0 78 21v-92q-53 -53 -130 -53t-122 48t-53 128q-37 -80 -126 -131t-208 -51q-118 0 -196 66q-78 68 -78 184t91 181t269 99l242 49v35q0 92 -52 145t-145 53q-180 0 -225 -180l-152 21q27 131 126 211t262 80q162 0 256 -87t94 -255z
M674 399v43l-201 -43q-123 -27 -177 -59t-54 -100q0 -66 40 -103t113 -37q121 0 200 83t79 216zM311 1128q0 70 50 117t130 47q81 0 131 -47t50 -117t-50 -116t-132 -45q-82 -1 -130 45q-49 46 -49 116zM401 1128q0 -82 90 -82t91 82q0 82 -90 82t-91 -82zM553 1346h-119
l84 200h207z" />
    <glyph glyph-name="AEacute" unicode="&#x1fc;" horiz-adv-x="2004" 
d="M1421 1384h-118l110 258h207zM1008 530v625h-9l-426 -625h435zM1909 1290v-147h-729v-406h579v-145h-579v-445h747v-147h-919v389h-531l-264 -389h-188l880 1290h1004z" />
    <glyph glyph-name="aeacute" unicode="&#x1fd;" horiz-adv-x="1589" 
d="M1105 791q-114 0 -191 -76t-95 -199h537q-6 117 -72 196t-179 79zM399 98q117 0 199 74t82 205v29h-141q-166 0 -232 -41q-65 -41 -65 -115t40 -112q40 -40 117 -40zM473 920q223 0 299 -160q123 160 328 160q204 0 316 -127t112 -320v-67h-713q8 -138 92 -218t203 -79
q221 0 274 210l142 -16q-33 -154 -143 -241t-275 -87q-254 0 -373 207q-45 -88 -136 -147t-227 -59t-218 67q-82 68 -82 184q0 289 460 289h148v59q0 101 -54 157t-149 56q-182 0 -229 -178l-146 21q25 129 125 209q101 80 246 80zM860 1032h-119l111 258h207z" />
    <glyph glyph-name="Oslashacute" unicode="&#x1fe;" horiz-adv-x="1411" 
d="M764 1384h-119l111 258h207zM707 127q209 0 333 140q124 141 123 363q0 222 -100 361l-629 -780q113 -84 273 -84zM248 656q0 -224 102 -361l629 782q-111 86 -272 86q-209 0 -334 -141q-125 -142 -125 -366zM1348 643q0 -295 -180 -481t-461 -187q-213 0 -373 109
l-121 -152l-94 72l125 158q-178 184 -178 482t179 484t462 187q211 0 372 -113l111 137l94 -71l-115 -142q179 -188 179 -483z" />
    <glyph glyph-name="oslashacute" unicode="&#x1ff;" horiz-adv-x="1032" 
d="M578 1032h-119l110 258h207zM803 430q0 136 -47 219l-412 -487q72 -55 170 -56q135 0 212 94t77 230zM229 462q0 -138 47 -220l412 487q-70 57 -190 57t-194 -93q-75 -93 -75 -231zM973 439q0 -199 -130 -331t-329 -133q-154 0 -262 78l-102 -121l-80 66l104 123
q-115 127 -115 331t129 335q129 132 326 133q147 0 266 -82l105 123l80 -64l-107 -127q115 -131 115 -331z" />
    <glyph glyph-name="Scommaaccent" unicode="&#x218;" horiz-adv-x="1148" 
d="M582 115q157 0 241 59q84 60 84 156t-58 144t-187 73l-256 49q-322 61 -322 340q0 170 125 274t351 104t361 -121q134 -122 136 -341l-162 -8q-4 160 -96 247q-91 87 -241 87t-226 -62t-76 -160q0 -100 55 -142t178 -64l234 -45q180 -35 267 -119t87 -247t-135 -263
q-136 -100 -364 -100t-380 128q-152 130 -153 357l160 10q8 -172 114 -264t263 -92zM481 -246v142h185v-111q0 -180 -185 -180v71q43 0 61 18t19 60h-80z" />
    <glyph glyph-name="scommaaccent" unicode="&#x219;" horiz-adv-x="886" 
d="M78 645q0 123 94 199t261 76t268 -81t114 -237l-137 -8q-31 201 -256 201q-84 0 -135 -36t-51 -97q0 -100 137 -125l168 -27q143 -25 215 -84t72 -182t-103 -196q-102 -73 -270 -73t-280 83t-124 243l144 10q13 -102 81 -156q68 -55 172 -55t162 34t58 96t-40 92t-130 45
l-152 26q-268 43 -268 252zM369 -246v142h184v-111q0 -180 -184 -180v71q43 0 60 18t20 60h-80z" />
    <glyph glyph-name="uni0237" unicode="&#x237;" horiz-adv-x="401" 
d="M287 895v-1018q0 -246 -240 -246q-115 0 -199 66l41 108q70 -45 140 -45q88 0 88 105v1030h170z" />
    <glyph glyph-name="circumflex" unicode="&#x2c6;" 
d="M414 1290h196l164 -258h-123l-139 152l-139 -152h-123z" />
    <glyph glyph-name="caron" unicode="&#x2c7;" 
d="M610 1032h-196l-164 258h123l139 -153l139 153h123z" />
    <glyph glyph-name="breve" unicode="&#x2d8;" 
d="M512 1026q-115 0 -176 67t-62 197h119q0 -143 119 -143t119 143h119q0 -132 -62 -198t-176 -66z" />
    <glyph glyph-name="dotaccent" unicode="&#x2d9;" 
d="M422 1098v192h178v-192h-178z" />
    <glyph glyph-name="ring" unicode="&#x2da;" 
d="M692 1170q0 -76 -50 -124t-130 -48t-130 48q-50 49 -50 124t50 124t130 49t130 -49t50 -124zM512 1260q-40 0 -64 -25t-24 -65t22 -64t66 -25q43 0 66 25q22 24 22 64t-23 65q-24 25 -65 25z" />
    <glyph glyph-name="ogonek" unicode="&#x2db;" 
d="M483 -190q0 -61 74 -62q43 0 109 33v-94q-70 -45 -147 -45t-120 36t-43 101q0 66 48 122q49 56 139 124h106q-94 -82 -130 -127t-36 -88z" />
    <glyph glyph-name="tilde" unicode="&#x2dc;" 
d="M211 1036q0 114 44 180q45 66 115 66t148 -59t117 -59t54 27q15 28 20 85h102q0 -114 -43 -180q-42 -66 -114 -66t-150 60t-115 59q-70 0 -76 -113h-102z" />
    <glyph glyph-name="hungarumlaut" unicode="&#x2dd;" 
d="M604 1032h-106l104 258h195zM334 1032h-107l105 258h194z" />
    <glyph glyph-name="Wgrave" unicode="&#x1e80;" horiz-adv-x="1671" 
d="M922 1290l286 -1073h9l264 1073h166l-330 -1290h-207l-268 1030h-8l-275 -1030h-205l-329 1290h172l270 -1069h8l281 1069h166zM913 1384h-118l-199 258h207z" />
    <glyph glyph-name="wgrave" unicode="&#x1e81;" horiz-adv-x="1314" 
d="M731 1032h-119l-198 258h207zM735 895l193 -678h8l207 678h157l-284 -895h-164l-190 668h-9l-188 -668h-164l-287 895h170l211 -678h8l189 678h143z" />
    <glyph glyph-name="Wacute" unicode="&#x1e82;" horiz-adv-x="1671" 
d="M922 1290l286 -1073h9l264 1073h166l-330 -1290h-207l-268 1030h-8l-275 -1030h-205l-329 1290h172l270 -1069h8l281 1069h166zM895 1384h-119l111 258h207z" />
    <glyph glyph-name="wacute" unicode="&#x1e83;" horiz-adv-x="1314" 
d="M735 895l193 -678h8l207 678h157l-284 -895h-164l-190 668h-9l-188 -668h-164l-287 895h170l211 -678h8l189 678h143zM719 1032h-119l111 258h207z" />
    <glyph glyph-name="Wdieresis" unicode="&#x1e84;" horiz-adv-x="1671" 
d="M922 1290l286 -1073h9l264 1073h166l-330 -1290h-207l-268 1030h-8l-275 -1030h-205l-329 1290h172l270 -1069h8l281 1069h166zM895 1395v192h166v-192h-166zM612 1395v192h168v-192h-168z" />
    <glyph glyph-name="wdieresis" unicode="&#x1e85;" horiz-adv-x="1314" 
d="M735 895l193 -678h8l207 678h157l-284 -895h-164l-190 668h-9l-188 -668h-164l-287 895h170l211 -678h8l189 678h143zM717 1081v193h166v-193h-166zM434 1081v193h168v-193h-168z" />
    <glyph glyph-name="Ygrave" unicode="&#x1ef2;" horiz-adv-x="1224" 
d="M690 1384h-119l-198 258h207zM698 0h-170v506l-503 784h194l404 -618l389 618h188l-502 -784v-506z" />
    <glyph glyph-name="ygrave" unicode="&#x1ef3;" horiz-adv-x="942" 
d="M545 1032h-119l-199 258h207zM412 -344h-166l145 346l-377 893h179l284 -688h8l275 688h168z" />
    <glyph glyph-name="endash" unicode="&#x2013;" 
d="M117 459v125h790v-125h-790z" />
    <glyph glyph-name="emdash" unicode="&#x2014;" horiz-adv-x="2048" 
d="M117 459v125h1814v-125h-1814z" />
    <glyph glyph-name="quoteleft" unicode="&#x2018;" horiz-adv-x="358" 
d="M281 1087v-194h-203v190q0 117 43 171t160 55v-99q-57 -4 -77 -29q-19 -26 -20 -94h97z" />
    <glyph glyph-name="quoteright" unicode="&#x2019;" horiz-adv-x="358" 
d="M78 1096v194h203v-192q0 -117 -42 -170t-161 -56v101q57 4 77 29q19 26 19 94h-96z" />
    <glyph glyph-name="quotesinglbase" unicode="&#x201a;" horiz-adv-x="358" 
d="M78 0v195h203v-193q0 -115 -43 -169t-160 -56v100q57 4 77 30q19 26 19 93h-96z" />
    <glyph glyph-name="quotedblleft" unicode="&#x201c;" horiz-adv-x="661" 
d="M584 1087v-194h-203v190q0 115 43 170t160 56v-99q-57 -4 -77 -29q-19 -26 -20 -94h97zM281 1087v-194h-203v190q0 117 43 171t160 55v-99q-57 -4 -77 -29q-19 -26 -20 -94h97z" />
    <glyph glyph-name="quotedblright" unicode="&#x201d;" horiz-adv-x="661" 
d="M78 1096v194h203v-192q0 -117 -42 -170t-161 -56v101q57 4 77 29q19 26 19 94h-96zM381 1096v194h203v-192q0 -117 -42 -170t-161 -56v101q57 4 77 29q19 26 19 94h-96z" />
    <glyph glyph-name="quotedblbase" unicode="&#x201e;" horiz-adv-x="661" 
d="M78 0v195h203v-193q0 -115 -43 -169t-160 -56v100q57 4 77 30q19 26 19 93h-96zM381 0v195h203v-193q0 -115 -43 -169t-160 -56v100q57 4 77 30q19 26 19 93h-96z" />
    <glyph glyph-name="dagger" unicode="&#x2020;" horiz-adv-x="641" 
d="M45 989v119h215v201h123v-201h213v-119h-213v-467h-123v467h-215z" />
    <glyph glyph-name="daggerdbl" unicode="&#x2021;" horiz-adv-x="661" 
d="M55 715v114h215v175h-215v112h215v193h121v-193h215v-112h-215v-175h215v-114h-215v-193h-121v193h-215z" />
    <glyph glyph-name="bullet" unicode="&#x2022;" horiz-adv-x="684" 
d="M590 522q0 -108 -72 -176q-72 -70 -177 -70t-176 70t-71 177t71 178t175 71t177 -71t73 -179z" />
    <glyph glyph-name="ellipsis" unicode="&#x2026;" horiz-adv-x="1079" 
d="M797 0v205h204v-205h-204zM438 0v205h205v-205h-205zM78 0v205h205v-205h-205z" />
    <glyph glyph-name="perthousand" unicode="&#x2030;" horiz-adv-x="2174" 
d="M1149 1290l-660 -1290h-139l662 1290h137zM2126 315q0 -155 -86 -247t-216 -92t-216 92t-86 248t86 247q86 92 216 92t216 -92t86 -248zM1978 315q0 227 -155 228q-156 1 -156 -227q-1 -228 155 -228t156 227zM1444 315q0 -155 -87 -247t-216 -92t-216 92t-87 248t87 247
q87 92 216 92t216 -92t87 -248zM1296 315q0 227 -155 228q-156 1 -156 -227q-1 -228 155 -228t156 227zM57 975q0 156 86 248t216 92t216 -92q87 -92 87 -248t-86 -248t-217 -92q-130 0 -216 92t-86 248zM203 975q1 -227 157 -227t156 227t-156 227t-157 -227z" />
    <glyph glyph-name="guilsinglleft" unicode="&#x2039;" horiz-adv-x="495" 
d="M94 379v135l307 264v-166l-190 -166l190 -163v-168z" />
    <glyph glyph-name="guilsinglright" unicode="&#x203a;" horiz-adv-x="495" 
d="M401 514v-135l-307 -264v168l191 163l-191 166v166z" />
    <glyph glyph-name="fraction" unicode="&#x2044;" horiz-adv-x="1003" 
d="M991 1290l-831 -1290h-140l832 1290h139z" />
    <glyph glyph-name="Euro" unicode="&#x20ac;" horiz-adv-x="1255" 
d="M344 459q64 -334 348 -334q148 0 233 105t97 292l166 -8q-16 -244 -148 -391t-346 -147q-215 0 -350 128q-135 129 -176 355h-137v110h123q-2 25 -2 74t2 72h-123v110h135q41 227 177 359t352 131q216 0 347 -150t146 -389l-166 -8q-12 176 -98 287t-240 110
q-279 0 -342 -340h395l-20 -110h-387q-2 -23 -2 -72t2 -74h368l-20 -110h-334z" />
    <glyph glyph-name="uni2117" unicode="&#x2117;" horiz-adv-x="1482" 
d="M621 530v-270h-134v766h308q141 0 219 -68t78 -180t-78 -180t-219 -68h-174zM621 643h153q182 0 182 135t-182 135h-153v-270zM168 645q0 -248 167 -412q167 -163 407 -163t406 164q167 164 167 411q0 248 -167 412t-407 164q-241 0 -407 -164t-166 -412zM72 645
q0 289 194 479q196 190 476 190t475 -190t195 -479t-196 -479q-194 -190 -475 -190t-475 190t-194 479z" />
    <glyph glyph-name="trademark" unicode="&#x2122;" horiz-adv-x="1292" 
d="M698 1178v-420h-104v532h172l115 -391h4l114 391h166v-532h-112v420h-4l-127 -420h-91l-129 420h-4zM340 758h-115v434h-184v98h487v-98h-188v-434z" />
    <glyph glyph-name="uni2153" unicode="&#x2153;" horiz-adv-x="1505" 
d="M1143 1290l-832 -1290h-139l832 1290h139zM1294 223q0 57 -41 90t-91 33t-87 -4v111q14 -2 70 -2q135 0 135 118q0 57 -36 91t-106 34t-111 -47q-42 -47 -42 -129l-139 4q0 127 81 208t215 81t209 -62t74 -167q0 -70 -45 -120t-104 -61q76 -10 122 -61t46 -141
q0 -89 -81 -151t-221 -62t-224 76t-84 208l141 -4q2 -82 48 -123t119 -41q72 0 112 32t40 89zM55 1079v95q82 0 124 28t65 92h104v-798h-143v583h-150z" />
    <glyph glyph-name="uni2154" unicode="&#x2154;" horiz-adv-x="1740" 
d="M1380 1290l-831 -1290h-141l831 1290h141zM653 614v-122h-594v94l224 186q109 90 153 148t45 127q0 135 -133 135q-70 0 -106 -43t-37 -97q0 -54 10 -92l-145 6q-8 49 -9 74q0 125 80 199t213 74t206 -70t73 -172t-56 -176t-167 -164l-134 -107h377zM1532 224
q0 58 -42 90t-90 32t-89 -4v111q16 -2 72 -2t96 28q39 29 39 88t-36 93t-106 34t-112 -47t-41 -129l-140 4q0 127 81 208t215 81t209 -62t75 -167q0 -70 -45 -120t-105 -61q74 -10 120 -61t46 -141q0 -89 -80 -151t-220 -62t-224 76t-84 208l141 -4q6 -164 172 -164
q66 0 107 32t41 90z" />
    <glyph glyph-name="uni215B" unicode="&#x215b;" horiz-adv-x="1529" 
d="M1143 1290l-832 -1290h-139l832 1290h139zM1159 -14q-145 0 -227 61t-82 166q0 74 45 126t113 64q-131 51 -131 187q0 100 78 161q79 60 205 60t205 -59t79 -162q0 -133 -131 -187q67 -12 111 -64t44 -126q0 -103 -82 -165t-227 -62zM1323 225q0 127 -163 127t-163 -127
q0 -63 42 -97t120 -34t121 34t43 97zM1160 705q-64 0 -102 -33t-38 -93q0 -61 38 -93t102 -32t104 32q39 32 39 92t-39 94q-40 33 -104 33zM55 1079v95q82 0 124 28t65 92h104v-798h-143v583h-150z" />
    <glyph glyph-name="uni215C" unicode="&#x215c;" horiz-adv-x="1753" 
d="M1366 1290l-831 -1290h-142l832 1290h141zM518 717q0 57 -41 89t-100 32t-78 -2v110q14 -2 70 -2q135 0 135 117q0 59 -35 93t-105 34t-113 -47q-42 -47 -42 -129l-139 4q0 127 81 208t215 81q134 -1 208 -63t75 -167q0 -72 -44 -121t-105 -59q76 -10 122 -61t46 -141
q0 -89 -81 -151t-221 -62t-225 75q-84 76 -84 209l142 -4q6 -164 174 -164q65 0 105 32t40 89zM1382 -14q-145 0 -228 61t-83 166q0 74 46 126t114 64q-131 51 -131 187q0 100 79 160t203 61q124 0 204 -60q79 -60 79 -161q0 -133 -131 -187q68 -12 113 -64t45 -126
q0 -104 -82 -166q-83 -61 -228 -61zM1382 352q-162 0 -161 -127q0 -63 42 -97q41 -34 119 -34t120 34t42 97q0 127 -162 127zM1382 705q-66 0 -104 -33t-37 -93q0 -61 39 -93q40 -32 104 -32t102 32t38 92t-38 94q-38 33 -104 33z" />
    <glyph glyph-name="uni215D" unicode="&#x215d;" horiz-adv-x="1724" 
d="M1337 1290l-833 -1290h-139l831 1290h141zM600 1290v-123h-367q-6 -115 -24 -204q59 67 181 67t194 -77t72 -199t-82 -198q-81 -77 -220 -77t-219 80t-74 217l140 -10q0 -78 42 -124q43 -46 117 -46t117 44t43 117t-43 117t-128 44t-134 -82l-141 8q45 268 51 446h475z
M1354 -14q-145 0 -229 61q-83 61 -83 166q0 74 46 126t114 64q-131 51 -131 187q0 100 79 160t204 61q125 0 204 -60t78 -161q0 -133 -131 -187q68 -12 113 -64t45 -126q0 -103 -82 -165t-227 -62zM1354 352q-162 0 -162 -127q0 -63 42 -97t120 -34t120 34t42 97
q0 127 -162 127zM1354 705q-66 0 -104 -33t-38 -93q0 -61 38 -93t104 -32t104 32t37 92q1 60 -37 94q-38 33 -104 33z" />
    <glyph glyph-name="uni215E" unicode="&#x215e;" horiz-adv-x="1554" 
d="M1167 1290l-833 -1290h-139l831 1290h141zM37 1161v129h577v-100q-141 -145 -194 -311t-55 -383h-158q6 407 248 665h-418zM1184 -14q-145 0 -229 61q-83 61 -83 166q0 74 46 126t114 64q-133 51 -133 187q0 102 79 162t205 59q126 0 205 -60t78 -161q0 -133 -131 -187
q68 -12 113 -64t45 -126q0 -103 -82 -165t-227 -62zM1346 225q0 127 -163 127t-163 -127q0 -63 43 -97t121 -34t120 34t42 97zM1184 705q-66 0 -104 -33t-38 -93q0 -61 38 -93t104 -32t104 32t37 92q1 60 -37 94q-38 33 -104 33z" />
    <glyph glyph-name="minus" unicode="&#x2212;" horiz-adv-x="1265" 
d="M111 567v144h1046v-144h-1046z" />
    <glyph glyph-name="approxequal" unicode="&#x2248;" horiz-adv-x="1294" 
d="M406 602q90 0 240 -46t237 -46q141 0 288 94v-141q-147 -94 -288 -94q-88 0 -238 46t-239 46q-136 0 -283 -94v141q143 94 283 94zM406 909q90 0 240 -45t237 -45q143 0 288 92v-141q-143 -94 -288 -94q-88 0 -238 45t-239 45q-140 0 -283 -92v141q147 94 283 94z" />
    <glyph glyph-name="notequal" unicode="&#x2260;" horiz-adv-x="1294" 
d="M123 731v137h622l195 256h147l-194 -256h278v-137h-380l-146 -190h526v-138h-628l-189 -249h-147l188 249h-272v138h375l145 190h-520z" />
    <glyph glyph-name="lessequal" unicode="&#x2264;" horiz-adv-x="960" 
d="M80 690v168l801 363v-156l-648 -291l648 -293v-155zM80 80v143h801v-143h-801z" />
    <glyph glyph-name="greaterequal" unicode="&#x2265;" horiz-adv-x="960" 
d="M881 858v-168l-801 -364v155l647 293l-647 291v156zM881 223v-143h-801v143h801z" />
    <glyph glyph-name="i.dot" horiz-adv-x="401" 
d="M111 1098v192h178v-192h-178zM117 895h170v-895h-170v895z" />
    <glyph glyph-name="space_uni0326" 
d="M420 -246v142h184v-111q0 -180 -184 -180v71q43 0 60 18t20 60h-80z" />
    <glyph glyph-name="space_uni0326.alt" 
d="M604 1206v-141h-184v111q0 180 184 180v-72q-43 0 -60 -17t-20 -61h80z" />
    <glyph glyph-name="space_dotbelowcomb" 
d="M422 -352v194h178v-194h-178z" />
    <glyph glyph-name="caron.Slovak" 
d="M498 1020h-97l31 270h189z" />
    <glyph glyph-name="cedilla.alt" horiz-adv-x="1173" 
d="M813 -208q1 -79 -65 -115t-164 -35q-135 0 -226 77l35 66q87 -66 187 -66t100 62q0 37 -30 52q-57 29 -144 -9l-41 22l121 177h80l-86 -115q92 25 162 -6t71 -110z" />
    <glyph glyph-name="grave.cap" 
d="M670 1384h-119l-199 258h207z" />
    <glyph glyph-name="acute.cap" 
d="M471 1384h-119l111 258h207z" />
    <glyph glyph-name="circumflex.cap" 
d="M414 1642h196l164 -258h-123l-139 152l-139 -152h-123z" />
    <glyph glyph-name="caron.cap" 
d="M610 1384h-196l-164 258h123l139 -151l139 151h123z" />
    <glyph glyph-name="tilde.cap" 
d="M211 1382q0 115 44 181q45 65 115 65t148 -59t117 -59t54 27q15 28 20 85h102q0 -114 -43 -180q-42 -66 -114 -66t-150 60t-115 59q-70 0 -76 -113h-102z" />
    <glyph glyph-name="macron.cap" 
d="M246 1399v129h530v-129h-530z" />
    <glyph glyph-name="breve.cap" 
d="M512 1378q-115 0 -176 67t-62 197h119q0 -143 119 -143t119 143h119q0 -132 -62 -198t-176 -66z" />
    <glyph glyph-name="dotaccent.cap" 
d="M422 1395v192h178v-192h-178z" />
    <glyph glyph-name="dieresis.cap" 
d="M569 1395v192h166v-192h-166zM287 1395v192h168v-192h-168z" />
    <glyph glyph-name="ring.cap" 
d="M332 1523q0 75 50 124t130 49t130 -49t50 -124t-50 -124t-130 -49t-130 49t-50 124zM512 1612q-40 0 -64 -24t-24 -65q0 -40 22 -65q22 -24 66 -24q43 0 66 24q22 24 22 65t-24 65t-64 24z" />
    <glyph glyph-name="hungarumlaut.cap" 
d="M604 1384h-106l104 258h195zM334 1384h-107l105 258h194z" />
    <glyph glyph-name="exclamdown.cap" horiz-adv-x="391" 
d="M287 0h-183v360l52 592h82l49 -592v-360zM94 1085v205h205v-205h-205z" />
    <glyph glyph-name="questiondown.cap" horiz-adv-x="999" 
d="M623 1290v-205h-205v205h205zM594 946q0 -88 -34 -152t-144 -154q-23 -18 -30 -24q-6 -6 -26 -23t-28 -25t-24 -26t-23 -30t-25 -46t-18 -122t64 -156t192 -68q126 0 198 80q72 79 72 222q0 61 -14 117l176 -9q12 -61 12 -120q0 -199 -123 -317t-333 -118t-319 109
q-110 109 -110 274q0 121 68 208t203 196q57 47 81 86q23 39 25 98h160z" />
    <glyph glyph-name="guilsinglleft.cap" horiz-adv-x="495" 
d="M94 559v135l307 264v-165l-190 -166l190 -166v-166z" />
    <glyph glyph-name="guilsinglright.cap" horiz-adv-x="495" 
d="M401 694v-135l-307 -264v166l191 166l-191 166v165z" />
    <glyph glyph-name="guillemotleft.cap" horiz-adv-x="831" 
d="M430 559v135l307 264v-165l-190 -166l190 -166v-166zM94 559v135l307 264v-165l-190 -166l190 -166v-166z" />
    <glyph glyph-name="guillemotright.cap" horiz-adv-x="831" 
d="M737 694v-135l-307 -264v166l191 166l-191 166v165zM401 694v-135l-307 -264v166l191 166l-191 166v165z" />
    <glyph glyph-name="slash.cap" horiz-adv-x="667" 
d="M0 0l506 1290h162l-506 -1290h-162z" />
    <glyph glyph-name="backslash.cap" horiz-adv-x="667" 
d="M162 1290l506 -1290h-162l-506 1290h162z" />
    <glyph glyph-name="bar.cap" horiz-adv-x="403" 
d="M125 0v1290h154v-1290h-154z" />
    <glyph glyph-name="periodcentered.cap" horiz-adv-x="374" 
d="M84 543v205h205v-205h-205z" />
    <glyph glyph-name="bullet.cap" horiz-adv-x="684" 
d="M590 646q0 -108 -72 -178t-177 -69q-105 0 -176 70t-71 177t71 178t175 71t177 -71q73 -70 73 -178z" />
    <glyph glyph-name="hyphen.cap" horiz-adv-x="704" 
d="M117 569v152h471v-152h-471z" />
    <glyph glyph-name="endash.cap" 
d="M117 582v125h790v-125h-790z" />
    <glyph glyph-name="emdash.cap" horiz-adv-x="2048" 
d="M117 582v125h1814v-125h-1814z" />
    <glyph glyph-name="parenleft.cap" horiz-adv-x="591" 
d="M84 623q0 211 75 413t210 348h170q-277 -315 -277 -761t277 -762h-170q-135 147 -210 349t-75 413z" />
    <glyph glyph-name="parenright.cap" horiz-adv-x="591" 
d="M508 623q0 -211 -75 -413t-210 -349h-170q277 315 277 761t-277 762h170q135 -146 210 -348t75 -413z" />
    <glyph glyph-name="bracketleft.cap" horiz-adv-x="569" 
d="M295 1255v-1265h184v-129h-344v1523h344v-129h-184z" />
    <glyph glyph-name="bracketright.cap" horiz-adv-x="569" 
d="M272 -10v1265h-184v129h346v-1523h-346v129h184z" />
    <glyph glyph-name="braceleft.cap" horiz-adv-x="600" 
d="M55 559v129h51q61 0 79 31q17 31 18 119v340q0 207 186 206h121v-129h-82q-63 0 -63 -75v-349q0 -92 -32 -143t-112 -65q80 -13 112 -65t32 -144v-348q0 -76 63 -76h82v-129h-121q-186 0 -186 207v342q1 88 -17 118t-80 31h-51z" />
    <glyph glyph-name="braceright.cap" horiz-adv-x="600" 
d="M545 688v-129h-51q-60 0 -78 -31t-19 -118v-342q0 -207 -186 -207h-123v129h82q63 0 63 76v348q0 182 146 209q-145 27 -146 208v349q0 76 -63 75h-82v129h123q186 0 186 -206v-340q-1 -88 17 -119t80 -31h51z" />
    <glyph glyph-name="at.cap" horiz-adv-x="1556" 
d="M792 899q-97 0 -164 -101t-67 -231q0 -166 137 -166q78 0 144 58q65 58 94 164l12 49q23 100 -18 164t-138 63zM1137 391q104 0 169 95q64 95 64 298t-139 338t-383 135q-293 0 -472 -185t-179 -480q0 -256 167 -408t409 -152t433 93l45 -88q-195 -117 -487 -117
t-495 180q-201 180 -201 506t215 545t565 219q301 0 476 -167t175 -419q1 -252 -111 -378t-274 -127q-82 -1 -133 39t-68 106q-82 -145 -251 -145q-119 1 -191 77t-72 209q-1 175 105 311t276 136q82 0 142 -36t82 -93l30 112h152l-123 -485q-30 -119 74 -119z" />
    <glyph glyph-name="Euro.lt" horiz-adv-x="1228" 
d="M41 459v110h121q-2 25 -2 74t2 72h-121v110h133q41 227 175 359t349 131t345 -149t145 -390l-166 -8q-12 178 -96 288t-238 109q-276 0 -336 -340h389l-20 -110h-381q-2 -23 -2 -72t2 -74h362l-20 -110h-330q63 -334 336 -334q303 0 334 397l166 -8q-16 -244 -146 -391
t-344 -147q-213 0 -347 128q-134 129 -175 355h-135z" />
    <glyph glyph-name="dollar.lt" horiz-adv-x="1228" 
d="M307 959q1 -99 59 -145t177 -69l26 -6v441q-127 -4 -195 -63t-67 -158zM715 549l-31 6v-444q125 8 198 68q72 59 72 153t-56 143t-183 74zM141 952q0 156 115 256t313 107v178h115v-184q196 -23 304 -143t110 -314l-158 -8q-4 135 -72 219t-184 106v-452l88 -17
q180 -34 266 -116t86 -241t-122 -257t-318 -109v-186h-115v189q-211 20 -338 146t-127 335l158 10q6 -152 89 -243t218 -111v458l-108 23q-147 27 -234 113q-86 85 -86 241z" />
    <glyph glyph-name="cent.lt" horiz-adv-x="1228" 
d="M330 446q0 -139 66 -226t177 -107v667q-113 -18 -178 -106t-65 -228zM573 -201v181q-179 16 -295 144t-116 322t116 323q116 128 295 146v195h117v-195q168 -15 266 -123t111 -264l-145 -10q-10 106 -70 177t-162 87v-669q100 14 161 83q60 69 73 183l143 -12
q-13 -159 -111 -265t-266 -122v-181h-117z" />
    <glyph glyph-name="sterling.lt" horiz-adv-x="1228" 
d="M293 86q102 0 129 133q-72 53 -123 53t-79 -24t-28 -68q0 -42 30 -68q28 -26 71 -26zM682 1174q-120 0 -180 -70q-58 -70 -58 -172q0 -104 45 -227h318v-117h-272q47 -137 47 -213t-9 -119q59 -46 91 -66q107 -67 200 -65q162 0 162 235l137 -6q7 -178 -69 -278
t-228 -100t-331 153q-78 -154 -244 -154q-95 1 -157 55t-62 146t62 150t144 57q82 0 156 -35q-2 111 -61 240h-209v117h155q-47 113 -47 217q0 176 108 284t300 109q192 0 302 -114q112 -114 112 -314l-156 -8q-2 145 -69 220t-187 75z" />
    <glyph glyph-name="yen.lt" horiz-adv-x="1228" 
d="M184 547v121h269l-394 622h193l373 -596l358 596h186l-393 -622h268v-121h-344v-146h344v-120h-344v-281h-170v281h-346v120h346v146h-346z" />
    <glyph glyph-name="florin.lt" horiz-adv-x="1228" 
d="M940 770v-125h-233l-119 -571q-61 -285 -299 -285q-27 0 -84 8v129q31 -6 53 -6q72 0 111 46t57 140l113 539h-160v125h184l55 258q27 129 105 206t199 77q39 0 100 -15v-125q-49 8 -68 9q-135 -1 -174 -185l-47 -225h207z" />
    <glyph glyph-name="zero.lt" horiz-adv-x="1228" 
d="M961 645q-1 526 -347 526t-346 -526t346 -526t347 526zM1145 645q0 -321 -138 -495q-139 -174 -393 -174t-392 174t-138 496t138 495q138 174 392 174t392 -174t139 -496z" />
    <glyph glyph-name="one.lt" horiz-adv-x="1228" 
d="M229 0v147h326v838h-303v121h51q162 0 223 39t90 153h117v-1151h311v-147h-815z" />
    <glyph glyph-name="two.lt" horiz-adv-x="1228" 
d="M1090 154v-154h-949v102l365 314q285 249 330 367q23 60 22 128q0 119 -65 189q-66 70 -193 70t-199 -80t-71 -222q0 -61 14 -116l-178 8q-12 61 -12 121q0 199 122 317t334 117q211 0 323 -111q111 -111 111 -281t-126 -320q-64 -75 -118 -126t-141 -123l-243 -200h674z
" />
    <glyph glyph-name="three.lt" horiz-adv-x="1228" 
d="M612 119q138 0 216 61q78 60 77 170q0 110 -80 170t-180 62q-100 0 -147 -7v146q44 -6 140 -6t170 52t73 165q0 113 -69 176t-203 63t-213 -85t-79 -238l-172 6q0 203 128 332t339 129q211 1 328 -99t117 -266q0 -118 -75 -200t-175 -99q121 -16 199 -101t77 -208
q0 -164 -127 -265t-348 -101t-353 122q-132 123 -132 338l174 -8q4 -152 90 -230q87 -78 225 -79z" />
    <glyph glyph-name="four.lt" horiz-adv-x="1228" 
d="M756 489v641l-525 -641h525zM930 1290v-801h235v-145h-235v-344h-174v344h-684v168l643 778h215z" />
    <glyph glyph-name="five.lt" horiz-adv-x="1228" 
d="M1001 1290v-160h-618q-2 -53 -19 -201t-28 -198q110 131 314 131t321 -124t117 -318t-130 -319q-129 -126 -350 -126q-221 1 -348 133t-117 349l172 -15q0 -150 79 -238q80 -88 222 -87q142 0 221 84t79 219t-79 218t-214 83q-195 0 -283 -164l-176 12q72 393 82 721h755
z" />
    <glyph glyph-name="six.lt" horiz-adv-x="1228" 
d="M338 420q0 -137 84 -219t227 -82t223 81t80 219t-81 219t-226 81t-226 -81t-81 -218zM659 1174q-190 0 -283 -157t-89 -421q35 120 134 192t249 72q206 0 330 -122t124 -318t-128 -321q-128 -124 -343 -124q-254 0 -390 172q-136 173 -136 481t136 497t399 190
q194 -1 314 -105t134 -284l-168 -6q-18 118 -88 186t-195 68z" />
    <glyph glyph-name="seven.lt" horiz-adv-x="1228" 
d="M131 1130v160h946v-108q-428 -446 -434 -1182h-192q5 338 117 630t309 500h-746z" />
    <glyph glyph-name="eight.lt" horiz-adv-x="1228" 
d="M614 -25q-227 1 -357 99t-130 268q0 121 77 205t187 104q-219 80 -219 305q0 164 124 262t318 97q194 0 319 -97q124 -97 124 -262q0 -225 -219 -305q112 -20 188 -104t76 -205q0 -170 -130 -268t-358 -99zM614 582q-147 0 -226 -60t-79 -173q0 -114 80 -177t225 -63
t225 63q79 63 79 177q0 113 -78 173t-226 60zM614 1184q-124 0 -196 -62t-72 -174q0 -113 74 -173t196 -60t194 60q73 60 73 173q0 112 -73 174t-196 62z" />
    <glyph glyph-name="nine.lt" horiz-adv-x="1228" 
d="M891 870q0 138 -84 220t-227 82t-224 -81q-80 -81 -80 -219t81 -220q81 -81 227 -81t226 81q81 81 81 218zM569 117q190 0 284 156q93 157 89 421q-35 -120 -134 -192t-249 -72q-207 0 -331 122t-124 318t128 321q128 124 343 124q255 0 391 -172t136 -480
q0 -307 -136 -497t-399 -191q-193 1 -313 105t-135 285l168 6q17 -119 87 -187t195 -67z" />
    <glyph glyph-name="period.tab" horiz-adv-x="614" 
d="M205 0v205h205v-205h-205z" />
    <glyph glyph-name="comma.tab" horiz-adv-x="614" 
d="M205 0v205h205v-201q0 -115 -44 -171t-161 -58v100q57 4 77 31q19 27 19 94h-96z" />
    <glyph glyph-name="colon.tab" horiz-adv-x="614" 
d="M205 649v205h205v-205h-205zM205 0v205h205v-205h-205z" />
    <glyph glyph-name="semicolon.tab" horiz-adv-x="614" 
d="M205 649v205h205v-205h-205zM205 0v205h205v-201q0 -115 -44 -171t-161 -58v100q57 4 77 31q19 27 19 94h-96z" />
    <glyph glyph-name="space.tab" horiz-adv-x="614" 
 />
    <glyph glyph-name="percent.lt" horiz-adv-x="1638" 
d="M1513 315q0 -155 -87 -247t-216 -92t-215 92t-86 248t86 247q86 92 215 92t216 -92t87 -248zM1219 1290l-660 -1290h-139l661 1290h138zM1366 315q0 227 -156 228t-156 -227t156 -228t156 227zM127 975q0 156 86 248t216 92t216 -92t86 -248t-86 -248t-216 -92t-216 92
t-86 248zM272 975q0 -227 157 -227t157 227t-157 227t-157 -227z" />
    <glyph glyph-name="perthousand.lt" horiz-adv-x="2457" 
d="M1286 1290l-659 -1290h-140l662 1290h137zM2263 315q0 -155 -86 -247t-216 -92t-216 92t-86 248t86 247q86 92 216 92t216 -92t86 -248zM2116 315q0 227 -156 228t-156 -227t156 -228t156 227zM1581 315q0 -155 -87 -247t-216 -92t-216 92t-87 248t87 247q87 92 216 92
t216 -92t87 -248zM1434 315q0 227 -156 228t-156 -227t156 -228t156 227zM195 975q0 156 86 248t216 92t216 -92t86 -248t-86 -248t-216 -92t-216 92t-86 248zM340 975q0 -227 157 -227t156 227t-157 227t-156 -227z" />
    <glyph glyph-name="plus.lt" horiz-adv-x="1228" 
d="M541 1163h143v-452h453v-144h-453v-452h-143v452h-451v144h451v452z" />
    <glyph glyph-name="minus.lt" horiz-adv-x="1228" 
d="M90 567v144h1047v-144h-1047z" />
    <glyph glyph-name="multiply.lt" horiz-adv-x="1228" 
d="M516 631l-330 332l101 100l325 -336l328 336l100 -100l-329 -332l329 -330l-100 -100l-328 334l-325 -334l-101 100z" />
    <glyph glyph-name="divide.lt" horiz-adv-x="1228" 
d="M510 109v206h211v-206h-211zM510 961v208h211v-208h-211zM90 567v144h1047v-144h-1047z" />
    <glyph glyph-name="equal.lt" horiz-adv-x="1228" 
d="M90 731v139h1047v-139h-1047zM90 401v140h1047v-140h-1047z" />
    <glyph glyph-name="less.lt" horiz-adv-x="1228" 
d="M215 543v184l799 426v-166l-668 -352l668 -352v-168z" />
    <glyph glyph-name="greater.lt" horiz-adv-x="1228" 
d="M1014 727v-184l-799 -428v168l668 352l-668 352v166z" />
    <glyph glyph-name="plusminus.lt" horiz-adv-x="1228" 
d="M90 80v143h1049v-143h-1049zM543 1241h141v-383h455v-141h-455v-383h-141v383h-453v141h453v383z" />
    <glyph glyph-name="lessequal.lt" horiz-adv-x="1228" 
d="M215 690v168l799 363v-156l-647 -291l647 -293v-155zM215 80v143h799v-143h-799z" />
    <glyph glyph-name="greaterequal.lt" horiz-adv-x="1228" 
d="M1014 858v-168l-799 -364v155l645 293l-645 291v156zM1014 223v-143h-799v143h799z" />
    <glyph glyph-name="notequal.lt" horiz-adv-x="1228" 
d="M90 731v137h621l194 256h148l-193 -256h277v-137h-381l-144 -190h525v-138h-627l-188 -249h-150l188 249h-270v138h373l145 190h-518z" />
    <glyph glyph-name="approxequal.lt" horiz-adv-x="1228" 
d="M373 602q87 0 237 -46t240 -46q141 0 287 94v-141q-145 -94 -287 -94q-90 0 -240 46t-237 46q-136 0 -283 -94v141q143 94 283 94zM373 909q87 0 237 -45t240 -45q143 0 287 92v-141q-141 -94 -287 -94q-90 0 -240 45t-237 45q-140 0 -283 -92v141q147 94 283 94z" />
    </font>
</defs>
</svg>
