<?xml version="1.0" standalone="no"?>
<!DOCTYPE svg PUBLIC "-//W3C//DTD SVG 1.1//EN" "http://www.w3.org/Graphics/SVG/1.1/DTD/svg11.dtd" >
<svg xmlns="http://www.w3.org/2000/svg">
<metadata>
Created by FontPrep 20130207 at Tue Nov 22 11:52:14 2016
 By Brendan Gatens
Copyright 2007 Paul Barnes and Christian Schwartz. All Rights Reserved.
</metadata>
<defs>
<font id="2b286fb98d6354374f43df3fed4d0964" horiz-adv-x='1024' >
  <font-face 
    font-family="Publico-Light"
    font-weight="300"
    font-stretch="normal"
    units-per-em="2048"
    panose-1="0 0 0 0 0 0 0 0 0 0"
    ascent="1638"
    descent="-410"
    x-height="1034"
    cap-height="1419"
    bbox="-322 -436.002 2044 1839"
    underline-thickness="102"
    underline-position="-102"
    unicode-range="U+0020-FB04"
  />
<missing-glyph horiz-adv-x="423" 
 />
    <glyph glyph-name="ff" unicode="ff" horiz-adv-x="1136" 
d="M614 0v33l62 18q45 15 56 33t11 72v809h-409v-803q0 -57 10 -81t47 -30l86 -18v-33h-430v33l68 18q43 11 55 31t12 78v805h-139v32l139 39v88q0 180 115 292t278 112q80 0 116 -29t36 -68t-26 -63t-66 -22q-80 0 -92 75q-8 49 -35 49q-74 0 -124 -60t-50 -191v-185h409
v115q0 182 120 294t306 111q80 0 119 -30t39 -72q-1 -41 -23 -66t-65 -24q-86 0 -104 86q-7 31 -13 40t-22 9q-84 0 -144 -62t-61 -192v-209h227l-18 -69h-209v-801q0 -55 10 -78t47 -31l107 -22v-33h-445z" />
    <glyph glyph-name="fi" unicode="fi" horiz-adv-x="1060" 
d="M47 0v33l68 18q43 11 55 31t12 78v801h-139v36l139 39v76q0 207 128 322t327 114q98 0 147 -36q50 -36 50 -79q1 -89 -93 -88t-104 87q-4 37 -15 49t-40 12q-248 0 -248 -287v-172h358l197 29l12 -6q-8 -80 -8 -217v-680q0 -60 12 -78t56 -31l67 -18v-33h-420v33l66 18
q43 11 55 31t12 78v698q0 102 -73 103h-334v-799q0 -54 8 -74t41 -29l94 -26v-33h-430z" />
    <glyph glyph-name="fl" unicode="fl" horiz-adv-x="1062" 
d="M608 0v33l66 18q45 15 56 33t11 76v1188h-8q-55 0 -77 26t-28 72q-6 45 -63 45q-231 0 -231 -289v-168h231l-20 -73h-211v-799q0 -53 11 -75t56 -34l76 -20v-33h-430v33l68 18q45 11 56 31t11 78v801h-139v36l139 39v82q0 207 119 319t322 111q147 0 196 -63l68 61
l14 -12q-8 -106 -8 -244v-1130q0 -60 12 -78t56 -31l69 -18v-33h-422z" />
    <glyph glyph-name="ffi" unicode="ffi" horiz-adv-x="1662" 
d="M649 0v33l68 18q43 11 55 31t12 78v805h-409v-803q0 -57 10 -81t47 -30l86 -18v-33h-430v33l68 18q43 11 55 31t12 78v805h-139v32l139 39v88q0 180 115 292t278 112q80 0 116 -29t36 -68t-26 -63t-66 -22q-80 0 -92 75q-8 49 -35 49q-74 0 -124 -60t-50 -191v-185h409
v78q0 207 128 322t327 114q98 0 147 -36q50 -36 50 -79q1 -89 -93 -88t-104 87q-4 37 -15 49t-40 12q-248 0 -248 -287v-172h358l197 29l12 -6q-8 -80 -8 -217v-680q0 -60 12 -78t56 -31l67 -18v-33h-420v33l66 18q43 11 55 31t12 78v698q0 102 -73 103h-334v-799
q0 -54 8 -74t41 -29l94 -26v-33h-430z" />
    <glyph glyph-name="ffl" unicode="ffl" horiz-adv-x="1624" 
d="M608 0v33l68 18q45 11 56 31t11 78v805h-409v-803q0 -57 10 -81t47 -30l86 -18v-33h-430v33l68 18q43 11 55 31t12 78v805h-139v32l139 39v88q0 180 115 292t278 112q80 0 116 -29t36 -68t-26 -63t-66 -22q-80 0 -92 75q-8 49 -35 49q-74 0 -124 -60t-50 -191v-185h409
v84q0 205 121 318t318 112q147 0 198 -65l68 63l14 -12q-8 -106 -8 -244v-1130q0 -60 12 -78t56 -31l69 -18v-33h-422v33l66 18q45 15 56 33t12 76v1188h-11q-55 0 -77 26q-23 26 -29 72q-6 45 -62 45q-229 0 -229 -289v-168h231l-20 -73h-211v-799q0 -53 11 -75t57 -34
l75 -20v-33h-430z" />
    <glyph glyph-name="fj" unicode="fj" horiz-adv-x="1044" 
d="M334 961v-799q0 -54 8 -74t41 -29l94 -26v-33h-430v33l68 18q43 11 55 31t12 78v801h-139v36l139 39v76q0 207 128 322t327 114q98 0 147 -36q50 -36 50 -79q1 -89 -93 -88t-104 87q-4 37 -15 49t-40 12q-248 0 -248 -287v-172h358l199 29l12 -6q-10 -80 -10 -215v-865
q0 -414 -332 -413q-73 0 -109 33t-36 73t24 64q25 22 66 22t60 -16q20 -16 26 -57t15 -51t34 -11q100 0 100 152v1085q0 102 -90 103h-317z" />
    <glyph glyph-name=".notdef" horiz-adv-x="423" 
 />
    <glyph glyph-name=".null" horiz-adv-x="0" 
 />
    <glyph glyph-name="nonmarkingreturn" horiz-adv-x="681" 
 />
    <glyph glyph-name="space" unicode=" " horiz-adv-x="423" 
 />
    <glyph glyph-name="exclam" unicode="!" horiz-adv-x="503" 
d="M259 1438q44 0 76 -32t27 -87l-77 -942h-49l-78 942q-4 57 26 88q31 31 75 31zM367 96q0 -44 -32 -74t-76 -30t-75 31q-30 31 -30 75t30 72q31 29 75 29t76 -30t32 -73z" />
    <glyph glyph-name="quotedbl" unicode="&#x22;" horiz-adv-x="620" 
d="M459 1440q43 0 73 -34t17 -95l-78 -305h-35l-67 305q-12 61 17 95q30 34 73 34zM162 1440q44 0 72 -33t18 -96l-70 -305h-32l-78 305q-14 61 16 95q31 34 74 34z" />
    <glyph glyph-name="numbersign" unicode="#" horiz-adv-x="1060" 
d="M358 541h269l73 344h-268zM170 0l86 414h-188l22 127h195l71 344h-188l22 127h195l86 407h76l-86 -407h268l86 407h74l-86 -407h190l-22 -127h-197l-72 -344h191l-25 -127h-194l-88 -414h-76l86 414h-266l-86 -414h-74z" />
    <glyph glyph-name="dollar" unicode="$" horiz-adv-x="1001" 
d="M213 1122q0 -96 55 -157t193 -129v532q-117 -12 -183 -81t-65 -165zM780 308q0 106 -55 174q-55 67 -197 139v-582q128 15 190 89t62 180zM528 -213h-59v186q-418 6 -418 236q0 90 88 90q51 0 73 -28q22 -27 28 -99t46 -104t183 -31v614q-4 0 -8 4q-205 95 -290 187
t-85 233t104 241t271 116v122h59v-120q174 -2 272 -66t97 -143q0 -86 -90 -86q-49 -1 -71 27t-28 90t-44 88q-38 24 -136 26v-565q221 -105 311 -195t91 -225q0 -183 -117 -289t-277 -121v-188z" />
    <glyph glyph-name="percent" unicode="%" horiz-adv-x="1402" 
d="M1030 16q160 0 160 316t-160 315q-160 1 -160 -315t160 -316zM1339 339q0 -173 -97 -271t-215 -97q-118 0 -212 89t-94 261q0 173 94 273t216 100t215 -91t93 -264zM137 -102l1016 1564h82l-1014 -1564h-84zM373 762q159 0 159 316t-160 315q-160 1 -159 -315
q0 -316 160 -316zM370 717q-118 0 -212 89t-94 261t94 272q94 101 216 101t215 -91t93 -265t-97 -270q-97 -97 -215 -97z" />
    <glyph glyph-name="ampersand" unicode="&#x26;" horiz-adv-x="1302" 
d="M735 1174q0 98 -42 155t-120 57q-79 0 -125 -59t-46 -178t118 -291q215 123 215 316zM539 41q170 0 292 127q-221 276 -415 584q-195 -131 -195 -353q-1 -178 95 -268t223 -90zM512 -27q-138 0 -236 37q-98 38 -144 100q-81 110 -83 246q0 260 338 439q-63 91 -94 159
t-31 146q0 148 92 246t230 98t219 -77q82 -77 82 -191t-81 -195q-81 -80 -253 -166q162 -254 371 -520q90 152 90 309q0 44 -24 64t-73 28l-41 9v34h396v-32l-58 -15q-56 -11 -69 -38t-39 -101q-27 -75 -55 -147t-88 -160q72 -88 129 -152q29 -33 81 -45l58 -14v-35h-260
q-37 43 -99 123q-149 -150 -358 -150z" />
    <glyph glyph-name="quotesingle" unicode="'" horiz-adv-x="323" 
d="M162 1440q43 0 74 -34t16 -95l-74 -305h-33l-73 305q-14 61 16 95q31 34 74 34z" />
    <glyph glyph-name="parenleft" unicode="(" horiz-adv-x="636" 
d="M115 621q0 510 456 903l33 -31q-348 -381 -348 -834q0 -553 348 -915l-33 -29q-333 285 -418 603q-38 140 -38 303z" />
    <glyph glyph-name="parenright" unicode=")" horiz-adv-x="636" 
d="M522 616q0 -510 -456 -903l-33 31q348 381 348 834q0 553 -348 915l33 29q333 -285 418 -603q38 -140 38 -303z" />
    <glyph glyph-name="asterisk" unicode="*" horiz-adv-x="647" 
d="M324 1436q34 0 50 -24q17 -24 9 -56l-49 -185l145 99q35 22 64 14t38 -38t-7 -54t-60 -27l-174 -12l147 -121q25 -20 27 -50t-27 -50q-18 -16 -50 -10t-44 41l-69 176l-70 -176q-12 -35 -44 -41t-50 10q-29 20 -27 50t27 50l147 121l-174 12q-45 2 -60 27q-15 24 -6 54
t37 38q29 8 64 -14l145 -99l-49 185q-8 32 9 56t51 24z" />
    <glyph glyph-name="plus" unicode="+" horiz-adv-x="894" 
d="M397 260v381h-329v86h329v381h101v-381h329v-86h-329v-381h-101z" />
    <glyph glyph-name="comma" unicode="," horiz-adv-x="378" 
d="M160 -2q-35 0 -63 30q-27 30 -27 72t31 72q32 29 83 29t87 -40t36 -102q1 -210 -241 -280l-13 28q150 61 156 205q-14 -14 -49 -14z" />
    <glyph glyph-name="hyphen" unicode="-" horiz-adv-x="540" 
d="M61 537l11 122h407l-8 -122h-410z" />
    <glyph glyph-name="period" unicode="." horiz-adv-x="354" 
d="M283 95q0 -43 -31 -73t-75 -30t-75 30q-30 30 -30 74t30 74q31 31 75 31t75 -31t31 -75z" />
    <glyph glyph-name="slash" unicode="/" horiz-adv-x="755" 
d="M711 1503l-621 -1769h-84l621 1769h84z" />
    <glyph glyph-name="zero" unicode="0" horiz-adv-x="1204" 
d="M604 41q176 0 272 164q95 163 95 487t-94 506q-93 182 -273 182t-274 -169t-94 -491t96 -500q96 -179 272 -179zM599 -25q-99 0 -189 39t-169 119t-126 222t-47 329q0 377 158 568q159 192 373 192t368 -159q78 -81 124 -225t46 -336t-47 -341q-82 -266 -298 -365
q-94 -43 -193 -43z" />
    <glyph glyph-name="one" unicode="1" horiz-adv-x="655" 
d="M72 0v35l110 16q47 6 63 28q15 22 15 81v1071h-180v37q124 20 188 55t127 111l25 -4v-1270q0 -57 13 -80t56 -29l113 -16v-35h-530z" />
    <glyph glyph-name="two" unicode="2" horiz-adv-x="978" 
d="M33 0v82q494 426 633 673q72 128 72 301t-83 250q-82 77 -204 76q-88 0 -119 -24t-37 -82q-13 -121 -107 -121t-94 93q0 92 108 144t282 52t299 -94q124 -94 124 -275t-91 -316q-38 -56 -62 -93q-69 -104 -298 -300q-85 -73 -122 -105t-139 -118v-6h499q84 0 118 28
t89 146h37l-35 -311h-870z" />
    <glyph glyph-name="three" unicode="3" horiz-adv-x="976" 
d="M401 -25q-166 -1 -261 49t-95 142q0 40 26 64q25 24 69 24t64 -25t38 -84q16 -59 46 -83t111 -23q172 0 255 100t83 253t-67 232q-68 79 -236 78h-115v68h95q145 0 213 76q67 76 67 228t-68 233q-69 80 -196 79q-74 0 -108 -24t-41 -96q-12 -102 -99 -103q-90 0 -90 84
q0 93 113 145t250 52q199 0 301 -97t102 -235t-82 -235q-82 -98 -250 -132v-6q186 -14 282 -108t97 -251q0 -157 -131 -281t-373 -124z" />
    <glyph glyph-name="four" unicode="4" horiz-adv-x="1075" 
d="M143 518h488v672h-6l-482 -670v-2zM477 0v35l82 14q43 8 57 31t15 82v262h-592v65l680 930h65v-901h238l-12 -94h-226v-262q0 -57 14 -80t54 -31l90 -16v-35h-465z" />
    <glyph glyph-name="five" unicode="5" horiz-adv-x="960" 
d="M362 -25q-143 1 -230 51t-87 138q0 94 100 94q84 0 105 -96q16 -76 41 -100t92 -23q168 0 266 101q99 100 99 268t-92 248t-253 79q-160 0 -264 -39l-12 11l80 712h518q39 1 56 17t48 84h35l-35 -244h-569l-49 -430q89 31 201 31q203 0 332 -90q67 -46 106 -130t39 -196
q0 -207 -154 -347t-373 -139z" />
    <glyph glyph-name="six" unicode="6" horiz-adv-x="1067" 
d="M573 37q268 0 269 360q0 385 -303 385q-74 0 -157 -28t-136 -68q-2 -39 -2 -74q-1 -575 329 -575zM571 -25q-223 0 -359 163q-136 164 -136 410t63 424t163 275q202 197 427 197q133 0 205 -43t72 -121q0 -84 -86 -84q-47 0 -69 20t-32 73t-34 73t-86 20t-135 -34
q-74 -34 -142 -106q-68 -71 -116 -202t-58 -301q147 121 338 121q192 0 306 -117t114 -319t-134 -326q-134 -123 -301 -123z" />
    <glyph glyph-name="seven" unicode="7" horiz-adv-x="948" 
d="M197 1274q-47 0 -65 -22t-56 -107h-35l33 274h854v-69q-205 -308 -329 -620t-193 -730h-162q91 411 243 712q152 300 318 562h-608z" />
    <glyph glyph-name="eight" unicode="8" horiz-adv-x="1042" 
d="M272 1156q0 -89 56 -160q56 -70 113 -108q130 -87 171 -108q57 51 86 83t59 101t29 150q0 127 -69 197q-70 69 -190 69q-119 0 -187 -68t-68 -156zM217 358q1 -152 91 -236t231 -85q141 0 217 80t75 200q0 151 -220 290q-102 65 -181 112q-213 -154 -213 -361zM530 -27
q-156 0 -305 85q-73 42 -117 116t-45 168q0 211 322 401v7q-141 82 -197 162q-55 81 -55 184q0 147 115 247q114 101 280 101t286 -88t120 -238q0 -102 -75 -187t-208 -177v-4q113 -68 174 -116t107 -119t47 -150q0 -160 -126 -276t-323 -116z" />
    <glyph glyph-name="nine" unicode="9" horiz-adv-x="1069" 
d="M500 1382q-274 0 -274 -370t312 -371q164 0 283 96q2 37 2 72q0 573 -323 573zM358 -25q-132 0 -204 45t-72 121q0 84 94 84q43 1 65 -21q23 -22 33 -73t32 -73t71 -21q176 1 301 153t141 490q-147 -121 -333 -121t-305 113q-120 112 -120 316q1 204 137 330t302 126
q223 0 358 -166t135 -447q1 -428 -183 -642t-452 -214z" />
    <glyph glyph-name="colon" unicode=":" horiz-adv-x="366" 
d="M289 691q0 -43 -31 -73t-75 -30q-45 0 -75 30t-30 73q0 44 31 75t75 31t74 -31q31 -31 31 -75zM289 95q0 -43 -31 -73t-75 -30q-45 0 -75 30t-30 74t31 74q31 31 75 31t74 -31q31 -31 31 -75z" />
    <glyph glyph-name="semicolon" unicode=";" horiz-adv-x="378" 
d="M160 -2q-35 0 -63 30q-27 30 -27 72t31 72q32 29 83 29t87 -40t36 -102q1 -210 -241 -280l-13 28q150 61 156 205q-14 -14 -49 -14zM289 691q0 -43 -31 -73t-75 -30q-45 0 -75 30t-30 73q0 44 31 75t75 31t74 -31q31 -31 31 -75z" />
    <glyph glyph-name="less" unicode="&#x3c;" horiz-adv-x="925" 
d="M838 244l-756 354v84l756 356v-96l-656 -301l656 -301v-96z" />
    <glyph glyph-name="equal" unicode="=" horiz-adv-x="968" 
d="M82 743v86h805v-86h-805zM82 432v84h805v-84h-805z" />
    <glyph glyph-name="greater" unicode="&#x3e;" horiz-adv-x="925" 
d="M88 244v92l655 303l-655 301v98l756 -356v-84z" />
    <glyph glyph-name="question" unicode="?" horiz-adv-x="837" 
d="M328 -8q-43 0 -75 31t-32 73t32 73q32 30 75 30q44 0 76 -30t32 -73q0 -44 -32 -74t-76 -30zM293 381v371q342 127 342 368q0 134 -77 196t-204 62q-23 0 -37 -3t-29 -21q-14 -18 -22 -63t-28 -69t-68 -24q-90 0 -90 88q0 72 82 115t192 43q174 0 286 -102t112 -289
q0 -289 -379 -432v-240h-80z" />
    <glyph glyph-name="at" unicode="@" horiz-adv-x="1665" 
d="M690 188q109 0 273 242l86 432q-25 72 -115 72q-119 0 -224 -180t-106 -418q0 -80 20 -114t66 -34zM770 -252q-310 0 -510 184t-199 488q-1 375 265 636t645 261q299 0 471 -173t172 -405q0 -161 -44 -289q-80 -232 -266 -325q-83 -41 -167 -41q-209 0 -181 252h-8
q-152 -246 -305 -246q-184 0 -184 240q0 270 169 467t322 196q55 0 88 -13t80 -48h10l64 57l25 -12q-31 -82 -54 -209l-65 -383q-18 -115 2 -172t92 -57q117 0 209 133t92 389t-139 420t-402 164q-225 0 -400 -111t-264 -288t-89 -384q-1 -305 159 -479t478 -174
q262 0 454 104v-49q-210 -133 -520 -133z" />
    <glyph glyph-name="A" unicode="A" horiz-adv-x="1280" 
d="M596 1192l-209 -610h424l-205 610h-10zM1286 0h-455v35l46 12q69 18 77 51t-28 144l-95 276h-466l-95 -276q-32 -111 -20 -142t76 -49l59 -16v-35h-391l2 35l63 20q39 12 61 45t66 156l426 1163h82l408 -1192q38 -102 64 -135t71 -45l49 -12v-35z" />
    <glyph glyph-name="B" unicode="B" horiz-adv-x="1179" 
d="M55 1419h510q219 0 345 -80t126 -252q0 -272 -325 -335v-7q403 -29 403 -346q0 -191 -138 -295t-364 -104h-557v35l80 16q47 9 63 29t15 86v1087q0 66 -14 85t-64 30l-80 16v35zM373 764h182q145 0 231 79t86 225t-78 220t-247 74q-104 0 -174 -19v-579zM373 229
q0 -115 40 -143t201 -27q162 0 244 84t82 241t-82 238t-270 80h-215v-473z" />
    <glyph glyph-name="C" unicode="C" horiz-adv-x="1226" 
d="M668 -25q-266 -1 -431 175t-165 548q0 202 56 350t154 232q190 164 466 164q190 0 366 -53l25 -383h-41q-54 162 -100 232t-101 104q-55 32 -172 32q-483 0 -483 -639q0 -360 110 -527t334 -167q218 -1 316 139q43 62 104 252h39l-25 -377q-186 -82 -452 -82z" />
    <glyph glyph-name="D" unicode="D" horiz-adv-x="1349" 
d="M590 61q530 0 530 623q0 342 -124 509t-410 167q-143 0 -213 -19v-1095q0 -119 37 -152t180 -33zM55 0v35l80 16q47 9 63 29t15 86v1087q0 66 -14 85t-64 30l-80 16v35h559q291 0 481 -156q191 -156 191 -526q0 -369 -187 -553t-499 -184h-545z" />
    <glyph glyph-name="E" unicode="E" horiz-adv-x="1159" 
d="M55 0v35l80 16q47 9 63 29t15 86v1087q0 66 -14 85t-64 30l-80 16v35h973l27 -342h-43q-72 166 -88 193q-43 64 -87 78t-215 14t-249 -19v-575h112q129 0 185 13t76 59q22 46 42 151h43v-506h-43q-18 85 -40 141t-68 68q-47 12 -195 13h-112v-451q0 -57 1 -83
q1 -27 12 -55q12 -28 24 -35t54 -17q42 -9 191 -9q149 1 197 15t88 67q53 78 113 267h47l-31 -406h-1014z" />
    <glyph glyph-name="F" unicode="F" horiz-adv-x="1091" 
d="M373 680v-514q0 -68 13 -87t63 -28l108 -16v-35h-502v35l80 16q47 9 63 29t15 86v1087q0 66 -14 85t-64 30l-80 16v35h957l20 -366h-43q-68 178 -94 217q-39 64 -88 78t-193 14t-241 -16v-603h71q158 1 207 15t72 59q8 18 37 146h43v-514h-43q-27 133 -37 159
q-19 48 -65 60t-214 12h-71z" />
    <glyph glyph-name="G" unicode="G" horiz-adv-x="1339" 
d="M1020 406q0 70 -12 88t-64 26l-88 17v34h461v-34l-76 -19q-41 -10 -51 -25t-10 -69v-377q-256 -72 -441 -72q-317 -1 -492 179t-175 540q0 211 59 363q59 151 163 233q195 154 478 154q160 0 377 -53l25 -379h-44q-78 272 -205 338q-52 27 -180 26q-247 0 -377 -146
t-130 -488t120 -521q121 -178 379 -178q156 0 283 61v302z" />
    <glyph glyph-name="H" unicode="H" horiz-adv-x="1417" 
d="M55 0v35l80 16q47 9 63 29t15 86v1087q0 66 -14 85t-64 30l-80 16v35h482v-35l-88 -16q-51 -10 -63 -28t-13 -87v-497h671v497q0 70 -12 87t-65 28l-86 16v35h481v-35l-82 -16q-49 -10 -62 -28t-14 -87v-1087q0 -68 14 -86t62 -29l82 -16v-35h-481v35l86 14q53 7 65 27
t12 90v524h-671v-524q0 -70 12 -88t64 -27l88 -16v-35h-482z" />
    <glyph glyph-name="I" unicode="I" horiz-adv-x="598" 
d="M219 166v1087q0 70 -12 88t-64 27l-88 16v35h488v-35l-88 -16q-51 -8 -63 -26t-13 -89v-1087q0 -70 12 -88t64 -27l88 -16v-35h-488v35l88 16q51 9 63 27t13 88z" />
    <glyph glyph-name="J" unicode="J" horiz-adv-x="589" 
d="M10 -319q-84 1 -132 35t-48 94q0 78 96 77q51 -1 73 -25t31 -63t18 -49t30 -10q141 0 141 328v1185q0 70 -12 88t-64 27l-88 16v35h480v-35l-84 -16q-49 -8 -61 -26t-11 -89v-1138q0 -199 -92 -317q-93 -117 -277 -117z" />
    <glyph glyph-name="K" unicode="K" horiz-adv-x="1226" 
d="M373 1253v-1087q0 -70 12 -88t64 -27l90 -16l-2 -35h-482v35l80 16q47 9 63 29t15 86v1087q0 66 -14 85t-64 30l-80 16v35h482v-35l-88 -16q-51 -10 -63 -28t-13 -87zM905 1307q0 37 -71 57l-72 20v35h424v-35l-53 -12q-47 -12 -79 -38t-106 -107l-381 -428
q100 -168 251 -369q150 -202 220 -276t87 -85t53 -20l53 -14v-35h-264q-135 145 -277 340q-141 195 -246 377v22l428 500q33 39 33 68z" />
    <glyph glyph-name="L" unicode="L" horiz-adv-x="1085" 
d="M55 0v35l80 16q47 9 63 29t15 86v1087q0 66 -14 85t-64 30l-80 16v35h482v-35l-88 -16q-51 -10 -63 -28t-13 -87v-1032q0 -80 13 -110q13 -31 41 -37q75 -17 202 -17q127 1 175 17t91 76q63 78 115 272h47l-25 -422h-977z" />
    <glyph glyph-name="M" unicode="M" horiz-adv-x="1677" 
d="M1622 1419v-35l-82 -16q-49 -10 -62 -28t-14 -87v-1087q0 -68 14 -86t62 -29l82 -16v-35h-481v35l86 14q51 9 64 29t14 88v1122h-9l-454 -1247h-68l-473 1247h-8v-1089q0 -72 13 -101t63 -41l88 -22v-35h-402v35l80 22q45 12 62 42q16 30 16 100v1054q0 66 -14 85t-64 30
l-80 16v35h363l430 -1132h4l412 1132h358z" />
    <glyph glyph-name="N" unicode="N" horiz-adv-x="1359" 
d="M293 1266v-1067q0 -72 13 -101t63 -41l88 -22v-35h-402v35l80 22q45 12 62 42q16 30 16 100v1054q0 66 -14 85t-64 30l-80 16v35h334l696 -1126h7v928q0 73 -14 103t-62 40l-103 20v35h416v-35l-80 -20q-49 -12 -63 -42t-15 -99v-1233h-79l-793 1276h-6z" />
    <glyph glyph-name="O" unicode="O" 
d="M686 43q451 0 451 643q0 299 -114 495t-337 195q-449 0 -448 -655q0 -303 117 -491q118 -187 331 -187zM676 -25q-270 1 -437 187t-167 546t177 548t447 188t438 -193t169 -534q-1 -195 -51 -341q-92 -266 -337 -359q-110 -42 -239 -42z" />
    <glyph glyph-name="P" unicode="P" horiz-adv-x="1105" 
d="M373 166q0 -68 13 -87t63 -28l110 -16v-35h-504v35l80 16q47 9 63 29t15 86v1087q0 66 -14 85t-64 30l-80 16v35h531q231 0 352 -103t121 -298t-136 -317t-364 -121q-94 0 -119 14v39q229 -14 340 74t111 286q0 197 -76 283t-248 86q-116 -1 -194 -19v-1177z" />
    <glyph glyph-name="Q" unicode="Q" 
d="M686 43q451 0 451 643q0 299 -114 495t-337 195q-449 0 -448 -655q0 -303 117 -491q118 -187 331 -187zM1187 -338q-209 0 -418 164q-42 33 -95 78t-96 78q-231 35 -369 219q-137 184 -137 489q0 379 177 566q177 188 447 188t438 -194t169 -524t-131 -510
q-132 -179 -357 -228v-6q274 -223 510 -224q51 0 137 31v-37q-110 -90 -275 -90z" />
    <glyph glyph-name="R" unicode="R" horiz-adv-x="1222" 
d="M498 735q188 0 277 78t89 244q0 165 -74 235t-212 70t-205 -14v-605q66 -8 125 -8zM373 678v-512q0 -70 12 -88t64 -27l90 -16l-2 -35h-482v35l80 16q47 9 63 29t15 86v1087q0 66 -14 85t-64 30l-80 16v35h551q424 0 424 -338q0 -137 -90 -233t-246 -137v-6
q347 -573 444 -636q19 -13 50 -22l45 -12v-35h-254q-258 340 -436 678h-170z" />
    <glyph glyph-name="S" unicode="S" horiz-adv-x="987" 
d="M903 387q1 -180 -117 -297t-322 -117t-384 78l-23 361h47q48 -148 96 -230t111 -110t189 -29q126 0 196 76q68 75 68 189t-70 188t-260 170q-72 37 -104 55t-88 59q-55 41 -81 78q-69 98 -69 239q0 140 109 244q109 105 291 105t319 -53l25 -322h-43q-85 232 -165 282
q-42 26 -139 25q-270 0 -270 -235q1 -115 59 -181t252 -166t284 -187q89 -87 89 -222z" />
    <glyph glyph-name="T" unicode="T" horiz-adv-x="1150" 
d="M715 1360h-60v-1194q1 -70 13 -88t63 -27l88 -16v-35h-487v35l88 16q51 9 63 27t13 88v1194h-60q-158 0 -209 -25t-75 -94q-39 -111 -70 -217h-49l22 395h1041l22 -395h-49q-31 106 -70 217q-25 71 -75 95t-209 24z" />
    <glyph glyph-name="U" unicode="U" horiz-adv-x="1384" 
d="M352 1253v-798q0 -197 93 -291t294 -94q373 0 373 399v762q0 73 -13 99t-63 34l-108 20v35h422v-35l-80 -20q-50 -14 -64 -40t-14 -93v-780q0 -207 -122 -341t-370 -134q-507 -1 -507 487v790q-1 66 -15 85t-63 30l-80 16v35h469v-35l-82 -16q-50 -10 -60 -28t-10 -87z
" />
    <glyph glyph-name="V" unicode="V" horiz-adv-x="1261" 
d="M-6 1419h452v-35l-57 -14q-74 -18 -74 -67q0 -31 35 -129l330 -945h10l314 945q28 86 28 118t-17 49q-17 16 -59 27l-67 16v35h379v-35l-39 -10q-51 -14 -73 -49t-69 -166l-409 -1159h-84l-422 1188q-37 104 -58 136q-22 32 -67 46l-53 14v35z" />
    <glyph glyph-name="W" unicode="W" horiz-adv-x="1873" 
d="M-6 1419h461v-35l-70 -14q-68 -14 -68 -72q0 -39 29 -124l295 -922h10l269 813l-35 104q-41 121 -65 156t-66 45l-60 14v35h455v-35l-62 -12q-66 -12 -65 -78q0 -35 27 -120l297 -922h10l252 899q26 102 26 150t-59 65l-70 18v35h375v-35l-68 -18q-44 -12 -66 -53
t-56 -166l-336 -1147h-78l-318 944h-6l-315 -944h-72l-387 1180q-38 116 -60 148t-65 42l-59 14v35z" />
    <glyph glyph-name="X" unicode="X" horiz-adv-x="1263" 
d="M29 0v35l43 10q53 12 80 38t90 128l305 487l-309 525q-10 16 -40 67t-45 62q-14 11 -44 20l-54 12v35h453v-35l-88 -14q-43 -6 -43 -44t45 -114l233 -399h7l223 399q58 108 31 137q-13 15 -48 23l-57 12v35h354v-35l-45 -10q-46 -12 -74 -43t-81 -119l-269 -456l326 -545
q12 -24 36 -62t30 -44q6 -7 14 -18t14 -15t16 -12t33 -13l60 -12v-35h-455v35l64 8q59 6 59 41t-49 119l-258 434h-6l-261 -436q-82 -131 17 -154l55 -12v-35h-362z" />
    <glyph glyph-name="Y" unicode="Y" horiz-adv-x="1191" 
d="M539 166v403l-363 656q-47 85 -67 109t-62 36l-55 14v35h463v-35l-70 -16q-59 -14 -69 -41t32 -110l305 -566h6l263 549q40 92 30 122t-78 46l-67 16v35h393v-35l-49 -16q-53 -18 -84 -54t-90 -159l-279 -565v-424q0 -70 12 -88t64 -27l88 -16v-35h-487v35l88 16
q51 9 63 27t13 88z" />
    <glyph glyph-name="Z" unicode="Z" horiz-adv-x="1095" 
d="M51 0v59l813 1295v8h-164q-264 0 -341 -15t-113 -77t-88 -221h-41l24 370h895v-57l-805 -1296v-9h148q279 1 378 21t133 82t97 243h45l-33 -403h-948z" />
    <glyph glyph-name="bracketleft" unicode="[" horiz-adv-x="614" 
d="M195 -266v1769h399v-35l-201 -24q-39 -4 -50 -26t-11 -95v-1411q0 -72 11 -94t50 -25l201 -24v-35h-399z" />
    <glyph glyph-name="backslash" unicode="\" horiz-adv-x="755" 
d="M666 -266l-621 1769h84l621 -1769h-84z" />
    <glyph glyph-name="bracketright" unicode="]" horiz-adv-x="614" 
d="M20 -266v35l199 24q39 4 50 26t12 93v1411q1 73 -11 95t-51 26l-199 24v35h400v-1769h-400z" />
    <glyph glyph-name="asciicircum" unicode="^" horiz-adv-x="757" 
d="M104 999l-26 25l272 422h58l274 -422l-29 -25l-278 254z" />
    <glyph glyph-name="underscore" unicode="_" horiz-adv-x="671" 
d="M-4 -362v86h680v-86h-680z" />
    <glyph glyph-name="grave" unicode="`" horiz-adv-x="1024" 
d="M274 1386q0 31 20 54q44 50 120 -2l319 -234l-14 -28l-377 124q-68 27 -68 86z" />
    <glyph glyph-name="a" unicode="a" horiz-adv-x="956" 
d="M207 250q-1 -88 53 -140t141 -51q87 0 147 32t87 79v330l-152 -17q-276 -29 -276 -233zM350 -27q-141 0 -222 68t-81 190q0 211 275 275l313 74v219q0 111 -38 162t-169 51q-72 0 -98 -18t-30 -54q-3 -35 -8 -50q-5 -16 -9 -30q-5 -14 -11 -19t-18 -17t-56 -11
q-44 0 -67 27t-22 63q0 59 64 99q109 67 283 67q175 1 253 -65t77 -195v-651q0 -64 37 -88t117 -29v-27q-56 -39 -138 -39q-150 0 -163 117h-10q-37 -51 -117 -85t-162 -34z" />
    <glyph glyph-name="b" unicode="b" horiz-adv-x="1118" 
d="M520 39q184 0 275 122q90 122 90 390q0 197 -88 307t-246 111q-119 0 -256 -72v-780q96 -78 225 -78zM477 -25q-193 0 -334 74v1292q0 53 -13 69t-64 42l-68 33v33l293 28l12 -12q-8 -109 -8 -244v-176l-4 -164h8q152 117 330 117t298 -117q120 -116 120 -390t-153 -430
t-417 -155z" />
    <glyph glyph-name="c" unicode="c" horiz-adv-x="925" 
d="M532 -25q-225 1 -348 145t-123 376q0 127 37 229q66 182 224 268q134 74 277 74q144 0 213 -45t69 -119q0 -43 -27 -69t-73 -27q-46 0 -65 20q-20 20 -30 79t-33 78t-90 20q-141 0 -236 -112t-95 -344t79 -352q80 -120 251 -120t317 86v-60q-47 -47 -137 -87t-210 -40z
" />
    <glyph glyph-name="d" unicode="d" horiz-adv-x="1144" 
d="M233 518q0 -224 88 -334q87 -110 235 -110t267 73v768q-98 86 -213 86q-377 0 -377 -483zM72 487q0 274 164 427t391 153q113 0 196 -27v306q0 53 -10 68t-47 32l-86 39v33l289 28l12 -12q-6 -80 -6 -244v-1112q0 -53 13 -69t65 -41l61 -29v-27l-278 -37l-13 11l4 106h-8
q-152 -117 -325 -117t-290 107q-60 56 -96 160t-36 245z" />
    <glyph glyph-name="e" unicode="e" horiz-adv-x="993" 
d="M531 1008q-127 0 -209 -100t-93 -294l529 25q0 195 -50 282t-177 87zM542 -25q-232 0 -357 152q-124 152 -124 394q-1 242 139 394t341 152q395 0 389 -502h-703v-6q1 -241 97 -361t264 -120q78 0 148 17t97 29q26 12 80 42v-57q-139 -134 -371 -134z" />
    <glyph glyph-name="f" unicode="f" horiz-adv-x="575" 
d="M766 1443q0 -87 -92 -87q-46 0 -69 18q-22 18 -30 58t-17 50q-9 9 -36 9q-72 0 -130 -65t-58 -199v-193h219l-12 -73h-207v-799q0 -55 10 -77t47 -30l107 -22v-33h-451v33l68 18q43 11 55 31t12 78v801h-139v36l139 39v109q0 184 118 294t292 109q88 0 131 -32t43 -73z
" />
    <glyph glyph-name="g" unicode="g" horiz-adv-x="962" 
d="M438 432q215 0 215 266q0 313 -215 314q-215 0 -215 -277q0 -303 215 -303zM430 -342q158 0 272 61t113 193q0 156 -203 156h-317q-63 -12 -111 -62t-49 -131q0 -217 295 -217zM-27 -154q0 145 230 226v6q-117 47 -117 151t137 199v8q-67 29 -115 106t-49 167
q0 172 116 265t244 93t224 -51q109 92 221 92q49 0 76 -24t27 -62q0 -80 -76 -80q-53 0 -74 47q-20 35 -56 35t-77 -25v-6q133 -80 133 -259t-116 -267t-263 -88q-88 0 -162 31q-74 -45 -73 -113q0 -88 131 -88h309q137 -1 211 -63t74 -179t-105 -234q-123 -134 -445 -134
q-172 -1 -288 69t-117 178z" />
    <glyph glyph-name="h" unicode="h" horiz-adv-x="1150" 
d="M47 0v33l68 18q43 11 55 31t12 78v1181q0 53 -13 69t-65 42l-67 33v33l293 28l12 -12q-8 -106 -8 -244v-176l-4 -172h6q197 125 361 125t224 -65t60 -207v-635q0 -56 12 -76t56 -33l69 -18v-33h-430v33l70 18q45 13 58 31t13 78v600q0 113 -39 158q-40 45 -158 45
t-298 -66v-737q0 -58 13 -78t59 -31l71 -18v-33h-430z" />
    <glyph glyph-name="i" unicode="i" horiz-adv-x="501" 
d="M251 1237q-42 0 -73 33q-31 32 -31 72t31 72t73 32t73 -32q30 -32 30 -72t-30 -72t-73 -33zM47 0v33l68 18q43 11 55 31t12 78v696q0 54 -13 70t-65 41l-55 26v29l281 41l12 -6q-8 -80 -8 -217v-680q0 -60 12 -78t55 -31l68 -18v-33h-422z" />
    <glyph glyph-name="j" unicode="j" horiz-adv-x="489" 
d="M246 1237q-41 0 -72 33q-31 32 -31 72t31 72t73 32q41 0 71 -31t30 -72t-30 -73t-72 -33zM2 -412q-72 0 -108 33t-37 74q1 41 25 63t65 23q41 -1 60 -17t25 -57t16 -51q9 -10 34 -10q100 0 100 151v1059q0 54 -13 70t-65 41l-55 26v29l281 41l12 -6q-8 -80 -8 -215v-842
q0 -220 -91 -316t-241 -96z" />
    <glyph glyph-name="k" unicode="k" horiz-adv-x="1017" 
d="M47 0v33l68 18q43 11 55 31t12 78v1186q0 49 -12 64t-66 42l-67 33v33l293 28l12 -12q-8 -106 -8 -244v-1130q0 -58 13 -78t59 -31l73 -18v-33h-432zM633 1034h328v-33l-54 -18q-57 -18 -90 -43t-92 -88l-231 -256q186 -266 417 -508q35 -35 68 -43l45 -12v-33h-223
q-213 215 -430 522v8l233 271q102 117 103 155q0 20 -39 35l-35 13v30z" />
    <glyph glyph-name="l" unicode="l" horiz-adv-x="501" 
d="M47 0v33l68 18q43 11 55 31t12 78v1186q0 49 -12 64t-66 42l-67 33v33l291 28l14 -12q-8 -106 -8 -244v-1130q0 -60 12 -78t55 -31l68 -18v-33h-422z" />
    <glyph glyph-name="m" unicode="m" horiz-adv-x="1728" 
d="M47 0v33l68 18q43 11 55 31t12 78v696q0 54 -13 70t-65 41l-55 26v29l273 41l14 -6l-4 -113h6q197 123 350 123q106 0 160 -32t80 -97h6q74 40 119 62q139 66 267 67q128 0 183 -66t56 -208v-633q0 -56 12 -76t55 -33l70 -18v-33h-430v33l69 18q45 13 59 31t13 78v598
q0 112 -33 158t-123 47q-152 0 -309 -72q4 -45 4 -94v-637q0 -56 12 -76t56 -33l69 -18v-33h-430v33l70 18q45 13 58 31t14 78v598q0 112 -34 158t-124 47q-131 0 -303 -66v-737q0 -58 13 -78t59 -31l71 -18v-33h-430z" />
    <glyph glyph-name="n" unicode="n" horiz-adv-x="1150" 
d="M981 795v-635q0 -56 12 -76t56 -33l69 -18v-33h-430v33l70 18q45 13 58 31t13 78v600q0 113 -39 158q-40 45 -158 45t-298 -66v-737q0 -58 13 -78t59 -31l71 -18v-33h-430v33l68 18q43 11 55 31t12 78v696q0 54 -13 70t-65 41l-55 26v29l273 41l14 -6l-4 -113h6
q197 123 360 123q163 -1 223 -65t60 -207z" />
    <glyph glyph-name="o" unicode="o" horiz-adv-x="1099" 
d="M559 33q305 1 305 489t-319 488q-309 0 -309 -465q-1 -512 323 -512zM1038 538q0 -256 -145 -410t-353 -155q-208 1 -343 143t-135 397t142 406q144 151 355 151t345 -139q134 -137 134 -393z" />
    <glyph glyph-name="p" unicode="p" horiz-adv-x="1157" 
d="M559 39q184 0 275 122q90 122 90 390q0 197 -87 307t-229 111q-142 0 -274 -72v-780q96 -78 225 -78zM47 -408v33l68 19q43 12 55 31t12 77v1104q0 54 -13 70t-65 41l-55 26v29l273 41l14 -6l-4 -103h8q154 113 330 113t296 -117q120 -116 120 -390t-154 -430
q-152 -156 -416 -155q-92 0 -184 29q2 -66 2 -133v-119q0 -58 14 -78t64 -30l92 -19v-33h-457z" />
    <glyph glyph-name="q" unicode="q" horiz-adv-x="1122" 
d="M233 518q0 -224 88 -334q87 -110 237 -110t265 76v759q-96 92 -213 92q-377 0 -377 -483zM653 -408v33l92 19q49 10 64 29q14 19 14 79v209l2 131h-6q-152 -117 -325 -117t-290 107q-60 56 -96 160t-36 245q0 274 164 427t391 153q147 0 264 -68h6l55 74l23 -6v-1315
q0 -56 12 -76t55 -32l68 -19v-33h-457z" />
    <glyph glyph-name="r" unicode="r" horiz-adv-x="772" 
d="M47 0v33l68 18q43 11 55 31t12 78v696q0 54 -13 70t-65 41l-55 26v29l273 41l14 -10l-4 -117h6q59 55 139 94t148 39q123 0 123 -108q0 -49 -27 -76t-68 -27q-80 0 -96 70q-8 26 -14 32t-29 6t-86 -31q-63 -32 -94 -67v-708q0 -53 10 -75t47 -30l107 -22v-33h-451z" />
    <glyph glyph-name="s" unicode="s" horiz-adv-x="806" 
d="M373 -25q-164 0 -310 52l-4 297h41q51 -133 66 -162q70 -127 209 -127q98 0 162 53q63 53 63 138q0 84 -55 138t-189 109t-208 125q-72 70 -72 194t98 201q98 76 240 76t266 -45l6 -256h-35q-68 145 -82 164q-55 78 -160 78t-157 -47t-53 -125q0 -78 57 -130t194 -108
q136 -56 212 -123q76 -66 75 -174q0 -141 -100 -235t-264 -93z" />
    <glyph glyph-name="t" unicode="t" horiz-adv-x="622" 
d="M384 -25q-226 0 -226 195v791h-146v32q188 53 269 275h28v-234h285l-8 -73h-277v-773q0 -123 135 -122q72 0 164 30v-39q-118 -82 -224 -82z" />
    <glyph glyph-name="u" unicode="u" horiz-adv-x="1132" 
d="M438 -25q-126 0 -196 70t-70 197v622q0 56 -14 76t-62 39l-57 22v31l266 31l19 -16v-771q0 -197 182 -196q139 0 313 76v710q0 56 -13 76t-65 39l-57 20v31l266 31l21 -16v-846q0 -61 15 -85t63 -46l57 -27v-27l-275 -36l-12 8l4 121h-8q-193 -134 -377 -134z" />
    <glyph glyph-name="v" unicode="v" horiz-adv-x="991" 
d="M-16 1034h409v-33l-55 -14q-31 -8 -41 -22t-10 -39t24 -103l224 -608h8l225 608q25 82 23 115t-60 49l-53 14v33h330v-33l-54 -14q-39 -12 -55 -37t-49 -114l-315 -836h-70l-326 856q-25 70 -42 92t-52 33l-61 20v33z" />
    <glyph glyph-name="w" unicode="w" horiz-adv-x="1486" 
d="M-16 1034h411v-33l-55 -14q-31 -8 -41 -22t-10 -43t24 -99l201 -606h6l199 571l-25 68q-35 106 -94 129l-53 16v33h373v-33l-56 -14q-27 -6 -33 -19t-6 -42t27 -103l209 -606h8l199 606q24 82 22 115t-59 49l-53 14v33h325v-33l-53 -14q-39 -12 -55 -38t-47 -113
l-291 -836h-64l-239 690h-4l-240 -690h-70l-303 856q-25 70 -41 92t-51 33l-61 20v33z" />
    <glyph glyph-name="x" unicode="x" horiz-adv-x="1050" 
d="M18 0v33l62 18q55 16 86 45t80 103l205 303l-226 336q-67 96 -89 120t-66 35l-35 8v33h401v-33l-49 -10q-78 -16 -4 -133l166 -262h6l145 256q66 119 -4 135l-61 14v33h346v-33l-63 -16q-45 -12 -71 -40t-79 -111l-176 -279l250 -358q59 -86 91 -117t75 -41l24 -6v-33
h-409v33l55 10q45 8 45 38t-51 107l-183 273h-6l-149 -246q-59 -96 -60 -129q0 -31 66 -45l35 -8v-33h-357z" />
    <glyph glyph-name="y" unicode="y" horiz-adv-x="978" 
d="M154 -420q-70 0 -107 33t-37 82q0 94 99 94q43 0 62 -17q19 -16 31 -48t18 -38q7 -6 22 -8q80 0 155 185l58 139l-318 854q-27 74 -44 94t-56 35l-53 16v33h399v-33l-53 -14q-53 -14 -54 -59q0 -31 27 -103l229 -618h9l217 616q27 80 24 119q-2 29 -59 45l-53 14v33h325
v-33l-61 -16q-33 -8 -47 -33t-49 -116l-336 -906q-80 -219 -148 -278q-82 -72 -200 -72z" />
    <glyph glyph-name="z" unicode="z" horiz-adv-x="903" 
d="M45 0v37l627 936v8h-217q-154 0 -197 -37q-44 -37 -119 -215h-35l11 305h753v-30l-630 -943v-8h184q203 0 255 40q27 19 63 81t69 158h37l-19 -332h-782z" />
    <glyph glyph-name="braceleft" unicode="{" horiz-adv-x="612" 
d="M201 -66q0 56 52 264t52 244q0 70 -56 110t-200 46v49q256 10 256 162q0 35 -52 235t-52 256q0 106 96 154t295 47v-31q-152 -24 -196 -52t-44 -108t38 -246t38 -234t-64 -122t-171 -81v-9q236 -39 235 -208q0 -60 -38 -232t-38 -253t44 -109t196 -52v-30
q-199 -2 -295 46t-96 154z" />
    <glyph glyph-name="bar" unicode="|" horiz-adv-x="454" 
d="M188 -266v1769h78v-1769h-78z" />
    <glyph glyph-name="braceright" unicode="}" horiz-adv-x="612" 
d="M260 -74q0 80 -38 252t-38 232q0 170 236 208v9q-106 27 -171 81t-65 122t38 234q38 165 38 246q0 80 -44 108t-196 52v31q199 2 295 -46t97 -155q0 -57 -52 -257t-53 -234q0 -152 256 -162v-49q-143 -6 -199 -46t-57 -110q0 -38 52 -244t53 -264q0 -106 -96 -154
t-296 -46v30q152 25 196 53q44 29 44 109z" />
    <glyph glyph-name="asciitilde" unicode="~" horiz-adv-x="733" 
d="M250 684q39 0 135 -22t137 -21q68 0 115 86l33 -14q-78 -164 -124 -188q-26 -13 -65 -13t-137 22t-139 21q-62 0 -111 -86l-35 12q73 161 125 189q26 14 66 14z" />
    <glyph glyph-name="nbspace" unicode="&#xa0;" horiz-adv-x="1019" 
 />
    <glyph glyph-name="exclamdown" unicode="&#xa1;" horiz-adv-x="503" 
d="M261 -172q-44 0 -76 32t-27 87l78 942h49l77 -942q4 -57 -26 -88t-75 -31zM261 1274q44 0 75 -31t31 -75t-31 -72t-75 -29q-44 0 -76 30q-31 31 -31 73t31 73q32 31 76 31z" />
    <glyph glyph-name="cent" unicode="&#xa2;" horiz-adv-x="931" 
d="M233 561q0 -430 254 -481v919q-117 -27 -185 -137t-69 -301zM487 -213v190q-203 15 -313 157t-111 379q0 237 124 372t300 170v166h76v-156q12 2 37 2q145 0 214 -45t69 -119q0 -43 -27 -69t-73 -27q-46 0 -65 20q-20 20 -30 79q-10 58 -33 80t-90 22h-2v-936h10
q156 0 308 90v-60q-115 -115 -318 -125v-190h-76z" />
    <glyph glyph-name="sterling" unicode="&#xa3;" horiz-adv-x="1011" 
d="M109 696v64h133q-37 193 -37 264q0 196 135 308t332 112q112 0 188 -40t76 -120q0 -86 -84 -86q-78 0 -102 88q-18 64 -38 80t-81 16q-115 0 -192 -78t-77 -247q0 -80 21 -297h362v-64h-356q12 -160 12 -209q0 -115 -51 -189t-153 -138v-10h534q67 0 93 24t87 135h35
l-61 -309h-848v115q125 61 188 142t64 200q0 63 -33 239h-147z" />
    <glyph glyph-name="yen" unicode="&#xa5;" horiz-adv-x="1107" 
d="M1008 655v-61h-371v-143h371v-62h-371v-223q0 -70 12 -88t64 -27l88 -16v-35h-488v35l88 16q51 9 63 27t13 88v223h-368v62h368v143h-368v61h356l-291 531q-68 126 -87 152t-56 34l-47 12v35h450v-35l-72 -16q-59 -14 -67 -41t33 -113l264 -507h8l234 493q42 96 32 123
t-78 45l-59 16v35h367v-35l-47 -14q-39 -12 -67 -49t-91 -166l-248 -500h365z" />
    <glyph glyph-name="brokenbar" unicode="&#xa6;" horiz-adv-x="454" 
d="M188 674v829h78v-829h-78zM188 -266v784h78v-784h-78z" />
    <glyph glyph-name="section" unicode="&#xa7;" horiz-adv-x="1046" 
d="M866 266q0 60 -20 94t-35 57q-20 30 -240 217q-221 187 -295 300q-94 -57 -94 -180q0 -60 18 -92q18 -31 28 -48q9 -17 39 -44t58 -53t44 -39t53 -45t92 -78q204 -170 266 -267q86 59 86 178zM836 -90q0 -148 -98 -238t-254 -90t-234 45t-78 119q0 39 25 64t67 24
q84 0 94 -86q8 -66 34 -88t89 -20q102 0 156 58q53 58 53 153t-61 171t-207 198q-146 124 -188 163q-138 128 -168 211q-18 49 -19 108q0 162 209 277q-31 68 -31 139q-1 140 103 230t280 90q119 0 194 -43t75 -113q0 -34 -25 -60t-68 -26q-86 0 -102 98q-8 50 -30 68
t-98 18t-129 -58q-52 -58 -52 -153t58 -173t249 -238q192 -162 256 -244t63 -186q0 -156 -194 -285q31 -70 31 -133z" />
    <glyph glyph-name="dieresis" unicode="&#xa8;" horiz-adv-x="987" 
d="M670 1231q-41 0 -70 30q-29 29 -29 69t28 69t71 29q42 0 70 -30q28 -28 28 -68t-28 -70t-70 -29zM317 1231q-41 0 -69 30q-28 29 -29 69q0 40 28 69q29 29 71 29t70 -30q28 -28 28 -68t-29 -70t-70 -29z" />
    <glyph glyph-name="copyright" unicode="&#xa9;" horiz-adv-x="1613" 
d="M797 279q-162 0 -266 104q-103 104 -103 321q0 218 117 324t291 107q131 0 227 -31l10 -240h-37q-34 94 -72 156t-141 61q-250 0 -250 -358q0 -391 234 -391q75 0 107 17q67 35 128 208h35l-12 -225q-106 -53 -268 -53zM1454 705q0 281 -184 475t-466 192
q-282 0 -465 -194t-183 -474t183 -474t465 -195q282 1 466 195t184 475zM1534 705q0 -303 -212 -519t-518 -215q-306 0 -515 214q-209 213 -209 519t209 518t515 212t518 -213t212 -516z" />
    <glyph glyph-name="ordfeminine" unicode="&#xaa;" horiz-adv-x="790" 
d="M305 641q115 0 174 86v246l-112 -15q-197 -23 -197 -176q0 -68 38 -104t97 -37zM274 567q-120 -1 -184 53t-63 146q0 164 219 217l233 59v156q0 96 -29 141q-30 45 -114 45t-97 -35q-5 -13 -9 -43t-9 -45q-4 -15 -22 -31t-52 -16q-78 0 -77 70q0 58 80 104t202 46
t196 -60q73 -60 73 -168v-477q0 -61 34 -80q25 -10 84 -14v-29q-61 -37 -131 -37q-121 0 -125 95h-10q-80 -97 -199 -97z" />
    <glyph glyph-name="guillemotleft" unicode="&#xab;" horiz-adv-x="851" 
d="M748 92l-338 404v43l338 403h63l-240 -424l240 -426h-63zM434 92l-336 404v43l336 403h64l-238 -424l238 -426h-64z" />
    <glyph glyph-name="logicalnot" unicode="&#xac;" horiz-adv-x="1650" 
d="M822 -31q-306 0 -522 217q-216 216 -216 524t216 524t523 216t525 -216t219 -522q0 -306 -219 -525q-220 -218 -526 -218z" />
    <glyph glyph-name="registered" unicode="&#xae;" horiz-adv-x="1613" 
d="M760 721q100 0 145 40t45 134t-34 125t-104 31t-116 -9v-317q33 -4 64 -4zM479 317v35l58 10q20 4 27 16t7 52v557q0 39 -7 51t-27 17l-58 12v35h334q270 0 270 -201q0 -66 -48 -119t-134 -80v-4q119 -211 193 -307q16 -20 57 -33l25 -6v-35h-177q-123 156 -211 353h-92
v-240q0 -41 7 -52t34 -16l58 -10v-35h-316zM807 33q281 -1 465 195t184 477t-184 475t-466 192q-282 0 -465 -194t-183 -474t184 -476t465 -195zM1534 704q0 -304 -211 -518t-517 -215q-306 0 -516 214q-210 213 -210 519t210 518t516 212t517 -213t211 -517z" />
    <glyph glyph-name="macron" unicode="&#xaf;" horiz-adv-x="1007" 
d="M276 1229v110h455v-110h-455z" />
    <glyph glyph-name="degree" unicode="&#xb0;" horiz-adv-x="606" 
d="M303 999q78 -1 126 55t48 136t-49 135t-125 55t-125 -55t-49 -135t48 -136t126 -55zM303 944q-104 0 -174 73t-70 174t70 173t174 72t174 -72t70 -173t-70 -174t-174 -73z" />
    <glyph glyph-name="plusminus" unicode="&#xb1;" horiz-adv-x="1675" 
d="M1427 512l-694 33l164 -135q109 -90 82 -204t-130 -140t-206 53l-586 588v8l588 590q92 92 204 53t130 -141t-82 -205l-164 -135l694 32q129 6 183 -96t1 -205q-55 -102 -184 -96z" />
    <glyph glyph-name="twosuperior" unicode="&#xb2;" horiz-adv-x="542" 
d="M176 1339q-8 -88 -70 -88t-61 72q0 35 58 73q59 38 155 38t168 -58t72 -157q0 -53 -20 -89q-36 -62 -76 -101l-44 -44q-16 -16 -53 -45t-53 -42t-59 -45t-58 -44v-6h238q39 0 56 18t46 84h27l-19 -194h-456v63q155 131 221 208t94 134q29 57 29 127q0 147 -119 148
q-37 -1 -54 -11t-22 -41z" />
    <glyph glyph-name="threesuperior" unicode="&#xb3;" horiz-adv-x="532" 
d="M297 1077q190 -22 190 -177q1 -80 -69 -140t-205 -60q-78 0 -136 31t-59 80q0 61 58 61q51 0 63 -57q11 -47 27 -61t71 -14t93 45q37 46 37 121t-34 112t-120 37h-37v43h41q135 0 135 146t-112 147q-66 0 -74 -48q-12 -82 -68 -81q-27 0 -41 17t-14 40q0 51 58 83
q57 32 151 32t152 -48t58 -117q0 -67 -41 -119q-42 -52 -124 -69v-4z" />
    <glyph glyph-name="acute" unicode="&#xb4;" horiz-adv-x="1024" 
d="M662 1300l-377 -124l-15 28l320 234q72 51 119 2q20 -23 20 -54q1 -59 -67 -86z" />
    <glyph glyph-name="mu" unicode="&#xb5;" horiz-adv-x="1675" 
d="M942 545l-694 -33q-129 -6 -183 96t0 204t183 97l694 -32l-164 135q-109 90 -82 204t129 141q102 28 205 -52l588 -590v-8l-586 -588q-94 -92 -206 -54t-130 140t82 205z" />
    <glyph glyph-name="mu" unicode="&#x3bc;" horiz-adv-x="1675" 
d="M942 545l-694 -33q-129 -6 -183 96t0 204t183 97l694 -32l-164 135q-109 90 -82 204t129 141q102 28 205 -52l588 -590v-8l-586 -588q-94 -92 -206 -54t-130 140t82 205z" />
    <glyph glyph-name="paragraph" unicode="&#xb6;" horiz-adv-x="1046" 
d="M510 -205v924q-37 -4 -57 -4q-205 0 -309 95q-103 95 -103 262t107 257q108 90 309 90h534v-35l-80 -14q-51 -10 -64 -30t-13 -87v-1458h-82v1565h-160v-1565h-82z" />
    <glyph glyph-name="periodcentered" unicode="&#xb7;" horiz-adv-x="378" 
d="M188 588q-42 0 -74 30t-32 74q0 43 32 74t74 31t76 -31q33 -31 33 -74q0 -44 -33 -74t-76 -30z" />
    <glyph glyph-name="cedilla" unicode="&#xb8;" horiz-adv-x="1005" 
d="M520 -256q0 66 -112 76l-11 14l80 166h66l-64 -106q160 -14 160 -127q0 -150 -301 -177v31q182 43 182 123z" />
    <glyph glyph-name="onesuperior" unicode="&#xb9;" horiz-adv-x="393" 
d="M39 711v30l55 11q29 6 37 18t8 49v471h-102v31q127 23 199 106l22 -6v-602q0 -37 8 -49t37 -18l51 -11v-30h-315z" />
    <glyph glyph-name="ordmasculine" unicode="&#xba;" horiz-adv-x="866" 
d="M440 629q229 0 230 360q0 203 -58 297t-181 94q-124 0 -178 -87t-54 -281t58 -288q58 -95 183 -95zM440 1434q168 0 274 -109t105 -309t-113 -323q-112 -122 -279 -122t-273 111q-106 110 -106 312t112 321t280 119z" />
    <glyph glyph-name="guillemotright" unicode="&#xbb;" horiz-adv-x="856" 
d="M356 92l240 424l-240 426h64l338 -403v-43l-338 -404h-64zM41 92l240 424l-240 426h63l336 -403v-43l-336 -404h-63z" />
    <glyph glyph-name="onequarter" unicode="&#xbc;" horiz-adv-x="1167" 
d="M678 260h242v307h-2l-240 -305v-2zM1034 203v-94q0 -37 8 -49t37 -19l51 -10v-31h-311v31l55 10q29 6 37 18t9 50v94h-304v43l361 463h57v-449h96l-6 -57h-90zM35 -102l1016 1564h82l-1014 -1564h-84zM39 711v30l55 11q29 6 37 18t8 49v471h-102v31q127 23 199 106l22 -6
v-602q0 -37 8 -49t37 -18l51 -11v-30h-315z" />
    <glyph glyph-name="onehalf" unicode="&#xbd;" horiz-adv-x="1257" 
d="M891 629q-7 -88 -69 -88t-62 71q0 35 58 73t154 38t169 -58q71 -58 71 -153t-95 -194l-44 -44q-16 -16 -53 -45t-53 -42q-15 -13 -59 -45t-58 -44v-6h237q39 0 57 18t46 85h27l-19 -195h-457v63q155 131 221 208t95 135t28 126q0 147 -118 148q-37 0 -55 -10t-21 -41z
M27 -102l1015 1564h82l-1013 -1564h-84zM39 711v30l55 11q29 6 37 18t8 49v471h-102v31q127 23 199 106l22 -6v-602q0 -37 8 -49t37 -18l51 -11v-30h-315z" />
    <glyph glyph-name="threequarters" unicode="&#xbe;" horiz-adv-x="1230" 
d="M741 260h242v307h-2l-240 -305v-2zM1098 203v-94q0 -37 8 -49t37 -19l51 -10v-31h-311v31l55 10q29 6 37 18t8 50v94h-303v43l360 463h58v-449h96l-6 -57h-90zM98 -102l1016 1564h82l-1014 -1564h-84zM330 1077q190 -22 190 -177q0 -80 -70 -140t-204 -60q-78 0 -136 31
t-59 80q0 61 58 61q51 0 63 -57q12 -47 28 -61t70 -14q55 0 92 45q37 46 37 121t-33 112q-34 37 -120 37h-37v43h41q135 0 135 146t-113 147q-66 0 -73 -48q-12 -82 -68 -81q-27 0 -41 17t-14 40q0 51 58 83t152 32t151 -48q59 -48 59 -117q0 -67 -42 -119t-124 -69v-4z" />
    <glyph glyph-name="questiondown" unicode="&#xbf;" horiz-adv-x="837" 
d="M510 1274q43 0 75 -31q31 -31 31 -74t-32 -73t-74 -29q-43 0 -76 30q-33 31 -33 73t33 73t76 31zM545 885v-371q-342 -127 -342 -369q0 -135 77 -196t203 -62q23 0 37 3q14 4 30 22t22 63q8 45 28 69t68 24q90 0 90 -88q0 -72 -82 -115t-193 -43q-173 0 -285 101
t-112 290q0 289 379 432v240h80z" />
    <glyph glyph-name="Agrave" unicode="&#xc0;" horiz-adv-x="1280" 
d="M815 1524l-377 125q-68 27 -67 86q0 31 20 53q44 49 119 -2l319 -234zM596 1192l-209 -610h424l-205 610h-10zM1286 0h-455v35l46 12q69 18 77 51t-28 144l-95 276h-466l-95 -276q-32 -111 -20 -142t76 -49l59 -16v-35h-391l2 35l63 20q39 12 61 45t66 156l426 1163h82
l408 -1192q38 -102 64 -135t71 -45l49 -12v-35z" />
    <glyph glyph-name="Aacute" unicode="&#xc1;" horiz-adv-x="1280" 
d="M838 1649l-377 -125l-15 28l320 234q35 24 67 24t52 -22t20 -53q1 -59 -67 -86zM596 1192l-209 -610h424l-205 610h-10zM1286 0h-455v35l46 12q69 18 77 51t-28 144l-95 276h-466l-95 -276q-32 -111 -20 -142t76 -49l59 -16v-35h-391l2 35l63 20q39 12 61 45t66 156
l426 1163h82l408 -1192q38 -102 64 -135t71 -45l49 -12v-35z" />
    <glyph glyph-name="Acircumflex" unicode="&#xc2;" horiz-adv-x="1280" 
d="M391 1526l-16 22l250 264h59l252 -264l-16 -22l-269 145zM596 1192l-209 -610h424l-205 610h-10zM1286 0h-455v35l46 12q69 18 77 51t-28 144l-95 276h-466l-95 -276q-32 -111 -20 -142t76 -49l59 -16v-35h-391l2 35l63 20q39 12 61 45t66 156l426 1163h82l408 -1192
q38 -102 64 -135t71 -45l49 -12v-35z" />
    <glyph glyph-name="Atilde" unicode="&#xc3;" horiz-adv-x="1280" 
d="M526 1739q40 0 144 -28q102 -28 135 -28q66 0 115 91l32 -15q-47 -99 -72 -135q-44 -61 -97 -61q-52 -1 -152 27t-135 28q-60 0 -111 -90l-35 12q33 70 50 104q18 34 52 64t74 31zM596 1192l-209 -610h424l-205 610h-10zM1286 0h-455v35l46 12q69 18 77 51t-28 144
l-95 276h-466l-95 -276q-32 -111 -20 -142t76 -49l59 -16v-35h-391l2 35l63 20q39 12 61 45t66 156l426 1163h82l408 -1192q38 -102 64 -135t71 -45l49 -12v-35z" />
    <glyph glyph-name="Adieresis" unicode="&#xc4;" horiz-adv-x="1280" 
d="M827 1559q-41 -1 -69 29t-29 70q0 40 28 68q29 28 71 29q42 0 70 -29q28 -28 28 -68t-29 -70t-70 -29zM475 1559q-41 -1 -69 29t-29 70t27 68t71 29q43 0 71 -29q28 -28 28 -68t-29 -70q-29 -29 -70 -29zM596 1192l-209 -610h424l-205 610h-10zM1286 0h-455v35l46 12
q69 18 77 51t-28 144l-95 276h-466l-95 -276q-32 -111 -20 -142t76 -49l59 -16v-35h-391l2 35l63 20q39 12 61 45t66 156l426 1163h82l408 -1192q38 -102 64 -135t71 -45l49 -12v-35z" />
    <glyph glyph-name="Aring" unicode="&#xc5;" horiz-adv-x="1280" 
d="M653 1550q51 0 83 34t32 87t-32 87t-83 34t-82 -34t-31 -87t32 -87q30 -34 81 -34zM650 1501q-77 0 -125 48t-48 120t51 121t127 49t125 -48t49 -120t-51 -121t-128 -49zM596 1192l-209 -610h424l-205 610h-10zM1286 0h-455v35l46 12q69 18 77 51t-28 144l-95 276h-466
l-95 -276q-32 -111 -20 -142t76 -49l59 -16v-35h-391l2 35l63 20q39 12 61 45t66 156l426 1163h82l408 -1192q38 -102 64 -135t71 -45l49 -12v-35z" />
    <glyph glyph-name="AE" unicode="&#xc6;" horiz-adv-x="1798" 
d="M870 557v715h-6l-387 -715h393zM713 0v35l80 16q47 9 62 29t15 86v326h-430l-131 -246q-69 -128 -42 -164q15 -20 59 -33l57 -14v-35h-397v35l47 14q65 20 99 55t104 158l610 1088q-10 6 -53 18l-91 16v35h965l27 -342h-43q-70 158 -88 191q-43 62 -88 78t-204 16
t-241 -19v-575h94q128 0 184 13t78 59t41 151h43v-506h-43q-17 85 -39 141t-69 68t-195 13h-94v-451q0 -145 37 -172t207 -27q170 1 216 15q48 14 89 67q53 78 113 267h47l-31 -406h-995z" />
    <glyph glyph-name="Ccedilla" unicode="&#xc7;" horiz-adv-x="1226" 
d="M72 698q0 202 56 350t154 232q190 164 466 164q190 0 366 -53l25 -383h-41q-54 162 -100 232t-101 104q-55 32 -172 32q-483 0 -483 -639q0 -360 110 -527t334 -167q218 -1 316 139q43 62 104 252h39l-25 -377q-186 -82 -444 -82l-49 -81q160 -14 159 -127
q0 -150 -301 -177v31q182 43 183 123q0 66 -113 76l-10 14l67 143q-248 19 -394 195t-146 526z" />
    <glyph glyph-name="Egrave" unicode="&#xc8;" horiz-adv-x="1159" 
d="M344 1735q0 31 20 53t53 22q32 0 66 -24l320 -234l-15 -28l-376 125q-68 27 -68 86zM55 0v35l80 16q47 9 63 29t15 86v1087q0 66 -14 85t-64 30l-80 16v35h973l27 -342h-43q-72 166 -88 193q-43 64 -87 78t-215 14t-249 -19v-575h112q129 0 185 13t76 59q22 46 42 151h43
v-506h-43q-18 85 -40 141t-68 68q-47 12 -195 13h-112v-451q0 -57 1 -83q1 -27 12 -55q12 -28 24 -35t54 -17q42 -9 191 -9q149 1 197 15t88 67q53 78 113 267h47l-31 -406h-1014z" />
    <glyph glyph-name="Eacute" unicode="&#xc9;" horiz-adv-x="1159" 
d="M797 1649l-377 -125l-14 28l319 234q35 24 67 24t52 -22t20 -53q1 -59 -67 -86zM55 0v35l80 16q47 9 63 29t15 86v1087q0 66 -14 85t-64 30l-80 16v35h973l27 -342h-43q-72 166 -88 193q-43 64 -87 78t-215 14t-249 -19v-575h112q129 0 185 13t76 59q22 46 42 151h43
v-506h-43q-18 85 -40 141t-68 68q-47 12 -195 13h-112v-451q0 -57 1 -83q1 -27 12 -55q12 -28 24 -35t54 -17q42 -9 191 -9q149 1 197 15t88 67q53 78 113 267h47l-31 -406h-1014z" />
    <glyph glyph-name="Ecircumflex" unicode="&#xca;" horiz-adv-x="1159" 
d="M326 1526l-17 22l250 264h59l252 -264l-16 -22l-268 145zM55 0v35l80 16q47 9 63 29t15 86v1087q0 66 -14 85t-64 30l-80 16v35h973l27 -342h-43q-72 166 -88 193q-43 64 -87 78t-215 14t-249 -19v-575h112q129 0 185 13t76 59q22 46 42 151h43v-506h-43q-18 85 -40 141
t-68 68q-47 12 -195 13h-112v-451q0 -57 1 -83q1 -27 12 -55q12 -28 24 -35t54 -17q42 -9 191 -9q149 1 197 15t88 67q53 78 113 267h47l-31 -406h-1014z" />
    <glyph glyph-name="Edieresis" unicode="&#xcb;" horiz-adv-x="1159" 
d="M762 1559q-41 -1 -70 29q-28 30 -28 70t28 68t70 29q43 0 71 -29q27 -28 27 -68t-28 -70t-70 -29zM410 1559q-41 -1 -70 29t-29 70t28 68t71 29q42 0 70 -29q28 -28 28 -68t-28 -70t-70 -29zM55 0v35l80 16q47 9 63 29t15 86v1087q0 66 -14 85t-64 30l-80 16v35h973
l27 -342h-43q-72 166 -88 193q-43 64 -87 78t-215 14t-249 -19v-575h112q129 0 185 13t76 59q22 46 42 151h43v-506h-43q-18 85 -40 141t-68 68q-47 12 -195 13h-112v-451q0 -57 1 -83q1 -27 12 -55q12 -28 24 -35t54 -17q42 -9 191 -9q149 1 197 15t88 67q53 78 113 267h47
l-31 -406h-1014z" />
    <glyph glyph-name="Igrave" unicode="&#xcc;" horiz-adv-x="598" 
d="M516 1524l-377 125q-68 27 -67 86q0 31 20 53q44 49 119 -2l319 -234zM219 166v1087q0 70 -12 88t-64 27l-88 16v35h488v-35l-88 -16q-51 -8 -63 -26t-13 -89v-1087q0 -70 12 -88t64 -27l88 -16v-35h-488v35l88 16q51 9 63 27t13 88z" />
    <glyph glyph-name="Iacute" unicode="&#xcd;" horiz-adv-x="598" 
d="M459 1649l-377 -125l-14 28l319 234q35 24 67 24t52 -22t20 -53q1 -59 -67 -86zM219 166v1087q0 70 -12 88t-64 27l-88 16v35h488v-35l-88 -16q-51 -8 -63 -26t-13 -89v-1087q0 -70 12 -88t64 -27l88 -16v-35h-488v35l88 16q51 9 63 27t13 88z" />
    <glyph glyph-name="Icircumflex" unicode="&#xce;" horiz-adv-x="598" 
d="M35 1526l-17 22l250 264h60l252 -264l-17 -22l-268 145zM219 166v1087q0 70 -12 88t-64 27l-88 16v35h488v-35l-88 -16q-51 -8 -63 -26t-13 -89v-1087q0 -70 12 -88t64 -27l88 -16v-35h-488v35l88 16q51 9 63 27t13 88z" />
    <glyph glyph-name="Idieresis" unicode="&#xcf;" horiz-adv-x="598" 
d="M475 1559q-41 -1 -69 29t-29 70t27 68t71 29q43 0 71 -29q28 -28 28 -68t-29 -70q-29 -29 -70 -29zM123 1559q-41 -1 -70 29t-29 70t28 68t71 29q43 0 71 -29q28 -28 28 -68t-29 -70q-29 -29 -70 -29zM219 166v1087q0 70 -12 88t-64 27l-88 16v35h488v-35l-88 -16
q-51 -8 -63 -26t-13 -89v-1087q0 -70 12 -88t64 -27l88 -16v-35h-488v35l88 16q51 9 63 27t13 88z" />
    <glyph glyph-name="Eth" unicode="&#xd0;" horiz-adv-x="1349" 
d="M590 61q530 0 530 623q0 342 -124 509t-410 167q-143 0 -213 -19v-591h405v-60h-405v-444q0 -119 37 -152t180 -33zM55 690v60h158v503q0 66 -14 85t-64 30l-80 16v35h559q291 0 481 -156q191 -156 191 -526q0 -369 -187 -553t-499 -184h-545v35l80 16q47 9 63 29t15 86
v524h-158z" />
    <glyph glyph-name="Ntilde" unicode="&#xd1;" horiz-adv-x="1359" 
d="M612 1739q40 0 144 -28q102 -28 135 -28q66 0 115 91l32 -15q-47 -99 -72 -135q-44 -61 -97 -61q-52 -1 -152 27t-135 28q-60 0 -111 -90l-35 12q33 70 50 104q18 34 52 64t74 31zM293 1266v-1067q0 -72 13 -101t63 -41l88 -22v-35h-402v35l80 22q45 12 62 42
q16 30 16 100v1054q0 66 -14 85t-64 30l-80 16v35h334l696 -1126h7v928q0 73 -14 103t-62 40l-103 20v35h416v-35l-80 -20q-49 -12 -63 -42t-15 -99v-1233h-79l-793 1276h-6z" />
    <glyph glyph-name="Ograve" unicode="&#xd2;" 
d="M397 1735q1 31 21 53q45 49 119 -2l319 -234l-14 -28l-377 125q-68 27 -68 86zM686 43q451 0 451 643q0 299 -114 495t-337 195q-449 0 -448 -655q0 -303 117 -491q118 -187 331 -187zM676 -25q-270 1 -437 187t-167 546t177 548t447 188t438 -193t169 -534
q-1 -195 -51 -341q-92 -266 -337 -359q-110 -42 -239 -42z" />
    <glyph glyph-name="Oacute" unicode="&#xd3;" 
d="M887 1649l-377 -125l-14 28l319 234q35 24 67 24t52 -22t20 -53q1 -59 -67 -86zM686 43q451 0 451 643q0 299 -114 495t-337 195q-449 0 -448 -655q0 -303 117 -491q118 -187 331 -187zM676 -25q-270 1 -437 187t-167 546t177 548t447 188t438 -193t169 -534
q-1 -195 -51 -341q-92 -266 -337 -359q-110 -42 -239 -42z" />
    <glyph glyph-name="Ocircumflex" unicode="&#xd4;" 
d="M422 1526l-16 22l249 264h60l252 -264l-17 -22l-268 145zM686 43q451 0 451 643q0 299 -114 495t-337 195q-449 0 -448 -655q0 -303 117 -491q118 -187 331 -187zM676 -25q-270 1 -437 187t-167 546t177 548t447 188t438 -193t169 -534q-1 -195 -51 -341
q-92 -266 -337 -359q-110 -42 -239 -42z" />
    <glyph glyph-name="Otilde" unicode="&#xd5;" 
d="M561 1739q41 0 143 -28t136 -28q66 0 114 91l33 -15q-73 -156 -122 -183q-23 -13 -61 -13q-38 -1 -138 27t-136 28q-59 0 -110 -90l-35 12q33 70 50 104t51 64t75 31zM686 43q451 0 451 643q0 299 -114 495t-337 195q-449 0 -448 -655q0 -303 117 -491q118 -187 331 -187
zM676 -25q-270 1 -437 187t-167 546t177 548t447 188t438 -193t169 -534q-1 -195 -51 -341q-92 -266 -337 -359q-110 -42 -239 -42z" />
    <glyph glyph-name="Odieresis" unicode="&#xd6;" 
d="M862 1559q-42 -1 -70 29t-28 70t28 68t70 29q42 0 71 -29q28 -28 28 -68t-29 -70t-70 -29zM510 1559q-41 -1 -70 29q-28 30 -28 70t28 68t70 29q43 0 71 -29q27 -28 27 -68t-28 -70q-29 -29 -70 -29zM686 43q451 0 451 643q0 299 -114 495t-337 195q-449 0 -448 -655
q0 -303 117 -491q118 -187 331 -187zM676 -25q-270 1 -437 187t-167 546t177 548t447 188t438 -193t169 -534q-1 -195 -51 -341q-92 -266 -337 -359q-110 -42 -239 -42z" />
    <glyph glyph-name="multiply" unicode="&#xd7;" horiz-adv-x="870" 
d="M156 272l-72 72l283 299l-287 303l72 72l284 -303l287 303l65 -72l-286 -303l282 -299l-65 -72l-285 299z" />
    <glyph glyph-name="Oslash" unicode="&#xd8;" 
d="M686 43q451 0 451 643q0 311 -111 496l-612 -1032q110 -107 272 -107zM238 721q0 -334 127 -512l616 1034q-117 133 -295 133q-448 0 -448 -655zM650 -25q-154 0 -292 84l-112 -190h-82l137 231q-229 186 -229 578t177 578q177 187 449 188q190 0 340 -105l92 156h82
l-118 -201q209 -199 209 -577q0 -195 -51 -341q-90 -266 -336 -359q-112 -42 -266 -42z" />
    <glyph glyph-name="Ugrave" unicode="&#xd9;" horiz-adv-x="1384" 
d="M909 1524l-377 125q-68 27 -67 86q0 31 20 53q21 22 53 22t66 -24l320 -234zM352 1253v-798q0 -197 93 -291t294 -94q373 0 373 399v762q0 73 -13 99t-63 34l-108 20v35h422v-35l-80 -20q-50 -14 -64 -40t-14 -93v-780q0 -207 -122 -341t-370 -134q-507 -1 -507 487v790
q-1 66 -15 85t-63 30l-80 16v35h469v-35l-82 -16q-50 -10 -60 -28t-10 -87z" />
    <glyph glyph-name="Uacute" unicode="&#xda;" horiz-adv-x="1384" 
d="M981 1735q0 -59 -68 -86l-376 -125l-15 28l320 234q72 51 119 2q20 -23 20 -53zM352 1253v-798q0 -197 93 -291t294 -94q373 0 373 399v762q0 73 -13 99t-63 34l-108 20v35h422v-35l-80 -20q-50 -14 -64 -40t-14 -93v-780q0 -207 -122 -341t-370 -134q-507 -1 -507 487
v790q-1 66 -15 85t-63 30l-80 16v35h469v-35l-82 -16q-50 -10 -60 -28t-10 -87z" />
    <glyph glyph-name="Ucircumflex" unicode="&#xdb;" horiz-adv-x="1384" 
d="M457 1526l-17 22l250 264h60l251 -264l-16 -22l-268 145zM352 1253v-798q0 -197 93 -291t294 -94q373 0 373 399v762q0 73 -13 99t-63 34l-108 20v35h422v-35l-80 -20q-50 -14 -64 -40t-14 -93v-780q0 -207 -122 -341t-370 -134q-507 -1 -507 487v790q-1 66 -15 85
t-63 30l-80 16v35h469v-35l-82 -16q-50 -10 -60 -28t-10 -87z" />
    <glyph glyph-name="Udieresis" unicode="&#xdc;" horiz-adv-x="1384" 
d="M901 1559q-41 -1 -70 29t-29 70t28 68t71 29q43 0 71 -29q28 -28 28 -68t-29 -70q-29 -29 -70 -29zM549 1559q-41 -1 -70 29t-29 70t28 68t71 29q43 0 71 -29q28 -28 28 -68t-30 -70q-28 -30 -69 -29zM352 1253v-798q0 -197 93 -291t294 -94q373 0 373 399v762
q0 73 -13 99t-63 34l-108 20v35h422v-35l-80 -20q-50 -14 -64 -40t-14 -93v-780q0 -207 -122 -341t-370 -134q-507 -1 -507 487v790q-1 66 -15 85t-63 30l-80 16v35h469v-35l-82 -16q-50 -10 -60 -28t-10 -87z" />
    <glyph glyph-name="Yacute" unicode="&#xdd;" horiz-adv-x="1191" 
d="M852 1649l-377 -125l-14 28l319 234q35 24 67 24t52 -22t21 -53q0 -59 -68 -86zM539 166v403l-363 656q-47 85 -67 109t-62 36l-55 14v35h463v-35l-70 -16q-59 -14 -69 -41t32 -110l305 -566h6l263 549q40 92 30 122t-78 46l-67 16v35h393v-35l-49 -16q-53 -18 -84 -54
t-90 -159l-279 -565v-424q0 -70 12 -88t64 -27l88 -16v-35h-487v35l88 16q51 9 63 27t13 88z" />
    <glyph glyph-name="Thorn" unicode="&#xde;" horiz-adv-x="1099" 
d="M580 1130q481 0 481 -367q0 -183 -137 -295t-357 -112q-76 0 -127 19v33q231 -10 341 68t110 262q0 185 -78 259t-246 74q-117 0 -194 -18v-887q0 -70 12 -88t64 -27l88 -16v-35h-482v35l80 16q47 9 63 29t15 86v1087q0 66 -14 85t-64 30l-80 16v35h482v-35l-88 -16
q-51 -8 -63 -26t-13 -89v-123h207z" />
    <glyph glyph-name="germandbls" unicode="&#xdf;" horiz-adv-x="1155" 
d="M1106 264q0 -128 -95 -202t-235 -74t-209 46q-70 46 -69 103q0 35 21 60q22 25 56 25t51 -8q34 -14 52 -95q10 -39 32 -59t94 -21q72 0 121 47q50 47 50 123q0 129 -203 260q-131 84 -184 142q-53 57 -53 125t62 154q63 86 125 186t62 200t-55 158t-165 59
q-110 0 -170 -76t-60 -207v-1044q0 -66 10 -85t51 -32l56 -16v-33h-404v33l68 18q43 11 55 31t12 78v801h-139v36l139 39v51q0 131 41 227t108 144q131 92 277 91t233 -70q87 -70 87 -176q0 -66 -44 -142t-98 -132q-142 -148 -141 -214q0 -41 41 -88t176 -137
q244 -166 244 -326z" />
    <glyph glyph-name="agrave" unicode="&#xe0;" horiz-adv-x="956" 
d="M645 1176l-377 124q-68 27 -67 86q0 31 20 54q43 50 119 -2l319 -234zM207 250q-1 -88 53 -140t141 -51q87 0 147 32t87 79v330l-152 -17q-276 -29 -276 -233zM350 -27q-141 0 -222 68t-81 190q0 211 275 275l313 74v219q0 111 -38 162t-169 51q-72 0 -98 -18t-30 -54
q-3 -35 -8 -50q-5 -16 -9 -30q-5 -14 -11 -19t-18 -17t-56 -11q-44 0 -67 27t-22 63q0 59 64 99q109 67 283 67q175 1 253 -65t77 -195v-651q0 -64 37 -88t117 -29v-27q-56 -39 -138 -39q-150 0 -163 117h-10q-37 -51 -117 -85t-162 -34z" />
    <glyph glyph-name="aacute" unicode="&#xe1;" horiz-adv-x="956" 
d="M725 1386q0 -59 -68 -86l-376 -124l-15 28l320 234q72 51 119 2q20 -23 20 -54zM207 250q-1 -88 53 -140t141 -51q87 0 147 32t87 79v330l-152 -17q-276 -29 -276 -233zM350 -27q-141 0 -222 68t-81 190q0 211 275 275l313 74v219q0 111 -38 162t-169 51q-72 0 -98 -18
t-30 -54q-3 -35 -8 -50q-5 -16 -9 -30q-5 -14 -11 -19t-18 -17t-56 -11q-44 0 -67 27t-22 63q0 59 64 99q109 67 283 67q175 1 253 -65t77 -195v-651q0 -64 37 -88t117 -29v-27q-56 -39 -138 -39q-150 0 -163 117h-10q-37 -51 -117 -85t-162 -34z" />
    <glyph glyph-name="acircumflex" unicode="&#xe2;" horiz-adv-x="956" 
d="M193 1178l-17 22l250 264h59l252 -264l-16 -22l-268 145zM207 250q-1 -88 53 -140t141 -51q87 0 147 32t87 79v330l-152 -17q-276 -29 -276 -233zM350 -27q-141 0 -222 68t-81 190q0 211 275 275l313 74v219q0 111 -38 162t-169 51q-72 0 -98 -18t-30 -54q-3 -35 -8 -50
q-5 -16 -9 -30q-5 -14 -11 -19t-18 -17t-56 -11q-44 0 -67 27t-22 63q0 59 64 99q109 67 283 67q175 1 253 -65t77 -195v-651q0 -64 37 -88t117 -29v-27q-56 -39 -138 -39q-150 0 -163 117h-10q-37 -51 -117 -85t-162 -34z" />
    <glyph glyph-name="atilde" unicode="&#xe3;" horiz-adv-x="956" 
d="M334 1391q41 0 143 -28t135 -28q66 0 115 90l33 -14q-73 -156 -122 -183q-24 -14 -62 -14t-138 28t-135 28q-59 0 -110 -90l-35 12q33 70 50 104t51 64q34 31 75 31zM207 250q-1 -88 53 -140t141 -51q87 0 147 32t87 79v330l-152 -17q-276 -29 -276 -233zM350 -27
q-141 0 -222 68t-81 190q0 211 275 275l313 74v219q0 111 -38 162t-169 51q-72 0 -98 -18t-30 -54q-3 -35 -8 -50q-5 -16 -9 -30q-5 -14 -11 -19t-18 -17t-56 -11q-44 0 -67 27t-22 63q0 59 64 99q109 67 283 67q175 1 253 -65t77 -195v-651q0 -64 37 -88t117 -29v-27
q-56 -39 -138 -39q-150 0 -163 117h-10q-37 -51 -117 -85t-162 -34z" />
    <glyph glyph-name="adieresis" unicode="&#xe4;" horiz-adv-x="956" 
d="M621 1231q-41 0 -70 30q-29 29 -29 69t28 69t71 29t71 -30q28 -28 27 -68t-29 -70t-69 -29zM268 1231q-42 0 -70 30q-28 29 -28 69t28 69t70 29t71 -30q28 -28 28 -68t-29 -70t-70 -29zM207 250q-1 -88 53 -140t141 -51q87 0 147 32t87 79v330l-152 -17
q-276 -29 -276 -233zM350 -27q-141 0 -222 68t-81 190q0 211 275 275l313 74v219q0 111 -38 162t-169 51q-72 0 -98 -18t-30 -54q-3 -35 -8 -50q-5 -16 -9 -30q-5 -14 -11 -19t-18 -17t-56 -11q-44 0 -67 27t-22 63q0 59 64 99q109 67 283 67q175 1 253 -65t77 -195v-651
q0 -64 37 -88t117 -29v-27q-56 -39 -138 -39q-150 0 -163 117h-10q-37 -51 -117 -85t-162 -34z" />
    <glyph glyph-name="aring" unicode="&#xe5;" horiz-adv-x="956" 
d="M457 1233q51 0 83 34t31 87q0 53 -31 87q-32 34 -83 34t-82 -34t-31 -87t31 -87t82 -34zM454 1184q-77 0 -125 48t-48 120t51 121t127 49t125 -48t49 -120t-51 -121t-128 -49zM207 250q-1 -88 53 -140t141 -51q87 0 147 32t87 79v330l-152 -17q-276 -29 -276 -233z
M350 -27q-141 0 -222 68t-81 190q0 211 275 275l313 74v219q0 111 -38 162t-169 51q-72 0 -98 -18t-30 -54q-3 -35 -8 -50q-5 -16 -9 -30q-5 -14 -11 -19t-18 -17t-56 -11q-44 0 -67 27t-22 63q0 59 64 99q109 67 283 67q175 1 253 -65t77 -195v-651q0 -64 37 -88t117 -29
v-27q-56 -39 -138 -39q-150 0 -163 117h-10q-37 -51 -117 -85t-162 -34z" />
    <glyph glyph-name="ae" unicode="&#xe6;" horiz-adv-x="1525" 
d="M1066 1010q-122 0 -196 -104t-82 -308l488 23q0 203 -44 296t-166 93zM401 59q150 0 285 156q-55 125 -55 311l-142 -14q-135 -14 -209 -80t-73 -168q0 -102 53 -154t141 -51zM197 813q-47 0 -70 27q-23 26 -23 66t37 75q60 57 205 80q55 8 107 8q256 0 305 -151
q116 152 314 152t293 -123q95 -122 95 -400h-672q2 -237 92 -353t228 -116q139 0 233 41q36 14 103 47v-57l-23 -15q-67 -47 -96 -60q-30 -13 -92 -36t-156 -23q-258 0 -366 191h-9q-44 -51 -68 -74q-24 -22 -69 -56q-81 -60 -220 -62q-138 -1 -218 70t-80 194q0 124 92 200
t226 105l266 55v201q0 111 -38 162t-169 51q-72 0 -98 -18t-35 -66l-6 -41q1 -25 -7 -33t-15 -17q-19 -24 -66 -24z" />
    <glyph glyph-name="ccedilla" unicode="&#xe7;" horiz-adv-x="925" 
d="M881 903q0 -43 -27 -69t-73 -27q-46 0 -65 20q-20 20 -30 79t-33 78t-90 20q-141 0 -236 -112t-95 -344t79 -352q80 -120 251 -120t317 86v-60q-47 -47 -137 -87t-210 -40q-23 0 -32 2l-49 -83q160 -14 159 -127q0 -150 -301 -177v31q182 43 183 123q0 66 -113 76l-10 14
l71 150q-182 29 -280 167t-99 345q0 127 37 229q66 182 224 268q134 74 277 74q144 0 213 -45t69 -119z" />
    <glyph glyph-name="egrave" unicode="&#xe8;" horiz-adv-x="993" 
d="M227 1386q1 31 21 54q44 50 119 -2l319 -234l-14 -28l-377 124q-68 27 -68 86zM531 1008q-127 0 -209 -100t-93 -294l529 25q0 195 -50 282t-177 87zM542 -25q-232 0 -357 152q-124 152 -124 394q-1 242 139 394t341 152q395 0 389 -502h-703v-6q1 -241 97 -361t264 -120
q78 0 148 17t97 29q26 12 80 42v-57q-139 -134 -371 -134z" />
    <glyph glyph-name="eacute" unicode="&#xe9;" horiz-adv-x="993" 
d="M737 1300l-377 -124l-14 28l320 234q73 52 118 2q20 -23 21 -54q0 -59 -68 -86zM531 1008q-127 0 -209 -100t-93 -294l529 25q0 195 -50 282t-177 87zM542 -25q-232 0 -357 152q-124 152 -124 394q-1 242 139 394t341 152q395 0 389 -502h-703v-6q1 -241 97 -361
t264 -120q78 0 148 17t97 29q26 12 80 42v-57q-139 -134 -371 -134z" />
    <glyph glyph-name="ecircumflex" unicode="&#xea;" horiz-adv-x="993" 
d="M266 1178l-16 22l250 264h59l252 -264l-16 -22l-269 145zM531 1008q-127 0 -209 -100t-93 -294l529 25q0 195 -50 282t-177 87zM542 -25q-232 0 -357 152q-124 152 -124 394q-1 242 139 394t341 152q395 0 389 -502h-703v-6q1 -241 97 -361t264 -120q78 0 148 17t97 29
q26 12 80 42v-57q-139 -134 -371 -134z" />
    <glyph glyph-name="edieresis" unicode="&#xeb;" horiz-adv-x="993" 
d="M702 1231q-42 0 -70 30q-28 29 -28 69t28 69t70 29t71 -30q28 -28 28 -68t-29 -70t-70 -29zM350 1231q-42 0 -70 30q-28 29 -28 69t28 69t70 29t71 -30q28 -28 28 -68t-29 -70t-70 -29zM531 1008q-127 0 -209 -100t-93 -294l529 25q0 195 -50 282t-177 87zM542 -25
q-232 0 -357 152q-124 152 -124 394q-1 242 139 394t341 152q395 0 389 -502h-703v-6q1 -241 97 -361t264 -120q78 0 148 17t97 29q26 12 80 42v-57q-139 -134 -371 -134z" />
    <glyph glyph-name="igrave" unicode="&#xec;" horiz-adv-x="501" 
d="M-41 1386q1 31 21 54q45 50 118 -2l320 -234l-15 -28l-376 124q-68 27 -68 86zM47 0v33l68 18q43 11 55 31t12 78v696q0 54 -13 70t-65 41l-55 26v29l281 41l12 -6q-8 -80 -8 -217v-680q0 -60 12 -78t55 -31l68 -18v-33h-422z" />
    <glyph glyph-name="iacute" unicode="&#xed;" horiz-adv-x="501" 
d="M471 1300l-377 -124l-14 28l319 234q35 24 67 24t52 -22t21 -54q0 -59 -68 -86zM47 0v33l68 18q43 11 55 31t12 78v696q0 54 -13 70t-65 41l-55 26v29l281 41l12 -6q-8 -80 -8 -217v-680q0 -60 12 -78t55 -31l68 -18v-33h-422z" />
    <glyph glyph-name="icircumflex" unicode="&#xee;" horiz-adv-x="501" 
d="M-33 1178l-16 22l250 264h59l252 -264l-16 -22l-269 145zM47 0v33l68 18q43 11 55 31t12 78v696q0 54 -13 70t-65 41l-55 26v29l281 41l12 -6q-8 -80 -8 -217v-680q0 -60 12 -78t55 -31l68 -18v-33h-422z" />
    <glyph glyph-name="idieresis" unicode="&#xef;" horiz-adv-x="501" 
d="M424 1231q-41 0 -70 30q-28 29 -28 69t27 69q28 29 71 29t71 -30q27 -28 27 -68t-28 -70t-70 -29zM72 1231q-41 0 -70 30q-29 29 -29 69t28 69t71 29q42 0 70 -30q28 -28 28 -68t-28 -70t-70 -29zM47 0v33l68 18q43 11 55 31t12 78v696q0 54 -13 70t-65 41l-55 26v29
l281 41l12 -6q-8 -80 -8 -217v-680q0 -60 12 -78t55 -31l68 -18v-33h-422z" />
    <glyph glyph-name="eth" unicode="&#xf0;" horiz-adv-x="1101" 
d="M559 33q151 0 229 123t78 348q0 512 -321 512q-309 0 -309 -467q-1 -516 323 -516zM1036 594q0 -319 -141 -470t-352 -151q-211 -1 -346 143t-135 400t142 408q144 152 343 151q152 0 246 -92q-41 158 -242 330l-252 -113l-20 51l227 101q-125 100 -275 170l15 34
q195 -70 346 -165l254 114l18 -51l-219 -98q391 -281 391 -762z" />
    <glyph glyph-name="ntilde" unicode="&#xf1;" horiz-adv-x="1150" 
d="M459 1391q41 0 143 -28t135 -28q66 0 115 90l33 -14q-73 -156 -122 -183q-23 -14 -61 -14t-138 28t-136 28q-60 0 -111 -90l-34 12q33 70 50 104t51 64q34 31 75 31zM981 795v-635q0 -56 12 -76t56 -33l69 -18v-33h-430v33l70 18q45 13 58 31t13 78v600q0 113 -39 158
q-40 45 -158 45t-298 -66v-737q0 -58 13 -78t59 -31l71 -18v-33h-430v33l68 18q43 11 55 31t12 78v696q0 54 -13 70t-65 41l-55 26v29l273 41l14 -6l-4 -113h6q197 123 360 123q163 -1 223 -65t60 -207z" />
    <glyph glyph-name="ograve" unicode="&#xf2;" horiz-adv-x="1099" 
d="M276 1386q0 31 20 54q44 50 120 -2l319 -234l-14 -28l-377 124q-68 27 -68 86zM559 33q305 1 305 489t-319 488q-309 0 -309 -465q-1 -512 323 -512zM1038 538q0 -256 -145 -410t-353 -155q-208 1 -343 143t-135 397t142 406q144 151 355 151t345 -139q134 -137 134 -393
z" />
    <glyph glyph-name="oacute" unicode="&#xf3;" horiz-adv-x="1099" 
d="M764 1300l-377 -124l-14 28l319 234q35 24 67 24t52 -22t20 -54q1 -59 -67 -86zM559 33q305 1 305 489t-319 488q-309 0 -309 -465q-1 -512 323 -512zM1038 538q0 -256 -145 -410t-353 -155q-208 1 -343 143t-135 397t142 406q144 151 355 151t345 -139
q134 -137 134 -393z" />
    <glyph glyph-name="ocircumflex" unicode="&#xf4;" horiz-adv-x="1099" 
d="M285 1178l-17 22l250 264h60l251 -264l-16 -22l-268 145zM559 33q305 1 305 489t-319 488q-309 0 -309 -465q-1 -512 323 -512zM1038 538q0 -256 -145 -410t-353 -155q-208 1 -343 143t-135 397t142 406q144 151 355 151t345 -139q134 -137 134 -393z" />
    <glyph glyph-name="otilde" unicode="&#xf5;" horiz-adv-x="1099" 
d="M424 1391q41 0 143 -28t135 -28q66 0 115 90l33 -14q-73 -156 -122 -183q-24 -14 -62 -14t-138 28t-135 28q-59 0 -110 -90l-35 12q33 70 50 104t51 64q34 31 75 31zM559 33q305 1 305 489t-319 488q-309 0 -309 -465q-1 -512 323 -512zM1038 538q0 -256 -145 -410
t-353 -155q-208 1 -343 143t-135 397t142 406q144 151 355 151t345 -139q134 -137 134 -393z" />
    <glyph glyph-name="odieresis" unicode="&#xf6;" horiz-adv-x="1099" 
d="M725 1231q-41 0 -70 30q-29 29 -29 69t28 69t71 29t71 -30q28 -28 28 -68t-30 -70q-28 -30 -69 -29zM373 1231q-41 0 -70 30q-29 29 -29 69t28 69t71 29t71 -30q28 -28 27 -68t-29 -70t-69 -29zM559 33q305 1 305 489t-319 488q-309 0 -309 -465q-1 -512 323 -512z
M1038 538q0 -256 -145 -410t-353 -155q-208 1 -343 143t-135 397t142 406q144 151 355 151t345 -139q134 -137 134 -393z" />
    <glyph glyph-name="divide" unicode="&#xf7;" horiz-adv-x="894" 
d="M68 641v86h759v-86h-759zM444 901q-46 0 -80 33t-34 80t32 79q33 31 81 31t82 -32t34 -78q0 -47 -34 -80t-81 -33zM444 240q-46 0 -80 32t-34 81q0 48 32 80q33 32 81 32t82 -32t34 -79q0 -46 -34 -80t-81 -34z" />
    <glyph glyph-name="oslash" unicode="&#xf8;" horiz-adv-x="1099" 
d="M559 33q301 0 301 448q0 283 -65 402l-447 -779q72 -71 211 -71zM240 567q0 -281 67 -405l445 778q-70 70 -207 70q-303 -1 -305 -443zM1038 532q0 -250 -145 -404t-344 -155q-133 0 -244 58l-92 -162h-74l113 197q-190 141 -191 454q-1 248 143 399t345 150
q139 0 246 -55l79 139h74l-100 -174q190 -141 190 -447z" />
    <glyph glyph-name="ugrave" unicode="&#xf9;" horiz-adv-x="1132" 
d="M274 1386q0 31 20 54q44 50 120 -2l319 -234l-14 -28l-377 124q-68 27 -68 86zM438 -25q-126 0 -196 70t-70 197v622q0 56 -14 76t-62 39l-57 22v31l266 31l19 -16v-771q0 -197 182 -196q139 0 313 76v710q0 56 -13 76t-65 39l-57 20v31l266 31l21 -16v-846q0 -61 15 -85
t63 -46l57 -27v-27l-275 -36l-12 8l4 121h-8q-193 -134 -377 -134z" />
    <glyph glyph-name="uacute" unicode="&#xfa;" horiz-adv-x="1132" 
d="M805 1300l-377 -124l-14 28l319 234q35 24 67 24t52 -22t20 -54q1 -59 -67 -86zM438 -25q-126 0 -196 70t-70 197v622q0 56 -14 76t-62 39l-57 22v31l266 31l19 -16v-771q0 -197 182 -196q139 0 313 76v710q0 56 -13 76t-65 39l-57 20v31l266 31l21 -16v-846
q0 -61 15 -85t63 -46l57 -27v-27l-275 -36l-12 8l4 121h-8q-193 -134 -377 -134z" />
    <glyph glyph-name="ucircumflex" unicode="&#xfb;" horiz-adv-x="1132" 
d="M303 1178l-16 22l250 264h59l252 -264l-17 -22l-268 145zM438 -25q-126 0 -196 70t-70 197v622q0 56 -14 76t-62 39l-57 22v31l266 31l19 -16v-771q0 -197 182 -196q139 0 313 76v710q0 56 -13 76t-65 39l-57 20v31l266 31l21 -16v-846q0 -61 15 -85t63 -46l57 -27v-27
l-275 -36l-12 8l4 121h-8q-193 -134 -377 -134z" />
    <glyph glyph-name="udieresis" unicode="&#xfc;" horiz-adv-x="1132" 
d="M727 1231q-41 0 -70 30q-29 29 -29 69t28 69t71 29t71 -30q28 -28 28 -68t-30 -70q-28 -30 -69 -29zM375 1231q-41 0 -70 30q-29 29 -29 69t28 69t71 29t71 -30q28 -28 27 -68t-29 -70t-69 -29zM438 -25q-126 0 -196 70t-70 197v622q0 56 -14 76t-62 39l-57 22v31l266 31
l19 -16v-771q0 -197 182 -196q139 0 313 76v710q0 56 -13 76t-65 39l-57 20v31l266 31l21 -16v-846q0 -61 15 -85t63 -46l57 -27v-27l-275 -36l-12 8l4 121h-8q-193 -134 -377 -134z" />
    <glyph glyph-name="yacute" unicode="&#xfd;" horiz-adv-x="978" 
d="M713 1300l-377 -124l-14 28l319 234q35 24 67 24t52 -22t20 -54q1 -59 -67 -86zM154 -420q-70 0 -107 33t-37 82q0 94 99 94q43 0 62 -17q19 -16 31 -48t18 -38q7 -6 22 -8q80 0 155 185l58 139l-318 854q-27 74 -44 94t-56 35l-53 16v33h399v-33l-53 -14
q-53 -14 -54 -59q0 -31 27 -103l229 -618h9l217 616q27 80 24 119q-2 29 -59 45l-53 14v33h325v-33l-61 -16q-33 -8 -47 -33t-49 -116l-336 -906q-80 -219 -148 -278q-82 -72 -200 -72z" />
    <glyph glyph-name="thorn" unicode="&#xfe;" horiz-adv-x="1148" 
d="M551 39q184 0 274 122t90 390q0 197 -89 307t-251 111q-117 0 -249 -72v-780q96 -78 225 -78zM37 -408v33l69 19q43 12 56 30q12 18 12 74v1593q0 53 -12 69t-64 42l-69 33v33l293 28l12 -12q-8 -109 -8 -244v-176l-4 -164h6q154 117 332 117t297 -117q120 -116 120 -390
q-1 -274 -153 -430t-416 -155q-92 0 -184 29q2 -66 2 -133v-123q0 -58 14 -76t63 -28l91 -19v-33h-457z" />
    <glyph glyph-name="ydieresis" unicode="&#xff;" horiz-adv-x="978" 
d="M702 1231q-42 0 -70 30q-28 29 -28 69t28 69t70 29t71 -30q28 -28 28 -68t-29 -70t-70 -29zM350 1231q-42 0 -70 30q-28 29 -28 69t28 69t70 29t71 -30q28 -28 28 -68t-29 -70t-70 -29zM154 -420q-70 0 -107 33t-37 82q0 94 99 94q43 0 62 -17q19 -16 31 -48t18 -38
q7 -6 22 -8q80 0 155 185l58 139l-318 854q-27 74 -44 94t-56 35l-53 16v33h399v-33l-53 -14q-53 -14 -54 -59q0 -31 27 -103l229 -618h9l217 616q27 80 24 119q-2 29 -59 45l-53 14v33h325v-33l-61 -16q-33 -8 -47 -33t-49 -116l-336 -906q-80 -219 -148 -278
q-82 -72 -200 -72z" />
    <glyph glyph-name="dotlessi" unicode="&#x131;" horiz-adv-x="501" 
d="M47 0v33l68 18q43 11 55 31t12 78v696q0 54 -13 70t-65 41l-55 26v29l281 41l12 -6q-8 -80 -8 -217v-680q0 -60 12 -78t55 -31l68 -18v-33h-422z" />
    <glyph glyph-name="Lslash" unicode="&#x141;" horiz-adv-x="1081" 
d="M213 1253q0 66 -14 85t-64 30l-80 16v35h482v-35l-88 -16q-51 -10 -63 -28t-13 -87v-518l395 178v-73l-395 -178v-441q0 -79 12 -107t59 -41t180 -13q132 0 180 16t91 74q63 78 115 272h47l-25 -422h-977v35l80 16q47 9 63 29t15 86v424l-186 -84v74l186 84v589z" />
    <glyph glyph-name="lslash" unicode="&#x142;" horiz-adv-x="501" 
d="M182 1339q0 49 -12 65t-66 42l-67 33v32l291 29l14 -12q-8 -106 -8 -244v-381l168 96v-71l-168 -94v-674q0 -60 12 -78t55 -31l68 -18v-33h-422v33l68 18q43 11 55 31t12 78v588l-162 -91v70l162 90v522z" />
    <glyph glyph-name="OE" unicode="&#x152;" horiz-adv-x="1923" 
d="M776 59q113 0 157 35t44 162v950q0 102 -40 129q-39 27 -175 27t-244 -52t-168 -144q-114 -177 -112 -433q-1 -674 538 -674zM752 1419h1040l27 -342h-43q-72 166 -88 193q-43 64 -87 78t-216 14t-248 -19v-575h112q129 0 185 13t76 59q22 46 42 151h43v-506h-43
q-18 85 -40 141t-68 68q-47 12 -195 13h-112v-451q0 -57 1 -83q1 -27 12 -55q12 -28 24 -35t54 -17t191 -9t197 15t88 67q53 78 113 267h47l-31 -406h-1094q-668 0 -667 698q0 346 181 534q182 187 499 187z" />
    <glyph glyph-name="oe" unicode="&#x153;" horiz-adv-x="1779" 
d="M1319 1010q-121 0 -203 -100t-94 -292l510 25q0 191 -46 279t-167 88zM551 33q295 0 295 469q0 260 -75 384t-236 124q-299 0 -299 -463q0 -514 315 -514zM545 -27q-219 1 -351 143t-132 398t140 406t339 149q301 0 399 -246q58 117 158 182t227 64q197 0 295 -121
t96 -391h-696q0 -239 98 -359t252 -120q80 0 118 9t56 13t47 16t38 16q9 2 39 18t32 16v-57q-190 -133 -371 -134q-307 0 -403 246q-54 -121 -154 -185t-227 -63z" />
    <glyph glyph-name="Scaron" unicode="&#x160;" horiz-adv-x="987" 
d="M453 1526l-252 266l16 20l268 -147l260 147l17 -20l-250 -266h-59zM903 387q1 -180 -117 -297t-322 -117t-384 78l-23 361h47q48 -148 96 -230t111 -110t189 -29q126 0 196 76q68 75 68 189t-70 188t-260 170q-72 37 -104 55t-88 59q-55 41 -81 78q-69 98 -69 239
q0 140 109 244q109 105 291 105t319 -53l25 -322h-43q-85 232 -165 282q-42 26 -139 25q-270 0 -270 -235q1 -115 59 -181t252 -166t284 -187q89 -87 89 -222z" />
    <glyph glyph-name="scaron" unicode="&#x161;" horiz-adv-x="806" 
d="M375 1178l-252 266l16 20l269 -147l260 147l16 -20l-250 -266h-59zM373 -25q-164 0 -310 52l-4 297h41q51 -133 66 -162q70 -127 209 -127q98 0 162 53q63 53 63 138q0 84 -55 138t-189 109t-208 125q-72 70 -72 194t98 201q98 76 240 76t266 -45l6 -256h-35
q-68 145 -82 164q-55 78 -160 78t-157 -47t-53 -125q0 -78 57 -130t194 -108q136 -56 212 -123q76 -66 75 -174q0 -141 -100 -235t-264 -93z" />
    <glyph glyph-name="Ydieresis" unicode="&#x178;" horiz-adv-x="1191" 
d="M811 1559q-41 -1 -70 29t-29 70t28 68t71 29q43 0 71 -29q28 -28 28 -68t-29 -70q-29 -29 -70 -29zM459 1559q-41 -1 -70 29t-29 70t28 68t71 29q43 0 71 -29q28 -28 27 -68t-29 -70t-69 -29zM539 166v403l-363 656q-47 85 -67 109t-62 36l-55 14v35h463v-35l-70 -16
q-59 -14 -69 -41t32 -110l305 -566h6l263 549q40 92 30 122t-78 46l-67 16v35h393v-35l-49 -16q-53 -18 -84 -54t-90 -159l-279 -565v-424q0 -70 12 -88t64 -27l88 -16v-35h-487v35l88 16q51 9 63 27t13 88z" />
    <glyph glyph-name="Zcaron" unicode="&#x17d;" horiz-adv-x="1095" 
d="M547 1526l-252 266l16 20l269 -147l260 147l16 -20l-250 -266h-59zM51 0v59l813 1295v8h-164q-264 0 -341 -15t-113 -77t-88 -221h-41l24 370h895v-57l-805 -1296v-9h148q279 1 378 21t133 82t97 243h45l-33 -403h-948z" />
    <glyph glyph-name="zcaron" unicode="&#x17e;" horiz-adv-x="903" 
d="M453 1178l-252 266l16 20l268 -147l260 147l17 -20l-250 -266h-59zM45 0v37l627 936v8h-217q-154 0 -197 -37q-44 -37 -119 -215h-35l11 305h753v-30l-630 -943v-8h184q203 0 255 40q27 19 63 81t69 158h37l-19 -332h-782z" />
    <glyph glyph-name="florin" unicode="&#x192;" horiz-adv-x="768" 
d="M57 727v61h174l37 256q29 199 132 295t235 97q92 0 147 -35t56 -92q0 -88 -88 -88q-43 0 -64 22q-20 23 -28 67t-19 56q-12 12 -37 12q-59 0 -97 -48t-59 -183l-53 -359h205v-61h-213l-102 -704q-31 -211 -125 -317t-188 -105q-94 -1 -141 33q-48 34 -48 75q0 80 80 80
q59 0 76 -65q12 -50 21 -62t34 -12q74 0 96 157l133 920h-164z" />
    <glyph glyph-name="circumflex" unicode="&#x2c6;" horiz-adv-x="970" 
d="M221 1178l-16 22l250 264h59l252 -264l-16 -22l-269 145z" />
    <glyph glyph-name="caron" unicode="&#x2c7;" horiz-adv-x="970" 
d="M457 1178l-252 266l16 20l268 -147l261 147l16 -20l-250 -266h-59z" />
    <glyph glyph-name="breve" unicode="&#x2d8;" horiz-adv-x="985" 
d="M496 1180q-92 0 -155 74q-62 75 -65 161l23 6q19 -57 71 -96t126 -39t122 39t68 96l23 -6q-1 -87 -61 -161t-152 -74z" />
    <glyph glyph-name="dotaccent" unicode="&#x2d9;" horiz-adv-x="1107" 
d="M554 1212q-42 0 -73 33t-31 73t31 72t73 32t73 -32t31 -72t-32 -73q-30 -33 -72 -33z" />
    <glyph glyph-name="ring" unicode="&#x2da;" horiz-adv-x="1007" 
d="M504 1233q51 0 83 34t31 87q0 53 -31 87q-32 34 -83 34t-82 -34t-31 -87t31 -87t82 -34zM501 1184q-77 0 -125 48t-48 120t51 121t127 49t125 -48t49 -120t-51 -121t-128 -49z" />
    <glyph glyph-name="ogonek" unicode="&#x2db;" horiz-adv-x="1060" 
d="M585 -410q-81 0 -135 40t-55 104q0 115 219 266h33q-45 -53 -64 -79q-63 -86 -63 -146q0 -61 31 -89t81 -28t95 23v-33q-61 -58 -142 -58z" />
    <glyph glyph-name="tilde" unicode="&#x2dc;" horiz-adv-x="1011" 
d="M381 1391q41 0 143 -28t135 -28q66 0 115 90l33 -14q-73 -156 -122 -183q-23 -14 -61 -14t-138 28t-136 28q-59 0 -110 -90l-35 12q33 70 50 104t51 64q34 31 75 31z" />
    <glyph glyph-name="hungarumlaut" unicode="&#x2dd;" horiz-adv-x="1017" 
d="M793 1487q81 0 81 -84q0 -43 -51 -74l-270 -158l-23 27l193 248q31 41 70 41zM494 1333l-265 -168l-24 27l184 254q27 41 67 43q40 1 62 -19t24 -62q1 -42 -48 -75z" />
    <glyph glyph-name="pi" unicode="&#x3c0;" horiz-adv-x="403" 
d="M213 1434q45 0 74 -38t8 -100l-113 -329h-37l-30 354q-2 113 98 113z" />
    <glyph glyph-name="endash" unicode="&#x2013;" horiz-adv-x="735" 
d="M82 549v74h571v-74h-571z" />
    <glyph glyph-name="emdash" unicode="&#x2014;" horiz-adv-x="1150" 
d="M82 549v74h987v-74h-987z" />
    <glyph glyph-name="quoteleft" unicode="&#x2018;" horiz-adv-x="372" 
d="M212 1239q28 0 54 -28q26 -29 25 -67q0 -38 -30 -65t-75 -27t-80 39q-35 38 -34 97q0 199 223 258l12 -31q-79 -39 -113 -82t-34 -106q24 12 52 12z" />
    <glyph glyph-name="quoteright" unicode="&#x2019;" horiz-adv-x="372" 
d="M160 1260q-28 0 -52 28q-26 28 -26 66q0 40 30 66t74 26t80 -38q35 -38 35 -97q0 -199 -223 -258l-12 30q80 39 114 82t33 107q-25 -12 -53 -12z" />
    <glyph glyph-name="quotesinglbase" unicode="&#x201a;" horiz-adv-x="372" 
d="M82 111q0 39 30 65t74 27q44 0 80 -38q35 -38 35 -97q0 -199 -223 -258l-12 30q80 39 114 82t33 107q-64 -31 -105 15q-26 28 -26 67z" />
    <glyph glyph-name="quotedblleft" unicode="&#x201c;" horiz-adv-x="694" 
d="M212 1239q28 0 54 -28q26 -29 25 -67q0 -38 -30 -65t-75 -27t-80 39q-35 38 -34 97q0 199 223 258l12 -31q-79 -39 -113 -82t-34 -106q24 12 52 12zM534 1239q28 0 53 -28q25 -29 25 -67t-30 -65t-74 -27q-45 0 -80 39q-35 38 -35 97q0 199 223 258l13 -31
q-80 -39 -114 -82t-34 -106q25 12 53 12z" />
    <glyph glyph-name="quotedblright" unicode="&#x201d;" horiz-adv-x="694" 
d="M482 1260q-28 0 -53 28q-26 28 -26 66q0 40 30 66t75 26t80 -38t35 -97q-1 -199 -224 -258l-12 30q80 39 114 82t34 107q-25 -12 -53 -12zM160 1260q-28 0 -52 28q-26 28 -26 66q0 40 30 66t74 26t80 -38q35 -38 35 -97q0 -199 -223 -258l-12 30q80 39 114 82t33 107
q-25 -12 -53 -12z" />
    <glyph glyph-name="quotedblbase" unicode="&#x201e;" horiz-adv-x="694" 
d="M403 111q0 39 30 65t75 27q45 0 80 -38t35 -97q-1 -199 -224 -258l-12 30q80 39 114 82t34 107q-64 -31 -106 15q-26 28 -26 67zM82 111q0 39 30 65t74 27q44 0 80 -38q35 -38 35 -97q0 -199 -223 -258l-12 30q80 39 114 82t33 107q-64 -31 -105 15q-26 28 -26 67z" />
    <glyph glyph-name="dagger" unicode="&#x2020;" horiz-adv-x="849" 
d="M131 948q-80 0 -80 82t80 82q15 0 105 -31t165 -32q-4 72 -37 177q-34 105 -34 111q0 43 30 72q31 29 64 29q32 0 64 -30t32 -71q0 -6 -34 -111t-37 -177q75 3 165 33t105 30q80 0 80 -82t-80 -82q-15 0 -105 30t-165 32q12 -154 71 -250l-74 -897h-43l-73 897
q63 102 71 250q-75 -2 -165 -32t-105 -30z" />
    <glyph glyph-name="daggerdbl" unicode="&#x2021;" horiz-adv-x="851" 
d="M721 287q80 0 80 -82t-80 -82q-17 0 -107 31t-163 32q3 -72 37 -177t34 -111q0 -43 -30 -72t-64 -29q-32 0 -64 30t-32 71q0 6 34 111t37 177q-77 -2 -165 -32t-115 -31t-49 23t-21 60q0 36 22 58t48 23q25 0 115 -30t165 -32q-8 78 -73 164l80 203h32l80 -203
q-70 -86 -71 -164q73 2 163 32t107 30zM131 948q-80 0 -80 82t80 82q17 0 107 -31t163 -32q-4 72 -37 177q-34 105 -34 111q0 43 30 72q31 29 64 29q32 0 64 -30t32 -71q0 -6 -34 -111t-37 -177q77 3 165 33t115 30t49 -24t21 -59q0 -37 -22 -59t-48 -22q-25 0 -115 30
t-165 32q8 -78 73 -164l-80 -203h-32l-80 203q70 86 71 164q-75 -2 -165 -32t-105 -30z" />
    <glyph glyph-name="bullet" unicode="&#x2022;" horiz-adv-x="665" 
d="M331 412q-95 0 -162 68t-67 168q0 99 66 167t162 68t165 -69t69 -167t-69 -167q-69 -68 -164 -68z" />
    <glyph glyph-name="ellipsis" unicode="&#x2026;" horiz-adv-x="1042" 
d="M971 95q0 -43 -31 -73t-75 -30q-43 0 -75 31t-32 73t32 74q32 31 76 31t74 -31q31 -31 31 -75zM627 95q0 -43 -31 -73t-75 -30t-76 30q-31 30 -31 74t31 74q32 31 76 31t75 -31t31 -75zM283 95q0 -43 -31 -73t-75 -30t-75 30q-30 30 -30 74t30 74q31 31 75 31t75 -31
t31 -75z" />
    <glyph glyph-name="perthousand" unicode="&#x2030;" horiz-adv-x="2107" 
d="M1735 16q159 0 159 316t-160 315q-160 1 -159 -315q0 -316 160 -316zM2044 339q0 -173 -97 -271t-215 -97q-118 0 -212 89t-94 261q0 173 94 273t216 100t215 -91t93 -264zM1030 16q160 0 160 316t-160 315q-160 1 -160 -315t160 -316zM1339 339q0 -173 -97 -271
t-215 -97q-118 0 -212 89t-94 261q0 173 94 273t216 100t215 -91t93 -264zM137 -102l1016 1564h82l-1014 -1564h-84zM373 762q159 0 159 316t-160 315q-160 1 -159 -315q0 -316 160 -316zM370 717q-118 0 -212 89t-94 261t94 272q94 101 216 101t215 -91t93 -265t-97 -270
q-97 -97 -215 -97z" />
    <glyph glyph-name="guilsinglleft" unicode="&#x2039;" horiz-adv-x="540" 
d="M438 92l-340 404v43l340 403h62l-240 -424l240 -426h-62z" />
    <glyph glyph-name="guilsinglright" unicode="&#x203a;" horiz-adv-x="542" 
d="M41 92l240 424l-240 426h63l340 -403v-43l-340 -404h-63z" />
    <glyph glyph-name="fraction" unicode="&#x2044;" horiz-adv-x="458" 
d="M-322 -102l1016 1564h82l-1014 -1564h-84z" />
    <glyph glyph-name="Euro" unicode="&#x20ac;" horiz-adv-x="1128" 
d="M41 799v63h131q25 195 111 330q159 250 446 252q154 0 248 -56t94 -144t-92 -87q-51 0 -74 26q-23 27 -31 93t-40 86q-33 20 -115 20q-352 0 -387 -520h475l-10 -63h-469v-58q0 -80 2 -116h434l-10 -62h-418q47 -487 387 -487q170 0 330 110v-59q-170 -152 -372 -152
t-344 151t-169 437h-127v62h123q-2 23 -2 81t4 93h-125z" />
    <glyph glyph-name="trademark" unicode="&#x2122;" horiz-adv-x="1351" 
d="M168 866v31l53 12q25 4 25 52v425h-6q-51 0 -73 -8t-38 -36t-51 -115h-29l8 192h482l8 -192h-29q-41 100 -55 123q-14 24 -36 30t-71 6h-6v-425q0 -47 23 -52l55 -12v-31h-260zM606 868v29l23 6q31 9 40 25t9 63v348q0 19 -5 25t-22 12l-45 15v28h203l145 -411h9l137 411
h196v-30l-41 -13q-27 -8 -26 -39v-374q0 -31 4 -40t18 -14l45 -12v-29h-229v29l47 14q14 5 18 13t3 39v399h-7l-165 -477h-52l-180 477h-4v-373q0 -45 9 -59t38 -25l27 -8v-29h-195z" />
    <glyph glyph-name="onethird" unicode="&#x2153;" horiz-adv-x="1247" 
d="M1012 367q190 -21 190 -177q0 -80 -69 -141q-70 -59 -205 -59q-78 0 -136 30t-58 86t54 56t66 -58q12 -47 28 -61t70 -14q55 0 92 46t37 121q1 76 -33 112t-120 36h-37v43h41q135 1 135 147t-113 146q-66 0 -73 -47q-12 -82 -68 -82q-27 0 -41 17t-14 40q0 51 58 83
t152 32t151 -48q59 -49 59 -117t-42 -120t-124 -67v-4zM27 -102l1015 1564h82l-1013 -1564h-84zM39 711v30l55 11q29 6 37 18t8 49v471h-102v31q127 23 199 106l22 -6v-602q0 -37 8 -49t37 -18l51 -11v-30h-315z" />
    <glyph glyph-name="twothirds" unicode="&#x2154;" horiz-adv-x="1353" 
d="M1034 -10q-78 0 -136 30t-58 86t54 56t67 -58q12 -47 27 -61q14 -14 70 -14t93 46t37 121q0 76 -34 112t-120 36h-37v43h41q136 1 136 147t-113 146q-66 0 -74 -47q-12 -82 -67 -82q-27 0 -41 17t-15 40q0 51 58 83t152 32t152 -48q58 -49 58 -117t-42 -120t-124 -67v-4
q190 -21 190 -177q0 -80 -69 -140q-70 -60 -205 -60zM133 -102l1016 1564h82l-1014 -1564h-84zM176 1339q-8 -88 -70 -88t-61 72q0 35 58 73q59 38 155 38t168 -58t72 -157q0 -53 -20 -89q-36 -62 -76 -101l-44 -44q-16 -16 -53 -45t-53 -42t-59 -45t-58 -44v-6h238
q39 0 56 18t46 84h27l-19 -194h-456v63q155 131 221 208t94 134q29 57 29 127q0 147 -119 148q-37 -1 -54 -11t-22 -41z" />
    <glyph glyph-name="oneeighth" unicode="&#x215b;" horiz-adv-x="1269" 
d="M1106 549q0 63 -37 99t-96 36t-96 -30t-37 -83t44 -89t154 -83q68 53 68 150zM985 31q70 0 110 35t40 88q-1 53 -51 90t-175 90q-86 -55 -86 -148q0 -155 162 -155zM1223 188q1 -78 -69 -138q-70 -62 -176 -62t-181 49q-76 49 -76 129q0 111 153 182v6q-121 55 -120 168
q0 94 66 148q67 53 161 53q93 0 157 -45t64 -129t-129 -162v-6q74 -37 112 -76t38 -117zM27 -102l1015 1564h82l-1013 -1564h-84zM39 711v30l55 11q29 6 37 18t8 49v471h-102v31q127 23 199 106l22 -6v-602q0 -37 8 -49t37 -18l51 -11v-30h-315z" />
    <glyph glyph-name="threeeighths" unicode="&#x215c;" horiz-adv-x="1341" 
d="M1178 549q0 63 -37 99t-97 36t-96 -30q-37 -30 -37 -83t44 -89t155 -83q68 53 68 150zM1057 31q69 0 109 35t40 88t-50 90t-175 90q-86 -55 -86 -148q0 -155 162 -155zM1050 -12q-106 0 -182 49t-75 129q0 111 153 182v6q-121 54 -121 158t67 158t161 53q94 0 157 -45
q64 -45 64 -129t-129 -162v-6q73 -37 111 -76t38 -117t-69 -139t-175 -61zM98 -102l1016 1564h82l-1014 -1564h-84zM330 1077q190 -22 190 -177q0 -80 -70 -140t-204 -60q-78 0 -136 31t-59 80q0 61 58 61q51 0 63 -57q12 -47 28 -61t70 -14q55 0 92 45q37 46 37 121
t-33 112q-34 37 -120 37h-37v43h41q135 0 135 146t-113 147q-66 0 -73 -48q-12 -82 -68 -81q-27 0 -41 17t-14 40q0 51 58 83t152 32t151 -48q59 -48 59 -117q0 -67 -42 -119t-124 -69v-4z" />
    <glyph glyph-name="fiveeighths" unicode="&#x215d;" horiz-adv-x="1327" 
d="M1030 684q-59 0 -96 -30t-37 -83t44 -89t155 -83q68 53 67 150q0 63 -37 99t-96 36zM1042 31q70 0 110 35t40 88t-50 90t-175 90q-86 -55 -86 -148q-1 -155 161 -155zM1280 188q0 -78 -70 -138q-70 -62 -174 -62q-106 0 -182 49t-76 129q0 111 154 182v6
q-121 54 -121 158t67 158q66 54 160 53q94 0 158 -45t64 -129t-130 -162v-6q74 -37 112 -76t38 -117zM84 -102l1016 1564h82l-1014 -1564h-84zM230 700q-98 0 -148 30q-49 30 -49 77q0 57 61 57q51 0 62 -63q4 -33 19 -45t54 -13q158 0 158 170q0 76 -45 119q-46 43 -108 43
t-142 -18l-16 14l37 348h276q20 0 30 8q9 8 27 48h27l-20 -156h-301l-19 -174q41 16 125 16t156 -54q72 -55 72 -163t-80 -176q-78 -68 -176 -68z" />
    <glyph glyph-name="seveneighths" unicode="&#x215e;" horiz-adv-x="1263" 
d="M1100 549q0 63 -37 99t-96 36t-97 -30t-36 -83q0 -53 44 -89t154 -83q68 53 68 150zM979 31q70 0 110 35q39 35 39 88t-50 90t-175 90q-86 -55 -86 -148q0 -155 162 -155zM1217 188q1 -78 -69 -138q-70 -62 -176 -62t-181 49q-76 49 -76 129q0 111 153 182v6
q-121 55 -120 168q0 94 66 148q67 53 161 53q93 0 157 -45t64 -129t-129 -162v-6q74 -37 112 -76t38 -117zM20 -102l1016 1564h82l-1014 -1564h-84zM164 1321q-25 0 -34 -14t-34 -78h-30l26 190h445v-49q-109 -174 -171 -322t-83 -337h-115q25 193 203 478q25 40 86 132
h-293z" />
    <glyph glyph-name="product" unicode="&#x220f;" horiz-adv-x="690" 
d="M213 1434q45 0 74 -38t8 -100l-113 -329h-35l-32 354q-2 113 98 113zM532 1434q43 0 72 -38t8 -100l-110 -329h-37l-31 354q-6 113 98 113z" />
    <glyph glyph-name="minus" unicode="&#x2212;" horiz-adv-x="894" 
d="M68 641v86h759v-86h-759z" />
    <glyph glyph-name="filledbox" unicode="&#x25a0;" horiz-adv-x="1896" 
d="M238 0v1419h1421v-1419h-1421z" />
    <glyph glyph-name="H22073" unicode="&#x25a1;" horiz-adv-x="1896" 
d="M332 90h1233v1243h-1233v-1243zM238 0v1419h1421v-1419h-1421z" />
    <glyph glyph-name="triagup" unicode="&#x25b2;" horiz-adv-x="1697" 
d="M1597 0h-1493v29l725 1454h41l727 -1454v-29z" />
    <glyph glyph-name="uni25B3" unicode="&#x25b3;" horiz-adv-x="1761" 
d="M1565 86l-619 1223l-614 -1223h1233zM1696 0h-1493v29l735 1454h20l738 -1454v-29z" />
    <glyph glyph-name="uni25B7" unicode="&#x25b7;" horiz-adv-x="1761" 
d="M332 92l1165 619l-1165 618v-1237zM238 -37v1493h28l1393 -735v-21l-1393 -737h-28z" />
    <glyph glyph-name="triagrt" unicode="&#x25ba;" horiz-adv-x="1761" 
d="M238 -37v1493h28l1393 -735v-21l-1393 -737h-28z" />
    <glyph glyph-name="triagdn" unicode="&#x25bc;" horiz-adv-x="1697" 
d="M102 1419h1493v-28l-725 -1454h-41l-727 1454v28z" />
    <glyph glyph-name="uni25BD" unicode="&#x25bd;" horiz-adv-x="1761" 
d="M332 1333l618 -1222l615 1222h-1233zM201 1419h1493v-28l-736 -1454h-20l-737 1454v28z" />
    <glyph glyph-name="uni25C1" unicode="&#x25c1;" horiz-adv-x="1761" 
d="M264 711l1166 -619v1237zM1524 1456v-1493h-29l-1393 737v21l1393 735h29z" />
    <glyph glyph-name="triaglf" unicode="&#x25c4;" horiz-adv-x="1761" 
d="M1524 1456v-1493h-29l-1393 737v21l1393 735h29z" />
    <glyph glyph-name="circle" unicode="&#x25cb;" horiz-adv-x="1650" 
d="M822 55q269 0 459 193q189 193 189 463t-189 461q-189 192 -459 192t-455 -190q-187 -190 -187 -462t186 -464q186 -193 456 -193zM822 -31q-306 0 -522 217q-216 216 -216 524t216 524t523 216t525 -216t219 -522q0 -306 -219 -525q-220 -218 -526 -218z" />
    <glyph glyph-name="uni2605" unicode="&#x2605;" horiz-adv-x="1703" 
d="M469 111l385 286l381 -286l-156 454l389 266h-469l-147 453l-147 -453h-467l387 -266zM29 907h622l193 596h16l195 -596h620v-16l-497 -356l194 -592l-14 -9l-506 361l-506 -365l-14 9l196 596l-499 356v16z" />
    <glyph glyph-name="uni2606" unicode="&#x2606;" horiz-adv-x="1703" 
d="M29 907h622l193 596h16l195 -596h620v-16l-497 -356l194 -592l-14 -9l-506 361l-506 -365l-14 9l196 596l-499 356v16z" />
    <glyph glyph-name="R.alt" horiz-adv-x="1226" 
d="M498 731q362 0 362 309q0 182 -73 252t-210 70t-204 -14v-609l123 -8h2zM373 672v-506q0 -70 12 -88t64 -27l90 -16l-2 -35h-482v35l80 16q47 9 63 29t15 86v1087q0 66 -14 85t-64 30l-80 16v35h523q220 0 334 -93t114 -271q0 -139 -99 -235t-300 -128v-6q91 -27 159 -87
t125 -171t85 -165q27 -54 43 -76q16 -23 28 -41q56 -82 121 -99l49 -12v-35h-279q-43 76 -120 237q-78 161 -107 214q-72 141 -119 181t-163 40h-76z" />
    <glyph glyph-name="germandbls.alt" horiz-adv-x="1155" 
d="M770 -12q-145 0 -238 32v271h35q43 -102 56 -129q57 -123 168 -123q82 0 133 48t51 122q0 129 -203 260q-131 84 -184 142q-53 57 -53 125t62 154q63 86 125 186t62 200t-55 158t-165 59q-110 0 -170 -76t-60 -207v-1044q0 -66 9 -84t52 -33l49 -16v-33h-397v33l68 18
q43 11 55 31t12 78v801h-139v36l139 39v51q0 131 41 227t108 144q131 92 277 91t233 -70q87 -70 87 -176q0 -66 -44 -142t-98 -132q-142 -148 -141 -214q0 -41 41 -88t176 -137q244 -166 244 -326q0 -127 -95 -202q-96 -74 -241 -74z" />
    <glyph glyph-name="registered.alt" horiz-adv-x="806" 
d="M352 1065h41q80 0 80 81t-76 81h-45v-162zM403 733q135 0 224 95q88 96 88 234t-88 232q-87 94 -223 94t-223 -94t-87 -232t87 -234t222 -95zM403 688q-154 0 -258 109t-104 265t104 264t258 108q153 0 259 -109t106 -263t-106 -264t-259 -110zM233 877v22l29 6
q16 4 17 31v260q0 29 -17 33l-26 6v22h167q143 0 144 -100q0 -74 -78 -96v-4q41 -82 82 -137q10 -14 47 -21v-22h-100q-47 61 -95 159h-51v-100q0 -27 17 -31l28 -6v-22h-164z" />
    <glyph glyph-name="zero.numerator" horiz-adv-x="690" 
d="M506 1067q0 317 -163 317t-163 -318t164 -316q162 0 162 317zM645 1071q0 -183 -96 -277t-209 -94t-204 90t-91 270q0 181 96 277q96 97 207 97t204 -90t93 -273z" />
    <glyph glyph-name="one.numerator" horiz-adv-x="393" 
d="M39 711v30l55 11q29 6 37 18t8 49v471h-102v31q127 23 199 106l22 -6v-602q0 -37 8 -49t37 -18l51 -11v-30h-315z" />
    <glyph glyph-name="two.numerator" horiz-adv-x="542" 
d="M176 1339q-8 -88 -70 -88t-61 72q0 35 58 73q59 38 155 38t168 -58t72 -157q0 -53 -20 -89q-36 -62 -76 -101l-44 -44q-16 -16 -53 -45t-53 -42t-59 -45t-58 -44v-6h238q39 0 56 18t46 84h27l-19 -194h-456v63q155 131 221 208t94 134q29 57 29 127q0 147 -119 148
q-37 -1 -54 -11t-22 -41z" />
    <glyph glyph-name="three.numerator" horiz-adv-x="532" 
d="M297 1077q190 -22 190 -177q1 -80 -69 -140t-205 -60q-78 0 -136 31t-59 80q0 61 58 61q51 0 63 -57q11 -47 27 -61t71 -14t93 45q37 46 37 121t-34 112t-120 37h-37v43h41q135 0 135 146t-112 147q-66 0 -74 -48q-12 -82 -68 -81q-27 0 -41 17t-14 40q0 51 58 83
q57 32 151 32t152 -48t58 -117q0 -67 -41 -119q-42 -52 -124 -69v-4z" />
    <glyph glyph-name="four.numerator" horiz-adv-x="565" 
d="M78 971h241v307h-2l-239 -305v-2zM434 913v-94q0 -37 8 -49t37 -18l51 -11v-30h-311v30l55 11q29 6 37 18t8 49v94h-303v43l361 463h57v-448h96l-6 -58h-90z" />
    <glyph glyph-name="five.numerator" horiz-adv-x="524" 
d="M230 700q-98 0 -148 30q-49 30 -49 77q0 57 61 57q51 0 62 -63q4 -33 19 -45t54 -13q158 0 158 170q0 76 -45 119q-46 43 -108 43t-142 -18l-16 14l37 348h276q20 0 30 8q9 8 27 48h27l-20 -156h-301l-19 -174q41 16 125 16t156 -54q72 -55 72 -163t-80 -176
q-78 -68 -176 -68z" />
    <glyph glyph-name="six.numerator" horiz-adv-x="595" 
d="M164 1020q0 -135 30 -208t100 -73q72 0 107 45t35 121q0 184 -141 185q-63 0 -131 -46v-24zM296 700q-106 0 -178 85t-73 231q0 207 101 312t231 106q72 0 115 -25t43 -72q0 -55 -60 -55q-45 0 -61 66q-12 47 -49 47q-73 0 -133 -82t-66 -234q72 59 169 59t157 -54
q60 -56 59 -158q0 -102 -74 -164q-75 -62 -181 -62z" />
    <glyph glyph-name="seven.numerator" horiz-adv-x="507" 
d="M119 1321q-25 0 -34 -14t-34 -78h-31l27 190h445v-49q-109 -174 -171 -322t-83 -337h-115q25 193 203 478q25 40 86 132h-293z" />
    <glyph glyph-name="eight.numerator" horiz-adv-x="595" 
d="M299 1395q-59 0 -96 -30t-37 -83t44 -89t155 -83q68 53 67 150q0 63 -37 99t-96 36zM311 741q70 0 110 35t40 88t-50 90t-175 90q-86 -55 -86 -147q-1 -156 161 -156zM549 899q1 -77 -69 -139t-176 -62t-181 50q-76 50 -76 129q0 111 154 182v6q-121 55 -121 159t66 156
q67 54 161 54q93 0 157 -45t64 -129t-129 -162v-6q74 -37 112 -76t38 -117z" />
    <glyph glyph-name="nine.numerator" horiz-adv-x="595" 
d="M301 1044q70 0 131 46v26q0 135 -30 207t-101 72t-106 -44t-35 -120q0 -187 141 -187zM215 700q-70 0 -113 25t-43 72q0 55 62 55q43 0 59 -66q12 -47 49 -47q84 0 143 79q58 79 58 235q-74 -57 -167 -57t-155 56q-62 58 -62 158t72 162t178 62t180 -85t75 -233
q-1 -216 -97 -316t-239 -100z" />
    <glyph glyph-name="zero.denominator" horiz-adv-x="690" 
d="M506 356q0 318 -163 318t-163 -318t164 -317q162 -1 162 317zM645 361q0 -183 -96 -277t-209 -94t-204 89t-91 271t96 278t207 95q111 0 204 -90t93 -272z" />
    <glyph glyph-name="one.denominator" horiz-adv-x="393" 
d="M39 0v31l55 10q29 6 37 18t8 50v471h-102v30q127 23 199 107l22 -6v-602q0 -37 8 -49t37 -19l51 -10v-31h-315z" />
    <glyph glyph-name="two.denominator" horiz-adv-x="542" 
d="M176 629q-8 -88 -70 -88t-61 71q0 35 58 73q59 38 155 38t168 -58t72 -157q0 -91 -90 -183q-63 -65 -102 -95q-38 -30 -54 -43t-59 -45t-58 -44v-6h238q39 0 56 18t46 85h27l-19 -195h-456v63q155 131 221 208t94 135t29 126q0 147 -119 148q-37 0 -54 -10t-22 -41z" />
    <glyph glyph-name="three.denominator" horiz-adv-x="532" 
d="M297 367q190 -21 190 -177q0 -80 -69 -141q-70 -59 -205 -59q-78 0 -136 30q-59 30 -59 86t54 56t67 -58q11 -47 27 -61t71 -14t93 46q37 46 37 121q0 76 -34 112t-120 36h-37v43h41q135 1 135 147t-112 146q-66 0 -74 -47q-12 -82 -68 -82q-27 0 -41 17t-14 40
q0 51 58 83q57 32 151 32t152 -48q58 -49 58 -117t-41 -120q-42 -52 -124 -67v-4z" />
    <glyph glyph-name="four.denominator" horiz-adv-x="565" 
d="M78 260h241v307h-2l-239 -305v-2zM434 203v-94q0 -37 8 -49t37 -19l51 -10v-31h-311v31l55 10q29 6 37 18t8 50v94h-303v43l361 463h57v-449h96l-6 -57h-90z" />
    <glyph glyph-name="five.denominator" horiz-adv-x="524" 
d="M230 -10q-98 0 -148 30q-49 30 -49 76q0 58 56 58t67 -64q4 -33 19 -45t54 -12q158 0 158 170q0 76 -45 119q-46 43 -108 43t-142 -19l-16 14l37 349h276q20 0 30 8q9 8 27 47h27l-20 -156h-301l-19 -174q41 16 125 16t156 -54t72 -162t-79 -177q-79 -67 -177 -67z" />
    <glyph glyph-name="six.denominator" horiz-adv-x="595" 
d="M164 309q0 -135 30 -207t100 -73q72 0 107 45t35 121q0 184 -141 184q-63 0 -131 -45v-25zM335 428q97 0 157 -55t59 -157q0 -102 -74 -164q-75 -62 -181 -62t-178 85t-73 230q0 207 101 312t231 106q72 0 115 -25t43 -71q0 -55 -60 -56q-45 0 -61 66q-12 47 -49 47
q-73 0 -133 -82t-66 -233q72 59 169 59z" />
    <glyph glyph-name="seven.denominator" horiz-adv-x="507" 
d="M119 610q-25 0 -34 -14t-34 -78h-31l27 191h445v-50q-109 -174 -171 -322t-83 -337h-115q21 160 108 315q88 155 181 295h-293z" />
    <glyph glyph-name="eight.denominator" horiz-adv-x="595" 
d="M299 684q-59 0 -96 -30t-37 -83t44 -89t155 -83q68 53 67 150q0 63 -37 99t-96 36zM311 31q70 0 110 35t40 88t-50 90t-175 90q-86 -55 -86 -148q-1 -155 161 -155zM549 188q1 -78 -69 -138q-70 -62 -176 -62t-181 49q-76 49 -76 129q0 111 154 182v6q-121 54 -121 158
t66 158q67 53 161 53q93 0 157 -45t64 -129t-129 -162v-6q74 -37 112 -76t38 -117z" />
    <glyph glyph-name="nine.denominator" horiz-adv-x="595" 
d="M301 334q70 0 131 45v27q0 134 -30 206t-101 72t-106 -44t-35 -120q0 -186 141 -186zM215 -10q-70 0 -113 24t-43 72q0 55 62 55q43 0 59 -65q12 -47 49 -47q84 0 143 79q58 79 58 234q-74 -57 -167 -57t-155 57q-62 58 -62 158t72 162t178 61q106 0 180 -85t75 -232
q0 -215 -96 -316q-97 -100 -240 -100z" />
    </font>
</defs>
</svg>
