<?xml version="1.0" standalone="no"?>
<!DOCTYPE svg PUBLIC "-//W3C//DTD SVG 1.1//EN" "http://www.w3.org/Graphics/SVG/1.1/DTD/svg11.dtd" >
<svg xmlns="http://www.w3.org/2000/svg">
<metadata>
Created by FontPrep 20130207 at Tue Nov 22 11:52:19 2016
 By Brendan Gatens
Copyright 2007 Paul Barnes and Christian Schwartz. All Rights Reserved.
</metadata>
<defs>
<font id="1dcdd1d126c01a6086fd45dc5285d836" horiz-adv-x='1024' >
  <font-face 
    font-family="PublicoText-Bold"
    font-weight="700"
    font-stretch="normal"
    units-per-em="2048"
    panose-1="2 0 6 3 8 0 0 2 0 4"
    ascent="1638"
    descent="-410"
    x-height="1063"
    cap-height="1419"
    bbox="-252 -532 2568.03 1956"
    underline-thickness="40"
    underline-position="-231"
    unicode-range="U+0020-FB04"
  />
<missing-glyph horiz-adv-x="1056" 
 />
    <glyph glyph-name="ff" unicode="ff" horiz-adv-x="1421" 
d="M831 1143q0 61 17 123q-47 182 -168 182q-80 0 -130 -54t-50 -173v-158h331v80zM41 0v80l59 14q52 12 64 32t12 85v707h-149v75l149 70v18q0 217 156 341t395 124q172 0 262 -78q145 111 365 111q260 0 260 -170q0 -53 -33 -87t-92 -34q-147 0 -158 137q-2 39 -10 49
t-31 11q-135 0 -135 -201v-221h248l-37 -145h-211v-703q0 -72 11 -91t59 -28l84 -16v-80h-607v80l60 12q47 10 58 30t11 89v707h-331v-703q0 -74 10 -93t55 -30l56 -12v-80h-580z" />
    <glyph glyph-name="fi" unicode="fi" horiz-adv-x="1327" 
d="M1155 211q0 -68 12 -86t62 -31l59 -14v-80h-579v80l53 12q47 12 58 30t11 89v584q0 75 -19 99t-77 24h-235v-703q0 -74 10 -92t55 -31l56 -12v-80h-580v80l59 14q52 14 64 32t12 85v707h-149v75l149 70v53q0 217 144 340t419 123q154 0 238 -49t84 -139q0 -135 -139 -136
q-88 0 -129 34t-52 130q-6 63 -65 64q-176 -1 -176 -226v-194h383l252 27l30 -19l-10 -227v-633z" />
    <glyph glyph-name="fl" unicode="fl" horiz-adv-x="1331" 
d="M709 0v80l53 12q47 12 58 30t11 89v1079q-76 27 -83 137q-2 35 -14 47t-38 11q-96 0 -146 -49t-50 -176v-197h223l-37 -145h-186v-703q0 -74 10 -92t55 -31l56 -12v-80h-580v80l59 14q52 14 64 32t12 85v707h-149v75l149 70v53q0 211 146 337t373 126q226 0 309 -78
l126 68l39 -21q-14 -98 -14 -235v-1102q0 -68 12 -85t66 -32l59 -14v-80h-583z" />
    <glyph glyph-name="ffi" unicode="ffi" horiz-adv-x="1982" 
d="M831 1116q0 76 19 141q-47 190 -170 191q-80 0 -130 -54t-50 -173v-158h331v53zM41 0v80l59 14q52 12 64 32t12 85v707h-149v75l149 70v18q0 217 156 341t395 124q178 0 268 -80q152 113 400 113q155 0 239 -49t84 -139q0 -59 -36 -93t-114 -34t-119 34q-40 34 -52 129
q-1 31 -17 43t-49 13q-176 0 -176 -226v-194h383l252 27l35 -19q-12 -178 -13 -227v-633q0 -68 12 -87t60 -30l60 -14v-80h-578v80l53 12q45 10 57 30t13 89v584q1 75 -19 99t-77 24h-238v-703q0 -74 10 -93t56 -30l55 -12v-80h-574v80l60 12q47 10 58 30t11 89v707h-331
v-703q0 -74 10 -93t55 -30l56 -12v-80h-580z" />
    <glyph glyph-name="ffl" unicode="ffl" horiz-adv-x="1986" 
d="M500 1221v-158h331v53q0 76 19 139q-47 193 -170 193q-80 0 -130 -54t-50 -173zM41 0v80l59 14q52 14 64 32t12 85v707h-149v75l149 70v18q0 217 156 341t395 124q176 0 266 -80q145 113 365 113t301 -78l127 68l41 -21q-14 -98 -15 -235v-1102q0 -68 12 -86t64 -31
l60 -14v-80h-582v80l53 12q45 10 57 30t13 89v1079q-74 27 -86 137q-2 35 -12 47t-37 11q-98 0 -148 -49t-51 -176v-197h223l-37 -145h-186v-703q0 -72 10 -92t56 -31l55 -12v-80h-574v80l60 12q47 10 58 30t11 89v707h-331v-703q0 -74 10 -92t55 -31l56 -12v-80h-580z" />
    <glyph glyph-name="fj" unicode="fj" horiz-adv-x="1323" 
d="M1155 -51q-1 -213 -125 -330t-325 -117q-131 0 -204 56t-73 126q0 138 139 138q72 0 106 -36t42 -130q4 -57 37 -57q39 1 59 31t20 77v1088q0 75 -19 99t-77 24h-235v-703q0 -72 11 -90t58 -29l72 -16v-80h-600v80l59 14q52 12 64 32t12 85v707h-149v75l149 70v53
q0 217 144 340t419 123q154 0 238 -49t84 -139q0 -135 -139 -136q-88 0 -129 34t-52 130q-6 63 -65 64q-176 0 -176 -226v-194h383l252 27l30 -19l-10 -227v-895z" />
    <glyph glyph-name=".notdef" horiz-adv-x="1056" 
 />
    <glyph glyph-name=".null" horiz-adv-x="0" 
 />
    <glyph glyph-name="nonmarkingreturn" horiz-adv-x="681" 
 />
    <glyph glyph-name="space" unicode=" " horiz-adv-x="559" 
 />
    <glyph glyph-name="exclam" unicode="!" horiz-adv-x="651" 
d="M324 -16q-82 0 -138 55q-55 55 -55 134t56 135q55 56 137 56t139 -56t57 -135t-57 -134t-139 -55zM324 1440q108 0 164 -69t22 -197l-141 -680h-88l-142 680q-35 130 21 198t164 68z" />
    <glyph glyph-name="quotedbl" unicode="&#x22;" horiz-adv-x="884" 
d="M236 1450q78 0 124 -54t21 -157l-105 -446h-73l-109 446q-28 103 18 157t124 54zM648 1450q79 0 124 -53t21 -158l-107 -446h-76l-104 446q-27 107 18 159t124 52z" />
    <glyph glyph-name="numbersign" unicode="#" horiz-adv-x="1136" 
d="M438 584h219l54 258h-224zM188 0l74 371h-180l39 213h182l49 258h-174l37 213h184l72 364h133l-72 -364h222l71 364h136l-72 -364h178l-37 -213h-184l-53 -258h182l-39 -213h-184l-74 -371h-135l73 371h-223l-69 -371h-136z" />
    <glyph glyph-name="dollar" unicode="$" horiz-adv-x="1132" 
d="M328 1153q0 -78 39 -129t139 -98v413q-86 -12 -132 -60t-46 -126zM786 289q0 82 -42 140t-142 103v-454q184 25 184 211zM35 248q1 129 151 129q70 0 105 -34t47 -157q8 -59 37 -83t110 -27v502q-227 86 -319 192t-92 262t120 268t312 136v200h115v-196q213 -6 319 -80
t107 -174q0 -58 -42 -98t-117 -40t-106 43q-31 42 -43 156q-6 51 -32 71q-27 19 -86 23v-462q250 -97 347 -203t97 -271t-128 -288t-335 -140v-301h-117v301q-225 8 -338 81t-112 190z" />
    <glyph glyph-name="percent" unicode="%" horiz-adv-x="1781" 
d="M1204 344q0 -154 32 -218t105 -65q74 -1 104 61t30 218t-32 219t-102 63q-69 0 -103 -62t-34 -216zM442 793q74 0 106 62t32 216q0 155 -33 219t-103 64t-104 -62t-35 -216q-1 -155 31 -219t106 -64zM1330 -27q-150 -1 -258 93t-108 272t120 275t262 97t256 -96t114 -272
t-118 -272t-268 -97zM254 -102l1081 1564h154l-1086 -1564h-149zM432 705q-150 0 -258 93t-108 272t120 276q121 96 263 96q143 0 257 -95t114 -271t-119 -274q-119 -97 -269 -97z" />
    <glyph glyph-name="ampersand" unicode="&#x26;" horiz-adv-x="1560" 
d="M663 98q132 0 214 64q-256 283 -418 528q-92 -98 -92 -259t82 -247t214 -86zM893 1161q0 180 -151 180t-150 -167q0 -78 31 -142t94 -151q86 55 131 118t45 162zM558 -25q-246 0 -379 110q-132 110 -132 277q0 264 361 406q-94 137 -94 294q0 158 124 270
q125 112 298 112q172 0 278 -77t106 -200q0 -217 -352 -356q180 -244 330 -418q82 131 82 219q0 40 -16 58t-52 28l-61 15v80h467v-80l-54 -15q-53 -14 -92 -56t-98 -138q-90 -166 -105 -189q23 -27 129 -137q63 -63 125 -76l80 -20v-82h-469q-18 16 -82 84
q-148 -109 -394 -109z" />
    <glyph glyph-name="quotesingle" unicode="'" horiz-adv-x="464" 
d="M232 1450q79 0 126 -53t23 -158l-111 -446h-73l-111 446q-27 103 20 157t126 54z" />
    <glyph glyph-name="parenleft" unicode="(" horiz-adv-x="706" 
d="M682 1466q-313 -292 -313 -838q1 -284 79 -489t234 -368l-55 -60q-164 107 -293 257q-254 290 -254 666q0 140 51 285q86 243 310 457q89 86 186 150z" />
    <glyph glyph-name="parenright" unicode=")" horiz-adv-x="706" 
d="M340 627q0 547 -315 839l55 60q195 -128 359 -348q85 -114 136 -262q106 -307 0 -606q-86 -246 -310 -452q-87 -81 -185 -147l-55 60q155 163 235 365t80 491z" />
    <glyph glyph-name="asterisk" unicode="*" horiz-adv-x="921" 
d="M462 1450q58 0 87 -41t2 -121l-59 -203l178 115q76 49 122 36q46 -12 64 -66t-14 -95t-113 -39l-227 -10l184 -129q72 -53 70 -105t-51 -83q-65 -45 -121 2q-31 25 -47 77l-72 201l-80 -198q-27 -79 -80 -99t-92 17q-47 33 -48 83t71 107l182 127l-225 10q-84 0 -115 42
t-10 98q16 51 63 62t123 -38l174 -115l-59 203q-27 80 4 121t89 41z" />
    <glyph glyph-name="plus" unicode="+" horiz-adv-x="1030" 
d="M436 287v356h-342v139h342v357h158v-357h340v-139h-340v-356h-158z" />
    <glyph glyph-name="comma" unicode="," horiz-adv-x="659" 
d="M111 193q0 78 58 131t154 53t163 -71t67 -210q1 -139 -119 -267t-368 -179l-23 69q178 74 244 154t65 178q-28 -29 -94 -29t-106 47q-40 46 -41 124z" />
    <glyph glyph-name="hyphen" unicode="-" horiz-adv-x="612" 
d="M63 492l25 200h463l-25 -200h-463z" />
    <glyph glyph-name="period" unicode="." horiz-adv-x="628" 
d="M516 179q0 -81 -60 -138t-142 -57q-83 0 -142 57t-59 138t58 139t142 58q83 0 143 -58t60 -139z" />
    <glyph glyph-name="slash" unicode="/" horiz-adv-x="841" 
d="M12 -266l639 1769h144l-641 -1769h-142z" />
    <glyph glyph-name="zero" unicode="0" horiz-adv-x="1445" 
d="M723 80q143 0 205 139q61 139 61 487t-63 490q-64 143 -202 143t-204 -137t-66 -484t63 -493q63 -145 206 -145zM76 679q0 451 306 655q165 110 345 110q249 0 437 -174q94 -86 150 -228t56 -327q0 -183 -59 -331t-156 -234q-195 -175 -448 -175t-435 170
q-90 85 -143 225t-53 309z" />
    <glyph glyph-name="one" unicode="1" horiz-adv-x="856" 
d="M66 0v82l92 14q57 12 72 36t16 112v831l-178 12v87q293 59 473 262l75 -13v-1179q0 -88 16 -112t73 -36l86 -14v-82h-725z" />
    <glyph glyph-name="two" unicode="2" horiz-adv-x="1148" 
d="M45 0v162q266 203 447 401q119 129 171 240t52 270q0 276 -199 277q-63 0 -87 -22t-28 -79q-4 -115 -46 -159t-132 -46q-152 0 -151 144q0 106 122 181t360 75t381 -106q144 -106 144 -312q0 -207 -214 -394q-214 -188 -541 -366v-10h485q77 0 107 26t81 136h78l-31 -418
h-999z" />
    <glyph glyph-name="three" unicode="3" horiz-adv-x="1177" 
d="M492 -25q-219 1 -335 63t-116 177q0 63 38 102q37 39 111 39t113 -34t52 -124q13 -88 35 -108t97 -20q229 0 230 331q-1 161 -63 221t-205 60h-105v113h86q139 0 199 64q59 65 59 220q0 270 -192 271q-50 0 -70 -16t-25 -64q-10 -109 -44 -148q-35 -39 -113 -39t-114 36
t-36 95q0 106 124 168t337 62t347 -91t134 -249q0 -123 -95 -215t-290 -129v-8q203 -14 322 -104t119 -265q0 -174 -154 -291t-446 -117z" />
    <glyph glyph-name="four" unicode="4" horiz-adv-x="1265" 
d="M215 543h430v528h-6l-424 -520v-8zM483 0v82l76 14q53 12 70 36q16 24 16 112v143h-602v121l733 911h221v-876h217l-22 -156h-195v-143q-1 -90 15 -114t73 -34l82 -14v-82h-684z" />
    <glyph glyph-name="five" unicode="5" horiz-adv-x="1146" 
d="M477 -25q-195 0 -305 66t-111 172q0 57 39 96t115 39t115 -38t47 -146q6 -58 29 -76t90 -18q132 0 202 74t70 210q0 295 -352 295q-156 0 -236 -33l-22 17l86 786h581q47 1 67 19t60 90h80l-39 -361h-651l-33 -270q98 27 221 27q244 0 394 -118t150 -335t-165 -357
q-164 -140 -432 -139z" />
    <glyph glyph-name="six" unicode="6" horiz-adv-x="1290" 
d="M444 631q0 -317 44 -434t168 -117t162 72t38 256t-52 252t-158 67q-106 0 -202 -59v-37zM661 -25q-257 0 -423 167t-166 495q0 209 64 370q65 161 174 253q220 184 505 184q170 0 268 -52t99 -147q0 -61 -40 -96t-117 -35t-114 36t-44 102t-27 81q-20 16 -78 17
q-127 0 -217 -142t-99 -448q141 100 334 100t317 -108t124 -315q0 -206 -152 -334t-408 -128z" />
    <glyph glyph-name="seven" unicode="7" horiz-adv-x="1105" 
d="M293 1165q-65 1 -89 -25t-69 -139h-82l39 418h973v-162q-209 -281 -308 -575t-134 -682h-387q76 350 240 629q165 279 413 536h-596z" />
    <glyph glyph-name="eight" unicode="8" horiz-adv-x="1226" 
d="M621 84q121 0 197 54t75 152q0 98 -87 162q-87 62 -349 181q-131 -139 -131 -281q0 -268 295 -268zM854 1110q0 225 -242 225q-104 0 -169 -51t-65 -136q0 -84 82 -148t275 -146q119 127 119 256zM602 -25q-238 1 -388 93t-151 260q1 110 87 200t229 148v6
q-256 133 -256 350q0 180 150 296q151 116 352 116t339 -84t138 -244q0 -92 -78 -173t-197 -134v-8q174 -84 254 -173t80 -222q-1 -178 -161 -304t-398 -127z" />
    <glyph glyph-name="nine" unicode="9" horiz-adv-x="1290" 
d="M623 1335q-111 1 -150 -69t-39 -253t51 -255t153 -72t208 59v41q0 315 -43 432t-180 117zM632 1440q257 0 422 -166t165 -496q1 -204 -57 -362q-106 -290 -388 -397q-128 -48 -292 -48q-164 -1 -266 53t-101 150q0 133 157 133q138 1 160 -141q10 -66 30 -83t79 -17
q143 0 216 137t87 448q-156 -102 -348 -102t-309 114q-117 115 -117 321t152 331q153 125 410 125z" />
    <glyph glyph-name="colon" unicode=":" horiz-adv-x="653" 
d="M327 -16q-83 0 -143 57q-59 57 -59 138t59 139q60 58 144 58t142 -58t58 -139t-59 -138t-142 -57zM327 625q-83 0 -143 57q-59 57 -59 138t59 138q60 58 144 58t142 -58t58 -138q0 -81 -59 -138t-142 -57z" />
    <glyph glyph-name="semicolon" unicode=";" horiz-adv-x="665" 
d="M121 193q0 78 58 131q59 53 155 53t163 -71t66 -195q1 -154 -119 -282t-368 -179l-23 69q178 74 244 154t65 178q-28 -29 -94 -29t-106 47q-40 46 -41 124zM327 625q-83 0 -143 57q-59 57 -59 138t59 138q60 58 144 58t142 -58t58 -138q0 -81 -59 -138t-142 -57z" />
    <glyph glyph-name="less" unicode="&#x3c;" horiz-adv-x="1030" 
d="M926 199l-824 360v162l824 360v-151l-688 -289l688 -287v-155z" />
    <glyph glyph-name="equal" unicode="=" horiz-adv-x="1130" 
d="M94 440v140h942v-140h-942zM94 797v139h942v-139h-942z" />
    <glyph glyph-name="greater" unicode="&#x3e;" horiz-adv-x="1030" 
d="M102 1081l824 -360v-162l-824 -360v155l691 287l-691 287v153z" />
    <glyph glyph-name="question" unicode="?" horiz-adv-x="1028" 
d="M393 -16q-82 0 -138 55t-56 133t56 135t138 57t138 -56q57 -56 57 -135t-56 -134t-139 -55zM319 487v332q139 37 229 109q89 72 89 209q0 92 -55 150q-56 59 -114 59t-74 -16t-25 -88q-21 -150 -166 -150q-68 0 -104 36t-36 93q0 104 110 163q111 60 315 60t328 -97
t124 -275t-140 -297q-140 -118 -351 -152v-136h-130z" />
    <glyph glyph-name="at" unicode="@" horiz-adv-x="2039" 
d="M925 240q46 0 84 36t87 113l90 469l-12 19q-26 39 -72 41q-98 0 -183 -169t-85 -372q0 -78 22 -108q23 -29 69 -29zM977 -389q-403 0 -649 220t-246 593q0 276 147 510t389 368t519 134q383 0 603 -182t220 -494q0 -178 -58 -316q-102 -243 -350 -335q-102 -39 -224 -39
t-173 49t-55 139h-8q-113 -186 -312 -186q-106 0 -168 73q-61 74 -61 211q0 272 178 466t389 194q150 0 252 -76h8l101 68l43 -23q-31 -53 -66 -223l-76 -395q-20 -101 -5 -139t81 -38q131 0 228 140t98 366q0 305 -160 472t-498 167t-586 -248q-247 -248 -247 -612
t178 -561t551 -197q293 0 551 117v-92q-254 -131 -594 -131z" />
    <glyph glyph-name="A" unicode="A" horiz-adv-x="1486" 
d="M616 1047l-176 -506h367l-180 506h-11zM10 0v82l56 14q50 12 76 44t67 136l422 1143h209l438 -1151q40 -100 66 -131t73 -45l49 -10v-82h-669v82l57 14q43 10 59 26q17 16 17 43q0 28 -37 134l-47 129h-445l-45 -129q-32 -102 -32 -131t19 -43t71 -29l59 -14v-82h-463z
" />
    <glyph glyph-name="B" unicode="B" horiz-adv-x="1411" 
d="M571 244q0 -88 30 -112q31 -24 143 -23q112 0 167 59t56 227q-1 169 -59 231t-201 62h-136v-444zM571 797h119q129 0 181 56q53 56 53 206t-50 201t-176 51q-70 0 -127 -15v-499zM55 0v82l72 14q51 12 67 36q15 24 15 112v932q0 88 -15 112t-67 35l-72 16v80h664
q285 0 423 -81t138 -255q0 -262 -385 -319v-10q227 -25 340 -109t113 -246q0 -195 -146 -297t-424 -102h-723z" />
    <glyph glyph-name="C" unicode="C" horiz-adv-x="1345" 
d="M811 -25q-338 1 -538 185t-199 538q0 193 61 339q61 145 169 233q214 174 536 174q225 0 397 -47l23 -424h-86q-111 221 -158 281t-83 72q-36 13 -120 13q-193 0 -273 -134q-80 -133 -79 -491q0 -358 81 -496t269 -138q92 0 139 26t99 95q80 115 141 266h84l-23 -408
q-204 -84 -440 -84z" />
    <glyph glyph-name="D" unicode="D" horiz-adv-x="1562" 
d="M729 109q203 0 291 138q88 137 88 463t-90 464t-293 137q-104 0 -150 -19v-991q0 -121 29 -157t125 -35zM55 0v82l72 14q51 12 67 36q15 24 15 112v932q0 88 -15 112t-67 35l-72 16v80h705q342 0 536 -168t195 -516q0 -347 -199 -541t-542 -194h-695z" />
    <glyph glyph-name="E" unicode="E" horiz-adv-x="1357" 
d="M55 0v82l72 14q51 12 67 36q15 24 15 112v932q0 88 -15 112t-67 35l-72 16v80h1172l22 -409h-90q-114 264 -208 287q-46 11 -169 11t-207 -18v-497h39q113 0 153 11t62 48q47 80 62 139h90v-518h-90q-12 49 -62 148q-20 39 -57 49t-158 10h-39v-385q0 -137 29 -161
q28 -24 178 -24t195 17q45 16 97 86t136 270h90l-30 -483h-1215z" />
    <glyph glyph-name="F" unicode="F" horiz-adv-x="1298" 
d="M55 0v82l72 14q51 12 67 36q15 24 15 112v932q0 88 -15 112t-67 35l-72 16v80h1159l21 -422h-88q-63 152 -121 228q-47 57 -91 71t-163 14t-197 -18v-522h19q119 0 160 12t61 47q43 63 70 156h84v-553h-84q-27 94 -70 164q-23 41 -59 51t-162 10h-19v-413q1 -90 15 -113
t72 -33l96 -16v-82h-703z" />
    <glyph glyph-name="G" unicode="G" horiz-adv-x="1484" 
d="M825 -25q-367 -1 -559 185t-192 542q0 195 63 341q63 145 175 231q222 170 558 170q236 0 400 -47l26 -428h-92q-57 127 -157 272q-39 57 -77 75t-136 17q-199 0 -288 -136q-89 -137 -89 -483t78 -487t280 -141q100 0 172 39v285q0 88 -14 110t-68 35l-76 18v80h631v-80
l-55 -14q-45 -12 -56 -36t-12 -113v-351q-97 -35 -241 -59t-271 -25z" />
    <glyph glyph-name="H" unicode="H" horiz-adv-x="1646" 
d="M55 0v82l72 14q51 12 67 36q15 24 15 112v932q0 88 -15 112t-67 35l-72 16v80h676v-80l-72 -16q-55 -14 -69 -37t-15 -110v-392h492v392q0 88 -13 110t-67 37l-72 16v80h676v-80l-73 -16q-52 -12 -68 -36t-16 -111v-932q0 -88 15 -112t69 -36l73 -14v-82h-676v82l72 14
q51 12 66 36q14 24 14 112v424h-492v-424q1 -88 15 -112t69 -36l72 -14v-82h-676z" />
    <glyph glyph-name="I" unicode="I" horiz-adv-x="798" 
d="M55 0v82l78 14q51 12 67 36q15 24 15 112v932q0 90 -14 112t-68 35l-78 16v80h693v-80l-82 -16q-54 -12 -68 -35t-14 -112v-932q0 -88 14 -113t68 -35l82 -14v-82h-693z" />
    <glyph glyph-name="J" unicode="J" horiz-adv-x="774" 
d="M-252 -202q0 154 156 153q76 0 114 -42t58 -157q6 -33 15 -44t43 -11q73 0 75 156v1323q0 90 -14 112t-68 35l-78 16v80h684v-80l-74 -16q-55 -12 -69 -36t-15 -111v-1070q0 -227 -135 -366t-377 -139q-151 0 -233 59q-82 60 -82 138z" />
    <glyph glyph-name="K" unicode="K" horiz-adv-x="1533" 
d="M55 0v82l72 14q51 12 67 36q15 24 15 112v932q0 88 -15 112t-67 35l-72 16v80h676v-80l-72 -16q-55 -14 -69 -36t-15 -111v-932q1 -88 15 -112t69 -36l72 -14v-82h-676zM920 1419h528v-80l-25 -8q-57 -14 -98 -47t-133 -131l-281 -301q195 -377 445 -702q35 -39 69 -50
l88 -18v-82h-462q-248 322 -420 676v35l319 360q106 115 107 182q0 23 -22 42t-52 28l-63 16v80z" />
    <glyph glyph-name="L" unicode="L" horiz-adv-x="1310" 
d="M55 0v82l72 14q51 12 67 36q15 24 15 112v932q0 88 -15 112t-67 35l-72 16v80h690v-80l-86 -18q-55 -10 -69 -33t-15 -112v-879q0 -133 28 -161t157 -28t180 24t98 97q24 32 38 57q13 25 35 64q41 75 71 156h92l-35 -506h-1184z" />
    <glyph glyph-name="M" unicode="M" horiz-adv-x="1873" 
d="M55 0v82l64 14q55 12 72 40t18 128v912q0 88 -15 112t-67 35l-72 16v80h598l293 -895h6l295 895h572v-80l-74 -16q-51 -14 -65 -37t-15 -110v-932q0 -88 14 -112t66 -36l74 -14v-82h-660v82l72 14q51 12 65 36t15 112v1011h-8l-385 -1224h-152l-416 1224h-8v-981
q0 -110 16 -138t80 -40l64 -14v-82h-447z" />
    <glyph glyph-name="N" unicode="N" horiz-adv-x="1515" 
d="M342 1178v-904q0 -110 16 -138t84 -40l74 -14v-82h-461v82l64 14q55 12 72 40t18 128v912q0 88 -15 112t-67 35l-72 16v80h561l553 -833h9v561q0 109 -16 135t-83 41l-84 16v80h469v-80l-61 -14q-57 -14 -75 -41t-17 -129v-1159h-168l-793 1182h-8z" />
    <glyph glyph-name="O" unicode="O" horiz-adv-x="1562" 
d="M784 86q117 0 184 48q138 99 138 546q0 354 -74 504t-256 149q-114 0 -180 -48q-140 -101 -139 -550q0 -352 72 -501q73 -148 255 -148zM74 671q0 215 63 365t167 236q209 172 495 172t488 -182t202 -539q1 -195 -63 -345t-170 -234q-208 -169 -510 -169q-162 0 -317 75
t-255 241t-100 380z" />
    <glyph glyph-name="P" unicode="P" horiz-adv-x="1378" 
d="M55 0v82l72 14q51 12 67 36q15 24 15 112v932q0 88 -13 112t-59 33l-82 18v80h682q584 0 584 -430q0 -184 -125 -318t-319 -134q-98 0 -175 34v78q135 0 190 67q54 67 54 257t-51 264t-165 74t-155 -17v-1050q1 -88 15 -111t72 -33l94 -18v-82h-701z" />
    <glyph glyph-name="Q" unicode="Q" horiz-adv-x="1562" 
d="M780 82q178 0 252 126t74 476t-74 501t-256 150q-114 0 -180 -49q-140 -103 -139 -551q0 -354 72 -504q73 -149 251 -149zM1266 -354q-119 0 -209 30t-203 103q-113 74 -289 231q-223 56 -357 230t-134 452q0 194 63 344t167 236q209 172 495 172t488 -182t202 -539
q0 -293 -133 -461t-355 -229v-6q98 -84 195 -146q137 -82 258 -82q66 0 174 43v-67q-133 -129 -362 -129z" />
    <glyph glyph-name="R" unicode="R" horiz-adv-x="1505" 
d="M676 713q143 0 207 68q63 69 63 240t-48 230t-158 59t-171 -14v-575q41 -8 107 -8zM569 244q1 -86 17 -111t67 -37l76 -14v-82h-674v82l72 14q51 12 67 36q15 24 15 112v932q0 88 -15 112t-67 35l-72 16v80h682q303 0 443 -93t139 -282q0 -266 -287 -348v-8
q156 -311 324 -545q16 -21 32 -27q16 -5 28 -12q13 -7 42 -12l39 -10v-82h-446q-180 236 -338 604l-144 2v-362z" />
    <glyph glyph-name="S" unicode="S" horiz-adv-x="1142" 
d="M1073 451q-1 -205 -147 -341t-390 -135q-244 0 -442 62l-24 397h88q86 -164 151 -246q84 -104 228 -104q111 0 183 60t71 146q0 86 -68 149q-69 62 -269 138q-200 75 -286 179t-86 277t142 292t378 119t363 -41l24 -356h-88q-80 153 -141 221t-175 68q-113 0 -179 -56
q-66 -55 -66 -135t56 -129t231 -117q244 -92 345 -194t101 -254z" />
    <glyph glyph-name="T" unicode="T" horiz-adv-x="1363" 
d="M332 0v82l80 14q59 12 73 35t15 113v1067q-102 1 -144 -15q-62 -23 -112 -120t-109 -244h-92l20 487h1237l21 -487h-92q-21 47 -54 134t-79 151q-47 65 -85 79t-145 15v-1067q0 -90 14 -113t72 -35l80 -14v-82h-700z" />
    <glyph glyph-name="U" unicode="U" horiz-adv-x="1513" 
d="M799 -25q-604 0 -604 482v719q1 88 -15 112t-67 35l-76 16v80h678v-80l-70 -16q-55 -12 -69 -35t-15 -112v-760q0 -158 72 -224t252 -65q305 0 305 317v703q0 109 -16 135t-84 41l-86 16v80h469v-80l-62 -14q-55 -14 -73 -41t-17 -129v-727q0 -201 -131 -327t-391 -126z
" />
    <glyph glyph-name="V" unicode="V" horiz-adv-x="1460" 
d="M23 1419h673v-80l-61 -14q-70 -20 -70 -80q0 -37 37 -151l254 -719h10l236 719q31 92 31 136q1 44 -17 64t-61 31l-68 14v80h457v-80l-55 -16q-43 -12 -66 -50t-66 -157l-397 -1116h-215l-432 1124q-45 113 -70 152t-73 51l-47 12v80z" />
    <glyph glyph-name="W" unicode="W" horiz-adv-x="2168" 
d="M29 1419h663v-80l-57 -14q-68 -15 -68 -69t35 -162l211 -705h10l219 610l-53 170q-29 80 -53 112q-25 32 -72 44l-45 14v80h651v-80l-73 -16q-70 -10 -70 -82q0 -51 31 -147l229 -705h10l203 707q27 98 27 145q0 70 -74 84l-67 14v80h454v-80l-51 -12q-49 -12 -78 -59
t-67 -172l-347 -1096h-227l-252 813h-12l-285 -813h-239l-371 1143q-41 106 -64 140t-65 44l-53 12v80z" />
    <glyph glyph-name="X" unicode="X" horiz-adv-x="1536" 
d="M51 0v82l41 8q53 14 92 49t107 131l284 418l-315 490q-47 74 -75 102t-76 45l-48 14v80h727v-80l-75 -16q-63 -14 -64 -63q0 -35 62 -136l170 -268h6l162 277q49 82 49 130t-72 62l-65 14v80h479v-80l-54 -14q-42 -10 -74 -44t-104 -138l-245 -387l329 -508
q57 -88 85 -117t69 -39l39 -10v-82h-715v82l74 12q68 8 67 64q0 23 -63 135l-191 301h-6l-188 -293q-59 -102 -60 -141q0 -53 62 -66l65 -12v-82h-479z" />
    <glyph glyph-name="Y" unicode="Y" horiz-adv-x="1402" 
d="M365 0v82l79 14q55 12 70 35q14 23 14 113v338l-309 567q-55 96 -86 130t-74 46l-43 14v80h701v-80l-58 -14q-82 -16 -81 -82q0 -23 45 -117l190 -393h10l195 379q39 86 39 133q0 57 -78 80l-59 14v80h469v-80l-41 -14q-49 -16 -88 -59t-89 -140l-276 -532v-350
q0 -90 14 -113t72 -35l82 -14v-82h-698z" />
    <glyph glyph-name="Z" unicode="Z" horiz-adv-x="1251" 
d="M43 0v115l735 1196v8h-84q-216 0 -280 -15t-109 -77q-78 -109 -151 -264h-82l24 456h1065v-112l-731 -1194v-9h70q227 0 298 18t124 87q80 106 157 289h84l-33 -498h-1087z" />
    <glyph glyph-name="bracketleft" unicode="[" horiz-adv-x="786" 
d="M203 -266v1769h518v-80l-148 -16q-78 -10 -98 -35t-20 -117v-1273q0 -92 20 -117t98 -35l148 -16v-80h-518z" />
    <glyph glyph-name="backslash" unicode="\" horiz-adv-x="841" 
d="M686 -266l-639 1769h141l641 -1769h-143z" />
    <glyph glyph-name="bracketright" unicode="]" horiz-adv-x="786" 
d="M584 1503v-1769h-518v80l143 16q79 10 101 35t22 117v1273q0 92 -22 117t-101 35l-143 16v80h518z" />
    <glyph glyph-name="asciicircum" unicode="^" horiz-adv-x="905" 
d="M137 903l-47 47l309 477h105l311 -477l-47 -47l-317 260z" />
    <glyph glyph-name="underscore" unicode="_" horiz-adv-x="741" 
d="M-6 -360v139h754v-139h-754z" />
    <glyph glyph-name="grave" unicode="`" horiz-adv-x="1046" 
d="M266 1426q0 42 32 79t79 37t108 -47l287 -229l-27 -58l-385 101q-94 23 -94 117z" />
    <glyph glyph-name="a" unicode="a" horiz-adv-x="1148" 
d="M367 306q1 -100 39 -137q38 -36 122 -36t121 62v321l-102 -10q-96 -6 -138 -53t-42 -147zM369 -25q-147 0 -233 73q-85 73 -85 205t95 212t337 137l166 37v154q0 123 -32 161t-125 39q-46 0 -62 -14q-16 -13 -22 -85t-46 -116t-122 -43q-139 0 -140 129q0 102 125 164
t336 64q412 0 412 -281v-547q0 -57 10 -84t41 -41q27 -16 98 -20v-74q-100 -70 -241 -70q-178 0 -215 125h-11q-98 -125 -286 -125z" />
    <glyph glyph-name="b" unicode="b" horiz-adv-x="1300" 
d="M637 82q139 0 203 92q63 92 63 344q0 387 -235 387q-119 0 -203 -47v-708q68 -68 172 -68zM609 -25q-286 0 -468 113v1196q0 70 -10 92t-53 43l-80 39v72l455 39l28 -21q-16 -90 -16 -235v-162q0 -110 -10 -172l-2 -25h10q168 136 345 136t296 -110q61 -56 97 -156
t36 -236q0 -305 -171 -459t-457 -154z" />
    <glyph glyph-name="c" unicode="c" horiz-adv-x="1073" 
d="M584 -25q-250 1 -387 147t-138 400q0 154 58 269q99 200 355 271q108 30 244 30t223 -50t87 -141q0 -66 -41 -115t-104 -49q-133 0 -148 156q-8 59 -25 75t-69 17q-254 0 -254 -371q0 -457 346 -456q133 0 293 80v-93q-54 -66 -170 -118t-270 -52z" />
    <glyph glyph-name="d" unicode="d" horiz-adv-x="1329" 
d="M653 160q88 0 183 47v692q-72 84 -168 84q-129 0 -198 -97q-69 -98 -69 -322q-1 -224 61 -314t191 -90zM496 -25q-188 0 -308 129q-121 129 -120 392q0 299 171 446t437 148q100 0 172 -21q-10 74 -10 148v67q0 68 -12 87t-54 42l-86 45v72l461 39l29 -21
q-14 -90 -15 -235v-1045q0 -76 10 -96t58 -39l61 -27v-71l-426 -60l-20 17l8 114h-8q-160 -131 -348 -131z" />
    <glyph glyph-name="e" unicode="e" horiz-adv-x="1138" 
d="M590 989q-195 0 -209 -330l373 19q0 184 -33 248t-131 63zM604 -25q-268 -1 -406 147t-138 408t162 410q163 152 386 152t345 -127t126 -408h-698q10 -217 99 -308t247 -91t322 78v-93q-63 -68 -181 -118t-264 -50z" />
    <glyph glyph-name="f" unicode="f" horiz-adv-x="765" 
d="M41 0v80l59 14q52 14 64 32t12 85v707h-149v75l149 70v80q0 203 140 319t391 117q251 0 251 -170q0 -53 -34 -87t-90 -34q-147 0 -158 137q-2 39 -10 49t-31 11q-135 0 -135 -201v-221h248l-37 -145h-211v-703q0 -72 11 -91t58 -28l84 -16v-80h-612z" />
    <glyph glyph-name="g" unicode="g" horiz-adv-x="1153" 
d="M514 -362q176 0 267 60t91 139t-39 113q-40 34 -139 34h-340q-41 -20 -80 -70t-38 -113q-1 -163 278 -163zM523 489q81 1 119 55t38 192t-39 196t-120 59q-81 0 -118 -56q-37 -55 -37 -193t38 -196t119 -57zM469 -469q-229 0 -355 61t-126 175q0 150 250 233v8
q-72 14 -120 64t-48 125q0 135 170 247v9q-76 35 -126 109t-51 163q1 168 133 266t324 99q141 0 258 -39q150 141 285 141q57 0 91 -29t34 -83t-26 -91t-74 -37t-70 18t-43 52q-14 18 -52 9t-81 -38v-8q141 -71 141 -237t-133 -262t-330 -97q-115 0 -192 35q-53 -37 -54 -98
q0 -80 111 -80h356q346 0 346 -279q-1 -180 -157 -308t-461 -128z" />
    <glyph glyph-name="h" unicode="h" horiz-adv-x="1335" 
d="M41 0v80l59 14q52 14 64 32t12 85v1073q0 72 -11 92t-56 43l-78 39v72l456 39l29 -21q-16 -98 -16 -235v-162l-13 -201h9q207 139 403 140q279 0 279 -273v-606q0 -66 13 -85t62 -32l56 -14v-80h-578v80l55 12q46 12 56 30t10 89v514q0 94 -35 133t-115 39t-202 -39v-647
q0 -72 10 -89t55 -30l56 -12v-80h-580z" />
    <glyph glyph-name="i" unicode="i" horiz-adv-x="667" 
d="M41 0v80l59 14q52 14 64 32t12 85v590q0 61 -11 81t-59 50l-71 45v65l452 48l29 -19q0 -2 -8 -98t-8 -195v-567q0 -68 12 -86t61 -31l60 -14v-80h-592zM327 1217q-81 0 -138 51q-56 51 -56 128t56 127q57 50 139 50t137 -50t55 -127t-56 -128t-137 -51z" />
    <glyph glyph-name="j" unicode="j" horiz-adv-x="643" 
d="M49 -463q-131 0 -205 55t-74 127q1 138 142 138q72 0 104 -36t41 -130q3 -35 13 -46t38 -11t48 30q20 31 20 78v1059q0 61 -11 81t-59 50l-71 45v65l452 48l29 -19q0 -18 -8 -87t-8 -222v-778q0 -213 -125 -330t-326 -117zM327 1217q-81 0 -138 51q-56 51 -56 128t55 127
q56 50 138 50t137 -50t55 -127t-55 -128t-136 -51z" />
    <glyph glyph-name="k" unicode="k" horiz-adv-x="1271" 
d="M739 1063h467v-80l-47 -12q-47 -12 -89 -38t-107 -89l-181 -178q219 -373 336 -512q31 -43 76 -58l51 -16v-80h-383q-156 197 -332 504v49l207 209q103 110 103 154t-68 61l-33 8v78zM41 0v80l59 14q52 14 64 32t12 85v1073q0 72 -11 92t-56 43l-78 39v72l456 39l29 -21
q-16 -98 -16 -235v-1102q0 -70 10 -88t53 -31l53 -12v-80h-575z" />
    <glyph glyph-name="l" unicode="l" horiz-adv-x="675" 
d="M41 0v80l59 14q52 14 66 32t14 85v1073q0 72 -11 92t-60 43l-78 39v72l458 39l31 -21q-16 -98 -16 -235v-1102q0 -68 11 -85t65 -32l59 -14v-80h-598z" />
    <glyph glyph-name="m" unicode="m" horiz-adv-x="1972" 
d="M1151 211q0 -68 10 -87t51 -32l54 -12v-80h-557v80l53 12q45 12 55 30t10 89v514q0 92 -30 132q-31 40 -111 40t-186 -39v-647q0 -72 10 -89t51 -30l53 -12v-80h-573v80l59 14q52 14 64 32t12 85v590q0 61 -11 81t-59 50l-71 45v65l432 48l29 -21l-15 -123h11
q209 144 393 144t250 -146h8q219 145 397 146q262 0 262 -275v-604q0 -66 12 -85t62 -32l59 -14v-80h-575v80l53 12q45 12 55 30t11 89v514q0 92 -31 132t-105 40t-190 -41l-2 -53v-592z" />
    <glyph glyph-name="n" unicode="n" horiz-adv-x="1347" 
d="M41 0v80l59 14q52 14 64 32t12 85v590q0 61 -11 81t-59 50l-71 45v65l432 48l29 -19l-15 -125h11q209 143 407 144q279 0 279 -273v-606q0 -66 13 -85t62 -32l56 -14v-80h-578v80l55 12q46 12 56 30t10 89v514q0 94 -35 133t-115 39t-202 -39v-647q0 -72 10 -89t55 -30
l56 -12v-80h-580z" />
    <glyph glyph-name="o" unicode="o" horiz-adv-x="1253" 
d="M618 985q-112 0 -164 -93t-52 -355q0 -261 52 -359q54 -98 172 -98t172 94t54 317q0 386 -104 461q-47 33 -130 33zM1194 536q0 -271 -164 -416t-406 -145q-241 -1 -403 143t-162 412q0 186 84 316q157 243 486 246q241 0 403 -142t162 -414z" />
    <glyph glyph-name="p" unicode="p" horiz-adv-x="1335" 
d="M670 82q139 0 202 92t64 344q0 387 -260 387q-76 0 -176 -47v-702q68 -74 170 -74zM41 -449v78l59 17q51 12 64 30q12 18 12 86v1039q0 61 -11 81t-59 50l-71 45v65l432 48l29 -19l-13 -121h9q174 140 354 140t301 -121t121 -381q0 -305 -166 -459t-445 -154
q-90 0 -168 21q10 -53 11 -125v-109q0 -70 11 -88t58 -28l78 -17v-78h-606z" />
    <glyph glyph-name="q" unicode="q" horiz-adv-x="1310" 
d="M653 150q98 0 183 51v708q-74 74 -168 74q-129 0 -198 -97q-69 -96 -69 -322q-1 -226 61 -320t191 -94zM836 -53q0 79 16 159h-8q-160 -131 -348 -131t-308 129q-121 129 -120 392q0 299 171 446t437 148q184 0 328 -84h12l90 86l55 -15v-1325q0 -68 11 -86t61 -31
l59 -16v-68h-606v68l78 16q49 11 60 29t12 88v195z" />
    <glyph glyph-name="r" unicode="r" horiz-adv-x="997" 
d="M41 0v80l59 14q52 14 64 32t12 85v590q0 61 -11 81t-59 50l-71 45v65l432 48l29 -21l-15 -135h11q55 59 143 107q88 49 167 49t121 -40t42 -112t-38 -114t-106 -42q-67 0 -97 16t-62 68q-18 29 -58 29t-104 -61v-623q0 -72 11 -90t56 -27l74 -14v-80h-600z" />
    <glyph glyph-name="s" unicode="s" horiz-adv-x="940" 
d="M885 340q0 -164 -125 -264q-126 -100 -322 -101q-196 0 -356 39l-19 314h82q59 -112 122 -180t186 -68q178 0 178 135q0 68 -54 107t-204 94t-227 133t-76 199q0 152 118 248t312 96q196 0 301 -37l10 -279h-76q-49 80 -119 160q-51 51 -139 51q-170 0 -170 -135
q0 -51 49 -88q49 -38 207 -94t240 -134t82 -196z" />
    <glyph glyph-name="t" unicode="t" horiz-adv-x="794" 
d="M440 -25q-291 0 -290 279v664h-134v73q223 76 318 350h141v-278h287l-35 -145h-252v-635q0 -76 31 -109t94 -33t166 23v-82q-99 -107 -326 -107z" />
    <glyph glyph-name="u" unicode="u" horiz-adv-x="1343" 
d="M449 -25q-129 0 -203 70t-74 203v563q0 63 -9 81t-57 46l-75 41v65l430 46l35 -23v-737q0 -88 34 -127t111 -39q76 0 209 51v596q0 63 -10 83t-58 44l-71 41v65l430 46l33 -23v-799q0 -76 11 -96t58 -39l60 -27v-71l-420 -60l-29 21l12 133h-8q-216 -154 -409 -154z" />
    <glyph glyph-name="v" unicode="v" horiz-adv-x="1187" 
d="M8 1063h610v-80l-55 -14q-67 -17 -67 -73q0 -28 30 -118l172 -467h11l161 467q25 74 25 113q0 63 -64 78l-57 14v80h412v-80l-41 -12q-41 -12 -65 -45t-64 -135l-311 -791h-189l-342 811q-39 88 -61 118q-23 30 -66 42l-39 12v80z" />
    <glyph glyph-name="w" unicode="w" horiz-adv-x="1796" 
d="M10 1063h574v-80l-45 -12q-55 -12 -56 -64q0 -20 35 -129l150 -456h14l162 450l-13 39q-27 82 -51 116q-25 34 -59 44l-41 12v80h569v-80l-59 -14q-57 -14 -57 -78q0 -43 24 -113l156 -456h12l145 456q25 78 25 115q0 61 -61 76l-60 14v80h412v-80l-41 -12
q-43 -12 -68 -47t-61 -133l-293 -791h-199l-215 618h-6l-227 -618h-199l-301 811q-33 88 -57 118q-25 30 -68 42l-41 12v80z" />
    <glyph glyph-name="x" unicode="x" horiz-adv-x="1263" 
d="M45 0v80l49 10q53 12 92 45t93 109l192 282l-229 301q-59 82 -92 109t-76 39l-33 8v80h625v-80l-48 -8q-61 -14 -61 -57q0 -27 53 -99l123 -164h6l84 136q53 96 54 122q0 45 -62 60l-51 10v80h440v-80l-45 -10q-84 -23 -186 -164l-174 -238l254 -335q67 -86 93 -112
t75 -38l28 -6v-80h-622v80l47 8q57 12 57 55q1 20 -27 61q-28 40 -36 52l-129 186h-7l-92 -166q-61 -100 -61 -129q0 -47 74 -59l39 -8v-80h-447z" />
    <glyph glyph-name="y" unicode="y" horiz-adv-x="1206" 
d="M284 -455q-114 0 -170 46q-56 45 -56 111t32 103q33 37 92 37t89 -24q29 -24 49 -73q20 -50 36 -50q78 0 166 196l33 78l-389 842q-48 98 -66 124t-53 36l-39 12v80h606v-80l-55 -14q-68 -14 -67 -78q0 -47 32 -113l191 -440h8l170 440q23 60 23 118t-64 73l-59 14v80
h419v-80l-47 -14q-39 -12 -58 -42t-65 -136l-397 -920q-74 -170 -161 -248q-86 -78 -200 -78z" />
    <glyph glyph-name="z" unicode="z" horiz-adv-x="1058" 
d="M43 0v104l612 846v8h-90q-119 0 -166 -12t-85 -56t-136 -214h-78l21 387h891v-100l-613 -850v-9h93q143 0 198 18q54 18 108 82t124 195h84l-35 -399h-928z" />
    <glyph glyph-name="braceleft" unicode="{" horiz-adv-x="808" 
d="M332 467q0 95 -240 104v103q240 10 240 112q0 36 -54 222t-55 243q1 117 105 179t401 77v-86q-145 -20 -187 -50q-42 -31 -42 -105t22 -218t21 -196q0 -92 -69 -146t-228 -79v-9q156 -20 226 -75t71 -148q0 -51 -22 -198q-21 -147 -21 -223t42 -104q42 -30 187 -50v-84
q-306 16 -411 83q-54 34 -74 75t-21 98q1 56 55 244t54 231z" />
    <glyph glyph-name="bar" unicode="|" horiz-adv-x="530" 
d="M197 -266v1769h137v-1769h-137z" />
    <glyph glyph-name="braceright" unicode="}" horiz-adv-x="808" 
d="M600 1251q0 -57 -54 -241t-54 -222q0 -104 239 -114v-103q-139 -5 -189 -31t-50 -69t54 -232t54 -247t-20 -98q-45 -92 -231 -130q-101 -20 -255 -28v84q145 20 188 50q42 30 42 104t-21 225q-20 150 -20 200q0 97 63 149t232 70v9q-295 57 -295 229q0 52 20 194
q21 142 21 217t-42 105t-188 49v86q298 -16 402 -77t104 -179z" />
    <glyph glyph-name="asciitilde" unicode="~" horiz-adv-x="845" 
d="M274 739q58 0 168 -36t146 -35q59 0 117 94l71 -33q-36 -90 -58 -132t-60 -76t-88 -34t-160 36t-148 36q-58 0 -115 -94l-69 33q51 127 94 184q44 57 102 57z" />
    <glyph glyph-name="nbspace" unicode="&#xa0;" horiz-adv-x="1056" 
 />
    <glyph glyph-name="exclamdown" unicode="&#xa1;" horiz-adv-x="651" 
d="M131 1075q1 79 57 135t138 56t138 -56t56 -134q0 -79 -56 -135t-138 -56t-139 55q-56 55 -56 135zM311 754l97 -338q0 -10 9 -60t18 -103l19 -114q18 -118 3 -129q10 -98 -50 -136t-137 1q-47 0 -79 110q-31 111 -31 229t18 200z" />
    <glyph glyph-name="cent" unicode="&#xa2;" horiz-adv-x="1075" 
d="M381 580q0 -344 207 -410v805q-207 -51 -207 -395zM586 -25q-246 -1 -386 141t-140 393t150 394q151 143 378 178v164h114v-153h19q166 0 259 -50t93 -143q0 -68 -37 -118q-36 -50 -104 -50t-94 34q-26 33 -32 99q-7 66 -30 90t-74 29v-829h9q154 0 325 84v-93
q-119 -127 -334 -159v-310h-114v299h-2z" />
    <glyph glyph-name="sterling" unicode="&#xa3;" horiz-adv-x="1169" 
d="M535 1109q0 -134 18 -314h324v-117h-318v-23q0 -242 -278 -399v-10h577q66 0 98 28t70 132h80l-43 -406h-1010v186q121 74 174 140t54 170q0 55 -35 182h-158v117h123q-39 147 -39 227q0 188 144 305t397 117q193 0 295 -60t102 -163q0 -70 -41 -109t-113 -39t-107 44
q-36 45 -53 123q-18 78 -32 94t-59 16q-86 0 -128 -54t-42 -187z" />
    <glyph glyph-name="yen" unicode="&#xa5;" horiz-adv-x="1361" 
d="M141 610v117h330l-242 422q-55 94 -86 129t-71 47l-43 14v80h700v-80l-59 -12q-44 -9 -60 -29t-16 -57t39 -115l170 -342h10l150 328q43 98 43 132t-20 51t-66 30l-43 14v80h446v-80l-41 -14q-49 -14 -80 -52t-84 -147l-203 -399h330v-117h-377v-182h377v-117h-377v-67
q0 -90 14 -113t68 -35l82 -14v-82h-670v82l80 14q59 12 74 35q14 23 14 113v67h-389v117h389v182h-389z" />
    <glyph glyph-name="brokenbar" unicode="&#xa6;" horiz-adv-x="530" 
d="M197 -266v790h137v-790h-137zM197 666v837h137v-837h-137z" />
    <glyph glyph-name="section" unicode="&#xa7;" horiz-adv-x="1243" 
d="M969 278q1 82 -57 141t-273 213t-279 234q-82 -43 -81 -141q0 -72 57 -129t271 -213t284 -236q78 49 78 131zM979 -61q0 -161 -117 -259t-291 -98t-263 58t-89 147q0 127 127 127q125 0 140 -140q7 -66 29 -83q22 -19 84 -19t107 34q44 34 44 104t-56 126t-266 203
q-209 147 -289 237t-80 209q0 117 66 199t186 148q-49 72 -49 160q0 152 113 248t290 98q177 0 266 -54t89 -141q0 -51 -36 -87t-102 -36t-96 36q-31 36 -38 122q-4 39 -24 54q-20 16 -83 16q-61 0 -105 -36t-44 -106t54 -124t271 -207t291 -241t74 -204q0 -115 -66 -204
t-170 -148q33 -66 33 -139z" />
    <glyph glyph-name="dieresis" unicode="&#xa8;" horiz-adv-x="1056" 
d="M757 1225q-73 0 -124 48t-51 118q0 69 51 117t124 48t124 -48t51 -118t-51 -117q-51 -48 -124 -48zM301 1225q-74 0 -125 48t-51 118q0 69 51 117t125 48t125 -48t51 -118t-51 -117q-51 -48 -125 -48z" />
    <glyph glyph-name="copyright" unicode="&#xa9;" horiz-adv-x="1699" 
d="M838 309q-172 1 -282 103t-110 302t120 304t308 104q129 0 244 -30l17 -240h-66q-55 100 -94 146t-113 46q-170 0 -170 -309q0 -348 182 -348q72 0 112 45t95 172h66l-19 -250q-118 -45 -290 -45zM211 704q0 -266 179 -452q178 -186 456 -186t461 186q182 186 182 452
t-182 451q-182 184 -460 184t-457 -184t-179 -451zM847 -33q-318 0 -536 215q-217 216 -217 522t217 520t535 214t538 -214t220 -519t-220 -521t-537 -217z" />
    <glyph glyph-name="ordfeminine" unicode="&#xaa;" horiz-adv-x="1017" 
d="M463 625q84 0 121 51v256l-103 -10q-77 -6 -113 -45t-36 -125q0 -127 131 -127zM336 479q-129 -1 -199 61q-69 62 -69 174t76 178t239 107l201 50v108q0 101 -33 147t-103 46t-86 -70q-12 -82 -40 -116t-99 -34q-127 0 -127 113q0 86 110 139t288 54q362 0 362 -265v-440
q0 -51 8 -73q17 -48 125 -50v-67q-90 -57 -224 -57t-163 110h-10q-40 -45 -108 -80t-148 -35z" />
    <glyph glyph-name="guillemotleft" unicode="&#xab;" horiz-adv-x="1019" 
d="M399 92l-329 395v60l329 395h99l-170 -422l170 -428h-99zM834 92l-332 395v60l332 395h96l-170 -422l170 -428h-96z" />
    <glyph glyph-name="logicalnot" unicode="&#xac;" horiz-adv-x="1650" 
d="M822 -31q-306 0 -522 217q-216 216 -216 524t216 524t523 216t525 -216t219 -522q0 -306 -219 -525q-220 -218 -526 -218z" />
    <glyph glyph-name="registered" unicode="&#xae;" horiz-adv-x="1699" 
d="M823 719q135 0 135 151q0 80 -28 111q-29 31 -91 31t-69 -6v-283q20 -4 53 -4zM477 336v65l39 7q31 10 39 22t8 62v440q0 47 -9 61t-38 21l-39 10v63h371q334 0 334 -208q0 -147 -152 -193v-6q45 -96 127 -227q31 -41 70 -47l18 -5v-65h-246q-86 123 -151 307
q-70 0 -78 2v-153q0 -50 7 -62t38 -22l39 -7v-65h-377zM211 704q0 -266 179 -452q178 -186 456 -186t461 186q182 186 182 452t-182 451q-182 184 -460 184t-457 -184t-179 -451zM847 -33q-318 0 -536 215q-217 216 -217 522t217 520t535 214t538 -214t220 -519t-220 -521
t-537 -217z" />
    <glyph glyph-name="macron" unicode="&#xaf;" horiz-adv-x="1056" 
d="M225 1274v162h606v-162h-606z" />
    <glyph glyph-name="degree" unicode="&#xb0;" horiz-adv-x="790" 
d="M395 950q80 0 130 58t50 138q0 81 -50 137t-130 56t-130 -56t-50 -137q0 -80 50 -138t130 -58zM395 844q-127 0 -215 90t-88 211t88 210t215 89t215 -89t88 -210t-88 -211t-215 -90z" />
    <glyph glyph-name="plusminus" unicode="&#xb1;" horiz-adv-x="1675" 
d="M1427 512l-694 33l164 -135q109 -90 82 -204t-130 -140t-206 53l-586 577v29l588 580q92 92 204 53t130 -141t-82 -205l-164 -135l694 32q129 6 183 -96t1 -205q-55 -102 -184 -96z" />
    <glyph glyph-name="twosuperior" unicode="&#xb2;" horiz-adv-x="800" 
d="M47 535v120q172 123 289 248q147 143 147 303q0 86 -32 117q-33 31 -83 31t-61 -14q-12 -14 -20 -68t-35 -84t-82 -29q-55 0 -85 29t-30 72q0 74 90 124t247 52q157 0 250 -66t93 -192q0 -223 -473 -455v-6h285q47 0 66 19t49 91h69l-18 -292h-666z" />
    <glyph glyph-name="threesuperior" unicode="&#xb3;" horiz-adv-x="817" 
d="M750 778q0 -120 -96 -190t-274 -70q-336 0 -337 164q0 45 29 75t71 29q106 0 127 -124q10 -40 24 -52t58 -12q141 0 142 178q0 104 -44 137t-137 33h-63v98h55q88 0 127 35t39 127q0 150 -111 150q-37 0 -50 -11t-19 -57q-13 -101 -113 -100q-45 0 -73 24t-27 68
q0 72 85 114t231 42t233 -54q86 -54 86 -144q1 -89 -61 -147t-183 -79v-4q281 -23 281 -230z" />
    <glyph glyph-name="acute" unicode="&#xb4;" horiz-adv-x="1056" 
d="M676 1542q48 0 78 -37q31 -37 30 -84q0 -90 -92 -112l-387 -101l-24 58l286 229q61 47 109 47z" />
    <glyph glyph-name="mu" unicode="&#xb5;" horiz-adv-x="1675" 
d="M942 545l-694 -33q-129 -6 -183 96t0 204t183 97l694 -32l-164 135q-109 90 -82 204t129 141q102 28 205 -52l588 -580v-29l-586 -577q-94 -92 -206 -54t-130 140t82 205z" />
    <glyph glyph-name="mu" unicode="&#x3bc;" horiz-adv-x="1675" 
d="M942 545l-694 -33q-129 -6 -183 96t0 204t183 97l694 -32l-164 135q-109 90 -82 204t129 141q102 28 205 -52l588 -580v-29l-586 -577q-94 -92 -206 -54t-130 140t82 205z" />
    <glyph glyph-name="paragraph" unicode="&#xb6;" horiz-adv-x="1234" 
d="M541 -205v887q-33 -4 -88 -4q-195 0 -295 104t-100 270t107 267q108 100 306 100h713v-80l-74 -16q-52 -12 -68 -36t-16 -111v-1381h-133v1516h-215v-1516h-137z" />
    <glyph glyph-name="periodcentered" unicode="&#xb7;" horiz-adv-x="751" 
d="M372 504q-85 0 -144 57q-58 57 -58 138t59 139t143 59q84 0 141 -57q58 -58 58 -140t-57 -139t-142 -57z" />
    <glyph glyph-name="cedilla" unicode="&#xb8;" horiz-adv-x="1056" 
d="M539 -315q0 70 -152 77l-18 21l108 217h113l-84 -113q115 -8 172 -52t57 -109q0 -92 -113 -164q-114 -71 -325 -94v67q242 55 242 150z" />
    <glyph glyph-name="onesuperior" unicode="&#xb9;" horiz-adv-x="612" 
d="M51 535v71l55 10q46 10 56 24t10 77v461l-121 12v76q211 37 336 178l55 -17v-710q0 -59 14 -77t54 -24l51 -10v-71h-510z" />
    <glyph glyph-name="ordmasculine" unicode="&#xba;" horiz-adv-x="1120" 
d="M552 586q106 0 158 81q50 81 50 291t-48 295q-48 84 -152 84t-151 -82q-49 -81 -49 -291t43 -294t149 -84zM553 485q-203 0 -342 122t-139 352q0 229 144 353t348 124t344 -118t140 -348t-146 -358t-349 -127z" />
    <glyph glyph-name="guillemotright" unicode="&#xbb;" horiz-adv-x="1036" 
d="M637 944l328 -395v-60l-328 -395h-98l168 426l-168 424h98zM186 944l332 -395v-60l-332 -395h-96l170 426l-170 424h96z" />
    <glyph glyph-name="onequarter" unicode="&#xbc;" horiz-adv-x="1753" 
d="M344 -102l1030 1564h156l-1032 -1564h-154zM51 535v71l55 10q46 10 56 24t10 77v461l-121 12v76q211 37 336 178l55 -17v-710q0 -59 14 -77t54 -24l51 -10v-71h-510zM1057 102h286v330h-10l-276 -321v-9zM1231 -213v72l47 10q31 8 42 15q23 15 23 85v17h-430v94l525 592
h131v-570h141l-14 -116h-127v-17q0 -59 11 -75t50 -25l47 -10v-72h-446z" />
    <glyph glyph-name="onehalf" unicode="&#xbd;" horiz-adv-x="1769" 
d="M295 -102l1030 1564h156l-1032 -1564h-154zM51 535v71l55 10q46 10 56 24t10 77v461l-121 12v76q211 37 336 178l55 -17v-710q0 -59 14 -77t54 -24l51 -10v-71h-510zM999 -213v121q180 131 289 248q147 143 148 303q0 86 -33 118q-33 31 -82 31t-61 -14t-20 -68t-36 -85
q-27 -29 -82 -29t-85 28t-29 72q0 74 90 125t246 51t249 -66q94 -66 95 -190q0 -225 -474 -457v-6h285q47 -1 67 19t48 94h69l-18 -295h-666z" />
    <glyph glyph-name="threequarters" unicode="&#xbe;" horiz-adv-x="1789" 
d="M410 -102l1030 1564h155l-1032 -1564h-153zM1094 102h286v330h-10l-276 -321v-9zM1268 -213v72l47 10q31 8 42 15q23 15 23 85v17h-430v94l525 592h131v-570h141l-14 -116h-127v-17q0 -59 11 -75t50 -25l47 -10v-72h-446zM750 778q0 -120 -96 -190t-274 -70
q-336 0 -337 164q0 45 29 75t71 29q106 0 127 -124q10 -40 24 -52t58 -12q141 0 142 178q0 104 -44 137t-137 33h-63v98h55q88 0 127 35t39 127q0 150 -111 150q-37 0 -50 -11t-19 -57q-13 -101 -113 -100q-45 0 -73 24t-27 68q0 72 85 114t231 42t233 -54q86 -54 86 -144
q1 -89 -61 -147t-183 -79v-4q281 -23 281 -230z" />
    <glyph glyph-name="questiondown" unicode="&#xbf;" horiz-adv-x="1028" 
d="M618 1278q82 0 138 -56t57 -136q0 -80 -56 -135q-57 -56 -139 -56t-138 56t-56 136q0 79 56 135t138 56zM692 772v-332q-317 -78 -317 -317q0 -93 55 -151t129 -58q43 0 58 16t25 88q22 152 167 152q67 0 103 -38t36 -93q0 -104 -109 -164q-111 -59 -315 -59t-328 97
t-124 275t140 296t351 153v135h129z" />
    <glyph glyph-name="Agrave" unicode="&#xc0;" horiz-adv-x="1490" 
d="M483 1754q0 42 32 79t79 37t108 -47l287 -230l-26 -57l-385 100q-47 12 -71 44t-24 74zM616 1047l-176 -506h367l-180 506h-11zM10 0v82l56 14q50 12 76 44t67 136l422 1143h209l438 -1151q40 -100 66 -131t73 -45l49 -10v-82h-669v82l57 14q43 10 59 26q17 16 17 43
q0 28 -37 134l-47 129h-445l-45 -129q-32 -102 -32 -131t19 -43t71 -29l59 -14v-82h-463z" />
    <glyph glyph-name="Aacute" unicode="&#xc1;" horiz-adv-x="1490" 
d="M892 1870q48 0 79 -37t30 -84q0 -90 -92 -113l-387 -100l-24 57l286 230q60 47 108 47zM616 1047l-176 -506h367l-180 506h-11zM10 0v82l56 14q50 12 76 44t67 136l422 1143h209l438 -1151q40 -100 66 -131t73 -45l49 -10v-82h-669v82l57 14q43 10 59 26q17 16 17 43
q0 28 -37 134l-47 129h-445l-45 -129q-32 -102 -32 -131t19 -43t71 -29l59 -14v-82h-463z" />
    <glyph glyph-name="Acircumflex" unicode="&#xc2;" horiz-adv-x="1490" 
d="M811 1896l268 -311l-45 -63l-293 161l-292 -161l-46 63l267 311h141zM616 1047l-176 -506h367l-180 506h-11zM10 0v82l56 14q50 12 76 44t67 136l422 1143h209l438 -1151q40 -100 66 -131t73 -45l49 -10v-82h-669v82l57 14q43 10 59 26q17 16 17 43q0 28 -37 134l-47 129
h-445l-45 -129q-32 -102 -32 -131t19 -43t71 -29l59 -14v-82h-463z" />
    <glyph glyph-name="Atilde" unicode="&#xc3;" horiz-adv-x="1490" 
d="M898 1769q26 0 45 9q23 11 87 120l78 -34q-49 -150 -96 -220q-46 -70 -112 -69q-66 0 -174 40t-148 40t-86 -76q-2 -6 -31 -55l-80 37q47 145 99 217t116 72t170 -41q106 -40 132 -40zM616 1047l-176 -506h367l-180 506h-11zM10 0v82l56 14q50 12 76 44t67 136l422 1143
h209l438 -1151q40 -100 66 -131t73 -45l49 -10v-82h-669v82l57 14q43 10 59 26q17 16 17 43q0 28 -37 134l-47 129h-445l-45 -129q-32 -102 -32 -131t19 -43t71 -29l59 -14v-82h-463z" />
    <glyph glyph-name="Adieresis" unicode="&#xc4;" horiz-adv-x="1490" 
d="M962 1552q-73 0 -124 48q-52 48 -52 118t52 118t124 48q74 0 124 -48t50 -118t-50 -118q-51 -48 -124 -48zM506 1552q-74 0 -125 48t-51 118t51 118t125 48t125 -48t51 -118t-51 -118t-125 -48zM616 1047l-176 -506h367l-180 506h-11zM10 0v82l56 14q50 12 76 44t67 136
l422 1143h209l438 -1151q40 -100 66 -131t73 -45l49 -10v-82h-669v82l57 14q43 10 59 26q17 16 17 43q0 28 -37 134l-47 129h-445l-45 -129q-32 -102 -32 -131t19 -43t71 -29l59 -14v-82h-463z" />
    <glyph glyph-name="Aring" unicode="&#xc5;" horiz-adv-x="1486" 
d="M727 1606q53 0 85 36t32 90q0 56 -32 93t-85 37t-85 -37t-32 -92t32 -91t85 -36zM725 1513q-102 1 -168 63q-65 62 -65 156t68 160q68 64 168 64q99 0 167 -62t68 -159q0 -96 -68 -159t-170 -63zM616 1047l-176 -506h367l-180 506h-11zM10 0v82l56 14q50 12 76 44t67 136
l422 1143h209l438 -1151q40 -100 66 -131t73 -45l49 -10v-82h-669v82l57 14q43 10 59 26q17 16 17 43q0 28 -37 134l-47 129h-445l-45 -129q-32 -102 -32 -131t19 -43t71 -29l59 -14v-82h-463z" />
    <glyph glyph-name="AE" unicode="&#xc6;" horiz-adv-x="2023" 
d="M911 516v641q0 25 -2 37h-4l-391 -678h397zM752 0v82l71 14q51 12 70 37q18 25 18 111v162h-460l-45 -80q-70 -123 -70 -162q0 -47 67 -68l66 -14v-82h-461v82l39 14q53 12 90 49t109 158l598 1012l-129 24v80h1179l23 -409h-88q-57 131 -115 217q-45 57 -91 69t-168 12
t-191 -16v-499h14q113 0 153 11t62 48q43 74 61 139h88v-518h-88q-16 55 -61 148q-20 39 -58 49t-157 10h-14v-385q0 -49 1 -78t13 -53t19 -32q7 -9 40 -15t56 -6h82q129 0 174 16t93 83t136 273h88l-31 -483h-1183z" />
    <glyph glyph-name="Ccedilla" unicode="&#xc7;" horiz-adv-x="1345" 
d="M909 -274q0 -92 -113 -164q-114 -71 -325 -94v67q242 55 242 150q0 70 -152 77l-18 21l102 207q-268 41 -420 220t-151 488q0 193 61 339q61 145 169 233q214 174 536 174q225 0 397 -47l23 -424h-86q-111 221 -158 281t-83 72q-36 13 -120 13q-193 0 -273 -134
q-80 -133 -79 -491q0 -358 81 -496t269 -138q92 0 139 26t99 95q80 115 141 266h84l-23 -408q-205 -84 -440 -84l-63 2l-68 -90q115 -8 172 -52t57 -109z" />
    <glyph glyph-name="Egrave" unicode="&#xc8;" horiz-adv-x="1357" 
d="M526 1870q47 0 109 -47l287 -230l-27 -57l-385 100q-47 12 -71 44q-23 32 -23 74t31 79q32 37 79 37zM55 0v82l72 14q51 12 67 36q15 24 15 112v932q0 88 -15 112t-67 35l-72 16v80h1172l22 -409h-90q-114 264 -208 287q-46 11 -169 11t-207 -18v-497h39q113 0 153 11
t62 48q47 80 62 139h90v-518h-90q-12 49 -62 148q-20 39 -57 49t-158 10h-39v-385q0 -137 29 -161q28 -24 178 -24t195 17q45 16 97 86t136 270h90l-30 -483h-1215z" />
    <glyph glyph-name="Eacute" unicode="&#xc9;" horiz-adv-x="1357" 
d="M55 0v82l72 14q51 12 67 36q15 24 15 112v932q0 88 -15 112t-67 35l-72 16v80h1172l22 -409h-90q-114 264 -208 287q-46 11 -169 11t-207 -18v-497h39q113 0 153 11t62 48q47 80 62 139h90v-518h-90q-12 49 -62 148q-20 39 -57 49t-158 10h-39v-385q0 -137 29 -161
q28 -24 178 -24t195 17q45 16 97 86t136 270h90l-30 -483h-1215zM866 1870q47 0 78 -37t31 -84q0 -90 -92 -113l-387 -100l-25 57l287 230q61 47 108 47z" />
    <glyph glyph-name="Ecircumflex" unicode="&#xca;" horiz-adv-x="1357" 
d="M55 0v82l72 14q51 12 67 36q15 24 15 112v932q0 88 -15 112t-67 35l-72 16v80h1172l22 -409h-90q-114 264 -208 287q-46 11 -169 11t-207 -18v-497h39q113 0 153 11t62 48q47 80 62 139h90v-518h-90q-12 49 -62 148q-20 39 -57 49t-158 10h-39v-385q0 -137 29 -161
q28 -24 178 -24t195 17q45 16 97 86t136 270h90l-30 -483h-1215zM782 1896l269 -311l-45 -63l-293 161l-293 -161l-45 63l266 311h141z" />
    <glyph glyph-name="Edieresis" unicode="&#xcb;" horiz-adv-x="1357" 
d="M55 0v82l72 14q51 12 67 36q15 24 15 112v932q0 88 -15 112t-67 35l-72 16v80h1172l22 -409h-90q-114 264 -208 287q-46 11 -169 11t-207 -18v-497h39q113 0 153 11t62 48q47 80 62 139h90v-518h-90q-12 49 -62 148q-20 39 -57 49t-158 10h-39v-385q0 -137 29 -161
q28 -24 178 -24t195 17q45 16 97 86t136 270h90l-30 -483h-1215zM1102 1718q0 -70 -51 -118t-124 -48t-124 48t-51 118t51 118t124 48t124 -48t51 -118zM471 1552q-74 0 -125 48t-51 118t51 118t125 48t125 -48t51 -118t-51 -118t-125 -48z" />
    <glyph glyph-name="Igrave" unicode="&#xcc;" horiz-adv-x="798" 
d="M145 1754q0 42 32 79t79 37t109 -47l286 -230l-26 -57l-385 100q-47 12 -71 44t-24 74zM55 0v82l78 14q51 12 67 36q15 24 15 112v932q0 90 -14 112t-68 35l-78 16v80h693v-80l-82 -16q-54 -12 -68 -35t-14 -112v-932q0 -88 14 -113t68 -35l82 -14v-82h-693z" />
    <glyph glyph-name="Iacute" unicode="&#xcd;" horiz-adv-x="798" 
d="M546 1870q48 0 79 -37t30 -84q0 -90 -92 -113l-387 -100l-24 57l286 230q60 47 108 47zM55 0v82l78 14q51 12 67 36q15 24 15 112v932q0 90 -14 112t-68 35l-78 16v80h693v-80l-82 -16q-54 -12 -68 -35t-14 -112v-932q0 -88 14 -113t68 -35l82 -14v-82h-693z" />
    <glyph glyph-name="Icircumflex" unicode="&#xce;" horiz-adv-x="798" 
d="M473 1896l268 -311l-45 -63l-293 161l-292 -161l-45 63l266 311h141zM55 0v82l78 14q51 12 67 36q15 24 15 112v932q0 90 -14 112t-68 35l-78 16v80h693v-80l-82 -16q-54 -12 -68 -35t-14 -112v-932q0 -88 14 -113t68 -35l82 -14v-82h-693z" />
    <glyph glyph-name="Idieresis" unicode="&#xcf;" horiz-adv-x="798" 
d="M809 1718q0 -70 -51 -118t-124 -48t-124 48t-51 118t51 118t124 48t124 -48t51 -118zM178 1552q-74 0 -125 48t-51 118t51 118t125 48t125 -48t51 -118t-51 -118t-125 -48zM55 0v82l78 14q51 12 67 36q15 24 15 112v932q0 90 -14 112t-68 35l-78 16v80h693v-80l-82 -16
q-54 -12 -68 -35t-14 -112v-932q0 -88 14 -113t68 -35l82 -14v-82h-693z" />
    <glyph glyph-name="Eth" unicode="&#xd0;" horiz-adv-x="1562" 
d="M729 109q203 0 291 138q88 137 88 463t-90 464t-293 137q-104 0 -150 -19v-524h291v-111h-291v-356q0 -121 29 -157t125 -35zM74 657v111h135v408q0 88 -15 112t-67 35l-72 16v80h705q342 0 536 -168t195 -516q0 -347 -199 -541t-542 -194h-695v82l72 14q51 12 67 36
q15 24 15 112v413h-135z" />
    <glyph glyph-name="Ntilde" unicode="&#xd1;" horiz-adv-x="1505" 
d="M944 1769q26 0 44 9q23 11 87 120l78 -34q-49 -150 -96 -220t-113 -69q-66 0 -173 40t-147 40t-87 -76q-2 -6 -31 -55l-80 37q47 145 99 217q53 72 117 72t170 -41q106 -40 132 -40zM358 1178v-904q0 -110 16 -138t85 -40l73 -14v-82h-460v82l63 14q55 12 73 40
q17 28 17 128v912q0 88 -15 112t-67 35l-71 16v80h561l553 -833h8v561q0 109 -15 135t-83 41l-84 16v80h469v-80l-62 -14q-57 -14 -74 -41t-18 -129v-1159h-168l-792 1182h-9z" />
    <glyph glyph-name="Ograve" unicode="&#xd2;" horiz-adv-x="1562" 
d="M522 1754q0 42 32 79t79 37t108 -47l287 -230l-27 -57l-385 100q-94 24 -94 118zM784 86q117 0 184 48q138 99 138 546q0 354 -74 504t-256 149q-114 0 -180 -48q-140 -101 -139 -550q0 -352 72 -501q73 -148 255 -148zM74 671q0 215 63 365t167 236q209 172 495 172
t488 -182t202 -539q1 -195 -63 -345t-170 -234q-208 -169 -510 -169q-162 0 -317 75t-255 241t-100 380z" />
    <glyph glyph-name="Oacute" unicode="&#xd3;" horiz-adv-x="1562" 
d="M784 86q117 0 184 48q138 99 138 546q0 354 -74 504t-256 149q-114 0 -180 -48q-140 -101 -139 -550q0 -352 72 -501q73 -148 255 -148zM74 671q0 215 63 365t167 236q209 172 495 172t488 -182t202 -539q1 -195 -63 -345t-170 -234q-208 -169 -510 -169q-162 0 -317 75
t-255 241t-100 380zM932 1870q48 0 78 -37q31 -37 30 -84q0 -90 -92 -113l-387 -100l-24 57l286 230q61 47 109 47z" />
    <glyph glyph-name="Ocircumflex" unicode="&#xd4;" horiz-adv-x="1562" 
d="M784 86q117 0 184 48q138 99 138 546q0 354 -74 504t-256 149q-114 0 -180 -48q-140 -101 -139 -550q0 -352 72 -501q73 -148 255 -148zM74 671q0 215 63 365t167 236q209 172 495 172t488 -182t202 -539q1 -195 -63 -345t-170 -234q-208 -169 -510 -169q-162 0 -317 75
t-255 241t-100 380zM854 1896l268 -311l-45 -63l-293 161l-292 -161l-46 63l267 311h141z" />
    <glyph glyph-name="Otilde" unicode="&#xd5;" horiz-adv-x="1562" 
d="M940 1769q26 0 44 9q23 11 87 120l78 -34q-49 -150 -96 -220t-113 -69q-66 0 -173 40t-147 40t-88 -76q-1 -6 -30 -55l-80 37q47 145 99 217q53 72 117 72t170 -41q106 -40 132 -40zM784 86q117 0 184 48q138 99 138 546q0 354 -74 504t-256 149q-114 0 -180 -48
q-140 -101 -139 -550q0 -352 72 -501q73 -148 255 -148zM74 671q0 215 63 365t167 236q209 172 495 172t488 -182t202 -539q1 -195 -63 -345t-170 -234q-208 -169 -510 -169q-162 0 -317 75t-255 241t-100 380z" />
    <glyph glyph-name="Odieresis" unicode="&#xd6;" horiz-adv-x="1562" 
d="M784 86q117 0 184 48q138 99 138 546q0 354 -74 504t-256 149q-114 0 -180 -48q-140 -101 -139 -550q0 -352 72 -501q73 -148 255 -148zM74 671q0 215 63 365t167 236q209 172 495 172t488 -182t202 -539q1 -195 -63 -345t-170 -234q-208 -169 -510 -169q-162 0 -317 75
t-255 241t-100 380zM1188 1718q0 -70 -51 -118t-124 -48t-124 48t-51 118t51 118t124 48t124 -48t51 -118zM557 1552q-74 0 -125 48t-51 118t51 118t125 48t125 -48t51 -118t-51 -118t-125 -48z" />
    <glyph glyph-name="multiply" unicode="&#xd7;" horiz-adv-x="962" 
d="M195 295l-103 94l293 299l-283 291l107 98l274 -289l283 289l100 -94l-284 -293l292 -299l-104 -96l-291 295z" />
    <glyph glyph-name="Oslash" unicode="&#xd8;" horiz-adv-x="1562" 
d="M784 86q117 0 185 48q139 98 139 546q0 238 -27 373l-557 -828q67 -139 260 -139zM455 735q0 -250 24 -375l557 828q-74 145 -252 145t-254 -127t-75 -471zM74 692q0 194 63 344t167 236q209 172 484 172q203 0 363 -86l92 137h135l-135 -201q246 -195 246 -571
q1 -195 -63 -345t-170 -234q-210 -169 -482 -169q-201 0 -360 86l-131 -192h-133l172 254q-248 197 -248 569z" />
    <glyph glyph-name="Ugrave" unicode="&#xd9;" horiz-adv-x="1513" 
d="M651 1870q47 0 109 -47l287 -230l-27 -57l-385 100q-47 12 -71 44t-24 74t32 79t79 37zM799 -25q-604 0 -604 482v719q1 88 -15 112t-67 35l-76 16v80h678v-80l-70 -16q-55 -12 -69 -35t-15 -112v-760q0 -158 72 -224t252 -65q305 0 305 317v703q0 109 -16 135t-84 41
l-86 16v80h469v-80l-62 -14q-55 -14 -73 -41t-17 -129v-727q0 -201 -131 -327t-391 -126z" />
    <glyph glyph-name="Uacute" unicode="&#xda;" horiz-adv-x="1513" 
d="M799 -25q-604 0 -604 482v719q1 88 -15 112t-67 35l-76 16v80h678v-80l-70 -16q-55 -12 -69 -35t-15 -112v-760q0 -158 72 -224t252 -65q305 0 305 317v703q0 109 -16 135t-84 41l-86 16v80h469v-80l-62 -14q-55 -14 -73 -41t-17 -129v-727q0 -201 -131 -327t-391 -126z
M1028 1870q47 0 78 -37t31 -84q0 -90 -93 -113l-387 -100l-24 57l287 230q61 47 108 47z" />
    <glyph glyph-name="Ucircumflex" unicode="&#xdb;" horiz-adv-x="1513" 
d="M799 -25q-604 0 -604 482v719q1 88 -15 112t-67 35l-76 16v80h678v-80l-70 -16q-55 -12 -69 -35t-15 -112v-760q0 -158 72 -224t252 -65q305 0 305 317v703q0 109 -16 135t-84 41l-86 16v80h469v-80l-62 -14q-55 -14 -73 -41t-17 -129v-727q0 -201 -131 -327t-391 -126z
M924 1896l268 -311l-45 -63l-293 161l-293 -161l-45 63l266 311h142z" />
    <glyph glyph-name="Udieresis" unicode="&#xdc;" horiz-adv-x="1513" 
d="M799 -25q-604 0 -604 482v719q1 88 -15 112t-67 35l-76 16v80h678v-80l-70 -16q-55 -12 -69 -35t-15 -112v-760q0 -158 72 -224t252 -65q305 0 305 317v703q0 109 -16 135t-84 41l-86 16v80h469v-80l-62 -14q-55 -14 -73 -41t-17 -129v-727q0 -201 -131 -327t-391 -126z
M1235 1718q0 -70 -51 -118t-124 -48t-124 48t-51 118t51 118t124 48t124 -48t51 -118zM604 1552q-74 0 -125 48t-51 118t51 118t125 48t125 -48t51 -118t-51 -118t-125 -48z" />
    <glyph glyph-name="Yacute" unicode="&#xdd;" horiz-adv-x="1402" 
d="M968 1907q48 0 79 -37t30 -84q0 -90 -92 -113l-387 -100l-25 57l287 230q60 47 108 47zM365 0v82l79 14q55 12 70 35q14 23 14 113v338l-309 567q-55 96 -86 130t-74 46l-43 14v80h701v-80l-58 -14q-82 -16 -81 -82q0 -23 45 -117l190 -393h10l195 379q39 86 39 133
q0 57 -78 80l-59 14v80h469v-80l-41 -14q-49 -16 -88 -59t-89 -140l-276 -532v-350q0 -90 14 -113t72 -35l82 -14v-82h-698z" />
    <glyph glyph-name="Thorn" unicode="&#xde;" horiz-adv-x="1382" 
d="M55 0v82l74 14q49 12 65 36q15 24 15 112v932q0 88 -15 112t-65 35l-74 16v80h670v-80l-76 -16q-51 -12 -65 -35t-15 -112v-39h152q279 1 424 -103t145 -296t-120 -308q-120 -115 -324 -115q-92 0 -154 25v80q125 0 179 60q55 60 55 236t-54 247q-54 69 -154 69
q-102 0 -149 -14v-774q-1 -86 15 -110t69 -34l103 -18v-82h-701z" />
    <glyph glyph-name="germandbls" unicode="&#xdf;" horiz-adv-x="1415" 
d="M770 309q64 1 92 -29t35 -98q8 -68 28 -86q20 -20 82 -20t107 34t45 90t-46 99t-184 130q-139 87 -191 149t-52 124q0 64 36 137t80 134t80 145t36 160q0 207 -191 207q-99 1 -163 -63t-64 -205v-1018q0 -70 6 -87t39 -26l30 -6v-80h-534v80l59 14q52 14 64 32t12 85v707
h-149v75l149 70v49q0 225 171 346t405 121t357 -74q122 -74 122 -194q0 -84 -53 -159t-118 -118t-118 -87t-53 -76q0 -33 45 -67t192 -119q148 -85 210 -165t63 -188q0 -156 -119 -253t-287 -97t-261 57t-93 147q0 55 34 89q33 34 97 34z" />
    <glyph glyph-name="agrave" unicode="&#xe0;" horiz-adv-x="1148" 
d="M276 1426q0 42 32 79t79 37t109 -47l286 -229l-26 -58l-385 101q-47 12 -71 44q-24 31 -24 73zM367 306q1 -100 39 -137q38 -36 122 -36t121 62v321l-102 -10q-96 -6 -138 -53t-42 -147zM369 -25q-147 0 -233 73q-85 73 -85 205t95 212t337 137l166 37v154q0 123 -32 161
t-125 39q-46 0 -62 -14q-16 -13 -22 -85t-46 -116t-122 -43q-139 0 -140 129q0 102 125 164t336 64q412 0 412 -281v-547q0 -57 10 -84t41 -41q27 -16 98 -20v-74q-100 -70 -241 -70q-178 0 -215 125h-11q-98 -125 -286 -125z" />
    <glyph glyph-name="aacute" unicode="&#xe1;" horiz-adv-x="1148" 
d="M724 1542q48 0 79 -37t31 -84q0 -90 -93 -112l-387 -101l-24 58l286 229q60 47 108 47zM367 306q1 -100 39 -137q38 -36 122 -36t121 62v321l-102 -10q-96 -6 -138 -53t-42 -147zM369 -25q-147 0 -233 73q-85 73 -85 205t95 212t337 137l166 37v154q0 123 -32 161
t-125 39q-46 0 -62 -14q-16 -13 -22 -85t-46 -116t-122 -43q-139 0 -140 129q0 102 125 164t336 64q412 0 412 -281v-547q0 -57 10 -84t41 -41q27 -16 98 -20v-74q-100 -70 -241 -70q-178 0 -215 125h-11q-98 -125 -286 -125z" />
    <glyph glyph-name="acircumflex" unicode="&#xe2;" horiz-adv-x="1148" 
d="M621 1569l268 -312l-45 -63l-293 162l-293 -162l-45 63l266 312h142zM367 306q1 -100 39 -137q38 -36 122 -36t121 62v321l-102 -10q-96 -6 -138 -53t-42 -147zM369 -25q-147 0 -233 73q-85 73 -85 205t95 212t337 137l166 37v154q0 123 -32 161t-125 39q-46 0 -62 -14
q-16 -13 -22 -85t-46 -116t-122 -43q-139 0 -140 129q0 102 125 164t336 64q412 0 412 -281v-547q0 -57 10 -84t41 -41q27 -16 98 -20v-74q-100 -70 -241 -70q-178 0 -215 125h-11q-98 -125 -286 -125z" />
    <glyph glyph-name="atilde" unicode="&#xe3;" horiz-adv-x="1148" 
d="M402 1522q64 0 170 -40q105 -40 132 -40t42 7t33 32q17 25 25 36q7 11 32 54l77 -35q-49 -150 -96 -220t-113 -69q-66 0 -173 40t-147 40t-87 -76q-2 -6 -31 -55l-80 37q48 145 100 217t116 72zM367 306q1 -100 39 -137q38 -36 122 -36t121 62v321l-102 -10
q-96 -6 -138 -53t-42 -147zM369 -25q-147 0 -233 73q-85 73 -85 205t95 212t337 137l166 37v154q0 123 -32 161t-125 39q-46 0 -62 -14q-16 -13 -22 -85t-46 -116t-122 -43q-139 0 -140 129q0 102 125 164t336 64q412 0 412 -281v-547q0 -57 10 -84t41 -41q27 -16 98 -20
v-74q-100 -70 -241 -70q-178 0 -215 125h-11q-98 -125 -286 -125z" />
    <glyph glyph-name="adieresis" unicode="&#xe4;" horiz-adv-x="1148" 
d="M783 1225q-73 0 -124 48t-51 118q0 69 51 117t124 48t124 -48t51 -118t-51 -117q-51 -48 -124 -48zM328 1225q-74 0 -125 48t-51 118q0 69 51 117t125 48t125 -48t51 -118t-51 -117q-51 -48 -125 -48zM367 306q1 -100 39 -137q38 -36 122 -36t121 62v321l-102 -10
q-96 -6 -138 -53t-42 -147zM369 -25q-147 0 -233 73q-85 73 -85 205t95 212t337 137l166 37v154q0 123 -32 161t-125 39q-46 0 -62 -14q-16 -13 -22 -85t-46 -116t-122 -43q-139 0 -140 129q0 102 125 164t336 64q412 0 412 -281v-547q0 -57 10 -84t41 -41q27 -16 98 -20
v-74q-100 -70 -241 -70q-178 0 -215 125h-11q-98 -125 -286 -125z" />
    <glyph glyph-name="aring" unicode="&#xe5;" horiz-adv-x="1148" 
d="M559 1298q53 0 85 36t32 91t-32 93t-85 36q-53 0 -85 -36t-32 -92t32 -92t85 -36zM560 1649q99 -1 167 -63t68 -158t-68 -160q-68 -62 -170 -62t-168 62t-65 157q0 94 68 159q69 65 168 65zM367 306q1 -100 39 -137q38 -36 122 -36t121 62v321l-102 -10q-96 -6 -138 -53
t-42 -147zM369 -25q-147 0 -233 73q-85 73 -85 205t95 212t337 137l166 37v154q0 123 -32 161t-125 39q-46 0 -62 -14q-16 -13 -22 -85t-46 -116t-122 -43q-139 0 -140 129q0 102 125 164t336 64q412 0 412 -281v-547q0 -57 10 -84t41 -41q27 -16 98 -20v-74
q-100 -70 -241 -70q-178 0 -215 125h-11q-98 -125 -286 -125z" />
    <glyph glyph-name="ae" unicode="&#xe6;" horiz-adv-x="1689" 
d="M520 133q106 0 170 121q-43 111 -45 252l-98 -10q-94 -6 -135 -44t-41 -144q-1 -106 37 -140q38 -35 112 -35zM1160 989q-89 0 -146 -84t-64 -260l367 21q0 180 -34 252t-123 71zM1165 -25q-293 0 -424 181q-67 -98 -153 -140t-226 -41q-140 0 -225 72q-86 72 -86 206
t94 209t279 120l221 49v162q0 117 -31 159t-99 41q-67 0 -85 -15t-22 -60q-8 -96 -48 -140t-122 -43q-137 0 -138 131q0 100 125 162t320 64q238 0 317 -127q131 127 330 127q200 0 320 -136t120 -413h-680q12 -207 100 -296t240 -89q154 0 310 78v-93q-60 -66 -178 -117
t-259 -51z" />
    <glyph glyph-name="ccedilla" unicode="&#xe7;" horiz-adv-x="1073" 
d="M716 1092q136 0 223 -50t87 -141q0 -66 -41 -115t-104 -49q-133 0 -148 156q-8 59 -25 75t-69 17q-254 0 -254 -371q0 -457 346 -456q133 0 293 80v-93q-55 -65 -171 -117t-269 -53h-27l-65 -88q115 -8 172 -52t57 -109q1 -92 -113 -164t-325 -94v67q242 55 241 150
q0 70 -151 77l-19 21l103 205q-193 35 -295 175t-103 359q0 154 58 269q99 200 355 271q108 30 244 30z" />
    <glyph glyph-name="egrave" unicode="&#xe8;" horiz-adv-x="1138" 
d="M340 1426q0 42 32 79t79 37t108 -47l287 -229l-27 -58l-385 101q-94 23 -94 117zM590 989q-195 0 -209 -330l373 19q0 184 -33 248t-131 63zM604 -25q-268 -1 -406 147t-138 408t162 410q163 152 386 152t345 -127t126 -408h-698q10 -217 99 -308t247 -91t322 78v-93
q-63 -68 -181 -118t-264 -50z" />
    <glyph glyph-name="eacute" unicode="&#xe9;" horiz-adv-x="1138" 
d="M590 989q-195 0 -209 -330l373 19q0 184 -33 248t-131 63zM604 -25q-268 -1 -406 147t-138 408t162 410q163 152 386 152t345 -127t126 -408h-698q10 -217 99 -308t247 -91t322 78v-93q-63 -68 -181 -118t-264 -50zM786 1542q47 0 78 -37t31 -84q0 -90 -92 -112
l-387 -101l-25 58l287 229q61 47 108 47z" />
    <glyph glyph-name="ecircumflex" unicode="&#xea;" horiz-adv-x="1138" 
d="M590 989q-195 0 -209 -330l373 19q0 184 -33 248t-131 63zM604 -25q-268 -1 -406 147t-138 408t162 410q163 152 386 152t345 -127t126 -408h-698q10 -217 99 -308t247 -91t322 78v-93q-63 -68 -181 -118t-264 -50zM672 1569l268 -312l-45 -63l-293 162l-293 -162l-45 63
l266 312h142z" />
    <glyph glyph-name="edieresis" unicode="&#xeb;" horiz-adv-x="1138" 
d="M590 989q-195 0 -209 -330l373 19q0 184 -33 248t-131 63zM604 -25q-268 -1 -406 147t-138 408t162 410q163 152 386 152t345 -127t126 -408h-698q10 -217 99 -308t247 -91t322 78v-93q-63 -68 -181 -118t-264 -50zM830 1225q-74 0 -124 48t-51 118q-1 69 51 117t124 48
t124 -48t52 -118t-52 -117q-52 -48 -124 -48zM375 1225q-74 0 -125 48t-51 118q0 69 51 117t125 48t125 -48t51 -118t-51 -117q-51 -48 -125 -48z" />
    <glyph glyph-name="igrave" unicode="&#xec;" horiz-adv-x="667" 
d="M8 1426q0 42 32 79t79 37t108 -47l287 -229l-27 -58l-385 101q-94 23 -94 117zM41 0v68l59 20q55 14 66 39q10 25 10 127v512q0 86 -10 108t-60 54l-71 49v65l450 48l31 -17l-12 -127q-4 -70 -4 -153v-539q0 -102 11 -128t62 -38l60 -20v-68h-592z" />
    <glyph glyph-name="iacute" unicode="&#xed;" horiz-adv-x="667" 
d="M41 0v68l59 20q55 14 66 39q10 25 10 127v512q0 86 -10 108t-60 54l-71 49v65l450 48l31 -17l-12 -127q-4 -70 -4 -153v-539q0 -102 11 -128t62 -38l60 -20v-68h-592zM550 1542q48 0 79 -37t30 -84q0 -90 -92 -112l-387 -101l-24 58l286 229q60 47 108 47z" />
    <glyph glyph-name="icircumflex" unicode="&#xee;" horiz-adv-x="667" 
d="M41 0v68l59 20q55 14 66 39q10 25 10 127v512q0 86 -10 108t-60 54l-71 49v65l450 48l31 -17l-12 -127q-4 -70 -4 -153v-539q0 -102 11 -128t62 -38l60 -20v-68h-592zM418 1569l268 -312l-45 -63l-293 162l-293 -162l-45 63l266 312h142z" />
    <glyph glyph-name="idieresis" unicode="&#xef;" horiz-adv-x="667" 
d="M41 0v68l59 20q55 14 66 39q10 25 10 127v512q0 86 -10 108t-60 54l-71 49v65l450 48l31 -17l-12 -127q-4 -70 -4 -153v-539q0 -102 11 -128t62 -38l60 -20v-68h-592zM570 1225q-73 0 -124 48t-51 118q0 69 51 117t124 48t124 -48t51 -118t-51 -117q-51 -48 -124 -48z
M115 1225q-74 0 -125 48t-51 118q0 69 51 117t125 48t125 -48t51 -118t-51 -117q-51 -48 -125 -48z" />
    <glyph glyph-name="eth" unicode="&#xf0;" horiz-adv-x="1257" 
d="M605 971q-99 0 -151 -91q-52 -92 -52 -350t52 -354q54 -96 173 -96t176 87t57 311q0 390 -109 462q-48 31 -146 31zM1196 616q0 -176 -48 -305t-132 -199q-163 -136 -398 -137q-235 1 -397 141t-162 406q0 139 51 250q87 193 302 270q92 33 186 33q131 0 225 -94
q-68 164 -211 305l-247 -110l-43 92l204 92q-111 90 -260 158l37 81q242 -61 408 -155l229 102l45 -90l-172 -78q383 -270 383 -762z" />
    <glyph glyph-name="ntilde" unicode="&#xf1;" horiz-adv-x="1347" 
d="M530 1522q64 0 169 -40t132 -40t42 7t33 32q17 25 25 36q7 11 32 54l77 -35q-49 -150 -96 -220q-46 -70 -112 -69q-66 0 -174 40t-148 40t-86 -76q-2 -6 -31 -55l-80 37q47 145 99 217q54 72 118 72zM57 0v80l60 14q51 14 63 32t13 85v590q1 61 -11 81t-59 50l-72 45v65
l432 48l29 -19l-14 -125h10q209 143 407 144q279 0 279 -273v-606q0 -66 13 -85t63 -32l55 -14v-80h-577v80l55 12q45 12 55 30t10 89v514q0 94 -34 133q-35 39 -115 39t-203 -39v-647q0 -72 10 -89t56 -30l55 -12v-80h-580z" />
    <glyph glyph-name="ograve" unicode="&#xf2;" horiz-adv-x="1253" 
d="M342 1426q0 42 32 79t79 37t108 -47l287 -229l-27 -58l-385 101q-94 23 -94 117zM618 985q-112 0 -164 -93t-52 -355q0 -261 52 -359q54 -98 172 -98t172 94t54 317q0 386 -104 461q-47 33 -130 33zM1194 536q0 -271 -164 -416t-406 -145q-241 -1 -403 143t-162 412
q0 186 84 316q157 243 486 246q241 0 403 -142t162 -414z" />
    <glyph glyph-name="oacute" unicode="&#xf3;" horiz-adv-x="1253" 
d="M618 985q-112 0 -164 -93t-52 -355q0 -261 52 -359q54 -98 172 -98t172 94t54 317q0 386 -104 461q-47 33 -130 33zM1194 536q0 -271 -164 -416t-406 -145q-241 -1 -403 143t-162 412q0 186 84 316q157 243 486 246q241 0 403 -142t162 -414zM813 1542q47 0 78 -37
t31 -84q0 -90 -93 -112l-387 -101l-24 58l287 229q61 47 108 47z" />
    <glyph glyph-name="ocircumflex" unicode="&#xf4;" horiz-adv-x="1253" 
d="M618 985q-112 0 -164 -93t-52 -355q0 -261 52 -359q54 -98 172 -98t172 94t54 317q0 386 -104 461q-47 33 -130 33zM1194 536q0 -271 -164 -416t-406 -145q-241 -1 -403 143t-162 412q0 186 84 316q157 243 486 246q241 0 403 -142t162 -414zM694 1569l269 -312l-45 -63
l-293 162l-293 -162l-45 63l266 312h141z" />
    <glyph glyph-name="otilde" unicode="&#xf5;" horiz-adv-x="1253" 
d="M474 1522q64 0 170 -40t132 -40t42 7t33 32t25 36q7 11 31 54l78 -35q-49 -150 -96 -220t-113 -69q-66 0 -173 40t-147 40t-87 -76q-2 -6 -31 -55l-80 37q47 145 99 217q53 72 117 72zM618 985q-112 0 -164 -93t-52 -355q0 -261 52 -359q54 -98 172 -98t172 94t54 317
q0 386 -104 461q-47 33 -130 33zM1194 536q0 -271 -164 -416t-406 -145q-241 -1 -403 143t-162 412q0 186 84 316q157 243 486 246q241 0 403 -142t162 -414z" />
    <glyph glyph-name="odieresis" unicode="&#xf6;" horiz-adv-x="1253" 
d="M618 985q-112 0 -164 -93t-52 -355q0 -261 52 -359q54 -98 172 -98t172 94t54 317q0 386 -104 461q-47 33 -130 33zM1194 536q0 -271 -164 -416t-406 -145q-241 -1 -403 143t-162 412q0 186 84 316q157 243 486 246q241 0 403 -142t162 -414zM853 1225q-73 0 -124 48
t-51 118q0 69 51 117t124 48t124 -48t51 -118t-51 -117q-51 -48 -124 -48zM397 1225q-74 0 -125 48t-51 118q0 69 51 117t125 48t125 -48t51 -118t-51 -117q-51 -48 -125 -48z" />
    <glyph glyph-name="divide" unicode="&#xf7;" horiz-adv-x="1030" 
d="M676 334q0 -62 -47 -110t-111 -48t-112 47t-48 111t46 109q46 46 112 46t113 -46t47 -109zM94 643v139h840v-139h-840zM676 1092q0 -64 -47 -110t-111 -46t-112 46t-48 110t46 109q46 46 112 46t113 -46t47 -109z" />
    <glyph glyph-name="oslash" unicode="&#xf8;" horiz-adv-x="1253" 
d="M635 80q111 0 170 108t57 379q0 109 -10 197l-416 -596q27 -52 73 -70t126 -18zM618 985q-111 -1 -170 -107t-57 -368q0 -123 10 -215l418 598q-27 55 -71 74q-45 18 -130 18zM59 530q0 186 84 316q157 243 486 246q160 0 284 -64l113 162h123l-150 -215
q195 -147 195 -429t-165 -426t-400 -145q-156 0 -285 60l-115 -166h-123l152 219q-199 147 -199 442z" />
    <glyph glyph-name="ugrave" unicode="&#xf9;" horiz-adv-x="1343" 
d="M385 1426q0 42 32 79t79 37t108 -47l287 -229l-27 -58l-385 101q-94 23 -94 117zM449 -25q-129 0 -203 70t-74 203v563q0 63 -9 81t-57 46l-75 41v65l430 46l35 -23v-737q0 -88 34 -127t111 -39q76 0 209 51v596q0 63 -10 83t-58 44l-71 41v65l430 46l33 -23v-799
q0 -76 11 -96t58 -39l60 -27v-71l-420 -60l-29 21l12 133h-8q-216 -154 -409 -154z" />
    <glyph glyph-name="uacute" unicode="&#xfa;" horiz-adv-x="1343" 
d="M449 -25q-129 0 -203 70t-74 203v563q0 63 -9 81t-57 46l-75 41v65l430 46l35 -23v-737q0 -88 34 -127t111 -39q76 0 209 51v596q0 63 -10 83t-58 44l-71 41v65l430 46l33 -23v-799q0 -76 11 -96t58 -39l60 -27v-71l-420 -60l-29 21l12 133h-8q-216 -154 -409 -154z
M872 1542q47 0 78 -37t31 -84q0 -90 -92 -112l-387 -101l-25 58l287 229q61 47 108 47z" />
    <glyph glyph-name="ucircumflex" unicode="&#xfb;" horiz-adv-x="1343" 
d="M449 -25q-129 0 -203 70t-74 203v563q0 63 -9 81t-57 46l-75 41v65l430 46l35 -23v-737q0 -88 34 -127t111 -39q76 0 209 51v596q0 63 -10 83t-58 44l-71 41v65l430 46l33 -23v-799q0 -76 11 -96t58 -39l60 -27v-71l-420 -60l-29 21l12 133h-8q-216 -154 -409 -154z
M743 1569l269 -312l-45 -63l-293 162l-293 -162l-45 63l266 312h141z" />
    <glyph glyph-name="udieresis" unicode="&#xfc;" horiz-adv-x="1343" 
d="M449 -25q-129 0 -203 70t-74 203v563q0 63 -9 81t-57 46l-75 41v65l430 46l35 -23v-737q0 -88 34 -127t111 -39q76 0 209 51v596q0 63 -10 83t-58 44l-71 41v65l430 46l33 -23v-799q0 -76 11 -96t58 -39l60 -27v-71l-420 -60l-29 21l12 133h-8q-216 -154 -409 -154z
M861 1225q-73 0 -124 48t-51 118q0 69 51 117t124 48t124 -48t51 -118t-51 -117q-51 -48 -124 -48zM406 1225q-74 0 -125 48t-52 118q-1 69 51 117t126 48t124 -48t52 -118q0 -70 -51 -117q-51 -48 -125 -48z" />
    <glyph glyph-name="yacute" unicode="&#xfd;" horiz-adv-x="1206" 
d="M834 1542q48 0 78 -37t30 -84q0 -90 -92 -112l-387 -101l-25 58l287 229q61 47 109 47zM284 -455q-114 0 -170 46q-56 45 -56 111t32 103q33 37 92 37t89 -24q29 -24 49 -73q20 -50 36 -50q78 0 166 196l33 78l-389 842q-48 98 -66 124t-53 36l-39 12v80h606v-80l-55 -14
q-68 -14 -67 -78q0 -47 32 -113l191 -440h8l170 440q23 60 23 118t-64 73l-59 14v80h419v-80l-47 -14q-39 -12 -58 -42t-65 -136l-397 -920q-74 -170 -161 -248q-86 -78 -200 -78z" />
    <glyph glyph-name="thorn" unicode="&#xfe;" horiz-adv-x="1302" 
d="M649 82q139 0 202 91q62 91 62 319t-64 321q-65 92 -194 92q-68 0 -176 -47v-702q64 -74 170 -74zM154 -274v1570q0 74 -10 94t-52 42l-80 38v72l453 39l29 -20q-14 -90 -15 -236v-178q0 -76 -8 -168l-4 -25h8q171 136 351 136t302 -122t121 -380q0 -305 -167 -459
t-445 -154q-90 0 -168 21q10 -53 10 -125v-145q0 -70 10 -88t58 -29l80 -17v-77h-609v77l60 17q52 13 64 31t12 86z" />
    <glyph glyph-name="ydieresis" unicode="&#xff;" horiz-adv-x="1206" 
d="M876 1556q74 0 124 -48t50 -118t-50 -117q-51 -48 -124 -48t-124 48t-52 118q0 69 52 117t124 48zM420 1225q-74 0 -125 48t-51 118q0 69 51 117t125 48t125 -48t51 -118t-51 -117q-51 -48 -125 -48zM284 -455q-114 0 -170 46q-56 45 -56 111t32 103q33 37 92 37t89 -24
q29 -24 49 -73q20 -50 36 -50q78 0 166 196l33 78l-389 842q-48 98 -66 124t-53 36l-39 12v80h606v-80l-55 -14q-68 -14 -67 -78q0 -47 32 -113l191 -440h8l170 440q23 60 23 118t-64 73l-59 14v80h419v-80l-47 -14q-39 -12 -58 -42t-65 -136l-397 -920q-74 -170 -161 -248
q-86 -78 -200 -78z" />
    <glyph glyph-name="dotlessi" unicode="&#x131;" horiz-adv-x="667" 
d="M41 0v68l59 20q55 14 66 39q10 25 10 127v512q0 86 -10 108t-60 54l-71 49v65l450 48l31 -17l-12 -127q-4 -70 -4 -153v-539q0 -102 11 -128t62 -38l60 -20v-68h-592z" />
    <glyph glyph-name="Lslash" unicode="&#x141;" horiz-adv-x="1284" 
d="M209 1176q0 88 -15 112t-67 35l-72 16v80h690v-80l-86 -18q-55 -10 -69 -33t-15 -112v-404l414 141v-114l-414 -142v-360q0 -133 28 -161t157 -28t180 24t98 97q24 32 38 57q13 25 35 64q41 75 71 156h92l-35 -506h-1184v82l72 14q51 12 67 36q15 24 15 112v286l-178 -59
v115l178 59v531z" />
    <glyph glyph-name="lslash" unicode="&#x142;" horiz-adv-x="675" 
d="M180 1288q0 72 -11 92t-60 45l-78 37v72l458 41l29 -23q-14 -98 -14 -235v-418l151 78v-119l-151 -78v-569q0 -68 11 -85t65 -32l59 -14v-80h-598v80l59 14q52 14 66 32t14 85v407l-153 -77v118l153 78v551z" />
    <glyph glyph-name="OE" unicode="&#x152;" horiz-adv-x="2099" 
d="M788 0q-295 0 -494 153q-103 79 -162 217q-58 138 -58 322t60 326t164 229q207 172 505 172h1163l25 -409h-90q-59 133 -117 217q-47 59 -93 70q-47 11 -155 11t-186 -18v-497h6q112 0 152 12t61 47q47 80 63 139h88v-518h-88q-12 47 -63 148q-21 39 -57 49t-158 10h-4
v-385q0 -137 26 -161t161 -24q134 0 180 17q46 15 95 81t138 275h90l-29 -483h-1223zM788 1319q-182 0 -257 -128q-75 -127 -75 -473t76 -482t271 -136q92 0 136 35t44 146v849q0 106 -39 148t-156 41z" />
    <glyph glyph-name="oe" unicode="&#x153;" horiz-adv-x="1908" 
d="M1360 989q-195 0 -209 -330l373 19q0 184 -34 248t-130 63zM612 80q68 0 104 17q120 56 121 384q1 230 -26 333t-73 137t-126 34q-110 0 -160 -91q-50 -92 -50 -310t24 -323q25 -105 71 -143q47 -38 115 -38zM1376 -25q-266 0 -383 177q-139 -176 -379 -176t-398 142
q-158 144 -157 415q0 271 164 415t409 144t378 -189q141 188 379 189q453 0 460 -535h-698q10 -217 99 -308t249 -91t320 78v-93q-63 -68 -181 -118t-262 -50z" />
    <glyph glyph-name="Scaron" unicode="&#x160;" horiz-adv-x="1142" 
d="M1073 451q-1 -205 -147 -341t-390 -135q-244 0 -442 62l-24 397h88q86 -164 151 -246q84 -104 228 -104q111 0 183 60t71 146q0 86 -68 149q-69 62 -269 138q-200 75 -286 179t-86 277t142 292t378 119t363 -41l24 -356h-88q-80 153 -141 221t-175 68q-113 0 -179 -56
q-66 -55 -66 -135t56 -129t231 -117q244 -92 345 -194t101 -254zM504 1567l-268 309l45 66l292 -164l293 164l45 -66l-266 -309h-141z" />
    <glyph glyph-name="scaron" unicode="&#x161;" horiz-adv-x="940" 
d="M885 340q0 -164 -125 -264q-126 -100 -322 -101q-196 0 -356 39l-19 314h82q59 -112 122 -180t186 -68q178 0 178 135q0 68 -54 107t-204 94t-227 133t-76 199q0 152 118 248t312 96q196 0 301 -37l10 -279h-76q-49 80 -119 160q-51 51 -139 51q-170 0 -170 -135
q0 -51 49 -88q49 -38 207 -94t240 -134t82 -196zM403 1210l-268 310l45 65l293 -164l293 164l45 -65l-266 -310h-142z" />
    <glyph glyph-name="Ydieresis" unicode="&#x178;" horiz-adv-x="1402" 
d="M1011 1581q-73 0 -124 48t-51 118t51 118t124 48t124 -48t51 -118t-51 -118t-124 -48zM555 1581q-74 0 -125 48t-51 118t51 118t125 48t125 -48t51 -118t-51 -118t-125 -48zM365 0v82l79 14q55 12 70 35q14 23 14 113v338l-309 567q-55 96 -86 130t-74 46l-43 14v80h701
v-80l-58 -14q-82 -16 -81 -82q0 -23 45 -117l190 -393h10l195 379q39 86 39 133q0 57 -78 80l-59 14v80h469v-80l-41 -14q-49 -16 -88 -59t-89 -140l-276 -532v-350q0 -90 14 -113t72 -35l82 -14v-82h-698z" />
    <glyph glyph-name="Zcaron" unicode="&#x17d;" horiz-adv-x="1251" 
d="M43 0v115l735 1196v8h-84q-216 0 -280 -15t-109 -77q-78 -109 -151 -264h-82l24 456h1065v-112l-731 -1194v-9h70q227 0 298 18t124 87q80 106 157 289h84l-33 -498h-1087zM582 1567l-269 309l45 66l293 -164l293 164l45 -66l-266 -309h-141z" />
    <glyph glyph-name="zcaron" unicode="&#x17e;" horiz-adv-x="1060" 
d="M43 0v104l612 846v8h-90q-119 0 -166 -12t-85 -56t-136 -214h-78l21 387h891v-100l-613 -850v-9h93q143 0 198 18q54 18 108 82t124 195h84l-35 -399h-928zM500 1210l-269 310l45 65l293 -164l293 164l45 -65l-266 -310h-141z" />
    <glyph glyph-name="florin" unicode="&#x192;" horiz-adv-x="1069" 
d="M115 715v119h192l21 133q68 475 518 475q127 0 203 -52t75 -135q0 -59 -36 -90t-97 -31q-63 0 -95 36q-32 34 -40 94t-18 73q-10 12 -41 13q-94 0 -123 -195l-49 -321h241v-119h-260l-94 -611q-39 -272 -154 -391t-313 -119q-131 0 -195 48t-63 118q0 119 125 119
q57 0 85 -30t42 -111q2 -51 36 -51q34 -1 52 29t31 118l131 881h-174z" />
    <glyph glyph-name="circumflex" unicode="&#x2c6;" horiz-adv-x="1056" 
d="M598 1569l268 -312l-45 -63l-293 162l-292 -162l-46 63l267 312h141z" />
    <glyph glyph-name="caron" unicode="&#x2c7;" horiz-adv-x="1056" 
d="M459 1210l-269 310l46 65l292 -164l293 164l45 -65l-266 -310h-141z" />
    <glyph glyph-name="breve" unicode="&#x2d8;" horiz-adv-x="1056" 
d="M530 1214q-124 0 -206 92t-105 244l88 25q33 -80 83 -122t140 -42q154 0 222 164l86 -25q-20 -152 -102 -244t-206 -92z" />
    <glyph glyph-name="dotaccent" unicode="&#x2d9;" horiz-adv-x="843" 
d="M421 1217q-81 0 -137 51t-56 128t56 127t138 50t137 -50t55 -127t-56 -128t-137 -51z" />
    <glyph glyph-name="ring" unicode="&#x2da;" horiz-adv-x="1056" 
d="M528 1305q53 -1 85 35t32 92t-32 92q-32 37 -85 37t-85 -37q-31 -37 -31 -92t31 -92q32 -35 85 -35zM526 1212q-102 0 -168 62t-66 158q0 94 70 158q68 64 167 65q99 -1 167 -63t68 -158t-68 -159t-170 -63z" />
    <glyph glyph-name="ogonek" unicode="&#x2db;" horiz-adv-x="878" 
d="M409 -494q-112 0 -180 50t-67 135q0 184 297 309h98q-67 -55 -107 -130t-40 -144q0 -96 112 -97q43 0 88 21v-80q-89 -64 -201 -64z" />
    <glyph glyph-name="tilde" unicode="&#x2dc;" horiz-adv-x="1056" 
d="M376 1522q64 0 170 -40t132 -40t44 8q23 10 87 121l78 -35q-49 -150 -96 -220t-113 -69q-66 0 -173 40t-147 40t-88 -76q-1 -6 -30 -55l-80 37q47 145 99 217q53 72 117 72z" />
    <glyph glyph-name="hungarumlaut" unicode="&#x2dd;" horiz-adv-x="1056" 
d="M483 1577q39 0 77 -32t38 -75q0 -72 -84 -120l-250 -148l-41 45l158 252q39 78 102 78zM856 1577q49 0 88 -34t39 -75q0 -68 -76 -108l-262 -158l-41 45l160 252q43 78 92 78z" />
    <glyph glyph-name="pi" unicode="&#x3c0;" horiz-adv-x="507" 
d="M270 1448q78 0 111 -56t2 -151l-135 -405h-70l-59 413q-14 102 29 151q44 48 122 48z" />
    <glyph glyph-name="endash" unicode="&#x2013;" horiz-adv-x="919" 
d="M100 530v127h719v-127h-719z" />
    <glyph glyph-name="emdash" unicode="&#x2014;" horiz-adv-x="1474" 
d="M100 530v127h1274v-127h-1274z" />
    <glyph glyph-name="quoteleft" unicode="&#x2018;" horiz-adv-x="661" 
d="M392 1110q56 0 96 -44t40 -115t-52 -115t-135 -43q-83 0 -147 62t-65 167q1 152 109 270t294 160l25 -72q-117 -53 -183 -132t-61 -156q23 18 79 18z" />
    <glyph glyph-name="quoteright" unicode="&#x2019;" horiz-adv-x="659" 
d="M133 1285q0 71 52 115t135 44t148 -62t64 -168q0 -152 -108 -270t-293 -160l-27 74q117 53 183 131t61 156q-23 -19 -79 -19t-96 44t-40 115z" />
    <glyph glyph-name="quotesinglbase" unicode="&#x201a;" horiz-adv-x="659" 
d="M269 45q-56 0 -96 44t-40 115q0 70 52 114t135 44t148 -62t64 -167q0 -153 -108 -271t-293 -159l-27 72q117 53 183 132t61 156q-23 -18 -79 -18z" />
    <glyph glyph-name="quotedblleft" unicode="&#x201c;" horiz-adv-x="1175" 
d="M906 1110q56 0 96 -43t40 -115t-51 -116t-135 -43q-84 0 -148 62t-65 167q0 152 110 270t294 160l24 -72q-117 -53 -181 -132t-63 -156q23 18 79 18zM392 1110q56 0 96 -44t40 -115t-52 -115t-135 -43q-83 0 -147 62t-65 167q1 152 109 270t294 160l25 -72
q-117 -53 -183 -132t-61 -156q23 18 79 18z" />
    <glyph glyph-name="quotedblright" unicode="&#x201d;" horiz-adv-x="1175" 
d="M133 1285q0 71 52 115t135 44t148 -62t64 -168q0 -152 -108 -270t-293 -160l-27 74q117 53 183 131t61 156q-23 -19 -79 -19t-96 44t-40 115zM647 1285q0 71 52 115t135 44t148 -62t65 -168q0 -152 -109 -270t-293 -160l-27 74q117 53 183 131t63 156q-23 -19 -80 -19
t-97 44t-40 115z" />
    <glyph glyph-name="quotedblbase" unicode="&#x201e;" horiz-adv-x="1175" 
d="M269 45q-56 0 -96 44t-40 115q0 70 52 114t135 44t148 -62t64 -167q0 -153 -108 -271t-293 -159l-27 72q117 53 183 132t61 156q-23 -18 -79 -18zM784 45q-57 0 -97 44t-40 115q0 70 52 114t135 44t148 -62t65 -167q0 -153 -109 -271t-293 -159l-27 72q117 53 183 132
t63 156q-23 -18 -80 -18z" />
    <glyph glyph-name="dagger" unicode="&#x2020;" horiz-adv-x="909" 
d="M163 891q-46 0 -80 36t-34 86t34 86t80 36t122 -38t125 -44q-6 55 -54 141q-47 86 -47 128t42 79q43 37 101 37t99 -36t41 -79t-45 -129t-51 -141q51 6 126 44q76 38 122 38t80 -36t34 -86t-34 -86t-81 -36t-121 37t-126 43q8 -111 98 -230l-100 -878h-82l-101 878
q93 111 99 230q-49 -6 -125 -43t-122 -37z" />
    <glyph glyph-name="daggerdbl" unicode="&#x2021;" horiz-adv-x="909" 
d="M744 299q46 0 80 -36t34 -86t-34 -86t-81 -36t-121 38t-126 44q6 -47 51 -127t45 -122t-41 -78q-41 -35 -99 -35t-100 35q-41 35 -41 78q0 44 46 124t53 125q-49 -6 -125 -44t-122 -38t-80 36t-34 86t34 86t80 36t122 -37t125 -43q-14 115 -95 166l101 188h73l101 -188
q-80 -53 -94 -166q53 6 127 43q75 37 121 37zM163 913q-46 0 -80 36t-34 86t34 86t80 36t122 -38t125 -44q-6 45 -53 128q-46 83 -46 126t41 76q40 33 100 33t100 -32t40 -75t-45 -126t-51 -130q51 6 126 44q76 38 122 38t80 -36t34 -86t-34 -86t-81 -36t-121 37t-126 43
q14 -113 94 -166l-101 -186h-73l-101 186q80 51 95 166q-49 -6 -125 -43t-122 -37z" />
    <glyph glyph-name="bullet" unicode="&#x2022;" horiz-adv-x="905" 
d="M451 350q-139 0 -239 100t-101 238q0 138 99 236q98 98 240 98t244 -97t102 -235t-102 -240q-104 -100 -243 -100z" />
    <glyph glyph-name="ellipsis" unicode="&#x2026;" horiz-adv-x="1869" 
d="M516 179q0 -81 -60 -138t-142 -57q-83 0 -142 57t-59 138t58 139t142 58q83 0 143 -58t60 -139zM935 -16q-83 0 -142 57t-59 138t58 139t142 58t143 -58t59 -139t-58 -138q-60 -57 -143 -57zM1757 179q1 -81 -59 -138t-143 -57t-142 57t-59 138t58 139t142 58t144 -58
t59 -139z" />
    <glyph glyph-name="perthousand" unicode="&#x2030;" horiz-adv-x="2635" 
d="M2058 344q0 -154 30 -218t105 -65q74 -1 105 61t31 218t-32 219t-102 63q-69 0 -103 -62t-34 -216zM2184 -27q-150 -1 -260 93q-108 94 -108 272t121 275t263 97t256 -96t112 -272q0 -176 -117 -272t-267 -97zM1204 344q0 -154 32 -218t105 -65q74 -1 104 61t30 218
t-32 219t-102 63q-69 0 -103 -62t-34 -216zM442 793q74 0 106 62t32 216q0 155 -33 219t-103 64t-104 -62t-35 -216q-1 -155 31 -219t106 -64zM1330 -27q-150 -1 -258 93t-108 272t120 275t262 97t256 -96t114 -272t-118 -272t-268 -97zM254 -102l1081 1564h154l-1086 -1564
h-149zM432 705q-150 0 -258 93t-108 272t120 276q121 96 263 96q143 0 257 -95t114 -271t-119 -274q-119 -97 -269 -97z" />
    <glyph glyph-name="guilsinglleft" unicode="&#x2039;" horiz-adv-x="598" 
d="M414 92l-340 395v60l340 395h98l-180 -422l180 -428h-98z" />
    <glyph glyph-name="guilsinglright" unicode="&#x203a;" horiz-adv-x="598" 
d="M78 94l180 426l-180 424h96l340 -395v-60l-340 -395h-96z" />
    <glyph glyph-name="fraction" unicode="&#x2044;" horiz-adv-x="724" 
d="M-229 -102l1030 1564h155l-1032 -1564h-153z" />
    <glyph glyph-name="Euro" unicode="&#x20ac;" horiz-adv-x="1341" 
d="M16 799v119h226q55 262 233 394t412 132q176 0 290 -62t113 -180q0 -63 -35 -103t-115 -40t-119 46q-40 47 -51 127t-35 98t-81 18q-242 0 -276 -430h446l-23 -119h-430v-51q0 -90 2 -130h398l-21 -118h-364q29 -195 119 -276q89 -81 249 -81t320 88v-94
q-61 -65 -177 -113t-276 -49q-241 0 -393 131t-192 394h-220v118h207q-2 24 -2 86t4 95h-209z" />
    <glyph glyph-name="trademark" unicode="&#x2122;" horiz-adv-x="1945" 
d="M225 698v70l62 12q29 6 35 18t6 56v489h-11q-43 0 -60 -9q-41 -22 -107 -199h-68l14 284h678l14 -284h-65q-45 117 -67 153t-42 46q-18 9 -61 9h-10v-489q0 -43 7 -56t36 -18l61 -12v-70h-422zM852 694v72l53 10q29 6 39 26t10 75v391q0 39 -8 50t-39 19l-43 13v69h361
l141 -395h4l131 395h369v-67l-49 -11q-29 -8 -37 -19t-8 -52v-416q0 -45 8 -59t37 -19l51 -10v-72h-402v72l56 14q24 4 30 16t7 58v473h-7l-200 -616h-82l-217 616h-6v-448q0 -59 10 -79t45 -24l51 -10v-72h-305z" />
    <glyph glyph-name="onethird" unicode="&#x2153;" horiz-adv-x="1796" 
d="M1333 -229q-155 0 -233 43t-78 120q0 47 29 76t71 29q106 0 127 -125q9 -41 23 -52t59 -12q141 0 142 179q-1 104 -45 137t-136 33h-63v98h55q88 0 127 35t39 127q0 150 -111 149q-37 0 -50 -11t-19 -57t-30 -72t-76 -26t-80 24t-27 66q0 72 85 114q86 42 232 42t232 -54
t86 -157q0 -76 -60 -133t-184 -80v-4q281 -23 281 -227q-1 -262 -396 -262zM309 -102l1030 1564h156l-1032 -1564h-154zM51 535v71l55 10q46 10 56 24t10 77v461l-121 12v76q211 37 336 178l55 -17v-710q0 -59 14 -77t54 -24l51 -10v-71h-510z" />
    <glyph glyph-name="twothirds" unicode="&#x2154;" horiz-adv-x="1873" 
d="M1411 -229q-155 0 -233 43t-78 120q0 47 28 76q29 29 72 29q106 0 127 -125q9 -41 23 -52t59 -12q141 0 141 179q0 104 -44 137t-136 33h-63v98h55q88 0 127 35t39 127q0 150 -111 149q-37 0 -50 -11t-19 -57t-30 -72t-76 -26t-80 24t-27 66q0 72 85 114q86 42 232 42
t232 -54t85 -157q0 -76 -60 -133t-183 -80v-4q281 -23 280 -227q0 -262 -395 -262zM408 -102l1030 1564h155l-1032 -1564h-153zM47 535v120q172 123 289 248q147 143 147 303q0 86 -32 117q-33 31 -83 31t-61 -14q-12 -14 -20 -68t-35 -84t-82 -29q-55 0 -85 29t-30 72
q0 74 90 124t247 52q157 0 250 -66t93 -192q0 -223 -473 -455v-6h285q47 0 66 19t49 91h69l-18 -292h-666z" />
    <glyph glyph-name="oneeighth" unicode="&#x215b;" horiz-adv-x="1783" 
d="M1184 20q0 -174 173 -174q83 0 128 32t45 89t-55 93t-232 106q-59 -76 -59 -146zM1501 473q0 139 -149 139q-63 0 -101 -31q-37 -32 -37 -81t48 -84t180 -84q59 74 59 141zM1350 -229q-168 0 -272 57q-103 57 -103 158q0 68 52 127t142 92v6q-149 70 -149 202
q0 131 101 203t241 72t235 -52q96 -52 97 -149q0 -57 -50 -110t-122 -78v-6q112 -47 160 -103t49 -143q-1 -117 -107 -197t-274 -79zM305 -102l1030 1564h156l-1032 -1564h-154zM51 535v71l55 10q46 10 56 24t10 77v461l-121 12v76q211 37 336 178l55 -17v-710q0 -59 14 -77
t54 -24l51 -10v-71h-510z" />
    <glyph glyph-name="threeeighths" unicode="&#x215c;" horiz-adv-x="1808" 
d="M1382 -154q84 0 128 32t44 89t-55 93t-231 106q-59 -76 -60 -146q0 -174 174 -174zM1376 612q-63 0 -100 -32t-37 -80q0 -49 48 -84t179 -84q59 74 60 141q0 139 -150 139zM1374 -229q-168 0 -271 57t-104 158q1 68 53 127t142 92v6q-150 70 -150 202q0 131 102 203
t240 72q140 0 236 -52t96 -149q0 -57 -50 -110t-122 -78v-6q111 -47 160 -103t49 -143q0 -117 -106 -197q-107 -79 -275 -79zM362 -102l1031 1564h155l-1032 -1564h-154zM750 778q0 -120 -96 -190t-274 -70q-336 0 -337 164q0 45 29 75t71 29q106 0 127 -124q10 -40 24 -52
t58 -12q141 0 142 178q0 104 -44 137t-137 33h-63v98h55q88 0 127 35t39 127q0 150 -111 150q-37 0 -50 -11t-19 -57q-13 -101 -113 -100q-45 0 -73 24t-27 68q0 72 85 114t231 42t233 -54q86 -54 86 -144q1 -89 -61 -147t-183 -79v-4q281 -23 281 -230z" />
    <glyph glyph-name="fiveeighths" unicode="&#x215d;" horiz-adv-x="1783" 
d="M1184 20q0 -174 173 -174q83 0 128 32t45 89t-55 93t-232 106q-59 -76 -59 -146zM1501 473q0 139 -149 139q-63 0 -101 -31q-37 -32 -37 -81t48 -84t180 -84q59 74 59 141zM1350 -229q-168 0 -272 57q-103 57 -103 158q0 68 52 127t142 92v6q-149 70 -149 202
q0 131 101 203t241 72t235 -52q96 -52 97 -149q0 -57 -50 -110t-122 -78v-6q112 -47 160 -103t49 -143q-1 -117 -107 -197t-274 -79zM326 -102l1030 1564h155l-1032 -1564h-153zM319 518q-137 0 -209 44t-73 114q0 90 102 90q57 0 84 -26t36 -75t23 -57t58 -8q158 0 158 143
q0 86 -62 130q-62 45 -158 45q-94 0 -155 -25l-23 12l60 514l372 -2q36 -1 50 13t41 65h67l-28 -248l-424 2l-21 -155q70 18 150 18q164 0 260 -72t96 -207t-109 -225t-295 -90z" />
    <glyph glyph-name="seveneighths" unicode="&#x215e;" horiz-adv-x="1775" 
d="M244 1241q-44 0 -62 -17t-47 -94h-76l29 289h647v-114q-135 -173 -196 -357t-76 -413h-291q86 377 420 706h-348zM1176 20q0 -174 173 -174q83 0 128 32t45 89t-56 93t-231 106q-59 -76 -59 -146zM1493 473q0 139 -150 139q-63 0 -100 -32t-37 -80q0 -49 48 -84t180 -84
q59 74 59 141zM1722 47q0 -117 -106 -197t-274 -79q-168 0 -272 57q-103 57 -103 158q0 68 52 127t142 92v6q-149 70 -149 202q0 131 101 203t241 72t235 -52q96 -52 97 -149q0 -57 -50 -110t-123 -78v-6q111 -47 160 -103t49 -143zM279 -102l1030 1564h155l-1032 -1564
h-153z" />
    <glyph glyph-name="product" unicode="&#x220f;" horiz-adv-x="897" 
d="M269 1448q79 0 112 -56t2 -151l-135 -405h-70l-59 413q-14 102 28 151q43 48 122 48zM656 1448q78 0 112 -56q33 -56 2 -151l-135 -405h-70l-59 413q-14 103 29 151t121 48z" />
    <glyph glyph-name="minus" unicode="&#x2212;" horiz-adv-x="1030" 
d="M94 643v139h840v-139h-840z" />
    <glyph glyph-name="filledbox" unicode="&#x25a0;" horiz-adv-x="1896" 
d="M238 0v1419h1421v-1419h-1421z" />
    <glyph glyph-name="H22073" unicode="&#x25a1;" horiz-adv-x="1896" 
d="M358 117h1182v1192h-1182v-1192zM238 0v1419h1421v-1419h-1421z" />
    <glyph glyph-name="triagup" unicode="&#x25b2;" horiz-adv-x="1697" 
d="M1595 0h-1493v29l725 1454h41l727 -1454v-29z" />
    <glyph glyph-name="uni25B3" unicode="&#x25b3;" horiz-adv-x="1697" 
d="M1419 111l-571 1155l-574 -1155h1145zM1595 0h-1493v29l736 1454h20l737 -1454v-29z" />
    <glyph glyph-name="uni25B7" unicode="&#x25b7;" horiz-adv-x="1761" 
d="M358 143l1104 568l-1104 569v-1137zM238 -37v1493h28l1393 -735v-21l-1393 -737h-28z" />
    <glyph glyph-name="triagrt" unicode="&#x25ba;" horiz-adv-x="1761" 
d="M238 -37v1493h28l1393 -735v-21l-1393 -737h-28z" />
    <glyph glyph-name="triagdn" unicode="&#x25bc;" horiz-adv-x="1697" 
d="M102 1419h1493v-28l-725 -1454h-41l-727 1454v28z" />
    <glyph glyph-name="uni25BD" unicode="&#x25bd;" horiz-adv-x="1697" 
d="M279 1309l571 -1155l573 1155h-1144zM102 1419h1493v-28l-735 -1454h-20l-738 1454v28z" />
    <glyph glyph-name="uni25C1" unicode="&#x25c1;" horiz-adv-x="1761" 
d="M301 711l1104 -568v1137zM1524 1456v-1493h-29l-1393 737v21l1393 735h29z" />
    <glyph glyph-name="triaglf" unicode="&#x25c4;" horiz-adv-x="1761" 
d="M1524 1456v-1493h-29l-1393 737v21l1393 735h29z" />
    <glyph glyph-name="circle" unicode="&#x25cb;" horiz-adv-x="1650" 
d="M823 82q258 0 441 184q182 184 182 446t-181 444q-181 183 -441 183t-438 -183q-179 -183 -179 -444q0 -262 179 -446t437 -184zM822 -31q-306 0 -522 217q-216 216 -216 524t216 524t523 216t525 -216t219 -522q0 -306 -219 -525q-220 -218 -526 -218z" />
    <glyph glyph-name="uni2605" unicode="&#x2605;" horiz-adv-x="1703" 
d="M506 164l348 260l346 -260l-139 414l352 241h-426l-135 410l-135 -410h-422l348 -241zM29 907h622l193 596h16l195 -596h620v-16l-497 -356l194 -592l-14 -9l-506 361l-506 -365l-14 9l196 596l-499 356v16z" />
    <glyph glyph-name="uni2606" unicode="&#x2606;" horiz-adv-x="1703" 
d="M29 907h622l193 596h16l195 -596h620v-16l-497 -356l194 -592l-14 -9l-506 361l-506 -365l-14 9l196 596l-499 356v16z" />
    <glyph glyph-name="R.alt" horiz-adv-x="1513" 
d="M940 1025q0 173 -47 229t-153 56t-165 -14v-563l101 -6q140 1 202 63t62 235zM55 0v82l72 14q51 12 67 36q15 24 15 112v932q0 88 -15 112t-67 35l-72 16v80h678q299 0 436 -90t137 -263t-96 -260t-319 -118v-8q174 -39 280 -174q61 -74 131 -217t72 -150q16 -27 82 -47
l39 -10v-82h-473q-23 53 -83 222q-61 168 -105 264t-84 118t-123 21h-52v-381q1 -88 15 -112t63 -36l76 -14v-82h-674z" />
    <glyph glyph-name="registered.alt" horiz-adv-x="1200" 
d="M588 928q84 0 84 98q0 48 -18 64t-57 16q-40 0 -52 -4v-172q6 -2 43 -2zM348 662v57l31 6q14 4 17 12t3 39v283q0 27 -3 34t-17 15l-29 8v58h252q221 0 221 -138q0 -96 -92 -129v-8q49 -98 78 -139q25 -27 47 -35l21 -6v-57h-168q-61 86 -111 200h-53v-86q0 -31 4 -39
t22 -12l29 -6v-57h-252zM596 473q182 0 301 126t119 310q0 185 -118 311t-301 126t-298 -126t-115 -310t115 -311q115 -126 297 -126zM597 383q-222 0 -373 153q-150 152 -150 372t150 374q151 154 373 154t376 -154q153 -154 153 -373t-154 -373t-375 -153z" />
    <glyph glyph-name="zero.numerator" horiz-adv-x="1024" 
d="M514 614q88 0 126 78t38 285t-39 286t-123 79t-126 -78q-42 -76 -42 -283t39 -287t127 -80zM504 518q-180 0 -308 119t-128 330q0 119 44 213q75 160 258 228q75 28 146 28q174 0 307 -123t133 -338t-136 -336t-316 -121z" />
    <glyph glyph-name="one.numerator" horiz-adv-x="612" 
d="M51 535v71l55 10q46 10 56 24t10 77v461l-121 12v76q211 37 336 178l55 -17v-710q0 -59 14 -77t54 -24l51 -10v-71h-510z" />
    <glyph glyph-name="two.numerator" horiz-adv-x="800" 
d="M47 535v120q172 123 289 248q147 143 147 303q0 86 -32 117q-33 31 -83 31t-61 -14q-12 -14 -20 -68t-35 -84t-82 -29q-55 0 -85 29t-30 72q0 74 90 124t247 52q157 0 250 -66t93 -192q0 -223 -473 -455v-6h285q47 0 66 19t49 91h69l-18 -292h-666z" />
    <glyph glyph-name="three.numerator" horiz-adv-x="817" 
d="M750 778q0 -120 -96 -190t-274 -70q-336 0 -337 164q0 45 29 75t71 29q106 0 127 -124q10 -40 24 -52t58 -12q141 0 142 178q0 104 -44 137t-137 33h-63v98h55q88 0 127 35t39 127q0 150 -111 150q-37 0 -50 -11t-19 -57q-13 -101 -113 -100q-45 0 -73 24t-27 68
q0 72 85 114t231 42t233 -54q86 -54 86 -144q1 -89 -61 -147t-183 -79v-4q281 -23 281 -230z" />
    <glyph glyph-name="four.numerator" horiz-adv-x="882" 
d="M186 848h287v332h-10l-277 -322v-10zM360 535v71l48 10q43 10 54 26t11 75v16h-430v94l524 592h131v-571h142l-15 -115h-127v-16q0 -59 12 -75t50 -26l47 -10v-71h-447z" />
    <glyph glyph-name="five.numerator" horiz-adv-x="780" 
d="M319 518q-137 0 -209 44t-73 114q0 90 102 90q57 0 84 -26t36 -75t23 -57t58 -8q158 0 158 143q0 86 -62 130q-62 45 -158 45q-94 0 -155 -25l-23 12l60 514l372 -2q36 -1 50 13t41 65h67l-28 -248l-424 2l-21 -155q70 18 150 18q164 0 260 -72t96 -207t-109 -225
t-295 -90z" />
    <glyph glyph-name="six.numerator" horiz-adv-x="905" 
d="M326 932q0 -182 28 -256t103 -74t105 46t30 150t-38 138q-38 35 -114 35t-114 -27v-12zM811 1308q1 -106 -109 -106q-93 0 -118 105q-8 35 -18 44t-36 9q-193 0 -202 -326q74 41 214 41q140 -1 222 -67t82 -196t-102 -212t-280 -82q-179 0 -293 104t-114 322
q0 129 43 226q43 98 116 154q145 112 341 112q121 0 187 -37t67 -91z" />
    <glyph glyph-name="seven.numerator" horiz-adv-x="792" 
d="M244 1241q-44 0 -62 -17t-47 -94h-76l29 289h647v-114q-135 -173 -196 -357t-76 -413h-291q86 377 420 706h-348z" />
    <glyph glyph-name="eight.numerator" horiz-adv-x="860" 
d="M260 768q0 -174 173 -174q83 0 128 32t45 88t-56 93t-231 106q-59 -80 -59 -145zM428 1360q-63 0 -100 -32t-37 -82t48 -85t179 -82q59 68 60 142q0 139 -150 139zM807 795q-1 -117 -107 -197t-274 -80t-271 57t-104 158q0 68 52 127t143 92v4q-150 70 -150 213
q0 121 102 194t241 73t235 -52t96 -149q0 -57 -50 -111t-122 -77v-7q111 -47 160 -103t49 -142z" />
    <glyph glyph-name="nine.numerator" horiz-adv-x="901" 
d="M440 1350q-129 0 -129 -195q0 -100 37 -136t111 -36t121 27v18q0 176 -31 249t-109 73zM444 1436q180 0 290 -106t110 -334t-142 -353t-354 -125q-124 0 -192 37t-68 90q0 107 113 107q90 0 114 -107q7 -33 19 -42t41 -9q94 0 143 72t57 256q-82 -41 -220 -41
q-138 -1 -218 65t-80 195t104 212t283 83z" />
    <glyph glyph-name="zero.denominator" horiz-adv-x="1024" 
d="M514 -133q88 0 126 78q38 79 38 285t-39 285t-123 79t-126 -77t-42 -283t39 -287q39 -80 127 -80zM956 227q0 -215 -136 -335t-316 -121q-180 1 -308 119t-128 329q0 119 44 213q76 163 258 228q75 28 146 28q174 0 307 -123t133 -338z" />
    <glyph glyph-name="one.denominator" horiz-adv-x="612" 
d="M51 -213v72l55 10q46 13 56 27t10 73v461l-121 12v76q215 41 336 178l55 -16v-711q0 -59 14 -77t54 -23l51 -10v-72h-510z" />
    <glyph glyph-name="two.denominator" horiz-adv-x="800" 
d="M336 156q147 143 147 298q-1 154 -115 154q-50 0 -61 -14q-12 -14 -20 -68t-35 -85q-27 -29 -82 -29t-85 28t-30 72q0 74 90 125t246 51t250 -66t94 -190q0 -225 -473 -457v-6h285q47 -1 66 19t49 94h69l-18 -295h-666v121q180 131 289 248z" />
    <glyph glyph-name="three.denominator" horiz-adv-x="817" 
d="M354 -229q-154 0 -232 43t-79 120q0 47 29 76t71 29q106 0 127 -125q10 -41 24 -52t58 -12q141 0 142 179q0 104 -44 137t-137 33h-63v98h55q88 0 127 35t39 127q0 150 -111 149q-37 0 -50 -11t-19 -57t-30 -72t-76 -26t-80 24t-27 66q0 72 85 114t231 42t233 -54
q86 -54 86 -157q-1 -76 -61 -133t-183 -80v-4q281 -23 281 -227q-1 -262 -396 -262z" />
    <glyph glyph-name="four.denominator" horiz-adv-x="882" 
d="M186 102h287v330h-10l-277 -321v-9zM360 -213v72l48 10q31 8 42 15q23 15 23 85v17h-430v94l524 592h131v-570h142l-15 -116h-127v-17q0 -59 12 -75t50 -25l47 -10v-72h-447z" />
    <glyph glyph-name="five.denominator" horiz-adv-x="792" 
d="M332 -229q-137 0 -210 44t-73 113q0 90 103 90q57 0 84 -26q28 -26 36 -74q8 -49 20 -56t60 -7q158 0 158 141q0 86 -62 130t-157 44q-94 0 -156 -25l-22 13l59 514h373q37 0 50 12t40 64h67l-28 -248l-424 2l-21 -156q70 18 150 19q164 0 260 -71t96 -206
q-1 -135 -109 -226t-294 -91z" />
    <glyph glyph-name="six.denominator" horiz-adv-x="905" 
d="M457 -145q75 0 105 46t30 150t-38 139t-115 35t-113 -28v-13q0 -182 27 -256q28 -73 104 -73zM811 561q1 -109 -109 -107q-93 1 -118 105q-8 35 -18 44t-36 9q-193 0 -202 -325q74 41 214 41t222 -67t82 -197t-102 -211q-102 -82 -280 -82q-179 0 -293 104t-114 322
q0 129 43 227q76 174 275 236q87 28 195 28t174 -37t67 -90z" />
    <glyph glyph-name="seven.denominator" horiz-adv-x="792" 
d="M244 494q-44 0 -62 -18t-47 -93h-76l29 289h647v-115q-135 -174 -196 -357t-76 -413h-291q86 377 420 707h-348z" />
    <glyph glyph-name="eight.denominator" horiz-adv-x="860" 
d="M260 20q0 -174 173 -174q83 0 128 32t45 89t-55 93t-232 106q-59 -76 -59 -146zM428 612q-63 0 -100 -32t-37 -80q0 -49 48 -84t179 -84q59 74 60 141q0 139 -150 139zM807 47q-1 -117 -107 -197t-274 -79q-168 0 -271 57t-104 158q0 68 52 127t143 92v6
q-150 70 -150 202q0 131 102 203t240 72q140 0 236 -52t96 -149q0 -57 -50 -110t-122 -78v-6q111 -47 160 -103t49 -143z" />
    <glyph glyph-name="nine.denominator" horiz-adv-x="901" 
d="M311 414q0 -112 38 -153q38 -42 114 -42t117 33v35q-2 186 -32 260t-108 74q-70 -11 -100 -53t-29 -154zM443 688q177 0 289 -105t112 -335t-140 -354t-356 -123q-122 1 -190 37t-68 98q0 94 111 94q83 0 106 -96q9 -42 23 -49q14 -8 49 -9q96 0 144 73t57 263
q-82 -43 -224 -43t-221 66q-80 65 -79 191q2 126 106 209t281 83z" />
    <glyph glyph-name="minus.tab" 
d="M188 643v139h854v-139h-854z" />
    <glyph glyph-name="multiply.tab" 
d="M317 287l-102 94l301 307l-293 299l109 98l282 -297l291 297l101 -94l-293 -301l301 -307l-107 -96l-297 303z" />
    <glyph glyph-name="space.tab" horiz-adv-x="614" 
 />
    <glyph glyph-name="dollar.tab" 
d="M379 1157q0 -78 38 -129t136 -100v415q-174 -24 -174 -186zM834 285q0 82 -42 140t-143 105v-458q185 25 185 213zM535 -324v301q-221 8 -333 81t-112 188q0 66 41 98t109 33q68 0 100 -38q33 -38 42 -127t39 -114t114 -28v505q-221 89 -311 195t-91 263q0 157 116 269
t304 134v200h117v-198q207 -6 309 -76t102 -166q0 -59 -40 -102q-41 -43 -111 -43t-101 42t-41 154q-6 51 -32 73q-27 22 -86 26v-467q244 -97 339 -203t95 -271t-126 -288t-329 -140v-301h-114z" />
    <glyph glyph-name="percent.tab" horiz-adv-x="1638" 
d="M1085 345q-1 -161 29 -223t99 -61t97 59t28 220t-28 222t-96 60t-98 -58t-31 -219zM426 793q70 0 98 58t27 220q0 162 -29 222q-30 61 -96 61t-96 -58t-31 -219q1 -162 29 -223t98 -61zM1205 -27q-138 -1 -239 93q-102 94 -102 272t112 275t244 97t237 -96t105 -271
t-109 -273q-110 -98 -248 -97zM201 -102l1054 1564h146l-1059 -1564h-141zM431 1442q133 0 239 -96t106 -272t-110 -272q-110 -97 -248 -97q-139 0 -241 93q-101 93 -101 272t111 276q112 96 244 96z" />
    <glyph glyph-name="plus.tab" horiz-adv-x="1126" 
d="M483 266v377h-360v139h360v377h160v-377h361v-139h-361v-377h-160z" />
    <glyph glyph-name="comma.tab" horiz-adv-x="614" 
d="M88 193q0 78 58 131t154 53t164 -71q67 -71 66 -195q0 -154 -120 -282t-367 -179l-20 61q173 76 241 159t68 181q-30 -29 -96 -29t-107 47q-41 46 -41 124z" />
    <glyph glyph-name="period.tab" horiz-adv-x="614" 
d="M305 -16q-84 0 -141 57q-58 57 -58 139t58 139t141 57q85 0 145 -58t60 -139t-60 -138t-145 -57z" />
    <glyph glyph-name="zero.tab" 
d="M612 1339q-110 0 -154 -132q-44 -131 -44 -491t42 -498t158 -138q117 0 158 133t41 432t-18 437q-17 138 -61 198t-122 59zM606 -25q-221 -1 -381 183t-159 532q0 440 260 644q140 110 290 110q203 0 370 -175q81 -85 129 -229t48 -326t-51 -330q-90 -259 -312 -365
q-96 -44 -194 -44z" />
    <glyph glyph-name="one.tab" 
d="M213 0v82l135 18q61 10 79 36q17 26 17 116v821l-227 19v88q154 28 285 96t215 162l76 -17v-1169q0 -92 17 -117t77 -35l131 -18v-82h-805z" />
    <glyph glyph-name="two.tab" 
d="M94 0v168q254 199 432 391q115 129 166 241t51 270t-46 218q-46 62 -125 62q-80 0 -102 -22t-26 -79q-6 -115 -47 -159t-122 -46q-156 -1 -156 148q0 106 123 179t353 73q229 0 371 -106t142 -306q0 -358 -739 -766v-10h473q78 0 108 26t80 136h78l-31 -418h-983z" />
    <glyph glyph-name="three.tab" 
d="M516 -25q-217 1 -331 63t-113 177q0 63 39 102t111 39t112 -34q39 -34 53 -136q13 -76 33 -96t90 -20q219 0 219 331q0 161 -60 221t-202 60h-105v113h87q137 1 195 65t58 219q0 270 -178 271q-49 0 -66 -16q-18 -16 -26 -94q-8 -79 -42 -118t-113 -39t-113 36t-35 95
q0 106 121 168q122 62 330 62t340 -91t131 -249q1 -123 -93 -215t-288 -129v-8q204 -14 320 -104t116 -265q0 -174 -150 -291t-440 -117z" />
    <glyph glyph-name="four.tab" 
d="M250 543h368v516h-6l-362 -508v-8zM455 0v82l77 14q53 12 70 36q16 24 16 112v143h-538v121l661 911h209v-876h201l-23 -156h-178v-143q0 -90 16 -114t72 -34l78 -14v-82h-661z" />
    <glyph glyph-name="five.tab" 
d="M522 -25q-196 0 -306 66t-110 172q0 57 39 96t115 39t115 -38t47 -146q6 -58 29 -76t90 -18q266 0 266 284q0 295 -346 295q-156 0 -236 -33l-22 17l86 786h581q48 1 68 19t59 90h80l-39 -361h-651l-33 -270q98 27 221 27q243 0 391 -118t148 -335t-163 -357t-429 -139z
" />
    <glyph glyph-name="six.tab" 
d="M635 80q104 0 137 71t33 255t-43 252t-144 69q-101 0 -178 -51v-45q0 -327 34 -439t161 -112zM634 -25q-245 0 -400 167t-154 495q0 209 59 370t159 253q201 184 470 184q170 0 267 -52t98 -147q0 -131 -150 -131q-146 0 -161 138q-7 66 -26 81q-19 16 -73 17
q-262 0 -281 -584q123 94 300 94t293 -110t116 -315q0 -206 -136 -333t-381 -127z" />
    <glyph glyph-name="seven.tab" 
d="M354 1165q-63 1 -88 -25t-69 -139h-80l39 418h970v-162q-209 -281 -308 -575t-134 -682h-387q78 350 243 629t412 536h-598z" />
    <glyph glyph-name="eight.tab" 
d="M623 84q117 0 187 55t71 155q0 100 -84 160q-84 62 -334 181q-121 -129 -121 -283q0 -268 281 -268zM614 1335q-100 0 -160 -50t-60 -137q0 -88 79 -152q80 -64 264 -144q106 119 107 254q0 229 -230 229zM1141 406q0 -178 -155 -304t-383 -127q-229 1 -373 93t-144 260
q0 215 303 346v8q-246 129 -246 356q1 180 145 293t336 113t327 -86q134 -86 134 -246q1 -92 -73 -171t-189 -132v-8q166 -84 242 -174t76 -221z" />
    <glyph glyph-name="nine.tab" 
d="M600 1337q-102 -1 -138 -75t-36 -254t44 -250q44 -72 141 -72t180 51q2 23 2 49q0 324 -33 438t-160 113zM606 1442q248 0 396 -163t149 -491q0 -214 -56 -374q-101 -290 -371 -395q-120 -46 -274 -46q-154 -1 -251 53q-98 54 -99 148q0 61 39 99t116 38t114 -37
q37 -38 44 -106t26 -84t73 -16q139 0 204 125t72 452q-126 -94 -300 -94q-174 -1 -291 109t-117 317t139 336t387 129z" />
    <glyph glyph-name="colon.tab" horiz-adv-x="614" 
d="M510 179q0 -81 -60 -138t-144 -57q-83 0 -141 57q-59 57 -59 139t58 139t141 57q85 0 145 -58t60 -139zM510 820q0 -81 -60 -138t-144 -57q-83 0 -141 57q-59 57 -59 138t58 138q58 58 141 58q85 0 145 -58t60 -138z" />
    <glyph glyph-name="semicolon.tab" horiz-adv-x="614" 
d="M96 193q0 78 58 131t155 53q96 0 163 -71t67 -210t-120 -267t-368 -179l-20 61q173 76 241 159t68 181q-30 -29 -96 -29t-107 47q-41 46 -41 124zM300 625q-83 0 -141 57q-59 57 -59 138t58 138q58 58 141 58q84 0 144 -58q61 -58 61 -138q0 -81 -60 -138t-144 -57z" />
    <glyph glyph-name="less.tab" 
d="M1034 199l-839 360v162l839 360v-151l-704 -289l704 -287v-155z" />
    <glyph glyph-name="equal.tab" 
d="M145 440v140h940v-140h-940zM145 797v139h940v-139h-940z" />
    <glyph glyph-name="greater.tab" 
d="M195 1079l839 -358v-164l-839 -358v153l704 287l-704 289v151z" />
    <glyph glyph-name="cent.tab" 
d="M444 580q0 -344 207 -410v805q-207 -51 -207 -395zM649 -25q-244 -1 -385 141t-141 393t150 394q151 143 378 178v164h115v-153h18q166 0 259 -50t94 -143q0 -68 -37 -118t-105 -50q-67 0 -93 34q-26 33 -33 99t-29 90t-74 29v-829h8q158 0 326 84v-93
q-119 -127 -334 -159v-310h-115v299h-2z" />
    <glyph glyph-name="sterling.tab" 
d="M119 678v117h123q-39 147 -39 227q0 188 143 305t389 117q193 0 295 -60t103 -163q0 -70 -41 -109t-113 -39t-108 44q-36 45 -53 123q-18 78 -32 94t-78 16q-144 1 -143 -242q0 -49 8 -171t11 -142h315v-117h-309v-23q0 -242 -279 -399v-10h570q67 0 99 28t71 132h77
l-43 -406h-1001v186q121 74 174 140t53 170q0 55 -35 182h-157z" />
    <glyph glyph-name="yen.tab" 
d="M104 610v117h324l-227 422q-53 98 -79 131t-63 45l-39 14v80h654v-80l-47 -10q-80 -18 -80 -84q0 -39 37 -119l157 -352h9l147 338q39 92 39 130t-17 55t-63 30l-39 12v80h395v-80l-32 -12q-49 -14 -76 -51t-80 -150l-188 -399h311v-117h-352v-182h352v-117h-352v-67
q0 -90 13 -113t71 -35l79 -14v-82h-647v82l80 14q59 12 74 35q14 23 14 113v67h-375v117h375v182h-375z" />
    <glyph glyph-name="florin.tab" 
d="M1223 1267q1 -135 -135 -133q-62 0 -95 36t-40 96t-18 71q-11 13 -48 13q-83 1 -115 -195l-55 -321h258v-119h-279l-102 -611q-43 -272 -157 -391t-312 -119q-131 0 -193 48t-63 118q0 119 123 119q106 0 123 -115q8 -55 15 -66t34 -11q27 -1 45 29t33 118l143 881h-188
v119h206l23 133q72 475 516 475q129 0 205 -52t76 -123z" />
    <glyph glyph-name="Euro.tab" 
d="M51 793v116h150q53 267 223 401t391 134q168 0 265 -62t98 -178q0 -59 -38 -101t-111 -42t-111 46q-38 45 -46 123t-25 98t-65 20q-111 0 -172 -102t-75 -337h378l-22 -116h-361v-45q0 -96 2 -138h326l-20 -116h-295q23 -197 99 -274t220 -77q145 0 295 82v-92
q-162 -158 -424 -158q-221 0 -360 129t-176 390h-146v116h133q-2 29 -2 90t2 93h-133z" />
    <glyph glyph-name="perthousand.tab" horiz-adv-x="2252" 
d="M1863 59q62 1 88 63q25 62 25 218t-26 220t-87 65q-60 1 -89 -61t-29 -218t28 -222t90 -65zM2187 343q0 -175 -101 -273t-231 -97q-131 -1 -225 93t-94 272t104 275t228 97t222 -96q97 -96 97 -271zM1126 59q61 1 87 63t26 218t-26 220t-86 65t-89 -61q-28 -62 -28 -219
t28 -221t88 -65zM392 791q62 0 88 62t26 219t-27 220q-27 64 -87 64t-89 -62t-29 -217q0 -156 28 -221t90 -65zM1450 343q0 -175 -102 -273t-230 -97q-129 -1 -224 93t-95 272t104 275t228 97q123 0 221 -96t98 -271zM139 -102l1067 1564h146l-1069 -1564h-144zM384 705
q-130 0 -224 93t-94 272q0 180 104 276t227 96t221 -96t98 -272t-100 -272q-102 -97 -232 -97z" />
    <glyph glyph-name="divide.tab" 
d="M772 335q0 -63 -46 -111t-110 -48t-112 47q-47 47 -47 111t46 109q45 46 111 46t112 -45t46 -109zM152 643v139h925v-139h-925zM772 1093q0 -65 -46 -111t-110 -46t-112 46q-47 46 -47 110t46 110q45 47 111 47t112 -46t46 -110z" />
    </font>
</defs>
</svg>
