<?xml version="1.0" standalone="no"?>
<!DOCTYPE svg PUBLIC "-//W3C//DTD SVG 1.1//EN" "http://www.w3.org/Graphics/SVG/1.1/DTD/svg11.dtd" >
<svg xmlns="http://www.w3.org/2000/svg">
<metadata>
Created by FontPrep 20130207 at Tue Nov 22 11:52:12 2016
 By Brendan Gatens
Copyright 2007 Paul Barnes and Christian Schwartz. All Rights Reserved.
</metadata>
<defs>
<font id="9ac09cd4354dd2106f222fb7c255a3ba" horiz-adv-x='1024' >
  <font-face 
    font-family="Publico-Bold"
    font-weight="700"
    font-stretch="normal"
    units-per-em="2048"
    panose-1="0 0 0 0 0 0 0 0 0 0"
    ascent="1638"
    descent="-410"
    x-height="1063"
    cap-height="1419"
    bbox="-258 -434 2360 1860"
    underline-thickness="102"
    underline-position="-102"
    unicode-range="U+0020-FB04"
  />
<missing-glyph horiz-adv-x="438" 
 />
    <glyph glyph-name="ff" unicode="ff" horiz-adv-x="1359" 
d="M477 1243v-180h314v57q0 84 20 148h-16q-128 0 -136 112q-4 54 -13 65t-34 11q-135 0 -135 -213zM676 0v55l47 13q47 12 57 30t11 88v756h-314v-752q0 -74 10 -92t58 -30l49 -13v-55h-571v55l53 15q51 14 63 32t13 84v756h-144v51l144 72v35q0 204 136 320t357 116
t258 -119q137 141 402 142q123 0 191 -42t67 -122q0 -115 -123 -115q-135 0 -145 119q-5 57 -13 68t-27 12q-137 0 -137 -213v-203h236l-27 -121h-209v-752q0 -72 11 -91t59 -27l78 -17v-55h-590z" />
    <glyph glyph-name="fi" unicode="fi" horiz-adv-x="1263" 
d="M23 0v55l53 15q51 14 63 32t13 84v756h-144v51l144 72v29q0 217 142 341t413 124q151 -1 231 -51t80 -142q0 -53 -32 -87t-110 -34t-117 36q-40 36 -48 136q-1 33 -17 45t-49 13q-74 -1 -121 -59t-47 -177v-176h365l262 29l22 -15q-8 -127 -8 -235v-656q0 -68 12 -86
t62 -30l53 -15v-55h-569v55l47 13q47 12 57 30t11 88v631q-1 78 -19 102t-76 23h-219v-752q0 -74 10 -92t58 -30l49 -13v-55h-571z" />
    <glyph glyph-name="fl" unicode="fl" horiz-adv-x="1267" 
d="M676 0v55l47 13q47 12 57 30t11 88v1094q-90 18 -99 141q-2 35 -13 46t-36 12q-166 0 -166 -224v-192h223l-26 -121h-197v-752q0 -74 10 -92t58 -30l49 -13v-55h-571v55l53 15q51 14 63 32t13 84v756h-144v51l144 72v45q0 211 142 330t366 119t288 -91l154 80l22 -16
q-6 -102 -6 -240v-1106q0 -68 11 -85t67 -31l53 -15v-55h-573z" />
    <glyph glyph-name="ffi" unicode="ffi" horiz-adv-x="1904" 
d="M791 1094q0 102 28 176q-8 -2 -24 -2q-128 0 -136 112q-4 54 -13 65t-34 11q-135 0 -135 -213v-180h314v31zM23 0v55l53 15q51 14 63 32t13 84v756h-144v51l144 72v35q0 204 136 320t361 116t256 -127q143 150 441 150q152 -1 232 -51t79 -142q0 -53 -32 -87
q-31 -34 -109 -34t-117 36t-47 136q-2 33 -18 45t-50 13q-74 -1 -120 -59t-46 -177v-176h363l262 29l22 -15q-8 -127 -8 -235v-656q0 -68 12 -86t62 -30l53 -15v-55h-569v55l47 13q47 12 57 30t11 88v631q0 80 -18 103t-77 22h-217v-752q0 -74 10 -92t56 -30l49 -13v-55
h-557v55l47 13q47 12 57 30t11 88v756h-314v-752q0 -74 10 -92t58 -30l49 -13v-55h-571z" />
    <glyph glyph-name="ffl" unicode="ffl" horiz-adv-x="1908" 
d="M477 1243v-180h314v47q0 86 24 158h-20q-128 0 -136 112q-4 54 -13 65t-34 11q-135 0 -135 -213zM674 0v55l49 13q47 12 57 30t11 88v756h-314v-752q0 -74 10 -92t58 -30l49 -13v-55h-571v55l53 15q51 14 63 32t13 84v756h-144v51l144 72v35q0 204 136 320t360 116
t255 -125q141 147 414 148q207 0 270 -91l154 80l22 -16q-6 -102 -6 -240v-1106q0 -68 11 -85t67 -31l53 -15v-55h-573v55l47 13q47 12 57 30t11 88v1094q-90 18 -99 141q-2 35 -13 46t-36 12q-164 0 -164 -224v-192h221l-26 -121h-195v-752q0 -74 10 -92t56 -30l49 -13v-55
h-559z" />
    <glyph glyph-name="fj" unicode="fj" horiz-adv-x="1263" 
d="M674 -434q-133 0 -203 52t-70 136q0 121 134 121q71 0 105 -37t42 -135q4 -55 33 -55q76 0 76 123v1046q-1 78 -19 102t-76 23h-219v-752q0 -72 11 -91t61 -27l67 -17v-55h-593v55l53 15q51 14 63 32t13 84v756h-144v51l144 72v29q0 217 142 341t413 124q151 -1 231 -51
t80 -142q0 -53 -32 -87t-110 -34t-117 36q-40 36 -48 136q-1 33 -17 45t-49 13q-74 -1 -121 -59t-47 -177v-176h365l262 29l22 -15q-8 -127 -8 -235v-828q0 -212 -122 -330t-322 -118z" />
    <glyph glyph-name=".notdef" horiz-adv-x="438" 
 />
    <glyph glyph-name=".null" horiz-adv-x="0" 
 />
    <glyph glyph-name="nonmarkingreturn" horiz-adv-x="681" 
 />
    <glyph glyph-name="space" unicode=" " horiz-adv-x="438" 
 />
    <glyph glyph-name="exclam" unicode="!" horiz-adv-x="585" 
d="M294 1440q110 0 164 -70t21 -205l-153 -725h-64l-153 725q-33 135 21 205t164 70zM292 -14q-69 0 -119 50t-50 121t49 119t120 48t123 -50t52 -118t-53 -119t-122 -51z" />
    <glyph glyph-name="quotedbl" unicode="&#x22;" horiz-adv-x="794" 
d="M577 1450q81 0 123 -52t7 -155l-109 -323h-45l-107 323q-38 103 6 155t125 52zM217 1450q80 0 123 -52t8 -155l-106 -323h-45l-111 323q-35 103 8 155t123 52z" />
    <glyph glyph-name="numbersign" unicode="#" horiz-adv-x="1071" 
d="M399 586h236l47 254h-236zM178 0l70 369h-187l41 217h189l47 254h-184l39 217h188l70 362h108l-70 -362h236l70 362h108l-69 -362h186l-39 -217h-190l-48 -254h187l-39 -217h-191l-69 -369h-109l70 369h-236l-69 -369h-109z" />
    <glyph glyph-name="dollar" unicode="$" horiz-adv-x="1071" 
d="M307 1161q0 -82 40 -134t145 -101v442q-86 -12 -136 -68t-49 -139zM750 281q0 162 -191 247v-475q91 10 141 70t50 158zM20 229q0 133 148 131q140 -1 154 -167q8 -88 36 -113t111 -29v514q-229 86 -323 196q-93 111 -93 271t121 275t318 131v133h88v-129q215 -4 318 -74
t103 -168q-1 -59 -41 -96t-113 -37t-110 45t-47 158q-6 53 -28 75q-23 22 -82 23v-479q252 -100 349 -208q97 -109 97 -275t-129 -290t-338 -139v-202h-90v202q-449 8 -449 252z" />
    <glyph glyph-name="percent" unicode="%" horiz-adv-x="1599" 
d="M1168 -27q-148 1 -256 95t-108 272t121 275q120 97 259 97t251 -96q111 -96 111 -272t-115 -274t-263 -97zM1178 43q72 0 98 60q26 61 27 237q0 176 -29 240q-28 64 -96 63q-68 0 -98 -59q-30 -58 -30 -236t28 -242q28 -63 100 -63zM176 -102l1077 1564h127l-1079 -1564
h-125zM414 705q-148 0 -256 93t-107 267q-1 127 63 216q115 161 310 161q145 0 257 -96t112 -272t-115 -272q-116 -97 -264 -97zM297 1078q1 -176 27 -240t99 -64t99 60t27 236q0 175 -29 240q-28 64 -96 64t-98 -60t-29 -236z" />
    <glyph glyph-name="ampersand" unicode="&#x26;" horiz-adv-x="1503" 
d="M864 1161q0 101 -38 153t-104 52t-106 -47q-39 -47 -38 -133q-1 -141 122 -309q80 51 122 117t42 167zM640 84q124 0 208 66q-238 264 -420 546q-72 -90 -72 -258t80 -261t204 -93zM555 -25q-258 0 -388 110t-130 277q0 258 352 396q-98 152 -98 304t126 268
q126 114 298 114t274 -77t103 -200q0 -197 -353 -344q186 -256 334 -432q78 131 78 236q0 66 -74 84l-57 16v55h457v-55l-50 -14q-53 -15 -94 -59t-100 -144q-76 -145 -103 -186q74 -82 164 -177q70 -66 115 -75l55 -15v-57h-473q-29 27 -84 86q-149 -111 -352 -111z" />
    <glyph glyph-name="quotesingle" unicode="'" horiz-adv-x="430" 
d="M214 1450q81 0 124 -52t6 -155l-106 -323h-45l-109 323q-37 103 6 155t124 52z" />
    <glyph glyph-name="parenleft" unicode="(" horiz-adv-x="655" 
d="M72 611q0 422 344 766q86 87 176 149l43 -39q-143 -137 -229 -357t-86 -502q0 -284 80 -497q81 -213 235 -381l-43 -39q-198 139 -342 336q-82 113 -130 260t-48 304z" />
    <glyph glyph-name="parenright" unicode=")" horiz-adv-x="655" 
d="M584 616q0 -419 -343 -758q-84 -84 -178 -147l-43 39q315 346 316 881q0 276 -85 496t-231 360l43 39q191 -131 344 -346q81 -115 129 -261q48 -145 48 -303z" />
    <glyph glyph-name="asterisk" unicode="*" horiz-adv-x="745" 
d="M368 1448q52 0 76 -36t0 -114l-61 -163l135 110q62 47 106 34t60 -63t-13 -88q-30 -37 -104 -30l-176 6l148 -94q45 -27 58 -61q25 -65 -34 -107q-61 -41 -111 3q-28 24 -40 73l-45 169l-48 -169q-16 -72 -65 -90t-81 6q-65 52 -38 115q14 34 60 61l147 94l-174 -4
q-76 -6 -105 32t-13 86t58 61q44 13 109 -34l135 -110l-63 163q-29 72 -1 111t80 39z" />
    <glyph glyph-name="plus" unicode="+" horiz-adv-x="970" 
d="M420 289v368h-344v115h344v369h131v-369h344v-115h-344v-368h-131z" />
    <glyph glyph-name="comma" unicode="," horiz-adv-x="479" 
d="M188 33q-50 0 -89 39q-38 38 -38 104q1 66 49 107t122 41t129 -54q54 -54 55 -151q0 -133 -94 -225t-269 -130l-16 46q227 102 221 243q-20 -20 -70 -20z" />
    <glyph glyph-name="hyphen" unicode="-" horiz-adv-x="565" 
d="M43 489l25 205h452l-26 -205h-451z" />
    <glyph glyph-name="period" unicode="." horiz-adv-x="468" 
d="M232 -14q-68 0 -118 50t-50 121t48 119q50 48 120 48t122 -48t52 -118t-52 -121t-122 -51z" />
    <glyph glyph-name="slash" unicode="/" horiz-adv-x="788" 
d="M0 -266l637 1769h117l-639 -1769h-115z" />
    <glyph glyph-name="zero" unicode="0" horiz-adv-x="1404" 
d="M702 55q140 -1 196 137t56 452t-28 464q-29 150 -81 203q-53 53 -141 53t-139 -49q-114 -109 -113 -598t106 -604q52 -58 144 -58zM694 -25q-264 -1 -445 183t-181 534q0 158 42 288t107 214q66 84 152 142q160 108 340 108q243 0 429 -176q91 -86 145 -228t54 -326
q0 -182 -57 -330q-100 -259 -358 -365q-111 -44 -228 -44z" />
    <glyph glyph-name="one" unicode="1" horiz-adv-x="806" 
d="M45 0v57l86 15q57 12 74 37q16 25 16 112v887l-174 12v62q330 68 492 254l55 -13v-1202q0 -89 15 -113t73 -36l82 -15v-57h-719z" />
    <glyph glyph-name="two" unicode="2" horiz-adv-x="1093" 
d="M29 0v166q260 207 430 401q113 127 163 238t50 270q0 289 -187 289q-63 0 -85 -22t-25 -78q-4 -119 -46 -165t-122 -46q-156 0 -156 137q0 106 123 180q122 74 352 74t372 -106t142 -311q0 -206 -229 -400q-195 -166 -532 -353v-12h516q75 0 103 26t77 136h59l-30 -424
h-975z" />
    <glyph glyph-name="three" unicode="3" horiz-adv-x="1110" 
d="M467 -25q-217 -1 -330 63t-112 179q0 135 143 135q78 0 116 -39t50 -145q12 -72 34 -92t93 -21q117 0 165 88t48 257q0 170 -60 232t-194 62h-101v88h82q133 0 190 67q56 67 56 230q0 285 -178 285q-45 0 -65 -16t-23 -62q-10 -117 -43 -158t-121 -41q-141 0 -141 125
q0 106 121 168t329 64q208 0 341 -91q132 -91 132 -249q0 -121 -93 -213t-281 -131v-6q197 -16 315 -106t117 -265q1 -174 -151 -291t-439 -117z" />
    <glyph glyph-name="four" unicode="4" horiz-adv-x="1204" 
d="M176 545h428v549h-6l-422 -543v-6zM444 0v57l74 15q55 12 71 36q15 24 15 113v176h-577v111l708 911h228v-874h208l-20 -148h-188v-176q0 -89 15 -113t73 -36l77 -15v-57h-684z" />
    <glyph glyph-name="five" unicode="5" horiz-adv-x="1083" 
d="M449 -25q-193 0 -299 65t-107 169q0 59 38 95q37 36 113 36t113 -40t45 -153q6 -57 29 -74t88 -18q252 0 252 297q0 291 -338 291q-139 0 -227 -31l-23 17l86 790h586q47 1 67 19t58 90h61l-41 -367h-659l-29 -268q94 33 240 33q240 0 386 -119t146 -336t-160 -357
t-425 -139z" />
    <glyph glyph-name="six" unicode="6" horiz-adv-x="1228" 
d="M624 55q114 0 152 82q37 83 37 271t-51 258q-50 70 -152 70t-182 -48v-55q0 -326 41 -452t155 -126zM1182 438q0 -206 -148 -335q-148 -128 -402 -128q-253 0 -418 168t-165 498q0 207 64 368q63 161 169 252q214 183 496 183q166 0 262 -53t97 -148q0 -131 -146 -131
q-82 0 -118 37t-44 109t-25 90q-17 16 -65 16q-291 0 -309 -600q142 92 326 92t305 -106t121 -312z" />
    <glyph glyph-name="seven" unicode="7" horiz-adv-x="1044" 
d="M252 1159q-63 -1 -88 -27t-68 -139h-59l37 426h950v-155q-205 -276 -297 -572t-123 -692h-393q74 344 241 620t418 539h-618z" />
    <glyph glyph-name="eight" unicode="8" horiz-adv-x="1167" 
d="M815 1110q0 250 -229 250q-102 0 -162 -53t-62 -145q0 -92 84 -160q85 -68 275 -148q94 111 94 256zM594 59q116 1 188 59t72 162t-88 171q-88 66 -344 182q-111 -131 -111 -281q0 -293 283 -293zM572 -25q-234 -1 -381 93q-146 94 -146 260q0 203 311 336v8
q-252 133 -252 368q0 182 148 293t345 111q198 0 334 -84t136 -248t-272 -293v-6q167 -84 247 -179t80 -228q0 -176 -157 -304q-159 -127 -393 -127z" />
    <glyph glyph-name="nine" unicode="9" horiz-adv-x="1228" 
d="M418 1010q0 -188 50 -258q50 -72 148 -72q99 0 185 47v59q0 326 -41 452t-164 126q-102 0 -140 -83t-38 -271zM463 -27q-171 1 -271 55t-100 152q0 131 152 131q74 0 110 -39q36 -38 48 -110t30 -89t66 -18q150 0 222 132t79 464q-147 -94 -307 -94q-203 0 -323 109
q-120 110 -120 314q1 204 149 333t403 129t417 -166t162 -498q0 -399 -201 -602t-516 -203z" />
    <glyph glyph-name="colon" unicode=":" horiz-adv-x="483" 
d="M242 561q-70 0 -121 50t-51 120t51 119t121 49t120 -49t50 -119t-50 -120t-120 -50zM242 -14q-70 0 -121 50t-51 120t51 118t121 50q70 0 120 -50t50 -118q0 -70 -50 -120t-120 -50z" />
    <glyph glyph-name="semicolon" unicode=";" horiz-adv-x="485" 
d="M242 561q-70 0 -121 50t-51 120t51 119t121 49t120 -49t50 -119t-50 -120t-120 -50zM194 33q-50 0 -89 39q-37 38 -37 104t48 107t122 41t130 -54q54 -54 54 -151q0 -133 -94 -225t-269 -130l-16 46q227 102 221 243q-20 -20 -70 -20z" />
    <glyph glyph-name="less" unicode="&#x3c;" horiz-adv-x="970" 
d="M895 211l-819 373v112l819 373v-127l-686 -301l686 -299v-131z" />
    <glyph glyph-name="equal" unicode="=" horiz-adv-x="1073" 
d="M76 788v115h921v-115h-921zM76 481v115h921v-115h-921z" />
    <glyph glyph-name="greater" unicode="&#x3e;" horiz-adv-x="970" 
d="M76 211v131l686 299l-686 299v129l819 -373v-112z" />
    <glyph glyph-name="question" unicode="?" horiz-adv-x="972" 
d="M359 -14q-69 0 -117 50t-49 121q0 71 49 119q48 48 118 48t122 -50t52 -118t-52 -119q-54 -51 -123 -51zM307 440v359q209 68 256 189q23 56 23 134q0 238 -162 238q-41 0 -53 -16q-13 -16 -23 -88q-23 -154 -172 -154q-66 0 -100 36t-35 91q0 100 109 157q109 58 311 58
t324 -102t122 -283q0 -182 -134 -299t-359 -162v-158h-107z" />
    <glyph glyph-name="at" unicode="@" horiz-adv-x="1810" 
d="M815 236q43 0 76 32t80 105l96 508q-23 61 -84 61q-94 0 -175 -179t-81 -384q0 -143 88 -143zM862 -299q-362 0 -587 196q-224 196 -224 545q0 254 130 469t346 338t464 123q348 0 559 -178t211 -467q0 -166 -50 -298t-132 -208q-167 -155 -369 -153q-133 0 -183 53
t-48 145h-8q-53 -86 -133 -140t-176 -54t-157 73q-60 74 -61 215q0 272 173 464t382 192q141 0 256 -82h7l98 74l31 -17q-23 -57 -56 -231l-75 -395q-20 -100 -5 -151q16 -50 78 -50q104 0 189 133q84 133 84 371q0 280 -163 454t-465 174t-521 -222t-219 -585
q0 -324 168 -511t501 -187q274 0 492 109v-70q-79 -49 -231 -89t-306 -40z" />
    <glyph glyph-name="A" unicode="A" horiz-adv-x="1411" 
d="M553 1038l-168 -499h348l-170 499h-10zM-6 0v57l51 15q47 14 72 49t67 158l412 1140h205l424 -1147q41 -114 67 -152t70 -52l43 -11v-57h-682v57l57 15q74 20 74 82q0 37 -39 149l-51 146h-408l-49 -148q-31 -96 -31 -138q0 -43 20 -61t69 -30l57 -15v-57h-428z" />
    <glyph glyph-name="B" unicode="B" horiz-adv-x="1347" 
d="M553 786h106q121 0 170 60t49 213q0 152 -48 211q-50 59 -160 59q-55 0 -117 -12v-531zM553 223q0 -85 28 -109q27 -24 131 -24t156 69t52 239t-56 236q-56 67 -190 66h-121v-477zM35 0v57l69 15q49 12 65 37q15 25 15 112v977q0 88 -15 113t-65 37l-69 14v57h655
q281 0 414 -81t133 -255q0 -262 -375 -319v-10q223 -25 333 -108t110 -247q1 -195 -141 -297t-414 -102h-715z" />
    <glyph glyph-name="C" unicode="C" horiz-adv-x="1277" 
d="M756 -25q-315 -1 -508 185t-193 548t212 549q212 186 534 187q221 0 389 -47l22 -424h-63q-76 164 -164 289q-41 52 -87 74t-120 22q-178 0 -254 -142t-76 -504q0 -360 78 -505q76 -145 252 -146q86 0 137 26q118 60 252 382h60l-23 -410q-196 -84 -448 -84z" />
    <glyph glyph-name="D" unicode="D" horiz-adv-x="1495" 
d="M698 90q186 0 270 146t83 474q0 330 -85 474t-272 145q-100 0 -137 -18v-1035q1 -118 27 -152t114 -34zM35 0v57l69 15q35 10 50 19q30 19 30 130v977q0 88 -15 113t-65 37l-69 14v57h694q336 0 523 -168q188 -168 188 -516q0 -347 -194 -541t-527 -194h-684z" />
    <glyph glyph-name="E" unicode="E" horiz-adv-x="1265" 
d="M35 0v57l69 15q35 10 50 19q30 19 30 130v977q0 88 -15 113t-65 37l-69 14v57h1124l21 -413h-64q-120 273 -211 306q-47 17 -159 17t-189 -20v-529h55q104 0 144 14t59 48q39 70 64 157h61v-534h-61q-25 86 -64 166q-18 39 -54 50t-149 11h-55v-397q0 -141 30 -173
t164 -32t181 23t98 99t133 275h66l-29 -487h-1165z" />
    <glyph glyph-name="F" unicode="F" horiz-adv-x="1210" 
d="M35 0v57l69 15q49 12 65 37q15 25 15 112v977q0 88 -15 113t-65 37l-69 14v57h1112l20 -424h-63q-118 275 -209 315q-43 19 -156 19t-182 -18v-553h37q114 0 152 12q76 24 126 217h60v-557h-60q-34 117 -62 168t-62 61t-154 11h-37v-449q0 -92 13 -115t69 -32l92 -17v-57
h-696z" />
    <glyph glyph-name="G" unicode="G" horiz-adv-x="1413" 
d="M791 -25q-359 1 -547 187t-189 543q-1 193 61 339t172 230q218 170 548 170q231 0 387 -47l22 -430h-63q-68 152 -134 249q-66 98 -112 120q-45 22 -137 22q-187 0 -271 -148t-84 -498q0 -352 73 -502t263 -149q88 0 156 41v308q0 90 -14 114t-68 35l-70 16v56h623v-56
l-51 -14q-44 -12 -56 -37t-12 -114v-357q-90 -33 -231 -55t-266 -23z" />
    <glyph glyph-name="H" unicode="H" horiz-adv-x="1572" 
d="M35 0v57l69 15q49 12 65 37q15 25 15 112v977q0 88 -15 113t-65 37l-69 14v57h670v-57l-68 -14q-53 -14 -67 -37t-13 -113v-426h459v426q0 90 -14 113t-66 37l-68 14v57h670v-57l-68 -14q-51 -12 -66 -37t-15 -113v-977q0 -89 15 -113t66 -36l68 -15v-57h-670v57l68 15
q53 14 66 37t14 112v457h-459v-457q0 -91 13 -113t67 -36l68 -15v-57h-670z" />
    <glyph glyph-name="I" unicode="I" horiz-adv-x="753" 
d="M35 0v57l76 15q51 12 65 36t14 113v977q0 90 -14 114t-65 36l-76 14v57h686v-57l-76 -14q-51 -12 -66 -36t-16 -114v-977q-1 -89 15 -113t67 -36l76 -15v-57h-686z" />
    <glyph glyph-name="J" unicode="J" horiz-adv-x="741" 
d="M-250 -204q0 144 148 145q72 0 109 -41q38 -41 56 -148q5 -31 13 -39t26 -8q82 0 82 164v1329q0 88 -14 113t-66 37l-71 14v57h674v-57l-70 -14q-51 -12 -65 -37t-15 -113v-1067q0 -227 -137 -367t-373 -141q-145 0 -221 51q-76 50 -76 122z" />
    <glyph glyph-name="K" unicode="K" horiz-adv-x="1470" 
d="M35 0v57l69 15q49 12 65 37q15 25 15 112v977q0 88 -15 113t-65 37l-69 14v57h670v-57l-68 -14q-53 -14 -67 -37t-13 -113v-977q0 -91 13 -113t67 -36l68 -15v-57h-670zM911 1419h494v-57l-47 -12q-55 -14 -94 -46t-125 -128l-262 -293q209 -418 464 -762q29 -39 66 -49
l61 -15v-57h-464q-227 311 -398 674v37l363 417q69 80 69 140t-67 78l-60 16v57z" />
    <glyph glyph-name="L" unicode="L" horiz-adv-x="1222" 
d="M35 0v57l69 15q49 12 65 37q15 25 15 112v977q0 88 -15 113t-65 37l-69 14v57h684v-57l-82 -16q-51 -12 -65 -35t-15 -113v-928q0 -120 27 -150q28 -30 150 -30t169 22q99 46 236 390h65l-33 -502h-1136z" />
    <glyph glyph-name="M" unicode="M" horiz-adv-x="1798" 
d="M35 0v57l61 15q53 12 71 40q17 28 17 130v956q0 88 -15 113t-65 37l-69 14v57h575l291 -854h6l285 854h573v-57l-69 -14q-50 -12 -66 -37t-16 -113v-977q0 -89 15 -113t67 -36l69 -15v-57h-671v57l67 15q51 12 66 36q14 24 14 113v1006h-8l-393 -1196h-133l-408 1196h-8
v-975q0 -112 15 -140t77 -40l63 -15v-57h-411z" />
    <glyph glyph-name="N" unicode="N" horiz-adv-x="1429" 
d="M291 1180v-928q0 -112 16 -140t80 -40l74 -15v-57h-426v57l61 15q53 12 71 40q17 28 17 130v956q0 88 -15 113t-65 37l-69 14v57h538l562 -827h8v575q1 113 -15 140t-81 41l-78 14v57h430v-57l-62 -14q-53 -12 -70 -40t-18 -130v-1180h-145l-805 1182h-8z" />
    <glyph glyph-name="O" unicode="O" horiz-adv-x="1490" 
d="M744 61q164 1 234 135t71 490q0 356 -70 514t-232 158q-161 0 -233 -136t-72 -492t69 -513q69 -156 233 -156zM282 1272q207 172 479 172q273 0 467 -168q97 -84 153 -225q57 -141 57 -331t-62 -340t-167 -235q-204 -170 -476 -170t-470 173q-97 86 -153 226t-56 326
t62 336t166 236z" />
    <glyph glyph-name="P" unicode="P" horiz-adv-x="1316" 
d="M35 0v57l69 15q49 12 65 37q15 25 15 112v977q0 88 -14 112t-59 36l-76 16v57h674q571 0 571 -418q0 -186 -134 -313t-374 -127q-94 0 -156 25v63q160 2 223 73q62 72 62 268t-47 268t-170 71q-80 0 -127 -14v-1094q0 -89 13 -111t69 -34l90 -19v-57h-694z" />
    <glyph glyph-name="Q" unicode="Q" horiz-adv-x="1490" 
d="M747 1360q-161 0 -233 -137t-72 -495t69 -514t233 -157q164 1 234 137t71 492q0 356 -70 515t-232 159zM1214 -356q-213 0 -399 133q-137 92 -289 235q-213 56 -343 230t-130 450q1 194 63 344t166 236q207 172 479 172q273 0 467 -168q97 -84 153 -225t57 -326
q0 -291 -129 -459t-342 -231v-6q86 -78 188 -146q127 -80 242 -80q66 0 170 41v-55q-140 -145 -353 -145z" />
    <glyph glyph-name="R" unicode="R" horiz-adv-x="1441" 
d="M651 700q133 0 193 70q59 70 59 246t-46 245q-47 69 -155 69t-147 -15v-606q41 -9 96 -9zM35 0v57l69 15q49 12 65 37q15 25 15 112v977q0 88 -15 113t-65 37l-69 14v57h672q299 0 436 -93t137 -282q0 -258 -279 -342v-6q152 -330 336 -577q27 -35 78 -51l33 -11v-57
h-455q-84 115 -177 293t-152 328q-98 0 -109 2v-402q0 -89 14 -113t64 -36l69 -15v-57h-667z" />
    <glyph glyph-name="S" unicode="S" horiz-adv-x="1081" 
d="M1032 453q0 -205 -144 -341t-402 -137q-258 0 -412 66l-25 395h66q88 -168 145 -248q58 -80 110 -104t154 -23t162 59q59 58 59 154t-63 159q-63 62 -259 138q-196 77 -280 181t-84 279q1 175 141 294t369 119t359 -49l20 -351h-63q-71 137 -129 207t-97 89
q-39 20 -131 20t-148 -50t-56 -142t53 -144q53 -53 256 -132t301 -182t98 -257z" />
    <glyph glyph-name="T" unicode="T" horiz-adv-x="1298" 
d="M303 0v57l76 15q55 12 70 36q14 24 14 113v1108h-21q-92 0 -129 -17t-83 -82t-138 -284h-65l16 473h1212l17 -473h-64q-88 212 -138 282t-85 86t-129 15h-20v-1108q0 -92 13 -115t71 -34l75 -15v-57h-692z" />
    <glyph glyph-name="U" unicode="U" horiz-adv-x="1439" 
d="M764 -25q-592 0 -592 480v743q0 88 -15 113t-67 37l-70 14v57h672v-57l-67 -14q-51 -12 -65 -36t-15 -114v-784q1 -160 73 -233t244 -72q303 0 303 333v725q0 111 -16 139t-82 42l-80 14v57h432v-57l-63 -14q-52 -12 -68 -40t-16 -130v-750q0 -201 -128 -327t-380 -126z
" />
    <glyph glyph-name="V" unicode="V" horiz-adv-x="1382" 
d="M-6 1419h680v-57l-58 -14q-72 -16 -71 -80q0 -31 39 -152l252 -733h10l233 731q31 96 31 148q0 70 -78 86l-63 14v57h420v-57l-52 -14q-43 -12 -67 -52t-62 -155l-395 -1141h-203l-432 1147q-44 113 -68 153t-69 52l-47 10v57z" />
    <glyph glyph-name="W" unicode="W" horiz-adv-x="2074" 
d="M-2 1419h661v-57l-51 -12q-68 -18 -68 -72t35 -162l224 -715h10l192 590l-63 205q-25 76 -49 109q-25 33 -68 45l-47 12v57h662v-57l-74 -14q-64 -16 -64 -76t31 -156l223 -715h11l206 717q27 86 27 152t-74 80l-65 12v57h420v-57l-47 -10q-47 -12 -75 -60t-69 -174
l-352 -1118h-213l-260 829h-8l-275 -829h-217l-389 1167q-37 106 -58 141q-22 34 -65 44l-51 10v57z" />
    <glyph glyph-name="X" unicode="X" horiz-adv-x="1435" 
d="M20 0v57l37 9q53 16 91 50t102 130l285 438l-316 516q-35 56 -49 76q-37 52 -94 72l-43 14v57h721v-57l-74 -14q-59 -16 -59 -60t55 -141l168 -295h6l168 301q43 78 43 130t-74 67l-59 12v57h444v-57l-49 -12q-43 -12 -73 -45t-97 -140l-248 -401l328 -541
q57 -90 83 -118t62 -37l39 -11v-57h-712v57l71 13q63 12 64 65q0 37 -56 135l-190 330h-6l-189 -319q-57 -95 -57 -147t61 -64l64 -13v-57h-447z" />
    <glyph glyph-name="Y" unicode="Y" horiz-adv-x="1327" 
d="M340 0v57l76 15q57 12 70 34t14 115v363l-320 590q-51 98 -79 130t-68 46l-41 12v57h700v-57l-59 -12q-78 -20 -78 -84q0 -37 37 -117l215 -438h10l189 424q35 72 34 129q0 63 -84 84l-55 14v57h434v-57l-43 -12q-43 -14 -77 -58t-80 -141l-263 -555v-375q0 -92 14 -115
t72 -34l76 -15v-57h-694z" />
    <glyph glyph-name="Z" unicode="Z" horiz-adv-x="1185" 
d="M37 0v90l717 1239v6h-74q-209 0 -269 -15t-108 -79q-66 -94 -149 -276h-62l25 454h1040v-90l-715 -1233v-8h86q217 0 284 20t122 91q74 100 158 301h65l-33 -500h-1087z" />
    <glyph glyph-name="bracketleft" unicode="[" horiz-adv-x="692" 
d="M178 -266v1769h469v-57l-135 -14q-80 -10 -102 -35t-21 -119v-1319q0 -94 22 -119t101 -35l135 -14v-57h-469z" />
    <glyph glyph-name="backslash" unicode="\" horiz-adv-x="788" 
d="M672 -266l-637 1769h115l638 -1769h-116z" />
    <glyph glyph-name="bracketright" unicode="]" horiz-adv-x="692" 
d="M45 -266v57l135 14q80 10 103 36t22 118v1319q0 94 -21 119q-22 25 -104 35l-135 14v57h469v-1769h-469z" />
    <glyph glyph-name="asciicircum" unicode="^" horiz-adv-x="952" 
d="M150 905l-31 35l301 487h110l304 -487l-33 -35l-328 281z" />
    <glyph glyph-name="underscore" unicode="_" horiz-adv-x="720" 
d="M-6 -346v115h733v-115h-733z" />
    <glyph glyph-name="grave" unicode="`" horiz-adv-x="1013" 
d="M256 1386q0 47 32 85t83 38t104 -49l268 -241l-16 -37l-375 90q-96 23 -96 114z" />
    <glyph glyph-name="a" unicode="a" horiz-adv-x="1089" 
d="M496 121q84 0 114 59v328l-94 -8q-82 -6 -121 -51t-39 -152q1 -176 140 -176zM342 -25q-145 0 -226 71t-81 200q0 130 91 200t277 115l207 51v179q0 127 -30 174q-31 47 -115 47q-47 0 -65 -16t-24 -86q-11 -153 -157 -152q-67 0 -103 34t-36 93q0 98 120 152t332 55
q406 0 406 -281v-567q0 -59 9 -86q18 -53 134 -62v-49q-90 -72 -239 -72q-178 0 -213 125h-11q-98 -125 -276 -125z" />
    <glyph glyph-name="b" unicode="b" horiz-adv-x="1239" 
d="M624 57q116 1 174 97t58 336t-61 332q-61 91 -183 91q-72 0 -163 -36v-746q59 -74 175 -74zM582 -25q-280 0 -461 117v1192q0 74 -10 96t-54 43l-75 37v47l450 41l23 -16q-6 -96 -6 -240v-139l-7 -199h11q158 138 328 138t283 -110q58 -56 93 -158t35 -236
q0 -307 -165 -460t-445 -153z" />
    <glyph glyph-name="c" unicode="c" horiz-adv-x="1015" 
d="M553 -25q-246 1 -380 149t-134 404q0 154 55 268q56 114 150 176q183 120 418 120q154 0 240 -50t85 -141q0 -63 -40 -103t-105 -40q-133 0 -148 160q-8 57 -23 73t-67 17q-238 0 -237 -392q-1 -231 75 -348q76 -116 235 -116t306 75v-65q-57 -70 -169 -128t-261 -59z
" />
    <glyph glyph-name="d" unicode="d" horiz-adv-x="1263" 
d="M621 137q82 0 172 45v742q-70 86 -160 86q-250 0 -250 -447q0 -233 58 -330q59 -96 180 -96zM460 -25q-179 0 -296 129t-117 411t167 429t427 148q76 0 156 -23q-4 76 -4 150v65q1 70 -11 90t-53 41l-84 45v47l459 41l20 -16q-6 -96 -6 -240v-1046q0 -76 10 -98t58 -39
l59 -25v-49l-424 -60l-22 17l4 117h-8q-156 -134 -335 -134z" />
    <glyph glyph-name="e" unicode="e" horiz-adv-x="1077" 
d="M557 1014q-182 0 -195 -357l351 19q0 190 -33 264t-123 74zM573 -25q-262 -1 -398 147t-136 408t159 412q159 150 375 150q457 0 465 -512h-676q4 -240 90 -334t247 -94q162 0 309 77v-67q-66 -74 -180 -130t-255 -57z" />
    <glyph glyph-name="f" unicode="f" horiz-adv-x="720" 
d="M23 0v55l53 15q51 14 63 32t13 84v756h-144v51l144 72v55q0 205 137 322t377 117q122 0 190 -42t68 -122q0 -53 -33 -84t-97 -31t-99 31q-34 31 -39 88t-13 68t-27 12q-139 0 -139 -213v-203h238l-29 -121h-209v-752q0 -72 11 -91t61 -27l78 -17v-55h-604z" />
    <glyph glyph-name="g" unicode="g" horiz-adv-x="1079" 
d="M489 485q74 -1 106 55t32 206t-32 208q-32 60 -106 60q-73 0 -105 -56t-32 -206t32 -208t105 -59zM481 -352q348 0 348 215q0 135 -180 135h-344q-84 -43 -84 -152q0 -198 260 -198zM438 -432q-225 0 -345 62t-120 177q0 150 258 207v9q-84 18 -130 70t-46 126
q0 129 158 244v8q-164 82 -164 256t126 269t314 96q137 0 252 -50q113 102 234 103q59 0 94 -29t35 -82q0 -117 -100 -116q-43 0 -65 17t-40 56q-25 53 -113 10v-6q144 -83 144 -243t-126 -253t-315 -93q-117 0 -210 34q-45 -41 -46 -90q0 -70 103 -69h358q346 0 346 -277
q0 -186 -156 -311t-446 -125z" />
    <glyph glyph-name="h" unicode="h" horiz-adv-x="1284" 
d="M23 0v55l53 15q51 14 63 32t13 84v1098q0 74 -10 96t-54 43l-76 37v47l451 41l22 -16q-8 -102 -8 -240v-139l-6 -203h10q207 141 387 142q268 0 269 -275v-631q0 -68 12 -86t61 -30l54 -15v-55h-572v55l49 13q47 12 58 29q10 17 10 89v551q0 92 -34 128q-33 36 -107 36
t-191 -27v-688q0 -72 10 -89t58 -29l49 -13v-55h-571z" />
    <glyph glyph-name="i" unicode="i" horiz-adv-x="624" 
d="M305 1192q-76 0 -128 47t-52 121t52 122t128 48t128 -48t52 -122t-52 -121t-128 -47zM23 0v55l53 15q51 14 63 32t13 84v637q0 63 -12 83t-56 50l-68 45v41l449 50l20 -15q-8 -127 -8 -235v-656q0 -68 12 -86t64 -30l53 -15v-55h-583z" />
    <glyph glyph-name="j" unicode="j" horiz-adv-x="600" 
d="M304 1192q-77 0 -128 47t-51 121t51 122t128 48t128 -48t51 -122t-51 -121t-128 -47zM33 -434q-131 0 -201 52t-70 136q0 121 134 121q72 0 104 -36t43 -136q4 -55 33 -55q76 0 76 123v1052q0 63 -12 83t-56 50l-68 45v41l449 50l20 -15q-8 -127 -8 -235v-828
q-1 -212 -123 -330t-321 -118z" />
    <glyph glyph-name="k" unicode="k" horiz-adv-x="1216" 
d="M23 0v55l53 15q51 14 63 32t13 84v1098q0 74 -10 96t-54 43l-76 37v47l451 41l22 -16q-8 -102 -8 -240v-1106q0 -70 10 -88t56 -30l47 -13v-55h-567zM821 938q0 43 -76 61l-30 11v53h448v-53l-43 -13q-43 -11 -78 -35t-102 -92l-186 -190q197 -360 350 -553
q37 -49 78 -59l35 -13v-55h-398q-162 221 -311 504v33l231 249q82 92 82 152z" />
    <glyph glyph-name="l" unicode="l" horiz-adv-x="632" 
d="M23 0v55l53 15q53 14 66 32t14 84v1098q0 74 -12 94t-56 45l-76 37v47l455 41l22 -16q-8 -102 -8 -240v-1106q1 -68 13 -85t67 -31l53 -15v-55h-591z" />
    <glyph glyph-name="m" unicode="m" horiz-adv-x="1892" 
d="M23 0v55l53 15q51 14 63 32t13 84v637q0 63 -12 83t-56 50l-68 45v41l433 50l22 -17l-4 -129h8q203 146 381 146t238 -148h10q209 147 387 148q121 0 187 -70t67 -205v-631q0 -68 12 -86t62 -30l53 -15v-55h-565v55l47 13q43 12 53 29t10 89v551q0 90 -28 127
q-29 37 -103 37t-178 -29q4 -33 4 -69v-617q0 -70 10 -88t52 -30l47 -13v-55h-547v55l47 13q43 12 53 30t10 88v551q0 90 -28 127q-30 37 -96 37t-183 -27v-688q0 -72 10 -89t54 -29l47 -13v-55h-565z" />
    <glyph glyph-name="n" unicode="n" horiz-adv-x="1284" 
d="M23 0v55l53 15q51 14 63 32t13 84v637q0 63 -12 83t-56 50l-68 45v41l433 50l22 -15l-4 -131h8q203 145 393 146q268 0 269 -275v-631q0 -68 12 -86t61 -30l54 -15v-55h-572v55l49 13q47 12 58 29q10 17 10 89v551q0 92 -34 128q-33 36 -107 36t-191 -27v-688
q0 -72 10 -89t58 -29l49 -13v-55h-571z" />
    <glyph glyph-name="o" unicode="o" horiz-adv-x="1189" 
d="M600 55q104 -1 156 95t51 334q0 413 -99 493q-44 35 -120 35q-104 0 -154 -98t-51 -326q0 -409 93 -494q44 -39 124 -39zM590 -25q-234 -1 -392 143t-159 412q0 141 47 252q47 110 127 176q163 134 391 134t388 -142t159 -414q0 -271 -163 -416q-164 -145 -398 -145z" />
    <glyph glyph-name="p" unicode="p" horiz-adv-x="1269" 
d="M639 57q129 1 188 97t59 336t-60 332q-62 91 -183 91q-68 0 -166 -36v-746q64 -74 162 -74zM23 -422v55l53 15q51 14 63 32t13 87v1056q0 63 -12 83t-56 50l-68 45v41l433 50l22 -15l-4 -127h10q164 142 337 142t291 -122t118 -382q0 -307 -161 -460t-431 -153
q-80 0 -156 21q2 -53 2 -125v-104q0 -71 11 -89t61 -28l72 -17v-55h-598z" />
    <glyph glyph-name="q" unicode="q" horiz-adv-x="1247" 
d="M621 137q82 0 172 45v754q-74 74 -160 74q-250 0 -250 -447q0 -233 58 -330q59 -96 180 -96zM649 -422v55l72 17q49 10 60 28t12 89v178l10 164h-10q-152 -133 -332 -133t-297 128q-117 129 -117 411t167 429t427 148q186 0 336 -88h14l92 88l35 -15v-1310q0 -68 12 -86
t64 -33l53 -15v-55h-598z" />
    <glyph glyph-name="r" unicode="r" horiz-adv-x="948" 
d="M23 0v55l53 15q51 14 63 32t13 84v637q0 63 -12 83t-56 50l-68 45v41l433 50l22 -17l-4 -141h8q147 158 299 158q74 0 116 -40t42 -113t-40 -114t-104 -41t-93 20q-30 20 -53 60t-52 39q-55 0 -113 -53v-664q0 -72 11 -90t59 -26l67 -15v-55h-591z" />
    <glyph glyph-name="s" unicode="s" horiz-adv-x="884" 
d="M846 342q0 -166 -121 -266t-319 -101q-198 0 -343 43l-14 320h57q55 -106 125 -194t187 -87q76 0 123 38t47 108q0 69 -51 111t-195 96t-219 133q-74 77 -74 217t116 236t307 96t294 -39l12 -279h-55q-57 104 -117 171t-141 67q-82 0 -122 -36t-40 -97t42 -103
q41 -42 193 -98t230 -136t78 -200z" />
    <glyph glyph-name="t" unicode="t" horiz-adv-x="747" 
d="M414 -25q-141 0 -213 68t-72 215v684h-129v49q254 98 340 344h117v-272h272l-27 -121h-245v-663q1 -78 29 -111t99 -33t152 19v-58q-130 -121 -323 -121z" />
    <glyph glyph-name="u" unicode="u" horiz-adv-x="1277" 
d="M416 -25q-125 0 -197 70t-72 203v586q0 63 -9 82t-54 47l-72 41v43l439 45l24 -19v-745q0 -88 34 -128q35 -40 105 -40t193 41v633q0 64 -10 84t-56 45l-69 41v43l436 45l25 -19v-827q0 -76 10 -98t57 -39l60 -25v-49l-424 -60l-23 17l4 137h-10q-209 -154 -391 -154z
" />
    <glyph glyph-name="v" unicode="v" horiz-adv-x="1138" 
d="M-10 1063h616v-53l-55 -15q-63 -18 -64 -84q0 -35 27 -110l172 -473h10l166 473q27 72 27 114q0 61 -64 80l-55 15v53h379v-53l-39 -13q-40 -14 -64 -49t-63 -135l-317 -813h-174l-340 836q-35 88 -59 118t-64 43l-39 13v53z" />
    <glyph glyph-name="w" unicode="w" horiz-adv-x="1720" 
d="M-10 1063h577v-53l-45 -13q-51 -14 -51 -54t33 -142l151 -473h13l151 440l-22 68q-31 90 -51 120t-56 41l-41 13v53h572v-53l-56 -15q-57 -14 -57 -80q0 -41 25 -114l155 -473h10l148 473q25 80 24 117q0 61 -63 77l-55 15v53h379v-53l-37 -13q-41 -14 -68 -50t-61 -134
l-295 -813h-176l-222 631h-6l-229 -631h-174l-311 836q-33 88 -58 118t-65 43l-39 13v53z" />
    <glyph glyph-name="x" unicode="x" horiz-adv-x="1202" 
d="M18 0v55l45 11q47 12 80 43t88 110l201 287l-237 348q-61 86 -87 112t-65 35l-29 9v53h619v-53l-43 -11q-62 -14 -62 -53t41 -102l131 -197h7l94 168q43 78 43 122t-64 62l-45 11v53h404v-53l-41 -13q-45 -10 -84 -47t-90 -116l-168 -261l254 -362q76 -107 99 -123
t54 -27l27 -6v-55h-619v55l47 8q55 12 56 56q0 33 -53 114l-136 201h-6l-108 -180q-53 -86 -54 -131q0 -45 70 -60l41 -8v-55h-410z" />
    <glyph glyph-name="y" unicode="y" horiz-adv-x="1142" 
d="M240 -426q-82 0 -142 42q-59 42 -59 104t35 94t94 32t90 -24t44 -72q13 -49 42 -49q35 0 72 47t88 166l22 53l-381 867q-45 98 -63 126t-53 37l-37 13v53h604v-53l-55 -15q-63 -17 -63 -71t28 -123l180 -457h8l172 457q29 76 29 126t-66 68l-57 15v53h381v-53l-47 -17
q-37 -12 -55 -42t-64 -138l-381 -917q-35 -82 -63 -134q-74 -130 -166 -166q-55 -22 -137 -22z" />
    <glyph glyph-name="z" unicode="z" horiz-adv-x="1001" 
d="M25 0v88l583 881v8h-98q-113 0 -155 -11q-42 -12 -85 -58t-137 -208h-55l22 363h871v-82l-582 -887v-8h100q139 0 191 14t90 64q76 94 139 213h58l-33 -377h-909z" />
    <glyph glyph-name="braceleft" unicode="{" horiz-adv-x="737" 
d="M86 662q225 10 225 105q0 42 -46 232t-46 248q0 119 95 181t372 79v-61q-154 -20 -192 -52t-39 -115q0 -83 20 -236t21 -203q0 -92 -58 -140t-223 -73v-9q168 -24 224 -70t57 -140q0 -51 -20 -207t-21 -239q0 -83 39 -114t192 -51v-61q-359 23 -434 132q-33 48 -33 116
t46 260q46 194 46 236t-47 70t-178 34v78z" />
    <glyph glyph-name="bar" unicode="|" horiz-adv-x="454" 
d="M174 -266v1769h107v-1769h-107z" />
    <glyph glyph-name="braceright" unicode="}" horiz-adv-x="737" 
d="M311 -38q0 83 -21 239q-22 156 -22 205q0 92 60 140t223 72v9q-168 23 -225 69t-58 142q0 52 22 206t22 236t-40 114q-39 32 -192 52v61q276 -17 372 -79t95 -181q0 -57 -46 -247t-46 -234q0 -43 47 -70t178 -34v-78q-131 -6 -178 -34t-47 -71t46 -235t46 -260t-33 -116
q-75 -109 -434 -132v61q154 20 192 51t39 114z" />
    <glyph glyph-name="asciitilde" unicode="~" horiz-adv-x="792" 
d="M250 741q57 1 174 -35t164 -36t100 86l51 -25q-51 -131 -90 -187t-98 -56t-176 35q-117 36 -154 36q-37 -1 -58 -19t-52 -67l-52 27q51 129 93 185t98 56z" />
    <glyph glyph-name="nbspace" unicode="&#xa0;" 
 />
    <glyph glyph-name="exclamdown" unicode="&#xa1;" horiz-adv-x="585" 
d="M290 -190q-110 0 -163 68t-21 204l152 725h66l151 -725q33 -136 -21 -204t-164 -68zM290 924q-71 0 -120 48t-49 119t50 121t119 50t121 -50t52 -120t-51 -119t-122 -49z" />
    <glyph glyph-name="cent" unicode="&#xa2;" horiz-adv-x="1017" 
d="M369 598q0 -354 178 -428v829q-178 -47 -178 -401zM547 -225v200q-238 8 -373 158t-135 404q0 359 320 497q87 37 188 49v138h86v-129h31q158 0 244 -50t85 -141q0 -63 -38 -102q-39 -39 -107 -39t-98 37t-38 100t-24 86t-55 25v-858q14 -2 45 -3q154 0 309 80v-65
q-49 -62 -139 -116t-215 -66v-205h-86z" />
    <glyph glyph-name="sterling" unicode="&#xa3;" horiz-adv-x="1110" 
d="M66 690v94h120q-41 145 -41 238q1 188 141 305t388 117q195 0 294 -62t99 -165q0 -63 -39 -99q-40 -36 -112 -37q-72 0 -109 46t-53 145q-14 60 -28 76t-56 16q-78 0 -118 -58t-40 -194q0 -47 20 -328h306v-94h-301v-26q0 -246 -285 -402v-12h588q63 0 94 29t70 133h59
l-39 -412h-987v174q111 72 163 144t52 158t-37 214h-149z" />
    <glyph glyph-name="yen" unicode="&#xa5;" horiz-adv-x="1302" 
d="M123 627v94h321l-245 453q-55 102 -80 133t-64 43l-41 12v57h691v-57l-54 -12q-78 -16 -78 -84q0 -41 37 -117l178 -381h11l155 367q37 86 37 125t-18 57t-66 33l-45 12v57h418v-57l-41 -12q-45 -14 -72 -52t-77 -147l-205 -430h321v-94h-352v-144h352v-94h-352v-168
q0 -92 14 -115t72 -34l76 -15v-57h-694v57l75 15q57 12 72 36q14 24 14 113v168h-360v94h360v144h-360z" />
    <glyph glyph-name="brokenbar" unicode="&#xa6;" horiz-adv-x="454" 
d="M174 666v837h107v-837h-107zM174 -266v792h107v-792h-107z" />
    <glyph glyph-name="section" unicode="&#xa7;" horiz-adv-x="1181" 
d="M922 284q0 74 -58 138t-258 204q-198 140 -274 230q-74 -50 -74 -124t58 -134t263 -210q205 -148 275 -228q68 50 68 124zM942 -59q0 -163 -116 -261t-287 -98t-257 56t-85 147q0 55 33 86q34 31 98 31t96 -37t39 -105q6 -68 26 -84q21 -18 81 -18t101 34q40 34 40 106
q1 72 -57 130t-260 204t-276 236t-75 212q0 205 248 333q-51 78 -51 177q0 152 110 250t282 98q173 0 260 -54t87 -143q0 -47 -34 -82q-35 -35 -99 -35t-94 37t-38 103t-28 82t-78 16t-99 -38q-42 -38 -42 -108t55 -127q56 -56 268 -208t282 -240t69 -211q0 -193 -240 -334
q41 -72 41 -155z" />
    <glyph glyph-name="dieresis" unicode="&#xa8;" 
d="M723 1180q-68 0 -114 43t-46 111t46 110q46 43 114 43t113 -43t45 -111q0 -69 -45 -111t-113 -42zM461 1333q0 -69 -46 -111t-113 -42t-113 44t-46 110t46 109q46 44 113 44t113 -43t46 -111z" />
    <glyph glyph-name="copyright" unicode="&#xa9;" horiz-adv-x="1613" 
d="M172 705q0 -272 180 -463t452 -191q273 1 453 191q181 190 181 462t-180 462t-454 190q-272 0 -452 -190t-180 -461zM805 -35q-307 0 -519 216q-212 217 -212 523t211 521t519 215t522 -215t214 -520t-214 -523t-521 -217zM649 719q1 -387 187 -387q90 0 135 63
q29 39 100 193h49l-16 -266q-129 -50 -287 -50q-201 0 -319 110t-119 332q0 222 129 333t332 110q135 0 256 -33l10 -256h-47q-76 135 -106 171q-29 36 -53 47t-66 12q-98 0 -142 -88t-43 -291z" />
    <glyph glyph-name="ordfeminine" unicode="&#xaa;" horiz-adv-x="911" 
d="M412 664q63 0 94 45v256l-78 -7q-66 -6 -92 -40t-27 -123q1 -131 103 -131zM298 537q-130 0 -197 57q-67 58 -67 160t76 161q75 59 226 99l170 43v123q0 110 -26 146t-77 36t-63 -13t-19 -73t-37 -94t-92 -33q-62 0 -92 28q-31 28 -30 76q0 82 98 131t274 50
q342 0 342 -242v-432q0 -49 8 -71q16 -48 111 -48v-45q-88 -57 -205 -57q-150 0 -180 98h-6q-84 -100 -214 -100z" />
    <glyph glyph-name="guillemotleft" unicode="&#xab;" horiz-adv-x="929" 
d="M786 92l-354 406v39l354 405h70l-168 -422l168 -428h-70zM414 92l-355 406v39l355 405h71l-170 -422l170 -428h-71z" />
    <glyph glyph-name="logicalnot" unicode="&#xac;" horiz-adv-x="1650" 
d="M822 -31q-306 0 -522 217q-216 216 -216 524t216 524t523 216t525 -216t219 -522q0 -306 -219 -525q-220 -218 -526 -218z" />
    <glyph glyph-name="registered" unicode="&#xae;" horiz-adv-x="1613" 
d="M780 709q74 0 104 41t29 137q0 96 -28 136q-29 40 -88 40t-66 -6v-342q14 -6 49 -6zM172 705q0 -272 180 -463t452 -191q273 1 453 191q181 190 181 462t-180 462t-454 190q-272 0 -452 -190t-180 -461zM805 -35q-307 0 -519 216q-212 217 -212 523t211 521t519 215
t522 -215t214 -520t-214 -523t-521 -217zM414 303v39l41 10q31 8 40 22t9 68v539q0 53 -9 69t-40 21l-41 10v41h391q350 0 350 -223q0 -150 -164 -199v-6q82 -186 166 -313q12 -20 45 -31l29 -8v-39h-281q-84 131 -164 348q-39 0 -55 4v-213q0 -55 8 -68t39 -22l41 -10v-39
h-405z" />
    <glyph glyph-name="macron" unicode="&#xaf;" 
d="M250 1239v164h524v-164h-524z" />
    <glyph glyph-name="degree" unicode="&#xb0;" horiz-adv-x="622" 
d="M311 1016q70 0 114 50t44 122t-44 121t-114 49q-69 0 -113 -49t-44 -121t44 -122t113 -50zM311 934q-109 0 -181 74t-71 179q0 105 72 179q73 74 181 74t180 -74t72 -179t-72 -179t-181 -74z" />
    <glyph glyph-name="plusminus" unicode="&#xb1;" horiz-adv-x="1675" 
d="M1427 512l-694 33l164 -135q109 -90 82 -204t-130 -140t-206 53l-586 588v8l588 590q92 92 204 53t130 -141t-82 -205l-164 -135l694 32q129 6 183 -96t1 -205q-55 -102 -184 -96z" />
    <glyph glyph-name="twosuperior" unicode="&#xb2;" horiz-adv-x="688" 
d="M25 631v117q168 127 256 223q113 119 113 260t-95 141q-29 0 -37 -11t-14 -65q-12 -113 -115 -113q-102 1 -102 89q0 68 81 114q80 46 222 48q142 0 230 -60t89 -162q0 -104 -102 -196t-330 -195v-6h268q39 -1 55 17t44 81h57l-16 -282h-604z" />
    <glyph glyph-name="threesuperior" unicode="&#xb3;" horiz-adv-x="706" 
d="M305 616q-281 0 -280 146q0 88 92 88q97 0 113 -103q8 -51 20 -61t53 -10q109 0 109 170q0 96 -39 127t-115 31h-57v75h47q76 0 110 34t33 116q0 143 -82 143q-29 0 -39 -9t-14 -42q-10 -104 -109 -104q-41 1 -67 23t-25 58q0 64 73 100t207 36t216 -48t82 -141
q0 -150 -221 -186v-4q116 -5 186 -57t70 -154t-90 -166q-90 -62 -273 -62z" />
    <glyph glyph-name="acute" unicode="&#xb4;" 
d="M646 1509q52 0 84 -38t32 -85q0 -92 -94 -114l-377 -90l-17 37l269 241q51 49 103 49z" />
    <glyph glyph-name="mu" unicode="&#xb5;" horiz-adv-x="1675" 
d="M942 545l-694 -33q-129 -6 -183 96t0 204t183 97l694 -32l-164 135q-109 90 -82 204t129 141q102 28 205 -52l588 -590v-8l-586 -588q-94 -92 -206 -54t-130 140t82 205z" />
    <glyph glyph-name="mu" unicode="&#x3bc;" horiz-adv-x="1675" 
d="M942 545l-694 -33q-129 -6 -183 96t0 204t183 97l694 -32l-164 135q-109 90 -82 204t129 141q102 28 205 -52l588 -590v-8l-586 -588q-94 -92 -206 -54t-130 140t82 205z" />
    <glyph glyph-name="paragraph" unicode="&#xb6;" horiz-adv-x="1101" 
d="M520 -205v885q-33 -4 -78 -4q-203 0 -302 104t-99 272t102 267q102 100 297 100h627v-57l-70 -14q-49 -12 -64 -37t-15 -113v-1403h-111v1534h-176v-1534h-111z" />
    <glyph glyph-name="periodcentered" unicode="&#xb7;" horiz-adv-x="471" 
d="M235 858q71 0 121 -48t52 -118q0 -70 -52 -121t-121 -51t-119 51t-50 121t49 118t120 48z" />
    <glyph glyph-name="cedilla" unicode="&#xb8;" 
d="M508 -266q0 53 -102 59l-11 17l94 190h86l-65 -94q86 -8 133 -43t47 -86q0 -168 -356 -197v45q174 37 174 109z" />
    <glyph glyph-name="onesuperior" unicode="&#xb9;" horiz-adv-x="532" 
d="M31 631v55l41 8q41 10 50 24t9 70v404l-98 16v56q209 39 317 166l51 -9v-633q-1 -57 11 -72t51 -22l41 -8v-55h-473z" />
    <glyph glyph-name="ordmasculine" unicode="&#xba;" horiz-adv-x="993" 
d="M495 614q89 0 128 73t39 297t-38 300t-126 76t-126 -75t-38 -294t36 -298t125 -79zM954 988q0 -216 -136 -332t-323 -115q-187 0 -322 115q-134 116 -134 332t136 331q135 115 323 115t322 -115t134 -331z" />
    <glyph glyph-name="guillemotright" unicode="&#xbb;" horiz-adv-x="929" 
d="M446 92l168 426l-168 424h70l356 -405v-39l-356 -406h-70zM74 92l170 426l-170 424h71l355 -405v-39l-355 -406h-71z" />
    <glyph glyph-name="onequarter" unicode="&#xbc;" horiz-adv-x="1591" 
d="M176 -102l1079 1564h125l-1077 -1564h-127zM33 631v55l41 8q41 10 50 24t9 70v404l-98 16v56q209 39 317 166l51 -9v-633q-1 -57 11 -72t51 -22l41 -8v-55h-473zM971 311h223v269h-4l-219 -263v-6zM1098 0v55l37 8q39 11 49 25t10 70v57h-334v74l420 499h174v-477h121
l-12 -96h-109v-57q0 -56 11 -72t48 -23l39 -8v-55h-454z" />
    <glyph glyph-name="onehalf" unicode="&#xbd;" horiz-adv-x="1581" 
d="M129 -102l1079 1564h125l-1077 -1564h-127zM33 631v55l41 8q41 10 50 24t9 70v404l-98 16v56q209 39 317 166l51 -9v-633q-1 -57 11 -72t51 -22l41 -8v-55h-473zM911 0v119q166 123 256 221q113 119 113 260t-94 141q-29 0 -37 -11q-8 -12 -14 -66q-12 -112 -115 -111
q-102 0 -102 88q0 70 80 116q82 46 224 46q142 -1 230 -59t88 -162t-102 -197q-102 -92 -330 -195v-6h268q38 0 54 18t45 81h57l-16 -283h-605z" />
    <glyph glyph-name="threequarters" unicode="&#xbe;" horiz-adv-x="1699" 
d="M291 -102l1079 1564h125l-1077 -1564h-127zM1079 311h224v269h-5l-219 -263v-6zM1206 0v55l37 8q39 11 49 25t11 70v57h-334v74l420 499h174v-477h120l-12 -96h-108v-57q0 -56 11 -72t48 -23l39 -8v-55h-455zM330 616q-281 0 -281 146q0 88 92 88q97 0 113 -103
q8 -51 20 -61t54 -10q109 0 108 170q0 96 -39 127t-114 31h-58v75h47q76 0 110 34t34 116q0 143 -82 143q-29 0 -39 -9t-14 -42q-10 -104 -109 -104q-41 1 -67 23t-25 58q0 64 73 100t207 36t215 -48q82 -48 82 -141q0 -150 -221 -186v-4q115 -5 186 -57q70 -52 70 -154
t-90 -166q-90 -62 -272 -62z" />
    <glyph glyph-name="questiondown" unicode="&#xbf;" horiz-adv-x="972" 
d="M611 936q-71 0 -122 49t-51 119t52 120t121 50t119 -50t50 -121t-49 -119t-120 -48zM932 31q0 -99 -108 -157t-312 -58q-202 0 -325 102q-121 102 -121 284t134 299q134 116 359 161v157h107v-358q-119 -39 -177 -86q-57 -47 -79 -103t-23 -135q0 -238 162 -237
q39 0 52 16t23 88q23 156 173 156q67 0 101 -37t34 -92z" />
    <glyph glyph-name="Agrave" unicode="&#xc0;" horiz-adv-x="1411" 
d="M430 1714q0 47 32 85t84 38t103 -49l269 -242l-17 -37l-375 90q-96 23 -96 115zM553 1038l-168 -499h348l-170 499h-10zM-6 0v57l51 15q47 14 72 49t67 158l412 1140h205l424 -1147q41 -114 67 -152t70 -52l43 -11v-57h-682v57l57 15q74 20 74 82q0 37 -39 149l-51 146
h-408l-49 -148q-31 -96 -31 -138q0 -43 20 -61t69 -30l57 -15v-57h-428z" />
    <glyph glyph-name="Aacute" unicode="&#xc1;" horiz-adv-x="1411" 
d="M848 1837q52 0 85 -38q32 -38 32 -85q0 -92 -95 -115l-376 -90l-17 37l268 242q51 49 103 49zM553 1038l-168 -499h348l-170 499h-10zM-6 0v57l51 15q47 14 72 49t67 158l412 1140h205l424 -1147q41 -114 67 -152t70 -52l43 -11v-57h-682v57l57 15q74 20 74 82
q0 37 -39 149l-51 146h-408l-49 -148q-31 -96 -31 -138q0 -43 20 -61t69 -30l57 -15v-57h-428z" />
    <glyph glyph-name="Acircumflex" unicode="&#xc2;" horiz-adv-x="1411" 
d="M553 1038l-168 -499h348l-170 499h-10zM-6 0v57l51 15q47 14 72 49t67 158l412 1140h205l424 -1147q41 -114 67 -152t70 -52l43 -11v-57h-682v57l57 15q74 20 74 82q0 37 -39 149l-51 146h-408l-49 -148q-31 -96 -31 -138q0 -43 20 -61t69 -30l57 -15v-57h-428zM414 1497
l-23 35l250 293h104l252 -293l-22 -35l-281 121z" />
    <glyph glyph-name="Atilde" unicode="&#xc3;" horiz-adv-x="1411" 
d="M880 1726q48 0 101 84l53 -28q-25 -61 -49 -122t-47 -81q-52 -47 -100 -47q-49 0 -161 24t-150 25q-38 -1 -60 -19t-51 -65l-54 29q82 203 139 234q27 16 67 16t152 -25t160 -25zM553 1038l-168 -499h348l-170 499h-10zM-6 0v57l51 15q47 14 72 49t67 158l412 1140h205
l424 -1147q41 -114 67 -152t70 -52l43 -11v-57h-682v57l57 15q74 20 74 82q0 37 -39 149l-51 146h-408l-49 -148q-31 -96 -31 -138q0 -43 20 -61t69 -30l57 -15v-57h-428z" />
    <glyph glyph-name="Adieresis" unicode="&#xc4;" horiz-adv-x="1411" 
d="M553 1038l-168 -499h348l-170 499h-10zM-6 0v57l51 15q47 14 72 49t67 158l412 1140h205l424 -1147q41 -114 67 -152t70 -52l43 -11v-57h-682v57l57 15q74 20 74 82q0 37 -39 149l-51 146h-408l-49 -148q-31 -96 -31 -138q0 -43 20 -61t69 -30l57 -15v-57h-428zM901 1507
q-68 0 -114 43t-46 111t46 111t114 43t113 -43t45 -111t-45 -111t-113 -43zM480 1507q-66 0 -112 44t-46 110q0 65 46 109t112 44t113 -42q46 -43 46 -111t-46 -111t-113 -43z" />
    <glyph glyph-name="Aring" unicode="&#xc5;" horiz-adv-x="1411" 
d="M690 1548q49 0 80 34t31 86t-31 86t-79 34t-80 -35q-31 -35 -31 -86t30 -85t80 -34zM895 1669q-1 -84 -59 -138t-148 -54t-146 54t-56 137t58 137q58 55 146 55t146 -54t59 -137zM553 1038l-168 -499h348l-170 499h-10zM-6 0v57l51 15q47 14 72 49t67 158l412 1140h205
l424 -1147q41 -114 67 -152t70 -52l43 -11v-57h-682v57l57 15q74 20 74 82q0 37 -39 149l-51 146h-408l-49 -148q-31 -96 -31 -138q0 -43 20 -61t69 -30l57 -15v-57h-428z" />
    <glyph glyph-name="AE" unicode="&#xc6;" horiz-adv-x="1906" 
d="M864 514v676h-6l-371 -676h377zM-8 0v57l49 15q53 14 88 50t102 157l594 1036q-20 16 -80 33l-73 14v57h1128l21 -413h-62q-55 129 -112 219q-47 68 -93 86t-156 18q-108 0 -181 -18v-531h43q104 0 143 14t57 48q37 59 64 157h61v-534h-61q-30 97 -56 151t-62 65t-149 11
h-40v-397q-1 -141 29 -173t159 -32t174 23t95 97t130 277h66l-31 -487h-1128v57l67 15q35 10 50 19q36 22 36 130v207h-424l-67 -125q-66 -115 -66 -164q-2 -47 68 -67l55 -15v-57h-438z" />
    <glyph glyph-name="Ccedilla" unicode="&#xc7;" horiz-adv-x="1275" 
d="M655 -266q0 53 -102 59l-10 17l86 174q-264 35 -419 217t-155 497q0 373 212 559t534 187q221 0 389 -47l22 -424h-63q-76 164 -164 289q-41 52 -87 74t-120 22q-178 0 -254 -142t-76 -504q0 -360 78 -505q76 -145 252 -146q86 0 137 26q118 60 252 382h60l-23 -410
q-197 -84 -448 -84q-33 0 -49 2l-50 -71q85 -8 133 -43t48 -86q-1 -168 -357 -197v45q174 37 174 109z" />
    <glyph glyph-name="Egrave" unicode="&#xc8;" horiz-adv-x="1265" 
d="M387 1714q0 47 32 85t83 38t104 -49l268 -242l-16 -37l-375 90q-96 23 -96 115zM35 0v57l69 15q35 10 50 19q30 19 30 130v977q0 88 -15 113t-65 37l-69 14v57h1124l21 -413h-64q-120 273 -211 306q-47 17 -159 17t-189 -20v-529h55q104 0 144 14t59 48q39 70 64 157h61
v-534h-61q-25 86 -64 166q-18 39 -54 50t-149 11h-55v-397q0 -141 30 -173t164 -32t181 23t98 99t133 275h66l-29 -487h-1165z" />
    <glyph glyph-name="Eacute" unicode="&#xc9;" horiz-adv-x="1265" 
d="M35 0v57l69 15q35 10 50 19q30 19 30 130v977q0 88 -15 113t-65 37l-69 14v57h1124l21 -413h-64q-120 273 -211 306q-47 17 -159 17t-189 -20v-529h55q104 0 144 14t59 48q39 70 64 157h61v-534h-61q-25 86 -64 166q-18 39 -54 50t-149 11h-55v-397q0 -141 30 -173
t164 -32t181 23t98 99t133 275h66l-29 -487h-1165zM821 1837q51 0 83 -38t32 -85q0 -92 -94 -115l-377 -90l-16 37l268 242q53 49 104 49z" />
    <glyph glyph-name="Ecircumflex" unicode="&#xca;" horiz-adv-x="1265" 
d="M35 0v57l69 15q35 10 50 19q30 19 30 130v977q0 88 -15 113t-65 37l-69 14v57h1124l21 -413h-64q-120 273 -211 306q-47 17 -159 17t-189 -20v-529h55q104 0 144 14t59 48q39 70 64 157h61v-534h-61q-25 86 -64 166q-18 39 -54 50t-149 11h-55v-397q0 -141 30 -173
t164 -32t181 23t98 99t133 275h66l-29 -487h-1165zM387 1497l-22 35l249 293h105l252 -293l-23 -35l-280 121z" />
    <glyph glyph-name="Edieresis" unicode="&#xcb;" horiz-adv-x="1265" 
d="M35 0v57l69 15q35 10 50 19q30 19 30 130v977q0 88 -15 113t-65 37l-69 14v57h1124l21 -413h-64q-120 273 -211 306q-47 17 -159 17t-189 -20v-529h55q104 0 144 14t59 48q39 70 64 157h61v-534h-61q-25 86 -64 166q-18 39 -54 50t-149 11h-55v-397q0 -141 30 -173
t164 -32t181 23t98 99t133 275h66l-29 -487h-1165zM862 1507q-68 0 -114 43t-46 111t46 111t114 43t113 -43t45 -111t-45 -111t-113 -43zM441 1507q-67 0 -113 44t-45 110q0 65 46 109q47 44 113 44t112 -42q46 -43 46 -111t-46 -111t-113 -43z" />
    <glyph glyph-name="Igrave" unicode="&#xcc;" horiz-adv-x="753" 
d="M222 1837q52 0 104 -49l268 -242l-16 -37l-375 90q-96 23 -97 115q0 47 32 85t84 38zM35 0v57l76 15q51 12 65 36t14 113v977q0 90 -14 114t-65 36l-76 14v57h686v-57l-76 -14q-51 -12 -66 -36t-16 -114v-977q-1 -89 15 -113t67 -36l76 -15v-57h-686z" />
    <glyph glyph-name="Iacute" unicode="&#xcd;" horiz-adv-x="753" 
d="M530 1837q52 0 84 -38t31 -85q0 -92 -94 -115l-377 -90l-16 37l268 242q52 49 104 49zM35 0v57l76 15q51 12 65 36t14 113v977q0 90 -14 114t-65 36l-76 14v57h686v-57l-76 -14q-51 -12 -66 -36t-16 -114v-977q-1 -89 15 -113t67 -36l76 -15v-57h-686z" />
    <glyph glyph-name="Icircumflex" unicode="&#xce;" horiz-adv-x="753" 
d="M98 1497l-22 35l250 293h104l252 -293l-23 -35l-280 121zM35 0v57l76 15q51 12 65 36t14 113v977q0 90 -14 114t-65 36l-76 14v57h686v-57l-76 -14q-51 -12 -66 -36t-16 -114v-977q-1 -89 15 -113t67 -36l76 -15v-57h-686z" />
    <glyph glyph-name="Idieresis" unicode="&#xcf;" horiz-adv-x="753" 
d="M590 1507q-68 0 -114 43t-46 111t46 111t114 43t112 -43t46 -111q0 -68 -45 -111t-113 -43zM169 1507q-67 0 -113 44t-46 110q0 65 46 109t113 44t113 -42q46 -43 46 -111t-46 -111t-113 -43zM35 0v57l76 15q51 12 65 36t14 113v977q0 90 -14 114t-65 36l-76 14v57h686
v-57l-76 -14q-51 -12 -66 -36t-16 -114v-977q-1 -89 15 -113t67 -36l76 -15v-57h-686z" />
    <glyph glyph-name="Eth" unicode="&#xd0;" horiz-adv-x="1495" 
d="M698 90q186 0 270 146t83 474q0 330 -85 474t-272 145q-100 0 -137 -18v-555h270v-86h-270v-394q1 -118 27 -152t114 -34zM55 670v86h129v442q0 88 -15 113t-65 37l-69 14v57h694q336 0 523 -168q188 -168 188 -516q0 -347 -194 -541t-527 -194h-684v57l69 15
q35 10 50 19q30 19 30 130v449h-129z" />
    <glyph glyph-name="Ntilde" unicode="&#xd1;" horiz-adv-x="1429" 
d="M946 1726q49 0 101 84l53 -28q-25 -61 -49 -121t-47 -81q-53 -48 -101 -48q-49 0 -161 24t-150 25q-38 0 -60 -18q-22 -19 -51 -66l-53 29q51 127 81 173t57 61q28 16 68 16t152 -25t160 -25zM291 1180v-928q0 -112 16 -140t80 -40l74 -15v-57h-426v57l61 15q53 12 71 40
q17 28 17 130v956q0 88 -15 113t-65 37l-69 14v57h538l562 -827h8v575q1 113 -15 140t-81 41l-78 14v57h430v-57l-62 -14q-53 -12 -70 -40t-18 -130v-1180h-145l-805 1182h-8z" />
    <glyph glyph-name="Ograve" unicode="&#xd2;" horiz-adv-x="1490" 
d="M600 1837q51 0 105 -49l268 -242l-17 -37l-374 90q-96 23 -97 115q0 47 32 85t83 38zM744 61q164 1 234 135t71 490q0 356 -70 514t-232 158q-161 0 -233 -136t-72 -492t69 -513q69 -156 233 -156zM282 1272q207 172 479 172q273 0 467 -168q97 -84 153 -225
q57 -141 57 -331t-62 -340t-167 -235q-204 -170 -476 -170t-470 173q-97 86 -153 226t-56 326t62 336t166 236z" />
    <glyph glyph-name="Oacute" unicode="&#xd3;" horiz-adv-x="1490" 
d="M744 61q164 1 234 135t71 490q0 356 -70 514t-232 158q-161 0 -233 -136t-72 -492t69 -513q69 -156 233 -156zM282 1272q207 172 479 172q273 0 467 -168q97 -84 153 -225q57 -141 57 -331t-62 -340t-167 -235q-204 -170 -476 -170t-470 173q-97 86 -153 226t-56 326
t62 336t166 236zM900 1837q52 0 84 -38t32 -85q0 -92 -94 -115l-377 -90l-17 37l269 242q51 49 103 49z" />
    <glyph glyph-name="Ocircumflex" unicode="&#xd4;" horiz-adv-x="1490" 
d="M744 61q164 1 234 135t71 490q0 356 -70 514t-232 158q-161 0 -233 -136t-72 -492t69 -513q69 -156 233 -156zM282 1272q207 172 479 172q273 0 467 -168q97 -84 153 -225q57 -141 57 -331t-62 -340t-167 -235q-204 -170 -476 -170t-470 173q-97 86 -153 226t-56 326
t62 336t166 236zM465 1497l-23 35l250 293h105l252 -293l-23 -35l-281 121z" />
    <glyph glyph-name="Otilde" unicode="&#xd5;" horiz-adv-x="1490" 
d="M928 1726q49 0 100 84l53 -28q-25 -61 -48 -120t-46 -81q-54 -49 -102 -49q-49 0 -161 24t-150 25q-38 -1 -60 -19t-51 -65l-53 29q51 127 81 173t57 61q28 16 68 16t151 -25q112 -25 161 -25zM744 61q164 1 234 135t71 490q0 356 -70 514t-232 158q-161 0 -233 -136
t-72 -492t69 -513q69 -156 233 -156zM282 1272q207 172 479 172q273 0 467 -168q97 -84 153 -225q57 -141 57 -331t-62 -340t-167 -235q-204 -170 -476 -170t-470 173q-97 86 -153 226t-56 326t62 336t166 236z" />
    <glyph glyph-name="Odieresis" unicode="&#xd6;" horiz-adv-x="1490" 
d="M744 61q164 1 234 135t71 490q0 356 -70 514t-232 158q-161 0 -233 -136t-72 -492t69 -513q69 -156 233 -156zM282 1272q207 172 479 172q273 0 467 -168q97 -84 153 -225q57 -141 57 -331t-62 -340t-167 -235q-204 -170 -476 -170t-470 173q-97 86 -153 226t-56 326
t62 336t166 236zM952 1507q-68 0 -114 43t-45 111q0 68 46 111q45 43 113 43t113 -43t45 -111t-45 -111t-113 -43zM531 1507q-67 0 -113 44t-45 110q0 65 46 109q47 44 113 44t112 -42q46 -43 46 -111t-46 -111t-113 -43z" />
    <glyph glyph-name="multiply" unicode="&#xd7;" horiz-adv-x="901" 
d="M168 303l-88 84l291 307l-281 299l86 82l277 -295l278 295l86 -82l-280 -299l290 -307l-86 -84l-288 303z" />
    <glyph glyph-name="Oslash" unicode="&#xd8;" horiz-adv-x="1490" 
d="M750 61q106 -1 170 53q132 111 131 566q0 233 -27 373l-528 -811q68 -181 254 -181zM440 738q0 -234 25 -378l530 811q-37 99 -98 143t-161 44t-163 -54q-133 -114 -133 -566zM53 692q1 194 63 344t166 236q207 172 472 172q201 0 360 -90l92 141h107l-125 -190
q250 -195 250 -580q0 -195 -62 -345t-166 -235q-205 -170 -473 -170q-201 0 -356 91l-129 -197h-107l160 246q-252 195 -252 577z" />
    <glyph glyph-name="Ugrave" unicode="&#xd9;" horiz-adv-x="1439" 
d="M516 1714q0 47 32 85t84 38t103 -49l269 -242l-17 -37l-375 90q-96 23 -96 115zM764 -25q-592 0 -592 480v743q0 88 -15 113t-67 37l-70 14v57h672v-57l-67 -14q-51 -12 -65 -36t-15 -114v-784q1 -160 73 -233t244 -72q303 0 303 333v725q0 111 -16 139t-82 42l-80 14v57
h432v-57l-63 -14q-52 -12 -68 -40t-16 -130v-750q0 -201 -128 -327t-380 -126z" />
    <glyph glyph-name="Uacute" unicode="&#xda;" horiz-adv-x="1439" 
d="M764 -25q-592 0 -592 480v743q0 88 -15 113t-67 37l-70 14v57h672v-57l-67 -14q-51 -12 -65 -36t-15 -114v-784q1 -160 73 -233t244 -72q303 0 303 333v725q0 111 -16 139t-82 42l-80 14v57h432v-57l-63 -14q-52 -12 -68 -40t-16 -130v-750q0 -201 -128 -327t-380 -126z
M982 1837q52 0 84 -38t32 -85q0 -92 -94 -115l-377 -90l-17 37l269 242q51 49 103 49z" />
    <glyph glyph-name="Ucircumflex" unicode="&#xdb;" horiz-adv-x="1439" 
d="M764 -25q-592 0 -592 480v743q0 88 -15 113t-67 37l-70 14v57h672v-57l-67 -14q-51 -12 -65 -36t-15 -114v-784q1 -160 73 -233t244 -72q303 0 303 333v725q0 111 -16 139t-82 42l-80 14v57h432v-57l-63 -14q-52 -12 -68 -40t-16 -130v-750q0 -201 -128 -327t-380 -126z
M535 1497l-23 35l250 293h104l252 -293l-22 -35l-281 121z" />
    <glyph glyph-name="Udieresis" unicode="&#xdc;" horiz-adv-x="1439" 
d="M764 -25q-592 0 -592 480v743q0 88 -15 113t-67 37l-70 14v57h672v-57l-67 -14q-51 -12 -65 -36t-15 -114v-784q1 -160 73 -233t244 -72q303 0 303 333v725q0 111 -16 139t-82 42l-80 14v57h432v-57l-63 -14q-52 -12 -68 -40t-16 -130v-750q0 -201 -128 -327t-380 -126z
M1014 1507q-68 0 -114 43t-46 111t46 111t114 43t112 -43t45 -111q-1 -68 -45 -111t-112 -43zM593 1507q-67 0 -113 44t-46 110q0 65 46 109t113 44t113 -42q46 -43 46 -111t-46 -111t-113 -43z" />
    <glyph glyph-name="Yacute" unicode="&#xdd;" horiz-adv-x="1327" 
d="M895 1837q51 0 83 -38t32 -85q0 -92 -95 -115l-376 -90l-17 37l269 242q53 49 104 49zM340 0v57l76 15q57 12 70 34t14 115v363l-320 590q-51 98 -79 130t-68 46l-41 12v57h700v-57l-59 -12q-78 -20 -78 -84q0 -37 37 -117l215 -438h10l189 424q35 72 34 129q0 63 -84 84
l-55 14v57h434v-57l-43 -12q-43 -14 -77 -58t-80 -141l-263 -555v-375q0 -92 14 -115t72 -34l76 -15v-57h-694z" />
    <glyph glyph-name="Thorn" unicode="&#xde;" horiz-adv-x="1318" 
d="M35 0v57l69 15q49 12 65 37q15 25 15 112v977q0 88 -15 113t-65 37l-69 14v57h678v-57l-76 -14q-51 -12 -65 -36t-15 -114v-61h150q573 0 573 -402q0 -184 -133 -303t-375 -119q-100 0 -156 23v59q158 -4 223 66t65 259t-53 261q-52 72 -165 72q-74 0 -129 -17v-815
q0 -89 15 -111t69 -34l104 -19v-57h-710z" />
    <glyph glyph-name="germandbls" unicode="&#xdf;" horiz-adv-x="1353" 
d="M915 -20q-319 0 -319 176q0 55 33 88q33 32 95 32t92 -34q28 -34 34 -92t22 -73t72 -15t96 33q39 34 39 94q0 61 -45 107t-176 131t-176 146t-45 126t35 137t78 130t77 139q35 81 35 152q0 221 -182 222q-203 0 -203 -275v-1030q0 -68 7 -85t38 -23l41 -11v-55h-540v55
l53 15q51 14 63 32t13 84v756h-144v51l144 72v27q0 227 154 347q155 120 377 120t339 -77t117 -192q0 -78 -50 -148q-51 -70 -111 -109q-162 -107 -161 -156q0 -31 41 -61q42 -30 192 -120t210 -172t61 -190q0 -160 -111 -257t-295 -97z" />
    <glyph glyph-name="agrave" unicode="&#xe0;" horiz-adv-x="1089" 
d="M281 1386q0 47 31 85q32 38 83 38t105 -49l268 -241l-16 -37l-375 90q-96 23 -96 114zM496 121q84 0 114 59v328l-94 -8q-82 -6 -121 -51t-39 -152q1 -176 140 -176zM342 -25q-145 0 -226 71t-81 200q0 130 91 200t277 115l207 51v179q0 127 -30 174q-31 47 -115 47
q-47 0 -65 -16t-24 -86q-11 -153 -157 -152q-67 0 -103 34t-36 93q0 98 120 152t332 55q406 0 406 -281v-567q0 -59 9 -86q18 -53 134 -62v-49q-90 -72 -239 -72q-178 0 -213 125h-11q-98 -125 -276 -125z" />
    <glyph glyph-name="aacute" unicode="&#xe1;" horiz-adv-x="1089" 
d="M687 1509q52 0 84 -38t32 -85q0 -92 -94 -114l-377 -90l-17 37l269 241q51 49 103 49zM496 121q84 0 114 59v328l-94 -8q-82 -6 -121 -51t-39 -152q1 -176 140 -176zM342 -25q-145 0 -226 71t-81 200q0 130 91 200t277 115l207 51v179q0 127 -30 174q-31 47 -115 47
q-47 0 -65 -16t-24 -86q-11 -153 -157 -152q-67 0 -103 34t-36 93q0 98 120 152t332 55q406 0 406 -281v-567q0 -59 9 -86q18 -53 134 -62v-49q-90 -72 -239 -72q-178 0 -213 125h-11q-98 -125 -276 -125z" />
    <glyph glyph-name="acircumflex" unicode="&#xe2;" horiz-adv-x="1089" 
d="M250 1169l-23 35l250 293h105l252 -293l-23 -35l-281 121zM496 121q84 0 114 59v328l-94 -8q-82 -6 -121 -51t-39 -152q1 -176 140 -176zM342 -25q-145 0 -226 71t-81 200q0 130 91 200t277 115l207 51v179q0 127 -30 174q-31 47 -115 47q-47 0 -65 -16t-24 -86
q-11 -153 -157 -152q-67 0 -103 34t-36 93q0 98 120 152t332 55q406 0 406 -281v-567q0 -59 9 -86q18 -53 134 -62v-49q-90 -72 -239 -72q-178 0 -213 125h-11q-98 -125 -276 -125z" />
    <glyph glyph-name="atilde" unicode="&#xe3;" horiz-adv-x="1089" 
d="M404 1448q40 0 152 -25t161 -25t100 85l53 -29q-25 -61 -47 -119t-60 -94t-88 -36q-50 -1 -162 24t-150 25t-60 -20q-22 -18 -51 -65l-53 29q52 130 82 175q29 44 56 60q27 15 67 15zM496 121q84 0 114 59v328l-94 -8q-82 -6 -121 -51t-39 -152q1 -176 140 -176zM342 -25
q-145 0 -226 71t-81 200q0 130 91 200t277 115l207 51v179q0 127 -30 174q-31 47 -115 47q-47 0 -65 -16t-24 -86q-11 -153 -157 -152q-67 0 -103 34t-36 93q0 98 120 152t332 55q406 0 406 -281v-567q0 -59 9 -86q18 -53 134 -62v-49q-90 -72 -239 -72q-178 0 -213 125h-11
q-98 -125 -276 -125z" />
    <glyph glyph-name="adieresis" unicode="&#xe4;" horiz-adv-x="1089" 
d="M735 1180q-67 0 -113 43t-46 111t46 110q46 43 114 43t112 -43q45 -43 45 -111q0 -69 -45 -111t-113 -42zM473 1333q0 -69 -46 -111t-113 -42q-66 0 -112 44t-46 110t46 109q46 44 112 44t113 -43q46 -43 46 -111zM496 121q84 0 114 59v328l-94 -8q-82 -6 -121 -51
t-39 -152q1 -176 140 -176zM342 -25q-145 0 -226 71t-81 200q0 130 91 200t277 115l207 51v179q0 127 -30 174q-31 47 -115 47q-47 0 -65 -16t-24 -86q-11 -153 -157 -152q-67 0 -103 34t-36 93q0 98 120 152t332 55q406 0 406 -281v-567q0 -59 9 -86q18 -53 134 -62v-49
q-90 -72 -239 -72q-178 0 -213 125h-11q-98 -125 -276 -125z" />
    <glyph glyph-name="aring" unicode="&#xe5;" horiz-adv-x="1089" 
d="M518 1235q49 0 80 34t31 86t-31 86t-79 34t-80 -35q-31 -35 -31 -86t30 -85t80 -34zM518 1546q88 0 146 -53t59 -137q-1 -84 -59 -138t-148 -55q-90 1 -146 55t-56 137t58 137t146 54zM496 121q84 0 114 59v328l-94 -8q-82 -6 -121 -51t-39 -152q1 -176 140 -176z
M342 -25q-145 0 -226 71t-81 200q0 130 91 200t277 115l207 51v179q0 127 -30 174q-31 47 -115 47q-47 0 -65 -16t-24 -86q-11 -153 -157 -152q-67 0 -103 34t-36 93q0 98 120 152t332 55q406 0 406 -281v-567q0 -59 9 -86q18 -53 134 -62v-49q-90 -72 -239 -72
q-178 0 -213 125h-11q-98 -125 -276 -125z" />
    <glyph glyph-name="ae" unicode="&#xe6;" horiz-adv-x="1609" 
d="M496 121q102 0 157 127q-45 111 -47 256l-90 -8q-82 -6 -121 -52t-39 -149q1 -174 140 -174zM1108 1014q-186 0 -193 -377l342 20q0 195 -31 276q-32 81 -118 81zM1122 -25q-276 0 -405 164q-137 -164 -365 -164q-154 0 -236 69t-81 199q0 129 90 199t278 115l203 51v183
q0 123 -29 172q-30 49 -114 49q-45 0 -63 -16t-25 -86q-13 -153 -155 -152q-142 0 -142 131q0 94 118 148q118 55 326 55t297 -129q129 129 325 129t312 -129q117 -129 117 -402h-658q7 -227 95 -318t238 -91t294 77v-67q-68 -74 -176 -130t-244 -57z" />
    <glyph glyph-name="ccedilla" unicode="&#xe7;" horiz-adv-x="1015" 
d="M496 -266q0 53 -103 59l-10 17l84 172q-205 25 -317 169t-111 377q0 154 55 268q56 114 150 176q183 120 418 120q154 0 240 -50t85 -141q0 -63 -40 -103t-105 -40q-133 0 -148 160q-8 57 -23 73t-67 17q-238 0 -237 -392q-1 -231 75 -348q76 -116 235 -116t306 75v-65
q-57 -70 -169 -128t-261 -59h-8l-47 -69q86 -8 133 -43t47 -86q0 -168 -356 -197v45q174 37 174 109z" />
    <glyph glyph-name="egrave" unicode="&#xe8;" horiz-adv-x="1077" 
d="M424 1509q51 0 104 -49l269 -241l-17 -37l-374 90q-96 23 -97 114q0 47 32 85t83 38zM557 1014q-182 0 -195 -357l351 19q0 190 -33 264t-123 74zM573 -25q-262 -1 -398 147t-136 408t159 412q159 150 375 150q457 0 465 -512h-676q4 -240 90 -334t247 -94q162 0 309 77
v-67q-66 -74 -180 -130t-255 -57z" />
    <glyph glyph-name="eacute" unicode="&#xe9;" horiz-adv-x="1077" 
d="M557 1014q-182 0 -195 -357l351 19q0 190 -33 264t-123 74zM573 -25q-262 -1 -398 147t-136 408t159 412q159 150 375 150q457 0 465 -512h-676q4 -240 90 -334t247 -94q162 0 309 77v-67q-66 -74 -180 -130t-255 -57zM712 1509q52 0 84 -38t31 -85q0 -92 -94 -114
l-377 -90l-16 37l268 241q52 49 104 49z" />
    <glyph glyph-name="ecircumflex" unicode="&#xea;" horiz-adv-x="1077" 
d="M557 1014q-182 0 -195 -357l351 19q0 190 -33 264t-123 74zM573 -25q-262 -1 -398 147t-136 408t159 412q159 150 375 150q457 0 465 -512h-676q4 -240 90 -334t247 -94q162 0 309 77v-67q-66 -74 -180 -130t-255 -57zM287 1169l-23 35l250 293h104l252 -293l-22 -35
l-281 121z" />
    <glyph glyph-name="edieresis" unicode="&#xeb;" horiz-adv-x="1077" 
d="M557 1014q-182 0 -195 -357l351 19q0 190 -33 264t-123 74zM573 -25q-262 -1 -398 147t-136 408t159 412q159 150 375 150q457 0 465 -512h-676q4 -240 90 -334t247 -94q162 0 309 77v-67q-66 -74 -180 -130t-255 -57zM778 1180q-68 0 -114 43t-46 111t46 110
q46 43 114 43t113 -43t45 -111q0 -69 -45 -111t-113 -42zM516 1333q0 -69 -46 -111t-113 -42t-113 44t-45 110q0 66 46 109q47 44 113 44t112 -43t46 -111z" />
    <glyph glyph-name="igrave" unicode="&#xec;" horiz-adv-x="624" 
d="M43 1386q0 47 32 85t83 38t104 -49l268 -241l-16 -37l-375 90q-96 23 -96 114zM23 0v59l53 13q47 12 61 28t15 68v670q0 53 -12 71t-56 49l-68 43v41l449 50l20 -17q-8 -176 -8 -233v-674q0 -52 13 -68t63 -28l53 -13v-59h-583z" />
    <glyph glyph-name="iacute" unicode="&#xed;" horiz-adv-x="624" 
d="M23 0v59l53 13q47 12 61 28t15 68v670q0 53 -12 71t-56 49l-68 43v41l449 50l20 -17q-8 -176 -8 -233v-674q0 -52 13 -68t63 -28l53 -13v-59h-583zM450 1509q52 0 84 -38t31 -85q0 -92 -94 -114l-377 -90l-16 37l268 241q52 49 104 49z" />
    <glyph glyph-name="icircumflex" unicode="&#xee;" horiz-adv-x="624" 
d="M23 0v59l53 13q47 12 61 28t15 68v670q0 53 -12 71t-56 49l-68 43v41l449 50l20 -17q-8 -176 -8 -233v-674q0 -52 13 -68t63 -28l53 -13v-59h-583zM31 1169l-23 35l250 293h104l252 -293l-22 -35l-281 121z" />
    <glyph glyph-name="idieresis" unicode="&#xef;" horiz-adv-x="624" 
d="M23 0v59l53 13q47 12 61 28t15 68v670q0 53 -12 71t-56 49l-68 43v41l449 50l20 -17q-8 -176 -8 -233v-674q0 -52 13 -68t63 -28l53 -13v-59h-583zM526 1180q-68 0 -114 43t-45 111q0 68 46 110q45 43 113 43t113 -43t45 -111q0 -69 -45 -111t-113 -42zM264 1333
q0 -69 -46 -111t-113 -42t-113 44t-45 110q0 66 46 109q47 44 113 44t112 -43t46 -111z" />
    <glyph glyph-name="eth" unicode="&#xf0;" horiz-adv-x="1191" 
d="M383 557q1 -383 95 -465q42 -37 106 -37q64 1 99 17q124 60 124 397q0 416 -99 492q-44 33 -120 32q-104 0 -154 -95t-51 -341zM1153 616q0 -176 -47 -305t-129 -199q-159 -136 -391 -137t-390 139t-157 408q0 141 49 252t129 173q165 128 348 128q119 0 185 -55
q-59 147 -172 266l-244 -112l-35 75l213 99q-102 88 -254 161l21 58q223 -59 385 -148l239 111l33 -76l-186 -88q403 -266 403 -750z" />
    <glyph glyph-name="ntilde" unicode="&#xf1;" horiz-adv-x="1284" 
d="M522 1448q40 0 151 -25q113 -25 161 -25t100 85l53 -29q-25 -61 -49 -121t-60 -93q-36 -34 -86 -35t-162 24t-150 25t-60 -20q-22 -18 -51 -65l-54 29q52 130 85 179q47 71 122 71zM23 0v55l53 15q51 14 63 32t13 84v637q0 63 -12 83t-56 50l-68 45v41l433 50l22 -15
l-4 -131h8q203 145 393 146q268 0 269 -275v-631q0 -68 12 -86t61 -30l54 -15v-55h-572v55l49 13q47 12 58 29q10 17 10 89v551q0 92 -34 128q-33 36 -107 36t-191 -27v-688q0 -72 10 -89t58 -29l49 -13v-55h-571z" />
    <glyph glyph-name="ograve" unicode="&#xf2;" horiz-adv-x="1189" 
d="M435 1509q52 0 104 -49l268 -241l-16 -37l-375 90q-96 23 -97 114q0 47 32 85t84 38zM600 55q104 -1 156 95t51 334q0 413 -99 493q-44 35 -120 35q-104 0 -154 -98t-51 -326q0 -409 93 -494q44 -39 124 -39zM590 -25q-234 -1 -392 143t-159 412q0 141 47 252
q47 110 127 176q163 134 391 134t388 -142t159 -414q0 -271 -163 -416q-164 -145 -398 -145z" />
    <glyph glyph-name="oacute" unicode="&#xf3;" horiz-adv-x="1189" 
d="M600 55q104 -1 156 95t51 334q0 413 -99 493q-44 35 -120 35q-104 0 -154 -98t-51 -326q0 -409 93 -494q44 -39 124 -39zM590 -25q-234 -1 -392 143t-159 412q0 141 47 252q47 110 127 176q163 134 391 134t388 -142t159 -414q0 -271 -163 -416q-164 -145 -398 -145z
M744 1509q52 0 84 -38t32 -85q0 -92 -94 -114l-377 -90l-16 37l268 241q51 49 103 49z" />
    <glyph glyph-name="ocircumflex" unicode="&#xf4;" horiz-adv-x="1189" 
d="M600 55q104 -1 156 95t51 334q0 413 -99 493q-44 35 -120 35q-104 0 -154 -98t-51 -326q0 -409 93 -494q44 -39 124 -39zM590 -25q-234 -1 -392 143t-159 412q0 141 47 252q47 110 127 176q163 134 391 134t388 -142t159 -414q0 -271 -163 -416q-164 -145 -398 -145z
M311 1169l-22 35l250 293h104l252 -293l-23 -35l-280 121z" />
    <glyph glyph-name="otilde" unicode="&#xf5;" horiz-adv-x="1189" 
d="M464 1448q40 0 152 -25t160 -25q49 0 101 85l53 -29q-25 -61 -49 -120t-60 -94q-37 -35 -87 -35q-50 -1 -162 24t-150 25t-60 -19t-51 -66l-53 29q52 130 82 175q29 44 56 60q28 15 68 15zM600 55q104 -1 156 95t51 334q0 413 -99 493q-44 35 -120 35q-104 0 -154 -98
t-51 -326q0 -409 93 -494q44 -39 124 -39zM590 -25q-234 -1 -392 143t-159 412q0 141 47 252q47 110 127 176q163 134 391 134t388 -142t159 -414q0 -271 -163 -416q-164 -145 -398 -145z" />
    <glyph glyph-name="odieresis" unicode="&#xf6;" horiz-adv-x="1189" 
d="M600 55q104 -1 156 95t51 334q0 413 -99 493q-44 35 -120 35q-104 0 -154 -98t-51 -326q0 -409 93 -494q44 -39 124 -39zM590 -25q-234 -1 -392 143t-159 412q0 141 47 252q47 110 127 176q163 134 391 134t388 -142t159 -414q0 -271 -163 -416q-164 -145 -398 -145z
M803 1180q-68 0 -114 43t-46 111t46 110q46 43 114 43q69 0 113 -43t44 -111q0 -69 -44 -111q-45 -42 -113 -42zM541 1333q0 -69 -46 -111t-113 -42t-113 44t-46 110t46 109q46 44 113 44t113 -43t46 -111z" />
    <glyph glyph-name="divide" unicode="&#xf7;" horiz-adv-x="970" 
d="M76 657v115h819v-115h-819zM336 1039q0 61 44 105t106 44t108 -44t45 -106t-47 -106q-46 -45 -107 -45t-105 45t-44 107zM336 394q0 62 44 106t106 43q62 0 108 -44q46 -43 45 -105t-47 -107t-107 -45t-105 45t-44 107z" />
    <glyph glyph-name="oslash" unicode="&#xf8;" horiz-adv-x="1189" 
d="M600 55q106 0 163 114q56 114 54 404q0 106 -10 195l-397 -588q26 -72 70 -98t120 -27zM588 1012q-221 0 -215 -504q0 -117 10 -213l399 586q-26 79 -72 105t-122 26zM39 530q0 141 47 252q47 110 127 176q163 134 381 134q156 0 287 -66l112 166h101l-142 -211
q199 -152 199 -434q0 -283 -163 -427t-394 -145q-154 0 -281 64l-114 -170h-103l144 213q-201 150 -201 448z" />
    <glyph glyph-name="ugrave" unicode="&#xf9;" horiz-adv-x="1277" 
d="M371 1386q0 47 31 85q32 38 83 38t105 -49l268 -241l-16 -37l-375 90q-96 23 -96 114zM416 -25q-125 0 -197 70t-72 203v586q0 63 -9 82t-54 47l-72 41v43l439 45l24 -19v-745q0 -88 34 -128q35 -40 105 -40t193 41v633q0 64 -10 84t-56 45l-69 41v43l436 45l25 -19v-827
q0 -76 10 -98t57 -39l60 -25v-49l-424 -60l-23 17l4 137h-10q-209 -154 -391 -154z" />
    <glyph glyph-name="uacute" unicode="&#xfa;" horiz-adv-x="1277" 
d="M416 -25q-125 0 -197 70t-72 203v586q0 63 -9 82t-54 47l-72 41v43l439 45l24 -19v-745q0 -88 34 -128q35 -40 105 -40t193 41v633q0 64 -10 84t-56 45l-69 41v43l436 45l25 -19v-827q0 -76 10 -98t57 -39l60 -25v-49l-424 -60l-23 17l4 137h-10q-209 -154 -391 -154z
M784 1509q51 0 83 -38t32 -85q0 -92 -94 -114l-377 -90l-16 37l268 241q53 49 104 49z" />
    <glyph glyph-name="ucircumflex" unicode="&#xfb;" horiz-adv-x="1277" 
d="M416 -25q-125 0 -197 70t-72 203v586q0 63 -9 82t-54 47l-72 41v43l439 45l24 -19v-745q0 -88 34 -128q35 -40 105 -40t193 41v633q0 64 -10 84t-56 45l-69 41v43l436 45l25 -19v-827q0 -76 10 -98t57 -39l60 -25v-49l-424 -60l-23 17l4 137h-10q-209 -154 -391 -154z
M348 1169l-22 35l249 293h105l252 -293l-23 -35l-280 121z" />
    <glyph glyph-name="udieresis" unicode="&#xfc;" horiz-adv-x="1277" 
d="M416 -25q-125 0 -197 70t-72 203v586q0 63 -9 82t-54 47l-72 41v43l439 45l24 -19v-745q0 -88 34 -128q35 -40 105 -40t193 41v633q0 64 -10 84t-56 45l-69 41v43l436 45l25 -19v-827q0 -76 10 -98t57 -39l60 -25v-49l-424 -60l-23 17l4 137h-10q-209 -154 -391 -154z
M831 1180q-67 0 -113 43t-46 111t46 110q46 43 114 43t112 -43q45 -43 45 -111q0 -69 -45 -111t-113 -42zM569 1333q1 -69 -45 -111t-113 -42t-113 44t-46 110t46 109q46 44 113 44t113 -43t45 -111z" />
    <glyph glyph-name="yacute" unicode="&#xfd;" horiz-adv-x="1142" 
d="M821 1509q51 0 83 -38t32 -85q0 -92 -94 -114l-377 -90l-16 37l268 241q53 49 104 49zM240 -426q-82 0 -142 42q-59 42 -59 104t35 94t94 32t90 -24t44 -72q13 -49 42 -49q35 0 72 47t88 166l22 53l-381 867q-45 98 -63 126t-53 37l-37 13v53h604v-53l-55 -15
q-63 -17 -63 -71t28 -123l180 -457h8l172 457q29 76 29 126t-66 68l-57 15v53h381v-53l-47 -17q-37 -12 -55 -42t-64 -138l-381 -917q-35 -82 -63 -134q-74 -130 -166 -166q-55 -22 -137 -22z" />
    <glyph glyph-name="thorn" unicode="&#xfe;" horiz-adv-x="1253" 
d="M623 57q129 1 188 97t59 336t-61 332q-61 91 -182 91q-66 0 -164 -36v-746q64 -74 160 -74zM6 -422v55l55 15q51 14 63 32t11 87v1517q0 76 -10 98t-53 41l-76 37v47l450 41l23 -16q-6 -96 -6 -240v-143l-6 -195h10q162 138 330 138t281 -110q58 -56 93 -158t35 -236
q0 -307 -160 -460t-432 -153q-78 0 -155 21q4 -53 4 -125v-104q0 -71 11 -89t58 -28l74 -17v-55h-600z" />
    <glyph glyph-name="ydieresis" unicode="&#xff;" horiz-adv-x="1142" 
d="M858 1180q-68 0 -114 43t-46 111t46 110q46 43 114 43t113 -43t45 -111q0 -69 -45 -111t-113 -42zM596 1333q0 -69 -46 -111t-113 -42t-113 44t-45 110q0 66 46 109q47 44 113 44t112 -43t46 -111zM240 -426q-82 0 -142 42q-59 42 -59 104t35 94t94 32t90 -24t44 -72
q13 -49 42 -49q35 0 72 47t88 166l22 53l-381 867q-45 98 -63 126t-53 37l-37 13v53h604v-53l-55 -15q-63 -17 -63 -71t28 -123l180 -457h8l172 457q29 76 29 126t-66 68l-57 15v53h381v-53l-47 -17q-37 -12 -55 -42t-64 -138l-381 -917q-35 -82 -63 -134
q-74 -130 -166 -166q-55 -22 -137 -22z" />
    <glyph glyph-name="dotlessi" unicode="&#x131;" horiz-adv-x="624" 
d="M23 0v59l53 13q47 12 61 28t15 68v670q0 53 -12 71t-56 49l-68 43v41l449 50l20 -17q-8 -176 -8 -233v-674q0 -52 13 -68t63 -28l53 -13v-59h-583z" />
    <glyph glyph-name="Lslash" unicode="&#x141;" horiz-adv-x="1222" 
d="M184 1198q0 88 -15 113t-65 37l-69 14v57h684v-57l-82 -16q-51 -12 -65 -35t-15 -113v-432l399 139v-96l-399 -139v-400q0 -120 27 -150q28 -30 150 -30t169 22q99 46 236 390h65l-33 -502h-1136v57l69 15q49 12 65 37q15 25 15 112v320l-170 -58v97l170 57v561z" />
    <glyph glyph-name="lslash" unicode="&#x142;" horiz-adv-x="632" 
d="M156 1284q0 74 -12 94t-56 45l-76 37v47l455 41l22 -16q-8 -102 -8 -240v-415l150 77v-100l-150 -78v-590q1 -68 13 -85t67 -31l53 -15v-55h-591v55l53 15q53 14 66 32t14 84v424l-148 -75v100l148 76v573z" />
    <glyph glyph-name="OE" unicode="&#x152;" horiz-adv-x="2048" 
d="M793 80q104 0 138 39t34 145v891q0 104 -37 144t-148 40q-188 0 -263 -133q-75 -132 -75 -488t75 -497t276 -141zM782 0q-308 0 -509 153q-103 79 -161 217t-59 324q0 358 212 542t532 183h1142l21 -413h-62q-119 272 -211 306q-46 17 -157 17t-193 -20v-529h58
q104 0 143 14t57 48q37 59 64 157h61v-534h-61q-23 86 -64 166q-18 39 -54 50t-148 11h-56v-397q0 -141 30 -173t165 -32t181 22t96 98t137 277h63l-29 -487h-1198z" />
    <glyph glyph-name="oe" unicode="&#x153;" horiz-adv-x="1828" 
d="M1311 1014q-180 0 -193 -357l346 19q0 190 -32 264q-33 74 -121 74zM598 55q68 0 109 33q92 74 92 442t-94 447q-43 35 -119 35q-102 0 -152 -98t-51 -374q0 -278 48 -382t167 -103zM582 -25q-229 -1 -386 143t-157 416t163 414q164 142 398 144q234 0 373 -172
q145 172 366 172q444 0 453 -512h-674q4 -240 88 -334t244 -94t311 77v-67q-67 -74 -181 -130t-255 -57q-248 0 -371 160q-143 -160 -372 -160z" />
    <glyph glyph-name="Scaron" unicode="&#x160;" horiz-adv-x="1081" 
d="M1032 453q0 -205 -144 -341t-402 -137q-258 0 -412 66l-25 395h66q88 -168 145 -248q58 -80 110 -104t154 -23t162 59q59 58 59 154t-63 159q-63 62 -259 138q-196 77 -280 181t-84 279q1 175 141 294t369 119t359 -49l20 -351h-63q-71 137 -129 207t-97 89
q-39 20 -131 20t-148 -50t-56 -142t53 -144q53 -53 256 -132t301 -182t98 -257zM483 1513l-252 295l23 33l281 -121l280 121l23 -33l-252 -295h-103z" />
    <glyph glyph-name="scaron" unicode="&#x161;" horiz-adv-x="884" 
d="M846 342q0 -166 -121 -266t-319 -101q-198 0 -343 43l-14 320h57q55 -106 125 -194t187 -87q76 0 123 38t47 108q0 69 -51 111t-195 96t-219 133q-74 77 -74 217t116 236t307 96t294 -39l12 -279h-55q-57 104 -117 171t-141 67q-82 0 -122 -36t-40 -97t42 -103
q41 -42 193 -98t230 -136t78 -200zM395 1186l-252 295l23 32l280 -120l281 120l23 -32l-252 -295h-103z" />
    <glyph glyph-name="Ydieresis" unicode="&#x178;" horiz-adv-x="1327" 
d="M954 1507q-68 0 -114 43t-45 111q0 68 46 111q45 43 113 43t113 -43t45 -111t-45 -111t-113 -43zM533 1507q-67 0 -113 44t-45 110q0 65 46 109q47 44 113 44t112 -42q46 -43 46 -111t-46 -111t-113 -43zM340 0v57l76 15q57 12 70 34t14 115v363l-320 590q-51 98 -79 130
t-68 46l-41 12v57h700v-57l-59 -12q-78 -20 -78 -84q0 -37 37 -117l215 -438h10l189 424q35 72 34 129q0 63 -84 84l-55 14v57h434v-57l-43 -12q-43 -14 -77 -58t-80 -141l-263 -555v-375q0 -92 14 -115t72 -34l76 -15v-57h-694z" />
    <glyph glyph-name="Zcaron" unicode="&#x17d;" horiz-adv-x="1185" 
d="M37 0v90l717 1239v6h-74q-209 0 -269 -15t-108 -79q-66 -94 -149 -276h-62l25 454h1040v-90l-715 -1233v-8h86q217 0 284 20t122 91q74 100 158 301h65l-33 -500h-1087zM582 1513l-252 295l22 33l281 -121l280 121l23 -33l-252 -295h-102z" />
    <glyph glyph-name="zcaron" unicode="&#x17e;" horiz-adv-x="1001" 
d="M25 0v88l583 881v8h-98q-113 0 -155 -11q-42 -12 -85 -58t-137 -208h-55l22 363h871v-82l-582 -887v-8h100q139 0 191 14t90 64q76 94 139 213h58l-33 -377h-909zM469 1186l-252 295l23 32l280 -120l281 120l22 -32l-252 -295h-102z" />
    <glyph glyph-name="florin" unicode="&#x192;" 
d="M111 729v96h172l20 136q70 483 512 483q127 0 201 -52t74 -137q0 -57 -35 -88t-95 -31t-94 38q-33 37 -42 103q-9 67 -17 77t-45 10t-64 -44t-45 -165l-49 -330h250v-96h-264l-92 -618q-39 -277 -152 -397t-313 -120q-133 0 -195 50t-61 111q0 124 127 124q59 0 86 -30
t35 -91t15 -72t23 -12q57 0 78 162l127 893h-157z" />
    <glyph glyph-name="circumflex" unicode="&#x2c6;" 
d="M231 1169l-22 35l250 293h104l252 -293l-22 -35l-281 121z" />
    <glyph glyph-name="caron" unicode="&#x2c7;" 
d="M461 1186l-252 295l22 32l281 -120l281 120l22 -32l-252 -295h-102z" />
    <glyph glyph-name="breve" unicode="&#x2d8;" 
d="M516 1178q-110 0 -182 85t-92 216l55 16q67 -123 219 -123t215 123l57 -16q-18 -131 -90 -216t-182 -85z" />
    <glyph glyph-name="dotaccent" unicode="&#x2d9;" horiz-adv-x="794" 
d="M391 1161q-72 0 -121 45t-49 113t49 113t121 45t121 -45t49 -113t-49 -113t-121 -45z" />
    <glyph glyph-name="ring" unicode="&#x2da;" 
d="M512 1241q49 0 80 34t31 86t-31 86t-79 34t-80 -35t-32 -86t31 -85t80 -34zM510 1169q-90 1 -146 55t-56 137t58 137t146 54t146 -53t58 -137t-58 -138t-148 -55z" />
    <glyph glyph-name="ogonek" unicode="&#x2db;" horiz-adv-x="831" 
d="M419 -416q-101 0 -161 42q-59 42 -59 117q1 75 73 141t187 116h71q-108 -125 -108 -218t92 -93q27 0 68 12v-55q-62 -62 -163 -62z" />
    <glyph glyph-name="tilde" unicode="&#x2dc;" 
d="M382 1448q40 0 152 -25t160 -25t101 85l53 -29q-25 -61 -49 -120t-60 -94q-37 -35 -87 -35q-50 -1 -162 24t-150 25t-60 -20q-22 -18 -51 -65l-53 29q52 130 82 175q29 44 56 60q28 15 68 15z" />
    <glyph glyph-name="hungarumlaut" unicode="&#x2dd;" 
d="M813 1546q49 0 90 -37t41 -87t-78 -99l-256 -149l-37 32l148 258q43 82 92 82zM466 1546q48 0 87 -35t39 -79q0 -72 -84 -119l-244 -139l-37 32l148 258q43 82 91 82z" />
    <glyph glyph-name="pi" unicode="&#x3c0;" horiz-adv-x="456" 
d="M243 1448q81 0 117 -58t-6 -151l-153 -332h-45l-62 338q-24 103 22 153t127 50z" />
    <glyph glyph-name="endash" unicode="&#x2013;" horiz-adv-x="796" 
d="M80 543v104h637v-104h-637z" />
    <glyph glyph-name="emdash" unicode="&#x2014;" horiz-adv-x="1277" 
d="M80 543v104h1116v-104h-1116z" />
    <glyph glyph-name="quoteleft" unicode="&#x2018;" horiz-adv-x="442" 
d="M227 928q-70 0 -122 50t-52 138q0 125 82 210t240 118l14 -45q-188 -86 -184 -219q23 18 67 18t80 -37q35 -37 35 -98t-45 -98t-115 -37z" />
    <glyph glyph-name="quoteright" unicode="&#x2019;" horiz-adv-x="442" 
d="M170 1174q-45 0 -79 36t-34 98t44 99t114 37t122 -50t52 -157q1 -107 -81 -191t-238 -118l-17 47q190 84 185 217q-23 -18 -68 -18z" />
    <glyph glyph-name="quotesinglbase" unicode="&#x201a;" horiz-adv-x="442" 
d="M170 23q-45 -1 -79 35t-34 98t44 99q44 38 114 38t122 -50t52 -158q1 -107 -81 -191t-238 -119l-17 47q190 84 185 219q-23 -18 -68 -18z" />
    <glyph glyph-name="quotedblleft" unicode="&#x201c;" horiz-adv-x="856" 
d="M641 928q-70 0 -122 50t-52 138q0 125 82 210t239 118l15 -45q-188 -86 -185 -219q23 18 68 18t80 -37t35 -98t-45 -98t-115 -37zM227 928q-70 0 -122 50t-52 138q0 125 82 210t240 118l14 -45q-188 -86 -184 -219q23 18 67 18t80 -37q35 -37 35 -98t-45 -98t-115 -37z
" />
    <glyph glyph-name="quotedblright" unicode="&#x201d;" horiz-adv-x="856" 
d="M584 1174q-44 0 -79 36q-34 36 -34 98t44 99t114 37t122 -50t52 -139q0 -125 -82 -209t-240 -118l-14 47q190 84 184 217q-23 -18 -67 -18zM170 1174q-45 0 -79 36t-34 98t44 99t114 37t122 -50t52 -157q1 -107 -81 -191t-238 -118l-17 47q190 84 185 217
q-23 -18 -68 -18z" />
    <glyph glyph-name="quotedblbase" unicode="&#x201e;" horiz-adv-x="856" 
d="M584 23q-44 -1 -79 35q-34 36 -34 98t44 99q44 38 114 38t122 -50t52 -141q0 -255 -322 -327l-14 47q190 84 184 219q-23 -18 -67 -18zM170 23q-45 -1 -79 35t-34 98t44 99q44 38 114 38t122 -50t52 -158q1 -107 -81 -191t-238 -119l-17 47q190 84 185 219
q-23 -18 -68 -18z" />
    <glyph glyph-name="dagger" unicode="&#x2020;" horiz-adv-x="849" 
d="M144 889q-46 0 -79 36q-32 36 -32 87t32 87t79 36q48 0 124 -44t121 -51q-6 52 -57 144t-51 136t42 81t99 37t99 -37t42 -81t-50 -135t-56 -145q47 6 124 50t123 45q46 0 78 -36q33 -36 33 -87t-33 -87t-79 -36q-47 0 -123 43t-123 49q8 -117 102 -240l-108 -878h-56
l-108 878q96 121 102 240q-45 -6 -122 -49t-123 -43z" />
    <glyph glyph-name="daggerdbl" unicode="&#x2021;" horiz-adv-x="849" 
d="M144 926q-46 0 -79 36q-32 36 -32 87t32 88t79 37q48 0 124 -46t121 -51q-4 45 -55 127t-51 125t40 76t99 33t99 -33t40 -76t-49 -125t-55 -127q47 6 124 51q77 46 123 46t78 -37q33 -37 33 -88t-33 -87t-79 -36q-47 0 -123 44t-123 50q16 -102 96 -154l-104 -227h-52
l-104 227q84 53 96 154q-45 -6 -122 -50t-123 -44zM422 -201q-57 0 -98 36t-41 79t51 122t55 124q-45 -6 -122 -51t-123 -45t-79 36q-32 37 -32 88t32 87t79 36q48 0 124 -44t121 -50q-12 100 -96 154l104 227h52l104 -227q-80 -51 -96 -154q47 6 124 50t123 44t78 -36
q33 -36 33 -87t-33 -88t-79 -37q-47 -1 -123 45t-123 52q6 -45 55 -124t49 -122t-41 -79t-98 -36z" />
    <glyph glyph-name="bullet" unicode="&#x2022;" horiz-adv-x="659" 
d="M327 410q-110 0 -189 80t-79 191t78 189t190 78q113 0 193 -78t80 -188t-82 -191t-191 -81z" />
    <glyph glyph-name="ellipsis" unicode="&#x2026;" horiz-adv-x="1390" 
d="M1155 -14q-70 0 -119 50t-49 121t49 119t119 48t121 -48t51 -120q0 -70 -51 -120t-121 -50zM693 -14q-69 0 -119 50t-50 121t49 119t120 48t122 -48t51 -118t-52 -121t-121 -51zM232 -14q-68 0 -118 50t-50 121t48 119q50 48 120 48t122 -48t52 -118t-52 -121t-122 -51z
" />
    <glyph glyph-name="perthousand" unicode="&#x2030;" horiz-adv-x="2410" 
d="M176 -102l1077 1564h127l-1079 -1564h-125zM1989 43q71 0 99 61q28 60 28 236t-29 240t-97 63q-68 0 -98 -60q-30 -59 -30 -235t28 -240t99 -65zM1991 713q145 -1 257 -97t112 -272t-117 -274q-115 -98 -263 -97t-256 95t-106 266q0 96 37 172q64 132 214 184
q62 23 122 23zM1178 43q72 0 98 60q26 61 27 237q0 176 -29 240q-28 64 -96 63q-68 0 -98 -59q-30 -58 -30 -236t28 -242q28 -63 100 -63zM1168 -27q-148 1 -256 95t-108 272t121 275q120 97 259 97t251 -96q111 -96 111 -272t-115 -274t-263 -97zM297 1078q1 -176 27 -240
t99 -64t99 60t27 236q0 175 -29 240q-28 64 -96 64t-98 -60t-29 -236zM414 705q-148 0 -256 93t-107 267q-1 127 63 216q115 161 310 161q145 0 257 -96t112 -272t-115 -272q-116 -97 -264 -97z" />
    <glyph glyph-name="guilsinglleft" unicode="&#x2039;" horiz-adv-x="557" 
d="M414 92l-355 406v39l355 405h71l-170 -422l170 -428h-71z" />
    <glyph glyph-name="guilsinglright" unicode="&#x203a;" horiz-adv-x="557" 
d="M74 92l170 426l-170 424h71l355 -405v-39l-355 -406h-71z" />
    <glyph glyph-name="fraction" unicode="&#x2044;" horiz-adv-x="688" 
d="M-258 -102l1079 1564h125l-1077 -1564h-127z" />
    <glyph glyph-name="Euro" unicode="&#x20ac;" horiz-adv-x="1245" 
d="M33 776v94h131q47 285 231 429t424 145q172 0 283 -62t110 -182q0 -59 -38 -95t-114 -36q-75 0 -112 47t-48 130q-12 84 -30 100t-82 16q-122 0 -188 -111t-78 -381h428l-18 -94h-412v-22q0 -86 2 -129h383l-16 -95h-359q23 -221 109 -307q85 -86 243 -86t314 88v-71
q-61 -70 -175 -124t-269 -55q-244 -1 -399 139t-191 416h-129v95h121q-4 74 0 151h-121z" />
    <glyph glyph-name="trademark" unicode="&#x2122;" horiz-adv-x="1529" 
d="M152 834v43l47 8q25 4 31 15t6 50v416h-9q-51 0 -77 -39t-66 -135h-37l8 227h551l8 -227h-36q-47 110 -69 142t-75 32h-8v-416q0 -41 5 -51t32 -14l49 -8v-43h-360zM647 829v48l45 6q25 4 32 19t7 61v344q0 35 -7 45t-30 14l-37 10v43h306l104 -305h2l102 305h308v-41
l-37 -8q-23 -6 -29 -16t-6 -45v-363q0 -37 6 -48t27 -15l43 -9v-45h-344v45l39 9q22 4 28 15t6 48v393h-4l-164 -497h-69l-172 497h-4v-372q0 -51 7 -65t32 -19l45 -9v-45h-236z" />
    <glyph glyph-name="onethird" unicode="&#x2153;" horiz-adv-x="1675" 
d="M1278 -14q-281 0 -281 147q0 86 93 86q97 1 112 -101q8 -52 20 -63q12 -10 54 -10q109 0 108 170q0 96 -38 128q-39 32 -115 32h-57v76h47q75 1 109 33t34 114q0 143 -82 143q-29 0 -39 -9t-14 -42q-10 -104 -109 -104q-40 0 -66 22t-26 60q0 63 73 99t207 36t216 -48
t82 -141q0 -147 -222 -184v-4q117 -6 187 -57q69 -51 69 -155t-90 -166t-272 -62zM168 -102l1079 1564h125l-1077 -1564h-127zM33 631v55l41 8q41 10 50 24t9 70v404l-98 16v56q209 39 317 166l51 -9v-633q-1 -57 11 -72t51 -22l41 -8v-55h-473z" />
    <glyph glyph-name="twothirds" unicode="&#x2154;" horiz-adv-x="1787" 
d="M1391 -14q-281 0 -281 147q0 86 92 86q98 1 113 -101q8 -52 20 -63q12 -10 54 -10q109 0 108 170q0 96 -39 128t-115 32h-57v76h47q76 1 110 33t34 114q0 143 -82 143q-29 0 -39 -9t-15 -42q-10 -104 -108 -104q-41 0 -67 22t-25 60q0 63 72 99q73 36 207 36t216 -48
t82 -141q0 -147 -221 -184v-4q117 -6 187 -57t69 -155q0 -104 -90 -166t-272 -62zM285 -102l1079 1564h125l-1077 -1564h-127zM33 631v117q168 127 256 223q113 119 113 260t-95 141q-29 0 -37 -11t-14 -65q-12 -113 -115 -113q-102 1 -102 89q0 68 81 114q80 46 222 48
q142 0 230 -60t90 -162q0 -104 -102 -196t-331 -195v-6h269q39 -1 54 17t44 81h57l-16 -282h-604z" />
    <glyph glyph-name="oneeighth" unicode="&#x215b;" horiz-adv-x="1687" 
d="M1458 154q0 50 -44 80t-204 94q-36 -51 -36 -125q1 -152 151 -152q133 0 133 103zM1438 612q0 127 -119 127q-51 1 -84 -25t-33 -69t41 -73t158 -74q37 43 37 114zM1655 238q1 -104 -99 -178t-250 -74t-237 50q-88 50 -88 138q0 60 45 108t125 74v6q-135 72 -135 191
t94 185t217 65q123 0 208 -44t85 -130q0 -51 -45 -92t-109 -64v-4q96 -43 142 -98t47 -133zM164 -102l1079 1564h125l-1077 -1564h-127zM33 631v55l41 8q41 10 50 24t9 70v404l-98 16v56q209 39 317 166l51 -9v-633q-1 -57 11 -72t51 -22l41 -8v-55h-473z" />
    <glyph glyph-name="threeeighths" unicode="&#x215c;" horiz-adv-x="1796" 
d="M1432 51q133 0 133 103q0 50 -44 80t-204 94q-37 -51 -37 -125q0 -152 152 -152zM1544 612q0 127 -119 127q-51 1 -84 -25t-33 -69t42 -73q40 -30 157 -74q37 43 37 114zM1412 -14q-150 0 -236 50q-88 50 -89 138q-1 60 45 108t125 74v6q-135 72 -135 191t94 185t218 65
q124 0 208 -44t84 -130q0 -51 -45 -92t-108 -64v-4q96 -43 142 -98t46 -133q0 -104 -99 -179q-100 -73 -250 -73zM299 -102l1079 1564h125l-1077 -1564h-127zM330 616q-281 0 -281 146q0 88 92 88q97 0 113 -103q8 -51 20 -61t54 -10q109 0 108 170q0 96 -39 127t-114 31
h-58v75h47q76 0 110 34t34 116q0 143 -82 143q-29 0 -39 -9t-14 -42q-10 -104 -109 -104q-41 1 -67 23t-25 58q0 64 73 100t207 36t215 -48q82 -48 82 -141q0 -150 -221 -186v-4q115 -5 186 -57q70 -52 70 -154t-90 -166q-90 -62 -272 -62z" />
    <glyph glyph-name="fiveeighths" unicode="&#x215d;" horiz-adv-x="1751" 
d="M1386 51q133 0 134 103q0 50 -44 80t-204 94q-37 -51 -37 -125q0 -152 151 -152zM1499 612q0 127 -119 127q-51 1 -84 -25q-32 -26 -32 -69t40 -73t158 -74q37 43 37 114zM1368 -14q-150 0 -238 50t-88 138q0 60 45 108t125 74v6q-135 72 -135 191t94 185q93 66 217 65
q124 0 208 -44t85 -130q0 -51 -45 -92t-108 -64v-4q96 -43 142 -98t46 -133q0 -104 -99 -179q-99 -73 -249 -73zM252 -102l1079 1564h125l-1077 -1564h-127zM639 900q1 -120 -97 -202t-246 -82t-212 40t-64 90q-1 94 91 94q53 0 75 -25t33 -71t23 -56t47 -10q125 0 125 129
q0 72 -52 111q-52 38 -132 38q-81 0 -134 -20l-22 8l53 475l354 -2q29 0 44 15t36 59h51l-24 -242l-410 2l-10 -116q72 14 143 14q154 0 241 -65q87 -64 87 -184z" />
    <glyph glyph-name="seveneighths" unicode="&#x215e;" horiz-adv-x="1652" 
d="M170 1245q-45 0 -59 -15t-43 -87h-56l21 276h581v-114q-123 -156 -175 -318t-56 -356h-291q39 176 140 319t266 295h-328zM1288 51q133 0 133 103q0 50 -44 80t-203 94q-37 -51 -37 -125q0 -152 151 -152zM1401 612q0 127 -119 127q-51 1 -84 -25t-33 -69t41 -73t158 -74
q37 43 37 114zM1270 -14q-150 0 -238 50t-88 138q0 60 45 108t125 74v6q-135 72 -135 191t94 185t217 65q123 0 208 -44t85 -130q0 -51 -45 -92t-108 -64v-4q96 -43 142 -98t46 -133q0 -104 -99 -179q-99 -73 -249 -73zM119 -102l1079 1564h125l-1077 -1564h-127z" />
    <glyph glyph-name="product" unicode="&#x220f;" horiz-adv-x="823" 
d="M247 1448q81 0 115 -58t-4 -151l-155 -332h-43l-64 338q-20 103 25 153t126 50zM608 1448q80 0 116 -58t-5 -151l-154 -332h-45l-61 338q-20 102 24 153q45 50 125 50z" />
    <glyph glyph-name="minus" unicode="&#x2212;" horiz-adv-x="970" 
d="M76 657v115h819v-115h-819z" />
    <glyph glyph-name="filledbox" unicode="&#x25a0;" horiz-adv-x="1896" 
d="M238 0v1419h1421v-1419h-1421z" />
    <glyph glyph-name="H22073" unicode="&#x25a1;" horiz-adv-x="1896" 
d="M332 90h1233v1243h-1233v-1243zM238 0v1419h1421v-1419h-1421z" />
    <glyph glyph-name="triagup" unicode="&#x25b2;" horiz-adv-x="1697" 
d="M1597 0h-1493v29l725 1454h41l727 -1454v-29z" />
    <glyph glyph-name="uni25B3" unicode="&#x25b3;" horiz-adv-x="1761" 
d="M1565 86l-619 1223l-614 -1223h1233zM1696 0h-1493v29l735 1454h20l738 -1454v-29z" />
    <glyph glyph-name="uni25B7" unicode="&#x25b7;" horiz-adv-x="1761" 
d="M332 92l1165 619l-1165 618v-1237zM238 -37v1493h28l1393 -735v-21l-1393 -737h-28z" />
    <glyph glyph-name="triagrt" unicode="&#x25ba;" horiz-adv-x="1761" 
d="M238 -37v1493h28l1393 -735v-21l-1393 -737h-28z" />
    <glyph glyph-name="triagdn" unicode="&#x25bc;" horiz-adv-x="1697" 
d="M102 1419h1493v-28l-725 -1454h-41l-727 1454v28z" />
    <glyph glyph-name="uni25BD" unicode="&#x25bd;" horiz-adv-x="1761" 
d="M332 1333l618 -1222l615 1222h-1233zM201 1419h1493v-28l-736 -1454h-20l-737 1454v28z" />
    <glyph glyph-name="uni25C1" unicode="&#x25c1;" horiz-adv-x="1761" 
d="M264 711l1166 -619v1237zM1524 1456v-1493h-29l-1393 737v21l1393 735h29z" />
    <glyph glyph-name="triaglf" unicode="&#x25c4;" horiz-adv-x="1761" 
d="M1524 1456v-1493h-29l-1393 737v21l1393 735h29z" />
    <glyph glyph-name="circle" unicode="&#x25cb;" horiz-adv-x="1650" 
d="M822 55q269 0 459 193q189 193 189 463t-189 461q-189 192 -459 192t-455 -190q-187 -190 -187 -462t186 -464q186 -193 456 -193zM822 -31q-306 0 -522 217q-216 216 -216 524t216 524t523 216t525 -216t219 -522q0 -306 -219 -525q-220 -218 -526 -218z" />
    <glyph glyph-name="uni2605" unicode="&#x2605;" horiz-adv-x="1703" 
d="M469 111l385 286l381 -286l-156 454l389 266h-469l-147 453l-147 -453h-467l387 -266zM29 907h622l193 596h16l195 -596h620v-16l-497 -356l194 -592l-14 -9l-506 361l-506 -365l-14 9l196 596l-499 356v16z" />
    <glyph glyph-name="uni2606" unicode="&#x2606;" horiz-adv-x="1703" 
d="M29 907h622l193 596h16l195 -596h620v-16l-497 -356l194 -592l-14 -9l-506 361l-506 -365l-14 9l196 596l-499 356v16z" />
    <glyph glyph-name="R.alt" horiz-adv-x="1449" 
d="M651 715q131 0 188 67q56 68 56 243t-44 240q-45 65 -151 65t-145 -15v-592q41 -8 96 -8zM35 0v57l69 15q49 12 65 37q15 25 15 112v977q0 88 -15 113t-65 37l-69 14v57h667q298 0 432 -90t134 -263t-96 -259t-314 -119v-8q176 -37 275 -166q59 -72 130 -222t89 -180
t61 -44l35 -11v-57h-471q-25 59 -81 227q-56 169 -97 263t-83 120t-114 25h-47v-414q0 -89 14 -113t64 -36l69 -15v-57h-667z" />
    <glyph glyph-name="germandbls.alt" horiz-adv-x="1353" 
d="M633 313h51q72 -139 102 -177t63 -56q31 -18 93 -18t100 36q38 37 39 95q0 57 -41 95t-177 121t-186 149t-50 136t58 164q59 94 117 198t58 203t-47 159t-137 61q-199 0 -199 -275v-1030q0 -68 7 -86t36 -27l35 -6v-55h-532v55l53 15q51 14 63 32t13 84v756h-144v51
l144 72v27q0 225 156 346q157 121 375 121t334 -74t116 -191q1 -78 -49 -148t-109 -111q-158 -112 -158 -161q0 -34 51 -72q50 -38 196 -123t202 -163t57 -186q0 -158 -111 -254t-283 -96t-296 36v297z" />
    <glyph glyph-name="registered.alt" horiz-adv-x="806" 
d="M362 1069h29q37 0 51 18t15 64q0 80 -60 80l-35 -2v-160zM207 868v31l20 4q23 4 23 41v246q0 25 -4 32t-39 13v31h194q170 0 170 -105q0 -76 -73 -96v-4q41 -88 80 -143q11 -11 36 -19v-31h-133q-49 74 -86 164h-33v-88q0 -37 23 -41l21 -4v-31h-199zM100 1061
q0 -135 85 -229t217 -93q132 -1 220 93t87 229q0 135 -87 228q-88 93 -220 93t-217 -93t-85 -228zM403 688q-154 0 -258 109t-104 265t104 264t258 108q153 0 259 -109t106 -263t-106 -264t-259 -110z" />
    <glyph glyph-name="zero.numerator" horiz-adv-x="897" 
d="M451 686q71 0 97 73t26 267t-28 268q-28 72 -94 72t-97 -71q-29 -71 -29 -267t26 -270q26 -72 99 -72zM437 616q-165 0 -275 106t-111 301q0 195 128 303t280 108q153 0 271 -113t118 -301t-123 -296t-288 -108z" />
    <glyph glyph-name="one.numerator" horiz-adv-x="532" 
d="M31 631v55l41 8q41 10 50 24t9 70v404l-98 16v56q209 39 317 166l51 -9v-633q-1 -57 11 -72t51 -22l41 -8v-55h-473z" />
    <glyph glyph-name="two.numerator" horiz-adv-x="688" 
d="M25 631v117q168 127 256 223q113 119 113 260t-95 141q-29 0 -37 -11t-14 -65q-12 -113 -115 -113q-102 1 -102 89q0 68 81 114q80 46 222 48q142 0 230 -60t89 -162q0 -104 -102 -196t-330 -195v-6h268q39 -1 55 17t44 81h57l-16 -282h-604z" />
    <glyph glyph-name="three.numerator" horiz-adv-x="706" 
d="M305 616q-281 0 -280 146q0 88 92 88q97 0 113 -103q8 -51 20 -61t53 -10q109 0 109 170q0 96 -39 127t-115 31h-57v75h47q76 0 110 34t33 116q0 143 -82 143q-29 0 -39 -9t-14 -42q-10 -104 -109 -104q-41 1 -67 23t-25 58q0 64 73 100t207 36t216 -48t82 -141
q0 -150 -221 -186v-4q116 -5 186 -57t70 -154t-90 -166q-90 -62 -273 -62z" />
    <glyph glyph-name="four.numerator" horiz-adv-x="761" 
d="M133 940h223v270h-4l-219 -262v-8zM260 631v55l37 8q39 8 49 22t10 72v58h-333v74l419 499h174v-479h121l-12 -94h-109v-58q0 -57 12 -72t48 -22l39 -8v-55h-455z" />
    <glyph glyph-name="five.numerator" horiz-adv-x="677" 
d="M29 758q0 82 96 82q47 0 70 -25t33 -71t22 -56t47 -10q125 0 125 129q0 72 -51 111q-51 38 -133 38t-134 -20l-22 8l53 475l354 -2q29 0 44 15t36 59h52l-25 -242l-410 2l-10 -116q72 14 143 14q154 0 241 -65q87 -64 87 -184t-97 -202q-98 -82 -246 -82t-212 40
q-63 40 -63 102z" />
    <glyph glyph-name="six.numerator" horiz-adv-x="782" 
d="M393 682q57 0 75 37q17 37 17 139t-24 134q-25 32 -77 32t-83 -18v-17q0 -182 17 -245q18 -62 75 -62zM748 880q0 -116 -90 -190t-256 -74q-165 0 -267 94t-102 303q0 210 131 315t317 106q109 0 169 -34t60 -82q1 -95 -93 -94q-95 1 -111 99q-6 31 -16 40t-37 9
q-68 0 -107 -63t-43 -234q79 33 189 33t183 -56t73 -172z" />
    <glyph glyph-name="seven.numerator" horiz-adv-x="677" 
d="M199 1245q-45 0 -59 -15t-44 -87h-55l20 276h582v-114q-123 -156 -175 -318t-56 -356h-291q39 176 140 319t265 295h-327z" />
    <glyph glyph-name="eight.numerator" horiz-adv-x="737" 
d="M369 1370q-51 0 -84 -26t-33 -68q0 -43 41 -74t158 -74q37 43 36 115q0 127 -118 127zM375 680q57 0 95 26t38 76t-45 82q-45 31 -203 92q-37 -47 -37 -114q0 -162 152 -162zM356 616q-150 0 -238 50t-87 139q0 57 45 106t125 76v4q-135 74 -135 193q0 118 94 184t217 66
t208 -44t85 -130q0 -50 -45 -92t-109 -64v-4q98 -46 143 -100t45 -145t-99 -165t-249 -74z" />
    <glyph glyph-name="nine.numerator" horiz-adv-x="778" 
d="M479 1069q0 179 -19 239q-20 60 -74 60t-74 -41t-21 -137q1 -96 27 -129t71 -33t90 16v25zM303 616q-113 0 -176 34t-64 91q0 82 103 82q84 0 102 -88q8 -41 20 -50t42 -9q80 0 112 62t33 241q-74 -35 -178 -35q-264 0 -264 232q0 114 92 186t257 72t264 -94t99 -298
q-1 -204 -123 -315t-319 -111z" />
    <glyph glyph-name="zero.denominator" horiz-adv-x="897" 
d="M451 55q71 0 97 73q26 74 26 268t-28 267t-94 73t-97 -72q-29 -70 -29 -267t26 -269t99 -73zM437 -14q-165 0 -275 106t-111 293q0 139 69 239q124 180 333 179q159 0 277 -112q118 -113 118 -301t-123 -296t-288 -108z" />
    <glyph glyph-name="one.denominator" horiz-adv-x="532" 
d="M31 0v55l41 8q41 9 50 23t9 72v403l-98 17v55q209 39 317 166l51 -8v-633q1 -56 13 -72t49 -23l41 -8v-55h-473z" />
    <glyph glyph-name="two.denominator" horiz-adv-x="688" 
d="M25 0v119q166 123 256 221q113 119 113 260t-95 141q-29 0 -37 -11q-8 -12 -14 -66q-12 -111 -115 -111q-102 0 -102 88q0 70 81 116q82 46 224 46q142 -1 230 -59t87 -162q0 -104 -102 -197q-102 -92 -330 -195v-6h268q39 0 55 18t44 81h57l-16 -283h-604z" />
    <glyph glyph-name="three.denominator" horiz-adv-x="706" 
d="M305 -14q-281 0 -280 147q0 86 92 86q99 1 113 -101q8 -52 20 -63q12 -10 53 -10q109 0 109 170q0 96 -39 128t-115 32h-57v76h47q76 1 110 33t33 114q0 143 -82 143q-29 0 -39 -9t-14 -42q-10 -104 -109 -104q-41 0 -67 22t-25 60q0 63 73 99t207 36t216 -48t82 -141
q0 -147 -221 -184v-4q116 -6 186 -57t70 -155t-90 -166t-273 -62z" />
    <glyph glyph-name="four.denominator" horiz-adv-x="761" 
d="M133 311h223v269h-4l-219 -263v-6zM260 0v55l37 8q39 11 49 25t10 70v57h-333v74l419 499h174v-477h121l-12 -96h-109v-57q0 -56 12 -72t48 -23l39 -8v-55h-455z" />
    <glyph glyph-name="five.denominator" horiz-adv-x="677" 
d="M319 520q152 0 240 -66t88 -185t-97 -201q-98 -82 -246 -82t-212 40q-63 40 -63 90q0 93 90 93q53 0 76 -25t33 -71t22 -55t47 -9q125 0 125 129q0 72 -51 110t-133 38t-134 -21l-22 10l53 473h354q35 0 48 20q14 20 32 52h52l-25 -242l-410 3l-10 -117q55 16 143 16z
" />
    <glyph glyph-name="six.denominator" horiz-adv-x="782" 
d="M301 358q-1 -182 17 -244t75 -63q57 0 75 37q17 37 17 139t-24 134q-25 32 -81 32t-79 -18v-17zM748 249q0 -115 -90 -189t-256 -74q-165 0 -267 93t-102 303t131 315t317 106q109 0 169 -34t60 -82q1 -95 -93 -94q-95 1 -111 99q-6 31 -16 40t-37 9q-68 0 -107 -62
t-43 -235q75 35 187 35t185 -57t73 -173z" />
    <glyph glyph-name="seven.denominator" horiz-adv-x="677" 
d="M199 614q-45 0 -59 -15t-44 -87h-55l20 276h582v-114q-123 -156 -175 -318t-56 -356h-291q39 176 140 319t265 295h-327z" />
    <glyph glyph-name="eight.denominator" horiz-adv-x="737" 
d="M375 51q133 0 133 103q0 50 -44 80t-204 94q-37 -51 -37 -125q0 -152 152 -152zM369 739q-51 1 -84 -25t-33 -69t41 -73t158 -74q37 43 36 114q0 127 -118 127zM356 -14q-150 0 -238 50t-87 138q0 60 45 108t125 74v6q-135 72 -135 191t94 185t217 65q123 0 208 -44
t85 -130q0 -51 -45 -92t-109 -64v-4q96 -43 142 -98t46 -146t-99 -165t-249 -74z" />
    <glyph glyph-name="nine.denominator" horiz-adv-x="778" 
d="M386 737q-54 0 -74 -40t-21 -137q1 -97 27 -130t71 -33t90 17v24q0 178 -19 239q-20 60 -74 60zM33 545q0 113 92 185t257 73q165 0 264 -93t99 -298q-1 -205 -123 -316t-319 -110q-113 0 -176 34t-64 91q0 84 103 84q84 0 102 -89q8 -41 20 -50t42 -9q80 1 112 63
t33 238q-74 -35 -178 -35q-264 0 -264 232z" />
    </font>
</defs>
</svg>
