<?xml version="1.0" standalone="no"?>
<!DOCTYPE svg PUBLIC "-//W3C//DTD SVG 1.1//EN" "http://www.w3.org/Graphics/SVG/1.1/DTD/svg11.dtd" >
<svg xmlns="http://www.w3.org/2000/svg">
<metadata>
Created by FontPrep 20130207 at Sun Nov 27 18:57:13 2016
 By Brendan Gatens
(c)2012 Kai Bernau and Susana Carvalho with Christian Schwartz under exclusive license to Schwartzco Inc./Commercial Type. All rights reserved.
</metadata>
<defs>
<font id="4c452fbe91af52f13ffe1a98c5a30926" horiz-adv-x='1024' >
  <font-face 
    font-family="AtlasGrotesk-Regular"
    font-weight="400"
    font-stretch="normal"
    units-per-em="2048"
    panose-1="0 0 0 0 0 0 0 0 0 0"
    ascent="1663"
    descent="-385"
    x-height="1079"
    cap-height="1567"
    bbox="-403 -434 2492 2429"
    underline-thickness="102"
    underline-position="-102"
    unicode-range="U+0020-FB02"
  />
<missing-glyph horiz-adv-x="1024" 
 />
    <glyph glyph-name="f_f" unicode="ff" horiz-adv-x="1425" 
d="M420 938v-938h-184v938h-197v141h197v228q0 299 327 299q59 0 115 -11v-151q-42 8 -112 8t-108 -37t-38 -131v-205h508v242q0 299 327 299q59 0 115 -10v-152q-42 8 -112 8t-108 -36t-38 -132v-219h258v-141h-258v-938h-184v938h-508z" />
    <glyph glyph-name="fi" unicode="fi" horiz-adv-x="1296" 
d="M412 938v-938h-185v938h-188v141h188v242q0 299 328 299q59 0 115 -10v-152q-41 8 -112 8q-70 0 -108 -36t-38 -132v-219h250v-141h-250zM918 0v1079h186v-1079h-186zM913 1325v199h195v-199h-195z" />
    <glyph glyph-name="fl" unicode="fl" horiz-adv-x="1292" 
d="M412 938v-938h-185v938h-188v141h188v242q0 299 328 299q59 0 115 -10v-152q-41 8 -112 8q-70 0 -108 -36t-38 -132v-219h250v-141h-250zM918 0v1614h184v-1614h-184z" />
    <glyph glyph-name=".notdef" horiz-adv-x="1024" 
 />
    <glyph glyph-name=".null" horiz-adv-x="0" 
 />
    <glyph glyph-name="nonmarkingreturn" horiz-adv-x="681" 
 />
    <glyph glyph-name="space" unicode=" " horiz-adv-x="557" 
 />
    <glyph glyph-name="exclam" unicode="!" horiz-adv-x="573" 
d="M408 0h-242v242h242v-242zM205 485l-23 1129h209l-24 -1129h-162z" />
    <glyph glyph-name="quotedbl" unicode="&#x22;" horiz-adv-x="722" 
d="M131 1114l-39 453h205l-39 -453h-127zM465 1114l-39 453h205l-39 -453h-127z" />
    <glyph glyph-name="numbersign" unicode="#" horiz-adv-x="1366" 
d="M123 608v156h250l41 291h-230v155h252l53 357h156l-51 -357h258l53 357h158l-53 -357h233v-155h-256l-41 -291h236v-156h-260l-58 -405h-157l57 405h-260l-58 -405h-155l57 405h-225zM528 764h260l43 291h-260z" />
    <glyph glyph-name="dollar" unicode="$" horiz-adv-x="1284" 
d="M702 -238h-135v224q-225 14 -345 134t-138 314h182q43 -264 301 -293v559l-37 7q-393 74 -393 423q0 160 120 272t310 130v164h135v-164q205 -18 320 -132t125 -294h-180q-31 244 -265 278v-534l60 -10q219 -40 316 -142q98 -102 98 -284t-122 -296q-122 -116 -352 -132
v-224zM702 143h13q276 31 276 269q0 209 -264 258l-25 4v-531zM313 1130q0 -213 240 -253l14 -3v510q-119 -16 -187 -87t-67 -167z" />
    <glyph glyph-name="percent" unicode="%" horiz-adv-x="1865" 
d="M1382 117q84 0 134 61q49 61 49 179q0 117 -48 179t-135 62q-180 0 -180 -240t180 -241zM1383 -14q-151 0 -247 96t-98 274q0 178 98 274t250 95q150 0 248 -95q98 -94 98 -272t-98 -275q-100 -97 -251 -97zM477 911q84 -1 133 61t49 180t-48 179t-134 62
q-180 0 -180 -241t180 -241zM827 1152q0 -176 -99 -274t-250 -98t-248 96t-97 275q0 178 98 273q98 96 249 96t249 -96t98 -272zM293 -82l1120 1681h172l-1120 -1681h-172z" />
    <glyph glyph-name="ampersand" unicode="&#x26;" horiz-adv-x="1439" 
d="M1409 -4h-51q-94 0 -168 38t-158 122q-162 -188 -419 -188t-393 120q-136 121 -136 313q0 139 78 239t270 214q-100 115 -142 196t-42 197q0 154 105 257q105 104 269 104t268 -91q103 -91 105 -231q2 -236 -325 -455l303 -356q15 -18 45 -53q57 156 65 360h160
q-14 -279 -117 -483q86 -92 140 -118t143 -25v-160zM524 743q-141 -93 -195 -163t-55 -172q0 -146 96 -220t236 -73q207 0 326 149q-45 53 -70 82zM578 942q243 156 243 328q0 88 -51 145t-144 57q-94 0 -148 -61q-54 -62 -54 -160q0 -135 154 -309z" />
    <glyph glyph-name="quotesingle" unicode="'" horiz-adv-x="389" 
d="M131 1114l-39 453h205l-39 -453h-127z" />
    <glyph glyph-name="parenleft" unicode="(" horiz-adv-x="679" 
d="M383 674q1 -282 59 -496q58 -213 164 -444h-139q-65 132 -95 196t-81 197q-98 256 -97 548q1 293 97 547q51 134 80 196t96 196h139q-106 -230 -164 -444t-59 -496z" />
    <glyph glyph-name="parenright" unicode=")" horiz-adv-x="679" 
d="M297 674q0 282 -58 496t-165 444h139q206 -402 244 -624q53 -308 6 -596q-35 -206 -155 -465q-30 -65 -95 -195h-139q106 231 165 444q58 213 58 496z" />
    <glyph glyph-name="asterisk" unicode="*" horiz-adv-x="931" 
d="M469 1147h-4l-158 -291l-145 109l225 233v4l-309 66l59 170l283 -148l4 4l-47 320h178l-47 -320l4 -4l281 148l61 -170l-309 -66v-4l225 -233l-145 -109z" />
    <glyph glyph-name="plus" unicode="+" horiz-adv-x="1296" 
d="M729 653v-393h-166v393h-387v158h387v391h166v-391h389v-158h-389z" />
    <glyph glyph-name="comma" unicode="," horiz-adv-x="468" 
d="M102 -240l70 492h229l-165 -492h-134z" />
    <glyph glyph-name="hyphen" unicode="-" horiz-adv-x="815" 
d="M123 588v166h569v-166h-569z" />
    <glyph glyph-name="period" unicode="." horiz-adv-x="487" 
d="M119 0v250h250v-250h-250z" />
    <glyph glyph-name="slash" unicode="/" horiz-adv-x="1171" 
d="M12 -266l930 1880h166l-930 -1880h-166z" />
    <glyph glyph-name="zero" unicode="0" horiz-adv-x="1372" 
d="M682 119q164 0 257 164t93 471t-91 470q-91 162 -256 162t-255 -160t-90 -473q0 -314 89 -474t253 -160zM141 754q-1 386 145 586t400 200t399 -200t145 -586t-144 -587q-146 -200 -403 -200t-399 200t-143 587z" />
    <glyph glyph-name="one" unicode="1" horiz-adv-x="866" 
d="M420 0v1118h-303v131h45q287 0 291 275h153v-1524h-186z" />
    <glyph glyph-name="two" unicode="2" horiz-adv-x="1257" 
d="M340 1053h-193q1 225 139 356t360 131t341 -122t119 -283t-71 -275t-265 -301l-412 -393v-2h758v-164h-1007v141l520 516q231 236 256 317q26 80 26 142q0 119 -73 195q-74 75 -203 75t-212 -82t-83 -251z" />
    <glyph glyph-name="three" unicode="3" horiz-adv-x="1284" 
d="M653 686h-80v170h80q117 0 195 77t78 193t-77 187q-77 72 -202 71q-295 0 -307 -301h-184q0 195 129 326t352 131t348 -115t125 -292q0 -113 -70 -204t-182 -141v-4q125 -33 210 -127t85 -265t-139 -297t-380 -126t-368 129t-137 328h186q19 -147 111 -224t226 -77
t226 77q91 76 91 206t-83 204t-233 74z" />
    <glyph glyph-name="four" unicode="4" horiz-adv-x="1282" 
d="M1174 369h-199v-369h-178v369h-711v147l688 1002h201v-990h199v-159zM797 526v772h-4q-29 -63 -93 -157l-421 -615h518z" />
    <glyph glyph-name="five" unicode="5" horiz-adv-x="1273" 
d="M942 481q0 173 -90 267t-229 94q-195 0 -281 -133h-160l66 809h807v-160h-652l-38 -484h4q104 125 298 125q195 0 331 -128t136 -374q0 -247 -140 -387q-142 -140 -382 -141q-341 0 -448 272q-29 73 -35 154h186q20 -270 308 -270q129 0 224 92t95 264z" />
    <glyph glyph-name="six" unicode="6" horiz-adv-x="1312" 
d="M670 817q-142 0 -230 -87t-88 -258t94 -259t224 -88q131 0 226 89t95 255t-90 257t-231 91zM719 975q189 0 327 -123q138 -122 138 -356t-140 -380t-374 -147q-113 0 -201 31q-88 32 -165 106q-163 158 -163 566q0 868 559 868q201 0 313 -91t128 -259h-176
q-18 96 -85 151t-180 56q-354 0 -372 -633h8q54 96 156 154t227 57z" />
    <glyph glyph-name="seven" unicode="7" horiz-adv-x="1116" 
d="M76 1352v166h966v-121l-634 -1397h-197l614 1352h-749z" />
    <glyph glyph-name="eight" unicode="8" horiz-adv-x="1284" 
d="M644 115q144 0 239 72q94 73 94 216t-95 217q-96 74 -238 74t-238 -74t-96 -216t94 -216q96 -73 240 -73zM640 1393q-124 0 -206 -71t-82 -204t83 -206q83 -72 205 -72t206 72t84 205q0 132 -83 204t-207 72zM162 1126q0 174 133 294t347 120t347 -120t133 -294
q0 -131 -72 -225t-176 -127v-4q117 -27 204 -119t87 -264t-144 -296t-380 -124t-379 123t-143 311q0 156 88 248t201 121v4q-102 33 -175 127q-71 94 -71 225z" />
    <glyph glyph-name="nine" unicode="9" horiz-adv-x="1312" 
d="M625 117q180 -1 267 153t87 484h-4q-51 -90 -149 -142t-228 -53q-178 0 -320 123t-142 347q0 223 144 367t365 144q528 0 529 -706q0 -463 -136 -664t-413 -201q-184 0 -308 93q-122 94 -149 280h178q18 -102 96 -164t183 -61zM643 1384q-129 0 -222 -86t-93 -246
t89 -249q89 -88 227 -88t229 90t91 246q0 157 -96 245t-225 88z" />
    <glyph glyph-name="colon" unicode=":" horiz-adv-x="532" 
d="M414 0h-252v252h252v-252zM162 827v252h252v-252h-252z" />
    <glyph glyph-name="semicolon" unicode=";" horiz-adv-x="557" 
d="M246 -240h-131l67 492h230zM174 827v252h252v-252h-252z" />
    <glyph glyph-name="less" unicode="&#x3c;" horiz-adv-x="1296" 
d="M1122 147l-958 471v127l958 472v-179l-735 -356l735 -356v-179z" />
    <glyph glyph-name="equal" unicode="=" horiz-adv-x="1296" 
d="M1122 469h-948v156h948v-156zM174 840v155h948v-155h-948z" />
    <glyph glyph-name="greater" unicode="&#x3e;" horiz-adv-x="1296" 
d="M174 1196l959 -471v-127l-959 -471v178l735 357l-735 356v178z" />
    <glyph glyph-name="question" unicode="?" horiz-adv-x="1095" 
d="M647 0h-241v242h241v-242zM840 1208q0 117 -76 191t-216 74q-140 -1 -222 -97t-80 -272h-174q-8 238 128 383t360 145t343 -121t119 -286q0 -99 -37 -183t-76 -126t-110 -103l-76 -65q-11 -10 -31 -28t-26 -24t-20 -19t-16 -21t-10 -28q-8 -19 -8 -63v-100h-168v131
q0 70 10 92t13 30q2 8 14 24q11 14 15 20t22 22t22 20t30 25q24 20 30 27l100 86q140 114 140 266z" />
    <glyph glyph-name="at" unicode="@" horiz-adv-x="2066" 
d="M926 248q96 0 175 78t103 196l19 88q10 70 3 136q-6 66 -56 115q-50 48 -132 48q-143 0 -223 -138t-80 -312q0 -92 47 -152q48 -59 144 -59zM1473 121q-242 0 -269 180h-6q-115 -186 -317 -186q-147 0 -232 94q-84 94 -88 250q-6 221 124 404t345 184q100 1 166 -47
t88 -126h4l27 140h153l-108 -547q-48 -221 148 -221q100 0 188 110t88 346q0 293 -206 489q-206 195 -534 195t-557 -243q-229 -244 -229 -602q0 -359 206 -575t529 -216t537 172l86 -88q-254 -213 -638 -213t-636 255t-252 669q0 415 279 693t676 278t648 -224t251 -579
q0 -158 -46 -278q-79 -208 -267 -282q-78 -32 -158 -32z" />
    <glyph glyph-name="A" unicode="A" horiz-adv-x="1507" 
d="M1225 0l-164 467h-627l-162 -467h-190l557 1567h225l563 -1567h-202zM745 1376q-2 -4 -23 -75t-40 -119l-195 -561h521l-197 561l-61 194h-5z" />
    <glyph glyph-name="B" unicode="B" horiz-adv-x="1480" 
d="M403 154h381q182 0 281 72q98 73 98 232q0 160 -100 226t-295 66h-365v-596zM403 907h392q141 1 230 61t89 191t-79 193t-216 61h-416v-506zM782 0h-569v1567h616q211 -1 347 -99t137 -282q0 -140 -75 -230t-212 -120v-5q148 -25 242 -130t94 -246q0 -455 -580 -455z" />
    <glyph glyph-name="C" unicode="C" horiz-adv-x="1574" 
d="M840 1436q-238 0 -368 -178t-130 -481q0 -302 130 -477t364 -175q192 0 292 106t119 258h195q-18 -227 -182 -373t-424 -147q-317 0 -507 207q-189 207 -189 593t194 604q195 218 507 218t488 -211q96 -115 113 -280h-201q-23 136 -125 236t-276 100z" />
    <glyph glyph-name="D" unicode="D" horiz-adv-x="1589" 
d="M403 164h291q559 0 559 633q0 313 -147 459t-399 147h-304v-1239zM213 0v1567h481q344 -1 551 -185t207 -581t-200 -599t-535 -202h-504z" />
    <glyph glyph-name="E" unicode="E" horiz-adv-x="1386" 
d="M213 0v1567h1001v-170h-811v-523h746v-165h-746v-539h822v-170h-1012z" />
    <glyph glyph-name="F" unicode="F" horiz-adv-x="1257" 
d="M403 666v-666h-190v1567h936v-170h-746v-566h682v-165h-682z" />
    <glyph glyph-name="G" unicode="G" horiz-adv-x="1695" 
d="M854 1438q-250 0 -382 -180t-132 -489q0 -310 128 -478t358 -168t356 124q125 124 125 353v23h-453v168h639v-791h-166v225h-8q-61 -113 -186 -185t-304 -73q-311 0 -500 206t-189 592t201 605q202 219 513 219q244 -1 404 -117t188 -321h-199q-21 131 -129 209t-264 78z
" />
    <glyph glyph-name="H" unicode="H" horiz-adv-x="1628" 
d="M403 707v-707h-190v1567h190v-690h822v690h190v-1567h-190v707h-822z" />
    <glyph glyph-name="I" unicode="I" horiz-adv-x="618" 
d="M213 0v1567h190v-1567h-190z" />
    <glyph glyph-name="J" unicode="J" horiz-adv-x="868" 
d="M139 -6h-86v162h43q299 0 356 128q28 64 27 189v1094h191v-1110q0 -246 -131 -355q-132 -108 -400 -108z" />
    <glyph glyph-name="K" unicode="K" horiz-adv-x="1462" 
d="M403 0h-190v1567h190v-805l734 805h229l-602 -658l645 -909h-229l-547 766l-230 -252v-514z" />
    <glyph glyph-name="L" unicode="L" horiz-adv-x="1234" 
d="M213 0v1567h190v-1397h779v-170h-969z" />
    <glyph glyph-name="M" unicode="M" horiz-adv-x="1947" 
d="M213 0v1567h289l467 -1327h4q20 68 69 204l404 1123h287v-1567h-195v1346h-6q-25 -80 -84 -246l-395 -1100h-181l-469 1346h-6v-1346h-184z" />
    <glyph glyph-name="N" unicode="N" horiz-adv-x="1628" 
d="M213 0v1567h244l696 -1166q39 -61 80 -153h6v1319h180v-1567h-243l-695 1163l-82 152h-4v-1315h-182z" />
    <glyph glyph-name="O" unicode="O" horiz-adv-x="1685" 
d="M842 1438q-230 0 -366 -170t-136 -488t136 -489q136 -170 363 -170q228 0 367 173q140 173 140 485q0 311 -138 485t-366 174zM139 778q0 203 57 362q103 292 376 400q124 49 268 49t271 -49q273 -106 379 -399q56 -158 56 -362q0 -205 -56 -363q-103 -290 -378 -400
q-125 -49 -272 -49q-307 0 -504 206t-197 605z" />
    <glyph glyph-name="P" unicode="P" horiz-adv-x="1308" 
d="M403 752h265q172 0 265 84t93 249q0 328 -352 328h-271v-661zM668 598h-265v-598h-190v1567h471q242 0 390 -120t148 -361q0 -240 -150 -364q-152 -124 -404 -124z" />
    <glyph glyph-name="Q" unicode="Q" horiz-adv-x="1685" 
d="M842 1438q-230 0 -366 -170t-136 -488t136 -489q136 -170 365 -170q230 0 367 164q138 164 138 485q0 320 -138 494t-366 174zM139 778q0 203 57 362q103 292 376 400q124 49 268 49t271 -49q273 -106 379 -399q56 -158 56 -363q0 -477 -284 -661v-11q221 2 352 -202
l-156 -115q-76 115 -152 158q-77 43 -184 43l-282 -19q-307 0 -504 204t-197 603z" />
    <glyph glyph-name="R" unicode="R" horiz-adv-x="1417" 
d="M403 664v-664h-190v1567h567q170 0 303 -70q203 -113 203 -371q0 -346 -336 -432v-4l346 -690h-221l-323 664h-349zM403 821h361q147 0 234 75t87 221t-86 220t-227 74h-369v-590z" />
    <glyph glyph-name="S" unicode="S" horiz-adv-x="1462" 
d="M743 1438q-155 0 -241 -77t-86 -190t62 -175t200 -89l221 -39q221 -41 316 -146t96 -282q-1 -219 -147 -345t-418 -126t-424 129q-154 129 -166 342h198q18 -137 116 -227t284 -90q188 0 275 82t87 219q0 217 -266 262l-219 39q-416 78 -416 426q0 193 145 315t387 123
q243 -1 375 -119t142 -323h-195q-16 129 -94 210t-232 81z" />
    <glyph glyph-name="T" unicode="T" horiz-adv-x="1337" 
d="M1307 1567v-166h-543v-1401h-191v1401h-542v166h1276z" />
    <glyph glyph-name="U" unicode="U" horiz-adv-x="1564" 
d="M188 522v1045h191v-901q0 -94 3 -152t21 -135q18 -76 56 -121q106 -133 328 -133t327 133q37 45 54 125t19 127q1 47 1 156v901h188v-1045q0 -283 -158 -418t-436 -135q-594 0 -594 553z" />
    <glyph glyph-name="V" unicode="V" horiz-adv-x="1505" 
d="M645 0l-563 1567h203l403 -1153q44 -126 62 -217l6 -27h4q16 84 69 240l402 1157h192l-557 -1567h-221z" />
    <glyph glyph-name="W" unicode="W" horiz-adv-x="2197" 
d="M735 0h-211l-448 1567h194l308 -1110q39 -151 51 -224l4 -26h4q12 92 53 248l301 1112h221l304 -1110q38 -132 53 -224l4 -26h4q10 92 53 248l305 1112h187l-449 -1567h-213l-307 1092q-37 131 -51 223l-4 28h-4q-12 -94 -56 -249z" />
    <glyph glyph-name="X" unicode="X" horiz-adv-x="1511" 
d="M104 0l537 811l-498 756h228l379 -594h4l399 594h205l-500 -746l549 -821h-231l-426 657h-5l-436 -657h-205z" />
    <glyph glyph-name="Y" unicode="Y" horiz-adv-x="1337" 
d="M575 0v670l-552 897h221l424 -723h4l440 723h203l-551 -885v-682h-189z" />
    <glyph glyph-name="Z" unicode="Z" horiz-adv-x="1339" 
d="M129 1399v168h1098v-146l-889 -1253h905v-168h-1147v145l891 1254h-858z" />
    <glyph glyph-name="bracketleft" unicode="[" horiz-adv-x="722" 
d="M225 -266v1880h447v-137h-277v-1606h277v-137h-447z" />
    <glyph glyph-name="backslash" unicode="\" horiz-adv-x="1171" 
d="M993 -266l-930 1880h166l930 -1880h-166z" />
    <glyph glyph-name="bracketright" unicode="]" horiz-adv-x="722" 
d="M498 1614v-1880h-447v135h277v1608h-277v137h447z" />
    <glyph glyph-name="asciicircum" unicode="^" horiz-adv-x="835" 
d="M498 1614l313 -578h-168l-225 391h-2l-234 -391h-157l321 578h152z" />
    <glyph glyph-name="underscore" unicode="_" horiz-adv-x="811" 
d="M-4 -389v141h819v-141h-819z" />
    <glyph glyph-name="grave" unicode="`" horiz-adv-x="755" 
d="M408 1614l108 -332h-135l-180 332h207z" />
    <glyph glyph-name="a" unicode="a" horiz-adv-x="1132" 
d="M782 182q-90 -200 -366 -200q-142 0 -232 82t-90 227q0 193 162 272q143 76 522 88v47q0 142 -54 206t-168 64t-168 -52q-54 -54 -60 -132h-176q4 146 110 234t304 88t295 -94t97 -307v-441q0 -68 20 -94t79 -29v-149h-23q-125 0 -179 45t-69 145h-4zM283 301
q1 -170 205 -170q104 0 197 88t93 270v25q-348 -14 -436 -80q-59 -45 -59 -133z" />
    <glyph glyph-name="b" unicode="b" horiz-adv-x="1251" 
d="M680 119q287 0 287 436q0 403 -289 403q-141 0 -224 -100t-83 -244v-114q0 -168 81 -274t228 -107zM193 0v1614h184v-713h2q47 93 135 149t205 56q190 0 312 -132t122 -417t-126 -435t-318 -149q-119 1 -206 57t-132 142h-4v-172h-174z" />
    <glyph glyph-name="c" unicode="c" horiz-adv-x="1097" 
d="M578 119q135 0 196 74t68 159h172q-18 -182 -138 -279t-301 -98q-229 0 -354 150t-125 406q0 255 130 415t354 160q176 0 296 -86t132 -266h-181q-10 90 -72 150t-173 61q-142 0 -220 -115t-77 -307q0 -424 293 -424z" />
    <glyph glyph-name="d" unicode="d" horiz-adv-x="1251" 
d="M1059 1614v-1614h-176v178h-6q-47 -88 -135 -146t-205 -59q-193 1 -317 135t-124 415t128 432t337 151q115 0 195 -54t114 -137h4v699h185zM879 467v115q0 170 -81 273q-80 103 -222 103t-217 -110t-74 -307q0 -422 286 -422q139 0 224 98q84 98 84 250z" />
    <glyph glyph-name="e" unicode="e" horiz-adv-x="1126" 
d="M584 -27q-238 0 -363 155t-125 405q0 249 128 411t354 162t338 -148t112 -374v-95h-743q20 -375 305 -374q197 0 246 168h178q-29 -141 -144 -225t-286 -85zM840 635v12q-8 319 -265 320q-125 0 -197 -89t-91 -243h553z" />
    <glyph glyph-name="f" unicode="f" horiz-adv-x="733" 
d="M420 938v-938h-184v938h-197v141h197v242q0 299 327 299q59 0 115 -10v-152q-42 8 -112 8t-108 -36t-38 -132v-219h258v-141h-258z" />
    <glyph glyph-name="g" unicode="g" horiz-adv-x="1247" 
d="M874 213h-2q-45 -84 -136 -141t-208 -58q-188 0 -310 130t-122 402t125 416t330 144q121 0 204 -56t119 -141h5v170h176v-1052q1 -219 -131 -327t-365 -108t-355 123q-69 70 -81 176h178q33 -152 266 -151q160 0 234 71t73 242v160zM879 489v109q0 162 -84 262
q-85 100 -225 100t-213 -108q-73 -110 -73 -300t68 -294q66 -104 228 -104q129 0 214 98t85 237z" />
    <glyph glyph-name="h" unicode="h" horiz-adv-x="1245" 
d="M879 0v668q0 162 -39 213q-51 71 -183 71t-206 -83t-74 -222v-647h-184v1614h184v-713h4q39 85 127 145t211 60q344 0 344 -354v-752h-184z" />
    <glyph glyph-name="i" unicode="i" horiz-adv-x="571" 
d="M193 0v1079h186v-1079h-186zM188 1325v199h195v-199h-195z" />
    <glyph glyph-name="j" unicode="j" horiz-adv-x="571" 
d="M68 -408q-59 0 -111 15v155q39 -12 103 -12q134 0 133 154v1175h186v-1190q0 -153 -85 -225t-226 -72zM188 1325v199h195v-199h-195z" />
    <glyph glyph-name="k" unicode="k" horiz-adv-x="1142" 
d="M377 0h-184v1614h184v-1055l450 520h215l-360 -405l405 -674h-215l-315 532l-180 -202v-330z" />
    <glyph glyph-name="l" unicode="l" horiz-adv-x="567" 
d="M193 0v1614h184v-1614h-184z" />
    <glyph glyph-name="m" unicode="m" horiz-adv-x="1923" 
d="M193 0v1079h174v-182h4q39 89 131 149t216 60t210 -56t114 -167h5q33 91 129 157t223 66q342 0 342 -354v-752h-185v668q0 162 -38 215q-49 69 -181 69t-205 -83t-73 -222v-647h-185v668q0 160 -38 213q-51 71 -182 71t-204 -83t-73 -218v-651h-184z" />
    <glyph glyph-name="n" unicode="n" horiz-adv-x="1245" 
d="M879 0v666q0 164 -39 215q-51 71 -183 71t-206 -83t-74 -222v-647h-184v1079h174v-182h4q41 89 133 149t215 60q344 0 344 -354v-752h-184z" />
    <glyph glyph-name="o" unicode="o" horiz-adv-x="1161" 
d="M580 965q-146 0 -220 -112t-73 -312q0 -424 297 -424q289 0 288 424q1 424 -292 424zM574 -27q-229 0 -354 154q-124 154 -124 411q0 256 131 412t361 156t352 -154t123 -410q0 -256 -130 -413q-130 -156 -359 -156z" />
    <glyph glyph-name="p" unicode="p" horiz-adv-x="1251" 
d="M193 -385v1464h178v-180h4q51 91 139 149t205 58q190 0 312 -132t122 -417t-126 -435t-320 -149q-113 1 -203 55t-123 130h-4v-543h-184zM371 500q0 -168 81 -274t228 -107q287 0 287 436q0 403 -289 403q-137 0 -222 -101t-85 -243v-114z" />
    <glyph glyph-name="q" unicode="q" horiz-adv-x="1251" 
d="M571 119q139 0 224 98q84 98 84 250v115q0 170 -81 273q-82 103 -222 103t-216 -110t-75 -307q-1 -422 286 -422zM1059 1079v-1464h-185v549h-6q-43 -80 -129 -135t-202 -56q-193 0 -317 133q-124 134 -124 416t128 433t337 151q115 0 197 -54t116 -137h5v164h180z" />
    <glyph glyph-name="r" unicode="r" horiz-adv-x="800" 
d="M193 0v1079h174v-202h4q39 91 134 157t208 66h18v-193h-35q-147 0 -233 -83t-86 -236v-588h-184z" />
    <glyph glyph-name="s" unicode="s" horiz-adv-x="1030" 
d="M510 967q-94 0 -152 -49t-59 -120q0 -71 39 -105t123 -48l166 -24q167 -27 237 -100t70 -223t-116 -238q-116 -87 -300 -87t-301 83t-127 249h180q18 -190 246 -190q112 0 176 49t64 126q0 76 -33 112t-137 53l-166 24q-150 25 -222 93t-73 210q0 140 105 232
q104 92 282 92t276 -77t113 -220h-176q-9 74 -65 116t-150 42z" />
    <glyph glyph-name="t" unicode="t" horiz-adv-x="743" 
d="M252 1393h168v-314h266v-141h-266v-637q0 -86 38 -123t126 -37l118 11v-156q-76 -12 -170 -12q-296 0 -294 286v668h-197v135h33q110 0 144 44t34 198v78z" />
    <glyph glyph-name="u" unicode="u" horiz-adv-x="1245" 
d="M371 1079v-663q0 -168 39 -219q53 -72 165 -72q295 0 295 371v583h185v-1079h-176v184h-5q-41 -90 -130 -150t-209 -61q-346 0 -347 355v751h183z" />
    <glyph glyph-name="v" unicode="v" horiz-adv-x="1044" 
d="M426 0l-379 1079h189l233 -694l53 -170h4q23 82 54 170l239 694h176l-374 -1079h-195z" />
    <glyph glyph-name="w" unicode="w" horiz-adv-x="1701" 
d="M391 0l-336 1079h189l209 -727l34 -137h5q20 72 40 135l230 729h188l228 -729l39 -135h4q16 72 34 135l213 729h179l-334 -1079h-195l-264 864h-2q-37 -131 -68 -229l-198 -635h-195z" />
    <glyph glyph-name="x" unicode="x" horiz-adv-x="1038" 
d="M39 0l369 557l-342 522h217l235 -377h4l242 377h201l-340 -512l374 -567h-219l-268 422h-6l-266 -422h-201z" />
    <glyph glyph-name="y" unicode="y" horiz-adv-x="1064" 
d="M221 -408q-53 0 -110 13v151q43 -10 94 -10q100 0 146 42t83 155l21 57l-377 1079h184l279 -843h6q18 66 53 170l221 673h185l-394 -1147q-68 -196 -146 -268t-245 -72z" />
    <glyph glyph-name="z" unicode="z" horiz-adv-x="1058" 
d="M135 930v149h813v-159l-633 -768h648v-152h-857v162l629 768h-600z" />
    <glyph glyph-name="braceleft" unicode="{" horiz-adv-x="722" 
d="M104 598h-49v152h49q88 0 123 34t35 121v412q0 165 95 235t315 70v-127q-158 0 -203 -47t-45 -182v-338q0 -223 -154 -250v-8q154 -27 154 -250v-338q0 -135 45 -182t203 -47v-127q-219 0 -315 69q-95 70 -95 236v411q0 86 -35 121t-123 35z" />
    <glyph glyph-name="bar" unicode="|" horiz-adv-x="591" 
d="M221 -266v1880h150v-1880h-150z" />
    <glyph glyph-name="braceright" unicode="}" horiz-adv-x="722" 
d="M668 750v-152h-50q-88 0 -122 -35t-35 -121v-411q0 -166 -95 -236t-315 -69v127q158 0 203 47t45 182v338q0 223 154 250v8q-154 27 -154 250v338q0 135 -45 182t-203 47v127q219 0 315 -70t95 -235v-412q0 -86 35 -121t122 -34h50z" />
    <glyph glyph-name="asciitilde" unicode="~" horiz-adv-x="825" 
d="M41 598q0 115 60 196t163 80q76 0 177 -61t130 -61q78 0 86 127h127q0 -115 -60 -196t-163 -81q-74 0 -175 60t-134 61q-76 0 -84 -125h-127z" />
    <glyph glyph-name="uni00A0" unicode="&#xa0;" horiz-adv-x="557" 
 />
    <glyph glyph-name="exclamdown" unicode="&#xa1;" horiz-adv-x="573" 
d="M166 1370h242v-242h-242v242zM369 885l22 -1129h-209l25 1129h162z" />
    <glyph glyph-name="cent" unicode="&#xa2;" horiz-adv-x="1097" 
d="M281 543q0 -373 229 -422v840q-111 -29 -170 -140t-59 -278zM637 -238h-127v218q-198 20 -306 167t-108 383t111 391t303 181v198h127v-196q156 -14 257 -100t114 -250h-181q-8 78 -57 136t-133 75v-846q103 17 151 87t54 146h172q-18 -166 -118 -261t-259 -111v-218z
" />
    <glyph glyph-name="sterling" unicode="&#xa3;" horiz-adv-x="1284" 
d="M1161 164v-164h-1007v141l71 60q115 96 137 183q23 87 -24 263h-207v146h164l-23 71q-70 229 -11 380q58 152 176 224t265 72q213 0 337 -119t124 -338h-188q-1 127 -63 215t-214 88t-230 -120q-77 -120 -5 -383l24 -90h455v-146h-416q38 -143 16 -252t-118 -198l-31 -29
v-4h768z" />
    <glyph glyph-name="currency" unicode="&#xa4;" horiz-adv-x="1292" 
d="M276 708q0 110 54 199l-162 162l117 117l159 -162q90 55 201 55t203 -59l168 172l112 -113l-172 -170q56 -89 56 -199t-56 -198l166 -164l-116 -117l-164 166q-88 -53 -199 -53t-199 53l-165 -168l-113 113l168 166q-58 90 -58 200zM416 711q0 -106 63 -176t165 -70
t165 70t63 176t-63 177q-63 70 -165 70t-165 -70q-63 -71 -63 -177z" />
    <glyph glyph-name="yen" unicode="&#xa5;" horiz-adv-x="1230" 
d="M526 0v369h-409v141h409v190h-413v142h352l-420 676h217l352 -605h4l369 605h199l-424 -676h348v-142h-403v-190h407v-141h-407v-369h-181z" />
    <glyph glyph-name="brokenbar" unicode="&#xa6;" horiz-adv-x="591" 
d="M371 -266h-150v897h150v-897zM371 1614v-821h-150v821h150z" />
    <glyph glyph-name="section" unicode="&#xa7;" horiz-adv-x="1220" 
d="M119 721q0 195 213 283v4q-76 78 -76 215t105 227t279 90t267 -89q94 -89 105 -245h-181q-18 193 -196 193q-97 0 -147 -48t-50 -121t33 -114t98 -72l254 -124q156 -78 217 -158t62 -191q0 -190 -197 -280v-4q72 -73 72 -211q-1 -138 -105 -224t-296 -85q-192 0 -294 98
q-103 98 -112 268h184q12 -113 64 -167t160 -54q217 0 217 166q0 70 -32 104t-118 78l-246 123q-145 74 -213 146q-67 73 -67 192zM301 750q0 -123 135 -189l258 -129q76 -41 97 -53q127 45 127 182q0 115 -144 184l-237 119q-55 27 -91 49q-145 -40 -145 -163z" />
    <glyph glyph-name="dieresis" unicode="&#xa8;" horiz-adv-x="755" 
d="M82 1323v203h188v-203h-188zM483 1323v203h189v-203h-189z" />
    <glyph glyph-name="copyright" unicode="&#xa9;" horiz-adv-x="1841" 
d="M926 354q-184 0 -284 114q-99 114 -99 310t104 316q104 121 283 120q141 0 237 -68t107 -202h-154q-6 68 -55 114t-147 46t-159 -86q-60 -86 -61 -232q0 -319 230 -319q106 0 153 55t52 121h143q-14 -139 -110 -214t-240 -75zM920 84q288 0 482 200t194 494t-194 496
q-194 201 -482 201t-482 -200q-192 -200 -192 -496q0 -295 192 -495t482 -200zM113 778q0 346 230 580q231 234 577 233q346 0 577 -233q231 -232 231 -578t-230 -579q-232 -233 -578 -233t-576 232t-231 578z" />
    <glyph glyph-name="ordfeminine" unicode="&#xaa;" horiz-adv-x="952" 
d="M637 797q-75 -158 -293 -158q-112 0 -186 66q-72 66 -72 184q0 150 123 213t422 74v38q0 106 -41 154t-127 49q-86 0 -127 -41t-45 -100h-160q4 118 92 190t251 72t242 -77t79 -251v-338q0 -50 16 -72t61 -22v-131h-24q-102 0 -150 35q-47 35 -59 115h-2zM256 899
q0 -133 155 -133q80 0 150 68t70 206v21q-266 -12 -328 -60q-47 -35 -47 -102z" />
    <glyph glyph-name="guillemotleft" unicode="&#xab;" horiz-adv-x="1114" 
d="M356 950h172l-213 -422l217 -411h-174l-233 418zM778 950h172l-213 -422l215 -411h-172l-233 418z" />
    <glyph glyph-name="logicalnot" unicode="&#xac;" horiz-adv-x="1290" 
d="M1122 260h-166v391h-782v162h948v-553z" />
    <glyph glyph-name="registered" unicode="&#xae;" horiz-adv-x="1050" 
d="M455 1110v-184h-95v460h189q68 0 113 -32t45 -101q0 -106 -99 -129l105 -198h-107l-94 184h-57zM455 1184h75q78 0 78 69q0 63 -76 64h-77v-133zM524 772q152 0 253 106t102 263q1 158 -101 264t-254 106t-252 -106t-100 -264q0 -157 100 -263t252 -106zM82 1141
q0 190 126 319t316 129t318 -129t127 -319q0 -191 -127 -319q-128 -128 -318 -128t-316 128t-126 319z" />
    <glyph glyph-name="macron" unicode="&#xaf;" horiz-adv-x="755" 
d="M78 1323v150h598v-150h-598z" />
    <glyph glyph-name="degree" unicode="&#xb0;" horiz-adv-x="911" 
d="M455 993q92 1 150 63q59 62 59 160t-58 162t-151 64q-91 0 -149 -64t-58 -161q0 -98 58 -161t149 -63zM121 1217q0 143 95 239q96 96 240 96t239 -96t95 -239t-94 -239q-96 -96 -240 -95q-144 0 -240 95q-95 96 -95 239z" />
    <glyph glyph-name="plusminus" unicode="&#xb1;" horiz-adv-x="1296" 
d="M176 0v158h942v-158h-942zM729 715v-393h-166v393h-387v157h387v392h166v-392h389v-157h-389z" />
    <glyph glyph-name="twosuperior" unicode="&#xb2;" horiz-adv-x="825" 
d="M227 1382h-157q2 138 91 218t241 80t228 -70q77 -70 77 -168q-1 -98 -47 -165t-164 -169l-215 -193v-2h442v-127h-662v103l318 295q90 80 128 131t38 111t-41 96t-112 37q-71 -1 -118 -43t-47 -134z" />
    <glyph glyph-name="threesuperior" unicode="&#xb3;" horiz-adv-x="845" 
d="M424 1174h-86v118h80q66 0 110 39t45 97q0 58 -44 94t-111 37q-158 0 -164 -148h-156q0 113 83 191t233 78t232 -68q83 -66 83 -168q0 -68 -43 -121t-115 -78v-4q82 -19 132 -73q51 -54 51 -152t-90 -173t-250 -75t-243 77t-89 193h158q10 -74 60 -112t124 -37
q74 0 125 41q51 42 51 106t-46 101t-130 37z" />
    <glyph glyph-name="acute" unicode="&#xb4;" horiz-adv-x="755" 
d="M240 1282l108 332h207l-178 -332h-137z" />
    <glyph glyph-name="paragraph" unicode="&#xb6;" horiz-adv-x="1255" 
d="M147 1199q0 183 115 275t301 93h152v-1567h-162v821q-186 3 -296 99t-110 279zM881 1567h161v-1567h-161v1567z" />
    <glyph glyph-name="periodcentered" unicode="&#xb7;" horiz-adv-x="487" 
d="M119 518v250h250v-250h-250z" />
    <glyph glyph-name="cedilla" unicode="&#xb8;" horiz-adv-x="1097" 
d="M735 -268q0 -70 -49 -118t-141 -48q-162 0 -174 135h116q10 -45 62 -45q66 0 65 74q0 74 -65 73q-35 0 -55 -24h-111l127 266h90l-88 -180h4q26 23 84 23t96 -43t39 -113z" />
    <glyph glyph-name="onesuperior" unicode="&#xb9;" horiz-adv-x="579" 
d="M244 786v617h-183v102h23q176 0 180 164h131v-883h-151z" />
    <glyph glyph-name="ordmasculine" unicode="&#xba;" horiz-adv-x="962" 
d="M479 1415q-109 0 -165 -87t-56 -243q0 -328 225 -327q221 0 221 328t-225 329zM86 1084q0 206 106 330t293 124t289 -122t102 -329t-107 -331q-108 -124 -293 -123q-185 0 -288 122q-102 123 -102 329z" />
    <glyph glyph-name="guillemotright" unicode="&#xbb;" horiz-adv-x="1114" 
d="M758 117h-172l213 422l-215 411h172l233 -415zM338 117h-174l215 422l-217 411h174l231 -415z" />
    <glyph glyph-name="onequarter" unicode="&#xbc;" horiz-adv-x="1687" 
d="M1606 203h-119v-203h-150v203h-448v112l420 566h178v-555h119v-123zM1343 324v407h-6q-18 -39 -57 -92l-236 -315h299zM141 -82l1121 1681h159l-1120 -1681h-160zM244 684v616h-183v103h23q176 0 180 164h131v-883h-151z" />
    <glyph glyph-name="onehalf" unicode="&#xbd;" horiz-adv-x="1798" 
d="M1200 596h-158q2 139 92 218t240 79q152 0 229 -70t77 -168t-47 -165q-46 -67 -165 -168l-215 -193v-2h443v-127h-662v102l318 295q90 80 128 131q38 52 38 112t-41 96t-112 36t-118 -42t-47 -134zM141 -82l1121 1681h159l-1120 -1681h-160zM244 684v616h-183v103h23
q176 0 180 164h131v-883h-151z" />
    <glyph glyph-name="threequarters" unicode="&#xbe;" horiz-adv-x="1861" 
d="M1780 203h-119v-203h-150v203h-448v112l420 566h178v-555h119v-123zM1518 324v407h-7q-18 -39 -57 -92l-235 -315h299zM354 -82l1121 1681h159l-1120 -1681h-160zM424 1071h-86v119h80q66 0 110 39t45 97q0 58 -44 94t-111 36q-158 0 -164 -147h-156q0 113 83 191t233 77
q150 0 232 -67q83 -67 83 -169q0 -69 -43 -121t-115 -77v-4q82 -19 132 -73q51 -54 51 -152t-90 -174t-250 -74q-160 0 -243 76t-89 194h158q10 -74 60 -112t124 -38t125 41t51 106t-46 101t-130 37z" />
    <glyph glyph-name="questiondown" unicode="&#xbf;" horiz-adv-x="1095" 
d="M446 1370h242v-242h-242v242zM254 162q0 -117 76 -191q76 -73 215 -73t222 96t81 272h174q8 -238 -128 -383t-360 -145t-344 121q-119 121 -118 286q0 99 37 183t75 126q39 42 111 103l76 66q10 10 30 27q21 18 27 24l19 19q30 30 32 61q2 30 2 51v100h168v-131
q0 -20 -2 -38t-3 -32t-8 -29t-9 -23q-3 -8 -15 -24q-12 -14 -15 -20t-21 -22t-23 -20q-4 -4 -29 -25q-25 -20 -30 -27l-101 -86q-139 -114 -139 -266z" />
    <glyph glyph-name="Agrave" unicode="&#xc0;" horiz-adv-x="1507" 
d="M702 1966l123 -272h-145l-193 272h215zM1225 0l-164 467h-627l-162 -467h-190l557 1567h225l563 -1567h-202zM745 1376q-2 -4 -23 -75t-40 -119l-195 -561h521l-197 561l-61 194h-5z" />
    <glyph glyph-name="Aacute" unicode="&#xc1;" horiz-adv-x="1507" 
d="M680 1694l123 272h215l-193 -272h-145zM1225 0l-164 467h-627l-162 -467h-190l557 1567h225l563 -1567h-202zM745 1376q-2 -4 -23 -75t-40 -119l-195 -561h521l-197 561l-61 194h-5z" />
    <glyph glyph-name="Acircumflex" unicode="&#xc2;" horiz-adv-x="1507" 
d="M858 1966l219 -272h-170l-153 155h-2l-154 -155h-152l220 272h192zM1225 0l-164 467h-627l-162 -467h-190l557 1567h225l563 -1567h-202zM745 1376q-2 -4 -23 -75t-40 -119l-195 -561h521l-197 561l-61 194h-5z" />
    <glyph glyph-name="Atilde" unicode="&#xc3;" horiz-adv-x="1507" 
d="M391 1694q0 116 56 196q55 80 145 80t188 -64t127 -65q80 0 97 133h114q0 -116 -56 -196t-159 -80q-74 0 -172 63t-131 64q-78 0 -94 -131h-115zM1225 0l-164 467h-627l-162 -467h-190l557 1567h225l563 -1567h-202zM745 1376q-2 -4 -23 -75t-40 -119l-195 -561h521
l-197 561l-61 194h-5z" />
    <glyph glyph-name="Adieresis" unicode="&#xc4;" horiz-adv-x="1507" 
d="M432 1683v203h189v-203h-189zM874 1683v203h189v-203h-189zM1225 0l-164 467h-627l-162 -467h-190l557 1567h225l563 -1567h-202zM745 1376q-2 -4 -23 -75t-40 -119l-195 -561h521l-197 561l-61 194h-5z" />
    <glyph glyph-name="Aring" unicode="&#xc5;" horiz-adv-x="1507" 
d="M860 1876q0 55 -30 90t-77 35q-48 0 -78 -35t-30 -90t30 -90t78 -35q47 0 77 35t30 90zM756 2095q102 0 162 -60q60 -61 59 -159t-63 -158t-164 -61q-102 0 -162 59q-60 60 -60 158t62 160q64 62 166 61zM1225 0l-164 467h-627l-162 -467h-190l557 1567h225l563 -1567
h-202zM745 1376q-2 -4 -23 -75t-40 -119l-195 -561h521l-197 561l-61 194h-5z" />
    <glyph glyph-name="AE" unicode="&#xc6;" horiz-adv-x="2213" 
d="M2042 1567v-170h-791v-523h725v-165h-725v-539h801v-170h-991v467h-586l-211 -467h-196l720 1567h1254zM1061 621v776h-164l-352 -776h516z" />
    <glyph glyph-name="Ccedilla" unicode="&#xc7;" horiz-adv-x="1574" 
d="M829 -434q-162 0 -174 135h117q10 -45 62 -45q66 0 65 74q0 74 -65 73q-35 0 -56 -24h-110l92 194q-285 25 -453 230t-168 579t195 591q195 218 507 218t488 -211q96 -115 113 -280h-201q-23 137 -125 236t-276 100q-238 0 -368 -178t-130 -481q0 -302 130 -477t364 -175
q192 0 292 106t119 258h195q-18 -225 -180 -372t-414 -148l-51 -104h4q27 23 84 23t96 -43t39 -113t-50 -118t-141 -48z" />
    <glyph glyph-name="Egrave" unicode="&#xc8;" horiz-adv-x="1386" 
d="M668 1966l123 -272h-146l-192 272h215zM213 0v1567h1001v-170h-811v-523h746v-165h-746v-539h822v-170h-1012z" />
    <glyph glyph-name="Eacute" unicode="&#xc9;" horiz-adv-x="1386" 
d="M649 1694l123 272h215l-192 -272h-146zM213 0v1567h1001v-170h-811v-523h746v-165h-746v-539h822v-170h-1012z" />
    <glyph glyph-name="Ecircumflex" unicode="&#xca;" horiz-adv-x="1386" 
d="M823 1966l219 -272h-170l-153 155h-2l-154 -155h-151l219 272h192zM213 0v1567h1001v-170h-811v-523h746v-165h-746v-539h822v-170h-1012z" />
    <glyph glyph-name="Edieresis" unicode="&#xcb;" horiz-adv-x="1386" 
d="M403 1683v203h189v-203h-189zM846 1683v203h188v-203h-188zM213 0v1567h1001v-170h-811v-523h746v-165h-746v-539h822v-170h-1012z" />
    <glyph glyph-name="Igrave" unicode="&#xcc;" horiz-adv-x="618" 
d="M256 1966l123 -272h-146l-192 272h215zM213 0v1567h190v-1567h-190z" />
    <glyph glyph-name="Iacute" unicode="&#xcd;" horiz-adv-x="618" 
d="M233 1694l123 272h215l-192 -272h-146zM213 0v1567h190v-1567h-190z" />
    <glyph glyph-name="Icircumflex" unicode="&#xce;" horiz-adv-x="618" 
d="M412 1966l219 -272h-170l-154 155h-2l-153 -155h-152l219 272h193zM213 0v1567h190v-1567h-190z" />
    <glyph glyph-name="Idieresis" unicode="&#xcf;" horiz-adv-x="618" 
d="M-8 1683v203h188v-203h-188zM434 1683v203h189v-203h-189zM213 0v1567h190v-1567h-190z" />
    <glyph glyph-name="Eth" unicode="&#xd0;" horiz-adv-x="1619" 
d="M434 164h291q559 0 559 633q0 313 -147 459t-400 147h-303v-531h445v-159h-445v-549zM748 0h-504v713h-174v159h174v695h481q344 -1 551 -185t207 -581q1 -397 -199 -599t-536 -202z" />
    <glyph glyph-name="Ntilde" unicode="&#xd1;" horiz-adv-x="1628" 
d="M451 1694q0 116 56 196q55 80 145 80t188 -64t127 -65q80 0 96 133h115q0 -116 -56 -196t-145 -80q-88 0 -186 63t-132 64q-78 0 -94 -131h-114zM213 0v1567h244l696 -1166q39 -61 80 -153h6v1319h180v-1567h-243l-695 1163l-82 152h-4v-1315h-182z" />
    <glyph glyph-name="Ograve" unicode="&#xd2;" horiz-adv-x="1685" 
d="M786 1966l123 -272h-145l-193 272h215zM842 1438q-230 0 -366 -170t-136 -488t136 -489q136 -170 363 -170q228 0 367 173q140 173 140 485q0 311 -138 485t-366 174zM139 778q0 203 57 362q103 292 376 400q124 49 268 49t271 -49q273 -106 379 -399q56 -158 56 -362
q0 -205 -56 -363q-103 -290 -378 -400q-125 -49 -272 -49q-307 0 -504 206t-197 605z" />
    <glyph glyph-name="Oacute" unicode="&#xd3;" horiz-adv-x="1685" 
d="M758 1694l123 272h215l-193 -272h-145zM842 1438q-230 0 -366 -170t-136 -488t136 -489q136 -170 363 -170q228 0 367 173q140 173 140 485q0 311 -138 485t-366 174zM139 778q0 203 57 362q103 292 376 400q124 49 268 49t271 -49q273 -106 379 -399q56 -158 56 -362
q0 -205 -56 -363q-103 -290 -378 -400q-125 -49 -272 -49q-307 0 -504 206t-197 605z" />
    <glyph glyph-name="Ocircumflex" unicode="&#xd4;" horiz-adv-x="1685" 
d="M938 1966l219 -272h-170l-153 155h-3l-153 -155h-152l219 272h193zM842 1438q-230 0 -366 -170t-136 -488t136 -489q136 -170 363 -170q228 0 367 173q140 173 140 485q0 311 -138 485t-366 174zM139 778q0 203 57 362q103 292 376 400q124 49 268 49t271 -49
q273 -106 379 -399q56 -158 56 -362q0 -205 -56 -363q-103 -290 -378 -400q-125 -49 -272 -49q-307 0 -504 206t-197 605z" />
    <glyph glyph-name="Otilde" unicode="&#xd5;" horiz-adv-x="1685" 
d="M479 1694q1 116 57 196t145 80t187 -64t127 -65q80 0 97 133h114q0 -116 -56 -196t-159 -80q-74 0 -172 63t-131 64q-78 0 -94 -131h-115zM842 1438q-230 0 -366 -170t-136 -488t136 -489q136 -170 363 -170q228 0 367 173q140 173 140 485q0 311 -138 485t-366 174z
M139 778q0 203 57 362q103 292 376 400q124 49 268 49t271 -49q273 -106 379 -399q56 -158 56 -362q0 -205 -56 -363q-103 -290 -378 -400q-125 -49 -272 -49q-307 0 -504 206t-197 605z" />
    <glyph glyph-name="Odieresis" unicode="&#xd6;" horiz-adv-x="1685" 
d="M522 1683v203h189v-203h-189zM965 1683v203h188v-203h-188zM842 1438q-230 0 -366 -170t-136 -488t136 -489q136 -170 363 -170q228 0 367 173q140 173 140 485q0 311 -138 485t-366 174zM139 778q0 203 57 362q103 292 376 400q124 49 268 49t271 -49q273 -106 379 -399
q56 -158 56 -362q0 -205 -56 -363q-103 -290 -378 -400q-125 -49 -272 -49q-307 0 -504 206t-197 605z" />
    <glyph glyph-name="multiply" unicode="&#xd7;" horiz-adv-x="1292" 
d="M297 250l-113 112l351 347l-349 344l117 116l346 -348l346 353l113 -113l-352 -348l350 -346l-117 -117l-346 350z" />
    <glyph glyph-name="Oslash" unicode="&#xd8;" horiz-adv-x="1685" 
d="M1546 778q0 -204 -56 -362q-103 -290 -378 -400q-125 -49 -272 -49q-270 0 -451 154l-133 -172h-178l215 278q-154 209 -154 551q0 203 57 362q103 292 376 400q124 49 268 49q238 0 409 -121l121 156h178l-192 -250q190 -217 190 -596zM843 121q224 0 363 173
q140 173 140 469t-103 466l-749 -973q125 -135 349 -135zM840 1438q-228 0 -364 -170t-136 -492q0 -242 72 -395l737 956q-121 101 -309 101z" />
    <glyph glyph-name="Ugrave" unicode="&#xd9;" horiz-adv-x="1564" 
d="M731 1966l123 -272h-145l-193 272h215zM188 522v1045h191v-901q0 -94 3 -152t21 -135q18 -76 56 -121q106 -133 328 -133t327 133q37 45 54 125t19 127q1 47 1 156v901h188v-1045q0 -283 -158 -418t-436 -135q-594 0 -594 553z" />
    <glyph glyph-name="Uacute" unicode="&#xda;" horiz-adv-x="1564" 
d="M709 1694l122 272h216l-193 -272h-145zM188 522v1045h191v-901q0 -94 3 -152t21 -135q18 -76 56 -121q106 -133 328 -133t327 133q37 45 54 125t19 127q1 47 1 156v901h188v-1045q0 -283 -158 -418t-436 -135q-594 0 -594 553z" />
    <glyph glyph-name="Ucircumflex" unicode="&#xdb;" horiz-adv-x="1564" 
d="M887 1966l219 -272h-170l-154 155h-2l-153 -155h-152l219 272h193zM188 522v1045h191v-901q0 -94 3 -152t21 -135q18 -76 56 -121q106 -133 328 -133t327 133q37 45 54 125t19 127q1 47 1 156v901h188v-1045q0 -283 -158 -418t-436 -135q-594 0 -594 553z" />
    <glyph glyph-name="Udieresis" unicode="&#xdc;" horiz-adv-x="1564" 
d="M461 1683v203h188v-203h-188zM903 1683v203h189v-203h-189zM188 522v1045h191v-901q0 -94 3 -152t21 -135q18 -76 56 -121q106 -133 328 -133t327 133q37 45 54 125t19 127q1 47 1 156v901h188v-1045q0 -283 -158 -418t-436 -135q-594 0 -594 553z" />
    <glyph glyph-name="Yacute" unicode="&#xdd;" horiz-adv-x="1337" 
d="M594 1694l123 272h215l-193 -272h-145zM575 0v670l-552 897h221l424 -723h4l440 723h203l-551 -885v-682h-189z" />
    <glyph glyph-name="Thorn" unicode="&#xde;" horiz-adv-x="1308" 
d="M688 352h-285v-352h-190v1567h190v-328h302q231 0 374 -111q143 -112 143 -330t-146 -332t-388 -114zM403 506h297q326 6 326 293q0 155 -83 221t-249 65h-291v-579z" />
    <glyph glyph-name="germandbls" unicode="&#xdf;" horiz-adv-x="1243" 
d="M193 0v1157q0 225 120 338q121 113 317 113t316 -104t119 -290q0 -129 -60 -219t-169 -129v-4q141 -29 225 -127t84 -274q0 -219 -137 -340t-375 -121h-76v158h80q147 0 234 76t87 222q0 148 -84 232t-237 84h-45v158h41q115 0 181 72t65 197q0 126 -69 192
q-68 65 -182 65t-183 -74t-68 -235v-1147h-184z" />
    <glyph glyph-name="agrave" unicode="&#xe0;" horiz-adv-x="1132" 
d="M512 1614l109 -332h-136l-180 332h207zM782 182q-90 -200 -366 -200q-142 0 -232 82t-90 227q0 193 162 272q143 76 522 88v47q0 142 -54 206t-168 64t-168 -52q-54 -54 -60 -132h-176q4 146 110 234t304 88t295 -94t97 -307v-441q0 -68 20 -94t79 -29v-149h-23
q-125 0 -179 45t-69 145h-4zM283 301q1 -170 205 -170q104 0 197 88t93 270v25q-348 -14 -436 -80q-59 -45 -59 -133z" />
    <glyph glyph-name="aacute" unicode="&#xe1;" horiz-adv-x="1132" 
d="M489 1282l109 332h207l-178 -332h-138zM782 182q-90 -200 -366 -200q-142 0 -232 82t-90 227q0 193 162 272q143 76 522 88v47q0 142 -54 206t-168 64t-168 -52q-54 -54 -60 -132h-176q4 146 110 234t304 88t295 -94t97 -307v-441q0 -68 20 -94t79 -29v-149h-23
q-125 0 -179 45t-69 145h-4zM283 301q1 -170 205 -170q104 0 197 88t93 270v25q-348 -14 -436 -80q-59 -45 -59 -133z" />
    <glyph glyph-name="acircumflex" unicode="&#xe2;" horiz-adv-x="1132" 
d="M662 1614l219 -332h-164l-160 207h-2l-160 -207h-145l219 332h193zM782 182q-90 -200 -366 -200q-142 0 -232 82t-90 227q0 193 162 272q143 76 522 88v47q0 142 -54 206t-168 64t-168 -52q-54 -54 -60 -132h-176q4 146 110 234t304 88t295 -94t97 -307v-441
q0 -68 20 -94t79 -29v-149h-23q-125 0 -179 45t-69 145h-4zM283 301q1 -170 205 -170q104 0 197 88t93 270v25q-348 -14 -436 -80q-59 -45 -59 -133z" />
    <glyph glyph-name="atilde" unicode="&#xe3;" horiz-adv-x="1132" 
d="M203 1278q0 115 56 196t159 80q76 0 174 -64t127 -65q80 0 96 134h115q0 -115 -56 -196t-159 -81q-74 0 -172 64t-131 63q-78 0 -95 -131h-114zM782 182q-90 -200 -366 -200q-142 0 -232 82t-90 227q0 193 162 272q143 76 522 88v47q0 142 -54 206t-168 64t-168 -52
q-54 -54 -60 -132h-176q4 146 110 234t304 88t295 -94t97 -307v-441q0 -68 20 -94t79 -29v-149h-23q-125 0 -179 45t-69 145h-4zM283 301q1 -170 205 -170q104 0 197 88t93 270v25q-348 -14 -436 -80q-59 -45 -59 -133z" />
    <glyph glyph-name="adieresis" unicode="&#xe4;" horiz-adv-x="1132" 
d="M270 1323v203h189v-203h-189zM672 1323v203h188v-203h-188zM782 182q-90 -200 -366 -200q-142 0 -232 82t-90 227q0 193 162 272q143 76 522 88v47q0 142 -54 206t-168 64t-168 -52q-54 -54 -60 -132h-176q4 146 110 234t304 88t295 -94t97 -307v-441q0 -68 20 -94
t79 -29v-149h-23q-125 0 -179 45t-69 145h-4zM283 301q1 -170 205 -170q104 0 197 88t93 270v25q-348 -14 -436 -80q-59 -45 -59 -133z" />
    <glyph glyph-name="aring" unicode="&#xe5;" horiz-adv-x="1132" 
d="M576 1622q-48 0 -78 -35t-29 -90q0 -55 30 -90t78 -35q47 0 77 35t30 90t-30 90t-78 35zM573 1278q-102 0 -161 59q-60 59 -60 157t62 160t166 62q102 0 161 -60t59 -158t-62 -160q-63 -60 -165 -60zM782 182q-90 -200 -366 -200q-142 0 -232 82t-90 227q0 193 162 272
q143 76 522 88v47q0 142 -54 206t-168 64t-168 -52q-54 -54 -60 -132h-176q4 146 110 234t304 88t295 -94t97 -307v-441q0 -68 20 -94t79 -29v-149h-23q-125 0 -179 45t-69 145h-4zM283 301q1 -170 205 -170q104 0 197 88t93 270v25q-348 -14 -436 -80q-59 -45 -59 -133z
" />
    <glyph glyph-name="ae" unicode="&#xe6;" horiz-adv-x="1792" 
d="M1257 -27q-164 0 -267 68t-144 174h-6q-129 -233 -404 -233q-162 0 -252 82t-90 227q0 193 162 272q143 76 526 76v59q0 270 -229 271q-111 1 -165 -53t-60 -132h-176q4 147 111 235q108 87 308 87q242 0 326 -182h6q106 182 346 182q117 0 205 -43t139 -118
q101 -149 101 -361v-95h-746q23 -375 307 -374q197 0 246 168h178q-29 -141 -143 -226q-115 -84 -279 -84zM471 131q123 0 217 92t94 266v17q-346 -2 -440 -72q-59 -45 -59 -130t50 -129t138 -44zM1505 635v12q-4 145 -67 233q-62 88 -194 89q-132 0 -206 -93t-88 -241h555z
" />
    <glyph glyph-name="ccedilla" unicode="&#xe7;" horiz-adv-x="1097" 
d="M578 -434q-162 0 -175 135h117q10 -45 62 -45q66 0 65 74q0 74 -65 73q-35 0 -56 -24h-110l96 201q-200 20 -308 166t-108 394t130 406q130 160 354 160q176 0 296 -86t132 -266h-181q-10 90 -72 150t-173 61q-142 0 -220 -115t-77 -307q0 -424 293 -424q135 0 196 74
t68 159h172q-20 -176 -132 -273t-284 -104l-53 -110h4q27 23 85 23t96 -43t38 -113t-49 -118t-141 -48z" />
    <glyph glyph-name="egrave" unicode="&#xe8;" horiz-adv-x="1126" 
d="M545 1614l108 -332h-135l-180 332h207zM584 -27q-238 0 -363 155t-125 405q0 249 128 411t354 162t338 -148t112 -374v-95h-743q20 -375 305 -374q197 0 246 168h178q-29 -141 -144 -225t-286 -85zM840 635v12q-8 319 -265 320q-125 0 -197 -89t-91 -243h553z" />
    <glyph glyph-name="eacute" unicode="&#xe9;" horiz-adv-x="1126" 
d="M510 1282l108 332h207l-178 -332h-137zM584 -27q-238 0 -363 155t-125 405q0 249 128 411t354 162t338 -148t112 -374v-95h-743q20 -375 305 -374q197 0 246 168h178q-29 -141 -144 -225t-286 -85zM840 635v12q-8 319 -265 320q-125 0 -197 -89t-91 -243h553z" />
    <glyph glyph-name="ecircumflex" unicode="&#xea;" horiz-adv-x="1126" 
d="M686 1614l219 -332h-164l-159 207h-2l-160 -207h-146l220 332h192zM584 -27q-238 0 -363 155t-125 405q0 249 128 411t354 162t338 -148t112 -374v-95h-743q20 -375 305 -374q197 0 246 168h178q-29 -141 -144 -225t-286 -85zM840 635v12q-8 319 -265 320
q-125 0 -197 -89t-91 -243h553z" />
    <glyph glyph-name="edieresis" unicode="&#xeb;" horiz-adv-x="1126" 
d="M287 1323v203h188v-203h-188zM688 1323v203h189v-203h-189zM584 -27q-238 0 -363 155t-125 405q0 249 128 411t354 162t338 -148t112 -374v-95h-743q20 -375 305 -374q197 0 246 168h178q-29 -141 -144 -225t-286 -85zM840 635v12q-8 319 -265 320q-125 0 -197 -89
t-91 -243h553z" />
    <glyph glyph-name="igrave" unicode="&#xec;" horiz-adv-x="571" 
d="M248 1614l108 -332h-135l-180 332h207zM193 0v1079h186v-1079h-186z" />
    <glyph glyph-name="iacute" unicode="&#xed;" horiz-adv-x="571" 
d="M213 1282l109 332h206l-178 -332h-137zM193 0v1079h186v-1079h-186z" />
    <glyph glyph-name="icircumflex" unicode="&#xee;" horiz-adv-x="571" 
d="M373 1614l196 -332h-147l-143 207h-3l-143 -207h-131l197 332h174zM193 0v1079h186v-1079h-186z" />
    <glyph glyph-name="idieresis" unicode="&#xef;" horiz-adv-x="571" 
d="M20 1323v203h170v-203h-170zM381 1323v203h170v-203h-170zM193 0v1079h186v-1079h-186z" />
    <glyph glyph-name="eth" unicode="&#xf0;" horiz-adv-x="1165" 
d="M586 965q-150 0 -225 -112t-74 -312q0 -424 297 -424q289 0 288 424q0 215 -68 319t-218 105zM1063 571q0 -289 -126 -443t-357 -155q-231 0 -358 154q-126 154 -126 409q0 256 127 412t328 156q147 0 233 -92h4q-72 154 -219 303l-293 -105l-36 109l233 84
q-86 76 -205 160l156 59q123 -76 219 -158l231 82l37 -108l-174 -64q326 -340 326 -803z" />
    <glyph glyph-name="ntilde" unicode="&#xf1;" horiz-adv-x="1245" 
d="M264 1274q0 116 56 196t146 80q89 0 187 -64t127 -65q80 0 97 133h114q0 -116 -56 -196t-159 -80q-74 0 -172 63t-131 64q-78 0 -94 -131h-115zM879 0v666q0 164 -39 215q-51 71 -183 71t-206 -83t-74 -222v-647h-184v1079h174v-182h4q41 89 133 149t215 60
q344 0 344 -354v-752h-184z" />
    <glyph glyph-name="ograve" unicode="&#xf2;" horiz-adv-x="1161" 
d="M543 1614l108 -332h-135l-180 332h207zM580 965q-146 0 -220 -112t-73 -312q0 -424 297 -424q289 0 288 424q1 424 -292 424zM574 -27q-229 0 -354 154q-124 154 -124 411q0 256 131 412t361 156t352 -154t123 -410q0 -256 -130 -413q-130 -156 -359 -156z" />
    <glyph glyph-name="oacute" unicode="&#xf3;" horiz-adv-x="1161" 
d="M508 1282l108 332h207l-178 -332h-137zM580 965q-146 0 -220 -112t-73 -312q0 -424 297 -424q289 0 288 424q1 424 -292 424zM574 -27q-229 0 -354 154q-124 154 -124 411q0 256 131 412t361 156t352 -154t123 -410q0 -256 -130 -413q-130 -156 -359 -156z" />
    <glyph glyph-name="ocircumflex" unicode="&#xf4;" horiz-adv-x="1161" 
d="M684 1614l219 -332h-164l-159 207h-2l-160 -207h-146l220 332h192zM580 965q-146 0 -220 -112t-73 -312q0 -424 297 -424q289 0 288 424q1 424 -292 424zM574 -27q-229 0 -354 154q-124 154 -124 411q0 256 131 412t361 156t352 -154t123 -410q0 -256 -130 -413
q-130 -156 -359 -156z" />
    <glyph glyph-name="otilde" unicode="&#xf5;" horiz-adv-x="1161" 
d="M217 1278q0 115 56 196t159 80q76 0 174 -64t127 -65q80 0 96 134h115q0 -115 -56 -196t-159 -81q-74 0 -172 64t-131 63q-78 0 -94 -131h-115zM580 965q-146 0 -220 -112t-73 -312q0 -424 297 -424q289 0 288 424q1 424 -292 424zM574 -27q-229 0 -354 154
q-124 154 -124 411q0 256 131 412t361 156t352 -154t123 -410q0 -256 -130 -413q-130 -156 -359 -156z" />
    <glyph glyph-name="odieresis" unicode="&#xf6;" horiz-adv-x="1161" 
d="M285 1323v203h188v-203h-188zM686 1323v203h188v-203h-188zM580 965q-146 0 -220 -112t-73 -312q0 -424 297 -424q289 0 288 424q1 424 -292 424zM574 -27q-229 0 -354 154q-124 154 -124 411q0 256 131 412t361 156t352 -154t123 -410q0 -256 -130 -413
q-130 -156 -359 -156z" />
    <glyph glyph-name="divide" unicode="&#xf7;" horiz-adv-x="1296" 
d="M743 246h-194v198h194v-198zM176 653v158h942v-158h-942zM549 1020v199h194v-199h-194z" />
    <glyph glyph-name="oslash" unicode="&#xf8;" horiz-adv-x="1161" 
d="M1063 533q0 -248 -130 -404t-355 -156q-176 0 -289 88l-92 -116h-154l160 205q-107 145 -107 395q0 249 131 405t355 156q174 0 290 -90l86 110h156l-156 -198q105 -147 105 -395zM584 117q289 0 288 424q0 147 -26 239l-465 -598q72 -65 203 -65zM574 965
q-140 0 -214 -112t-74 -290t29 -266l465 600q-67 68 -206 68z" />
    <glyph glyph-name="ugrave" unicode="&#xf9;" horiz-adv-x="1245" 
d="M584 1614l108 -332h-135l-180 332h207zM371 1079v-663q0 -168 39 -219q53 -72 165 -72q295 0 295 371v583h185v-1079h-176v184h-5q-41 -90 -130 -150t-209 -61q-346 0 -347 355v751h183z" />
    <glyph glyph-name="uacute" unicode="&#xfa;" horiz-adv-x="1245" 
d="M549 1282l108 332h207l-178 -332h-137zM371 1079v-663q0 -168 39 -219q53 -72 165 -72q295 0 295 371v583h185v-1079h-176v184h-5q-41 -90 -130 -150t-209 -61q-346 0 -347 355v751h183z" />
    <glyph glyph-name="ucircumflex" unicode="&#xfb;" horiz-adv-x="1245" 
d="M725 1614l219 -332h-164l-159 207h-3l-159 -207h-146l219 332h193zM371 1079v-663q0 -168 39 -219q53 -72 165 -72q295 0 295 371v583h185v-1079h-176v184h-5q-41 -90 -130 -150t-209 -61q-346 0 -347 355v751h183z" />
    <glyph glyph-name="udieresis" unicode="&#xfc;" horiz-adv-x="1245" 
d="M326 1323v203h188v-203h-188zM727 1323v203h188v-203h-188zM371 1079v-663q0 -168 39 -219q53 -72 165 -72q295 0 295 371v583h185v-1079h-176v184h-5q-41 -90 -130 -150t-209 -61q-346 0 -347 355v751h183z" />
    <glyph glyph-name="yacute" unicode="&#xfd;" horiz-adv-x="1064" 
d="M469 1282l109 332h206l-178 -332h-137zM221 -408q-53 0 -110 13v151q43 -10 94 -10q100 0 146 42t83 155l21 57l-377 1079h184l279 -843h6q18 66 53 170l221 673h185l-394 -1147q-68 -196 -146 -268t-245 -72z" />
    <glyph glyph-name="thorn" unicode="&#xfe;" horiz-adv-x="1251" 
d="M193 -385v1999h184v-713h2q47 93 135 149t205 56q190 0 312 -132t122 -417t-126 -435t-318 -149q-115 1 -205 55t-123 130h-4v-543h-184zM371 500q0 -168 81 -274t228 -107q287 0 287 436q0 403 -289 403q-141 0 -224 -100t-83 -244v-114z" />
    <glyph glyph-name="ydieresis" unicode="&#xff;" horiz-adv-x="1064" 
d="M246 1323v203h188v-203h-188zM647 1323v203h189v-203h-189zM221 -408q-53 0 -110 13v151q43 -10 94 -10q100 0 146 42t83 155l21 57l-377 1079h184l279 -843h6q18 66 53 170l221 673h185l-394 -1147q-68 -196 -146 -268t-245 -72z" />
    <glyph glyph-name="Amacron" unicode="&#x100;" horiz-adv-x="1507" 
d="M455 1745v149h598v-149h-598zM1225 0l-164 467h-627l-162 -467h-190l557 1567h225l563 -1567h-202zM745 1376q-2 -4 -23 -75t-40 -119l-195 -561h521l-197 561l-61 194h-5z" />
    <glyph glyph-name="amacron" unicode="&#x101;" horiz-adv-x="1132" 
d="M266 1323v150h598v-150h-598zM782 182q-90 -200 -366 -200q-142 0 -232 82t-90 227q0 193 162 272q143 76 522 88v47q0 142 -54 206t-168 64t-168 -52q-54 -54 -60 -132h-176q4 146 110 234t304 88t295 -94t97 -307v-441q0 -68 20 -94t79 -29v-149h-23q-125 0 -179 45
t-69 145h-4zM283 301q1 -170 205 -170q104 0 197 88t93 270v25q-348 -14 -436 -80q-59 -45 -59 -133z" />
    <glyph glyph-name="Abreve" unicode="&#x102;" horiz-adv-x="1507" 
d="M760 1829q70 0 114 40t56 118h131q-10 -143 -94 -215t-212 -72t-212 72t-94 215h141q8 -76 54 -117t116 -41zM1225 0l-164 467h-627l-162 -467h-190l557 1567h225l563 -1567h-202zM745 1376q-2 -4 -23 -75t-40 -119l-195 -561h521l-197 561l-61 194h-5z" />
    <glyph glyph-name="abreve" unicode="&#x103;" horiz-adv-x="1132" 
d="M565 1288q-137 0 -222 81t-85 245h141q0 -96 47 -146t125 -51q78 0 125 50t47 147h131q0 -164 -86 -245t-223 -81zM782 182q-90 -200 -366 -200q-142 0 -232 82t-90 227q0 193 162 272q143 76 522 88v47q0 142 -54 206t-168 64t-168 -52q-54 -54 -60 -132h-176
q4 146 110 234t304 88t295 -94t97 -307v-441q0 -68 20 -94t79 -29v-149h-23q-125 0 -179 45t-69 145h-4zM283 301q1 -170 205 -170q104 0 197 88t93 270v25q-348 -14 -436 -80q-59 -45 -59 -133z" />
    <glyph glyph-name="Aogonek" unicode="&#x104;" horiz-adv-x="1507" 
d="M682 1182l-195 -561h519l-195 561l-61 194h-5q-30 -102 -63 -194zM1407 -385h-37q-122 0 -192 49q-70 50 -70 150t121 174l-168 479h-627l-162 -467h-190l557 1567h225l559 -1555q-147 -92 -147 -180t131 -90v-127z" />
    <glyph glyph-name="aogonek" unicode="&#x105;" horiz-adv-x="1132" 
d="M283 301q1 -170 205 -170q104 0 197 88t93 270v25q-348 -14 -436 -80q-59 -45 -59 -133zM782 182q-90 -200 -366 -200q-142 0 -232 82t-90 227q0 193 162 272q143 76 522 88v47q0 142 -54 206t-168 64t-168 -52q-54 -54 -60 -132h-176q4 146 110 234t304 88t295 -94
t97 -307v-441q0 -68 20 -94t79 -29v-139q-147 -86 -148 -172q0 -46 31 -66t100 -22v-127h-36q-125 0 -194 48t-69 140q0 131 172 201v4q-109 35 -127 174h-4z" />
    <glyph glyph-name="Cacute" unicode="&#x106;" horiz-adv-x="1574" 
d="M758 1694l123 272h215l-193 -272h-145zM840 1436q-238 0 -368 -178t-130 -481q0 -302 130 -477t364 -175q192 0 292 106t119 258h195q-18 -227 -182 -373t-424 -147q-317 0 -507 207q-189 207 -189 593t194 604q195 218 507 218t488 -211q96 -115 113 -280h-201
q-23 136 -125 236t-276 100z" />
    <glyph glyph-name="cacute" unicode="&#x107;" horiz-adv-x="1097" 
d="M516 1282l109 332h206l-178 -332h-137zM578 119q135 0 196 74t68 159h172q-18 -182 -138 -279t-301 -98q-229 0 -354 150t-125 406q0 255 130 415t354 160q176 0 296 -86t132 -266h-181q-10 90 -72 150t-173 61q-142 0 -220 -115t-77 -307q0 -424 293 -424z" />
    <glyph glyph-name="Ccircumflex" unicode="&#x108;" horiz-adv-x="1574" 
d="M936 1966l219 -272h-170l-154 155h-2l-153 -155h-152l219 272h193zM840 1436q-238 0 -368 -178t-130 -481q0 -302 130 -477t364 -175q192 0 292 106t119 258h195q-18 -227 -182 -373t-424 -147q-317 0 -507 207q-189 207 -189 593t194 604q195 218 507 218t488 -211
q96 -115 113 -280h-201q-23 136 -125 236t-276 100z" />
    <glyph glyph-name="ccircumflex" unicode="&#x109;" horiz-adv-x="1097" 
d="M692 1614l219 -332h-163l-160 207h-2l-160 -207h-145l219 332h192zM578 119q135 0 196 74t68 159h172q-18 -182 -138 -279t-301 -98q-229 0 -354 150t-125 406q0 255 130 415t354 160q176 0 296 -86t132 -266h-181q-10 90 -72 150t-173 61q-142 0 -220 -115t-77 -307
q0 -424 293 -424z" />
    <glyph glyph-name="Cdotaccent" unicode="&#x10a;" horiz-adv-x="1574" 
d="M735 1714v203h195v-203h-195zM840 1436q-238 0 -368 -178t-130 -481q0 -302 130 -477t364 -175q192 0 292 106t119 258h195q-18 -227 -182 -373t-424 -147q-317 0 -507 207q-189 207 -189 593t194 604q195 218 507 218t488 -211q96 -115 113 -280h-201q-23 136 -125 236
t-276 100z" />
    <glyph glyph-name="cdotaccent" unicode="&#x10b;" horiz-adv-x="1097" 
d="M492 1323v203h194v-203h-194zM578 119q135 0 196 74t68 159h172q-18 -182 -138 -279t-301 -98q-229 0 -354 150t-125 406q0 255 130 415t354 160q176 0 296 -86t132 -266h-181q-10 90 -72 150t-173 61q-142 0 -220 -115t-77 -307q0 -424 293 -424z" />
    <glyph glyph-name="Ccaron" unicode="&#x10c;" horiz-adv-x="1574" 
d="M723 1694l-219 272h170l153 -156h2l154 156h152l-220 -272h-192zM840 1436q-238 0 -368 -178t-130 -481q0 -302 130 -477t364 -175q192 0 292 106t119 258h195q-18 -227 -182 -373t-424 -147q-317 0 -507 207q-189 207 -189 593t194 604q195 218 507 218t488 -211
q96 -115 113 -280h-201q-23 136 -125 236t-276 100z" />
    <glyph glyph-name="ccaron" unicode="&#x10d;" horiz-adv-x="1097" 
d="M479 1282l-219 332h164l160 -207h2l159 207h146l-219 -332h-193zM578 119q135 0 196 74t68 159h172q-18 -182 -138 -279t-301 -98q-229 0 -354 150t-125 406q0 255 130 415t354 160q176 0 296 -86t132 -266h-181q-10 90 -72 150t-173 61q-142 0 -220 -115t-77 -307
q0 -424 293 -424z" />
    <glyph glyph-name="Dcaron" unicode="&#x10e;" horiz-adv-x="1589" 
d="M616 1694l-219 272h170l154 -156h2l154 156h151l-219 -272h-193zM403 164h291q559 0 559 633q0 313 -147 459t-399 147h-304v-1239zM213 0v1567h481q344 -1 551 -185t207 -581t-200 -599t-535 -202h-504z" />
    <glyph glyph-name="dcaron" unicode="&#x10f;" horiz-adv-x="1251" 
d="M1182 1282l35 332h176l-97 -332h-114zM1059 1614v-1614h-176v178h-6q-47 -88 -135 -146t-205 -59q-193 1 -317 135t-124 415t128 432t337 151q115 0 195 -54t114 -137h4v699h185zM879 467v115q0 170 -81 273q-80 103 -222 103t-217 -110t-74 -307q0 -422 286 -422
q139 0 224 98q84 98 84 250z" />
    <glyph glyph-name="Dcroat" unicode="&#x110;" horiz-adv-x="1619" 
d="M434 164h291q559 0 559 633q0 313 -147 459t-400 147h-303v-531h445v-159h-445v-549zM748 0h-504v713h-174v159h174v695h481q344 -1 551 -185t207 -581q1 -397 -199 -599t-536 -202z" />
    <glyph glyph-name="dcroat" unicode="&#x111;" horiz-adv-x="1251" 
d="M96 523q0 281 128 432t337 151q115 0 195 -54t114 -137h4v363h-325v129h325v207h185v-207h155v-129h-155v-1278h-176v178h-6q-47 -88 -135 -146t-205 -59q-193 1 -317 135t-124 415zM879 467v115q0 170 -81 273q-80 103 -222 103t-217 -110t-74 -307q0 -422 286 -422
q139 0 224 98q84 98 84 250z" />
    <glyph glyph-name="Emacron" unicode="&#x112;" horiz-adv-x="1386" 
d="M420 1745v149h598v-149h-598zM213 0v1567h1001v-170h-811v-523h746v-165h-746v-539h822v-170h-1012z" />
    <glyph glyph-name="emacron" unicode="&#x113;" horiz-adv-x="1126" 
d="M283 1323v150h598v-150h-598zM584 -27q-238 0 -363 155t-125 405q0 249 128 411t354 162t338 -148t112 -374v-95h-743q20 -375 305 -374q197 0 246 168h178q-29 -141 -144 -225t-286 -85zM840 635v12q-8 319 -265 320q-125 0 -197 -89t-91 -243h553z" />
    <glyph glyph-name="Ebreve" unicode="&#x114;" horiz-adv-x="1386" 
d="M725 1829q70 0 115 40t55 118h131q-10 -143 -94 -215t-212 -72t-212 72t-94 215h141q8 -76 54 -117t116 -41zM213 0v1567h1001v-170h-811v-523h746v-165h-746v-539h822v-170h-1012z" />
    <glyph glyph-name="ebreve" unicode="&#x115;" horiz-adv-x="1126" 
d="M582 1288q-137 0 -223 81q-85 81 -85 245h142q0 -96 47 -146t125 -51q78 0 125 50t47 147h131q0 -164 -86 -245t-223 -81zM584 -27q-238 0 -363 155t-125 405q0 249 128 411t354 162t338 -148t112 -374v-95h-743q20 -375 305 -374q197 0 246 168h178q-29 -141 -144 -225
t-286 -85zM840 635v12q-8 319 -265 320q-125 0 -197 -89t-91 -243h553z" />
    <glyph glyph-name="Edotaccent" unicode="&#x116;" horiz-adv-x="1386" 
d="M623 1714v203h194v-203h-194zM213 0v1567h1001v-170h-811v-523h746v-165h-746v-539h822v-170h-1012z" />
    <glyph glyph-name="edotaccent" unicode="&#x117;" horiz-adv-x="1126" 
d="M485 1323v203h195v-203h-195zM584 -27q-238 0 -363 155t-125 405q0 249 128 411t354 162t338 -148t112 -374v-95h-743q20 -375 305 -374q197 0 246 168h178q-29 -141 -144 -225t-286 -85zM840 635v12q-8 319 -265 320q-125 0 -197 -89t-91 -243h553z" />
    <glyph glyph-name="Eogonek" unicode="&#x118;" horiz-adv-x="1386" 
d="M213 0v1567h1001v-170h-811v-523h746v-165h-746v-539h822v-170q-129 -84 -129 -170t131 -88v-127h-37q-123 0 -193 49q-69 49 -69 128t45 130t98 78h-858z" />
    <glyph glyph-name="eogonek" unicode="&#x119;" horiz-adv-x="1126" 
d="M575 967q-127 0 -199 -90t-89 -242h553q-4 332 -265 332zM719 -168q0 -88 131 -90v-127h-37q-123 0 -193 48t-69 132q0 55 39 105t96 82v4q-57 -12 -102 -13q-238 0 -363 155t-125 405q0 249 128 411t354 162t338 -148t112 -374v-95h-745q20 -375 307 -374q197 0 246 168
h178q-27 -125 -123 -209q-59 -51 -87 -78t-56 -74t-29 -90z" />
    <glyph glyph-name="Ecaron" unicode="&#x11a;" horiz-adv-x="1386" 
d="M610 1694l-219 272h170l154 -156h2l153 156h152l-219 -272h-193zM213 0v1567h1001v-170h-811v-523h746v-165h-746v-539h822v-170h-1012z" />
    <glyph glyph-name="ecaron" unicode="&#x11b;" horiz-adv-x="1126" 
d="M473 1282l-219 332h164l160 -207h2l159 207h146l-219 -332h-193zM584 -27q-238 0 -363 155t-125 405q0 249 128 411t354 162t338 -148t112 -374v-95h-743q20 -375 305 -374q197 0 246 168h178q-29 -141 -144 -225t-286 -85zM840 635v12q-8 319 -265 320q-125 0 -197 -89
t-91 -243h553z" />
    <glyph glyph-name="Gcircumflex" unicode="&#x11c;" horiz-adv-x="1695" 
d="M956 1966l220 -272h-170l-154 155h-2l-154 -155h-151l219 272h192zM854 1438q-250 0 -382 -180t-132 -489q0 -310 128 -478t358 -168t356 124q125 124 125 353v23h-453v168h639v-791h-166v225h-8q-61 -113 -186 -185t-304 -73q-311 0 -500 206t-189 592t201 605
q202 219 513 219q244 -1 404 -117t188 -321h-199q-21 131 -129 209t-264 78z" />
    <glyph glyph-name="gcircumflex" unicode="&#x11d;" horiz-adv-x="1247" 
d="M651 1614l219 -332h-163l-160 207h-2l-160 -207h-145l219 332h192zM874 213h-2q-45 -84 -136 -141t-208 -58q-188 0 -310 130t-122 402t125 416t330 144q121 0 204 -56t119 -141h5v170h176v-1052q1 -219 -131 -327t-365 -108t-355 123q-69 70 -81 176h178
q33 -152 266 -151q160 0 234 71t73 242v160zM879 489v109q0 162 -84 262q-85 100 -225 100t-213 -108q-73 -110 -73 -300t68 -294q66 -104 228 -104q129 0 214 98t85 237z" />
    <glyph glyph-name="Gbreve" unicode="&#x11e;" horiz-adv-x="1695" 
d="M858 1829q70 0 115 40t55 118h131q-10 -143 -94 -215t-212 -72t-212 72t-94 215h141q8 -76 54 -117t116 -41zM854 1438q-250 0 -382 -180t-132 -489q0 -310 128 -478t358 -168t356 124q125 124 125 353v23h-453v168h639v-791h-166v225h-8q-61 -113 -186 -185t-304 -73
q-311 0 -500 206t-189 592t201 605q202 219 513 219q244 -1 404 -117t188 -321h-199q-21 131 -129 209t-264 78z" />
    <glyph glyph-name="gbreve" unicode="&#x11f;" horiz-adv-x="1247" 
d="M547 1288q-137 0 -222 81t-85 245h141q0 -96 47 -146t125 -51q78 0 125 50t47 147h131q0 -164 -86 -245t-223 -81zM874 213h-2q-45 -84 -136 -141t-208 -58q-188 0 -310 130t-122 402t125 416t330 144q121 0 204 -56t119 -141h5v170h176v-1052q1 -219 -131 -327
t-365 -108t-355 123q-69 70 -81 176h178q33 -152 266 -151q160 0 234 71t73 242v160zM879 489v109q0 162 -84 262q-85 100 -225 100t-213 -108q-73 -110 -73 -300t68 -294q66 -104 228 -104q129 0 214 98t85 237z" />
    <glyph glyph-name="Gdotaccent" unicode="&#x120;" horiz-adv-x="1695" 
d="M750 1714v203h194v-203h-194zM854 1438q-250 0 -382 -180t-132 -489q0 -310 128 -478t358 -168t356 124q125 124 125 353v23h-453v168h639v-791h-166v225h-8q-61 -113 -186 -185t-304 -73q-311 0 -500 206t-189 592t201 605q202 219 513 219q244 -1 404 -117t188 -321
h-199q-21 131 -129 209t-264 78z" />
    <glyph glyph-name="gdotaccent" unicode="&#x121;" horiz-adv-x="1247" 
d="M451 1323v203h194v-203h-194zM874 213h-2q-45 -84 -136 -141t-208 -58q-188 0 -310 130t-122 402t125 416t330 144q121 0 204 -56t119 -141h5v170h176v-1052q1 -219 -131 -327t-365 -108t-355 123q-69 70 -81 176h178q33 -152 266 -151q160 0 234 71t73 242v160zM879 489
v109q0 162 -84 262q-85 100 -225 100t-213 -108q-73 -110 -73 -300t68 -294q66 -104 228 -104q129 0 214 98t85 237z" />
    <glyph glyph-name="Gcommaaccent" unicode="&#x122;" horiz-adv-x="1695" 
d="M725 -422l45 281h199l-127 -281h-117zM854 1438q-250 0 -382 -180t-132 -489q0 -310 128 -478t358 -168t356 124q125 124 125 353v23h-453v168h639v-791h-166v225h-8q-61 -113 -186 -185t-304 -73q-311 0 -500 206t-189 592t201 605q202 219 513 219q244 -1 404 -117
t188 -321h-199q-21 131 -129 209t-264 78z" />
    <glyph glyph-name="gcommaaccent" unicode="&#x123;" horiz-adv-x="1247" 
d="M678 1579l-45 -281h-199l127 281h117zM874 213h-2q-45 -84 -136 -141t-208 -58q-188 0 -310 130t-122 402t125 416t330 144q121 0 204 -56t119 -141h5v170h176v-1052q1 -219 -131 -327t-365 -108t-355 123q-69 70 -81 176h178q33 -152 266 -151q160 0 234 71t73 242v160z
M879 489v109q0 162 -84 262q-85 100 -225 100t-213 -108q-73 -110 -73 -300t68 -294q66 -104 228 -104q129 0 214 98t85 237z" />
    <glyph glyph-name="Hcircumflex" unicode="&#x124;" horiz-adv-x="1628" 
d="M918 1966l219 -272h-170l-154 155h-2l-154 -155h-151l219 272h193zM403 707v-707h-190v1567h190v-690h822v690h190v-1567h-190v707h-822z" />
    <glyph glyph-name="hcircumflex" unicode="&#x125;" horiz-adv-x="1245" 
d="M731 1966l219 -272h-170l-153 155h-2l-154 -155h-152l220 272h192zM879 0v668q0 162 -39 213q-51 71 -183 71t-206 -83t-74 -222v-647h-184v1614h184v-713h4q39 85 127 145t211 60q344 0 344 -354v-752h-184z" />
    <glyph glyph-name="Hbar" unicode="&#x126;" horiz-adv-x="1628" 
d="M403 707v-707h-190v1167h-180v138h180v262h190v-262h822v262h190v-262h180v-138h-180v-1167h-190v707h-822zM1225 877v290h-822v-290h822z" />
    <glyph glyph-name="hbar" unicode="&#x127;" horiz-adv-x="1245" 
d="M377 647v-647h-184v1278h-156v129h156v207h178v-207h331v-129h-331v-377h4q39 85 131 145t213 60q344 0 344 -354v-752h-184v668q0 162 -39 213q-51 71 -183 71t-206 -83t-74 -222z" />
    <glyph glyph-name="Itilde" unicode="&#x128;" horiz-adv-x="618" 
d="M-55 1694q0 116 56 196q55 80 145 80t188 -64t127 -65q80 0 96 133h115q0 -116 -56 -196t-145 -80q-88 0 -186 63t-131 64q-78 0 -95 -131h-114zM213 0v1567h190v-1567h-190z" />
    <glyph glyph-name="itilde" unicode="&#x129;" horiz-adv-x="571" 
d="M-25 1278q1 115 49 196t134 80q63 0 147 -64t109 -65q70 0 82 134h98q0 -115 -48 -196t-136 -81q-64 0 -146 64t-110 63q-68 0 -80 -131h-99zM193 0v1079h186v-1079h-186z" />
    <glyph glyph-name="Imacron" unicode="&#x12a;" horiz-adv-x="618" 
d="M8 1745v149h598v-149h-598zM213 0v1567h190v-1567h-190z" />
    <glyph glyph-name="imacron" unicode="&#x12b;" horiz-adv-x="571" 
d="M47 1323v150h479v-150h-479zM193 0v1079h186v-1079h-186z" />
    <glyph glyph-name="Ibreve" unicode="&#x12c;" horiz-adv-x="618" 
d="M314 1829q70 0 114 40q45 40 55 118h131q-10 -143 -94 -215t-212 -72t-212 72t-94 215h141q9 -76 55 -117t116 -41zM213 0v1567h190v-1567h-190z" />
    <glyph glyph-name="ibreve" unicode="&#x12d;" horiz-adv-x="571" 
d="M287 1288q-123 0 -200 81t-77 245h127q0 -96 42 -146t112 -51q71 0 113 50t42 147h117q-1 -164 -77 -245t-199 -81zM193 0v1079h186v-1079h-186z" />
    <glyph glyph-name="Iogonek" unicode="&#x12e;" horiz-adv-x="618" 
d="M348 -385q-262 1 -262 201q0 102 127 176v1575h190v-1553q-77 -49 -113 -91t-36 -91q0 -88 131 -90v-127h-37z" />
    <glyph glyph-name="iogonek" unicode="&#x12f;" horiz-adv-x="571" 
d="M348 -385h-37q-123 0 -193 49t-69 128q0 79 46 130t98 76v1081h186v-1056q-92 -61 -127 -101t-35 -90q0 -88 131 -90v-127zM188 1325v199h195v-199h-195z" />
    <glyph glyph-name="Idotaccent" unicode="&#x130;" horiz-adv-x="618" 
d="M211 1714v203h195v-203h-195zM213 0v1567h190v-1567h-190z" />
    <glyph glyph-name="dotlessi" unicode="&#x131;" horiz-adv-x="571" 
d="M193 0v1079h186v-1079h-186z" />
    <glyph glyph-name="IJ" unicode="&#x132;" horiz-adv-x="1384" 
d="M213 0v1567h190v-1567h-190zM696 -6h-65v162h22q215 0 279 66q63 67 63 251v1094h191v-1110q0 -247 -119 -355t-371 -108z" />
    <glyph glyph-name="ij" unicode="&#x133;" horiz-adv-x="1142" 
d="M639 -408q-61 0 -111 15v155q41 -12 104 -12q132 0 132 154v1175h186v-1190q0 -153 -85 -225t-226 -72zM760 1325v199h194v-199h-194zM193 0v1079h186v-1079h-186zM188 1325v199h195v-199h-195z" />
    <glyph glyph-name="Jcircumflex" unicode="&#x134;" horiz-adv-x="868" 
d="M682 1966l219 -272h-170l-153 155h-3l-153 -155h-152l219 272h193zM139 -6h-86v162h43q299 0 356 128q28 64 27 189v1094h191v-1110q0 -246 -131 -355q-132 -108 -400 -108z" />
    <glyph glyph-name="jcircumflex" unicode="&#x135;" horiz-adv-x="571" 
d="M373 1614l196 -332h-147l-143 207h-3l-143 -207h-131l197 332h174zM60 -250q134 0 133 154v1175h186v-1190q0 -153 -85 -225t-226 -72q-60 1 -111 15v155q39 -12 103 -12z" />
    <glyph glyph-name="Kcommaaccent" unicode="&#x136;" horiz-adv-x="1462" 
d="M621 -422l45 281h198l-127 -281h-116zM403 0h-190v1567h190v-805l734 805h229l-602 -658l645 -909h-229l-547 766l-230 -252v-514z" />
    <glyph glyph-name="kcommaaccent" unicode="&#x137;" horiz-adv-x="1142" 
d="M465 -422l45 281h199l-127 -281h-117zM377 0h-184v1614h184v-1055l450 520h215l-360 -405l405 -674h-215l-315 532l-180 -202v-330z" />
    <glyph glyph-name="kgreenlandic" unicode="&#x138;" horiz-adv-x="1142" 
d="M377 0h-184v1079h184v-520l450 520h215l-360 -405l405 -674h-215l-315 532l-180 -202v-330z" />
    <glyph glyph-name="Lacute" unicode="&#x139;" horiz-adv-x="1234" 
d="M242 1694l123 272h215l-193 -272h-145zM213 0v1567h190v-1397h779v-170h-969z" />
    <glyph glyph-name="lacute" unicode="&#x13a;" horiz-adv-x="567" 
d="M209 1704l123 272h215l-193 -272h-145zM193 0v1614h184v-1614h-184z" />
    <glyph glyph-name="Lcommaaccent" unicode="&#x13b;" horiz-adv-x="1234" 
d="M559 -422l45 281h199l-127 -281h-117zM213 0v1567h190v-1397h779v-170h-969z" />
    <glyph glyph-name="lcommaaccent" unicode="&#x13c;" horiz-adv-x="567" 
d="M137 -422l45 281h199l-127 -281h-117zM193 0v1614h184v-1614h-184z" />
    <glyph glyph-name="Lcaron" unicode="&#x13d;" horiz-adv-x="1234" 
d="M213 0v1567h190v-1397h779v-170h-969zM643 1214l55 400h197l-117 -400h-135z" />
    <glyph glyph-name="lcaron" unicode="&#x13e;" horiz-adv-x="567" 
d="M498 1282l34 332h177l-97 -332h-114zM193 0v1614h184v-1614h-184z" />
    <glyph glyph-name="Ldot" unicode="&#x13f;" horiz-adv-x="1234" 
d="M807 692v238h237v-238h-237zM213 0v1567h190v-1397h779v-170h-969z" />
    <glyph glyph-name="ldot" unicode="&#x140;" horiz-adv-x="792" 
d="M578 709v206h206v-206h-206zM193 0v1614h184v-1614h-184z" />
    <glyph glyph-name="Lslash" unicode="&#x141;" horiz-adv-x="1234" 
d="M213 0v594l-166 -66v170l166 66v803h190v-727l506 198v-170l-506 -198v-500h779v-170h-969z" />
    <glyph glyph-name="lslash" unicode="&#x142;" horiz-adv-x="583" 
d="M385 0h-184v657l-170 -122v170l170 122v787h184v-653l174 124v-170l-174 -124v-791z" />
    <glyph glyph-name="Nacute" unicode="&#x143;" horiz-adv-x="1628" 
d="M741 1694l123 272h215l-192 -272h-146zM213 0v1567h244l696 -1166q39 -61 80 -153h6v1319h180v-1567h-243l-695 1163l-82 152h-4v-1315h-182z" />
    <glyph glyph-name="nacute" unicode="&#x144;" horiz-adv-x="1245" 
d="M604 1282l109 332h207l-179 -332h-137zM879 0v666q0 164 -39 215q-51 71 -183 71t-206 -83t-74 -222v-647h-184v1079h174v-182h4q41 89 133 149t215 60q344 0 344 -354v-752h-184z" />
    <glyph glyph-name="Ncommaaccent" unicode="&#x145;" horiz-adv-x="1628" 
d="M678 -422l45 281h199l-127 -281h-117zM213 0v1567h244l696 -1166q39 -61 80 -153h6v1319h180v-1567h-243l-695 1163l-82 152h-4v-1315h-182z" />
    <glyph glyph-name="ncommaaccent" unicode="&#x146;" horiz-adv-x="1245" 
d="M489 -422l46 281h198l-127 -281h-117zM879 0v666q0 164 -39 215q-51 71 -183 71t-206 -83t-74 -222v-647h-184v1079h174v-182h4q41 89 133 149t215 60q344 0 344 -354v-752h-184z" />
    <glyph glyph-name="Ncaron" unicode="&#x147;" horiz-adv-x="1628" 
d="M707 1694l-220 272h170l154 -156h2l154 156h151l-219 -272h-192zM213 0v1567h244l696 -1166q39 -61 80 -153h6v1319h180v-1567h-243l-695 1163l-82 152h-4v-1315h-182z" />
    <glyph glyph-name="ncaron" unicode="&#x148;" horiz-adv-x="1245" 
d="M518 1282l-219 332h164l160 -207h2l159 207h146l-219 -332h-193zM879 0v666q0 164 -39 215q-51 71 -183 71t-206 -83t-74 -222v-647h-184v1079h174v-182h4q41 89 133 149t215 60q344 0 344 -354v-752h-184z" />
    <glyph glyph-name="napostrophe" unicode="&#x149;" horiz-adv-x="1245" 
d="M72 1333l45 281h198l-127 -281h-116zM879 0v666q0 164 -39 215q-51 71 -183 71t-206 -83t-74 -222v-647h-184v1079h174v-182h4q41 89 133 149t215 60q344 0 344 -354v-752h-184z" />
    <glyph glyph-name="Eng" unicode="&#x14a;" horiz-adv-x="1628" 
d="M926 -385h-66v162h23q188 0 266 50t88 167l-750 1169l-88 152h-4v-1315h-182v1567h238l696 -1084q39 -60 78 -139l8 -20h6v1243h180v-1534q1 -418 -493 -418z" />
    <glyph glyph-name="eng" unicode="&#x14b;" horiz-adv-x="1245" 
d="M754 -408q-57 0 -99 13v155q41 -10 97 -10q126 0 127 154v762q0 164 -39 215q-51 71 -183 71t-206 -83t-74 -222v-647h-184v1079h174v-182h4q41 89 133 149t215 60q344 0 344 -354v-863q0 -153 -84 -225t-225 -72z" />
    <glyph glyph-name="Omacron" unicode="&#x14c;" horiz-adv-x="1685" 
d="M543 1745v149h598v-149h-598zM842 1438q-230 0 -366 -170t-136 -488t136 -489q136 -170 363 -170q228 0 367 173q140 173 140 485q0 311 -138 485t-366 174zM139 778q0 203 57 362q103 292 376 400q124 49 268 49t271 -49q273 -106 379 -399q56 -158 56 -362
q0 -205 -56 -363q-103 -290 -378 -400q-125 -49 -272 -49q-307 0 -504 206t-197 605z" />
    <glyph glyph-name="omacron" unicode="&#x14d;" horiz-adv-x="1161" 
d="M281 1323v150h598v-150h-598zM580 965q-146 0 -220 -112t-73 -312q0 -424 297 -424q289 0 288 424q1 424 -292 424zM574 -27q-229 0 -354 154q-124 154 -124 411q0 256 131 412t361 156t352 -154t123 -410q0 -256 -130 -413q-130 -156 -359 -156z" />
    <glyph glyph-name="Obreve" unicode="&#x14e;" horiz-adv-x="1685" 
d="M848 1829q70 0 115 40t55 118h131q-10 -143 -94 -215t-212 -72t-212 72t-94 215h141q8 -76 54 -117t116 -41zM842 1438q-230 0 -366 -170t-136 -488t136 -489q136 -170 363 -170q228 0 367 173q140 173 140 485q0 311 -138 485t-366 174zM139 778q0 203 57 362
q103 292 376 400q124 49 268 49t271 -49q273 -106 379 -399q56 -158 56 -362q0 -205 -56 -363q-103 -290 -378 -400q-125 -49 -272 -49q-307 0 -504 206t-197 605z" />
    <glyph glyph-name="obreve" unicode="&#x14f;" horiz-adv-x="1161" 
d="M580 1288q-137 0 -223 81q-85 81 -85 245h142q0 -96 47 -146t125 -51q78 0 125 50t47 147h131q0 -164 -86 -245t-223 -81zM580 965q-146 0 -220 -112t-73 -312q0 -424 297 -424q289 0 288 424q1 424 -292 424zM574 -27q-229 0 -354 154q-124 154 -124 411q0 256 131 412
t361 156t352 -154t123 -410q0 -256 -130 -413q-130 -156 -359 -156z" />
    <glyph glyph-name="Ohungarumlaut" unicode="&#x150;" horiz-adv-x="1685" 
d="M633 1714l67 273h187l-137 -273h-117zM920 1714l67 273h187l-138 -273h-116zM842 1438q-230 0 -366 -170t-136 -488t136 -489q136 -170 363 -170q228 0 367 173q140 173 140 485q0 311 -138 485t-366 174zM139 778q0 203 57 362q103 292 376 400q124 49 268 49t271 -49
q273 -106 379 -399q56 -158 56 -362q0 -205 -56 -363q-103 -290 -378 -400q-125 -49 -272 -49q-307 0 -504 206t-197 605z" />
    <glyph glyph-name="ohungarumlaut" unicode="&#x151;" horiz-adv-x="1161" 
d="M373 1282l108 332h187l-179 -332h-116zM659 1282l109 332h186l-178 -332h-117zM580 965q-146 0 -220 -112t-73 -312q0 -424 297 -424q289 0 288 424q1 424 -292 424zM574 -27q-229 0 -354 154q-124 154 -124 411q0 256 131 412t361 156t352 -154t123 -410
q0 -256 -130 -413q-130 -156 -359 -156z" />
    <glyph glyph-name="OE" unicode="&#x152;" horiz-adv-x="2476" 
d="M850 -33q-319 0 -515 206t-196 605q0 205 57 363q104 292 374 399q124 49 268 49q344 0 483 -235h2v213h981v-170h-791v-523h725v-165h-725v-539h801v-170h-991v203h-2q-152 -236 -471 -236zM1323 692v191q0 260 -125 407q-125 148 -357 148q-233 0 -367 -169t-134 -489
t133 -489q133 -170 372 -170q239 1 359 151t119 420z" />
    <glyph glyph-name="oe" unicode="&#x153;" horiz-adv-x="1904" 
d="M1362 -27q-295 0 -395 250q-109 -250 -389 -250q-233 0 -358 154q-124 154 -124 411q0 256 131 412t355 156q291 0 391 -252q106 252 383 252q227 0 339 -148t111 -374v-95h-743q20 -375 305 -374q197 0 246 168h178q-29 -141 -143 -226q-115 -84 -287 -84zM580 965
q-146 0 -220 -112t-73 -312q0 -424 297 -424q289 0 288 424q1 424 -292 424zM1618 635v12q-8 319 -264 320q-125 0 -198 -89t-91 -243h553z" />
    <glyph glyph-name="Racute" unicode="&#x154;" horiz-adv-x="1417" 
d="M627 1694l123 272h215l-193 -272h-145zM403 664v-664h-190v1567h567q170 0 303 -70q203 -113 203 -371q0 -346 -336 -432v-4l346 -690h-221l-323 664h-349zM403 821h361q147 0 234 75t87 221t-86 220t-227 74h-369v-590z" />
    <glyph glyph-name="racute" unicode="&#x155;" horiz-adv-x="800" 
d="M389 1282l109 332h207l-179 -332h-137zM193 0v1079h174v-202h4q39 91 134 157t208 66h18v-193h-35q-147 0 -233 -83t-86 -236v-588h-184z" />
    <glyph glyph-name="Rcommaaccent" unicode="&#x156;" horiz-adv-x="1417" 
d="M563 -422l45 281h199l-127 -281h-117zM403 664v-664h-190v1567h567q170 0 303 -70q203 -113 203 -371q0 -346 -336 -432v-4l346 -690h-221l-323 664h-349zM403 821h361q147 0 234 75t87 221t-86 220t-227 74h-369v-590z" />
    <glyph glyph-name="rcommaaccent" unicode="&#x157;" horiz-adv-x="800" 
d="M139 -422l45 281h199l-127 -281h-117zM193 0v1079h174v-202h4q39 91 134 157t208 66h18v-193h-35q-147 0 -233 -83t-86 -236v-588h-184z" />
    <glyph glyph-name="Rcaron" unicode="&#x158;" horiz-adv-x="1417" 
d="M592 1694l-219 272h170l153 -156h2l154 156h152l-220 -272h-192zM403 664v-664h-190v1567h567q170 0 303 -70q203 -113 203 -371q0 -346 -336 -432v-4l346 -690h-221l-323 664h-349zM403 821h361q147 0 234 75t87 221t-86 220t-227 74h-369v-590z" />
    <glyph glyph-name="rcaron" unicode="&#x159;" horiz-adv-x="800" 
d="M352 1282l-219 332h164l160 -207h2l159 207h146l-219 -332h-193zM193 0v1079h174v-202h4q39 91 134 157t208 66h18v-193h-35q-147 0 -233 -83t-86 -236v-588h-184z" />
    <glyph glyph-name="Sacute" unicode="&#x15a;" horiz-adv-x="1462" 
d="M659 1694l123 272h215l-192 -272h-146zM743 1438q-155 0 -241 -77t-86 -190t62 -175t200 -89l221 -39q221 -41 316 -146t96 -282q-1 -219 -147 -345t-418 -126t-424 129q-154 129 -166 342h198q18 -137 116 -227t284 -90q188 0 275 82t87 219q0 217 -266 262l-219 39
q-416 78 -416 426q0 193 145 315t387 123q243 -1 375 -119t142 -323h-195q-16 129 -94 210t-232 81z" />
    <glyph glyph-name="sacute" unicode="&#x15b;" horiz-adv-x="1030" 
d="M440 1282l109 332h207l-178 -332h-138zM510 967q-94 0 -152 -49t-59 -120q0 -71 39 -105t123 -48l166 -24q167 -27 237 -100t70 -223t-116 -238q-116 -87 -300 -87t-301 83t-127 249h180q18 -190 246 -190q112 0 176 49t64 126q0 76 -33 112t-137 53l-166 24
q-150 25 -222 93t-73 210q0 140 105 232q104 92 282 92t276 -77t113 -220h-176q-9 74 -65 116t-150 42z" />
    <glyph glyph-name="Scircumflex" unicode="&#x15c;" horiz-adv-x="1462" 
d="M838 1966l219 -272h-170l-154 155h-2l-153 -155h-152l219 272h193zM743 1438q-155 0 -241 -77t-86 -190t62 -175t200 -89l221 -39q221 -41 316 -146t96 -282q-1 -219 -147 -345t-418 -126t-424 129q-154 129 -166 342h198q18 -137 116 -227t284 -90q188 0 275 82t87 219
q0 217 -266 262l-219 39q-416 78 -416 426q0 193 145 315t387 123q243 -1 375 -119t142 -323h-195q-16 129 -94 210t-232 81z" />
    <glyph glyph-name="scircumflex" unicode="&#x15d;" horiz-adv-x="1030" 
d="M616 1614l220 -332h-164l-160 207h-2l-160 -207h-145l219 332h192zM510 967q-94 0 -152 -49t-59 -120q0 -71 39 -105t123 -48l166 -24q167 -27 237 -100t70 -223t-116 -238q-116 -87 -300 -87t-301 83t-127 249h180q18 -190 246 -190q112 0 176 49t64 126q0 76 -33 112
t-137 53l-166 24q-150 25 -222 93t-73 210q0 140 105 232q104 92 282 92t276 -77t113 -220h-176q-9 74 -65 116t-150 42z" />
    <glyph glyph-name="Scedilla" unicode="&#x15e;" horiz-adv-x="1462" 
d="M725 -434q-162 0 -174 135h117q10 -45 61 -45q66 0 66 74t-66 73q-35 0 -55 -24h-111l92 194q-227 21 -358 147t-141 320h198q18 -137 116 -227t284 -90q188 0 275 82t87 219q0 217 -266 262l-219 39q-416 78 -416 426q0 193 145 315t387 123q242 0 374 -119t143 -323
h-195q-16 129 -94 210t-232 81q-155 0 -241 -77t-86 -190t62 -175t200 -89l221 -39q221 -41 316 -146t96 -282q-1 -219 -147 -345t-421 -126l-51 -104h4q26 23 84 23t97 -43t39 -113t-50 -118q-49 -48 -141 -48z" />
    <glyph glyph-name="scedilla" unicode="&#x15f;" horiz-adv-x="1030" 
d="M504 -434q-162 0 -174 135h116q10 -45 62 -45q66 0 65 74q0 74 -65 73q-35 0 -55 -24h-111l94 198q-150 17 -244 99t-102 229h180q18 -190 246 -190q112 0 176 49t64 126q0 76 -33 112t-137 53l-166 24q-150 25 -222 93t-73 210q0 140 105 232q104 92 282 92t276 -77
t113 -220h-176q-9 74 -65 116t-150 42t-152 -49t-59 -120q0 -71 39 -105t123 -48l166 -24q167 -27 237 -100t70 -223t-115 -237q-115 -88 -295 -88l-53 -108h4q27 23 85 23t96 -43t38 -113t-49 -118t-141 -48z" />
    <glyph glyph-name="Scaron" unicode="&#x160;" horiz-adv-x="1462" 
d="M635 1694l-219 272h170l153 -156h2l154 156h152l-220 -272h-192zM743 1438q-155 0 -241 -77t-86 -190t62 -175t200 -89l221 -39q221 -41 316 -146t96 -282q-1 -219 -147 -345t-418 -126t-424 129q-154 129 -166 342h198q18 -137 116 -227t284 -90q188 0 275 82t87 219
q0 217 -266 262l-219 39q-416 78 -416 426q0 193 145 315t387 123q243 -1 375 -119t142 -323h-195q-16 129 -94 210t-232 81z" />
    <glyph glyph-name="scaron" unicode="&#x161;" horiz-adv-x="1030" 
d="M403 1282l-219 332h164l160 -207h2l160 207h145l-219 -332h-193zM510 967q-94 0 -152 -49t-59 -120q0 -71 39 -105t123 -48l166 -24q167 -27 237 -100t70 -223t-116 -238q-116 -87 -300 -87t-301 83t-127 249h180q18 -190 246 -190q112 0 176 49t64 126q0 76 -33 112
t-137 53l-166 24q-150 25 -222 93t-73 210q0 140 105 232q104 92 282 92t276 -77t113 -220h-176q-9 74 -65 116t-150 42z" />
    <glyph glyph-name="Tcommaaccent" unicode="&#x162;" horiz-adv-x="1337" 
d="M530 -422l45 281h199l-127 -281h-117zM1307 1567v-166h-543v-1401h-191v1401h-542v166h1276z" />
    <glyph glyph-name="tcommaaccent" unicode="&#x163;" horiz-adv-x="743" 
d="M344 -422l45 281h199l-127 -281h-117zM252 1393h168v-314h266v-141h-266v-637q0 -86 38 -123t126 -37l118 11v-156q-76 -12 -170 -12q-296 0 -294 286v668h-197v135h33q110 0 144 44t34 198v78z" />
    <glyph glyph-name="Tcaron" unicode="&#x164;" horiz-adv-x="1337" 
d="M559 1694l-219 272h170l154 -156h2l153 156h152l-219 -272h-193zM1307 1567v-166h-543v-1401h-191v1401h-542v166h1276z" />
    <glyph glyph-name="tcaron" unicode="&#x165;" horiz-adv-x="743" 
d="M588 1282l35 332h176l-97 -332h-114zM252 1393h168v-314h266v-141h-266v-637q0 -86 38 -123t126 -37l118 11v-156q-76 -12 -170 -12q-296 0 -294 286v668h-197v135h33q110 0 144 44t34 198v78z" />
    <glyph glyph-name="Tbar" unicode="&#x166;" horiz-adv-x="1337" 
d="M764 872v-872h-191v872h-409v138h409v391h-542v166h1276v-166h-543v-391h410v-138h-410z" />
    <glyph glyph-name="tbar" unicode="&#x167;" horiz-adv-x="743" 
d="M532 -16q-296 0 -294 286v244h-197v141h197v283h-197v135h33q110 0 144 44t34 198v78h168v-314h266v-141h-266v-283h266v-141h-266v-213q0 -86 38 -123t126 -37l118 11v-156q-76 -12 -170 -12z" />
    <glyph glyph-name="Utilde" unicode="&#x168;" horiz-adv-x="1564" 
d="M420 1694q0 116 56 196t146 80t187 -64q98 -64 127 -65q80 0 96 133h115q0 -116 -56 -196t-159 -80q-74 0 -172 63t-131 64q-78 0 -94 -131h-115zM188 522v1045h191v-901q0 -94 3 -152t21 -135q18 -76 56 -121q106 -133 328 -133t327 133q37 45 54 125t19 127q1 47 1 156
v901h188v-1045q0 -283 -158 -418t-436 -135q-594 0 -594 553z" />
    <glyph glyph-name="utilde" unicode="&#x169;" horiz-adv-x="1245" 
d="M258 1278q0 115 56 196t159 80q76 0 174 -64t127 -65q80 0 96 134h115q0 -115 -56 -196t-159 -81q-74 0 -172 64t-131 63q-78 0 -94 -131h-115zM371 1079v-663q0 -168 39 -219q53 -72 165 -72q295 0 295 371v583h185v-1079h-176v184h-5q-41 -90 -130 -150t-209 -61
q-346 0 -347 355v751h183z" />
    <glyph glyph-name="Umacron" unicode="&#x16a;" horiz-adv-x="1564" 
d="M483 1745v149h598v-149h-598zM188 522v1045h191v-901q0 -94 3 -152t21 -135q18 -76 56 -121q106 -133 328 -133t327 133q37 45 54 125t19 127q1 47 1 156v901h188v-1045q0 -283 -158 -418t-436 -135q-594 0 -594 553z" />
    <glyph glyph-name="umacron" unicode="&#x16b;" horiz-adv-x="1245" 
d="M322 1323v150h598v-150h-598zM371 1079v-663q0 -168 39 -219q53 -72 165 -72q295 0 295 371v583h185v-1079h-176v184h-5q-41 -90 -130 -150t-209 -61q-346 0 -347 355v751h183z" />
    <glyph glyph-name="Ubreve" unicode="&#x16c;" horiz-adv-x="1564" 
d="M788 1829q70 0 115 40t55 118h132q-10 -143 -94 -215t-213 -72q-128 0 -212 72t-94 215h141q8 -76 54 -117t116 -41zM188 522v1045h191v-901q0 -94 3 -152t21 -135q18 -76 56 -121q106 -133 328 -133t327 133q37 45 54 125t19 127q1 47 1 156v901h188v-1045
q0 -283 -158 -418t-436 -135q-594 0 -594 553z" />
    <glyph glyph-name="ubreve" unicode="&#x16d;" horiz-adv-x="1245" 
d="M621 1288q-137 0 -223 81q-85 81 -85 245h142q0 -96 47 -146t125 -51q78 0 125 50t47 147h131q0 -164 -86 -245t-223 -81zM371 1079v-663q0 -168 39 -219q53 -72 165 -72q295 0 295 371v583h185v-1079h-176v184h-5q-41 -90 -130 -150t-209 -61q-346 0 -347 355v751h183z
" />
    <glyph glyph-name="Uring" unicode="&#x16e;" horiz-adv-x="1564" 
d="M783 2001q-47 0 -77 -35t-30 -90t30 -90t78 -35t77 35q30 35 30 90t-30 90t-78 35zM559 1874q1 98 63 160t164 61q102 0 162 -60q60 -61 60 -159t-63 -158t-165 -61q-102 0 -162 59q-59 60 -59 158zM188 522v1045h191v-901q0 -94 3 -152t21 -135q18 -76 56 -121
q106 -133 328 -133t327 133q37 45 54 125t19 127q1 47 1 156v901h188v-1045q0 -283 -158 -418t-436 -135q-594 0 -594 553z" />
    <glyph glyph-name="uring" unicode="&#x16f;" horiz-adv-x="1245" 
d="M729 1497q1 55 -29 90t-78 35t-78 -35t-30 -90t30 -90t78 -35t78 35t29 90zM619 1278q-102 0 -162 59q-59 59 -59 157t62 160t164 62t162 -60t60 -158t-62 -160q-62 -60 -165 -60zM371 1079v-663q0 -168 39 -219q53 -72 165 -72q295 0 295 371v583h185v-1079h-176v184h-5
q-41 -90 -130 -150t-209 -61q-346 0 -347 355v751h183z" />
    <glyph glyph-name="Uhungarumlaut" unicode="&#x170;" horiz-adv-x="1564" 
d="M575 1714l68 273h186l-137 -273h-117zM862 1714l68 273h186l-137 -273h-117zM188 522v1045h191v-901q0 -94 3 -152t21 -135q18 -76 56 -121q106 -133 328 -133t327 133q37 45 54 125t19 127q1 47 1 156v901h188v-1045q0 -283 -158 -418t-436 -135q-594 0 -594 553z" />
    <glyph glyph-name="uhungarumlaut" unicode="&#x171;" horiz-adv-x="1245" 
d="M412 1282l108 332h187l-179 -332h-116zM698 1282l109 332h186l-178 -332h-117zM371 1079v-663q0 -168 39 -219q53 -72 165 -72q295 0 295 371v583h185v-1079h-176v184h-5q-41 -90 -130 -150t-209 -61q-346 0 -347 355v751h183z" />
    <glyph glyph-name="Uogonek" unicode="&#x172;" horiz-adv-x="1564" 
d="M188 522v1045h191v-901q0 -94 3 -152t21 -135q18 -76 56 -121q106 -133 328 -133t327 133q37 45 54 125t19 127q1 47 1 156v901h188v-1045q0 -250 -112 -372t-295 -162q-84 -18 -126 -62t-42 -94q0 -88 131 -90v-127h-37q-123 0 -193 49t-70 143t101 164
q-545 23 -545 551z" />
    <glyph glyph-name="uogonek" unicode="&#x173;" horiz-adv-x="1245" 
d="M1055 -385h-37q-283 0 -283 190q0 66 46 118t98 77v184h-5q-41 -90 -130 -150t-209 -61q-346 0 -347 355v751h183v-663q0 -168 39 -219q53 -72 165 -72q295 0 295 371v583h185v-1065q-80 -49 -116 -91t-36 -93q0 -50 37 -68t115 -20v-127z" />
    <glyph glyph-name="Wcircumflex" unicode="&#x174;" horiz-adv-x="2197" 
d="M1202 1966l219 -272h-170l-153 155h-2l-154 -155h-151l219 272h192zM735 0h-211l-448 1567h194l308 -1110q39 -151 51 -224l4 -26h4q12 92 53 248l301 1112h221l304 -1110q38 -132 53 -224l4 -26h4q10 92 53 248l305 1112h187l-449 -1567h-213l-307 1092q-37 131 -51 223
l-4 28h-4q-12 -94 -56 -249z" />
    <glyph glyph-name="wcircumflex" unicode="&#x175;" horiz-adv-x="1701" 
d="M954 1614l220 -332h-164l-160 207h-2l-160 -207h-145l219 332h192zM391 0l-336 1079h189l209 -727l34 -137h5q20 72 40 135l230 729h188l228 -729l39 -135h4q16 72 34 135l213 729h179l-334 -1079h-195l-264 864h-2q-37 -131 -68 -229l-198 -635h-195z" />
    <glyph glyph-name="Ycircumflex" unicode="&#x176;" horiz-adv-x="1337" 
d="M772 1966l219 -272h-170l-153 155h-2l-154 -155h-152l220 272h192zM575 0v670l-552 897h221l424 -723h4l440 723h203l-551 -885v-682h-189z" />
    <glyph glyph-name="ycircumflex" unicode="&#x177;" horiz-adv-x="1064" 
d="M645 1614l219 -332h-164l-159 207h-2l-160 -207h-146l220 332h192zM221 -408q-53 0 -110 13v151q43 -10 94 -10q100 0 146 42t83 155l21 57l-377 1079h184l279 -843h6q18 66 53 170l221 673h185l-394 -1147q-68 -196 -146 -268t-245 -72z" />
    <glyph glyph-name="Ydieresis" unicode="&#x178;" horiz-adv-x="1337" 
d="M352 1683v203h189v-203h-189zM795 1683v203h188v-203h-188zM575 0v670l-552 897h221l424 -723h4l440 723h203l-551 -885v-682h-189z" />
    <glyph glyph-name="Zacute" unicode="&#x179;" horiz-adv-x="1339" 
d="M596 1694l123 272h215l-193 -272h-145zM129 1399v168h1098v-146l-889 -1253h905v-168h-1147v145l891 1254h-858z" />
    <glyph glyph-name="zacute" unicode="&#x17a;" horiz-adv-x="1058" 
d="M479 1282l109 332h207l-179 -332h-137zM135 930v149h813v-159l-633 -768h648v-152h-857v162l629 768h-600z" />
    <glyph glyph-name="Zdotaccent" unicode="&#x17b;" horiz-adv-x="1339" 
d="M573 1714v203h195v-203h-195zM129 1399v168h1098v-146l-889 -1253h905v-168h-1147v145l891 1254h-858z" />
    <glyph glyph-name="zdotaccent" unicode="&#x17c;" horiz-adv-x="1058" 
d="M455 1323v203h194v-203h-194zM135 930v149h813v-159l-633 -768h648v-152h-857v162l629 768h-600z" />
    <glyph glyph-name="Zcaron" unicode="&#x17d;" horiz-adv-x="1339" 
d="M561 1694l-219 272h170l154 -156h2l153 156h152l-219 -272h-193zM129 1399v168h1098v-146l-889 -1253h905v-168h-1147v145l891 1254h-858z" />
    <glyph glyph-name="zcaron" unicode="&#x17e;" horiz-adv-x="1058" 
d="M442 1282l-219 332h164l160 -207h2l160 207h145l-219 -332h-193zM135 930v149h813v-159l-633 -768h648v-152h-857v162l629 768h-600z" />
    <glyph glyph-name="florin" unicode="&#x192;" horiz-adv-x="860" 
d="M41 752v141h227l47 358q47 356 381 357q49 0 105 -11v-151q-41 8 -111 8t-120 -43q-52 -43 -68 -164l-47 -354h266v-141h-287l-153 -1139h-185l152 1139h-207z" />
    <glyph glyph-name="Aringacute" unicode="&#x1fa;" horiz-adv-x="1507" 
d="M680 2157l123 272h215l-193 -272h-145zM860 1876q0 55 -30 90t-77 35q-48 0 -78 -35t-30 -90t30 -90t78 -35q47 0 77 35t30 90zM756 2095q102 0 162 -60q60 -61 59 -159t-63 -158t-164 -61q-102 0 -162 59q-60 60 -60 158t62 160q64 62 166 61zM1225 0l-164 467h-627
l-162 -467h-190l557 1567h225l563 -1567h-202zM745 1376q-2 -4 -23 -75t-40 -119l-195 -561h521l-197 561l-61 194h-5z" />
    <glyph glyph-name="aringacute" unicode="&#x1fb;" horiz-adv-x="1132" 
d="M512 1722l123 273h215l-193 -273h-145zM576 1546q-48 0 -78 -35t-29 -90q0 -55 30 -90t78 -35q47 0 77 35t30 90t-30 90t-78 35zM573 1202q-102 0 -161 60q-60 60 -60 157t62 159t166 62q102 0 161 -60t59 -158t-62 -160q-63 -60 -165 -60zM782 182q-90 -200 -366 -200
q-142 0 -232 82t-90 227q0 193 162 272q143 76 522 88v47q0 142 -54 206t-168 64t-168 -52q-54 -54 -60 -132h-176q4 146 110 234t304 88t295 -94t97 -307v-441q0 -68 20 -94t79 -29v-149h-23q-125 0 -179 45t-69 145h-4zM283 301q1 -170 205 -170q104 0 197 88t93 270v25
q-348 -14 -436 -80q-59 -45 -59 -133z" />
    <glyph glyph-name="AEacute" unicode="&#x1fc;" horiz-adv-x="2213" 
d="M1087 1694l123 272h215l-192 -272h-146zM2042 1567v-170h-791v-523h725v-165h-725v-539h801v-170h-991v467h-586l-211 -467h-196l720 1567h1254zM1061 621v776h-164l-352 -776h516z" />
    <glyph glyph-name="aeacute" unicode="&#x1fd;" horiz-adv-x="1792" 
d="M858 1282l109 332h207l-179 -332h-137zM1257 -27q-164 0 -267 68t-144 174h-6q-129 -233 -404 -233q-162 0 -252 82t-90 227q0 193 162 272q143 76 526 76v59q0 270 -229 271q-111 1 -165 -53t-60 -132h-176q4 147 111 235q108 87 308 87q242 0 326 -182h6
q106 182 346 182q117 0 205 -43t139 -118q101 -149 101 -361v-95h-746q23 -375 307 -374q197 0 246 168h178q-29 -141 -143 -226q-115 -84 -279 -84zM471 131q123 0 217 92t94 266v17q-346 -2 -440 -72q-59 -45 -59 -130t50 -129t138 -44zM1505 635v12q-4 145 -67 233
q-62 88 -194 89q-132 0 -206 -93t-88 -241h555z" />
    <glyph glyph-name="Oslashacute" unicode="&#x1fe;" horiz-adv-x="1685" 
d="M739 1694l123 272h215l-192 -272h-146zM1546 778q0 -204 -56 -362q-103 -290 -378 -400q-125 -49 -272 -49q-270 0 -451 154l-133 -172h-178l215 278q-154 209 -154 551q0 203 57 362q103 292 376 400q124 49 268 49q238 0 409 -121l121 156h178l-192 -250
q190 -217 190 -596zM843 121q224 0 363 173q140 173 140 469t-103 466l-749 -973q125 -135 349 -135zM840 1438q-228 0 -364 -170t-136 -492q0 -242 72 -395l737 956q-121 101 -309 101z" />
    <glyph glyph-name="oslashacute" unicode="&#x1ff;" horiz-adv-x="1161" 
d="M504 1282l108 332h207l-178 -332h-137zM1063 533q0 -248 -130 -404t-355 -156q-176 0 -289 88l-92 -116h-154l160 205q-107 145 -107 395q0 249 131 405t355 156q174 0 290 -90l86 110h156l-156 -198q105 -147 105 -395zM584 117q289 0 288 424q0 147 -26 239l-465 -598
q72 -65 203 -65zM574 965q-140 0 -214 -112t-74 -290t29 -266l465 600q-67 68 -206 68z" />
    <glyph glyph-name="Scommaaccent" unicode="&#x218;" horiz-adv-x="1462" 
d="M596 -422l45 281h199l-127 -281h-117zM743 1438q-155 0 -241 -77t-86 -190t62 -175t200 -89l221 -39q221 -41 316 -146t96 -282q-1 -219 -147 -345t-418 -126t-424 129q-154 129 -166 342h198q18 -137 116 -227t284 -90q188 0 275 82t87 219q0 217 -266 262l-219 39
q-416 78 -416 426q0 193 145 315t387 123q243 -1 375 -119t142 -323h-195q-16 129 -94 210t-232 81z" />
    <glyph glyph-name="scommaaccent" unicode="&#x219;" horiz-adv-x="1030" 
d="M375 -422l45 281h198l-126 -281h-117zM510 967q-94 0 -152 -49t-59 -120q0 -71 39 -105t123 -48l166 -24q167 -27 237 -100t70 -223t-116 -238q-116 -87 -300 -87t-301 83t-127 249h180q18 -190 246 -190q112 0 176 49t64 126q0 76 -33 112t-137 53l-166 24
q-150 25 -222 93t-73 210q0 140 105 232q104 92 282 92t276 -77t113 -220h-176q-9 74 -65 116t-150 42z" />
    <glyph glyph-name="uni021A" unicode="&#x21a;" horiz-adv-x="1337" 
d="M530 -422l45 281h199l-127 -281h-117zM1307 1567v-166h-543v-1401h-191v1401h-542v166h1276z" />
    <glyph glyph-name="uni021B" unicode="&#x21b;" horiz-adv-x="743" 
d="M344 -422l45 281h199l-127 -281h-117zM252 1393h168v-314h266v-141h-266v-637q0 -86 38 -123t126 -37l118 11v-156q-76 -12 -170 -12q-296 0 -294 286v668h-197v135h33q110 0 144 44t34 198v78z" />
    <glyph glyph-name="uni0237" unicode="&#x237;" horiz-adv-x="571" 
d="M60 -250q134 0 133 154v1175h186v-1190q0 -153 -85 -225t-226 -72q-60 1 -111 15v155q39 -12 103 -12z" />
    <glyph glyph-name="circumflex" unicode="&#x2c6;" horiz-adv-x="755" 
d="M475 1614l219 -332h-164l-159 207h-2l-160 -207h-146l220 332h192z" />
    <glyph glyph-name="caron" unicode="&#x2c7;" horiz-adv-x="755" 
d="M283 1282l-220 332h164l160 -207h2l160 207h145l-219 -332h-192z" />
    <glyph glyph-name="breve" unicode="&#x2d8;" horiz-adv-x="755" 
d="M377 1288q-137 0 -222 81t-85 245h141q0 -96 47 -146t125 -51q78 0 125 50t47 147h131q0 -164 -86 -245t-223 -81z" />
    <glyph glyph-name="dotaccent" unicode="&#x2d9;" horiz-adv-x="755" 
d="M281 1323v203h194v-203h-194z" />
    <glyph glyph-name="ring" unicode="&#x2da;" horiz-adv-x="755" 
d="M386 1622q-48 0 -78 -35t-30 -90t30 -90t78 -35t78 35t30 90t-30 90t-78 35zM383 1278q-102 0 -162 59q-59 59 -59 157t62 160t164 62t162 -60t60 -158t-62 -160q-63 -60 -165 -60z" />
    <glyph glyph-name="ogonek" unicode="&#x2db;" horiz-adv-x="755" 
d="M414 -170q0 -86 131 -88v-127h-37q-123 0 -193 49q-69 49 -69 128t45 130t98 78h154q-129 -84 -129 -170z" />
    <glyph glyph-name="tilde" unicode="&#x2dc;" horiz-adv-x="755" 
d="M14 1278q0 115 56 196t159 80q76 0 174 -64t127 -65q80 0 97 134h114q0 -115 -56 -196t-159 -81q-74 0 -172 64t-131 63q-78 0 -94 -131h-115z" />
    <glyph glyph-name="hungarumlaut" unicode="&#x2dd;" horiz-adv-x="755" 
d="M96 1282l109 332h186l-178 -332h-117zM383 1282l109 332h186l-178 -332h-117z" />
    <glyph glyph-name="Wgrave" unicode="&#x1e80;" horiz-adv-x="2197" 
d="M1047 1966l122 -272h-145l-193 272h216zM735 0h-211l-448 1567h194l308 -1110q39 -151 51 -224l4 -26h4q12 92 53 248l301 1112h221l304 -1110q38 -132 53 -224l4 -26h4q10 92 53 248l305 1112h187l-449 -1567h-213l-307 1092q-37 131 -51 223l-4 28h-4q-12 -94 -56 -249
z" />
    <glyph glyph-name="wgrave" unicode="&#x1e81;" horiz-adv-x="1701" 
d="M813 1614l109 -332h-136l-180 332h207zM391 0l-336 1079h189l209 -727l34 -137h5q20 72 40 135l230 729h188l228 -729l39 -135h4q16 72 34 135l213 729h179l-334 -1079h-195l-264 864h-2q-37 -131 -68 -229l-198 -635h-195z" />
    <glyph glyph-name="Wacute" unicode="&#x1e82;" horiz-adv-x="2197" 
d="M1024 1694l123 272h215l-193 -272h-145zM735 0h-211l-448 1567h194l308 -1110q39 -151 51 -224l4 -26h4q12 92 53 248l301 1112h221l304 -1110q38 -132 53 -224l4 -26h4q10 92 53 248l305 1112h187l-449 -1567h-213l-307 1092q-37 131 -51 223l-4 28h-4q-12 -94 -56 -249
z" />
    <glyph glyph-name="wacute" unicode="&#x1e83;" horiz-adv-x="1701" 
d="M778 1282l109 332h207l-179 -332h-137zM391 0l-336 1079h189l209 -727l34 -137h5q20 72 40 135l230 729h188l228 -729l39 -135h4q16 72 34 135l213 729h179l-334 -1079h-195l-264 864h-2q-37 -131 -68 -229l-198 -635h-195z" />
    <glyph glyph-name="Wdieresis" unicode="&#x1e84;" horiz-adv-x="2197" 
d="M782 1683v203h189v-203h-189zM1225 1683v203h188v-203h-188zM735 0h-211l-448 1567h194l308 -1110q39 -151 51 -224l4 -26h4q12 92 53 248l301 1112h221l304 -1110q38 -132 53 -224l4 -26h4q10 92 53 248l305 1112h187l-449 -1567h-213l-307 1092q-37 131 -51 223l-4 28
h-4q-12 -94 -56 -249z" />
    <glyph glyph-name="wdieresis" unicode="&#x1e85;" horiz-adv-x="1701" 
d="M555 1323v203h188v-203h-188zM956 1323v203h189v-203h-189zM391 0l-336 1079h189l209 -727l34 -137h5q20 72 40 135l230 729h188l228 -729l39 -135h4q16 72 34 135l213 729h179l-334 -1079h-195l-264 864h-2q-37 -131 -68 -229l-198 -635h-195z" />
    <glyph glyph-name="Ygrave" unicode="&#x1ef2;" horiz-adv-x="1337" 
d="M616 1966l123 -272h-145l-193 272h215zM575 0v670l-552 897h221l424 -723h4l440 723h203l-551 -885v-682h-189z" />
    <glyph glyph-name="ygrave" unicode="&#x1ef3;" horiz-adv-x="1064" 
d="M504 1614l108 -332h-135l-180 332h207zM221 -408q-53 0 -110 13v151q43 -10 94 -10q100 0 146 42t83 155l21 57l-377 1079h184l279 -843h6q18 66 53 170l221 673h185l-394 -1147q-68 -196 -146 -268t-245 -72z" />
    <glyph glyph-name="uni2009" unicode="&#x2009;" horiz-adv-x="204" 
 />
    <glyph glyph-name="endash" unicode="&#x2013;" horiz-adv-x="1126" 
d="M123 598v145h881v-145h-881z" />
    <glyph glyph-name="emdash" unicode="&#x2014;" horiz-adv-x="1843" 
d="M123 598v145h1597v-145h-1597z" />
    <glyph glyph-name="quoteleft" unicode="&#x2018;" horiz-adv-x="468" 
d="M379 1567l-90 -451h-228l187 451h131z" />
    <glyph glyph-name="quoteright" unicode="&#x2019;" horiz-adv-x="468" 
d="M90 1114l90 453h228l-187 -453h-131z" />
    <glyph glyph-name="quotesinglbase" unicode="&#x201a;" horiz-adv-x="468" 
d="M102 -231l91 452h227l-187 -452h-131z" />
    <glyph glyph-name="quotedblleft" unicode="&#x201c;" horiz-adv-x="808" 
d="M379 1567l-90 -451h-228l187 451h131zM719 1567l-90 -451h-228l187 451h131z" />
    <glyph glyph-name="quotedblright" unicode="&#x201d;" horiz-adv-x="806" 
d="M90 1114l90 453h228l-187 -453h-131zM428 1114l92 453h225l-184 -453h-133z" />
    <glyph glyph-name="quotedblbase" unicode="&#x201e;" horiz-adv-x="808" 
d="M102 -231l91 452h227l-187 -452h-131zM440 -231l92 452h226l-185 -452h-133z" />
    <glyph glyph-name="dagger" unicode="&#x2020;" horiz-adv-x="667" 
d="M408 1223v-629h-146v629h-192v135h192v209h146v-209h190v-135h-190z" />
    <glyph glyph-name="daggerdbl" unicode="&#x2021;" horiz-adv-x="667" 
d="M408 803v-209h-146v209h-192v135h192v285h-192v135h192v209h146v-209h192v-135h-192v-285h192v-135h-192z" />
    <glyph glyph-name="bullet" unicode="&#x2022;" horiz-adv-x="671" 
d="M333 408q-95 0 -156 61q-60 61 -60 159t63 162q62 64 158 64t156 -62t61 -162q0 -100 -63 -161q-64 -61 -159 -61z" />
    <glyph glyph-name="ellipsis" unicode="&#x2026;" horiz-adv-x="1626" 
d="M119 0v250h250v-250h-250zM688 0v250h250v-250h-250zM1257 0v250h250v-250h-250z" />
    <glyph glyph-name="perthousand" unicode="&#x2030;" horiz-adv-x="2625" 
d="M1341 117q84 0 134 61q49 61 49 179q0 117 -48 179t-135 62q-180 0 -180 -240t180 -241zM2142 117q86 0 134 61t48 179q0 117 -48 179t-134 62q-180 0 -180 -240t180 -241zM1342 -14q-152 0 -248 96t-97 274q1 178 99 274t248 95q150 0 249 -95q99 -94 99 -272t-100 -275
t-250 -97zM2143 -14q-151 0 -248 96t-97 274t98 274t249 95q151 0 249 -95q98 -94 98 -272t-99 -275t-250 -97zM477 911q84 -1 133 61t49 180t-48 179t-134 62q-180 0 -180 -241t180 -241zM827 1152q0 -176 -99 -274t-250 -98t-248 96t-97 275q0 178 98 273q98 96 249 96
t249 -96t98 -272zM272 -82l1121 1681h172l-1121 -1681h-172z" />
    <glyph glyph-name="uni2032" unicode="&#x2032;" horiz-adv-x="468" 
d="M127 1114l16 453h228l-113 -453h-131z" />
    <glyph glyph-name="uni2033" unicode="&#x2033;" horiz-adv-x="806" 
d="M127 1114l16 453h228l-113 -453h-131zM465 1114l18 453h226l-111 -453h-133z" />
    <glyph glyph-name="guilsinglleft" unicode="&#x2039;" horiz-adv-x="694" 
d="M356 950h172l-213 -422l217 -411h-174l-233 418z" />
    <glyph glyph-name="guilsinglright" unicode="&#x203a;" horiz-adv-x="694" 
d="M338 117h-174l215 422l-217 411h174l231 -415z" />
    <glyph glyph-name="fraction" unicode="&#x2044;" horiz-adv-x="473" 
d="M-403 -82l1120 1681h160l-1121 -1681h-159z" />
    <glyph glyph-name="Euro" unicode="&#x20ac;" horiz-adv-x="1363" 
d="M776 -33q-463 0 -538 547h-172v145h157q-2 31 -2 95t2 92h-162v145h177q43 273 184 411t345 138t342 -121t151 -338h-183q-14 123 -94 215t-207 93q-289 0 -348 -398h475v-145h-489q-2 -29 -2 -92t2 -95h493v-145h-479q61 -399 348 -399q141 0 221 86t93 223h182
q-14 -207 -144 -332t-352 -125z" />
    <glyph glyph-name="trademark" unicode="&#x2122;" horiz-adv-x="1431" 
d="M666 940v627h176l127 -365l22 -94h6q6 39 25 94l129 365h176v-627h-119v483h-8q-12 -55 -37 -127l-123 -356h-100l-123 354l-35 129h-8v-483h-108zM555 1567v-101h-193v-526h-120v526h-193v101h506z" />
    <glyph glyph-name="onethird" unicode="&#x2153;" horiz-adv-x="1779" 
d="M1358 387h-86v119h80q66 0 110 39t45 97q0 58 -44 94t-111 36q-158 0 -164 -147h-156q0 113 83 191t233 77q150 0 232 -67q83 -67 83 -169q0 -69 -43 -121t-115 -77v-4q82 -19 132 -73q51 -54 51 -152t-90 -174t-250 -74q-160 0 -243 76t-89 194h158q10 -74 60 -112
t124 -38t125 41t51 106t-46 101t-130 37zM117 -82l1120 1681h160l-1121 -1681h-159zM244 684v616h-183v103h23q176 0 180 164h131v-883h-151z" />
    <glyph glyph-name="twothirds" unicode="&#x2154;" horiz-adv-x="1970" 
d="M1548 387h-86v119h80q66 0 111 39t45 97t-44 94t-112 36q-158 0 -164 -147h-155q0 113 83 191t232 77q149 0 232 -67t83 -169q0 -69 -43 -121t-114 -77v-4q82 -19 132 -73t50 -152t-90 -174t-250 -74q-160 0 -243 76t-89 194h158q10 -74 60 -112t124 -38t125 41t51 106
t-46 101t-130 37zM352 -82l1121 1681h159l-1120 -1681h-160zM227 1280h-157q2 139 91 218t241 79t228 -70q77 -70 77 -168q-1 -99 -47 -165t-164 -168l-215 -193v-2h442v-127h-662v102l318 295q90 80 128 131q38 52 38 112t-41 96t-112 36t-118 -42t-47 -134z" />
    <glyph glyph-name="oneeighth" unicode="&#x215b;" horiz-adv-x="1802" 
d="M1368 92q80 0 130 38t50 112t-50 112t-130 37q-80 0 -132 -38q-52 -37 -52 -111t52 -112t132 -38zM1520 642q0 68 -43 102q-43 36 -112 36t-112 -36t-43 -104t44 -104t111 -36t111 37t44 105zM1061 653q0 106 80 173t225 67t225 -68t80 -174q0 -152 -143 -196v-4
q172 -39 172 -213q0 -111 -89 -184q-89 -72 -246 -72t-245 70t-88 172t49 156t123 71v4q-143 44 -143 198zM125 -82l1120 1681h160l-1120 -1681h-160zM244 684v616h-183v103h23q176 0 180 164h131v-883h-151z" />
    <glyph glyph-name="threeeighths" unicode="&#x215c;" horiz-adv-x="1972" 
d="M1538 102q80 0 130 38t50 112t-50 112t-130 38t-132 -38t-52 -112t52 -112t132 -38zM1535 791q-69 0 -112 -36t-43 -104q0 -69 44 -105t111 -36t111 37t44 105t-43 103q-43 36 -112 36zM1231 664q0 106 80 173t225 67t225 -68t80 -174q0 -152 -143 -197v-4
q172 -39 172 -213q0 -112 -89 -184t-246 -72t-245 70t-88 172t49 156t123 71v4q-143 45 -143 199zM332 -82l1120 1681h160l-1120 -1681h-160zM424 1071h-86v119h80q66 0 110 39t45 97q0 58 -44 94t-111 36q-158 0 -164 -147h-156q0 113 83 191t233 77q150 0 232 -67
q83 -67 83 -169q0 -69 -43 -121t-115 -77v-4q82 -19 132 -73q51 -54 51 -152t-90 -174t-250 -74q-160 0 -243 76t-89 194h158q10 -74 60 -112t124 -38t125 41t51 106t-46 101t-130 37z" />
    <glyph glyph-name="fiveeighths" unicode="&#x215d;" horiz-adv-x="1957" 
d="M1524 92q80 0 130 38t50 112t-50 112t-130 37q-80 0 -132 -38q-52 -37 -52 -111t52 -112t132 -38zM1366 640q0 -68 44 -104t111 -36t111 37t43 105t-43 102q-42 36 -111 36t-112 -36t-43 -104zM1217 653q0 106 79 173q80 67 226 67t225 -68q80 -68 80 -174
q0 -152 -144 -196v-4q172 -39 172 -213q0 -111 -89 -184q-90 -72 -246 -72t-244 70t-88 172t49 156t123 71v4q-143 44 -143 198zM319 -82l1121 1681h159l-1120 -1681h-160zM588 967q0 84 -49 131t-145 47t-148 -70h-131l43 490h532v-127h-407l-23 -244h2q64 72 190 72
t210 -77t84 -215t-92 -223q-91 -85 -252 -85q-160 0 -236 74t-84 184h154q12 -135 172 -136q74 0 127 48t53 131z" />
    <glyph glyph-name="seveneighths" unicode="&#x215e;" horiz-adv-x="1818" 
d="M1384 92q80 0 130 38t51 112q-1 74 -51 112t-130 37q-80 0 -132 -38q-52 -37 -52 -111t52 -112t132 -38zM1536 642q0 68 -43 102q-43 36 -112 36t-111 -36t-43 -104q0 -68 44 -104q45 -36 111 -36t110 37t44 105zM1077 653q0 106 80 173t225 67q146 0 226 -68t80 -174
q0 -152 -144 -196v-4q172 -39 172 -213q0 -111 -89 -184q-89 -72 -246 -72t-245 70t-87 172q0 102 49 156t123 71v4q-144 44 -144 198zM125 -82l1120 1681h160l-1120 -1681h-160zM51 1436v129h631v-92l-389 -789h-162l373 752h-453z" />
    <glyph glyph-name="minus" unicode="&#x2212;" horiz-adv-x="1290" 
d="M174 651v162h948v-162h-948z" />
    <glyph glyph-name="approxequal" unicode="&#x2248;" horiz-adv-x="1296" 
d="M219 436q-1 117 59 192t177 74q77 0 199 -60t167 -60t68 26t35 99h120q0 -115 -60 -191t-156 -76t-220 60q-125 60 -169 61q-43 1 -67 -27t-32 -98h-121zM219 768q-1 118 59 192t177 74q77 0 199 -60t167 -60t68 26q23 27 35 98h120q0 -114 -60 -190t-156 -76t-220 60
q-125 60 -169 61q-43 0 -67 -28t-32 -97h-121z" />
    <glyph glyph-name="notequal" unicode="&#x2260;" horiz-adv-x="1296" 
d="M174 469v156h338l106 215h-444v155h522l121 246h166l-121 -246h260v-155h-338l-106 -215h444v-156h-522l-121 -246h-166l121 246h-260z" />
    <glyph glyph-name="lessequal" unicode="&#x2264;" horiz-adv-x="1296" 
d="M1122 0h-958v158h958v-158zM1122 270l-958 402v143l958 402v-179l-723 -295l723 -294v-179z" />
    <glyph glyph-name="greaterequal" unicode="&#x2265;" horiz-adv-x="1296" 
d="M1133 0h-959v158h959v-158zM174 1217l959 -402v-143l-959 -402v179l723 294l-723 295v179z" />
    <glyph glyph-name="uni24C5" unicode="&#x24c5;" horiz-adv-x="1841" 
d="M821 776h125q168 0 168 161t-166 161h-127v-322zM821 367h-141v837h272q137 0 222 -64q84 -65 84 -201t-88 -203q-87 -67 -230 -66h-119v-303zM920 84q288 0 482 200t194 494t-194 496q-194 201 -482 201t-482 -200q-192 -200 -192 -496q0 -295 192 -495t482 -200z
M113 778q0 346 230 580q231 234 577 233q346 0 577 -233q231 -232 231 -578t-230 -579q-232 -233 -578 -233t-576 232t-231 578z" />
    <glyph glyph-name="quotedblright.sc" horiz-adv-x="806" 
d="M90 866l90 453h228l-187 -453h-131zM428 866l92 453h225l-184 -453h-133z" />
    <glyph glyph-name="Ibreve.sc" horiz-adv-x="636" 
d="M317 1524q-137 0 -222 81t-85 244h142q0 -96 47 -146t125 -50t125 50t47 146h131q-1 -165 -87 -245t-223 -80zM225 0v1319h187v-1319h-187z" />
    <glyph glyph-name="exclamdown.uc" horiz-adv-x="573" 
d="M166 1567h242v-242h-242v242zM369 1081l22 -1128h-209l25 1128h162z" />
    <glyph glyph-name="hyphen.uc" horiz-adv-x="815" 
d="M123 680v166h569v-166h-569z" />
    <glyph glyph-name="endash.uc" horiz-adv-x="1126" 
d="M123 690v146h881v-146h-881z" />
    <glyph glyph-name="emdash.uc" horiz-adv-x="1843" 
d="M123 690v146h1597v-146h-1597z" />
    <glyph glyph-name="guilsinglleft.uc" horiz-adv-x="694" 
d="M356 1073h172l-213 -422l217 -411h-174l-233 417z" />
    <glyph glyph-name="guilsinglright.uc" horiz-adv-x="694" 
d="M338 240h-174l215 422l-217 411h174l231 -416z" />
    <glyph glyph-name="guillemotleft.uc" horiz-adv-x="1114" 
d="M356 1073h172l-213 -422l217 -411h-174l-233 417zM778 1073h172l-213 -422l215 -411h-172l-233 417z" />
    <glyph glyph-name="guillemotright.uc" horiz-adv-x="1114" 
d="M758 240h-172l213 422l-215 411h172l233 -416zM338 240h-174l215 422l-217 411h174l231 -416z" />
    <glyph glyph-name="parenleft.uc" horiz-adv-x="729" 
d="M383 735q1 -283 59 -496t164 -444h-139q-208 412 -252 673q-45 261 2 548q36 207 154 464q29 62 96 195h139q-106 -229 -164 -443t-59 -497z" />
    <glyph glyph-name="parenright.uc" horiz-adv-x="729" 
d="M346 736q0 282 -58 496t-165 443h139q68 -133 96 -195t80 -196q97 -256 97 -549q0 -292 -97 -547q-51 -134 -81 -198t-95 -195h-139q107 231 165 445t58 496z" />
    <glyph glyph-name="space_uni0326" horiz-adv-x="755" 
d="M293 -422l45 281h199l-127 -281h-117z" />
    <glyph glyph-name="grave.uc" horiz-adv-x="751" 
d="M385 1966l123 -272h-146l-192 272h215z" />
    <glyph glyph-name="bracketleft.uc" horiz-adv-x="722" 
d="M225 -205v1880h447v-137h-277v-1606h277v-137h-447z" />
    <glyph glyph-name="bracketright.uc" horiz-adv-x="722" 
d="M498 1675v-1880h-447v135h277v1608h-277v137h447z" />
    <glyph glyph-name="braceleft.uc" horiz-adv-x="722" 
d="M104 659h-49v152h49q88 0 123 35t35 121v411q0 166 95 236t315 69v-127q-158 0 -203 -47t-45 -182v-338q0 -223 -154 -250v-8q154 -27 154 -250v-338q0 -135 45 -182t203 -47v-127q-219 0 -315 70q-95 70 -95 235v412q0 86 -35 120t-123 35z" />
    <glyph glyph-name="braceright.uc" horiz-adv-x="722" 
d="M668 811v-152h-50q-88 -1 -122 -35t-35 -120v-412q0 -166 -95 -236t-315 -69v127q158 0 203 47t45 182v338q0 223 154 250v8q-154 27 -154 250v338q0 135 -45 182t-203 47v127q219 0 315 -69q95 -70 95 -236v-411q0 -86 35 -121t122 -35h50z" />
    <glyph glyph-name="slash.uc" horiz-adv-x="1093" 
d="M63 -152l801 1786h166l-801 -1786h-166z" />
    <glyph glyph-name="backslash.uc" horiz-adv-x="1093" 
d="M864 -152l-801 1786h166l801 -1786h-166z" />
    <glyph glyph-name="bar.uc" horiz-adv-x="591" 
d="M221 -152v1786h150v-1786h-150z" />
    <glyph glyph-name="acute.uc" horiz-adv-x="751" 
d="M190 1694l123 272h215l-192 -272h-146z" />
    <glyph glyph-name="at.uc" horiz-adv-x="2066" 
d="M944 397q96 -1 180 97t109 221l6 28q25 113 -18 213t-149 100t-180 -71q-136 -134 -134 -360q0 -104 45 -166t141 -62zM1482 268q-221 0 -255 193h-6q-51 -97 -137 -149t-189 -52q-151 0 -231 98t-80 267q0 231 135 400t344 169q91 0 153 -47t82 -125h9l26 139h154
l-105 -518q-26 -131 10 -190t137 -59t188 111q87 112 87 345q0 292 -206 488t-534 196t-556 -244q-229 -244 -229 -602q-1 -358 205 -574t530 -216t536 172l86 -88q-254 -213 -638 -213t-636 255q-252 254 -252 668t280 692q278 278 675 279q397 0 648 -224t251 -579
q0 -158 -43 -277q-73 -205 -261 -283q-76 -32 -178 -32z" />
    <glyph glyph-name="f.short" horiz-adv-x="733" 
d="M420 938v-938h-184v938h-197v141h197v242q0 299 327 299q59 0 115 -10v-152q-42 8 -112 8t-108 -36t-38 -132v-219h258v-141h-258z" />
    <glyph glyph-name="f_f.short" horiz-adv-x="1425" 
d="M420 938v-938h-184v938h-197v141h197v228q0 299 327 299q59 0 115 -11v-151q-42 8 -112 8t-108 -37t-38 -131v-205h508v242q0 299 327 299q59 0 115 -10v-152q-42 8 -112 8t-108 -36t-38 -132v-219h258v-141h-258v-938h-184v938h-508z" />
    <glyph glyph-name="macron.uc" horiz-adv-x="755" 
d="M78 1745v149h598v-149h-598z" />
    <glyph glyph-name="circumflex.uc" horiz-adv-x="755" 
d="M475 1966l219 -272h-170l-153 155h-2l-154 -155h-152l220 272h192z" />
    <glyph glyph-name="caron.uc" horiz-adv-x="755" 
d="M283 1694l-220 272h170l154 -156h2l154 156h151l-219 -272h-192z" />
    <glyph glyph-name="breve.uc" horiz-adv-x="755" 
d="M383 1829q70 0 115 40t55 118h131q-10 -143 -94 -215t-212 -72t-212 72t-94 215h141q8 -76 54 -117t116 -41z" />
    <glyph glyph-name="caron.alt" horiz-adv-x="755" 
d="M293 1282l35 332h176l-96 -332h-115z" />
    <glyph glyph-name="dotaccent.uc" horiz-adv-x="755" 
d="M281 1714v203h194v-203h-194z" />
    <glyph glyph-name="ring.uc" horiz-adv-x="755" 
d="M386 2001q-48 0 -78 -35t-30 -90t30 -90t78 -35t78 35t30 90t-30 90t-78 35zM383 1657q-102 0 -162 59q-59 60 -59 158t62 160t164 61q102 0 162 -60q60 -61 60 -159t-62 -159q-63 -60 -165 -60z" />
    <glyph glyph-name="sterling.tab" 
d="M1143 164v-164h-1008v141l64 52q125 100 147 190q23 90 -27 264h-206v146h163l-22 71q-91 342 54 509t361 167t336 -119t119 -338h-188q0 127 -59 215t-207 88t-223 -118t-3 -385l25 -90h455v-146h-416q83 -287 -111 -452l-30 -27v-4h776z" />
    <glyph glyph-name="tilde.uc" horiz-adv-x="755" 
d="M14 1694q0 116 56 196t146 80q89 0 187 -64t127 -65q80 0 97 133h114q0 -116 -56 -196t-159 -80q-74 0 -172 63t-131 64q-78 0 -94 -131h-115z" />
    <glyph glyph-name="cent.tab" 
d="M340 543q0 -373 229 -422v840q-111 -29 -170 -140t-59 -278zM696 -238h-127v218q-199 20 -307 167t-106 383q0 236 110 391q111 155 303 181v198h127v-196q156 -14 257 -100t114 -250h-180q-7 78 -57 136t-134 75v-846q104 17 152 87t53 146h172q-19 -166 -119 -261
t-258 -111v-218z" />
    <glyph glyph-name="plus.tab" 
d="M696 653v-393h-166v393h-387v158h387v391h166v-391h389v-158h-389z" />
    <glyph glyph-name="minus.tab" 
d="M139 651v162h948v-162h-948z" />
    <glyph glyph-name="multiply.tab" 
d="M264 250l-112 112l350 347l-348 344l116 116l346 -348l347 353l112 -113l-352 -348l350 -346l-117 -117l-346 350z" />
    <glyph glyph-name="divide.tab" 
d="M711 246h-195v198h195v-198zM143 653v158h942v-158h-942zM516 1020v199h195v-199h-195z" />
    <glyph glyph-name="equal.tab" 
d="M1087 469h-948v156h948v-156zM139 840v155h948v-155h-948z" />
    <glyph glyph-name="less.tab" 
d="M1085 147l-958 471v127l958 472v-179l-735 -356l735 -356v-179z" />
    <glyph glyph-name="greater.tab" 
d="M143 1196l959 -471v-127l-959 -471v178l736 357l-736 356v178z" />
    <glyph glyph-name="florin.tab" 
d="M274 752v141h228l47 358q47 356 381 357q49 0 104 -11v-151q-40 8 -110 8t-121 -43t-68 -164l-47 -354h266v-141h-286l-154 -1139h-184l151 1139h-207z" />
    <glyph glyph-name="plusminus.tab" 
d="M143 0v158h942v-158h-942zM696 715v-393h-166v393h-387v157h387v392h166v-392h389v-157h-389z" />
    <glyph glyph-name="notequal.tab" 
d="M139 469v156h338l107 215h-445v155h523l120 246h166l-121 -246h260v-155h-337l-107 -215h444v-156h-522l-121 -246h-165l120 246h-260z" />
    <glyph glyph-name="approxequal.tab" 
d="M201 436q0 117 59 192t176 74q76 0 199 -60t168 -60t67 26t35 99h121q0 -115 -60 -191t-154 -76t-221 60q-126 60 -170 61t-68 -27t-31 -98h-121zM201 768q0 118 59 192t176 74q76 0 199 -60t168 -60t67 26q22 27 35 98h121q0 -114 -60 -190t-154 -76t-221 60
q-126 60 -170 61q-44 0 -68 -28t-31 -97h-121z" />
    <glyph glyph-name="lessequal.tab" 
d="M1085 0h-958v158h958v-158zM1085 270l-958 402v143l958 402v-179l-723 -295l723 -294v-179z" />
    <glyph glyph-name="greaterequal.tab" 
d="M1102 0h-959v158h959v-158zM143 1217l959 -402v-143l-959 -402v179l723 294l-723 295v179z" />
    <glyph glyph-name="period.tab" horiz-adv-x="614" 
d="M182 0v250h250v-250h-250z" />
    <glyph glyph-name="comma.tab" horiz-adv-x="614" 
d="M154 -240l69 492h230l-166 -492h-133z" />
    <glyph glyph-name="colon.tab" horiz-adv-x="614" 
d="M432 0h-252v252h252v-252zM180 827v252h252v-252h-252z" />
    <glyph glyph-name="semicolon.tab" horiz-adv-x="614" 
d="M270 -240h-131l68 492h229zM199 827v252h252v-252h-252z" />
    <glyph glyph-name="hungarumlaut.uc" horiz-adv-x="755" 
d="M117 1714l67 273h187l-138 -273h-116zM403 1714l68 273h186l-137 -273h-117z" />
    <glyph glyph-name="currency.tab" 
d="M244 708q0 110 53 199l-162 162l117 117l160 -162q90 55 200 55t203 -59l168 172l113 -113l-172 -170q55 -89 55 -199t-55 -198l166 -164l-117 -117l-164 166q-88 -53 -199 -53t-198 53l-166 -168l-113 113l168 166q-57 90 -57 200zM383 711q0 -106 63 -176
q62 -70 164 -70t166 70q63 70 64 176q0 106 -64 177q-64 70 -164 70q-102 0 -166 -70q-63 -71 -63 -177z" />
    <glyph glyph-name="percent.tab" horiz-adv-x="1843" 
d="M1370 117q82 0 129 61t47 179q0 117 -47 179t-129 62q-174 0 -174 -240t174 -241zM1372 725q146 0 242 -95q96 -94 96 -272t-96 -275t-243 -97q-146 0 -241 96q-94 96 -94 274t96 274t240 95zM467 911q82 -1 129 61t47 180t-47 179t-129 62q-174 0 -174 -241t174 -241z
M807 1152q-1 -176 -97 -274t-242 -98t-240 96t-95 275q0 178 95 273q94 96 240 96t242 -96t97 -272zM274 -82l1121 1681h172l-1121 -1681h-172z" />
    <glyph glyph-name="perthousand.tab" horiz-adv-x="2457" 
d="M1251 117q74 0 116 61t42 179q0 117 -42 179t-116 62q-156 0 -156 -240t156 -241zM2005 117q74 0 116 61t42 179q0 117 -42 179t-116 62q-156 0 -156 -240t156 -241zM938 356q0 178 90 274t226 95q136 0 226 -95q90 -94 91 -272q-1 -178 -91 -275t-228 -97t-226 96
t-88 274zM2006 -14q-138 0 -226 96t-88 274t90 274t226 95q136 0 226 -95q90 -94 90 -272t-90 -275t-228 -97zM446 911q74 -1 116 61t42 180t-42 179t-116 62q-156 0 -156 -241t156 -241zM133 1151q0 178 90 273q91 96 227 96t226 -96t90 -272q0 -177 -90 -274
q-90 -98 -228 -98t-226 96t-89 275zM207 -82l1120 1681h172l-1120 -1681h-172z" />
    <glyph glyph-name="idotaccent" horiz-adv-x="571" 
d="M193 0v1079h186v-1079h-186zM188 1325v199h195v-199h-195z" />
    <glyph glyph-name="A.sc" horiz-adv-x="1349" 
d="M1061 0l-129 365h-531l-127 -365h-182l471 1319h217l477 -1319h-196zM666 1135q-4 -16 -54 -170l-157 -449h422l-156 447l-51 172h-4z" />
    <glyph glyph-name="AE.sc" horiz-adv-x="1918" 
d="M1745 1319v-164h-655v-412h604v-159h-604v-420h665v-164h-852v371h-491l-170 -371h-191l619 1319h1075zM903 522v633h-131l-291 -633h422z" />
    <glyph glyph-name="B.sc" horiz-adv-x="1363" 
d="M412 156h311q147 0 226 55t79 184q0 221 -317 221h-299v-460zM412 770h313q115 0 187 47t73 149q0 102 -64 150q-65 49 -178 49h-331v-395zM725 0h-500v1319h531q188 0 304 -83t116 -243q0 -115 -65 -189t-177 -99v-5q125 -20 206 -107t81 -204q1 -205 -135 -297
t-361 -92z" />
    <glyph glyph-name="C.sc" horiz-adv-x="1409" 
d="M750 1188q-190 0 -299 -144t-109 -390q0 -247 108 -388t295 -141q154 0 237 85t97 212h187q-10 -197 -148 -323t-370 -126q-276 0 -438 175q-160 174 -160 498t164 508q165 183 436 183q209 1 357 -109t157 -317h-191q-34 277 -323 277z" />
    <glyph glyph-name="D.sc" horiz-adv-x="1441" 
d="M412 158h229q457 0 457 512q0 256 -120 374t-327 117h-239v-1003zM225 0v1319h418q295 0 472 -157q177 -156 177 -488t-172 -503t-461 -171h-434z" />
    <glyph glyph-name="Dcroat.sc" horiz-adv-x="1464" 
d="M438 158h230q457 0 456 512q0 256 -120 374t-326 117h-240v-420h363v-151h-363v-432zM686 0h-434v590h-143v151h143v578h418q295 0 472 -157q177 -156 177 -488t-172 -503t-461 -171z" />
    <glyph glyph-name="E.sc" horiz-adv-x="1255" 
d="M225 0v1319h856v-164h-669v-412h618v-159h-618v-420h680v-164h-867z" />
    <glyph glyph-name="Eng.sc" horiz-adv-x="1490" 
d="M807 -332h-100v162h63q154 0 222 31t87 108l-575 916q-59 93 -86 159l-12 25h-7v-1069h-174v1319h224l540 -877q55 -88 84 -163l12 -25h9v1065h172v-1251q0 -220 -113 -310t-346 -90z" />
    <glyph glyph-name="Eth.sc" horiz-adv-x="1464" 
d="M438 158h230q457 0 456 512q0 256 -120 374t-326 117h-240v-420h363v-151h-363v-432zM686 0h-434v590h-143v151h143v578h418q295 0 472 -157q177 -156 177 -488t-172 -503t-461 -171z" />
    <glyph glyph-name="F.sc" horiz-adv-x="1171" 
d="M412 547v-547h-187v1319h813v-164h-626v-448h577v-160h-577z" />
    <glyph glyph-name="G.sc" horiz-adv-x="1492" 
d="M758 1190q-203 0 -313 -144q-109 -144 -109 -398t105 -389q105 -134 289 -134t286 98t104 275v20h-375v158h553v-676h-155v186h-8q-49 -94 -153 -153t-255 -60q-266 0 -424 174q-158 173 -158 495t172 508t447 187q213 0 349 -102t151 -281h-189q-16 112 -100 174
t-217 62z" />
    <glyph glyph-name="H.sc" horiz-adv-x="1509" 
d="M412 586v-586h-187v1319h187v-576h686v576h186v-1319h-186v586h-686z" />
    <glyph glyph-name="I.sc" horiz-adv-x="636" 
d="M225 0v1319h187v-1319h-187z" />
    <glyph glyph-name="IJ.sc" horiz-adv-x="1359" 
d="M225 0v1319h187v-1319h-187zM696 0h-43v162h6q190 0 251 56q60 56 61 204v897h184v-907q0 -224 -114 -318t-345 -94z" />
    <glyph glyph-name="J.sc" horiz-adv-x="823" 
d="M160 0h-101v162h64q190 0 251 56q60 56 60 204v897h184v-907q0 -223 -113 -318q-114 -94 -345 -94z" />
    <glyph glyph-name="K.sc" horiz-adv-x="1349" 
d="M412 0h-187v1319h187v-666l596 666h227l-506 -561l528 -758h-221l-436 629l-188 -207v-422z" />
    <glyph glyph-name="L.sc" horiz-adv-x="1179" 
d="M225 0v1319h187v-1157h655v-162h-842z" />
    <glyph glyph-name="M.sc" horiz-adv-x="1759" 
d="M225 0v1319l275 2l319 -924l58 -184h6q16 68 57 184l324 924l270 -2v-1319h-178v1128h-6q-23 -82 -74 -231l-320 -897h-168l-313 897l-72 231h-6v-1128h-172z" />
    <glyph glyph-name="N.sc" horiz-adv-x="1490" 
d="M225 0v1319h219l541 -885q52 -82 88 -164l12 -24h7v1073h174v-1319h-219l-541 885q-52 82 -88 164l-12 24h-7v-1073h-174z" />
    <glyph glyph-name="O.sc" horiz-adv-x="1505" 
d="M750 125q186 0 301 139t115 392t-114 393q-114 139 -300 139t-299 -137t-113 -395t112 -394q112 -137 298 -137zM150 653q0 334 172 509t433 175t431 -173t170 -509t-171 -509t-435 -173t-433 173q-167 173 -167 507z" />
    <glyph glyph-name="OE.sc" horiz-adv-x="2156" 
d="M754 1337q265 0 383 -188h6v170h839v-164h-655v-412h604v-159h-604v-420h666v-164h-850v160h-6q-129 -186 -392 -186t-430 173q-165 174 -165 505t169 508q170 177 435 177zM1149 575v166q0 215 -103 332q-102 117 -292 117t-302 -137t-112 -395t111 -397
q111 -138 305 -138q194 1 293 121q100 120 100 331z" />
    <glyph glyph-name="Oslash.sc" horiz-adv-x="1505" 
d="M1356 640q0 -320 -171 -494q-171 -173 -435 -173q-217 0 -367 117l-104 -133h-158l172 219q-143 184 -143 498t172 488q172 175 430 175q215 0 364 -110l111 141h159l-178 -227q148 -181 148 -501zM763 123q175 0 291 139q116 140 116 372t-74 363l-615 -780
q107 -94 282 -94zM739 1190q-175 0 -289 -137t-114 -400q0 -205 67 -334l613 781q-102 90 -277 90z" />
    <glyph glyph-name="P.sc" horiz-adv-x="1208" 
d="M412 641h211q141 0 219 69t78 199q0 260 -291 260h-217v-528zM625 489h-213v-489h-187v1319h414q213 0 340 -100q127 -101 127 -311t-130 -314t-351 -105z" />
    <glyph glyph-name="Q.sc" horiz-adv-x="1497" 
d="M753 123q189 0 301 132t112 393t-112 402q-112 140 -299 140t-301 -138t-114 -396t112 -396q112 -137 301 -137zM150 655q0 332 169 507t433 175t434 -175t170 -507q0 -406 -244 -555v-8q186 -2 295 -176l-152 -109q-66 102 -132 143q-67 40 -158 40l-215 -15
q-268 0 -434 174t-166 506z" />
    <glyph glyph-name="R.sc" horiz-adv-x="1314" 
d="M412 539v-539h-187v1319h500q162 0 270 -62q172 -98 172 -313q0 -160 -82 -247t-196 -122v-2l307 -573h-207l-289 539h-288zM412 694h295q125 0 197 60t73 179q0 120 -74 178t-190 58h-301v-475z" />
    <glyph glyph-name="S.sc" horiz-adv-x="1302" 
d="M393 978q0 -93 49 -140t168 -66l193 -29q186 -29 266 -117t80 -243q0 -193 -128 -301q-129 -108 -363 -109q-234 1 -363 105t-141 295h188q14 -113 90 -182t230 -69t229 66q74 64 74 160q1 96 -49 150t-171 73l-188 29q-352 53 -352 358q0 166 127 272t339 107
q211 0 327 -99t124 -273h-180q-10 100 -80 162q-70 63 -196 63t-200 -60q-73 -60 -73 -152z" />
    <glyph glyph-name="T.sc" horiz-adv-x="1226" 
d="M1155 1319v-158h-448v-1161h-187v1161h-448v158h1083z" />
    <glyph glyph-name="Tbar.sc" horiz-adv-x="1226" 
d="M1155 1319v-158h-448v-321h340v-131h-340v-709h-187v709h-340v131h340v321h-448v158h1083z" />
    <glyph glyph-name="Thorn.sc" horiz-adv-x="1208" 
d="M645 289h-233v-289h-187v1319h187v-268h247q201 -1 325 -95t124 -283t-127 -287t-336 -97zM412 438h241q266 6 267 236q0 229 -275 229h-233v-465z" />
    <glyph glyph-name="U.sc" horiz-adv-x="1433" 
d="M205 446v873h186v-762q0 -248 64 -326q90 -104 269 -104t263 104q46 54 51 132q6 79 8 102q1 23 1 92v762h182v-873q0 -240 -136 -356t-377 -117q-241 1 -376 115t-135 358z" />
    <glyph glyph-name="V.sc" horiz-adv-x="1306" 
d="M555 0l-473 1319h197l319 -907q47 -129 53 -191l4 -22h9q10 72 59 213l317 907h185l-469 -1319h-201z" />
    <glyph glyph-name="W.sc" horiz-adv-x="1912" 
d="M657 0h-196l-373 1319h184l240 -897q38 -150 47 -219l4 -31h4q14 109 51 246l242 901h197l250 -920q28 -110 45 -202l2 -25h4q8 86 45 225l244 922h178l-373 -1319h-199l-254 899q-17 57 -41 195l-2 30h-4q-12 -106 -45 -225z" />
    <glyph glyph-name="X.sc" horiz-adv-x="1376" 
d="M78 0l493 694l-432 625h219l326 -483h4l340 483h199l-432 -617l503 -702h-223l-395 559h-4l-400 -559h-198z" />
    <glyph glyph-name="Y.sc" horiz-adv-x="1277" 
d="M549 0v561l-488 758h213l365 -590h4l377 590h197l-486 -750v-569h-182z" />
    <glyph glyph-name="Z.sc" horiz-adv-x="1259" 
d="M160 1159v160h981v-143l-791 -1016h797v-160h-1024v143l797 1016h-760z" />
    <glyph glyph-name="ampersand.sc" horiz-adv-x="1384" 
d="M1272 0h-47q-152 0 -281 127q-150 -154 -367 -154q-217 1 -339 99t-121 260q0 121 71 210q72 89 234 169q-84 97 -120 161t-36 158q0 131 95 219t245 88t241 -76q91 -77 93 -199t-60 -207t-216 -175l260 -285l10 -12q53 127 63 291h158q-18 -236 -111 -410
q68 -68 111 -86t117 -18v-160zM297 344q0 -115 80 -172t203 -57q160 0 264 118q-20 25 -33 37l-299 332q-215 -107 -215 -258zM436 1043q0 -69 25 -113t112 -144q103 58 149 116t46 135t-42 124t-119 47t-124 -48t-47 -117z" />
    <glyph glyph-name="uni0237.sc" horiz-adv-x="823" 
d="M160 0h-101v162h64q190 0 251 56q60 56 60 204v897h184v-907q0 -223 -113 -318q-114 -94 -345 -94z" />
    <glyph glyph-name="exclam.sc" horiz-adv-x="651" 
d="M446 0h-241v219h241v-219zM256 412l-33 907h205l-33 -907h-139z" />
    <glyph glyph-name="exclamdown.sc" horiz-adv-x="651" 
d="M395 907l33 -907h-205l33 907h139zM446 1319v-219h-241v219h241z" />
    <glyph glyph-name="germandbls.sc" horiz-adv-x="2605" 
d="M1961 -27q-233 1 -363 105t-142 295h189q14 -113 90 -182q77 -69 231 -69t228 66q74 64 73 160q0 96 -49 150t-170 73l-188 29q-352 53 -353 358q0 166 127 272t339 107q212 0 328 -99t124 -273h-180q-10 100 -80 162q-70 63 -197 63t-200 -60q-72 -60 -72 -152
q0 -93 49 -140t168 -66l192 -29q186 -29 267 -117q80 -89 79 -243q0 -193 -128 -301t-362 -109zM393 978q0 -93 49 -140t168 -66l193 -29q186 -29 266 -117t80 -243q0 -193 -128 -301q-129 -108 -363 -109q-234 1 -363 105t-141 295h188q14 -113 90 -182t230 -69t229 66
q74 64 74 160q1 96 -49 150t-171 73l-188 29q-352 53 -352 358q0 166 127 272t339 107q211 0 327 -99t124 -273h-180q-10 100 -80 162q-70 63 -196 63t-200 -60q-73 -60 -73 -152z" />
    <glyph glyph-name="question.sc" horiz-adv-x="1153" 
d="M459 0v242h241v-242h-241zM659 410h-157v59q0 84 20 119t105 106l78 66q117 100 116 217q0 92 -62 150q-62 59 -178 59t-187 -76t-68 -221h-166q-6 201 114 325t316 123q197 0 301 -99t104 -238t-59 -216q-35 -45 -53 -63t-76 -70l-76 -67q-49 -43 -60 -65t-12 -79v-30z
" />
    <glyph glyph-name="questiondown.sc" horiz-adv-x="1153" 
d="M559 -18q-197 0 -301 99t-104 238t59 216q35 45 53 63t76 70l76 67q49 43 60 65t11 79v30h158v-59q0 -84 -20 -119t-105 -106l-78 -66q-117 -100 -116 -217q0 -92 62 -150t178 -59q116 0 187 76t68 221h166q6 -201 -113 -325q-120 -123 -317 -123zM690 1319v-242h-241
v242h241z" />
    <glyph glyph-name="quotedblleft.sc" horiz-adv-x="808" 
d="M379 1319l-90 -451h-228l187 451h131zM719 1319l-90 -451h-228l187 451h131z" />
    <glyph glyph-name="space.tab" horiz-adv-x="614" 
 />
    <glyph glyph-name="quoteleft.sc" horiz-adv-x="468" 
d="M379 1319l-90 -451h-228l187 451h131z" />
    <glyph glyph-name="quoteright.sc" horiz-adv-x="468" 
d="M90 866l90 453h228l-187 -453h-131z" />
    <glyph glyph-name="Lslash.sc" horiz-adv-x="1179" 
d="M225 0v489l-121 -47v152l121 47v678h187v-606l440 170v-154l-440 -168v-399h655v-162h-842z" />
    <glyph glyph-name="AEacute.sc" horiz-adv-x="1918" 
d="M934 1518l108 331h207l-178 -331h-137zM1745 1319v-164h-655v-412h604v-159h-604v-420h665v-164h-852v371h-491l-170 -371h-191l619 1319h1075zM903 522v633h-131l-291 -633h422z" />
    <glyph glyph-name="Aacute.sc" horiz-adv-x="1349" 
d="M598 1518l109 331h206l-178 -331h-137zM1061 0l-129 365h-531l-127 -365h-182l471 1319h217l477 -1319h-196zM666 1135q-4 -16 -54 -170l-157 -449h422l-156 447l-51 172h-4z" />
    <glyph glyph-name="Abreve.sc" horiz-adv-x="1349" 
d="M670 1524q-137 0 -223 81q-85 81 -85 244h142q0 -96 47 -146t125 -50t125 50t47 146h131q0 -165 -86 -245t-223 -80zM1061 0l-129 365h-531l-127 -365h-182l471 1319h217l477 -1319h-196zM666 1135q-4 -16 -54 -170l-157 -449h422l-156 447l-51 172h-4z" />
    <glyph glyph-name="Acircumflex.sc" horiz-adv-x="1349" 
d="M774 1849l219 -331h-164l-159 206h-2l-160 -206h-146l220 331h192zM1061 0l-129 365h-531l-127 -365h-182l471 1319h217l477 -1319h-196zM666 1135q-4 -16 -54 -170l-157 -449h422l-156 447l-51 172h-4z" />
    <glyph glyph-name="Adieresis.sc" horiz-adv-x="1349" 
d="M375 1559v202h188v-202h-188zM776 1559v202h189v-202h-189zM1061 0l-129 365h-531l-127 -365h-182l471 1319h217l477 -1319h-196zM666 1135q-4 -16 -54 -170l-157 -449h422l-156 447l-51 172h-4z" />
    <glyph glyph-name="Agrave.sc" horiz-adv-x="1349" 
d="M633 1849l108 -331h-135l-180 331h207zM1061 0l-129 365h-531l-127 -365h-182l471 1319h217l477 -1319h-196zM666 1135q-4 -16 -54 -170l-157 -449h422l-156 447l-51 172h-4z" />
    <glyph glyph-name="Amacron.sc" horiz-adv-x="1349" 
d="M371 1559v149h598v-149h-598zM1061 0l-129 365h-531l-127 -365h-182l471 1319h217l477 -1319h-196zM666 1135q-4 -16 -54 -170l-157 -449h422l-156 447l-51 172h-4z" />
    <glyph glyph-name="Aogonek.sc" horiz-adv-x="1349" 
d="M666 1135q-4 -16 -54 -170l-157 -449h422l-156 447l-51 172h-4zM1241 -385h-37q-122 0 -192 49q-70 48 -70 150t125 176l-135 375h-531l-127 -365h-182l471 1319h217l473 -1309q-143 -94 -143 -180t131 -88v-127z" />
    <glyph glyph-name="Aring.sc" horiz-adv-x="1349" 
d="M671 1858q-48 0 -78 -35t-30 -90t30 -91t78 -34q48 0 78 34q29 34 29 90t-29 91q-30 35 -78 35zM895 1733q-1 -98 -63 -159t-164 -61q-102 -1 -162 59t-60 158t62 160t166 62q102 0 162 -60t59 -159zM1061 0l-129 365h-531l-127 -365h-182l471 1319h217l477 -1319h-196z
M666 1135q-4 -16 -54 -170l-157 -449h422l-156 447l-51 172h-4z" />
    <glyph glyph-name="uni01FA.sc" horiz-adv-x="1349" 
d="M604 2032l123 272h215l-192 -272h-146zM671 1858q-48 0 -78 -35t-30 -90t30 -91t78 -34q48 0 78 34q29 34 29 90t-29 91q-30 35 -78 35zM895 1733q-1 -98 -63 -159t-164 -61q-102 -1 -162 59t-60 158t62 160t166 62q102 0 162 -60t59 -159zM1061 0l-129 365h-531
l-127 -365h-182l471 1319h217l477 -1319h-196zM666 1135q-4 -16 -54 -170l-157 -449h422l-156 447l-51 172h-4z" />
    <glyph glyph-name="Atilde.sc" horiz-adv-x="1349" 
d="M307 1513q1 115 57 196t145 81t187 -65t127 -64q80 0 97 133h114q0 -115 -56 -196t-159 -80q-74 0 -172 63t-131 64q-78 0 -94 -132h-115zM1061 0l-129 365h-531l-127 -365h-182l471 1319h217l477 -1319h-196zM666 1135q-4 -16 -54 -170l-157 -449h422l-156 447l-51 172
h-4z" />
    <glyph glyph-name="Cacute.sc" horiz-adv-x="1409" 
d="M672 1518l108 331h207l-178 -331h-137zM750 1188q-190 0 -299 -144t-109 -390q0 -247 108 -388t295 -141q154 0 237 85t97 212h187q-10 -197 -148 -323t-370 -126q-276 0 -438 175q-160 174 -160 498t164 508q165 183 436 183q209 1 357 -109t157 -317h-191
q-34 277 -323 277z" />
    <glyph glyph-name="Ccaron.sc" horiz-adv-x="1409" 
d="M635 1518l-219 331h164l159 -207h2l160 207h146l-220 -331h-192zM750 1188q-190 0 -299 -144t-109 -390q0 -247 108 -388t295 -141q154 0 237 85t97 212h187q-10 -197 -148 -323t-370 -126q-276 0 -438 175q-160 174 -160 498t164 508q165 183 436 183q209 1 357 -109
t157 -317h-191q-34 277 -323 277z" />
    <glyph glyph-name="Ccedilla.sc" horiz-adv-x="1409" 
d="M735 -434q-162 0 -174 135h117q10 -45 61 -45q66 0 66 74t-66 73q-35 0 -55 -24h-111l95 198q-242 25 -380 199t-138 484t164 494q165 183 436 183q209 1 357 -109t157 -317h-191q-35 276 -323 277q-190 0 -299 -144t-109 -390q0 -247 108 -388t295 -141q154 0 237 85
t97 212h187q-10 -197 -148 -323t-362 -126l-54 -108h5q27 23 84 23t96 -43t39 -113t-50 -118t-141 -48z" />
    <glyph glyph-name="Ccircumflex.sc" horiz-adv-x="1409" 
d="M848 1849l219 -331h-164l-160 206h-2l-159 -206h-146l219 331h193zM750 1188q-190 0 -299 -144t-109 -390q0 -247 108 -388t295 -141q154 0 237 85t97 212h187q-10 -197 -148 -323t-370 -126q-276 0 -438 175q-160 174 -160 498t164 508q165 183 436 183q209 1 357 -109
t157 -317h-191q-34 277 -323 277z" />
    <glyph glyph-name="Cdotaccent.sc" horiz-adv-x="1409" 
d="M647 1559v202h195v-202h-195zM750 1188q-190 0 -299 -144t-109 -390q0 -247 108 -388t295 -141q154 0 237 85t97 212h187q-10 -197 -148 -323t-370 -126q-276 0 -438 175q-160 174 -160 498t164 508q165 183 436 183q209 1 357 -109t157 -317h-191q-34 277 -323 277z" />
    <glyph glyph-name="Dcaron.sc" horiz-adv-x="1441" 
d="M578 1518l-220 331h164l160 -207h2l160 207h145l-219 -331h-192zM412 158h229q457 0 457 512q0 256 -120 374t-327 117h-239v-1003zM225 0v1319h418q295 0 472 -157q177 -156 177 -488t-172 -503t-461 -171h-434z" />
    <glyph glyph-name="Eacute.sc" horiz-adv-x="1255" 
d="M586 1518l108 331h207l-178 -331h-137zM225 0v1319h856v-164h-669v-412h618v-159h-618v-420h680v-164h-867z" />
    <glyph glyph-name="Ecaron.sc" horiz-adv-x="1255" 
d="M549 1518l-219 331h164l159 -207h2l160 207h146l-220 -331h-192zM225 0v1319h856v-164h-669v-412h618v-159h-618v-420h680v-164h-867z" />
    <glyph glyph-name="Ecircumflex.sc" horiz-adv-x="1255" 
d="M762 1849l219 -331h-164l-160 206h-2l-159 -206h-146l219 331h193zM225 0v1319h856v-164h-669v-412h618v-159h-618v-420h680v-164h-867z" />
    <glyph glyph-name="Edieresis.sc" horiz-adv-x="1255" 
d="M362 1559v202h189v-202h-189zM764 1559v202h188v-202h-188zM225 0v1319h856v-164h-669v-412h618v-159h-618v-420h680v-164h-867z" />
    <glyph glyph-name="Edotaccent.sc" horiz-adv-x="1255" 
d="M561 1559v202h195v-202h-195zM225 0v1319h856v-164h-669v-412h618v-159h-618v-420h680v-164h-867z" />
    <glyph glyph-name="Egrave.sc" horiz-adv-x="1255" 
d="M621 1849l108 -331h-135l-180 331h207zM225 0v1319h856v-164h-669v-412h618v-159h-618v-420h680v-164h-867z" />
    <glyph glyph-name="Emacron.sc" horiz-adv-x="1255" 
d="M358 1559v149h598v-149h-598zM225 0v1319h856v-164h-669v-412h618v-159h-618v-420h680v-164h-867z" />
    <glyph glyph-name="Eogonek.sc" horiz-adv-x="1255" 
d="M225 0v1319h856v-164h-669v-412h618v-159h-618v-420h680v-164h-2q-129 -84 -129 -170t131 -88v-127h-37q-123 0 -193 49t-70 128t46 130q45 51 98 78h-711z" />
    <glyph glyph-name="Gbreve.sc" horiz-adv-x="1492" 
d="M758 1524q-137 0 -222 81t-85 244h141q0 -96 47 -146t125 -50t125 50t47 146h131q0 -165 -86 -245t-223 -80zM758 1190q-203 0 -313 -144q-109 -144 -109 -398t105 -389q105 -134 289 -134t286 98t104 275v20h-375v158h553v-676h-155v186h-8q-49 -94 -153 -153t-255 -60
q-266 0 -424 174q-158 173 -158 495t172 508t447 187q213 0 349 -102t151 -281h-189q-16 112 -100 174t-217 62z" />
    <glyph glyph-name="Gcircumflex.sc" horiz-adv-x="1492" 
d="M862 1849l219 -331h-163l-160 206h-2l-160 -206h-145l219 331h192zM758 1190q-203 0 -313 -144q-109 -144 -109 -398t105 -389q105 -134 289 -134t286 98t104 275v20h-375v158h553v-676h-155v186h-8q-49 -94 -153 -153t-255 -60q-266 0 -424 174q-158 173 -158 495
t172 508t447 187q213 0 349 -102t151 -281h-189q-16 112 -100 174t-217 62z" />
    <glyph glyph-name="Gcommaaccent.sc" horiz-adv-x="1492" 
d="M621 -422l45 281h198l-127 -281h-116zM758 1190q-203 0 -313 -144q-109 -144 -109 -398t105 -389q105 -134 289 -134t286 98t104 275v20h-375v158h553v-676h-155v186h-8q-49 -94 -153 -153t-255 -60q-266 0 -424 174q-158 173 -158 495t172 508t447 187q213 0 349 -102
t151 -281h-189q-16 112 -100 174t-217 62z" />
    <glyph glyph-name="Gdotaccent.sc" horiz-adv-x="1492" 
d="M662 1559v202h194v-202h-194zM758 1190q-203 0 -313 -144q-109 -144 -109 -398t105 -389q105 -134 289 -134t286 98t104 275v20h-375v158h553v-676h-155v186h-8q-49 -94 -153 -153t-255 -60q-266 0 -424 174q-158 173 -158 495t172 508t447 187q213 0 349 -102t151 -281
h-189q-16 112 -100 174t-217 62z" />
    <glyph glyph-name="Hcircumflex.sc" horiz-adv-x="1509" 
d="M858 1849l219 -331h-164l-159 206h-2l-160 -206h-146l220 331h192zM412 586v-586h-187v1319h187v-576h686v576h186v-1319h-186v586h-686z" />
    <glyph glyph-name="Iacute.sc" horiz-adv-x="636" 
d="M246 1518l108 331h207l-178 -331h-137zM225 0v1319h187v-1319h-187z" />
    <glyph glyph-name="questiondown.uc" horiz-adv-x="1095" 
d="M446 1567h242v-242h-242v242zM254 358q0 -116 76 -190t215 -74t222 96t81 273h174q8 -238 -128 -383q-136 -146 -360 -146t-344 121q-119 121 -118 287q0 100 37 183t75 125q39 42 111 104l76 65q15 15 50 46t41 42q19 42 19 94v101h168v-131q0 -21 -2 -39t-3 -32t-8 -28
q-7 -16 -9 -24q-3 -8 -15 -24l-15 -20q-3 -6 -21 -22t-23 -20q-4 -4 -29 -24t-30 -27l-101 -86q-139 -115 -139 -267z" />
    <glyph glyph-name="Icircumflex.sc" horiz-adv-x="636" 
d="M422 1849l219 -331h-164l-160 206h-2l-159 -206h-146l219 331h193zM225 0v1319h187v-1319h-187z" />
    <glyph glyph-name="Idieresis.sc" horiz-adv-x="636" 
d="M23 1559v202h188v-202h-188zM424 1559v202h188v-202h-188zM225 0v1319h187v-1319h-187z" />
    <glyph glyph-name="Igrave.sc" horiz-adv-x="636" 
d="M281 1849l108 -331h-135l-180 331h207zM225 0v1319h187v-1319h-187z" />
    <glyph glyph-name="Imacron.sc" horiz-adv-x="636" 
d="M18 1559v149h598v-149h-598zM225 0v1319h187v-1319h-187z" />
    <glyph glyph-name="Iogonek.sc" horiz-adv-x="636" 
d="M401 -385h-36q-123 0 -193 49q-70 50 -70 150t123 176v1329h187v-1303q-70 -45 -106 -84t-36 -92q0 -52 31 -74t100 -24v-127z" />
    <glyph glyph-name="Itilde.sc" horiz-adv-x="636" 
d="M-45 1513q0 115 56 196q55 81 145 81t188 -65t127 -64q80 0 96 133h115q0 -115 -56 -196t-159 -80q-74 0 -172 63t-131 64q-78 0 -94 -132h-115zM225 0v1319h187v-1319h-187z" />
    <glyph glyph-name="Jcircumflex.sc" horiz-adv-x="823" 
d="M631 1849l219 -331h-164l-160 206h-2l-159 -206h-146l219 331h193zM160 0h-101v162h64q190 0 251 56q60 56 60 204v897h184v-907q0 -223 -113 -318q-114 -94 -345 -94z" />
    <glyph glyph-name="Kcommaaccent.sc" horiz-adv-x="1349" 
d="M559 -422l45 281h199l-127 -281h-117zM412 0h-187v1319h187v-666l596 666h227l-506 -561l528 -758h-221l-436 629l-188 -207v-422z" />
    <glyph glyph-name="Lacute.sc" horiz-adv-x="1179" 
d="M258 1518l109 331h206l-178 -331h-137zM225 0v1319h187v-1157h655v-162h-842z" />
    <glyph glyph-name="Lcaron.sc" horiz-adv-x="1179" 
d="M569 987l35 332h176l-96 -332h-115zM225 0v1319h187v-1157h655v-162h-842z" />
    <glyph glyph-name="Lcommaaccent.sc" horiz-adv-x="1179" 
d="M508 -422l45 281h199l-127 -281h-117zM225 0v1319h187v-1157h655v-162h-842z" />
    <glyph glyph-name="Nacute.sc" horiz-adv-x="1490" 
d="M674 1518l108 331h207l-178 -331h-137zM225 0v1319h219l541 -885q52 -82 88 -164l12 -24h7v1073h174v-1319h-219l-541 885q-52 82 -88 164l-12 24h-7v-1073h-174z" />
    <glyph glyph-name="Ncaron.sc" horiz-adv-x="1490" 
d="M637 1518l-219 331h164l159 -207h2l160 207h146l-220 -331h-192zM225 0v1319h219l541 -885q52 -82 88 -164l12 -24h7v1073h174v-1319h-219l-541 885q-52 82 -88 164l-12 24h-7v-1073h-174z" />
    <glyph glyph-name="Ncommaaccent.sc" horiz-adv-x="1490" 
d="M608 -422l45 281h199l-127 -281h-117zM225 0v1319h219l541 -885q52 -82 88 -164l12 -24h7v1073h174v-1319h-219l-541 885q-52 82 -88 164l-12 24h-7v-1073h-174z" />
    <glyph glyph-name="Ntilde.sc" horiz-adv-x="1490" 
d="M383 1513q0 115 56 196q55 81 145 81t188 -65t127 -64q80 0 96 133h115q0 -115 -56 -196t-159 -80q-74 0 -172 63t-131 64q-78 0 -94 -132h-115zM225 0v1319h219l541 -885q52 -82 88 -164l12 -24h7v1073h174v-1319h-219l-541 885q-52 82 -88 164l-12 24h-7v-1073h-174z
" />
    <glyph glyph-name="Oacute.sc" horiz-adv-x="1505" 
d="M680 1518l108 331h207l-178 -331h-137zM750 125q186 0 301 139t115 392t-114 393q-114 139 -300 139t-299 -137t-113 -395t112 -394q112 -137 298 -137zM150 653q0 334 172 509t433 175t431 -173t170 -509t-171 -509t-435 -173t-433 173q-167 173 -167 507z" />
    <glyph glyph-name="Obreve.sc" horiz-adv-x="1505" 
d="M752 1524q-137 0 -223 81q-85 81 -85 244h142q0 -96 47 -146t125 -50t125 50t47 146h131q0 -165 -86 -245t-223 -80zM750 125q186 0 301 139t115 392t-114 393q-114 139 -300 139t-299 -137t-113 -395t112 -394q112 -137 298 -137zM150 653q0 334 172 509t433 175
t431 -173t170 -509t-171 -509t-435 -173t-433 173q-167 173 -167 507z" />
    <glyph glyph-name="Ocircumflex.sc" horiz-adv-x="1505" 
d="M856 1849l219 -331h-164l-159 206h-2l-160 -206h-146l220 331h192zM750 125q186 0 301 139t115 392t-114 393q-114 139 -300 139t-299 -137t-113 -395t112 -394q112 -137 298 -137zM150 653q0 334 172 509t433 175t431 -173t170 -509t-171 -509t-435 -173t-433 173
q-167 173 -167 507z" />
    <glyph glyph-name="Odieresis.sc" horiz-adv-x="1505" 
d="M457 1559v202h188v-202h-188zM858 1559v202h189v-202h-189zM750 125q186 0 301 139t115 392t-114 393q-114 139 -300 139t-299 -137t-113 -395t112 -394q112 -137 298 -137zM150 653q0 334 172 509t433 175t431 -173t170 -509t-171 -509t-435 -173t-433 173
q-167 173 -167 507z" />
    <glyph glyph-name="Ograve.sc" horiz-adv-x="1505" 
d="M715 1849l108 -331h-135l-180 331h207zM750 125q186 0 301 139t115 392t-114 393q-114 139 -300 139t-299 -137t-113 -395t112 -394q112 -137 298 -137zM150 653q0 334 172 509t433 175t431 -173t170 -509t-171 -509t-435 -173t-433 173q-167 173 -167 507z" />
    <glyph glyph-name="Ohungarumlaut.sc" horiz-adv-x="1505" 
d="M543 1518l108 331h187l-179 -331h-116zM829 1518l109 331h186l-178 -331h-117zM750 125q186 0 301 139t115 392t-114 393q-114 139 -300 139t-299 -137t-113 -395t112 -394q112 -137 298 -137zM150 653q0 334 172 509t433 175t431 -173t170 -509t-171 -509t-435 -173
t-433 173q-167 173 -167 507z" />
    <glyph glyph-name="Omacron.sc" horiz-adv-x="1505" 
d="M453 1559v149h598v-149h-598zM750 125q186 0 301 139t115 392t-114 393q-114 139 -300 139t-299 -137t-113 -395t112 -394q112 -137 298 -137zM150 653q0 334 172 509t433 175t431 -173t170 -509t-171 -509t-435 -173t-433 173q-167 173 -167 507z" />
    <glyph glyph-name="Oslashacute.sc" horiz-adv-x="1505" 
d="M682 1518l109 331h206l-178 -331h-137zM1356 640q0 -320 -171 -494q-171 -173 -435 -173q-217 0 -367 117l-104 -133h-158l172 219q-143 184 -143 498t172 488q172 175 430 175q215 0 364 -110l111 141h159l-178 -227q148 -181 148 -501zM763 123q175 0 291 139
q116 140 116 372t-74 363l-615 -780q107 -94 282 -94zM739 1190q-175 0 -289 -137t-114 -400q0 -205 67 -334l613 781q-102 90 -277 90z" />
    <glyph glyph-name="Otilde.sc" horiz-adv-x="1505" 
d="M389 1513q0 115 56 196q55 81 145 81t188 -65t127 -64q80 0 96 133h115q0 -115 -56 -196t-159 -80q-74 0 -172 63t-131 64q-78 0 -94 -132h-115zM750 125q186 0 301 139t115 392t-114 393q-114 139 -300 139t-299 -137t-113 -395t112 -394q112 -137 298 -137zM150 653
q0 334 172 509t433 175t431 -173t170 -509t-171 -509t-435 -173t-433 173q-167 173 -167 507z" />
    <glyph glyph-name="Racute.sc" horiz-adv-x="1314" 
d="M586 1518l108 331h207l-178 -331h-137zM412 539v-539h-187v1319h500q162 0 270 -62q172 -98 172 -313q0 -160 -82 -247t-196 -122v-2l307 -573h-207l-289 539h-288zM412 694h295q125 0 197 60t73 179q0 120 -74 178t-190 58h-301v-475z" />
    <glyph glyph-name="Rcaron.sc" horiz-adv-x="1314" 
d="M549 1518l-219 331h164l159 -207h2l160 207h146l-220 -331h-192zM412 539v-539h-187v1319h500q162 0 270 -62q172 -98 172 -313q0 -160 -82 -247t-196 -122v-2l307 -573h-207l-289 539h-288zM412 694h295q125 0 197 60t73 179q0 120 -74 178t-190 58h-301v-475z" />
    <glyph glyph-name="Rcommaaccent.sc" horiz-adv-x="1314" 
d="M520 -422l45 281h199l-127 -281h-117zM412 539v-539h-187v1319h500q162 0 270 -62q172 -98 172 -313q0 -160 -82 -247t-196 -122v-2l307 -573h-207l-289 539h-288zM412 694h295q125 0 197 60t73 179q0 120 -74 178t-190 58h-301v-475z" />
    <glyph glyph-name="Sacute.sc" horiz-adv-x="1302" 
d="M596 1518l109 331h206l-178 -331h-137zM393 978q0 -93 49 -140t168 -66l193 -29q186 -29 266 -117t80 -243q0 -193 -128 -301q-129 -108 -363 -109q-234 1 -363 105t-141 295h188q14 -113 90 -182t230 -69t229 66q74 64 74 160q1 96 -49 150t-171 73l-188 29
q-352 53 -352 358q0 166 127 272t339 107q211 0 327 -99t124 -273h-180q-10 100 -80 162q-70 63 -196 63t-200 -60q-73 -60 -73 -152z" />
    <glyph glyph-name="Scaron.sc" horiz-adv-x="1302" 
d="M559 1518l-219 331h164l160 -207h2l159 207h146l-219 -331h-193zM393 978q0 -93 49 -140t168 -66l193 -29q186 -29 266 -117t80 -243q0 -193 -128 -301q-129 -108 -363 -109q-234 1 -363 105t-141 295h188q14 -113 90 -182t230 -69t229 66q74 64 74 160q1 96 -49 150
t-171 73l-188 29q-352 53 -352 358q0 166 127 272t339 107q211 0 327 -99t124 -273h-180q-10 100 -80 162q-70 63 -196 63t-200 -60q-73 -60 -73 -152z" />
    <glyph glyph-name="Scedilla.sc" horiz-adv-x="1302" 
d="M659 -434q-162 0 -174 135h117q10 -45 62 -45q66 0 65 74q0 74 -65 73q-35 0 -56 -24h-110l94 196q-203 13 -316 117t-122 281h188q14 -113 90 -182t230 -69t229 66q74 64 74 160q1 96 -49 150t-171 73l-188 29q-352 53 -352 358q0 166 127 272t339 107q211 0 327 -99
t124 -273h-180q-10 100 -80 162q-70 63 -196 63t-200 -60q-73 -60 -73 -152q0 -93 49 -140t168 -66l193 -29q186 -29 266 -117t80 -260q0 -171 -121 -279t-348 -114l-53 -108h4q27 23 85 23t96 -43t38 -113t-50 -118t-141 -48z" />
    <glyph glyph-name="Scircumflex.sc" horiz-adv-x="1302" 
d="M772 1849l219 -331h-164l-159 206h-2l-160 -206h-146l220 331h192zM393 978q0 -93 49 -140t168 -66l193 -29q186 -29 266 -117t80 -243q0 -193 -128 -301q-129 -108 -363 -109q-234 1 -363 105t-141 295h188q14 -113 90 -182t230 -69t229 66q74 64 74 160q1 96 -49 150
t-171 73l-188 29q-352 53 -352 358q0 166 127 272t339 107q211 0 327 -99t124 -273h-180q-10 100 -80 162q-70 63 -196 63t-200 -60q-73 -60 -73 -152z" />
    <glyph glyph-name="Scommaaccent.sc" horiz-adv-x="1302" 
d="M530 -422l45 281h199l-127 -281h-117zM393 978q0 -93 49 -140t168 -66l193 -29q186 -29 266 -117t80 -243q0 -193 -128 -301q-129 -108 -363 -109q-234 1 -363 105t-141 295h188q14 -113 90 -182t230 -69t229 66q74 64 74 160q1 96 -49 150t-171 73l-188 29
q-352 53 -352 358q0 166 127 272t339 107q211 0 327 -99t124 -273h-180q-10 100 -80 162q-70 63 -196 63t-200 -60q-73 -60 -73 -152z" />
    <glyph glyph-name="Tcaron.sc" horiz-adv-x="1226" 
d="M504 1518l-219 331h164l159 -207h2l160 207h145l-219 -331h-192zM1155 1319v-158h-448v-1161h-187v1161h-448v158h1083z" />
    <glyph glyph-name="Tcommaaccent.sc" horiz-adv-x="1226" 
d="M475 -422l45 281h199l-127 -281h-117zM1155 1319v-158h-448v-1161h-187v1161h-448v158h1083z" />
    <glyph glyph-name="Uacute.sc" horiz-adv-x="1433" 
d="M645 1518l109 331h207l-179 -331h-137zM205 446v873h186v-762q0 -248 64 -326q90 -104 269 -104t263 104q46 54 51 132q6 79 8 102q1 23 1 92v762h182v-873q0 -240 -136 -356t-377 -117q-241 1 -376 115t-135 358z" />
    <glyph glyph-name="Ubreve.sc" horiz-adv-x="1433" 
d="M717 1524q-137 0 -222 81t-85 244h141q0 -96 47 -146t125 -50t125 50t47 146h131q0 -165 -86 -245t-223 -80zM205 446v873h186v-762q0 -248 64 -326q90 -104 269 -104t263 104q46 54 51 132q6 79 8 102q1 23 1 92v762h182v-873q0 -240 -136 -356t-377 -117
q-241 1 -376 115t-135 358z" />
    <glyph glyph-name="Ucircumflex.sc" horiz-adv-x="1433" 
d="M821 1849l219 -331h-163l-160 206h-2l-160 -206h-145l219 331h192zM205 446v873h186v-762q0 -248 64 -326q90 -104 269 -104t263 104q46 54 51 132q6 79 8 102q1 23 1 92v762h182v-873q0 -240 -136 -356t-377 -117q-241 1 -376 115t-135 358z" />
    <glyph glyph-name="Udieresis.sc" horiz-adv-x="1433" 
d="M422 1559v202h188v-202h-188zM823 1559v202h189v-202h-189zM205 446v873h186v-762q0 -248 64 -326q90 -104 269 -104t263 104q46 54 51 132q6 79 8 102q1 23 1 92v762h182v-873q0 -240 -136 -356t-377 -117q-241 1 -376 115t-135 358z" />
    <glyph glyph-name="Ugrave.sc" horiz-adv-x="1433" 
d="M680 1849l108 -331h-135l-180 331h207zM205 446v873h186v-762q0 -248 64 -326q90 -104 269 -104t263 104q46 54 51 132q6 79 8 102q1 23 1 92v762h182v-873q0 -240 -136 -356t-377 -117q-241 1 -376 115t-135 358z" />
    <glyph glyph-name="Uhungarumlaut.sc" horiz-adv-x="1433" 
d="M508 1518l108 331h187l-178 -331h-117zM795 1518l108 331h187l-179 -331h-116zM205 446v873h186v-762q0 -248 64 -326q90 -104 269 -104t263 104q46 54 51 132q6 79 8 102q1 23 1 92v762h182v-873q0 -240 -136 -356t-377 -117q-241 1 -376 115t-135 358z" />
    <glyph glyph-name="Umacron.sc" horiz-adv-x="1433" 
d="M418 1559v149h598v-149h-598zM205 446v873h186v-762q0 -248 64 -326q90 -104 269 -104t263 104q46 54 51 132q6 79 8 102q1 23 1 92v762h182v-873q0 -240 -136 -356t-377 -117q-241 1 -376 115t-135 358z" />
    <glyph glyph-name="Uogonek.sc" horiz-adv-x="1433" 
d="M205 446v873h186v-762q0 -248 64 -326q90 -104 269 -104t263 104q46 54 51 132q6 79 8 102q1 23 1 92v762h182v-873q0 -362 -326 -452q-74 -23 -121 -64t-47 -98q0 -88 131 -90v-127h-37q-123 0 -193 49t-69 145q0 96 105 164v2q-467 20 -467 471z" />
    <glyph glyph-name="Uring.sc" horiz-adv-x="1433" 
d="M718 1858q-48 0 -78 -35t-30 -90t30 -91t78 -34q48 0 78 34t30 90t-30 91t-78 35zM942 1733q0 -98 -62 -159t-165 -61q-101 -1 -161 59t-60 158t62 160t164 62t162 -60t60 -159zM205 446v873h186v-762q0 -248 64 -326q90 -104 269 -104t263 104q46 54 51 132q6 79 8 102
q1 23 1 92v762h182v-873q0 -240 -136 -356t-377 -117q-241 1 -376 115t-135 358z" />
    <glyph glyph-name="Utilde.sc" horiz-adv-x="1433" 
d="M354 1513q0 115 56 196t146 81q89 0 187 -65t127 -64q80 0 97 133h114q0 -115 -56 -196t-159 -80q-74 0 -172 63t-131 64q-78 0 -94 -132h-115zM205 446v873h186v-762q0 -248 64 -326q90 -104 269 -104t263 104q46 54 51 132q6 79 8 102q1 23 1 92v762h182v-873
q0 -240 -136 -356t-377 -117q-241 1 -376 115t-135 358z" />
    <glyph glyph-name="Wacute.sc" horiz-adv-x="1912" 
d="M885 1518l108 331h207l-178 -331h-137zM657 0h-196l-373 1319h184l240 -897q38 -150 47 -219l4 -31h4q14 109 51 246l242 901h197l250 -920q28 -110 45 -202l2 -25h4q8 86 45 225l244 922h178l-373 -1319h-199l-254 899q-17 57 -41 195l-2 30h-4q-12 -106 -45 -225z" />
    <glyph glyph-name="Wcircumflex.sc" horiz-adv-x="1912" 
d="M1061 1849l219 -331h-164l-160 206h-2l-159 -206h-146l219 331h193zM657 0h-196l-373 1319h184l240 -897q38 -150 47 -219l4 -31h4q14 109 51 246l242 901h197l250 -920q28 -110 45 -202l2 -25h4q8 86 45 225l244 922h178l-373 -1319h-199l-254 899q-17 57 -41 195l-2 30
h-4q-12 -106 -45 -225z" />
    <glyph glyph-name="Wdieresis.sc" horiz-adv-x="1912" 
d="M662 1559v202h188v-202h-188zM1063 1559v202h188v-202h-188zM657 0h-196l-373 1319h184l240 -897q38 -150 47 -219l4 -31h4q14 109 51 246l242 901h197l250 -920q28 -110 45 -202l2 -25h4q8 86 45 225l244 922h178l-373 -1319h-199l-254 899q-17 57 -41 195l-2 30h-4
q-12 -106 -45 -225z" />
    <glyph glyph-name="Wgrave.sc" horiz-adv-x="1912" 
d="M920 1849l108 -331h-135l-180 331h207zM657 0h-196l-373 1319h184l240 -897q38 -150 47 -219l4 -31h4q14 109 51 246l242 901h197l250 -920q28 -110 45 -202l2 -25h4q8 86 45 225l244 922h178l-373 -1319h-199l-254 899q-17 57 -41 195l-2 30h-4q-12 -106 -45 -225z" />
    <glyph glyph-name="Yacute.sc" horiz-adv-x="1277" 
d="M571 1518l109 331h207l-178 -331h-138zM549 0v561l-488 758h213l365 -590h4l377 590h197l-486 -750v-569h-182z" />
    <glyph glyph-name="Ycircumflex.sc" horiz-adv-x="1277" 
d="M748 1849l219 -331h-164l-160 206h-2l-160 -206h-145l219 331h193zM549 0v561l-488 758h213l365 -590h4l377 590h197l-486 -750v-569h-182z" />
    <glyph glyph-name="Ydieresis.sc" horiz-adv-x="1277" 
d="M348 1559v202h189v-202h-189zM750 1559v202h188v-202h-188zM549 0v561l-488 758h213l365 -590h4l377 590h197l-486 -750v-569h-182z" />
    <glyph glyph-name="Ygrave.sc" horiz-adv-x="1277" 
d="M606 1849l109 -331h-135l-181 331h207zM549 0v561l-488 758h213l365 -590h4l377 590h197l-486 -750v-569h-182z" />
    <glyph glyph-name="Zacute.sc" horiz-adv-x="1259" 
d="M575 1518l109 331h207l-178 -331h-138zM160 1159v160h981v-143l-791 -1016h797v-160h-1024v143l797 1016h-760z" />
    <glyph glyph-name="Zcaron.sc" horiz-adv-x="1259" 
d="M539 1518l-220 331h164l160 -207h2l160 207h145l-219 -331h-192zM160 1159v160h981v-143l-791 -1016h797v-160h-1024v143l797 1016h-760z" />
    <glyph glyph-name="Zdotaccent.sc" horiz-adv-x="1259" 
d="M551 1559v202h194v-202h-194zM160 1159v160h981v-143l-791 -1016h797v-160h-1024v143l797 1016h-760z" />
    <glyph glyph-name="Ldot.sc" horiz-adv-x="1179" 
d="M225 0v1319h187v-1157h655v-162h-842zM807 582v202h205v-202h-205z" />
    <glyph glyph-name="napostrophe.sc" horiz-adv-x="1490" 
d="M225 0v1319h219l541 -885q52 -82 88 -164l12 -24h7v1073h174v-1319h-219l-541 885q-52 82 -88 164l-12 24h-7v-1073h-174z" />
    <glyph glyph-name="Hbar.sc" horiz-adv-x="1509" 
d="M412 586v-586h-187v977h-162v123h162v219h187v-219h686v219h186v-219h162v-123h-162v-977h-186v586h-686zM1098 743v234h-686v-234h686z" />
    <glyph glyph-name="Idotaccent.sc" horiz-adv-x="636" 
d="M223 1559v202h195v-202h-195zM225 0v1319h187v-1319h-187z" />
    <glyph glyph-name="Ebreve.sc" horiz-adv-x="1255" 
d="M643 1524q-137 0 -222 81t-85 244h141q0 -96 47 -146t125 -50t125 50t47 146h131q0 -165 -86 -245t-223 -80zM225 0v1319h856v-164h-669v-412h618v-159h-618v-420h680v-164h-867z" />
    <glyph glyph-name="yen.tab" 
d="M524 0v369h-409v141h409v190h-413v142h352l-420 676h217l352 -605h4l369 605h199l-424 -676h348v-142h-403v-190h407v-141h-407v-369h-181z" />
    <glyph glyph-name="eight.den" horiz-adv-x="872" 
d="M438 92q80 0 130 38t50 112t-50 112t-130 37q-80 0 -132 -38q-52 -37 -52 -111t52 -112t132 -38zM590 642q0 68 -43 102q-43 36 -112 36t-111 -36t-43 -104q0 -68 44 -104q45 -36 111 -36t110 37t44 105zM131 653q0 106 80 173t225 67q146 0 226 -68t79 -174
q0 -152 -143 -196v-4q172 -39 172 -213q0 -111 -89 -184q-89 -72 -246 -72t-245 70t-88 172t50 156t122 71v4q-143 44 -143 198z" />
    <glyph glyph-name="five.den" horiz-adv-x="837" 
d="M588 283q0 84 -49 131t-145 47t-148 -70h-131l43 490h532v-127h-407l-23 -244h2q64 72 190 72t210 -77t84 -215t-92 -223q-91 -85 -252 -85q-160 0 -236 74t-84 184h154q12 -135 172 -136q74 0 127 48t53 131z" />
    <glyph glyph-name="four.den" horiz-adv-x="860" 
d="M778 203h-119v-203h-149v203h-449v112l420 566h178v-555h119v-123zM516 324v407h-6q-18 -39 -57 -92l-236 -315h299z" />
    <glyph glyph-name="nine.den" horiz-adv-x="856" 
d="M401 98q201 0 203 324h-4q-29 -51 -89 -85t-134 -34q-117 0 -204 74t-87 209t91 221t241 86q344 0 344 -420q0 -492 -363 -491q-125 0 -204 58t-93 167h144q10 -49 54 -79t101 -30zM416 770q-74 0 -125 -44t-51 -129t48 -130t128 -45t130 47t50 127t-53 127t-127 47z" />
    <glyph glyph-name="one.den" horiz-adv-x="579" 
d="M244 0v616h-183v103h23q176 0 180 164h131v-883h-151z" />
    <glyph glyph-name="seven.den" horiz-adv-x="739" 
d="M51 752v129h631v-93l-389 -788h-162l373 752h-453z" />
    <glyph glyph-name="six.den" horiz-adv-x="856" 
d="M440 102q74 0 127 48t53 133q0 86 -48 134q-50 48 -132 48t-130 -46t-48 -134q0 -87 52 -135t126 -48zM250 457h6q74 129 240 129q126 0 202 -75t76 -211t-90 -227t-246 -91q-342 0 -342 417q0 240 100 367t283 127q260 0 285 -213h-154q-10 45 -47 74t-96 28
q-105 0 -161 -92t-56 -233z" />
    <glyph glyph-name="three.den" horiz-adv-x="845" 
d="M424 387h-86v119h80q66 0 110 39t45 97q0 58 -44 94t-111 36q-158 0 -164 -147h-156q0 113 83 191t233 77q150 0 232 -67q83 -67 83 -169q0 -69 -43 -121t-115 -77v-4q82 -19 132 -73q51 -54 51 -152t-90 -174t-250 -74q-160 0 -243 76t-89 194h158q10 -74 60 -112
t124 -38t125 41t51 106t-46 101t-130 37z" />
    <glyph glyph-name="two.den" horiz-adv-x="825" 
d="M227 596h-157q2 139 91 218t241 79t228 -70q77 -70 77 -168q-1 -98 -47 -165t-164 -168l-215 -193v-2h442v-127h-662v102l318 295q90 80 128 131q38 52 38 112t-41 96t-112 36t-118 -42t-47 -134z" />
    <glyph glyph-name="zero.den" horiz-adv-x="905" 
d="M451 100q90 0 143 84t53 253t-52 253t-144 84q-193 0 -193 -337t193 -337zM92 435q0 226 96 342t266 116t264 -115q95 -115 95 -341t-95 -341q-95 -114 -267 -114t-266 113q-93 114 -93 340z" />
    <glyph glyph-name="zero.num" horiz-adv-x="905" 
d="M451 784q90 0 143 84t53 253t-52 253t-144 84q-193 0 -193 -337t193 -337zM92 1119q0 226 96 342t266 116t264 -115q95 -115 95 -341t-95 -341q-95 -114 -267 -114t-266 113q-93 114 -93 340z" />
    <glyph glyph-name="one.num" horiz-adv-x="579" 
d="M244 684v616h-183v103h23q176 0 180 164h131v-883h-151z" />
    <glyph glyph-name="two.num" horiz-adv-x="825" 
d="M227 1280h-157q2 139 91 218t241 79t228 -70q77 -70 77 -168q-1 -99 -47 -165t-164 -168l-215 -193v-2h442v-127h-662v102l318 295q90 80 128 131q38 52 38 112t-41 96t-112 36t-118 -42t-47 -134z" />
    <glyph glyph-name="three.num" horiz-adv-x="845" 
d="M424 1071h-86v119h80q66 0 110 39t45 97q0 58 -44 94t-111 36q-158 0 -164 -147h-156q0 113 83 191t233 77q150 0 232 -67q83 -67 83 -169q0 -69 -43 -121t-115 -77v-4q82 -19 132 -73q51 -54 51 -152t-90 -174t-250 -74q-160 0 -243 76t-89 194h158q10 -74 60 -112
t124 -38t125 41t51 106t-46 101t-130 37z" />
    <glyph glyph-name="four.num" horiz-adv-x="860" 
d="M778 887h-119v-203h-149v203h-449v112l420 566h178v-555h119v-123zM516 1008v407h-6q-18 -39 -57 -92l-236 -315h299z" />
    <glyph glyph-name="five.num" horiz-adv-x="837" 
d="M588 967q0 84 -49 131t-145 47t-148 -70h-131l43 490h532v-127h-407l-23 -244h2q64 72 190 72t210 -77t84 -215t-92 -223q-91 -85 -252 -85q-160 0 -236 74t-84 184h154q12 -135 172 -136q74 0 127 48t53 131z" />
    <glyph glyph-name="six.num" horiz-adv-x="856" 
d="M440 786q74 0 127 48t53 133q0 86 -48 134q-50 48 -132 48t-130 -46t-48 -134q0 -87 52 -135t126 -48zM250 1141h6q74 129 240 129q126 0 202 -75t76 -211t-90 -227t-246 -91q-342 0 -342 417q0 240 100 367t283 127q260 0 285 -213h-154q-10 45 -47 74t-96 28
q-105 0 -161 -92t-56 -233z" />
    <glyph glyph-name="seven.num" horiz-adv-x="739" 
d="M51 1436v129h631v-92l-389 -789h-162l373 752h-453z" />
    <glyph glyph-name="eight.num" horiz-adv-x="872" 
d="M438 776q80 0 130 38t50 112t-50 112t-130 37q-80 0 -132 -38q-52 -37 -52 -111t52 -112t132 -38zM590 1326q0 68 -43 102q-43 36 -112 36t-111 -36t-43 -104q0 -68 44 -104q45 -36 111 -36t110 37t44 105zM131 1337q0 106 80 173t225 67q146 0 226 -68t79 -174
q0 -152 -143 -196v-4q172 -39 172 -213q0 -111 -89 -184q-89 -72 -246 -72t-245 70t-88 172t50 156t122 71v4q-143 44 -143 198z" />
    <glyph glyph-name="nine.num" horiz-adv-x="856" 
d="M401 782q201 0 203 324h-4q-29 -51 -89 -85t-134 -34q-117 0 -204 74t-87 209t91 221t241 86q344 0 344 -420q0 -492 -363 -491q-125 0 -204 58t-93 167h144q10 -49 54 -79t101 -30zM416 1454q-74 0 -125 -44t-51 -129t48 -130t128 -45t130 47t50 127t-53 127t-127 47z
" />
    <glyph glyph-name="minus.num" horiz-adv-x="835" 
d="M119 1049v120h602v-120h-602z" />
    <glyph glyph-name="plus.num" horiz-adv-x="839" 
d="M483 1051v-232h-129v232h-243v116h243v230h129v-230h244v-116h-244z" />
    <glyph glyph-name="minus.den" horiz-adv-x="835" 
d="M119 365v120h602v-120h-602z" />
    <glyph glyph-name="plus.den" horiz-adv-x="839" 
d="M483 367v-232h-129v232h-243v116h243v230h129v-230h244v-116h-244z" />
    <glyph glyph-name="parenleft.tab" horiz-adv-x="614" 
d="M377 674q1 -282 59 -496q58 -213 164 -444h-139q-65 132 -95 196t-81 197q-97 253 -97 546t97 549q51 134 80 196t96 196h139q-106 -230 -164 -444t-59 -496z" />
    <glyph glyph-name="parenright.tab" horiz-adv-x="614" 
d="M16 -266q106 231 165 444q58 213 59 496q0 282 -58 496t-166 444h140q206 -402 244 -624q53 -308 6 -596q-35 -206 -155 -465q-30 -65 -95 -195h-140z" />
    <glyph glyph-name="bracketleft.tab" horiz-adv-x="614" 
d="M197 -266v1880h446v-137h-276v-1606h276v-137h-446z" />
    <glyph glyph-name="bracketright.tab" horiz-adv-x="614" 
d="M418 1614v-1880h-447v135h277v1608h-277v137h447z" />
    <glyph glyph-name="braceleft.tab" horiz-adv-x="614" 
d="M96 598h-39v152h39q88 0 123 34t35 121v412q0 169 87 237t302 68v-127q-82 0 -128 -10t-68 -43q-23 -33 -27 -68t-4 -108v-338q0 -223 -154 -250v-8q154 -27 154 -250v-338q0 -74 5 -109t27 -67t67 -43q46 -10 128 -10v-127q-215 0 -302 68t-87 237v411q0 86 -35 121
t-123 35z" />
    <glyph glyph-name="braceright.tab" horiz-adv-x="614" 
d="M557 750v-152h-39q-88 0 -123 -35t-35 -121v-411q0 -168 -87 -237t-302 -68v127q82 0 128 10q81 18 95 110q5 35 5 109v338q0 223 153 250v8q-154 27 -153 250v338q0 74 -5 108t-27 68q-22 33 -68 43t-128 10v127q215 0 302 -69t87 -236v-412q0 -86 35 -121t123 -34h39z
" />
    <glyph glyph-name="eight.sub" horiz-adv-x="872" 
d="M438 -31q80 0 130 38t50 112q0 73 -50 111t-130 38t-132 -38t-52 -112t52 -111q52 -38 132 -38zM590 518q0 68 -43 104t-112 35q-69 1 -111 -35t-43 -104q0 -68 44 -104q45 -36 111 -37q66 0 110 37q44 36 44 104zM131 530q0 106 80 173t225 67q146 0 226 -68t79 -174
q0 -152 -143 -196v-4q172 -39 172 -213q0 -111 -89 -184t-246 -73t-245 72q-88 70 -88 172t50 155q50 54 122 71v4q-143 44 -143 198z" />
    <glyph glyph-name="eight.sup" horiz-adv-x="872" 
d="M254 1028q0 -74 52 -112t132 -37q80 -1 130 37t50 112t-50 112t-130 38t-132 -38t-52 -112zM435 1567q-69 0 -111 -36t-43 -104q0 -69 44 -105q45 -36 111 -36t110 37t44 105t-43 103q-43 36 -112 36zM131 1440q0 106 80 173t225 67t226 -68q80 -68 79 -174
q0 -152 -143 -197v-4q172 -39 172 -213q0 -112 -89 -184t-246 -72t-245 71t-88 172t50 155t122 71v4q-143 45 -143 199z" />
    <glyph glyph-name="five.sub" horiz-adv-x="837" 
d="M588 160q0 84 -49 131t-145 47t-148 -70h-131l43 490h532v-127h-407l-23 -244h2q64 72 190 72t210 -77t84 -215t-92 -223q-91 -85 -252 -85q-160 -1 -236 73t-84 185h154q12 -135 172 -135q74 0 127 47t53 131z" />
    <glyph glyph-name="five.sup" horiz-adv-x="837" 
d="M588 1069q0 84 -49 131t-145 47t-148 -69h-131l43 489h532v-127h-407l-23 -244h2q64 72 190 72t210 -77t84 -215t-92 -223q-91 -85 -252 -85q-160 0 -236 74t-84 184h154q12 -135 172 -135q74 0 127 47t53 131z" />
    <glyph glyph-name="four.sub" horiz-adv-x="860" 
d="M778 80h-119v-203h-149v203h-449v113l420 565h178v-555h119v-123zM516 201v407h-6q-18 -39 -57 -92l-236 -315h299z" />
    <glyph glyph-name="four.sup" horiz-adv-x="860" 
d="M778 989h-119v-203h-149v203h-449v113l420 565h178v-555h119v-123zM516 1110v408h-6q-18 -39 -57 -93l-236 -315h299z" />
    <glyph glyph-name="minus.sub" horiz-adv-x="835" 
d="M119 242v120h602v-120h-602z" />
    <glyph glyph-name="minus.sup" horiz-adv-x="835" 
d="M119 1151v121h602v-121h-602z" />
    <glyph glyph-name="nine.sub" horiz-adv-x="856" 
d="M401 -25q201 0 203 324h-4q-29 -51 -89 -85t-134 -34q-117 0 -204 74t-87 209t91 221t241 86q344 0 344 -420q0 -492 -363 -491q-125 0 -204 58t-93 167h144q10 -49 54 -79t101 -30zM416 647q-74 0 -125 -44t-51 -129t48 -130t128 -45t130 47t50 127t-53 127t-127 47z
" />
    <glyph glyph-name="nine.sup" horiz-adv-x="856" 
d="M86 1372q0 135 91 221t241 86q344 0 344 -419q0 -492 -363 -492q-125 0 -204 58t-93 167h144q10 -49 54 -79t101 -29q201 0 203 323h-4q-29 -51 -89 -85t-134 -33q-117 0 -204 74t-87 208zM416 1556q-74 0 -125 -44t-51 -129t48 -130t128 -45t130 47t50 127t-53 127
t-127 47z" />
    <glyph glyph-name="one.sub" horiz-adv-x="579" 
d="M244 -123v617h-183v102h23q176 0 180 164h131v-883h-151z" />
    <glyph glyph-name="one.sup" horiz-adv-x="579" 
d="M244 786v617h-183v102h23q176 0 180 164h131v-883h-151z" />
    <glyph glyph-name="plus.sub" horiz-adv-x="839" 
d="M483 244v-232h-129v232h-243v116h243v230h129v-230h244v-116h-244z" />
    <glyph glyph-name="plus.sup" horiz-adv-x="839" 
d="M483 1153v-231h-129v231h-243v117h243v229h129v-229h244v-117h-244z" />
    <glyph glyph-name="seven.sub" horiz-adv-x="739" 
d="M51 629v129h631v-92l-389 -789h-162l373 752h-453z" />
    <glyph glyph-name="seven.sup" horiz-adv-x="739" 
d="M51 1538v129h631v-92l-389 -789h-162l373 752h-453z" />
    <glyph glyph-name="six.sub" horiz-adv-x="856" 
d="M440 -20q74 0 127 47t53 133t-48 134q-50 48 -132 48t-130 -46t-48 -134t52 -135t126 -47zM250 334h6q74 129 240 129q126 0 202 -75t76 -211t-90 -227t-246 -91q-342 0 -342 417q0 240 100 367t283 127q260 0 285 -213h-154q-10 45 -47 74t-96 28q-105 0 -161 -92
t-56 -233z" />
    <glyph glyph-name="six.sup" horiz-adv-x="856" 
d="M440 889q74 0 127 47t53 133t-48 134q-50 48 -132 48t-130 -46t-48 -134t52 -135t126 -47zM467 1569q-105 0 -161 -92t-56 -234h6q74 129 240 129q126 0 202 -75t76 -211t-90 -227t-246 -91q-342 0 -342 418q0 240 100 366t283 127q260 0 285 -213h-154q-10 45 -47 74
t-96 29z" />
    <glyph glyph-name="three.sub" horiz-adv-x="845" 
d="M424 264h-86v119h80q66 0 110 39t45 97q0 58 -44 94t-111 36q-158 0 -164 -147h-156q0 112 83 190t233 78t232 -67q83 -67 83 -168q0 -68 -43 -121t-115 -78v-4q82 -18 132 -72q51 -54 51 -153q0 -97 -90 -173t-250 -76t-243 78q-83 76 -89 193h158q10 -74 60 -112
q50 -37 124 -37t125 40t51 106t-46 102t-130 36z" />
    <glyph glyph-name="three.sup" horiz-adv-x="845" 
d="M424 1174h-86v118h80q66 0 110 39t45 97q0 58 -44 94t-111 37q-158 0 -164 -148h-156q0 113 83 191t233 78t232 -68q83 -66 83 -168q0 -68 -43 -121t-115 -78v-4q82 -19 132 -73q51 -54 51 -152t-90 -173t-250 -75t-243 77t-89 193h158q10 -74 60 -112t124 -37
q74 0 125 41q51 42 51 106t-46 101t-130 37z" />
    <glyph glyph-name="two.sub" horiz-adv-x="825" 
d="M227 473h-157q2 139 91 218t241 79t228 -70q77 -70 77 -168q-1 -98 -47 -164t-164 -169l-215 -193v-2h442v-127h-662v103l318 294q90 80 128 132t38 111q0 60 -41 96t-112 36t-118 -42t-47 -134z" />
    <glyph glyph-name="two.sup" horiz-adv-x="825" 
d="M227 1382h-157q2 138 91 218t241 80t228 -70q77 -70 77 -168q-1 -98 -47 -165t-164 -169l-215 -193v-2h442v-127h-662v103l318 295q90 80 128 131t38 111t-41 96t-112 37q-71 -1 -118 -43t-47 -134z" />
    <glyph glyph-name="zero.sub" horiz-adv-x="905" 
d="M451 -23q90 0 143 84t53 253t-52 253t-144 84q-193 0 -193 -337t193 -337zM92 312q0 226 96 342t266 116t264 -115q95 -115 95 -341t-95 -341t-267 -115t-266 114q-93 114 -93 340z" />
    <glyph glyph-name="zero.sup" horiz-adv-x="905" 
d="M451 887q90 0 143 84t53 253t-52 253t-144 84q-193 0 -193 -337t193 -337zM92 1222q0 226 96 342t266 116t264 -116q95 -114 95 -340t-95 -341t-267 -115t-266 114q-93 114 -93 340z" />
    <glyph glyph-name="Q.old" horiz-adv-x="1685" 
d="M842 1438q-230 0 -366 -170t-136 -488t135 -489q135 -170 365 -170q104 0 188 33l-149 215l139 96l153 -221q175 168 175 508t-138 512q-138 174 -366 174zM840 -33q-307 0 -504 206t-197 605q0 203 57 362q103 292 376 400q124 49 268 49t271 -49q273 -106 379 -399
q56 -158 56 -363q0 -463 -278 -676l151 -221l-137 -94l-160 231q-129 -51 -282 -51z" />
    <glyph glyph-name="Q.scold" horiz-adv-x="1505" 
d="M752 1188q-186 0 -299 -138t-113 -394q0 -257 112 -395t298 -138q92 0 159 27l-145 208l127 91l147 -213q127 137 127 405t-113 408q-114 139 -300 139zM755 1337q261 0 431 -173t170 -509q0 -379 -226 -553l144 -208l-125 -89l-152 218q-121 -49 -247 -50
q-264 0 -433 173q-167 173 -167 507t172 509t433 175z" />
    <glyph glyph-name="Euro.tab" 
d="M715 -33q-436 0 -506 547h-172v145h160q-2 31 -2 95t2 92h-164v145h176q39 273 169 411t328 138t326 -120q127 -120 139 -339h-182q-14 129 -81 218q-66 89 -202 89t-211 -98q-75 -100 -98 -299h453v-145h-463q-2 -29 -2 -92t2 -95h467v-145h-455q49 -399 314 -399
q129 0 201 85t83 224h183q-12 -193 -136 -325t-329 -132z" />
    <glyph glyph-name="dollar.tab" 
d="M682 -238h-135v224q-424 27 -484 448h183q43 -264 301 -293v559l-37 7q-393 74 -393 423q0 160 120 272t310 130v164h135v-164q206 -18 320 -132t124 -294h-180q-31 244 -264 278v-534l59 -10q219 -40 317 -142t97 -284q0 -182 -122 -296q-122 -116 -351 -132v-224z
M682 143h12q276 31 277 269q0 209 -264 258l-25 4v-531zM547 874v510q-119 -16 -187 -87t-67 -167q0 -213 239 -253z" />
    <glyph glyph-name="dieresis.uc" horiz-adv-x="755" 
d="M61 1683v203h189v-203h-189zM504 1683v203h188v-203h-188z" />
    <glyph glyph-name="zero.tab" 
d="M612 121q156 0 239 161t83 468q0 635 -322 634q-317 0 -317 -632t317 -631zM94 753q0 395 137 591t381 196t383 -197t139 -589t-136 -590q-138 -197 -385 -197t-383 196t-136 590z" />
    <glyph glyph-name="one.tab" 
d="M1063 0h-782v158h307v960h-309v131h51q287 0 291 275h153v-1366h289v-158z" />
    <glyph glyph-name="nine.tab" 
d="M582 117q180 1 265 153t85 484h-4q-106 -186 -373 -187q-174 0 -316 123q-143 123 -143 345q0 221 142 363t360 142q526 0 526 -706q0 -463 -133 -664t-409 -201q-184 0 -308 93q-122 94 -149 280h178q18 -102 96 -164t183 -61zM915 1051q0 157 -95 245t-223 88t-218 -85
t-90 -243t89 -246q89 -87 225 -87t224 86t88 242z" />
    <glyph glyph-name="eight.tab" 
d="M948 403q0 143 -95 217t-237 74t-239 -74q-96 -74 -96 -216t95 -216t239 -73q144 0 239 72q94 73 94 216zM612 1393q-124 0 -206 -71t-82 -204t84 -206q84 -72 204 -72t205 72q84 72 84 205q0 132 -83 204t-206 72zM133 1126q0 174 133 294t347 120q213 0 347 -120
t134 -294q0 -131 -73 -225t-175 -127v-4q117 -27 204 -119t87 -264q-1 -172 -145 -296t-380 -124t-379 123t-143 311q0 156 88 248t203 121v4q-102 33 -175 127t-73 225z" />
    <glyph glyph-name="seven.tab" 
d="M104 1352v166h1022v-121l-653 -1397h-192l634 1352h-811z" />
    <glyph glyph-name="six.tab" 
d="M624 811q-140 0 -228 -85t-87 -255q-1 -170 93 -258t225 -88t223 88t92 255t-89 255t-229 88zM651 1540q201 0 314 -91t129 -259h-179q-16 96 -82 151q-67 55 -182 56q-352 0 -366 -633h6q53 96 155 150t230 55q186 0 322 -121q136 -120 136 -354t-138 -379t-369 -146
q-530 0 -531 703q0 868 555 868z" />
    <glyph glyph-name="five.tab" 
d="M627 125q129 0 224 92t95 264q0 173 -90 267t-229 94q-195 0 -281 -133h-160l45 809h813v-160h-651l-24 -484h4q104 125 298 125q195 0 331 -128t136 -374q0 -247 -140 -387q-142 -140 -382 -141q-341 0 -448 272q-29 72 -35 154h186q20 -270 308 -270z" />
    <glyph glyph-name="space_uni0326.alt" horiz-adv-x="755" 
d="M496 1579l-45 -281h-199l127 281h117z" />
    <glyph glyph-name="four.tab" 
d="M1147 369h-199v-369h-176v369h-700v147l676 1002h200v-990h199v-159zM772 526v774h-6q-25 -61 -90 -157l-418 -617h514z" />
    <glyph glyph-name="three.tab" 
d="M618 686h-79v170h79q117 0 195 77t78 193t-77 187q-77 72 -202 71q-295 0 -307 -301h-184q0 195 129 326t352 131t348 -115t125 -292q1 -113 -69 -204t-183 -141v-4q125 -33 210 -127t85 -265t-139 -297t-380 -126t-368 129t-137 328h187q18 -147 110 -224t226 -77
t226 77q91 76 91 206t-83 204t-233 74z" />
    <glyph glyph-name="uni021A.sc" horiz-adv-x="1226" 
d="M475 -422l45 281h199l-127 -281h-117zM1155 1319v-158h-448v-1161h-187v1161h-448v158h1083z" />
    <glyph glyph-name="two.tab" 
d="M324 1053h-193q0 225 139 356q140 131 360 131t341 -123t121 -282t-72 -273t-270 -303l-410 -393v-2h762v-164h-1010v141l520 516q86 88 121 126q120 130 142 201q22 70 22 132q0 119 -75 195q-74 75 -202 75t-212 -82t-84 -251z" />
    </font>
</defs>
</svg>
