<svg id="Layer_1" data-name="Layer 1" xmlns="http://www.w3.org/2000/svg" viewBox="0 0 281.1 100.8"><defs><style>.cls-1{fill:#7e94b4;}.cls-2{fill:#25cb55;}.cls-3{fill:#fff;}.cls-4{fill:#3c31d4;}</style></defs><title>hiyaArtboard 1</title><g id="Layer_1-2" data-name="Layer 1-2"><path class="cls-1" d="M9,100.5a11.33,11.33,0,0,1-.6-3.6c-.1-1.6-.5-2.2-1.9-2.2H4.8v5.9H.7V83.7H6.8c4.3,0,6.3,2,6.3,5.3a4.2,4.2,0,0,1-2.9,4.2c1.5.5,2.1,1.4,2.3,3.6s.3,3.1.8,3.8H9ZM6.7,91.3c1.6,0,2.3-.7,2.3-2.1A2,2,0,0,0,7.2,87H4.8v4.3Z"/><path class="cls-1" d="M27.3,100.5H16.6V83.7H27.2v3.5H20.8v3.1h4.8v3.4H20.8V97h6.5Z"/><path class="cls-1" d="M30.1,92.7V91.4c0-4.8,2.2-8.1,6.7-8.1s6.3,2.8,6.3,6.9v.2h-4v-.2c0-2.4-.8-3.4-2.3-3.4s-2.4,1.1-2.4,3.7v3c0,2.6.9,3.7,2.6,3.7,1.2,0,2-.8,2-2.3v-.1H37.2v-3H43v8.6H39.9L39.8,99c-.5,1.2-1.7,1.8-3.5,1.8C32.2,100.8,30.1,97.5,30.1,92.7Z"/><path class="cls-1" d="M51.3,83.7v16.8H47V83.7Z"/><path class="cls-1" d="M60.5,83.3c4,0,6.1,2.3,6.1,5.7v.4H62.9v-.3c0-1.6-.8-2.6-2.4-2.6a1.5,1.5,0,0,0-1.7,1.4v.2c0,.8.5,1.2,1.3,1.6l2.5.8c2.7.9,4.3,2.2,4.3,4.9,0,3.4-2.5,5.3-5.9,5.3-4.1,0-6.3-2.2-6.3-5.7v-.4h3.8V95a2.43,2.43,0,0,0,2.1,2.6h.5c1.2,0,1.9-.6,1.9-1.6s-.5-1.3-1.5-1.6l-2.6-.8c-2.3-.7-4-2-4-4.9C54.8,85.5,57,83.3,60.5,83.3Z"/><path class="cls-1" d="M73.4,100.5V87.1H69.2V83.6H81.8v3.5H77.5v13.3H73.4Z"/><path class="cls-1" d="M96,100.5H85.3V83.7H95.9v3.5H89.5v3.1h4.8v3.4H89.5V97H96Z"/><path class="cls-1" d="M107.9,100.5a11.33,11.33,0,0,1-.6-3.6c-.1-1.6-.5-2.2-1.9-2.2h-1.7v5.9H99.6V83.7h6.1c4.3,0,6.3,2,6.3,5.3a4.2,4.2,0,0,1-2.9,4.2c1.5.5,2.1,1.4,2.3,3.6s.3,3.1.8,3.8h-4.3Zm-2.3-9.2c1.6,0,2.3-.7,2.3-2.1a2,2,0,0,0-1.8-2.2h-2.4v4.3Z"/><path class="cls-2" d="M125.9,90.38c0-.51-.2-.91-1-.91h-.81v1.82h.71C125.8,91.29,125.9,90.89,125.9,90.38Z"/><path class="cls-2" d="M125.09,92.91h-1v1.92h1c.91,0,1.11-.4,1.11-.91S126,92.91,125.09,92.91Z"/><path class="cls-2" d="M155.76,83.7H118.31a1.12,1.12,0,0,0-1.11,1.11V99.49a1.12,1.12,0,0,0,1.11,1.11h37.44a1.12,1.12,0,0,0,1.11-1.11h0V84.81a1,1,0,0,0-1.11-1.11Zm-30.56,13H122V87.55h3.24c2.13,0,2.93,1,2.93,2.53A1.79,1.79,0,0,1,126.51,92a2,2,0,0,1,1.82,2.23C128.33,95.74,127.42,96.65,125.19,96.65Zm10.83,0h-5.77V87.55h5.67v1.82h-3.44v1.72h2.63v1.82h-2.63v1.82H136Zm8.5-7.19H142.2v7.19H140V89.47h-2.23V87.55h6.88Zm6.07,7.19-.51-1.82h-2.53l-.51,1.82h-2.13l2.53-9.11h2.73l2.53,9.11Z"/><polygon class="cls-2" points="148.88 90.18 148.06 93.11 149.68 93.11 148.88 90.18"/></g><path class="cls-3" d="M15.7,12.5c0-4.5-1.5-6.4-4.1-6.4S7.5,8,7.5,12.5v5.2c0,4.5,1.5,6.4,4.1,6.4s4.1-1.9,4.1-6.4Zm7.6,3.6c0,8.4-3.7,14-11.6,14S0,24.4,0,16.1v-2C0,5.7,3.7,0,11.6,0S23.2,5.7,23.2,14v2.1Zm16.1-1.7c2.6,0,3.9-1.1,3.9-4S42,6.3,39.4,6.3H36.7v8.1ZM36.7,29.6H29.5V.5H40.1c6.9,0,10.3,3.6,10.3,9.8,0,6.4-3.4,9.9-10.3,9.9H36.8v9.4Z"/><polygon class="cls-3" points="74.4 29.6 56.1 29.6 56.1 0.5 74.3 0.5 74.3 6.5 63.2 6.5 63.2 11.9 71.5 11.9 71.5 17.8 63.2 17.8 63.2 23.6 74.4 23.6 74.4 29.6"/><polygon class="cls-3" points="95.8 15.7 96 15.7 96 0.5 102.6 0.5 102.6 29.6 97 29.6 87.6 13 87.4 13 87.4 29.6 80.7 29.6 80.7 0.5 87.6 0.5 95.8 15.7"/><path class="cls-3" d="M15.7,53.3c0-4.5-1.5-6.4-4.1-6.4s-4.1,1.9-4.1,6.4v5.2c0,4.5,1.5,6.4,4.1,6.4s4.1-1.9,4.1-6.4Zm7.6,3.6c0,8.4-3.7,14-11.6,14S0,65.2,0,56.9v-2c0-8.4,3.7-14,11.6-14s11.6,5.7,11.6,14v2Z"/><polygon class="cls-3" points="46.9 41.3 49.7 58.3 49.9 58.3 52.9 41.3 59.7 41.3 53.8 70.4 46.6 70.4 43.5 51.8 43.3 51.8 40.1 70.4 32.9 70.4 27 41.3 34.3 41.3 37.2 58.3 37.4 58.3 40.3 41.3 46.9 41.3"/><polygon class="cls-3" points="80 56.6 80.1 56.6 80.1 41.3 86.8 41.3 86.8 70.4 81.2 70.4 71.8 53.8 71.6 53.8 71.6 70.4 64.9 70.4 64.9 41.3 71.8 41.3 80 56.6"/><polygon class="cls-3" points="112.1 70.4 93.8 70.4 93.8 41.3 112 41.3 112 47.3 100.9 47.3 100.9 52.7 109.2 52.7 109.2 58.6 100.9 58.6 100.9 64.4 112.1 64.4 112.1 70.4"/><path class="cls-3" d="M128.8,54.6c2.7,0,4.1-1.2,4.1-3.7s-1.3-3.8-4.1-3.8h-3.2v7.5Zm4,15.8c-.6-1.2-.9-2.8-1.1-6.3-.1-2.7-.9-3.9-3.3-3.9h-2.9V70.4h-7.2V41.3h10.6c7.4,0,10.9,3.5,10.9,9.1,0,4.1-2.4,6.6-5,7.2,2.6.8,3.6,2.5,3.9,6.1.3,4,.5,5.4,1.3,6.6h-7.2ZM155,40.8c6.9,0,10.5,4,10.5,9.8v.7H159v-.5c0-2.8-1.3-4.6-4.1-4.6a2.68,2.68,0,0,0-3,2.8c0,1.3.8,2.2,2.3,2.7l4.3,1.4c4.7,1.6,7.5,3.9,7.5,8.5,0,6-4.4,9.1-10.2,9.1-7,0-11-3.9-11-9.8v-.6h6.5v.4c0,2.8,1.5,4.5,4.4,4.5,2,0,3.2-1,3.2-2.7,0-1.5-.8-2.3-2.6-2.8l-4.4-1.4c-3.9-1.2-6.9-3.5-6.9-8.5.1-5.2,3.9-9,10-9"/><polygon class="cls-3" points="172 70.4 172 41.3 179.3 41.3 179.3 52.7 187.6 52.7 187.6 41.3 194.9 41.3 194.9 70.4 187.6 70.4 187.6 58.6 179.3 58.6 179.3 70.4 172 70.4"/><polygon class="cls-3" points="201.9 70.4 209.2 70.4 209.2 41.3 201.9 41.3 201.9 70.4"/><path class="cls-3" d="M226.1,55.2c2.6,0,3.9-1.1,3.9-4s-1.3-4.1-3.9-4.1h-2.7v8.1Zm-2.7,15.2h-7.2V41.3h10.6c6.9,0,10.3,3.6,10.3,9.8,0,6.4-3.4,9.9-10.3,9.9h-3.3v9.4Z"/><path class="cls-4" d="M277.8,27.1l-3.4-2h-6.5V23.3h3.4l-3.4-2V19.5h13.2v1.8H271l3.5,2h6.7v1.8h-3.5l3.5,2v2H268v-2ZM265.7,8l15.4-2V4H252V6h14.6L252,8V9.8h29.1V8ZM252.1,2h29.1V0H252.1Zm0,11.5h29.1V11.7H252.1Zm15.8,4h13.2v-2H267.9Z"/></svg>