<?xml version="1.0" standalone="no"?>
<!DOCTYPE svg PUBLIC "-//W3C//DTD SVG 20010904//EN"
 "http://www.w3.org/TR/2001/REC-SVG-20010904/DTD/svg10.dtd">
<svg version="1.0" xmlns="http://www.w3.org/2000/svg"
 width="16.000000pt" height="16.000000pt" viewBox="0 0 16.000000 16.000000"
 preserveAspectRatio="xMidYMid meet">
<metadata>
Created by potrace 1.11, written by Peter Selinger 2001-2013
</metadata>
<g transform="translate(0.000000,16.000000) scale(0.003077,-0.003077)"
fill="#000000" stroke="none">
<path d="M0 2600 l0 -2600 2600 0 2600 0 0 2600 0 2600 -2600 0 -2600 0 0
-2600z m4200 1490 l0 -110 -1600 0 -1600 0 0 110 0 110 1600 0 1600 0 0 -110z
m0 -440 c0 -79 -3 -110 -12 -110 -27 0 -1643 -211 -1647 -216 -2 -2 370 -4
827 -4 l832 0 0 -95 0 -95 -1600 0 -1600 0 0 98 0 97 771 105 770 105 -770 3
-771 2 0 110 0 110 1600 0 1600 0 0 -110z m0 -840 l0 -100 -1600 0 -1600 0 0
100 0 100 1600 0 1600 0 0 -100z m0 -430 l0 -110 -727 2 -728 3 -3 108 -3 107
731 0 730 0 0 -110z m0 -425 l0 -95 -555 -2 -556 -3 188 -107 189 -108 367 0
367 0 0 -100 0 -100 -187 -2 -188 -3 188 -108 187 -109 0 -109 0 -109 -730 0
-731 0 3 108 3 107 540 3 540 2 -185 110 -185 110 -358 0 -358 0 3 98 3 97
184 3 184 2 -184 109 -184 109 -3 96 -3 96 731 0 730 0 0 -95z"/>
</g>
</svg>
