<?xml version="1.0" standalone="no"?>
<!DOCTYPE svg PUBLIC "-//W3C//DTD SVG 20010904//EN"
 "http://www.w3.org/TR/2001/REC-SVG-20010904/DTD/svg10.dtd">
<svg version="1.0" xmlns="http://www.w3.org/2000/svg"
 width="1024.000000pt" height="1024.000000pt" viewBox="0 0 1024.000000 1024.000000"
 preserveAspectRatio="xMidYMid meet">
<metadata>
Created by potrace 1.11, written by Peter Selinger 2001-2013
</metadata>
<g transform="translate(0.000000,1024.000000) scale(0.100000,-0.100000)"
fill="#000000" stroke="none">
<path d="M1738 10234 c-2 -1 -26 -5 -53 -8 -153 -16 -357 -68 -485 -123 -277
-120 -481 -260 -671 -458 -259 -270 -420 -588 -500 -987 -27 -134 -34 -446
-13 -593 42 -303 140 -560 310 -817 35 -53 70 -103 77 -110 6 -8 37 -42 67
-77 67 -79 164 -173 249 -241 62 -49 205 -150 214 -150 3 0 30 -16 62 -35 164
-99 469 -197 685 -221 103 -11 111 -12 196 -13 l81 -1 43 -107 c202 -509 496
-852 922 -1076 138 -72 348 -152 483 -183 6 -1 40 -9 76 -18 37 -8 80 -18 95
-21 75 -13 143 -25 184 -30 25 -3 56 -8 70 -10 14 -2 54 -6 90 -10 36 -3 81
-8 100 -10 154 -19 434 -26 1110 -30 672 -4 825 -8 1070 -30 71 -7 210 -23
250 -30 14 -3 45 -8 70 -11 25 -3 48 -8 51 -10 3 -2 19 -6 35 -8 76 -14 191
-43 219 -55 11 -5 56 -21 100 -36 99 -33 236 -101 326 -161 211 -140 389 -351
514 -609 91 -187 93 -167 -27 -205 -57 -17 -119 -39 -138 -47 -326 -141 -576
-328 -781 -583 -197 -244 -322 -521 -390 -862 -27 -134 -34 -445 -13 -593 110
-789 675 -1419 1444 -1610 171 -43 245 -50 485 -49 219 0 333 16 526 74 507
150 944 520 1174 995 44 92 101 232 109 270 1 6 10 35 19 65 48 164 62 280 62
525 0 198 -9 275 -51 446 -185 753 -799 1313 -1574 1439 l-75 12 0 1283 c0
706 3 1286 6 1289 7 8 36 14 98 21 24 3 46 7 50 9 4 3 27 7 51 11 79 12 310
93 426 150 380 187 697 504 879 880 44 92 101 232 109 270 1 6 10 35 19 65 48
164 62 280 62 525 0 198 -9 275 -51 446 -171 693 -709 1231 -1404 1404 -171
43 -245 50 -485 49 -219 0 -333 -16 -526 -74 -586 -173 -1063 -630 -1264
-1210 -35 -102 -69 -231 -80 -307 -3 -21 -8 -51 -11 -68 -13 -75 -12 -414 2
-510 33 -239 121 -507 219 -670 19 -32 35 -59 35 -62 0 -9 101 -152 150 -214
68 -85 162 -182 241 -249 35 -30 66 -58 69 -62 18 -23 251 -167 344 -212 168
-82 379 -150 536 -172 30 -4 58 -9 63 -10 4 -1 13 -2 20 -3 9 -1 12 -224 12
-1081 0 -594 -1 -1080 -2 -1080 -1 0 -24 37 -52 83 -210 346 -520 613 -887
762 -49 20 -98 40 -109 45 -11 4 -29 11 -40 13 -11 3 -51 15 -90 27 -38 11
-79 23 -90 25 -18 4 -54 13 -145 35 -19 4 -55 11 -80 15 -25 4 -52 9 -60 10
-8 1 -40 6 -70 10 -30 4 -63 9 -72 11 -10 1 -50 5 -90 9 -40 3 -84 8 -98 10
-30 5 -170 13 -340 21 -69 3 -411 7 -760 9 -593 3 -794 7 -964 21 -38 3 -90 7
-116 9 -321 23 -673 111 -895 222 -209 105 -389 260 -527 453 -59 82 -195 336
-212 395 -5 18 8 25 125 64 593 200 1053 676 1230 1271 57 191 73 307 73 525
1 240 -6 314 -49 485 -57 229 -136 408 -271 612 -36 53 -70 103 -77 110 -6 8
-37 42 -67 77 -67 79 -164 173 -249 241 -62 49 -205 150 -214 150 -3 0 -30 16
-62 35 -163 98 -433 186 -670 219 -84 12 -428 20 -437 10z m244 -425 c291 -8
592 -117 833 -299 316 -240 520 -581 580 -969 14 -86 14 -364 1 -446 -44 -270
-169 -541 -345 -745 -232 -270 -590 -467 -916 -506 -33 -3 -69 -8 -80 -11 -25
-5 -243 -4 -270 1 -11 2 -47 7 -80 10 -219 26 -484 137 -680 286 -277 210
-461 488 -555 835 -37 139 -52 399 -31 537 5 35 12 79 15 98 15 100 102 343
155 431 11 19 29 50 40 69 11 19 44 68 75 109 248 329 620 545 1016 590 129
15 154 17 160 15 3 -2 40 -4 82 -5z m6554 -13 c479 -72 880 -359 1111 -797 56
-105 124 -302 139 -399 2 -14 8 -52 13 -85 10 -63 7 -361 -4 -430 -15 -92 -61
-250 -98 -340 -64 -155 -210 -373 -322 -480 -178 -170 -386 -297 -595 -363
-75 -24 -168 -48 -225 -57 -69 -11 -367 -14 -430 -4 -33 5 -71 11 -85 13 -46
7 -145 35 -234 67 -258 91 -500 272 -676 504 -149 196 -260 461 -286 680 -3
33 -8 69 -10 80 -2 11 -4 70 -5 130 -1 356 128 706 360 975 232 270 587 466
916 505 27 4 51 8 53 9 9 10 301 3 378 -8z"/>
</g>
</svg>
