<svg xmlns="http://www.w3.org/2000/svg" width="18" height="12" viewBox="0 0 18 12">
  <g fill="none" fill-rule="evenodd">
    <rect width="18" height="12" fill="#EBEEF2"/>
    <path fill="#A8AAAC" d="M9.73937247,4.17085427 C9.73937247,4.67336683 9.49816644,4.93467337 9.11625689,5.25628141 L8.54339257,5.72864322 C8.01072926,6.16080402 7.93032724,6.32160804 7.93032724,6.95477387 L7.93032724,7.59798995 L9.30721167,7.59798995 L9.30721167,7.16582915 C9.30721167,6.88442211 9.37756343,6.79396985 9.5886187,6.62311558 L10.2619855,6.06030151 C10.9152519,5.51758794 11.3072117,5.01507538 11.3072117,4.09045226 C11.3072117,2.93467337 10.5534428,2 8.7443976,2 C6.94540262,2 5.97052825,3.10552764 6.000679,4.68341709 L7.52831719,4.68341709 C7.52831719,3.59798995 8.07103076,3.24623116 8.71424684,3.24623116 C9.36751317,3.24623116 9.73937247,3.6080402 9.73937247,4.17085427 Z M9.49816644,10 L9.49816644,8.47236181 L7.73937247,8.47236181 L7.73937247,10 L9.49816644,10 Z"/>
  </g>
</svg>
