<svg xmlns="http://www.w3.org/2000/svg" width="15" height="15" viewBox="0 0 15 15">
  <g fill="none" fill-rule="evenodd" transform="translate(-2 -2)">
    <path fill="#606D7F" fill-rule="nonzero" d="M12.2708333,11.0833333 L11.6454167,11.0833333 L11.42375,10.8695833 C12.1995833,9.96708333 12.6666667,8.79541667 12.6666667,7.52083333 C12.6666667,4.67875 10.3629167,2.375 7.52083333,2.375 C4.67875,2.375 2.375,4.67875 2.375,7.52083333 C2.375,10.3629167 4.67875,12.6666667 7.52083333,12.6666667 C8.79541667,12.6666667 9.96708333,12.1995833 10.8695833,11.42375 L11.0833333,11.6454167 L11.0833333,12.2708333 L15.0416667,16.22125 L16.22125,15.0416667 L12.2708333,11.0833333 L12.2708333,11.0833333 Z M7.52083333,11.0833333 C5.54958333,11.0833333 3.95833333,9.49208333 3.95833333,7.52083333 C3.95833333,5.54958333 5.54958333,3.95833333 7.52083333,3.95833333 C9.49208333,3.95833333 11.0833333,5.54958333 11.0833333,7.52083333 C11.0833333,9.49208333 9.49208333,11.0833333 7.52083333,11.0833333 Z"/>
    <polygon points="0 0 19 0 19 19 0 19"/>
  </g>
</svg>
