<svg xmlns="http://www.w3.org/2000/svg" width="16" height="14" viewBox="0 0 16 14">
  <g fill="#7F8DA3" fill-rule="evenodd">
    <path d="M11.0421315,10.4093037 L11.0421315,10.4093037 C10.8730129,10.4093037 10.7140211,10.4751283 10.5947266,10.5946254 C8.46322399,12.7259255 4.99517765,12.7255204 2.86387755,10.5946254 C0.732577446,8.46332526 0.732577446,4.99507638 2.86387755,2.86377628 C4.99517765,0.732476178 8.46322399,0.732881252 10.5947266,2.86357374 C10.8339232,3.10337792 11.2509475,3.1027703 11.4895365,2.86377628 C11.609236,2.74427927 11.6752632,2.58528748 11.6752632,2.41616883 C11.6752632,2.24725271 11.609236,2.08826092 11.489739,1.96876391 C10.2200326,0.699260059 8.52945369,-0.000101268654 6.72930209,-0.000101268654 C4.92915049,-0.000101268654 3.23857157,0.699260059 1.96886518,1.96876391 C0.699361328,3.2384703 0,4.92884668 0,6.72920082 C0,8.52955496 0.699361328,10.2201339 1.96886518,11.4900428 C3.23857157,12.7595467 4.92915049,13.4585029 6.72930209,13.4585029 C8.52925115,13.4585029 10.2198301,12.7593441 11.489739,11.4898403 C11.6094385,11.3701407 11.6752632,11.2111489 11.6752632,11.0420303 C11.6750606,10.8729116 11.609236,10.7141224 11.489739,10.5946254 C11.3700394,10.4751283 11.2110477,10.4093037 11.0421315,10.4093037"/>
    <path d="M15.8812744,6.37794036 C15.8571725,6.34168619 15.8304376,6.30907768 15.8016773,6.28072246 L13.6460727,4.12491534 C13.4068761,3.88592132 12.9900544,3.88592132 12.7510603,4.12491534 C12.6315633,4.24461489 12.5655362,4.40360668 12.5655362,4.57272533 C12.5657387,4.74184398 12.6315633,4.90063323 12.7510603,5.02013025 L13.8271411,6.09600843 L6.72922107,6.09600843 C6.38024929,6.09600843 6.09629198,6.38016827 6.09629198,6.72893752 C6.09629198,7.0779093 6.38024929,7.36186661 6.72922107,7.36186661 L13.8271411,7.36186661 L12.7510603,8.43814987 C12.6315633,8.55784942 12.5655362,8.71663867 12.5655362,8.88575732 C12.5655362,9.05467344 12.6315633,9.21366523 12.7510603,9.3329597 C12.8705574,9.45265925 13.0295491,9.51848388 13.1986678,9.51848388 C13.3675839,9.51848388 13.5265757,9.45265925 13.6462752,9.33316224 L15.80269,7.17654497 C16.0157592,6.96367826 16.0487728,6.62746633 15.8812744,6.37794036"/>
  </g>
</svg>
