<svg xmlns="http://www.w3.org/2000/svg" width="14" height="12" viewBox="0 0 14 12">
  <g fill="#C0C0C0" fill-rule="evenodd">
    <path d="M9.66159494,9.10788608 L9.66159494,9.10788608 C9.51362025,9.10788608 9.37450633,9.16548101 9.27012658,9.27003797 C7.40511392,11.1348734 4.37065823,11.134519 2.50582278,9.27003797 C0.640987342,7.40520253 0.640987342,4.37056962 2.50582278,2.50573418 C4.37065823,0.640898734 7.40511392,0.641253165 9.27012658,2.50555696 C9.47941772,2.71537975 9.8443038,2.7148481 10.0530633,2.50573418 C10.1577975,2.40117722 10.2155696,2.26206329 10.2155696,2.11408861 C10.2155696,1.96629114 10.1577975,1.82717722 10.0532405,1.72262025 C8.94227848,0.611835443 7.46306329,-8.86075941e-05 5.88797468,-8.86075941e-05 C4.31288608,-8.86075941e-05 2.83367089,0.611835443 1.72270886,1.72262025 C0.611924051,2.83358228 0,4.31262025 0,5.88788608 C0,7.4631519 0.611924051,8.94236709 1.72270886,10.0535063 C2.83367089,11.1642911 4.31288608,11.7758608 5.88797468,11.7758608 C7.46288608,11.7758608 8.94210127,11.1641139 10.0532405,10.0533291 C10.1579747,9.94859494 10.2155696,9.80948101 10.2155696,9.66150633 C10.2153924,9.51353165 10.1577975,9.37459494 10.0532405,9.27003797 C9.94850633,9.16548101 9.80939241,9.10788608 9.66159494,9.10788608"/>
    <path d="M13.8957266,5.58054177 C13.874638,5.54882025 13.8512456,5.52028861 13.826081,5.49547848 L11.9399797,3.6092 C11.7306886,3.40008608 11.3659797,3.40008608 11.1568658,3.6092 C11.0523089,3.71393418 10.9945367,3.8530481 10.9945367,4.00102278 C10.9947139,4.14899747 11.0523089,4.28793418 11.1568658,4.39249114 L12.0984101,5.33385823 L5.8879038,5.33385823 C5.58256203,5.33385823 5.33410633,5.58249114 5.33410633,5.8876557 C5.33410633,6.19299747 5.58256203,6.44145316 5.8879038,6.44145316 L12.0984101,6.44145316 L11.1568658,7.38317468 C11.0523089,7.48790886 10.9945367,7.62684557 10.9945367,7.77482025 C10.9945367,7.92261772 11.0523089,8.06173165 11.1568658,8.16611139 C11.2614228,8.27084557 11.4005367,8.32844051 11.5485114,8.32844051 C11.6963089,8.32844051 11.8354228,8.27084557 11.940157,8.16628861 L13.8269671,6.27930127 C14.0133975,6.0930481 14.0422835,5.79887089 13.8957266,5.58054177"/>
  </g>
</svg>
