<svg xmlns="http://www.w3.org/2000/svg" width="16" height="15" viewBox="0 0 16 15">
  <path fill="#191D23" d="M142.309,9.48233333 L140.531,7.72533333 L140.552,7.70433333 C141.77,6.34633333 142.638,4.78533333 143.149,3.13333333 L145.2,3.13333333 L145.2,1.73333333 L140.3,1.73333333 L140.3,0.333333333 L138.9,0.333333333 L138.9,1.73333333 L134,1.73333333 L134,3.12633333 L141.819,3.12633333 C141.35,4.47733333 140.608,5.75833333 139.6,6.87833333 C138.949,6.15733333 138.41,5.36633333 137.983,4.53333333 L136.583,4.53333333 C137.094,5.67433333 137.794,6.75233333 138.669,7.72533333 L135.106,11.2393333 L136.1,12.2333333 L139.6,8.73333333 L141.777,10.9103333 L142.309,9.48233333 Z M146.25,5.93333333 L144.85,5.93333333 L141.7,14.3333333 L143.1,14.3333333 L143.884,12.2333333 L147.209,12.2333333 L148,14.3333333 L149.4,14.3333333 L146.25,5.93333333 Z M144.416,10.8333333 L145.55,7.80233333 L146.684,10.8333333 L144.416,10.8333333 Z" transform="translate(-134)"/>
</svg>
