<svg xmlns="http://www.w3.org/2000/svg" width="14" height="12" viewBox="0 0 14 12">
  <path fill="#3C31D4" d="M591.666667,9665.66667 L591.666667,9663 L585,9663 L585,9675 L598.333333,9675 L598.333333,9665.66667 L591.666667,9665.66667 Z M587.666667,9673.66667 L586.333333,9673.66667 L586.333333,9672.33333 L587.666667,9672.33333 L587.666667,9673.66667 Z M587.666667,9671 L586.333333,9671 L586.333333,9669.66667 L587.666667,9669.66667 L587.666667,9671 Z M587.666667,9668.33333 L586.333333,9668.33333 L586.333333,9667 L587.666667,9667 L587.666667,9668.33333 Z M587.666667,9665.66667 L586.333333,9665.66667 L586.333333,9664.33333 L587.666667,9664.33333 L587.666667,9665.66667 Z M590.333333,9673.66667 L589,9673.66667 L589,9672.33333 L590.333333,9672.33333 L590.333333,9673.66667 Z M590.333333,9671 L589,9671 L589,9669.66667 L590.333333,9669.66667 L590.333333,9671 Z M590.333333,9668.33333 L589,9668.33333 L589,9667 L590.333333,9667 L590.333333,9668.33333 Z M590.333333,9665.66667 L589,9665.66667 L589,9664.33333 L590.333333,9664.33333 L590.333333,9665.66667 Z M597,9673.66667 L591.666667,9673.66667 L591.666667,9672.33333 L593,9672.33333 L593,9671 L591.666667,9671 L591.666667,9669.66667 L593,9669.66667 L593,9668.33333 L591.666667,9668.33333 L591.666667,9667 L597,9667 L597,9673.66667 Z M595.666667,9668.33333 L594.333333,9668.33333 L594.333333,9669.66667 L595.666667,9669.66667 L595.666667,9668.33333 Z M595.666667,9671 L594.333333,9671 L594.333333,9672.33333 L595.666667,9672.33333 L595.666667,9671 Z" transform="translate(-585 -9663)"/>
</svg>
