<?xml version="1.0" encoding="utf-8"?>
<!-- Generator: Adobe Illustrator 21.0.2, SVG Export Plug-In . SVG Version: 6.00 Build 0)  -->
<svg version="1.1" id="Layer_1" xmlns="http://www.w3.org/2000/svg" xmlns:xlink="http://www.w3.org/1999/xlink" x="0px" y="0px"
	 viewBox="0 0 281.1 100.8" style="enable-background:new 0 0 281.1 100.8;" xml:space="preserve">
<style type="text/css">
	.st0{fill:#7E94B4;}
	.st1{fill:#FFFFFF;}
	.st2{fill:#3C31D4;}
</style>
<title>Asset 2</title>
<g id="Layer_1-2">
	<path class="st0" d="M9,100.5c-0.4-1.2-0.6-2.4-0.6-3.6c-0.1-1.6-0.5-2.2-1.9-2.2H4.8v5.9H0.7V83.7h6.1c4.3,0,6.3,2,6.3,5.3
		c0.1,1.9-1.1,3.6-2.9,4.2c1.5,0.5,2.1,1.4,2.3,3.6c0.2,2.3,0.3,3.1,0.8,3.8H9z M6.7,91.3c1.6,0,2.3-0.7,2.3-2.1
		c0.1-1.1-0.7-2.1-1.8-2.2c-0.2,0-0.4,0-0.5,0H4.8v4.3L6.7,91.3z"/>
	<path class="st0" d="M27.3,100.5H16.6V83.7h10.6v3.5h-6.4v3.1h4.8v3.4h-4.8V97h6.5V100.5z"/>
	<path class="st0" d="M30.1,92.7v-1.3c0-4.8,2.2-8.1,6.7-8.1s6.3,2.8,6.3,6.9v0.2h-4v-0.2c0-2.4-0.8-3.4-2.3-3.4s-2.4,1.1-2.4,3.7v3
		c0,2.6,0.9,3.7,2.6,3.7c1.2,0,2-0.8,2-2.3v-0.1h-1.8v-3h5.8v8.6h-3.1L39.8,99c-0.5,1.2-1.7,1.8-3.5,1.8
		C32.2,100.8,30.1,97.5,30.1,92.7z"/>
	<path class="st0" d="M51.3,83.7v16.8H47V83.7H51.3z"/>
	<path class="st0" d="M60.5,83.3c4,0,6.1,2.3,6.1,5.7v0.4h-3.7v-0.3c0-1.6-0.8-2.6-2.4-2.6c-0.9-0.1-1.6,0.5-1.7,1.4
		c0,0.1,0,0.2,0,0.2c0,0.8,0.5,1.2,1.3,1.6l2.5,0.8c2.7,0.9,4.3,2.2,4.3,4.9c0,3.4-2.5,5.3-5.9,5.3c-4.1,0-6.3-2.2-6.3-5.7v-0.4h3.8
		V95c-0.1,1.3,0.8,2.4,2.1,2.6c0.2,0,0.3,0,0.5,0c1.2,0,1.9-0.6,1.9-1.6s-0.5-1.3-1.5-1.6l-2.6-0.8c-2.3-0.7-4-2-4-4.9
		C54.8,85.5,57,83.3,60.5,83.3z"/>
	<path class="st0" d="M73.4,100.5V87.1h-4.2v-3.5h12.6v3.5h-4.3v13.3H73.4z"/>
	<path class="st0" d="M96,100.5H85.3V83.7h10.6v3.5h-6.4v3.1h4.8v3.4h-4.8V97H96V100.5z"/>
	<path class="st0" d="M107.9,100.5c-0.4-1.2-0.6-2.4-0.6-3.6c-0.1-1.6-0.5-2.2-1.9-2.2h-1.7v5.9h-4.1V83.7h6.1c4.3,0,6.3,2,6.3,5.3
		c0.1,1.9-1.1,3.6-2.9,4.2c1.5,0.5,2.1,1.4,2.3,3.6c0.2,2.3,0.3,3.1,0.8,3.8H107.9z M105.6,91.3c1.6,0,2.3-0.7,2.3-2.1
		c0.1-1.1-0.7-2.1-1.8-2.2c-0.2,0-0.4,0-0.6,0h-1.8v4.3L105.6,91.3z"/>
	<path class="st0" d="M125.8,90.3c0-0.5-0.2-0.9-1-0.9H124v1.8h0.7C125.7,91.2,125.8,90.8,125.8,90.3z"/>
	<path class="st0" d="M125,92.8h-1v1.9h1c0.9,0,1.1-0.4,1.1-0.9S125.9,92.8,125,92.8z"/>
	<path class="st0" d="M155.3,83.7h-37c-0.6,0-1.1,0.5-1.1,1.1v14.5c0,0.6,0.5,1.1,1.1,1.1h37c0.6,0,1.1-0.5,1.1-1.1l0,0V84.8
		C156.5,84.2,156,83.7,155.3,83.7L155.3,83.7z M125.1,96.5h-3.2v-9h3.2c2.1,0,2.9,1,2.9,2.5c0.1,0.9-0.6,1.8-1.6,1.9
		c1.1,0.1,1.9,1.1,1.8,2.2C128.2,95.6,127.3,96.5,125.1,96.5z M135.8,96.5h-5.7v-9h5.6v1.8h-3.4v1.7h2.6v1.8h-2.6v1.8h3.5
		L135.8,96.5z M144.2,89.4h-2.3v7.1h-2.2v-7.1h-2.2v-1.9h6.8L144.2,89.4z M150.2,96.5l-0.5-1.8h-2.5l-0.5,1.8h-2.1l2.5-9h2.7l2.5,9
		H150.2z"/>
	<polygon class="st0" points="148.5,90.1 147.7,93 149.3,93 148.5,90.1 	"/>
</g>
<g>
	<g>
		<path class="st1" d="M15.7,12.5c0-4.5-1.5-6.4-4.1-6.4s-4.1,1.9-4.1,6.4v5.2c0,4.5,1.5,6.4,4.1,6.4s4.1-1.9,4.1-6.4V12.5z
			 M23.3,16.1c0,8.4-3.7,14-11.6,14C3.7,30.1,0,24.4,0,16.1v-2C0,5.7,3.7,0,11.6,0c7.9,0,11.6,5.7,11.6,14V16.1z M39.4,14.4
			c2.6,0,3.9-1.1,3.9-4c0-2.9-1.3-4.1-3.9-4.1h-2.7v8.1H39.4z M36.7,29.6h-7.2V0.5h10.6c6.9,0,10.3,3.6,10.3,9.8
			c0,6.4-3.4,9.9-10.3,9.9h-3.3V29.6z"/>
		<polygon class="st1" points="74.4,29.6 56.1,29.6 56.1,0.5 74.3,0.5 74.3,6.5 63.2,6.5 63.2,11.9 71.5,11.9 71.5,17.8 63.2,17.8 
			63.2,23.6 74.4,23.6 		"/>
		<polygon class="st1" points="95.8,15.7 96,15.7 96,0.5 102.6,0.5 102.6,29.6 97,29.6 87.6,13 87.4,13 87.4,29.6 80.7,29.6 
			80.7,0.5 87.6,0.5 		"/>
		<path class="st1" d="M15.7,53.3c0-4.5-1.5-6.4-4.1-6.4s-4.1,1.9-4.1,6.4v5.2c0,4.5,1.5,6.4,4.1,6.4s4.1-1.9,4.1-6.4V53.3z
			 M23.3,56.9c0,8.4-3.7,14-11.6,14C3.7,70.9,0,65.2,0,56.9v-2c0-8.4,3.7-14,11.6-14c7.9,0,11.6,5.7,11.6,14V56.9z"/>
		<polygon class="st1" points="46.9,41.3 49.7,58.3 49.9,58.3 52.9,41.3 59.7,41.3 53.8,70.4 46.6,70.4 43.5,51.8 43.3,51.8 
			40.1,70.4 32.9,70.4 27,41.3 34.3,41.3 37.2,58.3 37.4,58.3 40.3,41.3 		"/>
		<polygon class="st1" points="80,56.6 80.1,56.6 80.1,41.3 86.8,41.3 86.8,70.4 81.2,70.4 71.8,53.8 71.6,53.8 71.6,70.4 
			64.9,70.4 64.9,41.3 71.8,41.3 		"/>
		<polygon class="st1" points="112.1,70.4 93.8,70.4 93.8,41.3 112,41.3 112,47.3 100.9,47.3 100.9,52.7 109.2,52.7 109.2,58.6 
			100.9,58.6 100.9,64.4 112.1,64.4 		"/>
		<path class="st1" d="M128.8,54.6c2.7,0,4.1-1.2,4.1-3.7c0-2.4-1.3-3.8-4.1-3.8h-3.2v7.5H128.8z M132.8,70.4
			c-0.6-1.2-0.9-2.8-1.1-6.3c-0.1-2.7-0.9-3.9-3.3-3.9h-2.9v10.2h-7.2V41.3h10.6c7.4,0,10.9,3.5,10.9,9.1c0,4.1-2.4,6.6-5,7.2
			c2.6,0.8,3.6,2.5,3.9,6.1c0.3,4,0.5,5.4,1.3,6.6H132.8z M155,40.8c6.9,0,10.5,4,10.5,9.8v0.7h-6.5v-0.5c0-2.8-1.3-4.6-4.1-4.6
			c-1.9,0-3,1.1-3,2.8c0,1.3,0.8,2.2,2.3,2.7l4.3,1.4c4.7,1.6,7.5,3.9,7.5,8.5c0,6-4.4,9.1-10.2,9.1c-7,0-11-3.9-11-9.8v-0.6h6.5
			v0.4c0,2.8,1.5,4.5,4.4,4.5c2,0,3.2-1,3.2-2.7c0-1.5-0.8-2.3-2.6-2.8l-4.4-1.4c-3.9-1.2-6.9-3.5-6.9-8.5
			C145.1,44.6,148.9,40.8,155,40.8"/>
		<polygon class="st1" points="172,70.4 172,41.3 179.3,41.3 179.3,52.7 187.6,52.7 187.6,41.3 194.9,41.3 194.9,70.4 187.6,70.4 
			187.6,58.6 179.3,58.6 179.3,70.4 		"/>
		<polygon class="st1" points="201.9,70.4 209.2,70.4 209.2,41.3 201.9,41.3 		"/>
		<path class="st1" d="M226.1,55.2c2.6,0,3.9-1.1,3.9-4c0-2.9-1.3-4.1-3.9-4.1h-2.7v8.1H226.1z M223.4,70.4h-7.2V41.3h10.6
			c6.9,0,10.3,3.6,10.3,9.8c0,6.4-3.4,9.9-10.3,9.9h-3.3V70.4z"/>
	</g>
	<path class="st2" d="M277.8,27.1l-3.4-2h-6.5v-1.8h3.4l-3.4-2l0-1.8h13.2v1.8H271l3.5,2h6.7v1.8h-3.5l3.5,2v2h-13.2v-2H277.8z
		 M265.7,8l15.4-2V5V4h-29.1v2h14.6l-14.6,2l0,0.9v0.9l29.1,0V8H265.7z M252.1,2h29.1V0h-29.1V2z M252.1,13.5h29.1v-1.8h-29.1V13.5z
		 M267.9,17.5h13.2v-2h-13.2V17.5z"/>
</g>
</svg>
