<svg xmlns="http://www.w3.org/2000/svg" id="Layer_1" data-name="Layer 1" version="1.1" viewBox="0 0 278.9 104.6">
  <defs/>
  <defs id="defs12">
    <style id="style10">
      .cls-1{fill:#7e94b4}.cls-2{fill:#25cb55}
    </style>
  </defs>
  <g id="Layer_1-2" data-name="Layer 1-2" transform="translate(-.7 3.8)">
    <path id="path16" d="M9 100.5a11.3 11.3 0 01-.6-3.6c-.1-1.6-.5-2.2-1.9-2.2H4.8v5.9H.7V83.7h6.1c4.3 0 6.3 2 6.3 5.3a4.2 4.2 0 01-2.9 4.2c1.5.5 2.1 1.4 2.3 3.6.2 2.2.3 3.1.8 3.8H9zm-2.3-9.2c1.6 0 2.3-.7 2.3-2.1A2 2 0 007.2 87H4.8v4.3z" class="cls-1"/>
    <path id="path18" d="M27.3 100.5H16.6V83.7h10.6v3.5h-6.4v3.1h4.8v3.4h-4.8V97h6.5z" class="cls-1"/>
    <path id="path20" d="M30.1 92.7v-1.3c0-4.8 2.2-8.1 6.7-8.1s6.3 2.8 6.3 6.9v.2h-4v-.2c0-2.4-.8-3.4-2.3-3.4-1.5 0-2.4 1.1-2.4 3.7v3c0 2.6.9 3.7 2.6 3.7 1.2 0 2-.8 2-2.3v-.1h-1.8v-3H43v8.6h-3.1l-.1-1.4c-.5 1.2-1.7 1.8-3.5 1.8-4.1 0-6.2-3.3-6.2-8.1z" class="cls-1"/>
    <path id="path22" d="M51.3 83.7v16.8H47V83.7z" class="cls-1"/>
    <path id="path24" d="M60.5 83.3c4 0 6.1 2.3 6.1 5.7v.4h-3.7v-.3c0-1.6-.8-2.6-2.4-2.6a1.5 1.5 0 00-1.7 1.4v.2c0 .8.5 1.2 1.3 1.6l2.5.8c2.7.9 4.3 2.2 4.3 4.9 0 3.4-2.5 5.3-5.9 5.3-4.1 0-6.3-2.2-6.3-5.7v-.4h3.8v.4a2.4 2.4 0 002.1 2.6h.5c1.2 0 1.9-.6 1.9-1.6s-.5-1.3-1.5-1.6l-2.6-.8c-2.3-.7-4-2-4-4.9-.1-3.2 2.1-5.4 5.6-5.4z" class="cls-1"/>
    <path id="path26" d="M73.4 100.5V87.1h-4.2v-3.5h12.6v3.5h-4.3v13.3h-4.1z" class="cls-1"/>
    <path id="path28" d="M96 100.5H85.3V83.7h10.6v3.5h-6.4v3.1h4.8v3.4h-4.8V97H96z" class="cls-1"/>
    <path id="path30" d="M107.9 100.5a11.3 11.3 0 01-.6-3.6c-.1-1.6-.5-2.2-1.9-2.2h-1.7v5.9h-4.1V83.7h6.1c4.3 0 6.3 2 6.3 5.3a4.2 4.2 0 01-2.9 4.2c1.5.5 2.1 1.4 2.3 3.6.2 2.2.3 3.1.8 3.8h-4.3zm-2.3-9.2c1.6 0 2.3-.7 2.3-2.1a2 2 0 00-1.8-2.2h-2.4v4.3z" class="cls-1"/>
    <path id="path32" d="M125.9 90.4c0-.5-.2-1-1-1h-.8v1.9h.7c1 0 1.1-.4 1.1-1z" class="cls-2"/>
    <path id="path34" d="M125 93h-1v1.8h1c1 0 1.2-.4 1.2-.9s-.2-1-1.1-1z" class="cls-2"/>
    <path id="path36" d="M155.8 83.7h-37.5a1.1 1.1 0 00-1.1 1.1v14.7a1.1 1.1 0 001.1 1.1h37.5a1.1 1.1 0 001-1.1V84.8a1 1 0 00-1-1.1zm-30.6 13H122v-9.2h3.2c2.2 0 3 1 3 2.6a1.8 1.8 0 01-1.7 1.9 2 2 0 011.8 2.2c0 1.5-.9 2.5-3.1 2.5zm10.8 0h-5.7v-9.2h5.6v1.9h-3.4V91h2.6v1.8h-2.6v1.8h3.5zm8.5-7.2h-2.3v7.2H140v-7.2h-2.2v-2h6.8zm6.1 7.2l-.5-1.8h-2.5l-.5 1.8h-2.2l2.6-9.1h2.7l2.5 9.1z" class="cls-2"/>
    <path id="polygon38" d="M148.9 90.2l-.8 2.9h1.6z" class="cls-2"/>
  </g>
  <g id="Wordmark" transform="scale(.4174)">
    <path fill="#fff" id="path16-2" d="M0 37.4q.3-18 9.4-27.7T34.1 0q16 0 25 9.6t9.1 27.8q-.1 18-9.2 27.6-9.1 9.6-24.9 9.9Q17.8 74.8 9 65T0 37.4m34.1 26.1A14.7 14.7 0 0047 57q4.4-6.5 4.5-19.5 0-13-4.8-19.6A14.9 14.9 0 0034.1 11a14.4 14.4 0 00-12.7 6.7q-4.5 6.5-4.6 19.6-.1 13.1 4.5 19.7 4.3 6.5 12.8 6.5m42.7-40.8h14.5v8.2h.2a17.7 17.7 0 015.7-6.4 19 19 0 0110.2-3 18.3 18.3 0 0114.6 6.2q5.6 6.2 5.8 20.1-.1 12.8-6 19.8t-15.8 7a16.9 16.9 0 01-8.9-2.3 13 13 0 01-5-5.3H92v24.1H77zm14.8 28a17.3 17.3 0 002.6 9.9 9 9 0 007.8 4 8.6 8.6 0 007.7-4.2q2.7-4.2 2.7-12.3 0-8.1-2.4-12.1-2.6-4.1-8-4.1a9.3 9.3 0 00-7.3 3.6q-2.9 3.5-3 9.8zm90.1 7.9a17 17 0 01-7.5 11.7q-6.1 4.3-16.5 4.4-12.3-.2-18.6-7.3-6.3-7.1-6.5-19.5.1-11.8 6.7-19 6.6-7.2 18.6-7.4 12.7.2 18.5 7.4 5.8 7.2 5.8 18.6v4h-34.4q.4 6.9 3 10a8.9 8.9 0 007.3 3q4.4 0 6.3-1.8a7.7 7.7 0 002.5-4zm-14.8-16.4a16.3 16.3 0 00-2.6-8.4 7.4 7.4 0 00-6.4-3 8.5 8.5 0 00-7.1 3.2c-1.7 2-2.7 5-3 9h19zm56.1 1.6a36 36 0 00-.3-4.9 8.4 8.4 0 00-1.3-3.6 5.8 5.8 0 00-2.7-2.1 8.7 8.7 0 00-3.8-.8q-5 0-7.7 3t-2.5 8.6v29.3h-15V22.7h14.5V31h.1a17.1 17.1 0 016-6.6q4-2.7 10.5-2.7 9.1 0 13.2 4.7t4 14v33h-15zM0 139q.3-18 9.5-27.8t24.7-9.8q16.1 0 25.1 9.7t9.1 27.8q-.2 18-9.3 27.7-9.1 9.7-24.9 9.9-16.4-.2-25.2-9.8-8.8-9.6-9-27.8m34.2 26.2a14.7 14.7 0 0012.9-6.7q4.5-6.5 4.5-19.5t-4.8-19.7a15 15 0 00-12.6-6.6 14.5 14.5 0 00-12.8 6.6Q17 125.7 17 139t4.4 19.6q4.4 6.6 13 6.6m37.9-41.1h14.5l6.8 25.6L95 157l.5 3.4h.3l.7-3.4c.5-2.2 1-4.5 1.8-7.2l7.6-25.7h12.2l7.6 25.7q1.2 4 1.8 7.2l.7 3.4h.4l.5-3.4 1.6-7.2 6.7-25.7h13.1L135.8 175h-14.5l-6.1-20.2q-1.4-5-2.5-9.9t-1-5.4h-.2l-1 5.4q-1 5-2.7 10l-6.3 20.1H87.1zM189 145.3a36.1 36.1 0 00-.3-4.9 8.4 8.4 0 00-1.2-3.6 5.8 5.8 0 00-2.8-2.1 8.8 8.8 0 00-3.7-.8q-5 0-7.7 3a13 13 0 00-2.6 8.6V175h-15.1v-50.8H170v8.4h.2a17.2 17.2 0 016-6.7q4-2.6 10.5-2.7 9.1 0 13.2 4.7t4 14.2v33h-15zm71.1 14.9a17 17 0 01-7.5 11.7q-6.1 4.3-16.6 4.4-12.3-.2-18.6-7.3-6.3-7.1-6.5-19.6.1-11.8 6.7-19.1 6.6-7.3 18.6-7.4 12.8.3 18.6 7.5 5.8 7.2 5.8 18.7v4H226q.5 6.8 3.1 10a9 9 0 007.3 3c3 0 5-.6 6.3-1.8a7.7 7.7 0 002.5-4.1zm-14.9-16.4a16.2 16.2 0 00-2.5-8.5 7.4 7.4 0 00-6.5-3 8.5 8.5 0 00-7 3.1 16 16 0 00-3 9h19zm22.9-19.7h14.2V135h.2a17 17 0 017-8.7 18.2 18.2 0 019.8-3h.8V137h-2.6q-7 0-10.6 2.8-3.6 2.8-3.8 10.1V175h-15zm64.5 14.2a5.9 5.9 0 00-2-4.1 9.5 9.5 0 00-10.6-.2 4.6 4.6 0 00-1.8 3.8 4.6 4.6 0 001.3 3.4 8.6 8.6 0 004.6 1.7l8.6 1.1q7 .9 10.8 4.5 3.8 3.6 4 10.5-.3 8.5-6.2 12.9t-16 4.4q-11.3-.2-16.6-4.7a15.4 15.4 0 01-5.6-11.5h13.8a6.5 6.5 0 002.1 4.7q2 1.8 6.5 1.9a10.7 10.7 0 005.8-1.4 5 5 0 002.2-4.2 4.3 4.3 0 00-1.2-3.5q-1.4-1.2-4.9-1.7l-8.1-1.1q-7.1-1-11-4.7-3.9-3.7-3.9-10.5a15.4 15.4 0 015.1-11.7q5.1-4.8 16-5 9.9.1 15 4.4a15 15 0 015.4 11zm55.4 6.9a36.1 36.1 0 00-.3-4.8 8.3 8.3 0 00-1.2-3.6 5.8 5.8 0 00-2.8-2.1 8.8 8.8 0 00-3.7-.8q-5 0-7.7 3a13 13 0 00-2.6 8.6V175h-15.1v-74.6h15v32h.2a16.3 16.3 0 015.7-6.4 18.1 18.1 0 0110.3-2.8q9 0 13.1 4.7T403 142v33h-15zm24.5-43.5h15.2v13.6h-15.2zm0 22.4h15.1V175h-15zm25.1 0H452v8.3h.2a17.7 17.7 0 015.7-6.5 19 19 0 0110.3-2.9 18.4 18.4 0 0114.6 6.2q5.6 6.2 5.8 20.2-.1 12.7-6 19.8-5.9 7.1-15.9 7a17 17 0 01-8.8-2.3 13 13 0 01-5-5.3h-.3v24.2h-15.1zm14.9 28.2a17.3 17.3 0 002.5 9.8 9.1 9.1 0 007.9 4 8.6 8.6 0 007.7-4.1c1.8-2.9 2.7-7 2.7-12.4s-.9-9.4-2.6-12.2c-1.7-2.8-4.3-4-8-4a9.4 9.4 0 00-7.3 3.5q-2.9 3.6-3 10z"/>
  </g>
  <path id="Emblem" fill="#3b25d8" stroke-width=".4" d="M269.9 33.7V20.1a10.1 10.1 0 10-2.2 0v11.4a9.9 9.9 0 00-3-3.5c-3.4-2.3-7.7-2.3-12.7-2.3-4.7 0-8.7 0-11.4-1.8a8.5 8.5 0 01-3-4 10.1 10.1 0 10-2.5.3h.2c.9 2.5 2.2 4.3 4 5.5 3.3 2.3 7.6 2.3 12.7 2.3 4.6 0 8.6 0 11.3 2a8.5 8.5 0 013 4 10.1 10.1 0 103.6-.3m-42.6-23.6A7.8 7.8 0 11235 18a7.8 7.8 0 01-7.8-7.8m33.6 0a7.8 7.8 0 117.9 7.8 7.8 7.8 0 01-8-7.8"/>
</svg>
