<svg xmlns="http://www.w3.org/2000/svg" width="254" height="64" viewBox="0 0 254 64">
  <g fill="none" fill-rule="evenodd">
    <g fill="#FFFFFF">
      <path d="M14.1848116 11.2319072C14.1848116 7.15538551 12.8528696 5.44964638 10.482087 5.44964638 8.11130435 5.44964638 6.78028986 7.15538551 6.78028986 11.2319072L6.78028986 15.8890667C6.78028986 19.9674435 8.11130435 21.6722551 10.482087 21.6722551 12.8528696 21.6722551 14.1848116 19.9674435 14.1848116 15.8890667L14.1848116 11.2319072zM20.9651014 14.476429C20.9651014 22.0052406 17.5953623 27.1215304 10.482087 27.1215304 3.36973913 27.1215304 0 22.0052406 0 14.476429L0 12.6445449C0 5.11573333 3.36973913.000371014493 10.482087.000371014493 17.5953623.000371014493 20.9651014 5.11573333 20.9651014 12.6445449L20.9651014 14.476429zM35.5263072 12.9782725C37.8970899 12.9782725 39.0620754 12.0219826 39.0620754 9.35902609 39.0620754 6.73873623 37.8970899 5.69896812 35.5263072 5.69896812L33.1137855 5.69896812 33.1137855 12.9782725 35.5263072 12.9782725zM33.1137855 26.663142L26.5830029 26.663142 26.5830029.458388406 36.1088.458388406C42.3474087.458388406 45.3841623 3.66117101 45.3841623 9.31914203 45.3841623 15.0578087 42.3474087 18.2188522 36.1088 18.2188522L33.1137855 18.2188522 33.1137855 26.663142z"/>
      <polygon points="67.101 26.663 50.545 26.663 50.545 .458 67.017 .458 67.017 5.866 56.993 5.866 56.993 10.732 64.479 10.732 64.479 16.056 56.993 16.056 56.993 21.256 67.101 21.256"/>
      <polygon points="86.362 14.185 86.528 14.185 86.528 .458 92.518 .458 92.518 26.663 87.485 26.663 79 11.731 78.833 11.731 78.833 26.663 72.801 26.663 72.801 .458 78.958 .458"/>
      <path d="M14.1848116,48.0325565 C14.1848116,43.9560348 12.8528696,42.2521507 10.482087,42.2521507 C8.11130435,42.2521507 6.78028986,43.9560348 6.78028986,48.0325565 L6.78028986,52.691571 C6.78028986,56.7680928 8.11130435,58.4729043 10.482087,58.4729043 C12.8528696,58.4729043 14.1848116,56.7680928 14.1848116,52.691571 L14.1848116,48.0325565 Z M20.9651014,51.2770783 C20.9651014,58.8058899 17.5953623,63.9221797 10.482087,63.9221797 C3.36973913,63.9221797 0,58.8058899 0,51.2770783 L0,49.4470493 C0,41.9182377 3.36973913,36.8028754 10.482087,36.8028754 C17.5953623,36.8028754 20.9651014,41.9182377 20.9651014,49.4470493 L20.9651014,51.2770783 Z"/>
      <polygon points="42.306 37.259 44.802 52.525 44.968 52.525 47.714 37.259 53.828 37.259 48.504 63.466 42.057 63.466 39.187 46.661 39.02 46.661 36.15 63.466 29.703 63.466 24.379 37.259 30.909 37.259 33.53 52.525 33.696 52.525 36.316 37.259"/>
      <polygon points="72.093 50.985 72.259 50.985 72.259 37.259 78.249 37.259 78.249 63.465 73.216 63.465 64.731 48.532 64.564 48.532 64.564 63.465 58.532 63.465 58.532 37.259 64.689 37.259"/>
      <polygon points="101.088 63.466 84.533 63.466 84.533 37.259 101.005 37.259 101.005 42.666 90.981 42.666 90.981 47.534 98.467 47.534 98.467 52.858 90.981 52.858 90.981 58.058 101.088 58.058"/>
      <path d="M116.106852 49.2390957C118.561113 49.2390957 119.767838 48.1993275 119.767838 45.9110957 119.767838 43.7898203 118.561113 42.4996174 116.106852 42.4996174L113.237055 42.4996174 113.237055 49.2390957 116.106852 49.2390957zM119.767838 63.4656464C119.267896 62.4258783 118.977577 60.9279072 118.81062 57.8076754 118.68633 55.3951536 117.979548 54.3136464 115.857345 54.3136464L113.237055 54.3136464 113.237055 63.4656464 106.789751 63.4656464 106.789751 37.2590377 116.357287 37.2590377C123.053171 37.2590377 126.173403 40.4200812 126.173403 45.496487 126.173403 49.1556174 124.010388 51.4021101 121.639606 51.9855304 123.968649 52.7340522 124.925867 54.2301681 125.174446 57.516429 125.46662 61.0939362 125.632649 62.3424 126.381171 63.4656464L119.767838 63.4656464zM139.778041 36.8025043C146.017577 36.8025043 149.262099 40.4198957 149.262099 45.6614029L149.262099 46.3283014 143.438099 46.3283014 143.438099 45.9109101C143.438099 43.4167652 142.273113 41.7935768 139.736301 41.7935768 138.030562 41.7935768 136.990794 42.7916058 136.990794 44.2895768 136.990794 45.4963014 137.698504 46.2448232 139.07033 46.701171L142.939084 47.9913739C147.181635 49.4058667 149.677635 51.4854029 149.677635 55.6862145 149.677635 61.0529391 145.72633 63.9218087 140.444012 63.9218087 134.120997 63.9218087 130.54349 60.4296348 130.54349 55.1046493L130.54349 54.5221565 136.408301 54.5221565 136.408301 54.8968812C136.408301 57.3910261 137.781983 58.9307362 140.402272 58.9307362 142.190562 58.9307362 143.313809 58.0161855 143.313809 56.5182145 143.313809 55.1463884 142.565287 54.4804174 140.984765 53.9814029L136.990794 52.7338667C133.455954 51.6106203 130.792997 49.6145623 130.792997 45.0380986 130.792997 40.1722435 134.287026 36.8025043 139.778041 36.8025043"/>
      <polygon points="155.088 63.466 155.088 37.259 161.66 37.259 161.66 47.534 169.148 47.534 169.148 37.259 175.72 37.259 175.72 63.466 169.148 63.466 169.148 52.858 161.66 52.858 161.66 63.466"/>
      <polygon points="182.005 63.466 188.576 63.466 188.576 37.259 182.005 37.259"/>
      <path d="M203.8016,49.7807768 C206.17331,49.7807768 207.337368,48.8226319 207.337368,46.1615304 C207.337368,43.5393855 206.17331,42.4996174 203.8016,42.4996174 L201.389078,42.4996174 L201.389078,49.7807768 L203.8016,49.7807768 Z M201.389078,63.4656464 L194.858296,63.4656464 L194.858296,37.2590377 L204.384093,37.2590377 C210.623629,37.2590377 213.660383,40.4618203 213.660383,46.1197913 C213.660383,51.860313 210.623629,55.0213565 204.384093,55.0213565 L201.389078,55.0213565 L201.389078,63.4656464 Z"/>
    </g>
    <path fill="#3C31D4" d="M250.428946,24.4247188 L247.37705,22.624371 L241.54342,22.624371 L241.54342,20.9854145 L244.598739,20.9854145 L241.543699,19.1832116 L241.54342,17.594342 L253.458551,17.594342 L253.458551,19.1832116 L244.315374,19.1832116 L247.459195,20.9854145 L253.458551,20.9854145 L253.458551,22.624371 L250.318244,22.624371 L253.458829,24.4247188 L253.458829,26.2120812 L241.54342,26.2120812 L241.54342,24.4247188 L250.428946,24.4247188 Z M239.532751,7.17718261 L253.458551,5.37609275 L253.458551,4.48231884 L253.458551,3.58854493 L227.246377,3.58854493 L227.246377,5.37590725 L240.404631,5.37590725 L227.247732,7.17718261 L227.246377,7.97171014 L227.246377,8.76623768 L253.458551,8.76605217 L253.458551,7.17718261 L239.532751,7.17718261 Z M227.246377,1.78726957 L253.458551,1.78726957 L253.458551,-9.2753623e-05 L227.246377,-9.2753623e-05 L227.246377,1.78726957 Z M227.246377,12.2053565 L253.458551,12.2053565 L253.458551,10.5664 L227.246377,10.5664 L227.246377,12.2053565 Z M241.54342,15.7939942 L253.458551,15.7939942 L253.458551,14.0066319 L241.54342,14.0066319 L241.54342,15.7939942 Z"/>
  </g>
</svg>
